<?xml version="1.0" encoding="UTF-8"?>
<svg width="280px" height="210px" viewBox="0 0 280 210" version="1.1" xmlns="http://www.w3.org/2000/svg" xmlns:xlink="http://www.w3.org/1999/xlink">
    <!-- Generator: Sketch 46.2 (44496) - http://www.bohemiancoding.com/sketch -->
    <title>app_icon_photo2</title>
    <desc>Created with Sketch.</desc>
    <defs>
        <rect id="path-1" x="58" y="11" width="204.464265" height="145.67845" rx="8"></rect>
        <filter x="-1.2%" y="-1.7%" width="102.4%" height="103.4%" filterUnits="objectBoundingBox" id="filter-2">
            <feMorphology radius="3" operator="erode" in="SourceAlpha" result="shadowSpreadInner1"></feMorphology>
            <feOffset dx="0" dy="0" in="shadowSpreadInner1" result="shadowOffsetInner1"></feOffset>
            <feComposite in="shadowOffsetInner1" in2="SourceAlpha" operator="arithmetic" k2="-1" k3="1" result="shadowInnerInner1"></feComposite>
            <feColorMatrix values="0 0 0 0 0.0234453087   0 0 0 0 0.763259991   0 0 0 0 0.763259991  0 0 0 0.193387681 0" type="matrix" in="shadowInnerInner1"></feColorMatrix>
        </filter>
        <polygon id="path-3" points="62 0 62 62 0 62 0 0"></polygon>
        <polygon id="path-5" points="0.000193587962 0.24176378 7.83661538 0.24176378 7.83661538 37.7940819 0.000193587962 37.7940819"></polygon>
        <path d="M-5.51961746,25.6232787 C-5.51961746,21.506593 -2.1822074,18.1693599 1.93423967,18.1693599 L35.5819367,18.1693599 C39.6985883,18.1693599 43.0357939,21.5149697 43.0357939,25.6232787 L43.0357939,27.0780499 C43.0357939,30.3912876 40.3560809,33.0771975 37.0332479,33.0771975 L0.482928457,33.0771975 C-2.83218611,33.0771975 -5.51961746,30.3947573 -5.51961746,27.0780499 L-5.51961746,25.6232787 Z" id="path-7"></path>
        <filter x="-6.2%" y="-20.1%" width="112.4%" height="140.2%" filterUnits="objectBoundingBox" id="filter-8">
            <feOffset dx="-4" dy="-5" in="SourceAlpha" result="shadowOffsetInner1"></feOffset>
            <feComposite in="shadowOffsetInner1" in2="SourceAlpha" operator="arithmetic" k2="-1" k3="1" result="shadowInnerInner1"></feComposite>
            <feColorMatrix values="0 0 0 0 0.936277636   0 0 0 0 0.936277636   0 0 0 0 0.936277636  0 0 0 1 0" type="matrix" in="shadowInnerInner1"></feColorMatrix>
        </filter>
        <polygon id="path-9" points="48 28 0 28 0 5.1877808e-15 48 0"></polygon>
    </defs>
    <g id="Symbols" stroke="none" stroke-width="1" fill="none" fill-rule="evenodd">
        <g id="app_icon_photo2">
            <g id="Rectangle-16" stroke-linecap="round" stroke-linejoin="round">
                <use fill="#FFFFFF" fill-rule="evenodd" xlink:href="#path-1"></use>
                <use fill="black" fill-opacity="1" filter="url(#filter-2)" xlink:href="#path-1"></use>
                <use stroke="#06C3C3" stroke-width="2" xlink:href="#path-1"></use>
            </g>
            <circle id="Oval" fill="#FAD214" cx="170.5" cy="46.5" r="1.5"></circle>
            <circle id="Oval" fill="#FAD214" cx="170.5" cy="54.5" r="1.5"></circle>
            <circle id="Oval" fill="#FAD214" cx="170.5" cy="62.5" r="1.5"></circle>
            <rect id="Rectangle-6" stroke="#1A2020" x="82.5" y="31.5" width="69" height="46" rx="3"></rect>
            <g id="Group-3" transform="translate(9.000000, 51.000000)">
                <g id="Group-2">
                    <rect id="Rectangle-2" stroke="#FFFFFF" stroke-width="2" transform="translate(28.836992, 109.933918) scale(-1, 1) translate(-28.836992, -109.933918) " x="27.1772278" y="107.490205" width="3.31952842" height="4.88742621"></rect>
                    <path d="M69.8612665,60.9272318 C69.8757281,60.9276963 69.8887902,60.9281608 69.8999862,60.9281608 C69.8869242,60.9276963 69.8738621,60.9276963 69.8612665,60.9272318" id="Fill-11" fill="#06C3C3" transform="translate(70.361267, 61.427232) scale(-1, 1) translate(-70.361267, -61.427232) "></path>
                    <g id="Group-49">
                        <g id="Group-20" transform="translate(0.222333, 0.000000)">
                            <g id="Lp_icon_phone">
                                <g id="Group-8" transform="translate(0.185148, 0.000000)">
                                    <g id="Group-5" transform="translate(0.138245, 0.000000)">
                                        <ellipse id="Oval-5" fill="#06C3C3" opacity="0.05" cx="35.1880267" cy="47.0216015" rx="12.4889933" ry="12.0336915"></ellipse>
                                        <ellipse id="Oval-5" fill="#06C3C3" opacity="0.147154851" cx="35.0399358" cy="47.5829818" rx="7.94754121" ry="7.65780367"></ellipse>
                                        <ellipse id="Oval-5" fill="#06C3C3" cx="35.6240719" cy="47.4390382" rx="3.40608909" ry="3.28191586"></ellipse>
                                        <rect id="Rectangle-5-Copy" stroke="#1A2020" fill="#FFFFFF" x="-8.52651283e-14" y="0" width="65.1681925" height="126.89115" rx="10"></rect>
                                        <ellipse id="Oval-6-Copy" stroke="#1A2020" cx="23.0246174" cy="9.20484425" rx="1.05781091" ry="1.01924709"></ellipse>
                                        <rect id="Rectangle-7-Copy" stroke="#1A2020" stroke-width="1.5" x="27.8423946" y="9.64092118" width="9.09672161" height="1" rx="0.5"></rect>
                                        <path d="M2.62121515,10.1159721 L2.62121515,117.160808 C2.62121515,121.441014 6.09100834,124.910808 10.3712152,124.910808 L54.9715118,124.910808 C59.2517186,124.910808 62.7215118,121.441014 62.7215118,117.160808 L62.7215118,10.1159721 C62.7215118,5.83576526 59.2517186,2.36597207 54.9715118,2.36597207 L10.3712152,2.36597207 C6.09100834,2.36597207 2.62121515,5.83576526 2.62121515,10.1159721 Z" id="Rectangle-6-Copy" stroke="#1A2020" stroke-width="0.5"></path>
                                        <ellipse id="Oval-5-Copy" stroke="#1A2020" cx="32.9231901" cy="5.33847511" rx="1" ry="1"></ellipse>
                                        <path d="M8.84568502,16.4441614 C7.06342069,16.4441614 5.62556904,17.8833946 5.62561907,19.675642 L5.62804705,106.658898 C5.62809691,108.444874 7.06854333,109.890407 8.84814322,109.890407 L56.4732661,109.890407 C58.255432,109.890407 59.6932582,108.45117 59.6932582,106.658912 L59.6932582,19.675656 C59.6932582,17.8896908 58.2527863,16.4441614 56.473088,16.4441614 L8.84568502,16.4441614 Z" id="Rectangle-8-Copy" stroke="#1A2020"></path>
                                        <ellipse id="Oval-7-Copy" stroke="#1A2020" cx="32.788092" cy="117.355865" rx="4.23124364" ry="4.07698837"></ellipse>
                                    </g>
                                </g>
                            </g>
                        </g>
                    </g>
                </g>
            </g>
            <g id="Page-1" transform="translate(1.000000, 112.000000)">
                <g id="Group-3" transform="translate(36.000000, 20.000000)">
                    <mask id="mask-4" fill="white">
                        <use xlink:href="#path-3"></use>
                    </mask>
                    <g id="Clip-2"></g>
                    <path d="M28.1490264,27.1419687 C28.3349636,25.9241142 19.4559591,14.9686242 17.8181879,12.794728 C16.6481121,11.2415226 14.1017321,6.42990832 17.8181879,3.33454473 C21.5346436,0.239181133 25.3990406,3.23665103 26.7915228,4.84899548 C31.0130602,9.73656577 33.2650706,13.1017147 37.4896775,17.9871345 C37.9599775,18.5312134 38.1239529,14.4629635 37.9816038,5.7823848 C38.1392696,5.69932137 45.4008342,13.2820176 46.923914,15.2559164 C51.2316792,20.8383701 53.3608655,27.1804912 53.5369489,34.1435719 C53.6954519,40.4155326 55.3667096,46.4299699 57.0332235,52.4382244 C57.6304002,54.5908843 58.3140839,56.6973083 59,58.9760419 C54.6964206,58.9760419 50.5217644,59.0010415 46.3471082,58.9999663 C39.9774088,58.9983534 33.6079885,59.006149 27.2385682,58.9760419 C26.6157185,58.9730849 22.9677278,58.4357345 17.2450664,56.8650481 C10.0186665,54.8816338 7.87428661,51.8591849 3.02180689,46.2130224 C20.0388438,46.2130224 29.2761991,46.2130224 30.7338728,46.2130224 C31.3110523,46.2130224 26.5082091,37.8890157 28.1490264,27.1419687 Z" id="Fill-1" stroke="#1A2020" fill="#FFFAE4" mask="url(#mask-4)"></path>
                </g>
                <g id="Group-6">
                    <mask id="mask-6" fill="white">
                        <use xlink:href="#path-5"></use>
                    </mask>
                    <g id="Clip-5"></g>
                    <path d="M8.83602881,2 C8.83602881,13.9525607 8.83602881,25.8731787 8.83661538,37.7940819 C4.75144324,36.1943798 2.18343641,31.6896029 3.38707963,27.9939461 C3.75808564,26.8554169 4.55142261,25.84694 5.25560082,24.5940445 C3.39059905,22.9832196 1.39596514,21.0752134 1.36751646,18.2012256 C1.33906778,15.3608917 2.82162541,13.2572365 5.41925407,11.8295117 C3.35305852,7.16530642 4.78341135,3.04612357 8.83602881,2 Z" id="Fill-4" stroke="#1A2020" fill="#FFFAE4" mask="url(#mask-6)"></path>
                </g>
            </g>
            <g id="Group" transform="translate(77.747098, 192.945928) rotate(50.000000) translate(-77.747098, -192.945928) translate(58.747098, 167.445928)">
                <g id="Rectangle-51" stroke-linecap="round" stroke-linejoin="round" transform="translate(18.758088, 25.623279) scale(-1, 1) rotate(60.000000) translate(-18.758088, -25.623279) ">
                    <use fill="#FFFFFF" fill-rule="evenodd" xlink:href="#path-7"></use>
                    <use fill="black" fill-opacity="1" filter="url(#filter-8)" xlink:href="#path-7"></use>
                    <use stroke="#1A2020" stroke-width="1" xlink:href="#path-7"></use>
                </g>
                <rect id="Rectangle-52" fill="#FAD214" transform="translate(27.775283, 11.075262) scale(-1, 1) rotate(60.000000) translate(-27.775283, -11.075262) " x="25.5093642" y="8.80667801" width="4.53183839" height="4.53716798" rx="2.26591919"></rect>
            </g>
            <g id="Group-4" transform="translate(176.000000, 46.000000)" stroke="#FAD214" stroke-width="2" stroke-linecap="round">
                <path d="M0,1 L46,1" id="Line-Copy-27"></path>
                <path d="M0,9 L11.3352273,9 M14.5738636,9 L39.1875,9 M42.75,9 L57,9" id="Line-Copy-28"></path>
                <path d="M0,17 L22.3465909,17 M25.9090909,17 L57,17" id="Line-Copy-31"></path>
            </g>
            <path d="M83.5846154,93.5 L234.419916,93.5" id="Line-2" stroke="#1A2020" stroke-linecap="round" stroke-linejoin="round"></path>
            <path d="M83.5846154,105.5 L234.419916,105.5" id="Line-2" stroke="#1A2020" stroke-linecap="round" stroke-linejoin="round"></path>
            <path d="M83.5846154,117.5 L234.419916,117.5" id="Line-2" stroke="#1A2020" stroke-linecap="round" stroke-linejoin="round"></path>
            <path d="M83.5921053,129.5 L127.551684,129.5" id="Line-2" stroke="#1A2020" stroke-linecap="round" stroke-linejoin="round"></path>
            <g id="Page-1" transform="translate(91.000000, 40.000000)">
                <g id="Group-3" transform="translate(0.000000, 5.000000)">
                    <mask id="mask-10" fill="white">
                        <use xlink:href="#path-9"></use>
                    </mask>
                    <g id="Clip-2"></g>
                    <path d="M27.4135586,16.5219533 C27.8192617,16.9663196 28.5764144,17.0506479 29.0960392,16.7093191 L35.352676,12.5995017 C35.8723008,12.2580817 36.592278,12.36623 36.9525789,12.8397096 L47.8314815,27.1390119 C48.1916783,27.6124915 47.9551918,28 47.3057128,28 L0.836571788,28 C0.187196972,28 -0.157692282,27.5639388 0.0703594892,27.0310461 L11.4422288,0.452213407 C11.6701764,-0.0807705441 12.1887599,-0.153143194 12.5943588,0.291223049 L27.4135586,16.5219533 Z" id="Fill-1" fill="#E1DFDF" mask="url(#mask-10)"></path>
                </g>
                <path d="M37.0000023,5.49981773 C37.0026396,2.47001603 39.4650294,0.00338883202 42.4902943,3.57871872e-06 C45.5132044,-0.00347570939 48.03126,2.53048042 47.9997066,5.54420217 C47.9678707,8.58820312 45.5065169,11.0166522 42.469761,10.999914 C39.4082333,10.9831758 36.9972708,8.55877023 37.0000023,5.49981773" id="Fill-4" fill="#E1DFDF"></path>
            </g>
            <g id="Page-1" transform="translate(17.000000, 102.000000)" fill="#E1DFDF">
                <path d="M46.3028833,31.1936241 C40.2723195,25.6045086 34.2455022,34.0628967 31.7218432,31.7799163 C28.5584105,28.9181767 24.9720767,25.3404478 24.6508959,24.3514235 C24.2562443,23.1371788 23.6350819,22.4736753 22.5652537,22.4007295 C19.4884812,22.1910101 16.403868,22.0025666 13.3224492,22.0010469 C10.1823699,21.9995272 1.88077943,22.2716379 1.0171342,22.209026 C0.57603537,19.4485976 1.77287261,19.1142478 2.9630624,18.2251866 C5.71442266,16.1699448 8.87935169,13.7071021 11.4717394,10.9755834 C12.3812676,10.017561 13.3169316,9.0862855 14.3806615,8 C14.7349477,8.57262504 14.9913696,8.91759819 15.1780958,9.29965216 C16.7625102,12.5430077 19.2509352,14.8064571 22.3494876,16.3130931 C23.1149781,16.6848131 24.1464737,16.7331397 24.9990838,16.5811692 C27.6951437,16.1000304 29.9553155,14.662389 31.9239272,12.7034886 C33.1854184,11.4485158 34.4190313,10.1601094 35.719436,8.95133565 C36.9751192,7.78359393 37.3067543,7.89909155 38.3815193,9.30633886 C40.1573063,11.6314883 41.8157723,14.0991861 43.8546604,16.1453176 C45.3112995,17.6063625 47.3286981,18.4455439 49.0525038,19.631826 C49.4451226,19.9020297 49.7808233,20.4193374 49.9207954,20.8950052 C50.0712218,21.4041066 49.9611608,21.9977036 49.9611608,22.5542197 C49.961548,25.2852318 49.961548,29.4394739 49.9611608,35.016946 C48.8096905,33.6612075 47.5902647,32.3867669 46.3028833,31.1936241 Z" id="Fill-1"></path>
                <path d="M36,56 L1,56 L1,36 C4.9875546,37.0123213 9.01994467,37.3592598 12.594328,39.4850406 C14.5667773,40.6583063 15.0683741,42.6243953 15.7110158,44.5156482 C16.7182571,47.4815337 18.1869301,48.6416483 21.3279039,48.5355001 C27.4451433,48.32884 31.9735257,51.2427473 36,56" id="Fill-3"></path>
                <path d="M24.4059316,8.9991158 C21.9148331,8.94978974 19.9282648,6.8602411 20.0019875,4.36700559 C20.0763169,1.85621848 22.1420689,-0.077786633 24.6638092,0.00240603727 C27.098478,0.079572569 29.0228523,2.09588865 28.999795,4.54494254 C28.9758275,7.02758656 26.891569,9.04844185 24.4059316,8.9991158" id="Fill-5"></path>
            </g>
        </g>
    </g>
</svg>