<?xml version="1.0" encoding="UTF-8"?>
<svg width="880px" height="920px" viewBox="0 0 880 920" version="1.1" xmlns="http://www.w3.org/2000/svg" xmlns:xlink="http://www.w3.org/1999/xlink">
    <!-- Generator: Sketch 40.3 (33839) - http://www.bohemiancoding.com/sketch -->
    <title>Group 55</title>
    <desc>Created with Sketch.</desc>
    <defs></defs>
    <g id="APP" stroke="none" stroke-width="1" fill="none" fill-rule="evenodd">
        <g transform="translate(-480.000000, -3456.000000)" id="Group-55" fill="#FAD214">
            <g transform="translate(920.000000, 3916.000000) scale(-1, 1) translate(-920.000000, -3916.000000) translate(480.000000, 3456.000000)">
                <path d="M118.311898,884.873497 C199.66464,959.172231 457.704829,902.628923 525.8732,811.071797 C594.041571,719.514672 622.265703,719.024303 658.475188,692.962474 C694.684673,666.900644 780.007051,709.134992 853.302882,560.60935 C926.598713,412.083709 857.92076,92.1163265 525.924291,3.63566255 C456.331647,-14.9115328 295.6075,36.4085785 206.034985,182.854127 C116.46247,329.299676 34.3422112,406.666127 10.7923011,512.985913 C-26.0936314,679.513275 36.9591571,810.574763 118.311898,884.873497 Z" id="Path-39-Copy-6" opacity="0.0399999991"></path>
                <path d="M3.08092092,417.49343 C1.43353599,252.918609 79.0191204,174.568283 154.28094,166.582831 C229.54276,158.59738 345.47616,41.0227538 472.560021,56.3950462 C599.643882,71.7673386 834.568874,240.968984 700.78435,612.601946 C566.999826,984.234909 341.289979,843.734318 221.998273,807.28807 C102.706568,770.841823 4.72830585,582.06825 3.08092092,417.49343 Z" id="Path-39-Copy-7" opacity="0.06"></path>
                <path d="M55.1571387,663.784629 C29.6971468,562.387481 24.3888146,479.189521 105.52651,354.433024 C186.664205,229.676528 261.063549,185.207236 368.778365,173.278354 C476.493182,161.349472 519.868519,267.88532 530.707426,417.390779 C541.546333,566.896238 526.054292,617.015426 368.778365,695.724573 C211.502439,774.433719 80.6171307,765.181777 55.1571387,663.784629 Z" id="Path-39-Copy-8" opacity="0.08"></path>
            </g>
        </g>
    </g>
</svg>