<?xml version="1.0" encoding="UTF-8"?>
<svg width="1038px" height="920px" viewBox="0 0 1038 920" version="1.1" xmlns="http://www.w3.org/2000/svg" xmlns:xlink="http://www.w3.org/1999/xlink">
    <!-- Generator: Sketch 40.3 (33839) - http://www.bohemiancoding.com/sketch -->
    <title>Group 32</title>
    <desc>Created with Sketch.</desc>
    <defs></defs>
    <g id="APP" stroke="none" stroke-width="1" fill="none" fill-rule="evenodd">
        <g transform="translate(-25.000000, -2562.000000)" id="Group-32" fill="#765DFF">
            <g transform="translate(25.000000, 2562.000000)">
                <path d="M982.422353,354.668518 C955.623435,191.156079 681.796633,32.9672728 489.438207,58.7811372 C297.079781,84.5950016 45.0959742,357.670778 174.464728,674.664428 C303.833482,991.658079 566.057498,852.996671 703.637199,687.072271 C841.216901,521.147872 1009.22127,518.180957 982.422353,354.668518 Z" id="Path-39-Copy-4" opacity="0.03"></path>
                <path d="M161.103829,304.072941 C-22.3829525,518.359376 -38.0917154,668.564419 58.413126,726.123853 C126.851554,766.94333 227.133221,799.539466 351.575323,874.451364 C476.017425,949.363261 683.285531,948.137036 856.904042,745.490108 C1202.77836,341.78679 966.093511,74.4472275 848.069933,14.3121898 C730.046355,-45.8228479 344.590611,89.7865058 161.103829,304.072941 Z" id="Path-39-Copy-4" opacity="0.03"></path>
                <path d="M433.310131,808.511585 C296.880012,786.59873 180.10377,675.265743 153.254585,473.778581 C126.405399,272.291419 537.805539,130.189124 687.183002,257.16 C727.463429,291.398372 726.647663,337.614842 727.310445,374.605669 C727.973228,411.596495 637.714196,566.992178 613.698046,623.119997 C580.814738,699.971133 569.740249,830.424441 433.310131,808.511585 Z" id="Path-39-Copy-5" opacity="0.0399999991"></path>
            </g>
        </g>
    </g>
</svg>