<?xml version="1.0" encoding="UTF-8"?>
<svg width="1121px" height="865px" viewBox="0 0 1121 865" version="1.1" xmlns="http://www.w3.org/2000/svg" xmlns:xlink="http://www.w3.org/1999/xlink">
    <!-- Generator: Sketch 40.3 (33839) - http://www.bohemiancoding.com/sketch -->
    <title>Group 15</title>
    <desc>Created with Sketch.</desc>
    <defs></defs>
    <g id="APP" stroke="none" stroke-width="1" fill="none" fill-rule="evenodd">
        <g transform="translate(-126.000000, -1421.000000)" id="Group-15" fill="#0FE1C3">
            <g transform="translate(126.000000, 1421.000000)">
                <path d="M19.0839317,657.254437 C-43.401715,464.847642 57.1155026,430.108522 182.081259,213.652618 C307.047015,-2.80328679 452.111168,96.5947758 587.592909,17.8529132 C723.074649,-60.8889494 1233.38154,126.004516 1097.93369,476.595753 C962.485839,827.186989 722.16799,823.547316 551.557033,855.010037 C380.946075,886.472759 81.5695783,849.661232 19.0839317,657.254437 Z" id="Path-39-Copy" opacity="0.04"></path>
                <path d="M901.192193,633.790416 C928.025801,560.999872 931.06165,360.861968 891.803038,281.574076 C852.544426,202.286185 803.347379,158.632394 731.620432,136.891471 C621.408664,103.485538 478.18854,149.743559 375.406278,237.136423 C272.624015,324.529286 87.4520832,211.281305 101.785978,534.015722 C104.79063,601.666868 195.911222,760.422912 324.974998,804.111596 C454.038773,847.80028 536.323239,835.297307 620.106766,829.508663 C751.335866,820.441982 866.958696,726.654365 901.192193,633.790416 Z" id="Path-39" opacity="0.05"></path>
                <path d="M552.279441,209 C641.049431,209 727.766262,303.497072 754.665701,375.314847 C781.565141,447.132622 787.222701,573.586318 715.083466,671.450517 C687.033345,709.503357 620.899939,766.470989 480.48231,795.714318 C340.064681,824.957647 204.782972,732.449726 169.282658,621.007236 C124.450259,480.26949 271.756714,429.493169 367.826141,375.314847 C463.895568,321.136526 463.509451,209 552.279441,209 Z" id="Path-39-Copy-2" opacity="0.05"></path>
            </g>
        </g>
    </g>
</svg>