<?xml version="1.0" encoding="UTF-8"?>
<svg width="1010px" height="809px" viewBox="0 0 1010 809" version="1.1" xmlns="http://www.w3.org/2000/svg" xmlns:xlink="http://www.w3.org/1999/xlink">
    <!-- Generator: Sketch 40.3 (33839) - http://www.bohemiancoding.com/sketch -->
    <title>Group 32</title>
    <desc>Created with Sketch.</desc>
    <defs></defs>
    <g id="APP" stroke="none" stroke-width="1" fill="none" fill-rule="evenodd">
        <g transform="translate(-70.000000, -4479.000000)" id="Group-32" fill="#F478A2">
            <g transform="translate(70.000000, 4479.000000)">
                <path d="M971.636529,479.277132 C1082.44897,165.812398 937.650318,30.5196039 709.262977,8.69552961 C480.875636,-13.1285447 339.492997,0.511501741 202.188703,115.087892 C-7.40647913,289.988899 -44.7263514,479.277132 47.3908055,625.340956 C49.808802,629.175006 53.5251522,632.516477 56.7277177,636.137666 C158.220079,750.896605 326.149295,819.060318 527.143074,758.898084 C728.136853,698.735849 889.768095,710.86545 971.636529,479.277132 Z" id="Path-39-Copy-3" opacity="0.04"></path>
                <path d="M79.6083877,751.367985 C12.1335156,691.674618 -33.2258343,456.742982 112.235151,298.518443 C214.268861,187.531729 331.952976,71.5297725 465.797803,57.0896212 C599.64263,42.6494698 816.429451,76.1856862 868.088493,213.950155 C943.248203,414.38627 864.507906,575.411386 729.42475,646.339627 C594.341594,717.267869 545.608011,743.731937 487.940684,751.367985 C262.861244,781.171992 206.037094,863.216366 79.6083877,751.367985 Z" id="Path-39-Copy-4" opacity="0.04"></path>
                <path d="M339.712561,172.534989 C528.643607,56.5945945 650.203892,246.19124 650.203892,330.759528 C650.203892,415.327816 673.495569,539.29193 566.722732,615.836498 C447.061055,701.620971 329.764239,750.948385 212.060067,716.14937 C126.248428,690.779323 123.820088,619.979516 112.70239,546.272262 C101.584691,472.565007 224.44359,243.271537 339.712561,172.534989 Z" id="Path-39-Copy-5" opacity="0.0399999991"></path>
            </g>
        </g>
    </g>
</svg>