<?xml version="1.0" encoding="UTF-8"?>
<svg width="280px" height="210px" viewBox="0 0 280 210" version="1.1" xmlns="http://www.w3.org/2000/svg" xmlns:xlink="http://www.w3.org/1999/xlink">
    <!-- Generator: Sketch 46.2 (44496) - http://www.bohemiancoding.com/sketch -->
    <title>app_icon_location2</title>
    <desc>Created with Sketch.</desc>
    <defs>
        <path d="M47.531613,152.905961 C55.6067602,165.579801 64.35,176.535776 64.35,176.535776 C64.35,176.535776 128.7,102.128135 128.7,63.2221787 C128.7,24.3162226 96.525,0 64.35,0 C32.175,0 -6.59472477e-15,23.1368821 0,63.2221787 C2.85854995e-16,70.1723291 2.50213161,80.1625535 6.75714367,88.2678879 L47.531613,152.905961 Z" id="path-1"></path>
        <filter x="-3.9%" y="-2.8%" width="107.8%" height="105.7%" filterUnits="objectBoundingBox" id="filter-2">
            <feMorphology radius="10" operator="erode" in="SourceAlpha" result="shadowSpreadInner1"></feMorphology>
            <feOffset dx="0" dy="0" in="shadowSpreadInner1" result="shadowOffsetInner1"></feOffset>
            <feComposite in="shadowOffsetInner1" in2="SourceAlpha" operator="arithmetic" k2="-1" k3="1" result="shadowInnerInner1"></feComposite>
            <feColorMatrix values="0 0 0 0 0.0234453087   0 0 0 0 0.763259991   0 0 0 0 0.763259991  0 0 0 0.157637002 0" type="matrix" in="shadowInnerInner1"></feColorMatrix>
        </filter>
        <rect id="path-3" x="0" y="3.73333333" width="38.4360158" height="37.2666667" rx="5"></rect>
        <rect id="path-4" x="3.57544333" y="7.2" width="31.2851291" height="30.3333333" rx="3"></rect>
        <ellipse id="path-5" cx="64.3701598" cy="61.3182321" rx="39.0898026" ry="36.9167794"></ellipse>
        <filter x="-2.6%" y="-2.7%" width="105.1%" height="105.4%" filterUnits="objectBoundingBox" id="filter-6">
            <feMorphology radius="3" operator="erode" in="SourceAlpha" result="shadowSpreadInner1"></feMorphology>
            <feOffset dx="0" dy="0" in="shadowSpreadInner1" result="shadowOffsetInner1"></feOffset>
            <feComposite in="shadowOffsetInner1" in2="SourceAlpha" operator="arithmetic" k2="-1" k3="1" result="shadowInnerInner1"></feComposite>
            <feColorMatrix values="0 0 0 0 0.0234453087   0 0 0 0 0.763259991   0 0 0 0 0.763259991  0 0 0 0.176347373 0" type="matrix" in="shadowInnerInner1"></feColorMatrix>
        </filter>
        <path d="M11.4299559,30.1826692 C14.9840171,28.1788174 23.2020173,30.8689248 24.7961614,32.2681556 C26.3903055,33.6673864 26.7205717,36.1132298 24.1597725,37.3173519 C21.5989734,38.5214739 14.3636759,39.0677108 11.379243,37.6669968 C8.39481003,36.2662828 7.87589472,32.1865209 11.4299559,30.1826692 Z" id="path-7"></path>
        <path d="M75.5727634,30.1826692 C79.1268246,28.1788174 87.3448248,30.8689248 88.9389689,32.2681556 C90.533113,33.6673864 90.8633792,36.1132298 88.30258,37.3173519 C85.7417809,38.5214739 78.5064834,39.0677108 75.5220505,37.6669968 C72.5376176,36.2662828 72.0187022,32.1865209 75.5727634,30.1826692 Z" id="path-9"></path>
    </defs>
    <g id="Symbols" stroke="none" stroke-width="1" fill="none" fill-rule="evenodd">
        <g id="app_icon_location2">
            <g id="Group-3" transform="translate(80.000000, 14.000000)">
                <g id="Group-2">
                    <g id="Group-5" opacity="0.690726902" transform="translate(0.000000, 0.710504)">
                        <g id="Combined-Shape-Copy-4">
                            <use fill="#FFFFFF" fill-rule="evenodd" xlink:href="#path-1"></use>
                            <use fill="black" fill-opacity="1" filter="url(#filter-2)" xlink:href="#path-1"></use>
                            <path stroke="#06C3C3" stroke-width="3" d="M48.7984732,152.102794 C49.3573492,152.979914 49.9289141,153.863616 50.5123232,154.753061 C53.7959494,159.759162 57.3164548,164.744095 60.8370639,169.474296 C62.0692389,171.129815 63.2131254,172.634861 64.2391899,173.960396 C64.2932489,174.030232 64.3463876,174.098803 64.3985936,174.166095 C64.8700829,173.608406 65.3926006,172.98614 65.9629113,172.302063 C68.1552397,169.672405 70.5988434,166.676407 73.230815,163.367854 C80.7511161,153.914366 88.2713782,143.854695 95.2878356,133.620522 C101.462156,124.614686 106.95458,115.889329 111.58602,107.599595 C121.645936,89.5935246 127.2,74.4544298 127.2,63.2221787 C127.2,27.6107463 98.4087523,1.5 64.35,1.5 C48.3844843,1.5 32.7249449,7.30491018 21.1095325,17.6969963 C8.59120092,28.8969067 1.5,44.626447 1.5,63.2221787 C1.5,70.1656518 4.06671194,79.8936299 8.05782119,87.5183304 L48.7984732,152.102794 Z"></path>
                        </g>
                    </g>
                    <path d="M64.5602551,135.845112 C72.291988,135.845112 78.5597959,134.017071 78.5597959,131.762069 C78.5597959,129.688873 73.261905,128.170997 66.3992558,127.908371 C65.7974495,127.88534 65.0056498,128.942826 64.3822948,128.942826 C63.7747435,128.942826 63.3541918,127.884746 62.7670498,127.906641 C55.8821885,128.163385 50.5607143,129.684263 50.5607143,131.762069 C50.5607143,134.017071 56.8285222,135.845112 64.5602551,135.845112 Z" id="Oval-4" fill="#E1DFDF" opacity="0.25"></path>
                    <ellipse id="Oval-4" fill="#B3B3B3" opacity="0.2" cx="64.3015376" cy="130.947611" rx="10.6765376" ry="2.27708114"></ellipse>
                    <g id="Group-4" transform="translate(45.000000, 44.000000)">
                        <rect id="Rectangle-8" fill="#B3B3B3" x="18.3879943" y="31.3331897" width="1" height="55.7900009"></rect>
                        <g id="Group-6">
                            <g id="Rectangle-7">
                                <use fill="#06C3C3" fill-rule="evenodd" xlink:href="#path-3"></use>
                                <rect stroke="#FFFFFF" stroke-width="1" x="0.5" y="4.23333333" width="37.4360158" height="36.2666667" rx="5"></rect>
                            </g>
                            <g id="Rectangle-7">
                                <use fill="#06C3C3" fill-rule="evenodd" xlink:href="#path-4"></use>
                                <rect stroke="#FFFFFF" stroke-width="2" x="4.57544333" y="8.2" width="29.2851291" height="28.3333333" rx="3"></rect>
                            </g>
                            <text id="P" font-family="OpenSans-Bold, Open Sans" font-size="28" font-weight="bold" line-spacing="44" fill="#FFFFFF">
                                <tspan x="11.2371076" y="30">P</tspan>
                            </text>
                        </g>
                    </g>
                    <g id="Oval-5">
                        <use fill="black" fill-opacity="1" filter="url(#filter-6)" xlink:href="#path-5"></use>
                        <use stroke="#06C3C3" stroke-width="1" xlink:href="#path-5"></use>
                    </g>
                </g>
            </g>
            <g id="Group-47" transform="translate(4.000000, 95.000000)">
                <g id="Group-9">
                    <g id="Group-23">
                        <g id="Group-19">
                            <g id="Group-16" transform="translate(0.000000, 50.988610)" opacity="0.5">
                                <path d="M76.05,19.7447236 C118.051255,19.7447236 152.1,15.1981774 152.1,9.58972842 C152.1,4.43344906 123.320156,0.658318659 86.0400424,0.00513672061 C82.7708372,-0.0521427653 78.4695272,2.57794602 75.0832627,2.57794602 C71.7828492,2.57794602 69.4982769,-0.0536222576 66.3087331,0.000833644903 C28.9079562,0.639386736 0,4.42198534 0,9.58972842 C0,15.1981774 34.0487448,19.7447236 76.05,19.7447236 Z" id="Oval-4" fill="#EFEFEF"></path>
                                <path d="M76.05,12.1239531 C104.019233,12.1239531 126.692777,9.86225364 126.692777,7.07230597 C126.692777,4.28235831 104.019233,0 76.05,0 C48.0807668,0 25.4072235,4.28235831 25.4072235,7.07230597 C25.4072235,9.86225364 48.0807668,12.1239531 76.05,12.1239531 Z" id="Oval-4" fill="#E1DFDF"></path>
                            </g>
                            <g id="Group-4" transform="translate(26.100000, 0.000000)">
                                <g id="Group-14">
                                    <path d="M4.96083992,49.8827195 C4.96083992,48.9909838 3.86917175,34.5091974 3.86917175,34.5091974 L6.2691414,28.1169904 C6.2691414,28.1169904 8.75825765,25.6578172 10.2688846,24.7945642 C11.7795116,23.9313111 13.8261175,23.7985301 13.8261175,23.7985301 L19.6855178,23.585436 C19.6855178,23.585436 24.3586732,23.5570978 26.2689597,23.7985301 C28.1792462,24.0399623 45.4193154,26.8378111 45.4193154,26.8378111 L55.4531241,26.2475359 C55.4531241,26.2475359 68.5109991,24.1736904 74.9195571,23.585436 C81.3281152,22.9971816 84.4545604,23.585436 84.4545604,23.585436 C84.4545604,23.585436 87.4336046,24.3074033 88.5056844,24.7945642 C89.5777642,25.281725 91.6119614,26.8378111 91.6119614,26.8378111 L94.312006,32.7232662 L94.2735913,50.2701632 L91.8314286,52.4770551 L69.7848955,53.0951202 L63.4005102,49.0297282 L45.4193154,46.8809529 L37.7647284,49.9008617 L27.4129307,53.0370036 L8.7774277,52.6304952 C8.7774277,52.6304952 4.96083992,50.7744551 4.96083992,49.8827195 Z" id="Path-28" fill="#FFFFFF"></path>
                                    <g id="Group-21-Copy-2">
                                        <path d="M14.420316,22.473743 C14.420316,22.473743 19.0403615,13.5544197 24.3063728,8.63824229 C29.572384,3.7220649 34.6722588,1.03243431 49.5143225,0.917210665 C64.3563862,0.80198702 70.8029308,4.75895129 74.9465077,8.63824229 C79.0900846,12.5175333 84.608329,22.8870919 84.608329,22.8870919 C84.608329,22.8870919 83.7508586,21.6231771 77.300434,22.473743 C70.8500094,23.3243089 57.1392847,25.3850004 51.4879719,25.5097109 C45.8366591,25.6344213 30.7438863,23.6586295 24.3063728,22.473743 C17.8688592,21.2888565 14.420316,22.473743 14.420316,22.473743 Z" id="Rectangle-82" fill="#FFFFFF"></path>
                                        <g id="Group-36" transform="translate(87.701226, 45.354278)"></g>
                                        <path d="M72.0522859,22.2382469 C70.8910081,19.6414351 68.347723,18.2750346 65.2605949,18.2750346 C62.0251639,18.2750346 58.5898847,19.8139413 58.029861,24.3" id="Oval-2-Copy" stroke="#1A2020" stroke-width="2.2" stroke-linecap="round" stroke-linejoin="round"></path>
                                        <path d="M83.7434369,22.2503305 C83.7434369,19.9896225 85.6179535,18.1569565 87.9310605,18.1569565 L94.0612283,18.1569565" id="Rectangle-33" stroke="#1A2020" stroke-width="1.5" stroke-linecap="round" stroke-linejoin="round"></path>
                                        <path d="M4.4249295,22.2503305 C4.4249295,19.9896225 6.29944606,18.1569565 8.61255304,18.1569565 L14.7427208,18.1569565" id="Rectangle-33-Copy" stroke="#1A2020" stroke-width="1.5" stroke-linecap="round" stroke-linejoin="round" transform="translate(9.583825, 20.203644) scale(-1, 1) translate(-9.583825, -20.203644) "></path>
                                        <path d="M1.86018457,18.1913902 C2.61357013,17.4441642 4.08063668,16.8384178 5.14164868,16.8384178 L7.75559048,16.8384178 C8.81450751,16.8384178 9.67292937,17.6900919 9.67292937,18.7571868 L9.67292937,18.7571868 C9.67292937,19.8168937 8.81098685,20.6759559 7.75641262,20.6759559 L1.27165479,20.6759559 C0.213191818,20.6759559 -0.0403038724,20.0763406 0.71926326,19.3229835 L1.86018457,18.1913902 Z" id="Rectangle-34-Copy-2" fill="#06C3C3" transform="translate(4.976707, 18.757187) scale(1, -1) translate(-4.976707, -18.757187) "></path>
                                        <path d="M90.5706494,18.1913902 C91.3240349,17.4441642 92.7911015,16.8384178 93.8521135,16.8384178 L96.4660553,16.8384178 C97.5249723,16.8384178 98.3833941,17.6900919 98.3833941,18.7571868 L98.3833941,18.7571868 C98.3833941,19.8168937 97.5214516,20.6759559 96.4668774,20.6759559 L89.9821196,20.6759559 C88.9236566,20.6759559 88.6701609,20.0763406 89.429728,19.3229835 L90.5706494,18.1913902 Z" id="Rectangle-34-Copy-3" fill="#06C3C3" transform="translate(93.687172, 18.757187) scale(-1, -1) translate(-93.687172, -18.757187) "></path>
                                        <path d="M78.490107,50.2421975 C78.490107,50.2421975 86.7213376,51.7518091 89.4527602,51.0293848 C92.1841828,50.3069606 93.9667939,46.1488235 93.9667939,46.1488235 L93.9667939,51.5148199 C93.9667939,53.9421811 92.0066608,55.9099461 89.5731946,55.9099461 L82.8837063,55.9099461 C80.4571884,55.9099461 78.490107,53.9435491 78.490107,51.5000546 L78.490107,50.2421975 Z" id="Rectangle-83-Copy-5" fill="#1A2020"></path>
                                        <path d="M5.23829848,46.2989027 C5.23829848,46.2989027 4.23655472,51.5982904 9.42990121,51.179464 C14.6232477,50.7606377 20.7149855,50.3922767 20.7149855,50.3922767 L20.7149855,51.6501339 C20.7149855,54.0856497 18.7548524,56.0600253 16.3213862,56.0600253 L9.6318978,56.0600253 C7.2053799,56.0600253 5.23829848,54.0847165 5.23829848,51.6648991 L5.23829848,46.2989027 Z" id="Rectangle-83-Copy-6" fill="#1A2020"></path>
                                        <path d="M44.8018875,6.17238989 C45.2948007,5.45329827 46.3835626,4.73539811 47.2405909,4.60090571 C47.2405909,4.60090571 47.6750319,4.42053802 49.6548172,4.42053802 C51.6346026,4.42053802 52.068673,4.60090571 52.068673,4.60090571 C52.9223128,4.74972084 54.0157523,5.4559865 54.5068228,6.17238989 L54.5718509,6.2672567 C55.064764,6.98634832 54.7538201,7.56928725 53.8885722,7.56928725 C53.8885722,7.56928725 53.3548664,7.56928725 49.6548172,7.56928725 C45.9547681,7.56928725 45.4088206,7.56928725 45.4088206,7.56928725 C44.5447935,7.56928725 44.245789,6.98366009 44.7368595,6.2672567 L44.8018875,6.17238989 Z" id="Rectangle-13" fill="#1A2020" transform="translate(49.654261, 5.994913) scale(1, -1) translate(-49.654261, -5.994913) "></path>
                                        <path d="M13.780213,22.2642789 L23.0383095,9.67868522 L30.4929321,4.07498059 C30.4929321,4.07498059 37.5885278,1.53721754 38.3120239,1.53721754 C39.03552,1.53721754 54.4362662,0.621706262 54.4362662,0.621706262 L65.6564818,3.07211319 L73.7266741,7.66863101 L80.1551481,15.3869566 L84.4401453,22.949522 L76.0849447,22.4987182 L57.0010499,25.5153421 L45.0087361,25.5153421 L31.3216692,23.5762265 L24.6407289,22.2642789 L13.780213,22.2642789 Z" id="Path-30" fill="#FFFFFF" opacity="0.745743937"></path>
                                        <path d="M14.420316,22.473743 C14.420316,22.473743 19.0403615,13.5544197 24.3063728,8.63824229 C29.572384,3.7220649 34.6722588,1.03243431 49.5143225,0.917210665 C64.3563862,0.80198702 70.8029308,4.75895129 74.9465077,8.63824229 C79.0900846,12.5175333 84.608329,22.8870919 84.608329,22.8870919" id="Rectangle-82" stroke="#1A2020"></path>
                                        <path d="M22.5701685,18.2750346 C22.7621642,17.9536123 22.8817346,17.8205074 23.3385172,17.0155349 M24.4126063,15.1510573 C25.3583255,13.5401951 28.5180986,10.0649564 29.6636501,9.14366186 C31.2297309,7.88416217 33.8552528,6.9395374 38.0468555,5.99491264" id="Rectangle-82" stroke="#1A2020" stroke-width="2.2" opacity="0.1" stroke-linecap="round"></path>
                                        <path d="M4.51403371,39.0567795 L5.89996491,41.0869581 C7.27142079,43.0959326 10.3609279,44.7771371 12.7806428,44.8415034 L27.6598848,45.2373027 C30.0885225,45.3019064 33.7706088,44.3752542 35.8844059,43.1673666 L35.655848,43.2979716 C36.711689,42.6946321 38.5538752,42.2055287 39.7626069,42.2055287 L59.3893274,42.2055287 C60.6015866,42.2055287 62.4246644,42.7184376 63.4613903,43.3512067 L62.9940079,43.0659383 C65.0646365,44.3297534 68.7121124,45.3043362 71.138928,45.2427792 L87.1746826,44.8360269 C89.6023692,44.7744478 92.6791474,43.1003789 94.0536386,41.0869581 L94.1940418,40.8812887 C94.8819279,39.8736401 95.1969016,40.0047049 94.8925352,41.1936394 L92.8601219,49.132777 L69.6450915,49.7625269 C69.6450915,49.7625269 66.6896589,45.968847 59.3273001,45.9840278 C52.2313746,45.9990596 53.7290564,45.434416 50.9440947,45.354278 C43.6728961,45.1681511 40.5096824,45.2870174 40.5096824,45.2870174 C38.0810584,45.3241644 34.3770088,46.2786028 32.2334549,47.420414 L29.0187881,49.132777 L9.02806741,49.132777 L5.80375762,45.354278 L4.51403371,39.0567795 Z" id="Path-13-Copy-5" fill="#BFF9F9" opacity="0.25707654"></path>
                                        <path d="M4.51403371,43.2952941 L5.70594718,44.8479683 C7.18359408,46.7728599 10.3474252,48.3332929 12.7752122,48.3332929 L26.3620303,48.3332929 C28.7886307,48.3332929 32.4011329,47.2661788 34.4526104,45.9356682 L33.8559052,46.3226686 C35.8976088,44.9984971 39.5172392,43.925044 41.9557864,43.925044 L57.1555743,43.925044 C59.5873115,43.925044 63.1851505,45.0374313 65.1959061,46.4125944 L64.3670584,45.8457424 C66.3758738,47.2195786 69.9697616,48.3332929 72.4019648,48.3332929 L87.1335811,48.3332929 C89.562322,48.3332929 92.5461151,46.6416971 93.7911184,44.5665939 L93.4197367,45.1855925 C94.046097,44.1416095 94.4137315,44.2677688 94.2388952,45.4810911 L93.4649204,50.8522923 L90.2583755,51.3680822 L69.6157696,52.111792 C69.6157696,52.111792 66.6616675,47.6883622 59.3026233,47.703543 C52.2098923,47.7185748 53.7068999,47.7836811 50.923192,47.703543 C43.6552668,47.5174161 40.4296026,48.3071821 40.4296026,48.3071821 C38.0373489,48.6694039 34.3376888,49.8391468 32.1600783,50.9229129 L30.0679765,51.9641225 L29.0077561,52.111792 L7.01360467,51.3007846 L5.44532304,50.4460476 L4.51403371,43.2952941 Z" id="Path-13-Copy-4" fill="#BFF9F9"></path>
                                        <path d="M33.9691255,44.6519761 C35.5683378,42.8194284 38.8002715,40.9996388 41.2143772,40.6561771 C41.2143772,40.6561771 43.2338199,40.0743552 49.5962917,40.0743552 C55.8960731,40.0743552 57.8927291,40.654337 57.8927291,40.654337 C60.2865911,41.0296244 63.5278785,42.81068 65.1370446,44.6377699 L69.8467949,49.9853452 C70.6523371,50.8999792 70.3393582,51.4947671 69.1358842,51.2912637 C69.1358842,51.2912637 68.9597287,51.3057932 68.0830302,51.0679168 C64.457585,50.0842174 54.6515745,46.9286526 49.5463748,46.9286526 C44.6934769,46.9286526 35.592493,49.840732 31.5905785,50.9112635 C30.364471,51.2392532 30.0292691,51.256454 30.0292691,51.256454 C28.8365289,51.469074 28.5165298,50.9001407 29.3148458,49.9853452 L33.9691255,44.6519761 Z" id="Rectangle-3" fill="#06C3C3"></path>
                                        <path d="M94.6509844,39.8179676 C94.4929952,43.2697361 94.2365921,46.5914404 93.8817753,49.7830804 C93.801412,50.5059324 93.2259729,51.0707591 92.5075641,51.1319444 C86.1085846,51.6769314 79.3113013,51.8457312 72.1157141,51.6383436 C65.5987299,51.4505144 57.5586666,46.6137777 49.5645457,46.6137777 C41.3808078,46.6137777 33.9330301,51.4575798 27.317529,51.6517764 C20.2720367,51.8585954 13.3890639,51.6852968 6.66861037,51.1318806 C5.93181618,51.0712078 5.34676556,50.4815051 5.28593029,49.7382068 C5.03670162,46.6930783 4.78611684,43.3863319 4.53417593,39.8179676 C4.42290882,38.2420362 4.38249763,36.421619 4.41294237,34.3567162 C4.50950266,27.8075404 9.74437783,22.5198043 16.2356229,22.4146519 C18.1387456,22.3838231 19.7904111,22.3684086 21.1906195,22.3684086 C26.6712253,22.3684086 37.6348394,25.5171579 49.5645457,25.5171578 C62.488036,25.5171578 72.2103954,22.3684086 77.9384718,22.3684086 C80.981004,22.1728373 83.5249602,22.4146683 85.5703405,23.0939014 C95.94771,26.5400349 94.7020282,38.7027567 94.6509844,39.8179676 Z" id="Rectangle-78" stroke="#1A2020"></path>
                                        <mask id="mask-8" fill="white">
                                            <use xlink:href="#path-7"></use>
                                        </mask>
                                        <use id="Rectangle-4" fill="#1A2020" transform="translate(17.493863, 33.981631) scale(1, -1) rotate(-15.000000) translate(-17.493863, -33.981631) " xlink:href="#path-7"></use>
                                        <ellipse id="Oval-6" fill="#FAD214" mask="url(#mask-8)" cx="20.6355827" cy="32.7592811" rx="3.86917175" ry="3.77849907"></ellipse>
                                        <ellipse id="Oval-6-Copy-5" fill="#FFFFFF" opacity="0.355701959" mask="url(#mask-8)" cx="78.2616237" cy="33.074156" rx="1.61215489" ry="1.57437461"></ellipse>
                                        <ellipse id="Oval-6-Copy" fill="#FFFFFF" mask="url(#mask-8)" cx="13.1305659" cy="33.074156" rx="1.61215489" ry="1.57437461"></ellipse>
                                        <mask id="mask-10" fill="white">
                                            <use xlink:href="#path-9"></use>
                                        </mask>
                                        <use id="Rectangle-4" fill="#1A2020" transform="translate(81.636670, 33.981631) scale(-1, -1) rotate(-15.000000) translate(-81.636670, -33.981631) " xlink:href="#path-9"></use>
                                        <ellipse id="Oval-6" fill="#FAD214" mask="url(#mask-10)" transform="translate(79.318021, 32.759281) scale(-1, 1) translate(-79.318021, -32.759281) " cx="79.3180208" cy="32.7592811" rx="3.86917175" ry="3.77849907"></ellipse>
                                        <ellipse id="Oval-6-Copy" fill="#FFFFFF" mask="url(#mask-10)" transform="translate(85.999967, 33.074156) scale(-1, 1) translate(-85.999967, -33.074156) " cx="85.9999672" cy="33.074156" rx="1.61215489" ry="1.57437461"></ellipse>
                                    </g>
                                    <path d="M13.5421011,48.1435275 L23.8598924,48.1435275" id="Line-Copy-8" stroke="#1A2020" stroke-linecap="round" stroke-linejoin="round"></path>
                                </g>
                            </g>
                        </g>
                    </g>
                </g>
            </g>
        </g>
    </g>
</svg>