<?xml version="1.0" encoding="UTF-8"?>
<svg width="420px" height="685px" viewBox="0 0 420 685" version="1.1" xmlns="http://www.w3.org/2000/svg" xmlns:xlink="http://www.w3.org/1999/xlink">
    <!-- Generator: Sketch 46.2 (44496) - http://www.bohemiancoding.com/sketch -->
    <title>app_claim_phone</title>
    <desc>Created with Sketch.</desc>
    <defs></defs>
    <g id="Symbols" stroke="none" stroke-width="1" fill="none" fill-rule="evenodd">
        <g id="app_claim_phone">
            <g id="Group-27" transform="translate(4.000000, 8.000000)">
                <g id="Apple-iPhone--Silver-Copy-2" transform="translate(124.784004, 77.517336)"></g>
                <g id="Group-20">
                    <g id="Group-19">
                        <g id="Group-17">
                            <g id="Apple-iPhone--Silver-Copy" transform="translate(70.900002, 77.517336)"></g>
                            <path d="M363.953345,151.253338 L363.953345,189.066673 L365.371345,189.066673 C366.154485,189.066673 366.789345,188.426218 366.789345,187.653358 L366.789345,152.666653 C366.789345,151.886101 366.159945,151.253338 365.371345,151.253338 L363.953345,151.253338 Z" id="Line-Copy-3" fill="#1A2020" fill-rule="nonzero"></path>
                            <ellipse id="Oval-16-Copy" fill="#E1DFDF" opacity="0.3" cx="207.500674" cy="647.553355" rx="207.500674" ry="18.9066673"></ellipse>
                            <ellipse id="Oval-15-Copy-6" fill="#B3B3B3" opacity="0.2" cx="207.972266" cy="642.354021" rx="176.847165" ry="13.7073338"></ellipse>
                            <rect id="Rectangle-5-Copy" stroke="#765DFF" stroke-width="2" fill="#FFFFFF" x="51.0480017" y="0" width="312.194195" height="644.717355" rx="48.402432"></rect>
                            <ellipse id="Oval-6-Copy" stroke="#1A2020" stroke-width="2" cx="157.125324" cy="41.2072363" rx="5.2725581" ry="5.28456848"></ellipse>
                            <rect id="Rectangle-7-Copy" stroke="#1A2020" stroke-width="2" x="181.148312" y="37.8680012" width="50.8183533" height="4.61733355" rx="2.30866678"></rect>
                            <path d="M98.4805928,7.11733355 C76.1469944,7.11733355 58.0342777,25.234026 58.0342777,47.5641143 L58.0342777,597.15324 C58.0342777,619.489716 76.1458423,637.600021 98.4805928,637.600021 L315.577569,637.600021 C337.911168,637.600021 356.023884,619.483329 356.023884,597.15324 L356.023884,47.5641143 C356.023884,25.2276386 337.91232,7.11733355 315.577569,7.11733355 L98.4805928,7.11733355 Z" id="Rectangle-6-Copy" stroke="#C5BBFF"></path>
                            <ellipse id="Oval-5-Copy" stroke="#1A2020" cx="206.299788" cy="19.5937128" rx="3.51503873" ry="3.52304565"></ellipse>
                            <ellipse id="Oval-7-Copy" stroke="#1A2020" stroke-width="2" cx="206.897654" cy="600.627626" rx="21.0902324" ry="21.1382739"></ellipse>
                            <g id="Group-23" transform="translate(47.159244, 85.080003)" fill-rule="nonzero" fill="#1A2020">
                                <path d="M1.52542429,0 C0.742284492,0 0.107424246,0.637302083 0.107424246,1.41620311 L0.107424246,25.9984645 C0.107424246,26.7806118 0.736824585,27.4146676 1.52542429,27.4146676 L2.94342434,27.4146676 L2.94342434,0 L1.52542429,0 Z" id="Line"></path>
                                <path d="M1.52542429,115.33067 C0.742284492,115.33067 0.107424246,115.9693 0.107424246,116.748332 L0.107424246,165.906344 C0.107424246,166.689297 0.736824585,167.324006 1.52542429,167.324006 L2.94342434,167.324006 L2.94342434,115.33067 L1.52542429,115.33067 Z" id="Line"></path>
                                <path d="M1.52542429,56.7200019 C0.742284492,56.7200019 0.107424246,57.3586317 0.107424246,58.1376631 L0.107424246,107.295676 C0.107424246,108.078628 0.736824585,108.713337 1.52542429,108.713337 L2.94342434,108.713337 L2.94342434,56.7200019 L1.52542429,56.7200019 Z" id="Line-Copy"></path>
                            </g>
                        </g>
                    </g>
                    <g id="Group-19" transform="translate(47.000000, 0.000000)">
                        <g id="Group-17">
                            <g id="Apple-iPhone--Silver-Copy" transform="translate(23.900002, 77.517336)"></g>
                            <path d="M316.953345,151.253338 L316.953345,189.066673 L318.371345,189.066673 C319.154485,189.066673 319.789345,188.426218 319.789345,187.653358 L319.789345,152.666653 C319.789345,151.886101 319.159945,151.253338 318.371345,151.253338 L316.953345,151.253338 Z" id="Line-Copy-3" fill="#1A2020" fill-rule="nonzero"></path>
                            <rect id="Rectangle-5-Copy" stroke="#1A2020" stroke-width="2" fill="#FFFFFF" x="4.04800168" y="0" width="312.194195" height="644.717355" rx="48.402432"></rect>
                            <ellipse id="Oval-6-Copy" stroke="#1A2020" stroke-width="2" cx="110.125324" cy="41.2072363" rx="5.2725581" ry="5.28456848"></ellipse>
                            <rect id="Rectangle-7-Copy" stroke="#1A2020" stroke-width="2" x="134.148312" y="37.8680012" width="50.8183533" height="4.61733355" rx="2.30866678"></rect>
                            <path d="M51.4805928,7.11733355 C29.1469944,7.11733355 11.0342777,25.234026 11.0342777,47.5641143 L11.0342777,597.15324 C11.0342777,619.489716 29.1458423,637.600021 51.4805928,637.600021 L268.577569,637.600021 C290.911168,637.600021 309.023884,619.483329 309.023884,597.15324 L309.023884,47.5641143 C309.023884,25.2276386 290.91232,7.11733355 268.577569,7.11733355 L51.4805928,7.11733355 Z" id="Rectangle-6-Copy" stroke="#1A2020"></path>
                            <ellipse id="Oval-5-Copy" stroke="#1A2020" cx="159.299788" cy="19.5937128" rx="3.51503873" ry="3.52304565"></ellipse>
                            <ellipse id="Oval-7-Copy" stroke="#1A2020" stroke-width="2" cx="159.897654" cy="600.627626" rx="21.0902324" ry="21.1382739"></ellipse>
                            <g id="Group-23" transform="translate(0.159244, 85.080003)" fill-rule="nonzero" fill="#1A2020">
                                <path d="M1.52542429,0 C0.742284492,0 0.107424246,0.637302083 0.107424246,1.41620311 L0.107424246,25.9984645 C0.107424246,26.7806118 0.736824585,27.4146676 1.52542429,27.4146676 L2.94342434,27.4146676 L2.94342434,0 L1.52542429,0 Z" id="Line"></path>
                                <path d="M1.52542429,115.33067 C0.742284492,115.33067 0.107424246,115.9693 0.107424246,116.748332 L0.107424246,165.906344 C0.107424246,166.689297 0.736824585,167.324006 1.52542429,167.324006 L2.94342434,167.324006 L2.94342434,115.33067 L1.52542429,115.33067 Z" id="Line"></path>
                                <path d="M1.52542429,56.7200019 C0.742284492,56.7200019 0.107424246,57.3586317 0.107424246,58.1376631 L0.107424246,107.295676 C0.107424246,108.078628 0.736824585,108.713337 1.52542429,108.713337 L2.94342434,108.713337 L2.94342434,56.7200019 L1.52542429,56.7200019 Z" id="Line-Copy"></path>
                            </g>
                        </g>
                    </g>
                </g>
                <path d="M74.6323112,81.353336 C73.1220052,81.353336 71.9000023,82.5737309 71.9000023,84.0827291 L71.9000023,558.754402 C71.9000023,560.254158 73.1242075,561.473352 74.6323112,561.473352 L340.369036,561.473352 C341.875672,561.473352 343.101345,560.248838 343.101345,558.749745 L343.101345,84.0769427 C343.101345,82.5743353 341.87686,81.353336 340.369036,81.353336 L74.6323112,81.353336 Z" id="Rectangle-8-Copy" stroke="#1A2020" stroke-width="2"></path>
            </g>
        </g>
    </g>
</svg>