<?xml version="1.0" encoding="UTF-8"?>
<svg width="279px" height="274px" viewBox="0 0 279 274" version="1.1" xmlns="http://www.w3.org/2000/svg" xmlns:xlink="http://www.w3.org/1999/xlink">
    <!-- Generator: Sketch 47 (45396) - http://www.bohemiancoding.com/sketch -->
    <title>icon_ourapp</title>
    <desc>Created with Sketch.</desc>
    <defs>
        <path d="M11.410958,61.6107848 C3.6895644,76.2161823 0.453926867,93.9191407 0.453926867,93.9191407 C-0.246651168,97.1555925 0.584633089,102.073431 2.31746634,104.902248 C2.31746634,104.902248 30.0709926,150.622371 35.8620378,155.771041 C41.653083,160.919711 58.5678104,160.919711 58.5678104,160.919711 L58.5678104,57.7492823 L58.5678104,57.7492823 C58.5678104,54.1948674 61.0051468,48.6967025 64.0209681,45.4588945 L86.1692573,21.6803282 C91.2289531,16.6195764 91.236778,8.35446978 86.144905,3.26153417 C81.063393,-1.82103834 72.8083777,-0.555139078 67.7299541,4.52434435 C67.7299541,4.52434435 51.33447,23.2997612 43.5834314,28.9850424 C33.9316894,36.0644636 19.1323516,47.0053874 11.410958,61.6107848 Z" id="path-1"></path>
        <filter x="-3.9%" y="-2.2%" width="107.8%" height="104.4%" filterUnits="objectBoundingBox" id="filter-2">
            <feOffset dx="-1" dy="-6" in="SourceAlpha" result="shadowOffsetInner1"></feOffset>
            <feComposite in="shadowOffsetInner1" in2="SourceAlpha" operator="arithmetic" k2="-1" k3="1" result="shadowInnerInner1"></feComposite>
            <feColorMatrix values="0 0 0 0 0.875983206   0 0 0 0 0.820377676   0 0 0 0 0.556251409  0 0 0 0.408231431 0" type="matrix" in="shadowInnerInner1"></feColorMatrix>
        </filter>
        <path d="M32.759356,130.31853 C32.759356,122.143376 39.3933892,115.516104 47.5628099,115.516104 L114.473322,115.516104 C122.649044,115.516104 129.276776,122.141578 129.276776,130.31853 L129.276776,139.129973 C129.276776,142.438702 126.594612,145.120957 123.275646,145.120957 L38.7604859,145.120957 C35.4461534,145.120957 32.759356,142.441509 32.759356,139.129973 L32.759356,130.31853 Z" id="path-3"></path>
        <filter x="-3.1%" y="-10.1%" width="106.2%" height="120.3%" filterUnits="objectBoundingBox" id="filter-4">
            <feOffset dx="-4" dy="-5" in="SourceAlpha" result="shadowOffsetInner1"></feOffset>
            <feComposite in="shadowOffsetInner1" in2="SourceAlpha" operator="arithmetic" k2="-1" k3="1" result="shadowInnerInner1"></feComposite>
            <feColorMatrix values="0 0 0 0 0.936277636   0 0 0 0 0.936277636   0 0 0 0 0.936277636  0 0 0 1 0" type="matrix" in="shadowInnerInner1"></feColorMatrix>
        </filter>
        <path d="M19.1259182,6.87974013 L23.8343249,6.9000674 C30.9325856,6.9000674 36.6868628,12.7112664 36.6868628,19.8472456 C36.6868628,26.9977746 30.9064092,32.7944237 23.8343249,32.7944237 L4.37470644,32.7944237 L19.1259182,6.87974013 Z" id="path-5"></path>
        <filter x="-10.8%" y="-13.5%" width="121.7%" height="127.0%" filterUnits="objectBoundingBox" id="filter-6">
            <feOffset dx="0" dy="-6" in="SourceAlpha" result="shadowOffsetInner1"></feOffset>
            <feComposite in="shadowOffsetInner1" in2="SourceAlpha" operator="arithmetic" k2="-1" k3="1" result="shadowInnerInner1"></feComposite>
            <feColorMatrix values="0 0 0 0 0.875983206   0 0 0 0 0.820377676   0 0 0 0 0.556251409  0 0 0 0.408231431 0" type="matrix" in="shadowInnerInner1"></feColorMatrix>
        </filter>
        <path d="M12.5139367,53.4433715 C12.5139367,46.8169807 17.881607,41.4135153 24.5157096,41.427275 C24.5157096,41.427275 27.4686944,41.2861129 34.1766917,41.6538741 C41.1845678,42.0380759 46.9119005,47.4358972 46.9119005,54.5360493 C46.9119005,61.6506782 41.1842159,67.4182245 34.1766917,67.4182245 L24.5173748,67.4182245 C17.888059,67.4182245 12.5139367,62.0366032 12.5139367,55.4200826 L12.5139367,53.4433715 Z" id="path-7"></path>
        <filter x="-10.2%" y="-13.5%" width="120.4%" height="126.9%" filterUnits="objectBoundingBox" id="filter-8">
            <feOffset dx="0" dy="-6" in="SourceAlpha" result="shadowOffsetInner1"></feOffset>
            <feComposite in="shadowOffsetInner1" in2="SourceAlpha" operator="arithmetic" k2="-1" k3="1" result="shadowInnerInner1"></feComposite>
            <feColorMatrix values="0 0 0 0 0.875983206   0 0 0 0 0.820377676   0 0 0 0 0.556251409  0 0 0 0.408231431 0" type="matrix" in="shadowInnerInner1"></feColorMatrix>
        </filter>
        <path d="M12.5139367,84.8538859 C12.5139367,78.2274951 17.881607,72.8240297 24.5157096,72.8377895 C24.5157096,72.8377895 27.4686944,72.6966274 34.1766917,73.0643885 C41.1845678,73.4485904 46.9119005,78.8464117 46.9119005,85.9465638 C46.9119005,93.0611927 41.1842159,98.828739 34.1766917,98.828739 L24.5173748,98.828739 C17.888059,98.828739 12.5139367,93.4471176 12.5139367,86.8305971 L12.5139367,84.8538859 Z" id="path-9"></path>
        <filter x="-10.2%" y="-13.5%" width="120.4%" height="126.9%" filterUnits="objectBoundingBox" id="filter-10">
            <feOffset dx="0" dy="-6" in="SourceAlpha" result="shadowOffsetInner1"></feOffset>
            <feComposite in="shadowOffsetInner1" in2="SourceAlpha" operator="arithmetic" k2="-1" k3="1" result="shadowInnerInner1"></feComposite>
            <feColorMatrix values="0 0 0 0 0.875983206   0 0 0 0 0.820377676   0 0 0 0 0.556251409  0 0 0 0.408231431 0" type="matrix" in="shadowInnerInner1"></feColorMatrix>
        </filter>
        <path d="M12.5139367,115.142596 C12.5139367,108.516205 17.881607,103.11274 24.5157096,103.1265 C24.5157096,103.1265 27.4686944,102.985338 34.1766917,103.353099 C41.1845678,103.737301 46.9119005,109.135122 46.9119005,116.235274 C46.9119005,123.349903 41.1842159,129.117449 34.1766917,129.117449 L24.5173748,129.117449 C17.888059,129.117449 12.5139367,123.735828 12.5139367,117.119307 L12.5139367,115.142596 Z" id="path-11"></path>
        <filter x="-10.2%" y="-13.5%" width="120.4%" height="126.9%" filterUnits="objectBoundingBox" id="filter-12">
            <feOffset dx="0" dy="-6" in="SourceAlpha" result="shadowOffsetInner1"></feOffset>
            <feComposite in="shadowOffsetInner1" in2="SourceAlpha" operator="arithmetic" k2="-1" k3="1" result="shadowInnerInner1"></feComposite>
            <feColorMatrix values="0 0 0 0 0.875983206   0 0 0 0 0.820377676   0 0 0 0 0.556251409  0 0 0 0.408231431 0" type="matrix" in="shadowInnerInner1"></feColorMatrix>
        </filter>
    </defs>
    <g id="Symbols" stroke="none" stroke-width="1" fill="none" fill-rule="evenodd">
        <g id="icon_ourapp">
            <g id="Group-4" transform="translate(4.000000, 8.000000)">
                <g id="Group-2" transform="translate(27.000000, 0.000000)">
                    <rect id="Rectangle-2" stroke="#FFFFFF" stroke-width="2" transform="translate(57.452991, 220.204082) scale(-1, 1) translate(-57.452991, -220.204082) " x="53.1538462" y="214.306122" width="8.5982906" height="11.7959184"></rect>
                    <path d="M140.179487,122.040816 C140.2083,122.041747 140.234324,122.042677 140.25663,122.042677 C140.230606,122.041747 140.204582,122.041747 140.179487,122.040816" id="Fill-11" fill="#06C3C3" transform="translate(140.679487, 122.540816) scale(-1, 1) translate(-140.679487, -122.540816) "></path>
                    <g id="Group-49">
                        <g id="Group-20" transform="translate(0.442963, 0.000000)">
                            <g id="Lp_icon_phone">
                                <g id="Group-8" transform="translate(0.368878, 0.000000)">
                                    <g id="Group-5" transform="translate(0.275430, 0.000000)">
                                        <ellipse id="Oval-5" fill="#06C3C3" opacity="0.05" cx="70.1063896" cy="94.1870237" rx="24.8822772" ry="24.1041893"></ellipse>
                                        <ellipse id="Oval-5" fill="#06C3C3" opacity="0.147154851" cx="69.8113428" cy="95.3115015" rx="15.8341764" ry="15.3390296"></ellipse>
                                        <ellipse id="Oval-5" fill="#06C3C3" cx="70.9751384" cy="95.0231739" rx="6.78607559" ry="6.57386982"></ellipse>
                                        <rect id="Rectangle-5-Copy" stroke="#1A2020" fill="#FFFFFF" x="-8.52651283e-14" y="0" width="129.836968" height="254.170411" rx="10"></rect>
                                        <ellipse id="Oval-6-Copy" stroke="#1A2020" cx="45.8727854" cy="18.4378425" rx="2.10751528" ry="2.04161167"></ellipse>
                                        <rect id="Rectangle-7-Copy" stroke="#1A2020" stroke-width="1.5" x="54.7271665" y="18.5590362" width="19.6122352" height="1.05650493" rx="0.528252465"></rect>
                                        <path d="M4.97425848,12.2384161 L4.97425848,242.704433 C4.97425848,246.98464 8.44405167,250.454433 12.7242585,250.454433 L117.460441,250.454433 C121.740648,250.454433 125.210441,246.98464 125.210441,242.704433 L125.210441,12.2384161 C125.210441,7.95820926 121.740648,4.48841607 117.460441,4.48841607 L12.7242585,4.48841607 C8.44405167,4.48841607 4.97425848,7.95820926 4.97425848,12.2384161 Z" id="Rectangle-6-Copy" stroke="#1A2020" stroke-width="0.5"></path>
                                        <ellipse id="Oval-5-Copy" stroke="#1A2020" cx="65.594073" cy="10.6932785" rx="1.40501019" ry="1.36107444"></ellipse>
                                        <path d="M13.9407738,32.4370898 C12.1573477,32.4370898 10.7118043,33.8775743 10.7118535,35.6523412 L10.7168996,217.403175 C10.7169491,219.18285 12.1546763,220.618455 13.9458477,220.618455 L116.19638,220.618455 C117.979708,220.618455 119.425225,219.177967 119.425225,217.403189 L119.425225,35.6523551 C119.425225,33.8726916 117.987472,32.4370898 116.196201,32.4370898 L13.9407738,32.4370898 Z" id="Rectangle-8-Copy" stroke="#1A2020"></path>
                                        <ellipse id="Oval-7-Copy" stroke="#1A2020" cx="65.3249122" cy="235.070676" rx="8.43006111" ry="8.16644666"></ellipse>
                                    </g>
                                </g>
                            </g>
                        </g>
                    </g>
                    <g id="Group-18" transform="translate(100.000000, 83.000000)">
                        <g id="Group">
                            <g id="Group-13">
                                <path d="M31.0066407,8.48979592 C31.0066407,8.48979592 32.1020425,10.5730196 31.710209,15.0405644 C31.3183755,19.5081092 31.710209,22.9014865 26.0816625,29.452255 C22.7285463,33.3547701 12.2730549,43.83104 5.67818131,51.0697909 C-0.916692304,58.3085417 0.0496347878,61.5510204 0.0496347878,61.5510204 L0.0496347878,48.4494835 L5.67818131,40.5885614 L21.1566843,25.5217939 C21.1566843,25.5217939 26.1229248,21.4428669 27.4887991,19.6261023 C28.8546734,17.8093377 31.0066407,8.48979592 31.0066407,8.48979592 Z" id="Path-30" fill="#E1DFDF" transform="translate(15.897436, 35.020408) scale(-1, 1) translate(-15.897436, -35.020408) "></path>
                                <g id="Combined-Shape" stroke-linecap="round" transform="translate(45.084712, 80.471742) scale(-1, 1) translate(-45.084712, -80.471742) ">
                                    <use fill="#FFFAE4" fill-rule="evenodd" xlink:href="#path-1"></use>
                                    <use fill="black" fill-opacity="1" filter="url(#filter-2)" xlink:href="#path-1"></use>
                                    <use stroke="#1A2020" stroke-width="1" xlink:href="#path-1"></use>
                                </g>
                            </g>
                            <g id="Rectangle-51" stroke-linecap="round" stroke-linejoin="round" transform="translate(81.018066, 130.318530) scale(-1, 1) rotate(60.000000) translate(-81.018066, -130.318530) ">
                                <use fill="#FFFFFF" fill-rule="evenodd" xlink:href="#path-3"></use>
                                <use fill="black" fill-opacity="1" filter="url(#filter-4)" xlink:href="#path-3"></use>
                                <use stroke="#1A2020" stroke-width="1" xlink:href="#path-3"></use>
                            </g>
                            <rect id="Rectangle-52" fill="#FAD214" transform="translate(98.942256, 101.428231) scale(-1, 1) rotate(60.000000) translate(-98.942256, -101.428231) " x="94.4381097" y="96.9231448" width="9.00829255" height="9.01017252" rx="4.50414627"></rect>
                        </g>
                    </g>
                </g>
                <g id="Group-44" transform="translate(0.000000, 64.000000)">
                    <g id="Combined-Shape" stroke-linecap="round" stroke-linejoin="round" transform="translate(20.530785, 19.837082) scale(-1, 1) rotate(-30.000000) translate(-20.530785, -19.837082) ">
                        <use fill="#FFFAE4" fill-rule="evenodd" xlink:href="#path-5"></use>
                        <use fill="black" fill-opacity="1" filter="url(#filter-6)" xlink:href="#path-5"></use>
                        <use stroke="#1A2020" stroke-width="1" xlink:href="#path-5"></use>
                    </g>
                    <path d="M25.6360467,58.4375 C25.6360467,58.4375 23.5944745,70.8807299 33.8023356,73.6458921 C44.0101966,76.4110543 46.7322929,66.7329866 46.7322929,66.7329866 L25.6360467,58.4375 Z" id="Path-31" fill="#E1DFDF" transform="translate(36.100840, 66.290129) scale(-1, 1) translate(-36.100840, -66.290129) "></path>
                    <path d="M25.963841,89.744327 C25.963841,89.744327 23.9222688,102.187557 34.1301298,104.952719 C44.3379909,107.717881 47.0600872,98.0398136 47.0600872,98.0398136 L25.963841,89.744327 Z" id="Path-31-Copy" fill="#E1DFDF" transform="translate(36.428635, 97.596956) scale(-1, 1) translate(-36.428635, -97.596956) "></path>
                    <path d="M28.6864833,119 C28.6864833,119 27.650185,129.684494 37.1185073,133.860058 C41.4307127,135.761756 46.5586656,133.860058 46.5586656,133.860058 L46.5586656,126.852629 L28.6864833,119 Z" id="Path-31-Copy-2" fill="#E1DFDF" transform="translate(37.605863, 126.852629) scale(-1, 1) translate(-37.605863, -126.852629) "></path>
                    <g id="Combined-Shape-Copy-26" stroke-linecap="round" stroke-linejoin="round" transform="translate(29.712919, 54.409438) scale(-1, 1) rotate(-30.000000) translate(-29.712919, -54.409438) ">
                        <use fill="#FFFAE4" fill-rule="evenodd" xlink:href="#path-7"></use>
                        <use fill="black" fill-opacity="1" filter="url(#filter-8)" xlink:href="#path-7"></use>
                        <use stroke="#1A2020" stroke-width="1" xlink:href="#path-7"></use>
                    </g>
                    <g id="Combined-Shape-Copy-29" stroke-linecap="round" stroke-linejoin="round" transform="translate(29.712919, 85.819952) scale(-1, 1) rotate(-30.000000) translate(-29.712919, -85.819952) ">
                        <use fill="#FFFAE4" fill-rule="evenodd" xlink:href="#path-9"></use>
                        <use fill="black" fill-opacity="1" filter="url(#filter-10)" xlink:href="#path-9"></use>
                        <use stroke="#1A2020" stroke-width="1" xlink:href="#path-9"></use>
                    </g>
                    <g id="Combined-Shape-Copy-30" stroke-linecap="round" stroke-linejoin="round" transform="translate(29.712919, 116.108663) scale(-1, 1) rotate(-30.000000) translate(-29.712919, -116.108663) ">
                        <use fill="#FFFAE4" fill-rule="evenodd" xlink:href="#path-11"></use>
                        <use fill="black" fill-opacity="1" filter="url(#filter-12)" xlink:href="#path-11"></use>
                        <use stroke="#1A2020" stroke-width="1" xlink:href="#path-11"></use>
                    </g>
                </g>
            </g>
            <path d="M58.5,130.75 L136.50641,130.75" id="Line" stroke="#FAD214" stroke-width="1.5" stroke-linecap="round" stroke-linejoin="round"></path>
            <g id="Group-33" transform="translate(57.000000, 64.000000)" fill="#06C3C3">
                <g id="Group-17" transform="translate(0.000000, 116.000000)">
                    <rect id="Rectangle-Copy-2" x="0.0641025641" y="0.104477612" width="80.8717949" height="15.8955224" rx="7.94776119"></rect>
                </g>
                <path d="M27.5519118,2.87440773 C27.5262772,2.87442255 27.4965248,2.87368274 27.4644803,2.87239402 C27.4885096,2.87317426 27.5126183,2.87311762 27.5366825,2.8737078 C27.5219516,2.87306896 27.5072304,2.87254135 27.4925225,2.87212489 C27.478971,2.8717212 27.4654195,2.87212489 27.451868,2.87185576 C27.4562286,2.87205761 27.4603209,2.87225945 27.4644803,2.87239402 C27.455021,2.87205761 27.4454947,2.87199033 27.4360355,2.87178848 C26.9685753,2.86485848 26.5033961,2.93489864 26.0491521,3.0419437 C25.3979414,3.19548036 24.7555862,3.40250591 24.1312774,3.64270129 C24.0741866,3.6646351 24.1057173,3.68730901 24.1354367,3.71872952 C24.2810149,3.87260259 24.3387765,4.0790226 24.362324,4.2851062 C24.4096872,4.69983011 24.4220982,5.54556008 24.4280019,6.04102194 C24.4318929,6.36289721 24.4246475,6.48676268 24.4187439,6.8132131 C24.4187439,6.8142896 24.4198844,6.81523155 24.4208907,6.81476058 C24.9585235,6.59838288 25.5203076,6.32232639 26.1115427,6.33598456 C26.8710984,6.35347778 27.3990036,6.9021594 27.3184996,7.68585572 C27.2660378,8.19638865 27.0622284,8.73753473 26.7835502,9.1739906 C26.7386692,9.24376164 26.673528,9.23104542 26.6407897,9.21853103 C26.6360936,9.21637802 26.630928,9.21429229 26.6260977,9.21213928 C26.622475,9.21032268 26.6203283,9.20904433 26.6203283,9.20904433 C26.2494059,9.04608824 25.5480815,8.91199597 24.3586342,9.26650283 C24.3579633,9.26670467 24.3574937,9.26737749 24.3574937,9.26805031 C24.3565545,9.3127253 24.3556824,9.35464175 24.3548773,9.3940015 C24.3319337,10.4805324 24.1216169,11.7890926 25.2944937,12.3081031 C26.6252256,12.8969518 28.7785075,12.0044611 28.8627684,10.477101 C28.8665924,10.4076664 28.9267692,10.3550522 28.9958685,10.3606365 C29.8485405,10.4287928 30.4856629,10.890883 30.6931621,11.7661496 C30.8694659,12.5096115 30.608029,13.3528521 30.0775074,13.884646 C29.4624565,14.501282 28.5549746,14.7553374 27.7264538,14.8870076 C25.6025559,15.224694 22.754524,14.899051 21.857776,12.612216 C21.403532,11.453761 21.5594415,10.153611 21.6373291,8.92942191 C21.7270241,7.52094847 21.9135922,6.06416682 21.7474855,4.65663531 C21.6761723,4.23255926 21.4552558,4.28934495 21.4552558,4.28934495 L21.4558596,4.28577902 C21.0348234,4.30791467 20.8126323,4.21762274 20.8126323,4.21762274 C20.5270442,4.13399169 20.2715109,3.96329821 20.1375388,3.70056349 C19.7952624,3.02929476 20.1713505,2.21787841 20.4049464,1.58368186 C20.4198396,1.54317832 20.4655928,1.52299384 20.5051068,1.54035249 C20.8320203,1.68399875 21.0286515,2.01011277 22.8529402,1.43223093 C23.7688079,1.14211258 24.6588472,0.773611145 25.5797464,0.498160191 C27.5304936,-0.0853733046 30.2216096,-0.491081477 31.7077143,1.29766769 C32.2957964,2.00553762 32.4093741,3.13014991 31.8543658,3.8923161 C31.3746288,4.55120501 30.5078686,4.75641396 29.7554241,4.87563699 C29.6694861,4.88922788 29.5918667,4.81757295 29.6020639,4.73091422 C29.7002118,3.89487281 29.1066957,3.29216405 28.3651864,3.03164961 C28.1057751,2.9400113 27.8273308,2.88777942 27.5519118,2.87440773 Z M50.5854433,4.1602988 C49.89814,4.91647693 48.8197212,5.05285678 48.1766281,4.46501726 C47.5335349,3.87711046 47.5693592,2.78748461 48.2565954,2.03137376 C48.9438987,1.27519563 50.0223846,1.1387485 50.6654777,1.7266553 C51.3085709,2.31449482 51.2727466,3.40412067 50.5854433,4.1602988 Z M52.380348,12.6400033 C52.3947046,12.8116387 52.3955767,12.9898677 52.3802139,13.1678949 C52.3802139,13.1713935 52.3807506,13.1746903 52.3807506,13.1781217 C52.3807506,14.1775902 51.5551816,14.9999734 50.5641768,14.9999734 C49.553046,14.9999734 49.0898123,14.6653146 48.7699429,14.1329152 C48.4625516,13.6212384 48.435784,12.989935 48.435784,12.4134661 C48.435784,12.4123223 48.5238018,9.7677509 48.5238018,9.7677509 C48.5238018,9.43934931 48.5282966,9.14263737 48.5242714,8.87869157 C48.5242714,8.87620215 48.5241372,8.87398185 48.5241372,8.87149244 C48.5236005,8.83744794 48.52246,8.8053546 48.5215879,8.77238661 C48.4835497,8.05106035 48.0229324,7.91185468 47.8001375,7.8868932 C47.7407658,7.88023232 47.7013859,7.82055352 47.7225853,7.76457521 C48.0838472,6.81166562 49.0657282,5.7761342 50.144214,5.93559164 C50.8274921,6.03664863 51.0759813,6.4471338 51.1827833,7.24220071 C51.2526205,7.76161482 51.2620127,9.52560435 51.2620127,10.0453549 C51.2620127,10.5869046 51.218138,11.0764457 51.3399674,11.6188701 C51.4503922,12.1104296 51.794614,12.480815 52.277437,12.5327564 C52.3325152,12.5387444 52.3757861,12.5846978 52.380348,12.6400033 Z M57.9894674,12.6456549 C58.0032872,12.815541 58.0039581,12.9917516 57.9887965,13.1678949 C57.9888636,13.1713935 57.9893332,13.1746903 57.9893332,13.1781217 C57.9893332,14.1775902 57.1637642,14.9999734 56.1727594,14.9999734 C55.1616957,14.9999734 54.6983949,14.6653146 54.3785255,14.1329152 C54.0711343,13.6212384 54.0443667,12.989935 54.0443667,12.4134661 C54.0443667,12.4123223 54.1323844,9.7677509 54.1323844,9.7677509 C54.1323844,9.43934931 54.1368792,3.22340223 54.132854,2.95938915 C54.132854,2.95696701 54.1327198,2.95467944 54.1327198,2.95219002 C54.1321832,2.91814552 54.1310427,2.88605219 54.1301706,2.85308419 C54.0925349,2.14010086 53.6421148,1.99584906 53.4165022,1.96846545 C53.3511597,1.9605935 53.3132558,1.89156255 53.3370715,1.82999987 C53.7028953,0.88132902 54.6800803,-0.142226274 55.7528638,0.0163565057 C56.4360748,0.117346218 56.684631,0.527898667 56.7913659,1.3228983 C56.8612032,1.84237969 56.8705953,9.52560435 56.8705953,10.0453549 C56.8705953,10.5869046 56.8267206,11.0764457 56.9485501,11.6188701 C57.0585052,12.1085458 57.4005132,12.4779219 57.8804515,12.5321508 C57.9386828,12.5387444 57.9846371,12.5869854 57.9894674,12.6456549 Z M46.7574088,12.5898112 C46.7720337,12.7626577 46.772973,12.942165 46.7576101,13.1216051 C46.7576101,13.1250365 46.7580797,13.1284006 46.7580797,13.1318319 C46.7580797,14.1312331 46.0831204,14.9839604 45.0921827,14.9926397 C44.3369876,14.9992333 43.8350449,14.6791074 43.5151755,14.1467079 C43.2077842,13.6350985 43.1810166,13.003795 43.1810166,12.4273261 C43.1810166,12.4261823 43.1869203,9.76687624 43.1869203,9.76687624 C43.1869203,9.02657657 42.5482548,8.42864481 41.7961458,8.49989604 C41.2040386,8.5553361 40.7443605,9.05019242 40.6621122,9.62955445 C40.5518887,10.4064553 40.6378268,11.2714951 40.704511,12.0502799 C40.7790443,12.9207695 41.0980416,14.1086938 40.3681382,14.686912 C39.7063279,15.2111704 38.6705763,14.9667363 37.944631,14.7462544 C37.8967311,14.7317216 37.8680851,14.6842208 37.8745254,14.6344324 C38.0533786,13.3001033 38.1221424,11.9561529 38.06532,10.610655 C38.0419738,10.0581384 37.9692518,9.47534498 37.6387157,9.01312025 C37.3765408,8.64663726 36.9570477,8.45629755 36.5093781,8.50036702 C35.8530688,8.56489009 35.3666232,9.14526135 35.3666232,9.80663968 L35.3562918,13.7643464 C35.3562918,15.2363337 33.7598966,15.0519148 32.9821604,14.8748296 C32.8276597,14.8360754 32.6750375,14.7845377 32.5226836,14.7364986 C32.4784064,14.7225713 32.4506325,14.6779636 32.457207,14.6318757 C32.5828604,13.7560035 32.7407154,13.044164 32.7920367,12.2011253 C32.8787798,10.7765715 32.9608269,8.723742 31.2311304,8.25976794 C31.1727649,8.24409132 31.1374102,8.18367243 31.1536452,8.12533926 C31.3201544,7.52808032 31.6499527,6.95188052 32.1255974,6.59078006 C32.8689181,6.02648911 33.706026,5.8691174 34.2122622,6.81799009 C34.2529839,6.89422017 34.3461002,6.9197199 34.4191576,6.87376656 L34.6555041,6.72527602 C35.5495015,6.14665408 37.2852358,5.34721387 38.953548,6.42540184 C39.1522588,6.55384245 39.2918662,6.69782512 39.4045048,6.81563524 C39.4819899,6.89670959 39.6057649,6.91157883 39.7006926,6.85183275 L39.963337,6.68652181 C40.8569319,6.10789987 42.7347559,5.34263872 44.3717386,6.46852936 C45.5745361,7.29340202 45.6562477,8.95088475 45.6416228,10.2709501 C45.6367254,10.709559 45.6203563,11.1406997 45.7172966,11.5725804 C45.8279896,12.0654182 46.1738216,12.4364764 46.6586572,12.4868703 C46.7115215,12.4923874 46.752914,12.536726 46.7574088,12.5898112 Z" id="Fill-1-Copy-11"></path>
            </g>
            <path d="M58.5,147.75 L136.50641,147.75" id="Line" stroke="#FAD214" stroke-width="1.5" stroke-linecap="round" stroke-linejoin="round"></path>
        </g>
    </g>
</svg>