<?xml version="1.0" encoding="UTF-8"?>
<svg width="58px" height="62px" viewBox="0 0 58 62" version="1.1" xmlns="http://www.w3.org/2000/svg" xmlns:xlink="http://www.w3.org/1999/xlink">
    <!-- Generator: Sketch 40.3 (33839) - http://www.bohemiancoding.com/sketch -->
    <title>Group 18</title>
    <desc>Created with Sketch.</desc>
    <defs></defs>
    <g id="Claim" stroke="none" stroke-width="1" fill="none" fill-rule="evenodd" stroke-linecap="round">
        <g id="Artboard-2-Copy-6" transform="translate(-159.000000, -3146.000000)">
            <g id="Group-20" transform="translate(40.000000, 3147.000000)">
                <g id="Group-18" transform="translate(147.500000, 29.500000) scale(-1, 1) translate(-147.500000, -29.500000) translate(120.000000, 0.000000)">
                    <g id="Group-10">
                        <path d="M39.5183409,41.7047555 C38.5626008,40.3882437 38,38.7747322 38,37.0315058 C38,32.5958276 41.6426113,29 46.136,29 C50.6293887,29 54.272,32.5958276 54.272,37.0315058 C54.272,41.467184 50.6293887,45.0630117 46.136,45.0630117 C44.9096695,45.0630117 43.7467089,44.7951775 42.7038714,44.3155335 L39.0015888,45.5019558 C38.7693829,45.5763678 38.6296948,45.4329949 38.6870653,45.192302 L39.5183409,41.7047555 Z" id="Combined-Shape-Copy-11" stroke="#FAD214" stroke-width="3"></path>
                        <g id="Group-38" transform="translate(0.000000, 37.000000)" stroke="#0FE1C3" stroke-width="3">
                            <path d="M2.02445454,16.8252168 C0.750134361,15.0817281 0,12.9449156 0,10.6363185 C0,4.76204201 4.85681503,0 10.848,0 C16.839185,0 21.696,4.76204201 21.696,10.6363185 C21.696,16.5105951 16.839185,21.2726371 10.848,21.2726371 C9.21289265,21.2726371 7.6622785,20.9179378 6.27182847,20.2827335 L1.20230512,21.8963209 C0.966232123,21.971461 0.823541764,21.829502 0.877980678,21.6026513 L2.02445454,16.8252168 Z" id="Combined-Shape-Copy-9" transform="translate(10.848000, 10.958286) scale(-1, 1) translate(-10.848000, -10.958286) "></path>
                        </g>
                        <path d="M41.1231705,6.52406364 C40.6453004,5.84801704 40.364,5.01945706 40.364,4.12428678 C40.364,1.84650609 42.1853056,0 44.432,0 C46.6786944,0 48.5,1.84650609 48.5,4.12428678 C48.5,6.40206747 46.6786944,8.24857355 44.432,8.24857355 C43.8188347,8.24857355 43.2373544,8.1110371 42.7159357,7.86473341 L41.0884226,8.40037725 C40.8488132,8.47923701 40.6987151,8.35295885 40.7577165,8.09873333 L41.1231705,6.52406364 Z" id="Combined-Shape-Copy-12" stroke="#F478A2" stroke-width="2"></path>
                        <path d="M9.93622727,17.4224238 C9.29906718,16.5328888 8.924,15.4426783 8.924,14.2648226 C8.924,11.2677428 11.3524075,8.8381295 14.348,8.8381295 C17.3435925,8.8381295 19.772,11.2677428 19.772,14.2648226 C19.772,17.2619025 17.3435925,19.6915158 14.348,19.6915158 C13.5304463,19.6915158 12.7551393,19.5105467 12.0599142,19.1864629 L9.74823025,19.937269 C9.50699134,20.0156203 9.35613721,19.8890306 9.41310965,19.6467775 L9.93622727,17.4224238 Z" id="Combined-Shape-Copy-10" stroke="#765DFF" stroke-width="2" transform="translate(14.348000, 14.399265) scale(-1, 1) translate(-14.348000, -14.399265) "></path>
                    </g>
                </g>
            </g>
        </g>
    </g>
</svg>