<?xml version="1.0" encoding="UTF-8"?>
<svg width="190px" height="190px" viewBox="0 0 190 190" version="1.1" xmlns="http://www.w3.org/2000/svg" xmlns:xlink="http://www.w3.org/1999/xlink">
    <!-- Generator: Sketch 46.2 (44496) - http://www.bohemiancoding.com/sketch -->
    <title>icon_smartcar</title>
    <desc>Created with Sketch.</desc>
    <defs>
        <path d="M15.8768204,16.7439308 C15.8768204,17.8457375 14.9741097,18.7389282 13.8737323,18.7389282 L6.09506597,18.7389282 C4.45272801,18.7389282 3.11729679,20.0742195 3.11729679,21.7213849 L3.11729679,66.0108699 C3.11729679,67.6602188 4.45048947,68.9933266 6.09506597,68.9933266 L64.7877807,68.9933266 C66.4301187,68.9933266 67.7655499,67.6580353 67.7655499,66.0108699 L67.7655499,21.7213849 C67.7655499,20.072036 66.4323572,18.7389282 64.7877807,18.7389282 L57.0091144,18.7389282 C55.9028394,18.7389282 55.0060263,17.8510517 55.0060263,16.7439308 L55.0060263,3.83162173 C55.0060263,3.36121657 54.6238301,2.98119312 54.1523672,2.98119312 L16.7304795,2.98119312 C16.2577972,2.98119312 15.8768204,3.36194298 15.8768204,3.83162173 L15.8768204,16.7439308 Z" id="path-1"></path>
        <filter x="-3.9%" y="-3.8%" width="107.7%" height="107.6%" filterUnits="objectBoundingBox" id="filter-2">
            <feOffset dx="0" dy="-5" in="SourceAlpha" result="shadowOffsetInner1"></feOffset>
            <feComposite in="shadowOffsetInner1" in2="SourceAlpha" operator="arithmetic" k2="-1" k3="1" result="shadowInnerInner1"></feComposite>
            <feColorMatrix values="0 0 0 0 0.936277636   0 0 0 0 0.936277636   0 0 0 0 0.936277636  0 0 0 1 0" type="matrix" in="shadowInnerInner1"></feColorMatrix>
        </filter>
        <rect id="path-3" x="18.8540426" y="5.53650152" width="2.97722218" height="3.83296259" rx="1.48861109"></rect>
        <filter x="-67.2%" y="-52.2%" width="234.4%" height="204.4%" filterUnits="objectBoundingBox" id="filter-4">
            <feOffset dx="0" dy="-4" in="SourceAlpha" result="shadowOffsetInner1"></feOffset>
            <feComposite in="shadowOffsetInner1" in2="SourceAlpha" operator="arithmetic" k2="-1" k3="1" result="shadowInnerInner1"></feComposite>
            <feColorMatrix values="0 0 0 0 0.987909226   0 0 0 0 0.987909226   0 0 0 0 0.987909226  0 0 0 1 0" type="matrix" in="shadowInnerInner1"></feColorMatrix>
        </filter>
        <rect id="path-5" x="23.1072172" y="5.53650152" width="2.97722218" height="3.83296259" rx="1.48861109"></rect>
        <filter x="-67.2%" y="-52.2%" width="234.4%" height="204.4%" filterUnits="objectBoundingBox" id="filter-6">
            <feOffset dx="0" dy="-4" in="SourceAlpha" result="shadowOffsetInner1"></feOffset>
            <feComposite in="shadowOffsetInner1" in2="SourceAlpha" operator="arithmetic" k2="-1" k3="1" result="shadowInnerInner1"></feComposite>
            <feColorMatrix values="0 0 0 0 0.987909226   0 0 0 0 0.987909226   0 0 0 0 0.987909226  0 0 0 1 0" type="matrix" in="shadowInnerInner1"></feColorMatrix>
        </filter>
        <rect id="path-7" x="27.3603917" y="5.53650152" width="2.97722218" height="3.83296259" rx="1.48861109"></rect>
        <filter x="-67.2%" y="-52.2%" width="234.4%" height="204.4%" filterUnits="objectBoundingBox" id="filter-8">
            <feOffset dx="0" dy="-4" in="SourceAlpha" result="shadowOffsetInner1"></feOffset>
            <feComposite in="shadowOffsetInner1" in2="SourceAlpha" operator="arithmetic" k2="-1" k3="1" result="shadowInnerInner1"></feComposite>
            <feColorMatrix values="0 0 0 0 0.987909226   0 0 0 0 0.987909226   0 0 0 0 0.987909226  0 0 0 1 0" type="matrix" in="shadowInnerInner1"></feColorMatrix>
        </filter>
        <rect id="path-9" x="31.6135663" y="5.53650152" width="2.97722218" height="3.83296259" rx="1.48861109"></rect>
        <filter x="-67.2%" y="-52.2%" width="234.4%" height="204.4%" filterUnits="objectBoundingBox" id="filter-10">
            <feOffset dx="0" dy="-4" in="SourceAlpha" result="shadowOffsetInner1"></feOffset>
            <feComposite in="shadowOffsetInner1" in2="SourceAlpha" operator="arithmetic" k2="-1" k3="1" result="shadowInnerInner1"></feComposite>
            <feColorMatrix values="0 0 0 0 0.987909226   0 0 0 0 0.987909226   0 0 0 0 0.987909226  0 0 0 1 0" type="matrix" in="shadowInnerInner1"></feColorMatrix>
        </filter>
        <rect id="path-11" x="35.8667408" y="5.54000092" width="2.97722218" height="3.83296259" rx="1.48861109"></rect>
        <filter x="-67.2%" y="-52.2%" width="234.4%" height="204.4%" filterUnits="objectBoundingBox" id="filter-12">
            <feOffset dx="0" dy="-4" in="SourceAlpha" result="shadowOffsetInner1"></feOffset>
            <feComposite in="shadowOffsetInner1" in2="SourceAlpha" operator="arithmetic" k2="-1" k3="1" result="shadowInnerInner1"></feComposite>
            <feColorMatrix values="0 0 0 0 1   0 0 0 0 1   0 0 0 0 1  0 0 0 1 0" type="matrix" in="shadowInnerInner1"></feColorMatrix>
        </filter>
        <rect id="path-13" x="40" y="5.54000092" width="2.97722218" height="3.83296259" rx="1.48861109"></rect>
        <filter x="-67.2%" y="-52.2%" width="234.4%" height="204.4%" filterUnits="objectBoundingBox" id="filter-14">
            <feOffset dx="0" dy="-4" in="SourceAlpha" result="shadowOffsetInner1"></feOffset>
            <feComposite in="shadowOffsetInner1" in2="SourceAlpha" operator="arithmetic" k2="-1" k3="1" result="shadowInnerInner1"></feComposite>
            <feColorMatrix values="0 0 0 0 1   0 0 0 0 1   0 0 0 0 1  0 0 0 1 0" type="matrix" in="shadowInnerInner1"></feColorMatrix>
        </filter>
    </defs>
    <g id="Symbols" stroke="none" stroke-width="1" fill="none" fill-rule="evenodd">
        <g id="icon_smartcar">
            <g id="Group-27" transform="translate(15.000000, 8.000000)">
                <g id="Group-20">
                    <g id="Lp_icon_phone">
                        <g id="Group-14" transform="translate(0.000000, 154.000000)">
                            <ellipse id="Oval-14-Copy-3" fill="#EFEFEF" opacity="0.7" cx="65.9753075" cy="10.0056921" rx="65.9753075" ry="10.0056921"></ellipse>
                            <ellipse id="Oval-14-Copy-3" fill="#E1DFDF" cx="65.9753075" cy="8.00455369" rx="46.982416" ry="7.00398448"></ellipse>
                        </g>
                        <g id="Group-8" transform="translate(26.416667, 0.000000)">
                            <g id="Group-5" transform="translate(0.368479, 0.000000)">
                                <ellipse id="Oval-5" fill="#06C3C3" opacity="0.05" cx="42.4558461" cy="59.0969317" rx="15.0685" ry="15.1239903"></ellipse>
                                <ellipse id="Oval-5" fill="#06C3C3" opacity="0.147154851" cx="42.2771682" cy="59.8024767" rx="9.58904543" ry="9.62435744"></ellipse>
                                <ellipse id="Oval-5" fill="#06C3C3" cx="42.9819531" cy="59.6215677" rx="4.1095909" ry="4.12472462"></ellipse>
                                <rect id="Rectangle-5-Copy" stroke="#1A2020" fill="#FFFFFF" x="0" y="0" width="78.6281872" height="159.477291" rx="10"></rect>
                                <ellipse id="Oval-6-Copy" stroke="#1A2020" stroke-width="2" cx="27.780177" cy="11.5686841" rx="1.27629371" ry="1.28099371"></ellipse>
                                <rect id="Rectangle-7-Copy" stroke="#1A2020" stroke-width="2" x="33.6881228" y="12.1741443" width="10.7853939" height="1" rx="0.5"></rect>
                                <path d="M2.98597162,10.6593619 L2.98597162,149.30259 C2.98597162,153.651832 6.51172921,157.17759 10.8609716,157.17759 L67.9777989,157.17759 C72.3270413,157.17759 75.8527989,153.651832 75.8527989,149.30259 L75.8527989,10.6593619 C75.8527989,6.31011952 72.3270413,2.78436192 67.9777989,2.78436192 L10.8609716,2.78436192 C6.51172921,2.78436192 2.98597162,6.31011952 2.98597162,10.6593619 Z" id="Rectangle-6-Copy" stroke="#1A2020" stroke-width="0.25"></path>
                                <ellipse id="Oval-5-Copy" stroke="#1A2020" cx="39.7232247" cy="6.70941628" rx="1" ry="1"></ellipse>
                                <path d="M9.89870703,20.2886841 C7.98642225,20.2886841 6.43419938,21.8422547 6.43425061,23.7541831 L6.43723229,135.02358 C6.43728346,136.933089 7.99648712,138.489093 9.90171001,138.489093 L68.9113399,138.489093 C70.8235264,138.489093 72.375718,136.935521 72.375718,135.023587 L72.375718,23.7541898 C72.375718,21.8446861 70.8164828,20.2886841 68.9111621,20.2886841 L9.89870703,20.2886841 Z" id="Rectangle-8-Copy" stroke="#1A2020" stroke-width="0.5"></path>
                                <ellipse id="Oval-7-Copy" stroke="#1A2020" cx="39.5602232" cy="147.493307" rx="5.10517485" ry="5.12397484"></ellipse>
                            </g>
                        </g>
                    </g>
                    <g id="Group-17" transform="translate(42.833333, 99.983957)" fill="#06C3C3">
                        <rect id="Rectangle-Copy-2" x="0.916666667" y="0.272727273" width="45.7953476" height="9.11469724" rx="4.55734862"></rect>
                    </g>
                </g>
                <g id="iphone" transform="translate(83.000000, 97.000000)">
                    <g id="iphone2">
                        <path d="M12.8995982,13.7591511 C12.8995982,14.8629385 12.00666,15.7577351 10.9086976,15.7577351 L5.24604821,15.7577351 C2.42906093,15.7577351 0.140074611,18.0465506 0.140074611,20.8699477 L0.140074611,66.8623071 C0.140074611,69.6833393 2.42609686,71.9745197 5.24604821,71.9745197 L65.6367985,71.9745197 C68.4537858,71.9745197 70.7427721,69.6857042 70.7427721,66.8623071 L70.7427721,20.8699477 C70.7427721,18.0489155 68.4567498,15.7577351 65.6367985,15.7577351 L59.9741491,15.7577351 C58.874605,15.7577351 57.9832484,14.8572537 57.9832484,13.7591511 L57.9832484,1.70434149 C57.9832484,0.760294995 57.222741,0 56.2846075,0 L14.5982392,0 C13.663193,0 12.8995982,0.763059677 12.8995982,1.70434149 L12.8995982,13.7591511 Z" id="Combined-Shape" stroke="#1A2020" fill="#FFFFFF"></path>
                        <g id="Combined-Shape">
                            <use fill="black" fill-opacity="1" filter="url(#filter-2)" xlink:href="#path-1"></use>
                            <path stroke="#1A2020" stroke-width="0.5" d="M16.1268204,16.7439308 C16.1268204,17.9821255 15.1138787,18.9889282 13.8737323,18.9889282 L6.09506597,18.9889282 C4.59008508,18.9889282 3.36729679,20.2130057 3.36729679,21.7213849 L3.36729679,66.0108699 C3.36729679,67.5214532 4.58786708,68.7433266 6.09506597,68.7433266 L64.7877807,68.7433266 C66.2927616,68.7433266 67.5155499,67.5192491 67.5155499,66.0108699 L67.5155499,21.7213849 C67.5155499,20.2108016 66.2949796,18.9889282 64.7877807,18.9889282 L57.0091144,18.9889282 C55.7632504,18.9889282 54.7560263,17.9876181 54.7560263,16.7439308 L54.7560263,3.83162173 C54.7560263,3.49978445 54.4862555,3.23119312 54.1523672,3.23119312 L16.7304795,3.23119312 C16.3961329,3.23119312 16.1268204,3.49975139 16.1268204,3.83162173 L16.1268204,16.7439308 Z"></path>
                        </g>
                        <g id="Rectangle-2">
                            <use fill="black" fill-opacity="1" filter="url(#filter-4)" xlink:href="#path-3"></use>
                            <rect stroke="#1A2020" stroke-width="0.5" x="19.1040426" y="5.78650152" width="2.47722218" height="3.33296259" rx="1.23861109"></rect>
                        </g>
                        <g id="Rectangle-2-Copy">
                            <use fill="black" fill-opacity="1" filter="url(#filter-6)" xlink:href="#path-5"></use>
                            <rect stroke="#1A2020" stroke-width="0.5" x="23.3572172" y="5.78650152" width="2.47722218" height="3.33296259" rx="1.23861109"></rect>
                        </g>
                        <g id="Rectangle-2-Copy-2">
                            <use fill="black" fill-opacity="1" filter="url(#filter-8)" xlink:href="#path-7"></use>
                            <rect stroke="#1A2020" stroke-width="0.5" x="27.6103917" y="5.78650152" width="2.47722218" height="3.33296259" rx="1.23861109"></rect>
                        </g>
                        <g id="Rectangle-2-Copy-3">
                            <use fill="black" fill-opacity="1" filter="url(#filter-10)" xlink:href="#path-9"></use>
                            <rect stroke="#1A2020" stroke-width="0.5" x="31.8635663" y="5.78650152" width="2.47722218" height="3.33296259" rx="1.23861109"></rect>
                        </g>
                        <g id="Rectangle-2-Copy-3">
                            <use fill="black" fill-opacity="1" filter="url(#filter-12)" xlink:href="#path-11"></use>
                            <rect stroke="#1A2020" stroke-width="0.5" x="36.1167408" y="5.79000092" width="2.47722218" height="3.33296259" rx="1.23861109"></rect>
                        </g>
                        <g id="Rectangle-2-Copy-3">
                            <use fill="black" fill-opacity="1" filter="url(#filter-14)" xlink:href="#path-13"></use>
                            <rect stroke="#1A2020" stroke-width="0.5" x="40.25" y="5.79000092" width="2.47722218" height="3.33296259" rx="1.23861109"></rect>
                        </g>
                        <rect id="Rectangle-2-Copy-5" stroke="#1A2020" stroke-width="0.5" x="44.6230899" y="5.78650152" width="2.47722218" height="3.33296259" rx="1.23861109"></rect>
                        <rect id="Rectangle-2-Copy-6" stroke="#1A2020" stroke-width="0.5" x="48.8762644" y="5.78650152" width="2.47722218" height="3.33296259" rx="1.23861109"></rect>
                        <path d="M19.0667013,11.25 L52.2414628,11.25" id="Line-Copy-2" stroke="#1A2020" stroke-width="0.5" stroke-linecap="square"></path>
                        <path d="M24.3347288,36.2386195 C24.3089063,36.238635 24.2789358,36.2378579 24.2466563,36.236504 C24.2708618,36.2373237 24.2951472,36.2372642 24.3193879,36.2378842 C24.3045489,36.2372131 24.2897199,36.2366588 24.2749041,36.2362213 C24.2612533,36.2357972 24.2476024,36.2362213 24.2339516,36.2359386 C24.2383442,36.2361506 24.2424664,36.2363627 24.2466563,36.236504 C24.2371277,36.2361506 24.2275316,36.23608 24.218003,36.2358679 C23.747116,36.2285878 23.2785267,36.3021661 22.8209526,36.4146186 C22.1649681,36.5759113 21.5179039,36.7933949 20.8890183,37.0457239 C20.831509,37.0687657 20.8632709,37.092585 20.8932082,37.1255927 C21.0398535,37.2872388 21.0980386,37.5040863 21.1217587,37.7205803 C21.1694691,38.1562543 21.1819711,39.0447069 21.1879181,39.5651973 C21.1918376,39.9033323 21.1845391,40.033455 21.1785922,40.3763962 C21.1785922,40.3775271 21.1797411,40.3785167 21.1807547,40.3780219 C21.7223289,40.1507137 22.2882313,39.8607121 22.8838006,39.8750602 C23.6489244,39.8934371 24.1806997,40.4698357 24.0996055,41.293121 C24.0467591,41.8294438 23.8414556,42.3979263 23.5607345,42.85643 C23.5155245,42.9297256 23.4499057,42.916367 23.4169274,42.9032204 C23.4121969,42.9009587 23.4069934,42.8987676 23.4021277,42.8965058 C23.3984785,42.8945974 23.396316,42.8932545 23.396316,42.8932545 C23.0226744,42.7220666 22.3162088,42.5812005 21.1180419,42.9536156 C21.1173661,42.9538276 21.116893,42.9545344 21.116893,42.9552412 C21.1159469,43.002173 21.1150684,43.0462069 21.1142575,43.0875549 C21.0911456,44.2289726 20.879287,45.6036357 22.060762,46.1488643 C23.4012492,46.7674591 25.5703165,45.8298836 25.6551951,44.2253679 C25.6590471,44.1524258 25.719665,44.0971537 25.7892708,44.1030202 C26.6481936,44.1746194 27.2899867,44.6600524 27.499007,45.5795337 C27.6766033,46.360552 27.4132499,47.2463895 26.8788391,47.8050473 C26.2592793,48.4528331 25.3451449,48.7197223 24.5105504,48.8580439 C22.3710825,49.2127888 19.5021723,48.8706957 18.5988504,46.4683396 C18.1412763,45.2513646 18.2983288,43.8855366 18.3767874,42.5995068 C18.4671399,41.1198833 18.6550757,39.5895114 18.4877513,38.1108775 C18.4159154,37.6653789 18.1933794,37.7250332 18.1933794,37.7250332 L18.1939876,37.7212871 C17.7698649,37.744541 17.5460449,37.6496879 17.5460449,37.6496879 C17.2583632,37.5618322 17.0009567,37.382516 16.8660024,37.106509 C16.5212169,36.4013307 16.9000619,35.5489251 17.1353703,34.8826917 C17.1503727,34.8401421 17.1964613,34.818938 17.236265,34.8371735 C17.5655751,34.9880762 17.7636477,35.3306641 19.6013099,34.7235901 C20.5238917,34.4188163 21.4204557,34.0316997 22.3481058,33.7423342 C24.3131536,33.1293231 27.0239977,32.7031203 28.5209967,34.5822293 C29.1133899,35.3258578 29.2278003,36.5072806 28.6687233,37.3079482 C28.1854694,38.0001213 27.3123552,38.2156965 26.5543947,38.3409422 C26.4678266,38.3552196 26.3896383,38.279945 26.3999102,38.1889086 C26.4987776,37.310634 25.9009105,36.677479 25.1539653,36.4038045 C24.8926524,36.307537 24.6121668,36.2526666 24.3347288,36.2386195 Z M47.5371148,37.5894682 C46.844773,38.3838452 45.7584486,38.5271143 45.110641,37.9095797 C44.4628335,37.2919744 44.4989204,36.1473054 45.1911946,35.3529991 C45.8835364,34.5586221 46.9699284,34.4152822 47.617736,35.0328876 C48.2655435,35.6504222 48.2294566,36.7950912 47.5371148,37.5894682 Z M49.3451777,46.4975307 C49.3596395,46.6778363 49.360518,46.8650687 49.3450425,47.052089 C49.3450425,47.0557644 49.3455832,47.0592278 49.3455832,47.0628325 C49.3455832,48.1127898 48.5139621,48.9767163 47.5156924,48.9767163 C46.4971492,48.9767163 46.0305196,48.625152 45.7083053,48.065858 C45.3986606,47.5283336 45.3716968,46.8651394 45.3716968,46.2595498 C45.3716968,46.2583482 45.4603598,43.4801845 45.4603598,43.4801845 C45.4603598,43.1351935 45.4648875,42.8234929 45.4608328,42.5462137 C45.4608328,42.5435986 45.4606977,42.5412661 45.4606977,42.5386509 C45.460157,42.5028867 45.4590082,42.4691721 45.4581297,42.4345387 C45.4198127,41.6767742 44.9558187,41.5305364 44.7313905,41.504314 C44.6715835,41.4973167 44.6319149,41.4346231 44.6532697,41.3758171 C45.0171799,40.3747706 46.0062589,39.2869286 47.092651,39.4544411 C47.780938,39.5606031 48.0312488,39.9918242 48.1388338,40.8270544 C48.209183,41.3727071 48.218644,43.2258058 48.218644,43.7718118 C48.218644,44.3407183 48.1744477,44.8549889 48.2971702,45.4248143 C48.4084045,45.9412052 48.7551498,46.3303008 49.2415123,46.3848661 C49.2969942,46.3911567 49.3405823,46.4394314 49.3451777,46.4975307 Z M54.9954164,46.5034678 C55.0093376,46.6819358 55.0100134,46.8670478 54.9947406,47.052089 C54.9948082,47.0557644 54.9952813,47.0592278 54.9952813,47.0628325 C54.9952813,48.1127898 54.1636602,48.9767163 53.1653905,48.9767163 C52.1469149,48.9767163 51.6802177,48.625152 51.3580034,48.065858 C51.0483587,47.5283336 51.0213949,46.8651394 51.0213949,46.2595498 C51.0213949,46.2583482 51.1100579,43.4801845 51.1100579,43.4801845 C51.1100579,43.1351935 51.1145857,36.6052437 51.110531,36.3278938 C51.110531,36.3253493 51.1103958,36.3229462 51.1103958,36.320331 C51.1098552,36.2845667 51.1087063,36.2508522 51.1078278,36.2162188 C51.0699163,35.4672186 50.6161942,35.3156798 50.3889277,35.2869129 C50.3231062,35.2786433 50.2849244,35.2061252 50.3089147,35.1414526 C50.6774203,34.144859 51.6617688,33.0695982 52.7424167,33.2361919 C53.4306362,33.3422831 53.6810145,33.7735749 53.7885319,34.6087345 C53.8588811,35.1544578 53.8683421,43.2258058 53.8683421,43.7718118 C53.8683421,44.3407183 53.8241458,44.8549889 53.9468684,45.4248143 C54.0576295,45.9392262 54.4021447,46.3272616 54.8856014,46.38423 C54.9442595,46.3911567 54.9905508,46.4418345 54.9954164,46.5034678 Z M43.6810178,46.4448031 C43.6957499,46.626381 43.696696,46.8149563 43.6812205,47.0034609 C43.6812205,47.0070656 43.6816935,47.0105997 43.6816935,47.0142044 C43.6816935,48.064091 43.0017862,48.9598943 42.0035841,48.9690121 C41.2428529,48.9759388 40.7372305,48.6396414 40.4150162,48.0803475 C40.1053715,47.5428937 40.0784077,46.8796996 40.0784077,46.2741099 C40.0784077,46.2729083 40.0843546,43.4792657 40.0843546,43.4792657 C40.0843546,42.7015693 39.4410072,42.0734326 38.6833846,42.1482831 C38.0869367,42.2065238 37.6238888,42.7263781 37.5410376,43.335007 C37.4300061,44.1511535 37.5165742,45.0598914 37.5837472,45.878017 C37.6588269,46.7924799 37.9801627,48.040413 37.2449086,48.6478404 C36.5782466,49.198582 35.5349021,48.9418001 34.8036351,48.7101805 C34.7553841,48.6949135 34.726528,48.6450131 34.7330156,48.5927097 C34.9131799,47.190976 34.9824478,45.7791351 34.9252088,44.3656685 C34.9016915,43.7852411 34.8284364,43.1730075 34.4954771,42.6874332 C34.2313803,42.3024371 33.8088119,42.1024822 33.3578606,42.1487779 C32.6967401,42.2165604 32.2067283,42.8262495 32.2067283,43.5210378 L32.1963213,47.6786708 C32.1963213,49.2250165 30.5882232,49.0312815 29.8047856,48.8452507 C29.6491523,48.8045388 29.4954112,48.7503976 29.3419404,48.6999318 C29.2973386,48.685301 29.2693611,48.6384399 29.2759838,48.5900238 C29.4025583,47.6699064 29.5615705,46.9221078 29.6132681,46.0364824 C29.7006471,44.5399664 29.7832956,42.3834368 28.040919,41.8960248 C27.9821257,41.8795562 27.9465119,41.8160852 27.9628658,41.7548053 C28.1305957,41.1273755 28.4628116,40.5220685 28.9419432,40.1427268 C29.690713,39.5499304 30.5339576,39.3846089 31.043905,40.3814145 C31.0849252,40.4614954 31.1787241,40.4882833 31.2523171,40.4400086 L31.4903962,40.284017 C32.3909473,39.6761655 34.139406,38.8363411 35.8199482,39.9689944 C36.0201158,40.1039233 36.1607466,40.2551794 36.2742109,40.3789407 C36.3522641,40.4641106 36.4769465,40.479731 36.57257,40.4169668 L36.8371399,40.2433051 C37.7372856,39.6354536 39.6288755,38.8315348 41.2778586,40.0143006 C42.4894736,40.8808422 42.5717842,42.6220538 42.5570521,44.0088032 C42.5521188,44.4695687 42.5356297,44.9224887 42.6332806,45.3761862 C42.7447852,45.8939201 43.0931523,46.2837224 43.5815422,46.3366621 C43.6347941,46.3424579 43.67649,46.3890362 43.6810178,46.4448031 Z" id="Fill-1-Copy-11" fill="#06C3C3"></path>
                    </g>
                </g>
            </g>
            <path d="M59.5,86 L103.5,86" id="Line" stroke="#FAD214" stroke-width="2" stroke-linecap="round" stroke-linejoin="round"></path>
            <path d="M59.5,72 L103.5,72" id="Line" stroke="#FAD214" stroke-width="2" stroke-linecap="round" stroke-linejoin="round"></path>
        </g>
    </g>
</svg>