<?xml version="1.0" encoding="UTF-8"?>
<svg width="190px" height="190px" viewBox="0 0 190 190" version="1.1" xmlns="http://www.w3.org/2000/svg" xmlns:xlink="http://www.w3.org/1999/xlink">
    <!-- Generator: Sketch 46.2 (44496) - http://www.bohemiancoding.com/sketch -->
    <title>icon_money</title>
    <desc>Created with Sketch.</desc>
    <defs>
        <path d="M86.191474,33.7150496 C81.406262,25.2342099 84.7175045,21.6174377 93.5933339,25.6394784 L93.4826836,25.5893378 C96.4977669,26.9556087 100.844702,26.1663234 103.192073,23.8261832 L106.372728,20.655326 C108.719992,18.3152917 112.34067,18.4733828 114.469977,21.0206805 L116.509717,23.4608288 C118.63444,26.0026428 122.802995,26.9547391 125.81616,25.5893378 L125.705509,25.6394784 C134.578656,21.6186535 137.894093,25.231531 133.107369,33.7150496 L127.202918,44.1795187 C125.572335,47.0694049 121.910022,50.7163745 119.010475,52.3481356 C119.010475,52.3481356 118.868921,52.4027292 118.579098,52.6027664 C117.732865,53.1868393 115.457615,54.3239432 110.622826,54.2641502 C104.132187,54.1838788 100.528475,51.8573769 100.528475,51.8573769 C97.50189,50.5068991 93.7314144,47.0780993 92.0959251,44.1795187 L86.191474,33.7150496 Z" id="path-1"></path>
        <filter x="-5.8%" y="-8.5%" width="111.7%" height="117.0%" filterUnits="objectBoundingBox" id="filter-2">
            <feOffset dx="0" dy="-5" in="SourceAlpha" result="shadowOffsetInner1"></feOffset>
            <feComposite in="shadowOffsetInner1" in2="SourceAlpha" operator="arithmetic" k2="-1" k3="1" result="shadowInnerInner1"></feComposite>
            <feColorMatrix values="0 0 0 0 0.936277636   0 0 0 0 0.936277636   0 0 0 0 0.936277636  0 0 0 1 0" type="matrix" in="shadowInnerInner1"></feColorMatrix>
        </filter>
        <ellipse id="path-3" cx="54.2930576" cy="156.817484" rx="18.1441214" ry="9.78169173"></ellipse>
        <ellipse id="path-4" cx="54.2930576" cy="149.054237" rx="18.1441214" ry="9.78169173"></ellipse>
        <ellipse id="path-5" cx="54.2930576" cy="141.29099" rx="18.1441214" ry="9.78169173"></ellipse>
        <ellipse id="path-6" cx="54.2930576" cy="133.527742" rx="18.1441214" ry="9.78169173"></ellipse>
        <ellipse id="path-7" cx="54.2930576" cy="125.764495" rx="18.1441214" ry="9.78169173"></ellipse>
        <ellipse id="path-8" cx="54.2930576" cy="118.001247" rx="18.1441214" ry="9.78169173"></ellipse>
        <ellipse id="path-9" cx="89.4094128" cy="160.86143" rx="14.3243064" ry="8.00320232"></ellipse>
        <ellipse id="path-10" cx="89.4094128" cy="154.068589" rx="14.3243064" ry="8.00320232"></ellipse>
        <ellipse id="path-11" cx="19.3243064" cy="168.624678" rx="14.3243064" ry="8.00320232"></ellipse>
    </defs>
    <g id="Symbols" stroke="none" stroke-width="1" fill="none" fill-rule="evenodd">
        <g id="icon_money">
            <path d="M107.281672,164.307761 C108.390786,164.31914 109.532167,164.324991 110.705815,164.324991 C153.394215,164.324991 188,160.701338 188,156.231336 C188,154.037033 175.59342,150.406114 162.099386,148.967168 C159.352907,148.674296 155.211883,147.601666 152.470745,147.520996 C149.729606,147.440325 149.548977,150.107614 146.143617,150.565778 C139.513436,151.457816 122.141054,156.585074 110.705815,156.585074 C109.551898,156.585074 108.429173,156.590729 107.33764,156.601734 C107.152618,157.473926 106.900233,158.382052 107.207447,158.680664 C108.298907,159.741562 106.962014,159.922899 107.207447,161.087529 C107.43345,162.159963 107.454157,163.238677 107.281672,164.307761 Z" id="Combined-Shape" fill="#EFEFEF" opacity="0.7"></path>
            <path d="M169.018617,144.124575 C169.018617,148.006199 165.140692,150.263735 161.362649,149.90798 L150.547446,149.05521 C149.996866,149.011797 149.155715,149.175429 148.648505,149.421715 C148.648505,149.421715 132.827836,157.710258 113.358126,157.710258 C111.170153,157.710258 110.928211,157.57482 108.766488,157.334384" id="Rectangle-25-Copy-2" stroke="#EFEFEF" stroke-width="3" stroke-linecap="round" stroke-linejoin="round"></path>
            <path d="M109.154255,159.165867 C105.366188,159.165867 109.154255,159.165867 109.154255,159.165867 C106.498659,159.582709 106.936551,160.205689 110.157194,160.463318 C110.157194,160.463318 109.665844,160.621476 114.763058,160.621476 C135.597427,160.621476 149.802679,156.416383 149.802679,156.416383 C150.911683,156.416383 153.590746,157.117232 162.113897,157.117232 C170.637048,157.117232 176.805851,155.047925 176.805851,152.858228 C176.805851,151.310191 172.906473,149.993614 168.471259,149.006102 C166.397534,148.544381 166.536371,150.950638 165.125,151.402619 C163.713629,151.854601 159.384867,151.436726 158.797872,151.402619 C147.722143,150.759078 156.88745,150.288388 152.643729,150.108745 C149.173926,149.961863 144.296954,152.722522 138.843085,154.79904 C133.389216,156.875558 123.377746,159.920627 117.914894,159.920627" id="Oval-10-Copy-45" fill="#E1DFDF"></path>
            <path d="M125.806497,50.5236266 C131.9215,53.5564955 143.587285,63.9535202 148.297341,69.5881776 C158.031384,81.2330487 163.79168,96.1273687 164.890838,108.92371 L166.792022,132.997994 L169.530421,140.533395 C172.095167,147.590947 168.118008,152.741938 160.596161,152.033651 L150.173976,151.052256 C150.173976,151.052256 134.008156,159.835929 114.538446,159.835929 C112.350474,159.835929 110.161723,159.700491 108,159.460055 M53.1073362,106.929482 C57.0009533,92.3733927 61.7606383,81.964322 70.5212766,71.2898568 C73.8919944,67.1827805 88.3344775,55.9589745 94.5657706,52.5236266" id="Rectangle-25" stroke="#1A2020" stroke-linecap="round" stroke-linejoin="round"></path>
            <g id="Rectangle-26" stroke-linecap="round" stroke-linejoin="round">
                <use fill="#FFFFFF" fill-rule="evenodd" xlink:href="#path-1"></use>
                <use fill="black" fill-opacity="1" filter="url(#filter-2)" xlink:href="#path-1"></use>
                <use stroke="#1A2020" stroke-width="1" xlink:href="#path-1"></use>
            </g>
            <path d="M125.125854,90.752249 L119.861702,90.752249 C110.184968,90.752249 102.340426,98.5726285 102.340426,108.219556 C102.340426,117.866483 110.184968,125.686862 119.861702,125.686862 L125.125854,125.686862" id="Oval-5-Copy" stroke="#06C3C3" stroke-width="3" stroke-linecap="round" stroke-linejoin="round"></path>
            <ellipse id="Oval-10-Copy-36" fill="#1A2020" cx="89.4094128" cy="164.743054" rx="14.3243064" ry="8.00320232"></ellipse>
            <ellipse id="Oval-10-Copy-44" fill="#1A2020" cx="19.3243064" cy="172.506302" rx="14.3243064" ry="8.00320232"></ellipse>
            <ellipse id="Oval-10-Copy-43" fill="#1A2020" cx="54.2930576" cy="160.699108" rx="18.1441214" ry="9.78169173"></ellipse>
            <ellipse id="Oval-10-Copy-36" fill="#E1DFDF" cx="89.4094128" cy="164.743054" rx="14.3243064" ry="8.00320232"></ellipse>
            <ellipse id="Oval-10-Copy-44" fill="#E1DFDF" cx="19.3243064" cy="172.506302" rx="14.3243064" ry="8.00320232"></ellipse>
            <ellipse id="Oval-10-Copy-43" fill="#E1DFDF" cx="54.2930576" cy="160.699108" rx="18.1441214" ry="9.78169173"></ellipse>
            <g id="Oval-10-Copy-31">
                <use fill="#FAD214" fill-rule="evenodd" xlink:href="#path-3"></use>
                <ellipse stroke="#FFFFFF" stroke-width="2" cx="54.2930576" cy="156.817484" rx="17.1441214" ry="8.78169173"></ellipse>
            </g>
            <g id="Oval-10-Copy-32">
                <use fill="#FAD214" fill-rule="evenodd" xlink:href="#path-4"></use>
                <ellipse stroke="#FFFFFF" stroke-width="2" cx="54.2930576" cy="149.054237" rx="17.1441214" ry="8.78169173"></ellipse>
            </g>
            <g id="Oval-10-Copy-33">
                <use fill="#FAD214" fill-rule="evenodd" xlink:href="#path-5"></use>
                <ellipse stroke="#FFFFFF" stroke-width="2" cx="54.2930576" cy="141.29099" rx="17.1441214" ry="8.78169173"></ellipse>
            </g>
            <g id="Oval-10-Copy-34">
                <use fill="#FAD214" fill-rule="evenodd" xlink:href="#path-6"></use>
                <ellipse stroke="#FFFFFF" stroke-width="2" cx="54.2930576" cy="133.527742" rx="17.1441214" ry="8.78169173"></ellipse>
            </g>
            <g id="Oval-10-Copy-35">
                <use fill="#FAD214" fill-rule="evenodd" xlink:href="#path-7"></use>
                <ellipse stroke="#FFFFFF" stroke-width="2" cx="54.2930576" cy="125.764495" rx="17.1441214" ry="8.78169173"></ellipse>
            </g>
            <g id="Oval-10-Copy-36">
                <use fill="#FAD214" fill-rule="evenodd" xlink:href="#path-8"></use>
                <ellipse stroke="#FFFFFF" stroke-width="2" cx="54.2930576" cy="118.001247" rx="17.1441214" ry="8.78169173"></ellipse>
            </g>
            <g id="Oval-10-Copy-36">
                <use fill="#FAD214" fill-rule="evenodd" xlink:href="#path-9"></use>
                <ellipse stroke="#FFFFFF" stroke-width="2" cx="89.4094128" cy="160.86143" rx="13.3243064" ry="7.00320232"></ellipse>
            </g>
            <g id="Oval-10-Copy-36">
                <use fill="#FAD214" fill-rule="evenodd" xlink:href="#path-10"></use>
                <ellipse stroke="#FFFFFF" stroke-width="2" cx="89.4094128" cy="154.068589" rx="13.3243064" ry="7.00320232"></ellipse>
            </g>
            <g id="Oval-10-Copy-36">
                <use fill="#FAD214" fill-rule="evenodd" xlink:href="#path-11"></use>
                <ellipse stroke="#FFFFFF" stroke-width="2" cx="19.3243064" cy="168.624678" rx="13.3243064" ry="7.00320232"></ellipse>
            </g>
            <path d="M95.5265957,104.5 L121.82653,104.5" id="Line" stroke="#06C3C3" stroke-width="3" stroke-linecap="round" stroke-linejoin="round"></path>
            <path d="M95.5265957,112.5 L121.82653,112.5" id="Line-Copy-2" stroke="#06C3C3" stroke-width="3" stroke-linecap="round" stroke-linejoin="round"></path>
        </g>
    </g>
</svg>