<?xml version="1.0" encoding="UTF-8"?>
<svg width="155px" height="161px" viewBox="0 0 155 161" version="1.1" xmlns="http://www.w3.org/2000/svg" xmlns:xlink="http://www.w3.org/1999/xlink">
    <!-- Generator: Sketch 40.3 (33839) - http://www.bohemiancoding.com/sketch -->
    <title>Group 20</title>
    <desc>Created with Sketch.</desc>
    <defs>
        <rect id="path-1" x="6" y="17" width="140" height="100" rx="4"></rect>
        <mask id="mask-2" maskContentUnits="userSpaceOnUse" maskUnits="objectBoundingBox" x="0" y="0" width="140" height="100" fill="white">
            <use xlink:href="#path-1"></use>
        </mask>
        <rect id="path-3" x="26" y="109" width="100" height="16" rx="2"></rect>
        <filter x="-50%" y="-50%" width="200%" height="200%" filterUnits="objectBoundingBox" id="filter-4">
            <feOffset dx="0" dy="-6" in="SourceAlpha" result="shadowOffsetInner1"></feOffset>
            <feComposite in="shadowOffsetInner1" in2="SourceAlpha" operator="arithmetic" k2="-1" k3="1" result="shadowInnerInner1"></feComposite>
            <feColorMatrix values="0 0 0 0 0.894372993   0 0 0 0 0.875414299   0 0 0 0 1  0 0 0 1 0" type="matrix" in="shadowInnerInner1"></feColorMatrix>
        </filter>
        <mask id="mask-5" maskContentUnits="userSpaceOnUse" maskUnits="objectBoundingBox" x="0" y="0" width="100" height="16" fill="white">
            <use xlink:href="#path-3"></use>
        </mask>
        <path d="M44,123 L60,123 L45.7888304,151.422339 C44.8008866,153.398227 42.2111696,155 40.0037973,155 L36,155 C31.581722,155 29.6000102,151.79998 31.5807505,147.838499 L44,123 Z" id="path-6"></path>
        <filter x="-50%" y="-50%" width="200%" height="200%" filterUnits="objectBoundingBox" id="filter-7">
            <feOffset dx="0" dy="-6" in="SourceAlpha" result="shadowOffsetInner1"></feOffset>
            <feComposite in="shadowOffsetInner1" in2="SourceAlpha" operator="arithmetic" k2="-1" k3="1" result="shadowInnerInner1"></feComposite>
            <feColorMatrix values="0 0 0 0 0.894372993   0 0 0 0 0.875414299   0 0 0 0 1  0 0 0 1 0" type="matrix" in="shadowInnerInner1" result="shadowMatrixInner1"></feColorMatrix>
            <feOffset dx="0" dy="4" in="SourceAlpha" result="shadowOffsetInner2"></feOffset>
            <feComposite in="shadowOffsetInner2" in2="SourceAlpha" operator="arithmetic" k2="-1" k3="1" result="shadowInnerInner2"></feComposite>
            <feColorMatrix values="0 0 0 0 0.773764848   0 0 0 0 0.732481061   0 0 0 0 1  0 0 0 1 0" type="matrix" in="shadowInnerInner2" result="shadowMatrixInner2"></feColorMatrix>
            <feMerge>
                <feMergeNode in="shadowMatrixInner1"></feMergeNode>
                <feMergeNode in="shadowMatrixInner2"></feMergeNode>
            </feMerge>
        </filter>
        <mask id="mask-8" maskContentUnits="userSpaceOnUse" maskUnits="objectBoundingBox" x="0" y="0" width="29.1883975" height="32" fill="white">
            <use xlink:href="#path-6"></use>
        </mask>
        <path d="M107.497615,123 L121.939549,123 L107.221773,151.453175 C106.208528,153.412032 103.596257,155 101.386007,155 L96.9494229,155 C92.5288111,155 90.7409382,151.90263 92.9593699,148.076184 L107.497615,123 Z" id="path-9"></path>
        <filter x="-50%" y="-50%" width="200%" height="200%" filterUnits="objectBoundingBox" id="filter-10">
            <feOffset dx="0" dy="-6" in="SourceAlpha" result="shadowOffsetInner1"></feOffset>
            <feComposite in="shadowOffsetInner1" in2="SourceAlpha" operator="arithmetic" k2="-1" k3="1" result="shadowInnerInner1"></feComposite>
            <feColorMatrix values="0 0 0 0 0.894372993   0 0 0 0 0.875414299   0 0 0 0 1  0 0 0 1 0" type="matrix" in="shadowInnerInner1" result="shadowMatrixInner1"></feColorMatrix>
            <feOffset dx="0" dy="4" in="SourceAlpha" result="shadowOffsetInner2"></feOffset>
            <feComposite in="shadowOffsetInner2" in2="SourceAlpha" operator="arithmetic" k2="-1" k3="1" result="shadowInnerInner2"></feComposite>
            <feColorMatrix values="0 0 0 0 0.773764848   0 0 0 0 0.732481061   0 0 0 0 1  0 0 0 1 0" type="matrix" in="shadowInnerInner2" result="shadowMatrixInner2"></feColorMatrix>
            <feMerge>
                <feMergeNode in="shadowMatrixInner1"></feMergeNode>
                <feMergeNode in="shadowMatrixInner2"></feMergeNode>
            </feMerge>
        </filter>
        <mask id="mask-11" maskContentUnits="userSpaceOnUse" maskUnits="objectBoundingBox" x="0" y="0" width="29.9395491" height="32" fill="white">
            <use xlink:href="#path-9"></use>
        </mask>
        <path d="M70,6 C70,2.6862915 72.6827759,0 75.9981851,0 L78.0018149,0 C81.314521,0 84,2.69303423 84,6 L84,12 L70,12 L70,6 Z" id="path-12"></path>
        <filter x="-50%" y="-50%" width="200%" height="200%" filterUnits="objectBoundingBox" id="filter-13">
            <feOffset dx="0" dy="-6" in="SourceAlpha" result="shadowOffsetInner1"></feOffset>
            <feComposite in="shadowOffsetInner1" in2="SourceAlpha" operator="arithmetic" k2="-1" k3="1" result="shadowInnerInner1"></feComposite>
            <feColorMatrix values="0 0 0 0 0.894372993   0 0 0 0 0.875414299   0 0 0 0 1  0 0 0 1 0" type="matrix" in="shadowInnerInner1"></feColorMatrix>
        </filter>
        <mask id="mask-14" maskContentUnits="userSpaceOnUse" maskUnits="objectBoundingBox" x="0" y="0" width="14" height="12" fill="white">
            <use xlink:href="#path-12"></use>
        </mask>
    </defs>
    <g id="Home" stroke="none" stroke-width="1" fill="none" fill-rule="evenodd">
        <g id="Icons-insurance" transform="translate(-973.000000, -115.000000)">
            <g id="Group-20" transform="translate(974.000000, 115.000000)">
                <ellipse id="Oval-15-Copy-3" fill="#E4E0FF" opacity="0.5" cx="78" cy="155" rx="76" ry="6"></ellipse>
                <use id="Rectangle-38" stroke="#E4E0FF" mask="url(#mask-2)" stroke-width="4" stroke-linecap="round" stroke-linejoin="round" xlink:href="#path-1"></use>
                <ellipse id="Oval-15" fill="#C6BBFF" cx="115" cy="154" rx="15" ry="3"></ellipse>
                <ellipse id="Oval-15-Copy-4" fill="#C6BBFF" cx="37" cy="154" rx="15" ry="3"></ellipse>
                <g id="Group-25">
                    <path d="M22,123 L8.00473896,123 C3.5838437,123 0,119.40041 0,114.990183 L0,19.0098166 C0,14.586117 3.57036616,11 8.01143688,11 L143.988563,11 C148.413158,11 152,14.5995901 152,19.0098166 L152,114.990183 C152,119.413883 148.432343,123 143.999958,123 L130.098145,123" id="Rectangle-14" stroke="#765DFF" stroke-width="2" stroke-linecap="round" stroke-linejoin="round"></path>
                    <g id="Rectangle-21">
                        <use fill="#FFFFFF" fill-rule="evenodd" xlink:href="#path-3"></use>
                        <use fill="black" fill-opacity="1" filter="url(#filter-4)" xlink:href="#path-3"></use>
                        <use stroke="#765DFF" mask="url(#mask-5)" stroke-width="4" stroke-linecap="round" stroke-linejoin="round" xlink:href="#path-3"></use>
                    </g>
                    <path d="M123.650814,61.9055576 C124.263093,61.2932779 124.961464,60.9393091 125.745948,60.8436404 C126.530431,60.7479717 127.247935,60.8532057 127.898482,61.1593455 C128.54903,61.4654853 129.056066,61.9533883 129.419607,62.6230692 C129.783148,63.29275 129.869249,64.0867882 129.677911,65.0052077 C129.448306,65.9236271 129.008237,66.7750657 128.35769,67.5595489 C127.707143,68.3440322 127.056605,69.0615366 126.406058,69.7120837 C124.913627,71.2810503 123.258583,72.4386241 121.440878,73.1848399 C119.623173,73.9310557 117.786362,74.2850245 115.930389,74.246757 C114.074416,74.2084896 112.256738,73.7684202 110.477301,72.9265357 C108.697863,72.0846512 107.10022,70.8218434 105.684323,69.1380745 C104.842439,68.1431201 104.134501,67.0907803 103.560489,65.9810234 C102.986477,64.8712666 102.546407,63.7041261 102.240268,62.4795668 C101.781058,60.6809954 101.57059,58.8059172 101.608857,56.8542759 C101.647125,54.9026346 101.95326,53.0084229 102.527272,51.171584 C103.101284,49.3347452 103.914456,47.6031678 104.966812,45.9768001 C106.019167,44.3504323 107.310675,42.9632571 108.841374,41.8152328 C109.951131,40.9733483 111.070438,40.2462772 112.199329,39.6339976 C113.328219,39.0217179 114.52406,38.4477144 115.786887,37.9119697 C116.513969,37.6058299 117.260173,37.3092614 118.025523,37.0222553 C118.790872,36.7352493 119.575344,36.5152146 120.378961,36.3621447 C121.182578,36.2090748 121.986183,36.1516744 122.7898,36.1899419 C123.593417,36.2282094 124.377888,36.4004104 125.143238,36.7065502 C125.678983,36.9361551 126.214719,37.251857 126.750464,37.6536655 C127.286209,38.055474 127.783678,38.5146769 128.242888,39.0312878 C128.702098,39.5478987 129.1039,40.0932021 129.448307,40.6672143 C129.792715,41.2412264 130.04145,41.7960965 130.19452,42.3318412 C130.309322,42.8293184 130.338022,43.3363548 130.280621,43.8529657 C130.22322,44.3695767 130.070152,44.8383462 129.821414,45.2592885 C129.572675,45.6802307 129.23784,46.0341996 128.816897,46.3212056 C128.395955,46.6082117 127.917619,46.7899795 127.381874,46.8665145 C126.501722,46.9813169 125.822485,46.8856496 125.344141,46.5795098 C124.865798,46.27337 124.483129,45.890701 124.196123,45.4314913 C123.909117,44.9722815 123.631681,44.5226454 123.363809,44.0825695 C123.095937,43.6424935 122.713268,43.3267915 122.215791,43.1354542 C121.909651,43.1354542 121.680049,43.1545876 121.526979,43.1928551 C120.225885,43.5372624 118.915244,44.0060319 117.595016,44.5991778 C116.274788,45.1923237 115.050247,45.9098281 113.921356,46.7517126 C112.792466,47.5935971 111.807093,48.5694031 110.965209,49.6791599 C110.123324,50.7889167 109.511054,52.0325911 109.128379,53.4102202 C108.669169,55.0557217 108.496968,56.720332 108.611771,58.404101 C108.726573,60.0878699 109.185776,61.6759464 109.989393,63.168378 C110.448603,64.0485299 111.060873,64.813868 111.826223,65.4644151 C112.591572,66.1149622 113.433444,66.6028652 114.351863,66.9281387 C115.270283,67.2534123 116.207822,67.368213 117.164509,67.2725443 C118.121196,67.1768756 119.039601,66.8420402 119.919753,66.2680281 C120.685103,65.7322834 121.373907,65.0721793 121.986187,64.2876961 C122.598466,63.5032128 123.153337,62.7091746 123.650814,61.9055576 Z" id="C" fill="#F478A2" transform="translate(115.956882, 55.214009) rotate(5.000000) translate(-115.956882, -55.214009) "></path>
                    <path d="M71.9740031,94.8119469 C70.2484139,94.611297 69.1950177,94.0394533 68.8137829,93.0963988 C68.4325481,92.1533442 68.4225157,91.1200127 68.7836855,89.9963733 L68.7836855,65.5573371 C68.1416058,65.5573371 67.5697622,65.3867872 67.0681374,65.0456824 C66.5665127,64.7045776 66.1652189,64.2731867 65.864244,63.751497 C65.5632692,63.2298072 65.412784,62.6579636 65.412784,62.0359489 C65.412784,61.4139342 65.5933662,60.8420905 65.954536,60.3204008 C66.7571356,59.1165013 67.7904672,58.1734609 69.0545616,57.4912513 C70.318656,56.8090416 71.6328931,56.2472303 72.9973125,55.8058005 C75.1242014,55.1235908 77.2610909,54.7423617 79.4080449,54.6621018 C81.5549988,54.5818418 83.6718236,55.023265 85.7585826,55.9863845 C87.6446917,56.8692441 89.1294787,58.0129314 90.2129882,59.4174807 C91.2964977,60.8220301 91.9786971,62.3168494 92.259607,63.9019837 C92.5405168,65.4871179 92.400064,67.1123578 91.8382443,68.777752 C91.2764245,70.4431462 90.2731901,71.9981596 88.8285108,73.4428389 C90.7146199,74.6467383 92.0589541,76.0813636 92.8615537,77.7467578 C93.6641533,79.412152 93.9952207,81.127683 93.8547657,82.8934022 C93.7143108,84.6591213 93.1524995,86.3646199 92.169315,88.0099491 C91.1861304,89.6552783 89.8518286,91.0798713 88.1663694,92.2837707 C87.1631199,93.0061104 85.9893355,93.5578893 84.6449812,93.9391242 C83.3006268,94.320359 81.9161632,94.5912323 80.4915489,94.7517522 C79.0669346,94.9122721 77.652374,94.9925309 76.2478247,94.9925309 C74.8432753,94.9925309 73.5591352,94.9524015 72.3953658,94.8721416 L71.9740031,94.8119469 Z M84.7954678,79.5225006 C84.0731282,79.0409408 83.3708641,78.6797764 82.6886544,78.4389965 C82.0064447,78.1982167 81.3142129,78.0376991 80.6119383,77.9574392 C79.9096636,77.8771792 79.1973671,77.8571145 78.4750275,77.8972445 C77.7526878,77.9373745 76.9701649,77.9775039 76.1274353,78.0176339 L76.1274353,87.6487811 C77.0102949,87.6487811 77.9533353,87.6186841 78.9565848,87.5584891 C79.9598343,87.4982941 80.9229394,87.3377766 81.845929,87.0769317 C82.7689186,86.8160869 83.6317002,86.4448901 84.4342998,85.9633303 C85.2368994,85.4817706 85.8789695,84.8196358 86.3605293,83.9769062 C86.4809192,83.0137867 86.4608545,82.1811021 86.3003346,81.4788274 C86.1398147,80.7765527 85.6381974,80.1244503 84.7954678,79.5225006 Z M76.1274353,70.2525214 L78.2944435,70.2525214 C79.0167831,70.2525214 79.7290796,70.182295 80.4313542,70.04184 C81.1336289,69.9013851 81.8158284,69.6706412 82.477973,69.3496013 C83.1401177,69.0285615 83.7320261,68.5670736 84.2537158,67.9651239 C85.0161855,67.1223943 85.2870588,66.2295156 85.0663439,65.2864611 C84.845629,64.3434065 84.2737853,63.5909807 83.3507958,63.0291609 C82.3074163,62.3469513 81.1235996,61.9958192 79.7993102,61.9757542 C78.4750208,61.9556892 77.2510748,62.1061744 76.1274353,62.4272142 L76.1274353,70.2525214 Z" id="B" fill="#FAD214" transform="translate(79.649464, 74.822686) rotate(14.000000) translate(-79.649464, -74.822686) "></path>
                    <g id="Rectangle-24">
                        <use fill="black" fill-opacity="1" filter="url(#filter-7)" xlink:href="#path-6"></use>
                        <use stroke="#765DFF" mask="url(#mask-8)" stroke-width="4" stroke-linecap="round" stroke-linejoin="round" xlink:href="#path-6"></use>
                    </g>
                    <g id="Rectangle-24-Copy" transform="translate(106.969775, 139.000000) scale(-1, 1) translate(-106.969775, -139.000000) ">
                        <use fill="black" fill-opacity="1" filter="url(#filter-10)" xlink:href="#path-9"></use>
                        <use stroke="#765DFF" mask="url(#mask-11)" stroke-width="4" stroke-linecap="round" stroke-linejoin="round" xlink:href="#path-9"></use>
                    </g>
                    <g id="Rectangle-24-Copy-2" transform="translate(77.000000, 6.000000) scale(-1, 1) translate(-77.000000, -6.000000) ">
                        <use fill="black" fill-opacity="1" filter="url(#filter-13)" xlink:href="#path-12"></use>
                        <use stroke="#765DFF" mask="url(#mask-14)" stroke-width="4" stroke-linecap="round" stroke-linejoin="round" xlink:href="#path-12"></use>
                    </g>
                    <path d="M54.9631833,74.543608 C54.8418147,75.4336441 54.5383979,76.1921861 54.0529237,76.819257 C53.5674495,77.4463279 53.0111853,77.8812253 52.3841144,78.1239624 C51.7570436,78.3666995 51.0895265,78.3970412 50.3815433,78.2149884 C49.6735601,78.0329356 49.0161569,77.5575825 48.4093142,76.788915 C47.8833838,76.1416161 47.5900808,75.4235295 47.5293965,74.6346339 C47.4687123,73.8457383 47.3574594,73.0669685 47.1956347,72.298301 C46.7910728,70.0732108 46.204467,67.7874707 45.4357994,65.4410119 C42.927516,65.4814681 40.439498,65.5016959 37.9716707,65.5016959 C35.5038434,65.5016959 33.0360532,65.5219237 30.5682259,65.5623799 C30.2041202,66.6142407 29.8905895,67.6863135 29.6276243,68.7786305 C29.3646591,69.8709475 29.1118118,70.9430203 28.8690746,71.9948811 C28.6667937,72.8040048 28.4847436,73.643458 28.3229189,74.513266 C28.1610941,75.383074 27.7969939,76.1416161 27.2306074,76.788915 C26.5428522,77.5980387 25.8045379,78.053164 25.0156423,78.1543044 C24.2267467,78.2554449 23.5187741,78.1239643 22.8917032,77.7598586 C22.2646324,77.3957529 21.7589377,76.8394887 21.3746039,76.0910493 C20.9902702,75.3426099 20.8587895,74.4829289 20.9801581,73.5119804 C21.1015266,72.2578387 21.3442601,71.0239436 21.7083658,69.810258 C22.0724714,68.5965725 22.4163438,67.3829052 22.7399933,66.1692196 C24.5605216,59.2107559 26.9069451,52.4749022 29.7793343,45.9614564 C30.0220714,45.3950698 30.2749187,44.8489195 30.5378839,44.3229891 C30.8008491,43.7970587 31.0536965,43.2711362 31.2964336,42.7452058 C31.5796269,42.1788192 31.8628159,41.5719856 32.1460092,40.9246866 C32.4292025,40.2773877 32.762961,39.6806679 33.1472948,39.1345094 C33.5316285,38.5883509 33.9867538,38.1231117 34.5126842,37.738778 C35.0386146,37.3544442 35.6859038,37.1622802 36.4545714,37.1622802 C37.465976,37.1622802 38.3155431,37.4859249 39.0032982,38.1332238 C41.7543188,40.8842444 44.0198312,43.98921 45.7999033,47.4482138 C47.5799754,50.9072176 49.1779707,54.4369667 50.5939372,58.0375672 C51.4435171,57.997111 52.2728564,57.997111 53.0819801,58.0375672 C53.8911038,58.0780233 54.6193042,58.4421236 55.2666032,59.1298787 C55.8329898,59.6962653 56.1667483,60.3030989 56.2678887,60.9503979 C56.3690292,61.5976969 56.3083458,62.2247583 56.0858368,62.8316011 C55.8633278,63.4384439 55.4992276,63.9643664 54.9935253,64.4093844 C54.487823,64.8544024 53.8708754,65.1578193 53.1426641,65.319644 C53.5472259,66.7356105 53.9012122,68.1818974 54.2046336,69.6585481 C54.508055,71.1351989 54.7609024,72.6219413 54.9631833,74.1188202 L54.9631833,74.543608 Z M42.5836527,58.0375672 C41.8149852,56.2170389 40.9957597,54.4066517 40.1259518,52.6063515 C39.2561438,50.8060513 38.275096,49.0968031 37.182779,47.4785558 C36.3736553,49.2586279 35.6151133,51.0285594 34.90713,52.7884034 C34.1991468,54.5482475 33.5417437,56.3384068 32.9349009,58.1589351 C34.8363416,58.1184789 36.5051341,58.0982511 37.9413287,58.0982511 C39.3775233,58.0982511 40.9249491,58.0780233 42.5836527,58.0375672 Z" id="A" fill="#765DFF" transform="translate(38.625882, 57.747151) rotate(-11.000000) translate(-38.625882, -57.747151) "></path>
                </g>
            </g>
        </g>
    </g>
</svg>