<?xml version="1.0" encoding="UTF-8"?>
<svg width="190px" height="190px" viewBox="0 0 190 190" version="1.1" xmlns="http://www.w3.org/2000/svg" xmlns:xlink="http://www.w3.org/1999/xlink">
    <!-- Generator: Sketch 46.2 (44496) - http://www.bohemiancoding.com/sketch -->
    <title>icon_trust</title>
    <desc>Created with Sketch.</desc>
    <defs>
        <path d="M23.5917911,0.622457914 L9.92376654,14.7484847 L3.51135229,8.1216952 C2.70723012,7.29068846 1.406443,7.29068846 0.602320585,8.1216952 C-0.200773528,8.9516366 -0.200773528,10.296974 0.602320585,11.1269154 L8.45536911,19.2414379 C8.85742896,19.6569404 9.38288473,19.8641604 9.90937039,19.8641604 C10.4615612,19.8662857 10.9880444,19.6590657 11.3901067,19.2435631 L26.4997813,3.62767814 C27.3028908,2.79773425 27.3028908,1.45239932 26.4997813,0.622457914 C25.6966964,-0.207485971 24.3948833,-0.207485971 23.5917911,0.622457914 Z" id="path-1"></path>
    </defs>
    <g id="Symbols" stroke="none" stroke-width="1" fill="none" fill-rule="evenodd">
        <g id="icon_trust">
            <path d="M36.4188943,82.4925838 C38.2747107,94.5463346 42.118795,106.058235 48.0547184,116.833101 C57.7236858,134.3845 71.8521894,147.583615 89.8183041,156.883443 C99.3602972,161.823704 97.1713601,161.813508 106.000803,156.310519 C124.143686,145.003512 138.393687,130.158453 147.86796,111.197077 C157.552862,91.8152322 161.462674,71.1540178 161.740026,49.7363487 C161.792309,45.6613012 161.308811,45.2461736 157.129116,44.8995057 C153.339805,44.5853682 149.533066,44.3362917 145.777615,43.7793896 C130.035791,41.442537 115.589603,35.7696125 102.509757,26.9863872 C99.369758,24.8782189 97.1534343,24.9427943 94.125471,26.9698792 C82.3611789,34.8480778 69.317683,39.928171 55.3714249,42.6738393 C49.5505253,43.8206596 43.5931905,44.3212403 37.6896331,45.0495342 C35.411565,45.3306557 34.2663067,46.0657471 34.2503727,48.7026568 C34.2289613,52.1698216 35.1322216,74.1356533 36.4188943,82.4925838 Z" id="Page-1" fill="#FFFFFF"></path>
            <path d="M95,162.040217 C96.9013816,162.057894 98.5955481,160.629572 103.369307,157.669893 C122.33939,145.907951 137.239099,130.465098 147.145339,110.741318 C149.576213,105.90179 151.655133,100.984987 153.421148,96 L95,96 L95,162.040217 Z" id="Fill-4" stroke="#FFFFFF" stroke-width="6" fill="#FAD214"></path>
            <g id="Group-14" transform="translate(54.000000, 159.000000)">
                <ellipse id="Oval-14-Copy-3" fill="#EFEFEF" opacity="0.7" cx="43.5" cy="6" rx="43.5" ry="6"></ellipse>
                <ellipse id="Oval-14-Copy-3" fill="#E1DFDF" cx="44" cy="4.5" rx="31" ry="3.5"></ellipse>
            </g>
            <g id="Group-24" transform="translate(34.000000, 25.000000)" stroke="#1A2020">
                <g id="Group-13">
                    <path d="M2.41889433,57.4925838 C4.27471067,69.5463346 8.11879496,81.0582346 14.0547184,91.8331011 C23.7236858,109.3845 37.8521894,122.583615 55.8183041,131.883443 C65.3602972,136.823704 63.1713601,136.813508 72.0008034,131.310519 C90.1436862,120.003512 104.393687,105.158453 113.86796,86.1970769 C123.552862,66.8152322 127.462674,46.1540178 127.740026,24.7363487 C127.792309,20.6613012 127.308811,20.2461736 123.129116,19.8995057 C119.339805,19.5853682 115.533066,19.3362917 111.777615,18.7793896 C96.0357911,16.442537 81.5896028,10.7696125 68.5097575,1.98638719 C65.369758,-0.121781086 63.1534343,-0.0572056876 60.125471,1.9698792 C48.3611789,9.84807784 35.317683,14.928171 21.3714249,17.6738393 C15.5505253,18.8206596 9.5931905,19.3212403 3.68963307,20.0495342 C1.41156499,20.3306557 0.266306717,21.0657471 0.250372689,23.7026568 C0.228961339,27.1698216 1.13222156,49.1356533 2.41889433,57.4925838 Z" id="Page-1"></path>
                </g>
            </g>
            <path d="M97.5,25.1416435 C96.2958566,25.2158886 95.0912262,25.738079 93.7147145,26.6988103 C82.2103486,34.7301478 69.4555822,39.9089895 55.818037,42.7080289 C50.1259881,43.8771414 44.3010112,44.3874525 38.5276474,45.1299033 C36.3004933,45.4164893 35.1805864,46.1658696 35.1645181,48.8535414 C35.1440677,52.3881021 36.0273334,74.7814074 37.2855245,83.3007826 C38.0290454,88.3375686 39.1051299,93.279321 40.5093958,98.1171302 L97.5,98.1171302 L97.5,25.1416435 Z" id="Fill-1" stroke="#FFFFFF" fill="#FAD214" opacity="0.184386322"></path>
            <g id="Group-23" transform="translate(128.000000, 76.000000)">
                <g id="Group-34">
                    <g id="Group-26" stroke-linecap="round" stroke-width="3" stroke="#FFFFFF" fill="#06C3C3" stroke-linejoin="round">
                        <g id="Group-16">
                            <ellipse id="Oval-18-Copy-2" cx="23.5046305" cy="23.5" rx="23.5046305" ry="23.5"></ellipse>
                        </g>
                    </g>
                    <g id="Page-1" transform="translate(11.000000, 14.000000)">
                        <mask id="mask-2" fill="white">
                            <use xlink:href="#path-1"></use>
                        </mask>
                        <g id="Clip-2"></g>
                        <polygon id="Fill-1" fill="#FFFFFF" mask="url(#mask-2)" points="-12.1959511 32.1936655 39.2980645 32.1936655 39.2980645 -12.3294889 -12.1959511 -12.3294889"></polygon>
                    </g>
                </g>
            </g>
        </g>
    </g>
</svg>