<?xml version="1.0" encoding="UTF-8"?>
<svg width="253px" height="66px" viewBox="0 0 253 66" version="1.1" xmlns="http://www.w3.org/2000/svg" xmlns:xlink="http://www.w3.org/1999/xlink">
    <!-- Generator: Sketch 41.2 (35397) - http://www.bohemiancoding.com/sketch -->
    <title>Group 60 Copy</title>
    <desc>Created with Sketch.</desc>
    <defs>
        <linearGradient x1="50%" y1="3.12250226e-15%" x2="50%" y2="104.486374%" id="linearGradient-1">
            <stop stop-color="#533FC7" offset="0%"></stop>
            <stop stop-color="#765DFF" offset="100%"></stop>
        </linearGradient>
        <path d="M47.0065269,11.75 C47.0065269,11.75 43.6687528,12.8313447 46.006388,14 C47.0065269,14.5 49.4730549,14.5050946 52.5072907,13.5 C55.5415264,12.4949054 64.8506661,8.5 73.0101375,8.5 C83.1742699,8.5 59.5082627,18.75 59.5082627,18.75 L56.0077767,18.25 L39.5054853,15 C39.5054853,15 40.7151977,13.745455 41.7557978,13.25 C42.7963979,12.754545 47.0065269,11.75 47.0065269,11.75 Z" id="path-2"></path>
        <filter x="-50%" y="-50%" width="200%" height="200%" filterUnits="objectBoundingBox" id="filter-3">
            <feOffset dx="0" dy="-2" in="SourceAlpha" result="shadowOffsetOuter1"></feOffset>
            <feColorMatrix values="0 0 0 0 0.870588235   0 0 0 0 1   0 0 0 0 0.980392157  0 0 0 1 0" type="matrix" in="shadowOffsetOuter1"></feColorMatrix>
        </filter>
        <path d="M0.857514857,16.0035322 C0.356677449,16.9836542 -0.0285539822,18.6712728 0.00145681141,19.7721975 C0.00145681141,19.7721975 0.200703227,30.3847508 0.950807379,31.9350875 C1.70091153,33.4854242 4.01973699,35.6598242 4.06549364,34.5564972 C4.06549364,34.5564972 4.19202971,29.997766 4.20125871,29.8061959 C4.70710219,19.3061959 12.7555477,11.8061959 22.6980537,11.8061959 C32.6405598,11.8061959 39.7061886,19.0561959 40.7005534,29.8061959 C40.7274846,30.097347 41.1856289,37.1065327 41.1856289,37.1065327 C41.2771828,38.20653 42.2445426,39.1024874 43.3495243,39.107725 L123.98026,39.4899086 C125.083793,39.4951393 126.054425,38.6078773 126.148125,37.5081624 C126.148125,37.5081624 126.700818,29.5370557 126.712496,29.3061959 C127.21834,19.3061959 134.77249,11.8061959 144.714996,11.8061959 C154.657502,11.8061959 162.473235,19.3061959 163.217565,29.3061959 C163.236012,29.5540311 163.716747,37.5793384 163.716747,37.5793384 C163.782909,38.6828535 164.732451,39.5664607 165.841651,39.5528808 L188.49105,39.3061959 C189.311747,39.3061959 189.977054,38.6403987 189.977054,37.814985 C189.977054,37.5858088 188.825592,36.7869711 188.49105,35.5561959 C188.156508,34.3254207 186.358794,26.8685917 183.976221,23.4275742 C181.725908,19.5282 177.725353,15.9275742 166.47379,10.8061959 C158.344977,7.1062006 151.42339,6.61302626 143.519928,7 C142.783204,7.03607186 139.437685,5.59479525 138.719937,5.68819778 C136.479706,5.97972505 135.2163,3.10347453 133.219173,4.02819998 C133.219173,4.02819998 129.655058,-0.129991643 128.718548,0.278199977 C127.782038,0.686391597 126.616377,9.49565057 120.467402,10.1850875 C115.605634,10.7302 105.465319,8.77819998 97.2141736,8.77819998 C92.2665559,8.77819998 100.304806,10.5437943 90.7132709,9.77819998 C81.121736,9.01260564 59.2617093,6.32155856 56.9585841,5.77819998 C34.7054942,0.528199977 28.4546263,0.778199977 22.2037584,1.77819998 C15.9528904,2.77819998 6.9516406,5.6850875 5.70146701,7.27819998 C4.45129342,8.87131246 0.857514857,16.0035322 0.857514857,16.0035322 Z" id="path-4"></path>
        <path d="M93.5129843,29.5 C86.9368716,29.3037254 43.3397381,28.75 35.163516,28.25 C26.9872939,27.75 13.8446698,27.8288185 2.90903748,13.25 C-3.36364093,4.27734375 2.2353984,4.23728972 3.73406521,0 L93.5129843,29.5 Z" id="path-6"></path>
        <linearGradient x1="88.5505633%" y1="304.26354%" x2="44.8026994%" y2="-14.5292751%" id="linearGradient-8">
            <stop stop-color="#533FC7" offset="0%"></stop>
            <stop stop-color="#765DFF" offset="100%"></stop>
        </linearGradient>
        <path d="M34.5371896,0.124706264 C34.630387,0.32217515 35.6602435,0.920648775 36.0490424,1.12092577 C38.8257952,2.55127896 43.4761464,1.97384748 49.8341668,2.55527157 C56.1921873,3.13669567 68.6951769,3.89198692 85.6975377,12.5799103 C87.6188574,13.5616727 85.759056,14.7594625 84.5889926,15.5871566 C83.338819,16.4894199 83.5270565,16.7444728 83.7770912,17 C84.7189323,17.9625302 79.9613581,17.789557 79.6522647,17.9023724 C77.7873544,18.5830425 70.0742714,19.624524 61.7312072,20.5388017 C53.3881431,21.4530793 47.9991848,21.9546596 44.2291931,22.3274918 C36.4777008,23.0940732 23.8889067,23.6290255 16.2328144,22.3274918 C8.57672202,21.0259581 2.48467966,18.3786161 0.920629671,17.4724758 C-0.22029233,16.8114768 -0.106952486,16.2015122 0.234987595,16.2604062 C0.431733253,16.2942926 0.829104697,16.3030772 1.09549911,16.4894199 C1.36189352,16.6757626 1.55082356,16.4894199 1.87542307,16.2604062 C5.54352459,13.6724615 16.7680662,4.88652422 31.4770064,0.68302799 C32.3453663,0.434869559 33.1231452,0.207617138 33.8179311,0 L34.5371896,0.124706264 Z" id="path-9"></path>
        <linearGradient x1="50%" y1="3.64516901%" x2="50%" y2="98.2582543%" id="linearGradient-11">
            <stop stop-color="#8872FF" stop-opacity="0" offset="0%"></stop>
            <stop stop-color="#7159F7" offset="97.2795759%"></stop>
        </linearGradient>
        <ellipse id="path-12" cx="145.020136" cy="42.5" rx="15.5021525" ry="15.5"></ellipse>
        <mask id="mask-13" maskContentUnits="userSpaceOnUse" maskUnits="objectBoundingBox" x="0" y="0" width="31.004305" height="31" fill="white">
            <use xlink:href="#path-12"></use>
        </mask>
        <ellipse id="path-14" cx="22.3700195" cy="42.3669134" rx="15.5021525" ry="15.5"></ellipse>
        <mask id="mask-15" maskContentUnits="userSpaceOnUse" maskUnits="objectBoundingBox" x="0" y="0" width="31.004305" height="31" fill="white">
            <use xlink:href="#path-14"></use>
        </mask>
        <ellipse id="path-16" cx="179.090042" cy="32.8849301" rx="4.08619061" ry="2.25851126"></ellipse>
        <filter x="-50%" y="-50%" width="200%" height="200%" filterUnits="objectBoundingBox" id="filter-17">
            <feOffset dx="-2" dy="1" in="SourceAlpha" result="shadowOffsetInner1"></feOffset>
            <feComposite in="shadowOffsetInner1" in2="SourceAlpha" operator="arithmetic" k2="-1" k3="1" result="shadowInnerInner1"></feComposite>
            <feColorMatrix values="0 0 0 0 1   0 0 0 0 1   0 0 0 0 1  0 0 0 0.5 0" type="matrix" in="shadowInnerInner1"></feColorMatrix>
        </filter>
        <path d="M3.98293506,26.9370188 C5.62227961,26.9370188 6.56117266,26.330001 6.75251385,25.0650597 C6.94385503,23.8001185 5.42356252,22.7761546 3.78421797,22.7761546 C2.14487342,22.7761546 1.21253723,23.8680186 1.19005031,24.8026591 C1.16756338,25.7372996 2.34359051,26.9370188 3.98293506,26.9370188 Z" id="path-18"></path>
        <filter x="-50%" y="-50%" width="200%" height="200%" filterUnits="objectBoundingBox" id="filter-19">
            <feOffset dx="-1" dy="1" in="SourceAlpha" result="shadowOffsetInner1"></feOffset>
            <feComposite in="shadowOffsetInner1" in2="SourceAlpha" operator="arithmetic" k2="-1" k3="1" result="shadowInnerInner1"></feComposite>
            <feColorMatrix values="0 0 0 0 0.88807398   0 0 0 0 0.396837035   0 0 0 0 0.561861946  0 0 0 1 0" type="matrix" in="shadowInnerInner1"></feColorMatrix>
        </filter>
        <path d="M123.200919,16.490413 C123.802834,14.7623553 125.585572,14.0949896 127.113999,15.0933668 C127.113999,15.0933668 130.000027,16.2734927 130.98018,19.3575298 C131.2482,20.2008526 130.659314,21.1385433 129.716044,21.2314287 C126.558612,21.5423461 123.869346,18.5445957 123.869346,18.5445957 C123.294236,18.0013657 123.037596,16.9593044 123.298897,16.2091257 L123.200919,16.490413 Z" id="path-20"></path>
        <filter x="-50%" y="-50%" width="200%" height="200%" filterUnits="objectBoundingBox" id="filter-22">
            <feOffset dx="1" dy="-1" in="SourceAlpha" result="shadowOffsetInner1"></feOffset>
            <feComposite in="shadowOffsetInner1" in2="SourceAlpha" operator="arithmetic" k2="-1" k3="1" result="shadowInnerInner1"></feComposite>
            <feColorMatrix values="0 0 0 0 0.88807398   0 0 0 0 0.396837035   0 0 0 0 0.561861946  0 0 0 1 0" type="matrix" in="shadowInnerInner1"></feColorMatrix>
        </filter>
    </defs>
    <g id="Insurance" stroke="none" stroke-width="1" fill="none" fill-rule="evenodd">
        <g id="Group-60-Copy" transform="translate(0.000000, 1.000000)">
            <g id="Group-57" transform="translate(0.000000, 48.500000)" fill="#765DFF" fill-opacity="0.172299592">
                <g id="Group-14">
                    <ellipse id="Oval-16-Copy" opacity="0.35" cx="126.206833" cy="8" rx="126.206833" ry="8"></ellipse>
                    <ellipse id="Oval-15-Copy-6" cx="126.338038" cy="6.89560575" rx="109.335677" ry="5.89560575"></ellipse>
                </g>
            </g>
            <g id="Group-59" transform="translate(30.004166, 0.000000)">
                <path d="M105.624806,23.5690175 C112.0378,23.5690175 117.236558,22.5169263 117.236558,21.2191061 C117.236558,20.02592 112.842286,19.1523379 107.150143,19.0011887 C106.650982,18.9879339 105.994233,19.5965483 105.477199,19.5965483 C104.973273,19.5965483 104.624451,18.9875916 104.137453,19.0001929 C98.426887,19.147957 94.0130537,20.0232672 94.0130537,21.2191061 C94.0130537,22.5169263 99.2118123,23.5690175 105.624806,23.5690175 Z" id="Oval-4-Copy" fill="#E4E0FF" opacity="0.25" transform="translate(105.624806, 21.284509) scale(-1, 1) translate(-105.624806, -21.284509) "></path>
                <ellipse id="Oval-4-Copy-2" fill="#E4E0FF" transform="translate(106.221043, 20.142254) scale(-1, 1) translate(-106.221043, -20.142254) " cx="106.221043" cy="20.1422544" rx="7.20729444" ry="1.14225437"></ellipse>
                <path d="M2.00027774,52 L3.00041661,26.6779661 L21.7530204,18 L35.2548952,18.5423729 C35.2548952,18.5423729 42.505902,26.6779661 42.505902,27.7627119 C42.505902,28.8474576 40.2555895,48 40.2555895,48 C40.2555895,48 29.2540619,41.5932203 18.5025691,45.1186441 C7.75107624,48.6440678 2.00027774,52 2.00027774,52 Z" id="Path-66-Copy-2" fill="url(#linearGradient-1)" transform="translate(22.253090, 35.000000) scale(-1, 1) translate(-22.253090, -35.000000) "></path>
                <path d="M164.958207,52.4450684 L162.283145,36.5 C162.283145,36.5 161.036403,33.8965249 160.282868,32.75 C159.529332,31.6034751 156.532347,27.75 156.532347,27.75 C156.532347,27.75 150.031444,23.5 149.781409,23.5 C149.531375,23.5 134.279257,24.25 134.279257,24.25 L129.028528,31.5 C129.028528,31.5 124.777938,40.25 125.027972,40.75 C125.278007,41.25 125.528042,47.25 125.778077,48 C126.028111,48.75 125.304264,52.4450684 125.304264,52.4450684 C125.304264,52.4450684 136.0295,47 146.780993,47 C157.532486,47 164.958207,52.4450684 164.958207,52.4450684 Z" id="Path-67-Copy-2" fill="url(#linearGradient-1)" transform="translate(144.987783, 37.972534) scale(-1, 1) translate(-144.987783, -37.972534) "></path>
                <path d="M24.5034023,18.6377028 C24.5034023,18.6377028 34.2547563,9.76552035 48.7567699,4.26552035 C63.2587835,-1.23447965 73.2601722,-0.490114689 84.7617692,1.38770283 C90.875465,2.38586032 101.514095,5.38770283 113.515762,9.13770283 C125.517428,12.8877028 133.518539,15.1377028 139.019303,15.1377028 C140.371676,15.1377028 89.0123594,27.8873469 89.0123594,27.8873469 L40.7556589,28.3873469" id="Path-69-Copy-2" fill="#FFFFFF" transform="translate(81.774476, 14.193673) scale(-1, 1) translate(-81.774476, -14.193673) "></path>
                <path d="M189.119539,28.7535322 C189.620376,29.7336542 190.005608,31.4212728 189.975597,32.5221975 C189.975597,32.5221975 189.776351,43.1347508 189.026246,44.6850875 C188.276142,46.2354242 185.957317,48.4098242 185.91156,47.3064972 C185.91156,47.3064972 185.785024,42.747766 185.775795,42.5561959 C185.269952,32.0561959 177.221506,24.5561959 167.279,24.5561959 C157.336494,24.5561959 150.270865,31.8061959 149.2765,42.5561959 C149.249569,42.847347 148.791425,49.8565327 148.791425,49.8565327 C148.699871,50.95653 147.732511,51.8524874 146.627529,51.857725 L65.9967935,52.2399086 C64.893261,52.2451393 63.9226283,51.3578773 63.828929,50.2581624 C63.828929,50.2581624 63.2762354,42.2870557 63.2645575,42.0561959 C62.7587141,32.0561959 55.2045639,24.5561959 45.2620579,24.5561959 C35.3195519,24.5561959 27.5038189,32.0561959 26.7594888,42.0561959 C26.7410417,42.3040311 26.2603062,50.3293384 26.2603062,50.3293384 C26.1941448,51.4328535 25.2446023,52.3164607 24.135403,52.3028808 L1.48600413,52.0561959 C0.665306712,52.0561959 0,51.3903987 0,50.564985 C0,50.3358088 1.15146218,49.5369711 1.48600413,48.3061959 C1.82054609,47.0754207 2.61812068,39.6185917 5.00069435,36.1775742 C7.2510068,32.2782 9.25128454,29.1775742 20.5028468,24.0561959 C27.4679229,20.8858994 39.6312563,17.8089787 49.506874,17.7782 C49.7569088,17.7782 49.7569088,18.0282 50.7570476,18.7782 C51.7571865,19.5282 53.375542,17.9529775 54.007499,18.0282 C54.255819,18.0577578 53.2573948,18.2782 55.0076378,17.2782 C56.7578808,16.2782 53.0612872,19.4701423 53.5074295,19.5282 C55.7476606,19.8197272 54.7607533,15.8534745 56.7578808,16.7782 C56.7578808,16.7782 60.3219954,12.6200084 61.2585058,13.0282 C62.1950161,13.4363916 63.3606768,22.2456506 69.5096514,22.9350875 C74.3714202,23.4802 84.5117345,21.5282 92.7628802,21.5282 C97.7104979,21.5282 89.6722479,23.2937943 99.2637828,22.5282 C108.855318,21.7626056 130.715344,19.0715586 133.01847,18.5282 C155.27156,13.2782 161.522427,13.5282 167.773295,14.5282 C174.024163,15.5282 183.025413,18.4350875 184.275587,20.0282 C185.52576,21.6213125 189.119539,28.7535322 189.119539,28.7535322 Z" id="Combined-Shape-Copy-10" fill="#FFFFFF" transform="translate(94.988527, 32.651518) scale(-1, 1) translate(-94.988527, -32.651518) "></path>
                <g id="Path-78">
                    <use fill="black" fill-opacity="1" filter="url(#filter-3)" xlink:href="#path-2"></use>
                    <use fill="#90F9E9" fill-rule="evenodd" xlink:href="#path-2"></use>
                </g>
                <path d="M33.0045827,18.6377028 C33.0045827,18.6377028 42.7559367,9.76552035 57.2579503,4.26552035 C71.7599639,-1.23447965 81.7613526,-0.490114689 93.2629496,1.38770283 C99.3766454,2.38586032 110.015276,5.38770283 122.016942,9.13770283 C128.344341,11.1147404 134.477311,13.1046568 138.716571,14.1379395" id="Path-69-Copy-2" stroke="#765DFF" transform="translate(85.860577, 9.318851) scale(-1, 1) translate(-85.860577, -9.318851) "></path>
                <g id="Group-41" transform="translate(0.000000, 12.500000)">
                    <g id="Path-6-+-Path-63-+-Path-74-Mask">
                        <mask id="mask-5" fill="white">
                            <use xlink:href="#path-4"></use>
                        </mask>
                        <g id="Mask"></g>
                        <path d="M0.500069435,25.5 C0.500069435,25.5 4.00055548,26.5 5.50076378,23 C7.00097209,19.5 12.3035525,15.5010603 14.5020136,14 C16.7004747,12.4989397 24.0033329,11.75 24.0033329,11.75 C24.0033329,11.75 32.0044438,10.5248119 40.2555895,20.25 C44.2373445,24.9430836 47.0649185,29.4995207 51.5071518,31.75 C55.9493851,34.0004793 62.9349148,34.1119275 76.2605888,34.5 C85.134384,34.7584242 101.222279,34.8387602 118.499269,34.8330527 C121.784872,34.8319672 125.11348,34.82777 128.443653,34.821094 C136.316629,34.8053111 145.928338,18.2851263 153.271282,18.25 C157.397688,18.2302606 157.667966,19.9603139 161.022358,24.5 C163.19242,27.4368663 164.522844,33.25 167.273226,34.5 C170.023608,35.75 173.547082,35.5882671 179.020403,35.5 C183.350982,35.4301616 185.489208,35.632657 186.775934,35.5 C188.06266,35.367343 188.526177,34.821094 188.526177,34.821094 L195.277114,42 L71.0098597,48.25 L-1.00013887,43 L-1.25017359,25.5 L0.500069435,25.5 Z" id="Path-6" fill="#DEFFFB" mask="url(#mask-5)"></path>
                        <path d="M-0.492032708,24.25 C-0.492032708,24.25 -6.57252031e-14,29.25 4.2505902,29.25 C6.35102519,29.25 9.12276675,22.6570933 13.6894008,19.3735352 C18.2560348,16.089977 18.2525344,17.5 18.2525344,17.5 C18.2525344,17.5 19.909572,16.7576154 23.7532982,17 C27.5970243,17.2423846 27.7833211,16.0141867 31.2543397,18 C32.2616689,18.5763057 37.3151813,20.5964327 39.2554506,22.75 C41.19572,24.9035673 44.8305744,35.8038142 58.5081239,36.6376953 C74.3815668,37.6054538 127.471614,37.6741181 161.738149,37.6557871 C162.534619,37.655361 163.022636,29.7967798 163.522705,32.5467798 C164.022775,35.2967798 166.523122,37.75 169.773573,37.6376953 C176.294732,37.4123861 181.77524,37.5 185.52576,37.5 C185.848732,37.5 189.403252,37.6557871 188.776212,36.6376953 C188.149171,35.6196035 189.403252,37 189.403252,37 L191.53463,42.25 L9.50935599,48.25 C9.50935599,48.25 -13.493838,37.75 -12.9937686,37 C-12.4936991,36.25 -3.74248403,25.25 -3.74248403,25.25 L-0.492032708,24.25 Z" id="Path-63" fill="#90F9E9" mask="url(#mask-5)"></path>
                    </g>
                </g>
                <g id="Path-80" transform="translate(53.507430, 18.500000)">
                    <mask id="mask-7" fill="white">
                        <use xlink:href="#path-6"></use>
                    </mask>
                    <g id="Mask"></g>
                    <path d="M-1.07758247e-12,7 C-1.07758247e-12,7 4.50062491,20.5 19.502708,24 C31.601316,26.8226166 52.3818966,26 69.009582,26 C72.510068,26 73.0101375,22.5 73.0101375,22.5 L73.0101375,27 L72.510068,28.5 L35.0048604,28.5 L18.5025691,27.5 C18.5025691,27.5 -0.500069435,18.25 -1.07758247e-12,18 C0.500069435,17.75 -1.00013887,9.5 -1.00013887,9.5 L-1.07758247e-12,7 Z" fill="#DEFFFA" mask="url(#mask-7)"></path>
                </g>
                <path d="M89.044758,1.62200882 C89.1379554,1.81520637 90.1678119,2.40073476 90.5566108,2.59667969 C93.3333636,3.99609375 97.9837148,3.43115234 104.341735,4 C110.699756,4.56884766 123.202745,5.30780164 140.205106,13.8078016 C142.126426,14.7683281 140.266624,15.9402092 139.096561,16.75 C137.846387,17.632747 138.346457,18.3445389 138.596492,18.5945389 C139.538333,19.5362492 134.468926,18.9047616 134.159833,19.0151367 C132.294923,19.6810836 124.58184,20.7000375 116.238776,21.5945389 C107.895711,22.4890404 102.506753,22.9797713 98.7367615,23.3445389 C90.9852691,24.0945389 78.3964751,24.6179199 70.7403828,23.3445389 C63.0842904,22.071158 56.9922481,19.4810791 55.4281981,18.5945389 C54.2872761,17.9478376 54.4006159,17.3510668 54.742556,17.4086869 C54.9393016,17.4418403 55.3366731,17.4504349 55.6030675,17.632747 C55.8694619,17.815059 56.058392,17.632747 56.3829915,17.4086869 C60.051093,14.8767206 71.2756346,6.28082669 85.9845748,2.16825381 C86.8529347,1.92546315 87.6307136,1.70312629 88.3254995,1.5 L89.044758,1.62200882 Z" id="Path-51-Copy-2" fill="url(#linearGradient-8)" transform="translate(97.771305, 12.807802) scale(-1, 1) translate(-97.771305, -12.807802) "></path>
                <path d="M107.932575,9.44219092 C108.067015,9.40858554 108.350546,9.34335915 108.765557,9.25501284 M110.680268,8.87365958 C114.348896,8.18463933 121.138819,7.12013212 128.435422,6.94219092" id="Path-79" stroke="#FFFFFF" stroke-linecap="round" transform="translate(118.183998, 8.192191) scale(1, -1) rotate(163.000000) translate(-118.183998, -8.192191) "></path>
                <g id="Group-26" transform="translate(55.007638, 1.500000)">
                    <mask id="mask-10" fill="white">
                        <use xlink:href="#path-9"></use>
                    </mask>
                    <g id="Mask" transform="translate(43.263737, 11.557802) scale(-1, 1) translate(-43.263737, -11.557802) "></g>
                    <g mask="url(#mask-10)" id="Path-6-Copy" fill="url(#linearGradient-11)">
                        <g transform="translate(17.970447, 8.736510) rotate(122.000000) translate(-17.970447, -8.736510) translate(3.470447, -17.763490)">
                            <path d="M18.8704958,13.8975779 L4.05904316,51.6713122 L11.4138215,52.9390524 C11.4138215,52.9390524 20.3720748,52.6483945 24.8249456,49.8663184 C29.2778164,47.0842423 28.6950902,43.321195 28.6950902,43.321195 L18.8704958,13.8975779 Z"></path>
                            <path d="M7.27472755,0.897577927 C7.27472755,0.897577927 12.5006044,28.602137 5.65439312,39.348849 C-1.19181816,50.095561 0.840648346,52.0234495 0.840648346,52.0234495 L4.02590699,49.2707077 L16.9262045,14.7085056 L7.27472755,0.897577927 Z"></path>
                        </g>
                    </g>
                </g>
                <path d="M65.0090265,41 L75.0104152,45.5 L83.5115956,47 L98.0136092,47.5 L118.016387,47.5 L126.017498,47.5 L126.017498,46 L97.5135398,46 C97.5135398,46 84.4720437,45.9169715 78.5109013,45 C72.5497589,44.0830285 65.0090265,41 65.0090265,41 Z" id="Path-49" fill="#90F9E9"></path>
                <path d="M189.119539,28.7535322 C189.620376,29.7336542 190.005608,31.4212728 189.975597,32.5221975 C189.975597,32.5221975 189.776351,43.1347508 189.026246,44.6850875 C188.276142,46.2354242 185.957317,48.4098242 185.91156,47.3064972 C185.91156,47.3064972 185.785024,42.747766 185.775795,42.5561959 C185.269952,32.0561959 177.221506,24.5561959 167.279,24.5561959 C157.336494,24.5561959 150.270865,31.8061959 149.2765,42.5561959 C149.249569,42.847347 148.791425,49.8565327 148.791425,49.8565327 C148.699871,50.95653 147.732511,51.8524874 146.627529,51.857725 L104.635727,52.056763 L65.9967935,52.2399086 C64.893261,52.2451393 63.9226283,51.3578773 63.828929,50.2581624 C63.828929,50.2581624 63.2762354,42.2870557 63.2645575,42.0561959 C62.7587141,32.0561959 55.2045639,24.5561959 45.2620579,24.5561959 C35.3195519,24.5561959 27.5038189,32.0561959 26.7594888,42.0561959 C26.7410417,42.3040311 26.2603062,50.3293384 26.2603062,50.3293384 C26.1941448,51.4328535 25.2446023,52.3164607 24.135403,52.3028808 L1.48600413,52.0561959 C0.665306712,52.0561959 0,51.3903987 0,50.564985 C0,50.3358088 1.15146218,49.5369711 1.48600413,48.3061959 C1.82054609,47.0754207 2.61812068,39.6185917 5.00069435,36.1775742 C7.2510068,32.2782 9.25128454,29.1775742 20.5028468,24.0561959 C27.4679229,20.8858994 39.6312563,17.8089787 49.506874,17.7782 C49.7569088,17.7782 50.2545282,18.25 51.2546671,19 C52.254806,19.75 53.375542,17.9529775 54.007499,18.0282 C54.255819,18.0577578 53.2573948,18.2782 55.0076378,17.2782 C56.7578808,16.2782 53.0612872,19.4701423 53.5074295,19.5282 C55.7476606,19.8197272 54.7607533,15.8534745 56.7578808,16.7782 C56.7578808,16.7782 60.3219954,12.6200084 61.2585058,13.0282 C61.4988216,13.1329451 54.9015997,18.5629245 55.0076378,19.5282 C55.1136759,20.4934754 62.4382043,22.7627482 67.0093043,23.2752703 C71.871073,23.8203828 78.4054951,24.088097 89.5104754,23.5561959 C100.615456,23.0242949 130.715344,19.0715586 133.01847,18.5282 C155.27156,13.2782 161.522427,13.5282 167.773295,14.5282 C174.024163,15.5282 183.025413,18.4350875 184.275587,20.0282 C185.52576,21.6213125 189.119539,28.7535322 189.119539,28.7535322 Z" id="Combined-Shape-Copy-10" stroke="#765DFF" transform="translate(94.988527, 32.651518) scale(-1, 1) translate(-94.988527, -32.651518) "></path>
                <ellipse id="Oval-4-Copy-8" fill="url(#linearGradient-8)" transform="translate(30.504236, 18.462077) scale(-1, 1) translate(-30.504236, -18.462077) " cx="30.5042355" cy="18.4620773" rx="2.50034717" ry="1.96207727"></ellipse>
                <path d="M185.843352,31.0760775 C186.920213,26.5000551 178.345732,28.3842996 178.345732,28.3842996 C178.345732,28.3842996 174.791228,31.3848353 173.696125,33.2930791 C172.601023,35.2013229 171.652259,36.1004562 170.767303,37.5363444 C168.344367,41.4676895 184.766492,35.6520999 185.843352,31.0760775 Z" id="Path-55-Copy-2" fill="#765DFF" transform="translate(178.230294, 33.417947) scale(-1, 1) translate(-178.230294, -33.417947) "></path>
                <ellipse id="Oval-10-Copy-2" fill="#F478A2" transform="translate(173.067446, 31.965000) rotate(41.000000) translate(-173.067446, -31.965000) " cx="173.067446" cy="31.965" rx="1.4638772" ry="0.668791691"></ellipse>
                <use id="Oval-3-Copy-3" stroke="#765DFF" mask="url(#mask-13)" stroke-width="10" fill="#FFFFFF" transform="translate(145.020136, 42.500000) scale(-1, 1) translate(-145.020136, -42.500000) " xlink:href="#path-12"></use>
                <ellipse id="Oval-11-Copy" stroke="#765DFF" fill="#E4E0FF" transform="translate(144.586743, 42.566667) scale(-1, 1) translate(-144.586743, -42.566667) " cx="144.586743" cy="42.5666667" rx="2.06695366" ry="2.06666667"></ellipse>
                <use id="Oval-3-Copy-3" stroke="#765DFF" mask="url(#mask-15)" stroke-width="10" fill="#FFFFFF" transform="translate(22.370020, 42.366913) scale(-1, 1) rotate(49.000000) translate(-22.370020, -42.366913) " xlink:href="#path-14"></use>
                <ellipse id="Oval-11-Copy" stroke="#765DFF" fill="#E4E0FF" transform="translate(22.418701, 42.415588) scale(-1, 1) rotate(49.000000) translate(-22.418701, -42.415588) " cx="22.4187013" cy="42.4155885" rx="2.06695366" ry="2.06666667"></ellipse>
                <ellipse id="Oval-3-Copy-8" stroke="#0FE1C3" transform="translate(145.020136, 42.500000) scale(-1, 1) translate(-145.020136, -42.500000) " cx="145.020136" cy="42.5" rx="12.0016664" ry="12"></ellipse>
                <ellipse id="Oval-3-Copy-9" stroke="#0FE1C3" transform="translate(22.503125, 42.500000) scale(-1, 1) translate(-22.503125, -42.500000) " cx="22.5031246" cy="42.5" rx="12.0016664" ry="12"></ellipse>
                <g id="Oval-10-Copy-22" transform="translate(179.090042, 32.884930) rotate(-139.000000) translate(-179.090042, -32.884930) ">
                    <use fill="#FAD214" fill-rule="evenodd" xlink:href="#path-16"></use>
                    <use fill="black" fill-opacity="1" filter="url(#filter-17)" xlink:href="#path-16"></use>
                </g>
                <path d="M129.503586,16.3949507 C129.4419,16.3691235 130.373245,16.546121 130.316675,16.5264649 L130.152522,16.9987582 L130.353512,17.4565944 C130.400377,17.4354967 130.400377,17.4354967 130.48498,17.3738103 C130.527564,17.3372903 130.56244,17.2964233 130.589845,17.2527225 C130.721403,17.042944 130.680822,16.7678661 130.494318,16.5948742 C130.476439,16.5782903 130.457219,16.5626446 130.43668,16.5480845 C130.338092,16.4781927 130.219519,16.4359119 130.044349,16.3949507 C129.705059,16.3156123 129.085711,16.2328484 128.10636,16.1445844 C127.179252,16.0610288 126.511933,16.0147162 126.082505,16.003018 C125.866775,15.9971412 125.705954,15.9996973 125.589001,16.0120045 C125.503431,16.0210093 125.432172,16.0351832 125.360495,16.063897 C125.135879,16.153878 124.953403,16.364 125.038797,16.684536 C125.146169,17.0875717 125.224138,17.1083626 126.959986,17.4724271 C127.117363,17.5054342 127.283627,17.5394371 127.457708,17.5742783 C127.905622,17.6639248 128.384922,17.7551349 128.864138,17.8431839 C129.031798,17.873989 129.187503,17.9022045 129.327293,17.9272335 C129.411314,17.9422774 129.471251,17.9528965 129.503803,17.9586109 C129.964621,18.0422999 130.688986,18.3532896 131.078017,18.6361822 L133.01807,20.0469336 C133.046163,20.0670202 133.101782,20.1165504 133.157804,20.1861978 C133.494859,20.6052293 133.30821,21.0314682 131.632474,21.6758927 C131.102474,21.8797105 130.794263,22.0293575 130.631823,22.1804823 C130.390785,22.404731 130.314538,22.7839089 130.643032,23.0403252 C130.776265,23.1443252 130.912984,23.1757809 131.103993,23.1890101 C131.486494,23.2155019 132.210056,23.1411393 133.21977,22.9920321 C133.402707,22.9650174 133.59225,22.9358845 133.787055,22.9049398 C134.180046,22.8425136 134.576208,22.7756842 134.956004,22.7088546 C135.088954,22.6854605 135.210408,22.663729 135.317911,22.6442119 C135.382618,22.6324644 135.428148,22.624092 135.452919,22.6194858 L135.861541,22.5434904 L135.861541,21.5771358 L134.861402,21.5771358 L134.861402,21.7100939 C134.835984,21.7145923 134.809724,21.7192267 134.782657,21.7239895 C134.407986,21.7899172 134.017169,21.8558452 133.63013,21.9173259 C133.504258,21.9373205 133.380711,21.9565315 133.259892,21.9748699 C134.102809,21.4158713 134.412204,20.7942903 134.266179,20.1935957 C134.213832,19.978259 134.10296,19.7656063 133.937161,19.5594829 C133.816718,19.4097469 133.695873,19.3021301 133.602856,19.2356988 L131.666271,17.8274461 C131.382281,17.6209369 130.988641,17.4144276 130.589845,17.2527225 C130.459734,17.1999644 130.329074,17.1519756 130.201494,17.1103121 C130.017505,17.0502271 129.839922,17.0032974 129.67963,16.9741898 C129.630687,16.9655633 129.576195,16.955892 129.503586,16.9428915 C129.401263,16.9245707 129.290257,16.9045129 129.172183,16.8829619 C129.130608,16.8753735 129.088156,16.8676 129.044898,16.859652 C128.570484,16.7724853 128.096154,16.6822211 127.654012,16.5937297 C127.48282,16.5594669 127.31954,16.5260741 127.165309,16.4937268 C126.729706,16.4023666 126.37572,16.3213348 126.124028,16.2542198 C125.993721,16.2194728 125.894583,16.1893745 125.833378,16.1664115 C125.937084,16.2053203 125.947774,16.2114475 126.005236,16.4271387 C126.084875,16.7260721 125.918522,16.9176283 125.732462,16.9921639 C125.700302,17.0050472 125.692101,17.0066783 125.693685,17.0065117 C125.757249,16.9998226 125.879978,16.997872 126.055266,17.0026471 C126.45932,17.0136541 127.108564,17.0587122 128.016574,17.1405466 C128.715113,17.2035024 129.215948,17.2627132 129.542639,17.3161738 C129.653815,17.3343669 129.744824,17.3518941 129.816593,17.3686764 C129.731378,17.2739304 129.663326,17.1238015 129.665878,16.9717685 C129.668055,16.8420952 129.721597,16.7110367 129.83384,16.6147751 C129.90811,16.5605081 129.90811,16.5605081 129.951531,16.540922 L128.784965,17.0529039 L129.988368,17.4710515 C130.383054,17.6081938 131.049406,18.0082081 131.561799,18.39245 L133.15827,19.5896366 C133.467996,19.8218992 133.849982,20.0265863 134.266179,20.1935957 C134.392876,20.2444362 133.655091,21.3203474 133.787055,21.3639197 C133.91902,21.407492 136.380563,20.731714 137.105993,20.6410478 C137.148986,20.63798 137.25556,20.6268655 137.391002,20.6087043 C137.616857,20.5784198 137.843208,20.5386253 138.057756,20.4874794 C138.211099,20.4509244 138.3534,20.4096586 138.483115,20.3627057 C138.517584,20.3502287 138.552034,20.3405207 138.60431,20.3282453 C138.905801,20.2596559 140.440251,18.3287482 140.34224,18.39245 C140.269345,18.4398284 139.288078,19.0963745 138.717076,19.2988281 C138.146074,19.5012817 137.051176,19.6426421 137.003124,19.6465795 C136.014994,19.7696216 134.542645,19.3777739 133.758353,18.7896366 L132.018331,17.75 C131.495235,17.3577326 130.001089,16.6032505 129.503586,16.3949507 Z" id="Path-54-Copy-2" fill="#FFFFFF"></path>
                <path d="M1.28281956,19.1507911 C1.28281956,19.1507911 2.78302786,20.1507911 2.03292371,20.9007911 C1.01884669,21.9147273 -0.217388747,22.9007911 0.0326459708,24.9007911 C0.311707485,27.1329733 2.08913609,28.1847216 3.77141605,28.9007911 C5.53340975,29.6507911 7.28365278,29.1507911 8.03375693,30.9007911 C8.78386108,32.6507911 8.53382636,32.6507911 8.53382636,32.6507911 C8.53382636,32.6507911 8.57831988,30.4847851 8.03375693,29.1507911 C7.66652009,28.2511858 5.64853952,23.5628499 3.77141605,20.9007911 C1.89429257,18.2387324 1.28281956,19.1507911 1.28281956,19.1507911 Z" id="Path-71" fill="#765DFF" transform="translate(4.286916, 25.825396) scale(-1, 1) translate(-4.286916, -25.825396) "></path>
                <g id="Oval-10-Copy-26" transform="translate(3.979289, 24.856587) scale(-1, 1) rotate(-142.000000) translate(-3.979289, -24.856587) ">
                    <use fill="#F478A2" fill-rule="evenodd" xlink:href="#path-18"></use>
                    <use fill="black" fill-opacity="1" filter="url(#filter-19)" xlink:href="#path-18"></use>
                </g>
                <path d="M40.7556589,15.0581717 C40.7556589,15.0581717 40.3037541,14.3310464 41.0056937,14.0581717 C41.7076332,13.7852971 52.6941333,9.96476339 53.5074295,9.55817175 C54.5075684,9.05817175 54.5075684,8.80817175 54.5075684,8.05817175 C54.5075684,7.30817175 34.504791,14.0581717 34.504791,14.0581717 L40.7556589,15.0581717 Z" id="Path-72" fill="#765DFF"></path>
                <path d="M129.017914,18 C129.017914,18 134.018609,19.5 135.018747,23.25 C135.620252,25.5053306 135.498241,26.6755377 135.305421,27.2500839" id="Path-76" stroke="#765DFF"></path>
                <path d="M126.676223,47.5 C120.10011,47.3037254 97.3472371,47.75 89.171015,47.25 C80.9947929,46.75 67.8521687,46.8288185 56.9165364,32.25 C50.643858,23.2773437 56.2428974,23.2372897 57.7415642,19" id="Path-77" stroke="#765DFF"></path>
                <mask id="mask-21" fill="white">
                    <use xlink:href="#path-20"></use>
                </mask>
                <g id="Mask" transform="translate(127.122311, 17.940421) scale(-1, 1) rotate(-34.000000) translate(-127.122311, -17.940421) ">
                    <use fill="#F478A2" fill-rule="evenodd" xlink:href="#path-20"></use>
                    <use fill="black" fill-opacity="1" filter="url(#filter-22)" xlink:href="#path-20"></use>
                </g>
            </g>
        </g>
    </g>
</svg>