<?xml version="1.0" standalone="no"?>
<!DOCTYPE svg PUBLIC "-//W3C//DTD SVG 20010904//EN"
 "http://www.w3.org/TR/2001/REC-SVG-20010904/DTD/svg10.dtd">
<svg version="1.0" xmlns="http://www.w3.org/2000/svg"
 width="260.000000pt" height="260.000000pt" viewBox="0 0 260.000000 260.000000"
 preserveAspectRatio="xMidYMid meet">
<metadata>
Created by potrace 1.11, written by Peter Selinger 2001-2013
</metadata>
<g transform="translate(0.000000,260.000000) scale(0.100000,-0.100000)"
fill="#000000" stroke="none">
<path d="M0 1300 l0 -1300 1300 0 1300 0 0 1300 0 1300 -1300 0 -1300 0 0
-1300z m1701 890 c87 -16 191 -73 243 -132 114 -130 99 -306 -33 -393 -44 -30
-182 -67 -196 -54 -5 5 -10 25 -12 45 -8 123 -146 207 -313 190 -75 -8 -195
-37 -278 -68 -31 -11 -58 -22 -60 -23 -1 -1 5 -18 13 -38 11 -27 15 -76 15
-190 l0 -155 87 30 c68 24 96 29 132 24 83 -11 131 -65 131 -149 0 -49 -28
-142 -55 -183 -13 -21 -18 -22 -43 -13 -35 15 -156 14 -209 0 -53 -14 -57 -29
-51 -156 7 -125 33 -178 108 -218 120 -62 305 -15 390 99 15 22 32 53 35 69
15 68 14 66 53 59 58 -10 113 -45 147 -92 26 -38 30 -54 33 -121 5 -98 -20
-162 -85 -222 -95 -87 -221 -123 -438 -123 -128 -1 -162 2 -230 22 -184 53
-293 164 -335 341 -14 60 -9 337 10 586 11 138 6 309 -10 335 -4 7 -30 15 -56
17 -130 12 -175 110 -121 263 21 59 26 65 48 61 13 -2 60 -4 104 -5 73 0 95 5
245 58 327 115 439 143 591 145 48 1 111 -3 140 -9z"/>
</g>
</svg>
