<?xml version="1.0" encoding="UTF-8"?>
<svg width="365px" height="335px" viewBox="0 0 365 335" version="1.1" xmlns="http://www.w3.org/2000/svg" xmlns:xlink="http://www.w3.org/1999/xlink">
    <!-- Generator: Sketch 46.2 (44496) - http://www.bohemiancoding.com/sketch -->
    <title>icon_claim_phone</title>
    <desc>Created with Sketch.</desc>
    <defs></defs>
    <g id="Claim" stroke="none" stroke-width="1" fill="none" fill-rule="evenodd">
        <g id="Schadenservice" transform="translate(-276.000000, -1116.000000)">
            <g id="icon_claim_phone" transform="translate(276.000000, 1116.000000)">
                <g id="Group-19" fill="#06C3C3">
                    <g id="Group-13">
                        <g id="Group-24">
                            <path d="M56.6446586,110.633034 C-7.86992283,188.598401 -13.3931777,243.248577 20.5382553,264.190838 C44.6014411,279.042481 79.8608191,290.902166 123.615089,318.157898 C167.369359,345.41363 240.245535,344.967483 301.290399,271.237001 C422.900996,124.354734 339.68179,27.0866676 298.184296,5.20730644 C256.686801,-16.6720547 121.15924,32.667667 56.6446586,110.633034 Z" id="Path-39-Copy-4" opacity="0.03"></path>
                            <path d="M315.538051,136.121421 C306.11546,76.6295202 209.837017,19.0745545 142.203135,28.4665976 C74.5692533,37.8586406 -14.0291168,137.213755 31.4573805,252.547823 C76.9438777,367.881892 169.142741,317.431719 217.516235,257.062257 C265.88973,196.692796 324.960643,195.613322 315.538051,136.121421 Z" id="Path-39-Copy-4" opacity="0.04"></path>
                            <path d="M138.82152,292.109922 C90.8522222,284.137211 49.7932953,243.630134 40.3530297,170.321617 C30.9127641,97.0131013 175.562463,45.3110063 228.084091,91.507729 C242.246828,103.964921 241.960001,120.78019 242.193038,134.238827 C242.426075,147.697464 210.69069,204.236188 202.246529,224.657574 C190.684645,252.618872 186.790817,300.082633 138.82152,292.109922 Z" id="Path-39-Copy-5" opacity="0.0399999991"></path>
                        </g>
                    </g>
                </g>
                <g id="Group-26" transform="translate(103.000000, 86.000000)">
                    <g id="Group-6" transform="translate(32.000000, 0.000000)">
                        <g id="Group-22">
                            <g id="Group-20" stroke="#1A2020">
                                <g id="Lp_icon_phone">
                                    <rect id="Rectangle-5-Copy" x="0.33338414" y="0" width="67.1815113" height="132.726648" rx="10"></rect>
                                    <ellipse id="Oval-6-Copy" cx="24.0693285" cy="9.62815864" rx="1.09049113" ry="1.06612045"></ellipse>
                                    <rect id="Rectangle-7-Copy" stroke-width="0.5" x="28.5127765" y="9.5497988" width="10.4240988" height="1" rx="0.5"></rect>
                                    <ellipse id="Oval-5-Copy" cx="34.2737096" cy="5.58398207" rx="1" ry="1"></ellipse>
                                    <path d="M9.34202145,17.177405 C7.56343024,17.177405 6.11730127,18.6243698 6.1173501,20.3995424 L6.11986305,111.7449 C6.119912,113.524155 7.56397168,114.967065 9.34456088,114.967065 L58.6616691,114.967065 C60.4401619,114.967065 61.8862645,113.520097 61.8862645,111.744914 L61.8862645,20.3995561 C61.8862645,18.620312 60.4421784,17.177405 58.6614908,17.177405 L9.34202145,17.177405 Z" id="Rectangle-8-Copy"></path>
                                    <ellipse id="Oval-7-Copy" cx="34.1344378" cy="122.752852" rx="4.3619645" ry="4.2644818"></ellipse>
                                </g>
                            </g>
                            <g id="Group-14" transform="translate(12.363636, 53.612403)" stroke="#1A2020">
                                <path d="M0.5,31.6150064 C0.5,33.7727671 2.24943447,35.5272697 4.40293294,35.5272697 L39.8299754,35.5272697 C41.9847378,35.5272697 43.7329084,33.7756235 43.7329084,31.6150064 C43.7329084,29.4536535 42.0434068,27.702743 39.9720895,27.702743 L4.41614966,27.702743 C2.24962433,27.702743 0.5,29.4523727 0.5,31.6150064 Z" id="Rectangle-Copy-2"></path>
                                <path d="M0.273475496,0.27757901 L42.9391588,0.27757901" id="Line" stroke-linecap="round" stroke-linejoin="round"></path>
                                <path d="M0.273475496,9.71526535 L42.9391588,9.71526535" id="Line" stroke-linecap="round" stroke-linejoin="round"></path>
                            </g>
                            <g id="Group-17" transform="translate(12.363636, 53.612403)"></g>
                        </g>
                    </g>
                    <g id="Group-25" transform="translate(0.000000, 126.000000)" fill="#06C3C3">
                        <ellipse id="Oval-4-Copy-4" opacity="0.1" cx="66" cy="11.6684502" rx="66" ry="11.6684502"></ellipse>
                        <ellipse id="Oval-4-Copy-4" opacity="0.2" cx="65.5" cy="9.91845017" rx="42.5" ry="4.91845017"></ellipse>
                    </g>
                </g>
            </g>
        </g>
    </g>
</svg>