<?xml version="1.0" encoding="UTF-8"?>
<svg width="819px" height="1602px" viewBox="0 0 819 1602" version="1.1" xmlns="http://www.w3.org/2000/svg" xmlns:xlink="http://www.w3.org/1999/xlink">
    <!-- Generator: Sketch 46.2 (44496) - http://www.bohemiancoding.com/sketch -->
    <title>icon_claim_path</title>
    <desc>Created with Sketch.</desc>
    <defs></defs>
    <g id="Claim" stroke="none" stroke-width="1" fill="none" fill-rule="evenodd" stroke-linejoin="round" stroke-linecap="round" stroke-dasharray="5,15">
        <g id="Schadenservice" transform="translate(-480.000000, -1364.000000)" stroke="#06C3C3" stroke-width="3">
            <path d="M752.290235,2963.53072 C664.32827,2968.16279 462.398606,2938.09573 482.381975,2891.40839 C510.446259,2825.84153 522.886844,2853.59827 571.320365,2832.79775 C619.753887,2811.99722 584.899857,2772.20492 640.575774,2742.3607 C696.251692,2712.51647 873.237738,2814.33989 873.237738,2665.57094 C873.237738,2596.02464 939.863029,2560.60174 1008.58001,2557.86912 C1077.29699,2555.1365 1114.91495,2587.43818 1175.60776,2551.53853 C1244.41052,2510.84185 1303.25499,2523.50304 1296.46524,2465.17114 C1289.67549,2406.83925 1114.9527,2437.58784 1124.45834,2368.85569 C1126.25635,2355.85486 1112.08615,2335.77425 1076.42542,2320.28683 M976.15164,2287.27697 C887.870237,2262.34019 816.352145,2259.22438 793.866826,2226.61394 C755.792656,2171.39502 843.272595,2182.25776 811.54412,2115.72348 C779.815644,2049.1892 559.531243,2131.58926 550.464094,2013.8853 C545.931454,1955.04546 681.457371,1988.53891 681.457371,1941.01442 C681.457371,1893.48994 603.949238,1941.01442 580.832777,1906.16313 M512.696063,1850.1464 C477.851613,1830.25116 483.281917,1778.25223 503.193031,1761.97431 C598.114193,1684.37345 711.66044,1756.30151 760.679938,1742.53123 C809.699437,1728.76096 848.46985,1623.15978 921.326427,1618.63814 C1020.43756,1612.48707 926.667684,1533.34548 1013.29953,1520.14908 C1099.93138,1506.95269 1098.36639,1522.55105 1153.01939,1529.56172 C1219.99314,1538.15284 1265.77654,1499.19177 1224.06587,1454.05023 C1182.35519,1408.90869 1150.40836,1522.33466 1075.63756,1454.05023 C1033.55271,1415.61624 1022.22535,1418.53784 981.964819,1420.13789 C941.704291,1421.73794 939.879965,1360 939.879965,1360" id="icon_claim_path"></path>
        </g>
    </g>
</svg>