<?xml version="1.0" encoding="UTF-8"?>
<svg width="371px" height="297px" viewBox="0 0 371 297" version="1.1" xmlns="http://www.w3.org/2000/svg" xmlns:xlink="http://www.w3.org/1999/xlink">
    <!-- Generator: Sketch 46.2 (44496) - http://www.bohemiancoding.com/sketch -->
    <title>icon_claim_repair</title>
    <desc>Created with Sketch.</desc>
    <defs></defs>
    <g id="Claim" stroke="none" stroke-width="1" fill="none" fill-rule="evenodd">
        <g id="Schadenservice" transform="translate(-771.000000, -2815.000000)">
            <g id="icon_claim_repair" transform="translate(771.000000, 2815.000000)">
                <circle id="Oval-2" stroke="#1A2020" transform="translate(107.500000, 196.500000) rotate(-45.000000) translate(-107.500000, -196.500000) " cx="107.5" cy="196.5" r="3.5"></circle>
                <g id="Group-8">
                    <g id="Group-7">
                        <path d="M357.034085,175.45507 C397.752829,60.7010514 344.545633,11.1726992 260.623238,3.18328302 C176.700842,-4.80613318 124.748883,0.187251942 74.2955378,42.131687 C-2.72155834,106.159921 -16.4349852,175.45507 17.414056,228.92651 C18.3025643,230.330089 19.6681611,231.553344 20.8449643,232.878999 C58.1389844,274.890262 119.845654,299.843818 193.702109,277.819465 C267.558565,255.795111 326.951003,260.235548 357.034085,175.45507 Z" id="Path-39-Copy-3" fill="#FAD214" opacity="0.04"></path>
                        <path d="M29.3866511,276.06357 C4.57842456,254.145018 -12.0986731,167.881474 41.3824076,109.783682 C78.8967493,69.0309449 122.165215,26.4366822 171.375428,21.1344648 C220.58564,15.8322473 300.290817,28.1462673 319.284098,78.731414 C346.917779,152.328694 317.967637,211.454819 268.302133,237.498657 C218.636629,263.542494 200.718939,273.259722 179.516615,276.06357 C96.7625237,287.007176 75.8702072,317.132699 29.3866511,276.06357 Z" id="Path-39-Copy-4" fill="#FAD214" opacity="0.04"></path>
                        <path d="M123.861474,64.405426 C193.440578,21.8645517 238.208529,91.4313932 238.208529,122.461207 C238.208529,153.491021 246.786336,198.975961 207.464273,227.06171 C163.395538,258.537767 120.197728,276.636992 76.8498981,263.86853 C45.2473793,254.559747 44.3530758,228.581867 40.2586745,201.537185 C36.1642732,174.492504 81.4104744,90.3600953 123.861474,64.405426 Z" id="Path-39-Copy-5" fill="#FAD214" opacity="0.0399999991"></path>
                        <path d="M207.608358,172.909409 C204.563987,178.772718 199.51051,183.420332 193.362756,185.935186 C190.108526,187.266389 186.547682,188 182.815913,188 C171.223112,188 161.279829,180.920335 157.053835,170.83871 L91.8046226,170.83871 C85.8373943,170.83871 81,165.98737 81,160 C81,154.013946 85.8367378,149.16129 91.8046226,149.16129 L157.053831,149.16129 C161.279829,139.079665 171.223112,132 182.815913,132 C187.53571,132 191.98209,133.173499 195.88054,135.245314 C201.021575,137.977497 205.209722,142.271917 207.815418,147.497474 C208.230728,148.330352 207.815418,147.497474 207.815418,147.497474 C208.435512,148.915212 207.332157,150.064516 205.346754,150.064516 L189.140464,150.064516 C188.143782,150.064516 186.839849,150.695331 186.223239,151.479596 L180.324383,158.982339 C179.709926,159.763866 179.732361,161.008578 180.375781,161.763991 L186.171841,168.568912 C186.814685,169.323649 188.143225,169.935484 189.140464,169.935484 L205.346754,169.935484 C207.330254,169.935484 208.302638,171.423259 207.608358,172.909409 C207.608358,172.909409 208.106842,171.949352 207.608358,172.909409 Z" id="Combined-Shape" stroke="#1A2020" transform="translate(144.500000, 160.000000) rotate(-45.000000) translate(-144.500000, -160.000000) "></path>
                    </g>
                    <path d="M111,222 C141.375661,222 166,216.552183 166,209.831961 C166,204.253801 149.034006,199.552319 125.895545,198.115444 C121.158222,197.821261 95.1753033,198.154865 92.2656289,198.388057 C71.1135155,200.083263 56,204.567134 56,209.831961 C56,216.552183 80.6243388,222 111,222 Z" id="Oval-4-Copy-5" fill="#FAD214" opacity="0.101970109"></path>
                    <path d="M111,215 C127.016258,215 140,211.792661 140,207.836207 C140,204.633759 131.493479,201.922106 119.757652,201.004864 C116.994492,200.788903 111.561577,207.836207 108.509262,207.836207 C102.745647,207.836207 99.8654785,201.087763 95.3510254,201.803903 C87.3204628,203.077812 82,205.303524 82,207.836207 C82,211.792661 94.9837423,215 111,215 Z" id="Oval-4-Copy-6" fill="#FAD214" opacity="0.2"></path>
                </g>
            </g>
        </g>
    </g>
</svg>