<?xml version="1.0" encoding="UTF-8"?>
<svg width="415px" height="354px" viewBox="0 0 415 354" version="1.1" xmlns="http://www.w3.org/2000/svg" xmlns:xlink="http://www.w3.org/1999/xlink">
    <!-- Generator: Sketch 46.2 (44496) - http://www.bohemiancoding.com/sketch -->
    <title>icon_claim_check</title>
    <desc>Created with Sketch.</desc>
    <defs></defs>
    <g id="Claim" stroke="none" stroke-width="1" fill="none" fill-rule="evenodd">
        <g id="Schadenservice" transform="translate(-345.000000, -2213.000000)">
            <g id="icon_claim_check" transform="translate(345.000000, 2213.000000)">
                <path d="M56.5,340 C94.7099035,368.469812 215.906689,346.80353 247.924133,311.720642 C279.941578,276.637754 293.19794,276.449855 310.204876,266.463475 C327.211813,256.477095 367.286183,272.660465 401.711902,215.748364 C436.137621,158.836262 403.880835,36.2310614 247.94813,2.3270131 C215.26173,-4.77990698 139.772521,14.8849492 97.7019391,71 C55.6313573,127.115051 17.0609646,156.760352 6,197.5 C-11.3246519,261.310006 18.2900965,311.530188 56.5,340 Z" id="Path-39-Copy-6" fill="#06C3C3" opacity="0.0399999991"></path>
                <path d="M2.4215987,160.896156 C1.64785195,97.834325 38.0883904,67.8120226 73.4374989,64.7521548 C108.786607,61.692287 163.238417,16.6400053 222.927396,22.530365 C282.616375,28.4207248 392.956373,93.2554637 330.120214,235.657898 C267.284056,378.060332 161.272244,324.223271 105.243099,310.257787 C49.2139537,296.292303 3.19534545,223.957986 2.4215987,160.896156 Z" id="Path-39-Copy-7" fill="#06C3C3" opacity="0.06"></path>
                <path d="M26.8260166,255.301334 C14.8679212,216.447943 12.3746941,184.568123 50.4835944,136.76389 C88.5924947,88.959657 123.536514,71.9198998 174.128205,67.3489871 C224.719896,62.7780744 245.092503,103.600514 250.18334,160.888062 C255.274178,218.17561 247.997848,237.380296 174.128205,267.540091 C100.258561,297.699887 38.7841119,294.154725 26.8260166,255.301334 Z" id="Path-39-Copy-8" fill="#06C3C3" opacity="0.08"></path>
                <path d="M149.422205,231.622788 C182.458813,231.622788 209.240276,225.015272 209.240276,216.864488 C209.240276,211.731358 196.618431,207.210307 180.501697,204.566255 C178.057904,204.165336 176.433738,208.016129 173.755143,208.637404 C171.076548,209.25868 158.498552,215.665882 149.422205,215.665882 C140.465809,215.665882 132.118673,210.562257 124.49076,208.637404 C116.862847,206.712551 120.889633,204.434793 117.545323,205.05418 C103.008211,207.746544 89.604134,212.034563 89.604134,216.864488 C89.604134,225.015272 116.385597,231.622788 149.422205,231.622788 Z" id="Oval-4-Copy-7" fill="#06C3C3" opacity="0.1"></path>
                <path d="M148.307828,223.608887 C169.874417,223.608887 187.357592,220.059281 187.357592,215.680621 C187.357592,213.315475 182.256611,211.192218 174.166422,209.739603 C171.90569,209.333683 168.692886,212.596274 166.011397,213.462357 C163.329907,214.32844 154.969881,215.75152 148.307828,215.75152 C143.82269,215.75152 138.693674,214.972862 134.682279,213.462357 C130.670884,211.951852 126.22756,209.061537 122.456615,209.738278 C114.362148,211.190927 109.258064,213.314756 109.258064,215.680621 C109.258064,220.059281 126.741239,223.608887 148.307828,223.608887 Z" id="Oval-4-Copy-8" fill="#06C3C3" opacity="0.2"></path>
                <path d="M155.598459,173.760071 C154.945638,174.414984 153.892205,174.419999 153.238193,173.763891 L136.245733,156.716984 C132.987255,153.448065 127.700237,153.443294 124.442237,156.711734 C121.18352,159.980892 121.18658,165.281712 124.44747,168.553051 L148.03353,192.214686 C148.734033,192.917433 149.528286,193.469325 150.375977,193.870272 C153.569629,195.73358 157.732109,195.291718 160.468553,192.546507 L213.555397,139.28956 C216.812778,136.021742 216.816067,130.719255 213.558066,127.450815 C210.29935,124.181657 205.016609,124.183574 201.757134,127.453493 L155.598459,173.760071 Z" id="Combined-Shape" stroke="#1A2020"></path>
                <path d="M177.982414,142.88887 C170.340593,135.527101 159.948977,131 148.5,131 C125.027898,131 106,150.027898 106,173.5 C106,196.972102 125.027898,216 148.5,216 L148.5,216 C171.972102,216 191,196.972102 191,173.5 C191,172.003536 190.922657,170.525136 190.771751,169.068579" id="Oval-15" stroke="#1A2020" stroke-linecap="round"></path>
            </g>
        </g>
    </g>
</svg>