<?xml version="1.0" encoding="UTF-8"?>
<svg width="412px" height="323px" viewBox="0 0 412 323" version="1.1" xmlns="http://www.w3.org/2000/svg" xmlns:xlink="http://www.w3.org/1999/xlink">
    <!-- Generator: Sketch 46.2 (44496) - http://www.bohemiancoding.com/sketch -->
    <title>icon_claim_camera@0.85x</title>
    <desc>Created with Sketch.</desc>
    <defs></defs>
    <g id="Claim" stroke="none" stroke-width="1" fill="none" fill-rule="evenodd">
        <g id="Schadenservice" transform="translate(-840.000000, -1644.000000)">
            <g id="icon_claim_camera" transform="translate(840.000000, 1644.000000)">
                <g id="Group-17">
                    <path d="M7.00620313,245.305003 C-15.9338881,173.493621 20.968573,160.528049 66.8467225,79.7408934 C112.724872,-1.0462619 165.981661,36.0517639 215.7205,6.66318655 C265.459338,-22.7253908 452.80615,47.0282687 403.079753,177.878331 C353.353356,308.728394 265.12648,307.36997 202.490801,319.112703 C139.855122,330.855435 29.9462943,317.116385 7.00620313,245.305003 Z" id="Path-39-Copy" fill="#FAD214" opacity="0.04"></path>
                    <path d="M331.06542,237.141925 C340.91673,209.97454 342.031268,135.2777 327.61842,105.68533 C313.205571,76.09296 295.144068,59.8001933 268.811257,51.685897 C228.349677,39.2179059 175.769878,56.4826413 138.035861,89.1000044 C100.301844,121.717367 32.3204552,79.4501805 37.5827974,199.90333 C38.6858824,225.152554 72.1386003,284.404572 119.521238,300.710362 C166.903876,317.016152 197.112624,312.349707 227.871716,310.18923 C276.049301,306.805301 318.497422,271.801244 331.06542,237.141925 Z" id="Path-39" fill="#FAD214" opacity="0.05"></path>
                    <path d="M202.648767,77.9842185 C235.238518,77.9842185 267.074501,113.253063 276.949978,140.057385 C286.825456,166.861707 288.902492,214.057621 262.41832,250.583168 C252.120397,264.78551 227.84112,286.047359 176.290189,296.961755 C124.739259,307.876151 75.0738575,273.349711 62.0407772,231.756381 C45.581648,179.229276 99.6616439,160.278189 134.931206,140.057385 C170.200769,119.836581 170.059016,77.9842185 202.648767,77.9842185 Z" id="Path-39-Copy-2" fill="#FAD214" opacity="0.05"></path>
                    <g id="Group-5" transform="translate(91.000000, 124.000000)">
                        <g id="Group-4" transform="translate(23.000000, 0.000000)" stroke="#1A2020">
                            <path d="M26.1935484,86.8571429 L14.4567071,86.8571429 C6.47248823,86.8571429 0,80.3736272 0,72.381371 L0,23.5233909 C0,15.5286429 6.46473024,9.04761905 14.4556393,9.04761905 L30.7096774,9.04761905 M64.1290323,9.04761905 L97.5443607,9.04761905 C105.52799,9.04761905 112,15.5311347 112,23.5233909 L112,72.381371 C112,80.376119 105.525647,86.8571429 97.5467042,86.8571429 L68.9097782,86.8571429" id="Rectangle-40"></path>
                            <rect id="Rectangle-40" x="79.983871" y="17.6904762" width="23.3870968" height="11.6666667" rx="5.83333333"></rect>
                            <ellipse id="Oval" cx="47.8709677" cy="63.3333333" rx="31.6129032" ry="31.6666667"></ellipse>
                            <ellipse id="Oval-Copy" cx="47.8709677" cy="64.2380952" rx="17.1612903" ry="17.1904762"></ellipse>
                            <path d="M25.2903226,19 L32.0082788,4.86829933 C33.2864324,2.17961185 36.7475231,0 39.7169692,0 L54.2185147,0 C57.1977532,0 60.6490181,2.17954159 61.9272051,4.86829933 L68.6451613,19" id="Rectangle-41" stroke-linecap="round"></path>
                        </g>
                        <path d="M76.8263702,113 C119.256403,113 153.65274,104.269553 153.65274,93.5 C153.65274,88.3948695 145.923611,83.747942 133.273477,80.2719735 C130.882844,79.6150819 130.223176,85.4185941 127.5,85.5 C125.429059,85.5619082 107.909742,86.6863377 91.4927337,87.2214164 C87.4512388,87.3531406 82.6609657,93.4643535 79,93.5 C75.3390343,93.5356465 61.4683339,93.5 60.5,93.5 C52.1072226,93.5 58.9225911,88.0914976 50.304971,87.9038576 C45.2632514,87.7940792 40.5273192,87.4176169 36.5,86.5 C30.0644289,85.0336676 27.5712644,83.1909734 26.5,81.5 C25.4287356,79.8090266 26.2418135,78.8075675 24.2964037,79.2704283 C9.34278214,82.8282619 0,87.8871986 0,93.5 C0,104.269553 34.3963376,113 76.8263702,113 Z" id="Oval-4-Copy-5" fill="#FAD214" opacity="0.1"></path>
                        <path d="M70.4036769,103.840365 C93.327337,103.840365 111.910635,99.3103284 111.910635,93.7222456 C111.910635,90.1860216 104.468858,87.0734977 93.1946642,85.2645253 C90.1786065,84.7805914 89.4954987,88.786849 86,91 C82.5045013,93.213151 74.9401506,94.4875217 70.4036769,94.4875217 C66.1675981,94.4875217 58.3497777,93.0025944 54.5,90.5 C50.6502223,87.9974056 51.1371302,84.7115319 47.989212,85.2048197 C36.504479,87.0045102 28.8967184,90.1468027 28.8967184,93.7222456 C28.8967184,99.3103284 47.4800167,103.840365 70.4036769,103.840365 Z" id="Oval-4-Copy-6" fill="#FAD214" opacity="0.25"></path>
                    </g>
                </g>
            </g>
        </g>
    </g>
</svg>