<?xml version="1.0" encoding="UTF-8"?>
<svg width="365px" height="335px" viewBox="0 0 365 335" version="1.1" xmlns="http://www.w3.org/2000/svg" xmlns:xlink="http://www.w3.org/1999/xlink">
    <!-- Generator: Sketch 40.3 (33839) - http://www.bohemiancoding.com/sketch -->
    <title>Group 45</title>
    <desc>Created with Sketch.</desc>
    <defs>
        <path d="M94.8722179,149.146191 L94.8722179,139.53614 C94.8722179,135.549353 98.1043926,132.317423 102.086376,132.317423 L196.644361,132.317423 C200.628631,132.317423 203.858519,135.545085 203.858519,139.53614 L203.858519,149.146191 C197.662338,149.146191 192.639341,154.169188 192.639341,160.365369 C192.639341,166.56155 197.662338,171.584547 203.858519,171.584547 L203.858519,181.194597 C203.858519,185.181384 200.626345,188.413314 196.644361,188.413314 L102.086376,188.413314 C98.1021066,188.413314 94.8722179,185.185652 94.8722179,181.194597 L94.8722179,171.584547 C101.068399,171.584547 106.091396,166.56155 106.091396,160.365369 C106.091396,154.169188 101.068399,149.146191 94.8722179,149.146191 Z" id="path-1"></path>
        <mask id="mask-2" maskContentUnits="userSpaceOnUse" maskUnits="objectBoundingBox" x="0" y="0" width="108.986301" height="56.0958904" fill="white">
            <use xlink:href="#path-1"></use>
        </mask>
    </defs>
    <g id="Claim" stroke="none" stroke-width="1" fill="none" fill-rule="evenodd">
        <g transform="translate(-159.000000, -1731.000000)" id="Group-32">
            <g transform="translate(159.000000, 1731.000000)">
                <g id="Group-45">
                    <g id="Group-19">
                        <g id="Group-13" fill="#765DFF">
                            <path d="M56.6446586,110.633034 C-7.86992283,188.598401 -13.3931777,243.248577 20.5382553,264.190838 C44.6014411,279.042481 79.8608191,290.902166 123.615089,318.157898 C167.369359,345.41363 240.245535,344.967483 301.290399,271.237001 C422.900996,124.354734 339.68179,27.0866676 298.184296,5.20730644 C256.686801,-16.6720547 121.15924,32.667667 56.6446586,110.633034 Z" id="Path-39-Copy-4" opacity="0.03"></path>
                            <path d="M315.538051,136.121421 C306.11546,76.6295202 209.837017,19.0745545 142.203135,28.4665976 C74.5692533,37.8586406 -14.0291168,137.213755 31.4573805,252.547823 C76.9438777,367.881892 169.142741,317.431719 217.516235,257.062257 C265.88973,196.692796 324.960643,195.613322 315.538051,136.121421 Z" id="Path-39-Copy-4" opacity="0.04"></path>
                            <path d="M138.82152,292.109922 C90.8522222,284.137211 49.7932953,243.630134 40.3530297,170.321617 C30.9127641,97.0131013 175.562463,45.3110063 228.084091,91.507729 C242.246828,103.964921 241.960001,120.78019 242.193038,134.238827 C242.426075,147.697464 210.69069,204.236188 202.246529,224.657574 C190.684645,252.618872 186.790817,300.082633 138.82152,292.109922 Z" id="Path-39-Copy-5" opacity="0.0399999991"></path>
                        </g>
                        <use id="Combined-Shape" stroke="#765DFF" mask="url(#mask-2)" stroke-width="4" transform="translate(149.365369, 160.365369) rotate(-45.000000) translate(-149.365369, -160.365369) " xlink:href="#path-1"></use>
                        <path d="M168,115.904591 L168,167.993632" id="Line" stroke="#765DFF" stroke-width="2" stroke-linecap="round" stroke-linejoin="round" stroke-dasharray="4.800000000000001,7.2" transform="translate(168.000000, 141.949112) rotate(-45.000000) translate(-168.000000, -141.949112) "></path>
                        <path d="M148,145.774742 L148,173.822687" id="Line" stroke="#765DFF" stroke-width="2" stroke-linecap="round" transform="translate(148.000000, 159.798715) rotate(-45.000000) translate(-148.000000, -159.798715) "></path>
                        <path d="M143,151.441283 L143,179.489228" id="Line-Copy" stroke="#765DFF" stroke-width="2" stroke-linecap="round" transform="translate(143.000000, 165.465255) rotate(-45.000000) translate(-143.000000, -165.465255) "></path>
                        <path d="M137.666667,164.43751 L137.666667,177.259428" id="Line-Copy-2" stroke="#765DFF" stroke-width="2" stroke-linecap="round" transform="translate(138.000000, 170.848469) rotate(-45.000000) translate(-138.000000, -170.848469) "></path>
                    </g>
                    <g id="Group-6" transform="translate(78.000000, 204.000000)" fill="#765DFF">
                        <path d="M51.4222048,30.1494003 C79.4304778,30.1494003 102.135669,23.4422005 102.135669,15.1684502 C102.135669,8.28366398 86.4139056,2.48360487 64.9972637,0.730252866 C63.1173912,0.576350201 61.4608458,3.88393522 59.5,6 C57.5391542,8.11606478 54.0783771,10.5 51.4222048,10.5 C49.6198757,10.5 44.2537729,5.98185583 42.5,3 C40.7462271,0.0181441699 44.5657875,0.321552724 43.8137368,0.3549771 C19.414863,1.43936824 0.708740479,7.65859237 0.708740479,15.1684502 C0.708740479,23.4422005 23.4139319,30.1494003 51.4222048,30.1494003 Z" id="Oval-4-Copy-5" opacity="0.05"></path>
                        <path d="M51.6801297,17.9283016 C66.8121504,17.9283016 79.0790769,14.9463012 79.0790769,11.2678173 C79.0790769,8.34519181 71.3354511,5.86222887 60.563674,4.9652259 C57.7778434,4.73324021 54.7894722,11.2678173 51.6801297,11.2678173 C49.2358217,11.2678173 46.8662715,4.68514115 44.611106,4.83112468 C32.9051792,5.58888395 24.2811826,8.18352679 24.2811826,11.2678173 C24.2811826,14.9463012 36.5481091,17.9283016 51.6801297,17.9283016 Z" id="Oval-4-Copy-6" opacity="0.1"></path>
                    </g>
                </g>
            </g>
        </g>
    </g>
</svg>