<?xml version="1.0" encoding="UTF-8"?>
<svg width="270px" height="212px" viewBox="0 0 270 212" version="1.1" xmlns="http://www.w3.org/2000/svg" xmlns:xlink="http://www.w3.org/1999/xlink">
    <!-- Generator: Sketch 40.3 (33839) - http://www.bohemiancoding.com/sketch -->
    <title>Group 37</title>
    <desc>Created with Sketch.</desc>
    <defs>
        <rect id="path-1" x="79.483871" y="17.1904762" width="24.3870968" height="12.6666667" rx="6.33333333"></rect>
        <mask id="mask-2" maskContentUnits="userSpaceOnUse" maskUnits="objectBoundingBox" x="0" y="0" width="24.3870968" height="12.6666667" fill="white">
            <use xlink:href="#path-1"></use>
        </mask>
    </defs>
    <g id="Claim" stroke="none" stroke-width="1" fill="none" fill-rule="evenodd">
        <g id="Artboard-2-Copy-6" transform="translate(-49.000000, -1719.000000)">
            <g id="Group-37" transform="translate(49.000000, 1719.000000)">
                <g id="Group-36" fill="#0FE1C3" opacity="0.03">
                    <g id="Group-17">
                        <path d="M4.59119685,160.522716 C-10.4415495,113.530776 13.7408014,105.046363 43.8049619,52.1808551 C73.8691224,-0.684652982 108.768539,23.5915574 141.362627,4.36025679 C173.956714,-14.8710439 296.725934,30.774364 264.139999,116.400043 C231.554065,202.025722 173.738591,201.136797 132.693145,208.821008 C91.6476986,216.505218 19.6239432,207.514657 4.59119685,160.522716 Z" id="Path-39-Copy"></path>
                        <path d="M217.50959,155.018785 C223.965198,137.240989 224.69556,88.360862 215.250755,68.9962035 C205.80595,49.631545 193.970164,38.9698824 176.714153,33.6600483 C150.199495,25.5012428 115.743714,36.7989424 91.0164403,58.1430963 C66.2891668,79.4872501 21.7406531,51.8284434 25.18909,130.650589 C25.9119466,147.17318 47.8336651,185.946522 78.8837238,196.616707 C109.933782,207.286892 129.729713,204.233263 149.886286,202.819489 C181.457277,200.605114 209.273724,177.699155 217.50959,155.018785 Z" id="Path-39"></path>
                    </g>
                </g>
                <g id="Group-5" transform="translate(58.000000, 69.000000)">
                    <g id="Group-4" transform="translate(23.000000, 0.000000)" stroke="#0FE1C3">
                        <path d="M26.1935484,86.8571429 L14.4567071,86.8571429 C6.47248823,86.8571429 0,80.3736272 0,72.381371 L0,23.5233909 C0,15.5286429 6.46473024,9.04761905 14.4556393,9.04761905 L30.7096774,9.04761905 M64.1290323,9.04761905 L97.5443607,9.04761905 C105.52799,9.04761905 112,15.5311347 112,23.5233909 L112,72.381371 C112,80.376119 105.525647,86.8571429 97.5467042,86.8571429 L68.9097782,86.8571429" id="Rectangle-40"></path>
                        <use id="Rectangle-40" mask="url(#mask-2)" stroke-width="2" xlink:href="#path-1"></use>
                        <ellipse id="Oval" cx="47.8709677" cy="63.3333333" rx="31.6129032" ry="31.6666667"></ellipse>
                        <ellipse id="Oval-Copy" cx="47.8709677" cy="64.2380952" rx="17.1612903" ry="17.1904762"></ellipse>
                        <path d="M25.2903226,19 L32.0082788,4.86829933 C33.2864324,2.17961185 36.7475231,0 39.7169692,0 L54.2185147,0 C57.1977532,0 60.6490181,2.17954159 61.9272051,4.86829933 L68.6451613,19" id="Rectangle-41" stroke-linecap="round"></path>
                    </g>
                    <path d="M76.8263702,113 C119.256403,113 153.65274,104.269553 153.65274,93.5 C153.65274,88.3948695 145.923611,83.747942 133.273477,80.2719735 C130.882844,79.6150819 130.223176,85.4185941 127.5,85.5 C125.429059,85.5619082 107.909742,86.6863377 91.4927337,87.2214164 C87.4512388,87.3531406 82.6609657,93.4643535 79,93.5 C75.3390343,93.5356465 61.4683339,93.5 60.5,93.5 C52.1072226,93.5 58.9225911,88.0914976 50.304971,87.9038576 C45.2632514,87.7940792 40.5273192,87.4176169 36.5,86.5 C30.0644289,85.0336676 27.5712644,83.1909734 26.5,81.5 C25.4287356,79.8090266 26.2418135,78.8075675 24.2964037,79.2704283 C9.34278214,82.8282619 0,87.8871986 0,93.5 C0,104.269553 34.3963376,113 76.8263702,113 Z" id="Oval-4-Copy-5" fill="#0FE1C3" opacity="0.05"></path>
                    <path d="M70.4036769,103.840365 C93.327337,103.840365 111.910635,99.3103284 111.910635,93.7222456 C111.910635,90.1860216 104.468858,87.0734977 93.1946642,85.2645253 C90.1786065,84.7805914 89.4954987,88.786849 86,91 C82.5045013,93.213151 74.9401506,94.4875217 70.4036769,94.4875217 C66.1675981,94.4875217 58.3497777,93.0025944 54.5,90.5 C50.6502223,87.9974056 51.1371302,84.7115319 47.989212,85.2048197 C36.504479,87.0045102 28.8967184,90.1468027 28.8967184,93.7222456 C28.8967184,99.3103284 47.4800167,103.840365 70.4036769,103.840365 Z" id="Oval-4-Copy-6" fill="#0FE1C3" opacity="0.1"></path>
                </g>
            </g>
        </g>
    </g>
</svg>