<?xml version="1.0" encoding="UTF-8"?>
<svg width="222px" height="214px" viewBox="0 0 222 214" version="1.1" xmlns="http://www.w3.org/2000/svg" xmlns:xlink="http://www.w3.org/1999/xlink">
    <!-- Generator: Sketch 40.3 (33839) - http://www.bohemiancoding.com/sketch -->
    <title>Group 14 Copy</title>
    <desc>Created with Sketch.</desc>
    <defs></defs>
    <g id="Claim" stroke="none" stroke-width="1" fill="none" fill-rule="evenodd">
        <g id="Artboard-2-Copy-6" transform="translate(-77.000000, -2685.000000)">
            <g id="Group-14-Copy" transform="translate(77.000000, 2685.000000)">
                <path d="M45.4217775,209.697357 C22.0416605,202.089551 -13.7165003,151.149407 7.16895555,100.056895 C21.8190733,64.2180166 36.8423056,33.4299182 69.5523235,17.2692344 C102.262341,1.10855059 146.137229,-7.70224539 174.518694,9.54620058 C222.773189,38.872208 233.719133,105.484252 206.504154,135.051381 C179.289176,164.618509 154.678896,164.7968 140.731235,172.092409 C86.2925809,200.56766 89.2294628,223.952221 45.4217775,209.697357 Z" id="Path-39-Copy-4" fill="#F478A2" opacity="0.04"></path>
                <path d="M92.8042383,32.0843584 C146.561318,-0.794294477 181.149207,52.9719731 181.149207,76.9540493 C181.149207,100.936126 187.776453,136.090164 157.396079,157.796855 C123.348406,182.123819 89.9736143,196.112205 56.4829162,186.243817 C32.0666902,179.049319 31.3757478,158.971741 28.2123978,138.069663 C25.0490478,117.167584 60.0064347,52.1439969 92.8042383,32.0843584 Z" id="Path-39-Copy-5" fill="#F478A2" opacity="0.0399999991"></path>
                <ellipse id="Oval-2" stroke="#F478A2" transform="translate(71.878388, 142.621612) rotate(-45.000000) translate(-71.878388, -142.621612) " cx="71.8783882" cy="142.621612" rx="3.60283688" ry="3.61290323"></ellipse>
                <path d="M171.570411,118.925184 C168.52711,124.788493 163.475408,129.436107 157.329814,131.950961 C154.076727,133.282164 150.517135,134.015775 146.786676,134.015775 C135.197949,134.015775 125.258158,126.93611 121.033649,116.854485 L55.8073609,116.854485 C49.8422291,116.854485 45.0065343,112.003145 45.0065343,106.015775 C45.0065343,100.029721 49.8415728,95.1770655 55.8073609,95.1770655 L121.033646,95.1770655 C125.258158,85.0954402 135.197949,78.0157751 146.786676,78.0157751 C151.504815,78.0157751 155.949633,79.1892741 159.846713,81.2610896 C164.985943,83.9932725 169.172617,88.2876918 171.777398,93.5132492 C172.192562,94.3461273 171.777398,93.5132492 171.777398,93.5132492 C172.397275,94.9309874 171.294307,96.0802913 169.309602,96.0802913 L153.109005,96.0802913 C152.112674,96.0802913 150.809199,96.7111062 150.192805,97.4953716 L144.296022,104.998114 C143.68178,105.779641 143.704208,107.024353 144.347402,107.779767 L150.141425,114.584687 C150.784043,115.339424 152.112117,115.951259 153.109005,115.951259 L169.309602,115.951259 C171.292405,115.951259 172.264447,117.439034 171.570411,118.925184 C171.570411,118.925184 172.06872,117.965127 171.570411,118.925184 Z" id="Combined-Shape" stroke="#F478A2" transform="translate(108.484225, 106.015775) rotate(-45.000000) translate(-108.484225, -106.015775) "></path>
                <path d="M92.1536473,167.142476 C122.614166,167.142476 147.307295,161.67023 147.307295,154.919873 C147.307295,149.316699 130.293904,144.594135 107.090805,143.150816 C102.340247,142.855314 76.2847429,143.190414 73.3669401,143.424652 C52.1557364,145.12746 37,149.631438 37,154.919873 C37,161.67023 61.693129,167.142476 92.1536473,167.142476 Z" id="Oval-4-Copy-5" fill="#F478A2" opacity="0.101970109"></path>
                <path d="M75,160.77701 C91.0162577,160.77701 104,157.620756 104,153.727321 C104,150.575881 95.4934791,147.907419 83.7576518,147.004787 C80.994492,146.792265 75.5615774,153.727321 72.5092621,153.727321 C66.7456468,153.727321 63.8654785,147.086365 59.3510254,147.791098 C51.3204628,149.044717 46,151.234978 46,153.727321 C46,157.620756 58.9837423,160.77701 75,160.77701 Z" id="Oval-4-Copy-6" fill="#F478A2" opacity="0.227717391"></path>
            </g>
        </g>
    </g>
</svg>