<?xml version="1.0" encoding="UTF-8"?>
<svg width="234px" height="210px" viewBox="0 0 234 210" version="1.1" xmlns="http://www.w3.org/2000/svg" xmlns:xlink="http://www.w3.org/1999/xlink">
    <!-- Generator: Sketch 40.3 (33839) - http://www.bohemiancoding.com/sketch -->
    <title>Group 15 Copy</title>
    <desc>Created with Sketch.</desc>
    <defs></defs>
    <g id="Claim" stroke="none" stroke-width="1" fill="none" fill-rule="evenodd">
        <g id="Artboard-2-Copy-6" transform="translate(-70.000000, -2215.000000)">
            <g id="Group-15-Copy" transform="translate(70.000000, 2215.000000)">
                <g id="Group-11">
                    <g id="Group-21">
                        <path d="M0.143363143,116.643955 C-0.388949534,73.2594605 33.5,49 61,43.5 C88.5,38 109.935918,-3.55237655 151,0.5 C192.064082,4.55237655 263.683594,45.0214488 220.454354,142.989706 C177.225114,240.957964 104.292424,203.919812 65.7461891,194.312012 C27.1999537,184.704211 0.67567582,160.02845 0.143363143,116.643955 Z" id="Path-39-Copy-7" fill="#FAD214" opacity="0.06"></path>
                        <path d="M47.1277562,163.612432 C38.0013105,133.959435 36.0984739,109.628684 65.1832737,73.1443838 C94.2680736,36.6600839 120.937429,23.6553022 159.549123,20.1667712 C198.160817,16.6782402 213.709238,47.8340192 217.594576,91.5560071 C221.479915,135.277995 215.926604,149.935055 159.549123,172.95308 C103.171642,195.971104 56.2542019,193.265429 47.1277562,163.612432 Z" id="Path-39-Copy-8" fill="#FAD214" opacity="0.08"></path>
                        <path d="M110.422205,166.622788 C143.458813,166.622788 170.240276,160.015272 170.240276,151.864488 C170.240276,146.731358 157.618431,142.210307 141.501697,139.566255 C139.057904,139.165336 137.433738,143.016129 134.755143,143.637404 C132.076548,144.25868 119.498552,150.665882 110.422205,150.665882 C101.465809,150.665882 93.118673,145.562257 85.49076,143.637404 C77.862847,141.712551 81.8896332,139.434793 78.5453233,140.05418 C64.0082112,142.746544 50.604134,147.034563 50.604134,151.864488 C50.604134,160.015272 77.3855966,166.622788 110.422205,166.622788 Z" id="Oval-4-Copy-7" fill="#FAD214" opacity="0.1"></path>
                        <path d="M109.307828,158.608887 C130.874417,158.608887 148.357592,155.059281 148.357592,150.680621 C148.357592,148.315475 143.256611,146.192218 135.166422,144.739603 C132.90569,144.333683 129.692886,147.596274 127.011397,148.462357 C124.329907,149.32844 115.969881,150.75152 109.307828,150.75152 C104.82269,150.75152 99.6936743,149.972862 95.6822791,148.462357 C91.6708839,146.951852 87.22756,144.061537 83.4566153,144.738278 C75.3621478,146.190927 70.2580643,148.314756 70.2580643,150.680621 C70.2580643,155.059281 87.7412391,158.608887 109.307828,158.608887 Z" id="Oval-4-Copy-8" fill="#FAD214" opacity="0.2"></path>
                        <g id="Group-24" transform="translate(67.000000, 60.000000)" stroke="#FAD214">
                            <path d="M49.5984593,48.7600707 C48.9456381,49.4149837 47.8922048,49.4199988 47.238193,48.7638913 L30.2457332,31.7169838 C26.9872552,28.448065 21.7002374,28.4432942 18.4422371,31.7117339 C15.1835204,34.9808922 15.1865797,40.2817119 18.4474703,43.553051 L42.0335297,67.2146855 C42.7340326,67.917433 43.528286,68.4693253 44.3759766,68.8702724 C47.5696292,70.73358 51.7321094,70.2917183 54.4685527,67.5465069 L107.555397,14.2895603 C110.812778,11.0217424 110.816067,5.71925493 107.558066,2.45081523 C104.29935,-0.818343112 99.0166087,-0.816425535 95.7571341,2.45349313 L49.5984593,48.7600707 Z" id="Combined-Shape"></path>
                            <path d="M71.9824137,17.8888704 C64.3405928,10.5271014 53.948977,6 42.5,6 C19.0278981,6 0,25.0278981 0,48.5 C0,71.9721019 19.0278981,91 42.5,91 C65.9721019,91 85,71.9721019 85,48.5 C85,47.0035356 84.9226572,45.5251355 84.771751,44.0685791" id="Oval-15" stroke-linecap="round"></path>
                        </g>
                    </g>
                </g>
            </g>
        </g>
    </g>
</svg>