<?xml version="1.0" encoding="UTF-8"?>
<svg width="372px" height="297px" viewBox="0 0 372 297" version="1.1" xmlns="http://www.w3.org/2000/svg" xmlns:xlink="http://www.w3.org/1999/xlink">
    <!-- Generator: Sketch 40.3 (33839) - http://www.bohemiancoding.com/sketch -->
    <title>Group 43</title>
    <desc>Created with Sketch.</desc>
    <defs></defs>
    <g id="Claim" stroke="none" stroke-width="1" fill="none" fill-rule="evenodd">
        <g transform="translate(-695.000000, -3449.000000)" id="Group-14">
            <g transform="translate(695.000000, 3449.000000)">
                <g id="Group-43">
                    <path d="M358,176 C398.756397,61.0939638 345.5,11.5 261.5,3.5 C177.5,-4.5 125.5,0.5 75,42.5 C-2.08831499,106.613054 -15.8144228,176 18.065919,229.542275 C18.955249,230.947714 20.3221085,232.172589 21.5,233.5 C58.8285064,275.566917 120.592237,300.55353 194.516989,278.5 C268.44174,256.44647 327.889099,260.892789 358,176 Z" id="Path-39-Copy-3" fill="#F478A2" opacity="0.04"></path>
                    <path d="M30.5,276 C5.6829973,254.118342 -11,168 42.5,110 C80.0276127,69.3158591 123.311385,26.7932926 172.539006,21.5 C221.766627,16.2067074 301.5,28.5 320.5,79 C348.143457,152.473399 319.183074,211.5 269.5,237.5 C219.816926,263.5 201.892898,273.200872 180.683074,276 C97.8997073,286.925185 77,317 30.5,276 Z" id="Path-39-Copy-4" fill="#F478A2" opacity="0.04"></path>
                    <path d="M125.012027,64 C194.500151,21.5 239.209564,91 239.209564,122 C239.209564,153 247.776154,198.441236 208.505509,226.5 C164.494397,257.945814 121.353071,276.027649 78.0619221,263.271455 C46.5007261,253.971616 45.6075919,228.018696 41.5185444,201 C37.4294968,173.981304 82.616535,89.9297315 125.012027,64 Z" id="Path-39-Copy-5" fill="#F478A2" opacity="0.0399999991"></path>
                    <ellipse id="Oval-2" stroke="#F478A2" stroke-width="2" transform="translate(108.878388, 196.621612) rotate(-45.000000) translate(-108.878388, -196.621612) " cx="108.878388" cy="196.621612" rx="3.60283688" ry="3.61290323"></ellipse>
                    <path d="M208.570411,172.925184 C205.52711,178.788493 200.475408,183.436107 194.329814,185.950961 C191.076727,187.282164 187.517135,188.015775 183.786676,188.015775 C172.197949,188.015775 162.258158,180.93611 158.033649,170.854485 L92.8073609,170.854485 C86.8422291,170.854485 82.0065343,166.003145 82.0065343,160.015775 C82.0065343,154.029721 86.8415728,149.177065 92.8073609,149.177065 L158.033646,149.177065 C162.258158,139.09544 172.197949,132.015775 183.786676,132.015775 C188.504815,132.015775 192.949633,133.189274 196.846713,135.26109 C201.985943,137.993272 206.172617,142.287692 208.777398,147.513249 C209.192562,148.346127 208.777398,147.513249 208.777398,147.513249 C209.397275,148.930987 208.294307,150.080291 206.309602,150.080291 L190.109005,150.080291 C189.112674,150.080291 187.809199,150.711106 187.192805,151.495372 L181.296022,158.998114 C180.68178,159.779641 180.704208,161.024353 181.347402,161.779767 L187.141425,168.584687 C187.784043,169.339424 189.112117,169.951259 190.109005,169.951259 L206.309602,169.951259 C208.292405,169.951259 209.264447,171.439034 208.570411,172.925184 C208.570411,172.925184 209.06872,171.965127 208.570411,172.925184 Z" id="Combined-Shape" stroke="#F478A2" stroke-width="2" transform="translate(145.484225, 160.015775) rotate(-45.000000) translate(-145.484225, -160.015775) "></path>
                    <path d="M129.153647,221.142476 C159.614166,221.142476 184.307295,215.67023 184.307295,208.919873 C184.307295,203.316699 167.293904,198.594135 144.090805,197.150816 C139.340247,196.855314 113.284743,197.190414 110.36694,197.424652 C89.1557364,199.12746 74,203.631438 74,208.919873 C74,215.67023 98.693129,221.142476 129.153647,221.142476 Z" id="Oval-4-Copy-5" fill="#F478A2" opacity="0.101970109"></path>
                    <path d="M112,214.77701 C128.016258,214.77701 141,211.620756 141,207.727321 C141,204.575881 132.493479,201.907419 120.757652,201.004787 C117.994492,200.792265 112.561577,207.727321 109.509262,207.727321 C103.745647,207.727321 100.865478,201.086365 96.3510254,201.791098 C88.3204628,203.044717 83,205.234978 83,207.727321 C83,211.620756 95.9837423,214.77701 112,214.77701 Z" id="Oval-4-Copy-6" fill="#F478A2" opacity="0.227717391"></path>
                </g>
            </g>
        </g>
    </g>
</svg>