<?xml version="1.0" encoding="UTF-8"?>
<svg width="243px" height="238px" viewBox="0 0 243 238" version="1.1" xmlns="http://www.w3.org/2000/svg" xmlns:xlink="http://www.w3.org/1999/xlink">
    <!-- Generator: Sketch 40.3 (33839) - http://www.bohemiancoding.com/sketch -->
    <title>Group 12</title>
    <desc>Created with Sketch.</desc>
    <defs>
        <path d="M14,47.5 L14,38.0776921 C14,34.1687907 17.2029242,31 21.1488716,31 L114.851128,31 C118.799341,31 122,34.1646062 122,38.0776921 L122,47.5 C115.859893,47.5 110.882353,52.4248678 110.882353,58.5 C110.882353,64.5751322 115.859893,69.5 122,69.5 L122,78.9223079 C122,82.8312093 118.797076,86 114.851128,86 L21.1488716,86 C17.2006588,86 14,82.8353938 14,78.9223079 L14,69.5 C20.1401069,69.5 25.1176471,64.5751322 25.1176471,58.5 C25.1176471,52.4248678 20.1401069,47.5 14,47.5 Z" id="path-1"></path>
        <mask id="mask-2" maskContentUnits="userSpaceOnUse" maskUnits="objectBoundingBox" x="0" y="0" width="108" height="55" fill="white">
            <use xlink:href="#path-1"></use>
        </mask>
    </defs>
    <g id="Claim" stroke="none" stroke-width="1" fill="none" fill-rule="evenodd">
        <g id="Artboard-2-Copy-6" transform="translate(-64.000000, -1221.000000)">
            <g id="Group-12" transform="translate(64.000000, 1221.000000)">
                <path d="M241.557613,87.7784884 C233.90854,39.8213974 155.751605,-6.57430842 100.847757,0.996723192 C45.9439095,8.56775481 -25.9784948,88.6590307 10.9465439,181.631122 C47.8715826,274.603213 122.716796,233.934761 161.985442,185.270258 C201.254088,136.605755 249.206686,135.735579 241.557613,87.7784884 Z" id="Path-39-Copy-4" fill="#765DFF" opacity="0.02"></path>
                <path d="M78.583516,202.806482 C47.1513298,178.829878 33.0885198,134.225457 54.2527852,78.2162102 C75.4170505,22.2069629 199.076239,40.3541516 219.207251,93.3937526 C224.635686,107.696163 218.018892,119.609085 213.055369,129.320227 C208.091846,139.031368 163.731258,167.362873 149.877637,178.746045 C130.909031,194.332072 110.015702,226.783085 78.583516,202.806482 Z" id="Path-39-Copy-5" fill="#765DFF" opacity="0.02"></path>
                <g id="Group-5" transform="translate(54.000000, 50.000000)">
                    <use id="Combined-Shape" stroke="#765DFF" mask="url(#mask-2)" stroke-width="2" transform="translate(68.000000, 58.500000) rotate(-45.000000) translate(-68.000000, -58.500000) " xlink:href="#path-1"></use>
                    <path d="M85.9142136,14.4142136 L85.9142136,68.9055916" id="Line" stroke="#765DFF" stroke-linecap="round" stroke-linejoin="round" stroke-dasharray="5,7" transform="translate(85.914214, 41.914214) rotate(-45.000000) translate(-85.914214, -41.914214) "></path>
                    <path d="M67.5,45.3888889 L67.5,72.6111111" id="Line" stroke="#765DFF" stroke-linecap="round" transform="translate(67.500000, 59.000000) rotate(-45.000000) translate(-67.500000, -59.000000) "></path>
                    <path d="M62.5,50.3888889 L62.5,77.6111111" id="Line-Copy" stroke="#765DFF" stroke-linecap="round" transform="translate(62.500000, 64.000000) rotate(-45.000000) translate(-62.500000, -64.000000) "></path>
                    <path d="M56.3333333,62 L56.3333333,75" id="Line-Copy-2" stroke="#765DFF" stroke-linecap="round" transform="translate(56.500000, 68.500000) rotate(-45.000000) translate(-56.500000, -68.500000) "></path>
                    <g id="Group-6" transform="translate(0.693240, 102.889975)" fill="#765DFF">
                        <path d="M48.3541337,28.187047 C74.6913119,28.187047 96.0418134,21.9164029 96.0418134,14.1811715 C96.0418134,7.74449982 81.2580782,2.32195288 61.1192458,0.682722429 C59.3515346,0.538836925 57.7938259,3.63113903 55.9499726,5.60947415 C54.1061194,7.58780926 50.8518273,9.81657975 48.3541337,9.81657975 C46.6593393,9.81657975 41.6134014,5.59251094 39.9642662,2.80473707 C38.315131,0.0169632086 41.9067999,0.300623615 41.1996198,0.331872477 C18.2564883,1.34568316 0.666453956,7.16011264 0.666453956,14.1811715 C0.666453956,21.9164029 22.0169554,28.187047 48.3541337,28.187047 Z" id="Oval-4-Copy-5" opacity="0.05"></path>
                        <path d="M48.5966697,16.7613908 C62.8258486,16.7613908 74.3608772,13.9734817 74.3608772,10.5344216 C74.3608772,7.80202295 67.0792696,5.48067021 56.9501832,4.64205106 C54.3305674,4.42516476 51.5204953,10.5344216 48.5966697,10.5344216 C46.2981996,10.5344216 44.070027,4.38019636 41.9494145,4.51667817 C30.9419139,5.22511667 22.8324622,7.65088033 22.8324622,10.5344216 C22.8324622,13.9734817 34.3674908,16.7613908 48.5966697,16.7613908 Z" id="Oval-4-Copy-6" opacity="0.1"></path>
                    </g>
                </g>
            </g>
        </g>
    </g>
</svg>