<?xml version="1.0" encoding="UTF-8"?>
<svg width="819px" height="1737px" viewBox="0 0 819 1737" version="1.1" xmlns="http://www.w3.org/2000/svg" xmlns:xlink="http://www.w3.org/1999/xlink">
    <!-- Generator: Sketch 46.2 (44496) - http://www.bohemiancoding.com/sketch -->
    <title>path_all</title>
    <desc>Created with Sketch.</desc>
    <defs></defs>
    <g id="Claim" stroke="none" stroke-width="1" fill="none" fill-rule="evenodd">
        <g id="Schadenservice" transform="translate(-480.000000, -1229.000000)">
            <g id="path_all" transform="translate(481.000000, 1229.000000)">
                <path d="M271.290235,1734.53072 C183.32827,1739.16279 -18.6013944,1709.09573 1.38197541,1662.40839 C29.4462589,1596.84153 41.8868436,1624.59827 90.3203651,1603.79775 C138.753887,1582.99722 103.899857,1543.20492 159.575774,1513.3607 C215.251692,1483.51647 392.237738,1585.33989 392.237738,1436.57094 C392.237738,1367.02464 458.863029,1331.60174 527.580009,1328.86912 C596.296988,1326.1365 633.914945,1358.43818 694.60776,1322.53853 C763.41052,1281.84185 822.254986,1294.50304 815.46524,1236.17114 C808.675494,1177.83925 633.952696,1208.58784 643.458341,1139.85569 C645.256353,1126.85486 631.086152,1106.77425 595.425417,1091.28683 M495.15164,1058.27697 C406.870237,1033.34019 335.352145,1030.22438 312.866826,997.613945 C274.792656,942.39502 362.272595,953.257759 330.54412,886.72348 C298.815644,820.189202 78.5312429,902.589256 69.4640938,784.885299 C64.9314545,726.04546 200.457371,759.538907 200.457371,712.014422 C200.457371,664.489937 122.949238,712.014422 99.8327774,677.163133 M31.696063,621.146402 C-3.14838659,601.25116 2.28191724,549.252234 22.1930313,532.974309 C117.114193,455.373451 230.66044,527.301507 279.679938,513.531232 C328.699437,499.760958 367.46985,394.159784 440.326427,389.638138 C539.43756,383.487074 445.667684,304.345476 532.299533,291.149084 C618.931381,277.952692 617.366388,293.551046 672.01939,300.561716 C738.993138,309.152843 784.776544,270.191773 743.065865,225.050232 C701.355186,179.908691 669.408358,293.334655 594.637561,225.050232 C552.552706,186.616243 541.225348,189.537841 500.964819,191.137889 C460.704291,192.737937 458.879965,131 458.879965,131" id="Path-6-Copy" stroke="#06C3C3" stroke-width="3" stroke-linecap="round" stroke-linejoin="round" stroke-dasharray="5,15"></path>
                <g id="Group-23" transform="translate(401.000000, 0.000000)">
                    <ellipse id="Oval-4-Copy-4" fill="#B3B3B3" opacity="0.15" cx="48" cy="106.66845" rx="48" ry="11.6684502"></ellipse>
                    <ellipse id="Oval-4-Copy-4" fill="#B3B3B3" opacity="0.5" cx="47.2328163" cy="104.91845" rx="20.2328163" ry="4.91845017"></ellipse>
                    <path d="M45.7027926,95.9865469 C45.7027926,95.9865469 11.7272727,57.2637072 11.7272727,35.238292 C11.7272727,13.2128768 29.3636364,0.5 47,0.5 C64.6363636,0.5 82.2727273,13.8608815 82.2727273,35.238292 C82.2727273,56.6157025 48.2866909,95.9763107 48.2866909,95.9763107 C47.5827951,96.8150395 46.4192205,96.822404 45.7027926,95.9865469 Z M47,45.9269972 C54.4925344,45.9269972 60.5664336,39.9451268 60.5664336,32.5661157 C60.5664336,25.1871046 54.4925344,19.2052342 47,19.2052342 C39.5074656,19.2052342 33.4335664,25.1871046 33.4335664,32.5661157 C33.4335664,39.9451268 39.5074656,45.9269972 47,45.9269972 Z" id="Combined-Shape-Copy-4" fill="#06C3C3"></path>
                </g>
                <g id="Group-23" transform="translate(506.000000, 1023.000000)">
                    <ellipse id="Oval-4-Copy-4" fill="#B3B3B3" opacity="0.15" cx="48" cy="106.66845" rx="48" ry="11.6684502"></ellipse>
                    <ellipse id="Oval-4-Copy-4" fill="#B3B3B3" opacity="0.5" cx="47.2328163" cy="104.91845" rx="20.2328163" ry="4.91845017"></ellipse>
                    <path d="M45.7027926,95.9865469 C45.7027926,95.9865469 11.7272727,57.2637072 11.7272727,35.238292 C11.7272727,13.2128768 29.3636364,0.5 47,0.5 C64.6363636,0.5 82.2727273,13.8608815 82.2727273,35.238292 C82.2727273,56.6157025 48.2866909,95.9763107 48.2866909,95.9763107 C47.5827951,96.8150395 46.4192205,96.822404 45.7027926,95.9865469 Z M47,45.9269972 C54.4925344,45.9269972 60.5664336,39.9451268 60.5664336,32.5661157 C60.5664336,25.1871046 54.4925344,19.2052342 47,19.2052342 C39.5074656,19.2052342 33.4335664,25.1871046 33.4335664,32.5661157 C33.4335664,39.9451268 39.5074656,45.9269972 47,45.9269972 Z" id="Combined-Shape-Copy-4" fill="#06C3C3"></path>
                </g>
                <g id="Group-23" transform="translate(27.000000, 604.000000)">
                    <ellipse id="Oval-4-Copy-4" fill="#B3B3B3" opacity="0.15" cx="48" cy="106.66845" rx="48" ry="11.6684502"></ellipse>
                    <ellipse id="Oval-4-Copy-4" fill="#B3B3B3" opacity="0.5" cx="47.2328163" cy="104.91845" rx="20.2328163" ry="4.91845017"></ellipse>
                    <path d="M45.7027926,95.9865469 C45.7027926,95.9865469 11.7272727,57.2637072 11.7272727,35.238292 C11.7272727,13.2128768 29.3636364,0.5 47,0.5 C64.6363636,0.5 82.2727273,13.8608815 82.2727273,35.238292 C82.2727273,56.6157025 48.2866909,95.9763107 48.2866909,95.9763107 C47.5827951,96.8150395 46.4192205,96.822404 45.7027926,95.9865469 Z M47,45.9269972 C54.4925344,45.9269972 60.5664336,39.9451268 60.5664336,32.5661157 C60.5664336,25.1871046 54.4925344,19.2052342 47,19.2052342 C39.5074656,19.2052342 33.4335664,25.1871046 33.4335664,32.5661157 C33.4335664,39.9451268 39.5074656,45.9269972 47,45.9269972 Z" id="Combined-Shape-Copy-4" fill="#FAD214"></path>
                </g>
            </g>
        </g>
    </g>
</svg>