<?xml version="1.0" encoding="UTF-8"?>
<svg width="964px" height="1940px" viewBox="0 0 964 1940" version="1.1" xmlns="http://www.w3.org/2000/svg" xmlns:xlink="http://www.w3.org/1999/xlink">
    <!-- Generator: Sketch 40.3 (33839) - http://www.bohemiancoding.com/sketch -->
    <title>Group 44</title>
    <desc>Created with Sketch.</desc>
    <defs></defs>
    <g id="Claim" stroke="none" stroke-width="1" fill="none" fill-rule="evenodd">
        <g transform="translate(-226.000000, -1825.000000)" id="Group-44">
            <g transform="translate(227.000000, 1825.000000)">
                <path d="M258,1886.5 C258,1901 255.5,1938.5 217,1938.5 C178.5,1938.5 140.097969,1879.39355 99,1861.5 C57.9020308,1843.60645 -17.5737673,1861.12413 4.5,1809.5 C35.5,1737 106,1780.5 159.5,1757.5 C213,1734.5 174.5,1690.5 236,1657.5 C297.5,1624.5 493,1737.09038 493,1572.59038 C493,1495.69014 566.594753,1456.52157 642.5,1453.5 C718.405247,1450.47843 759.9583,1486.19574 827,1446.5 C903,1401.5 968,1415.5 960.5,1351 C953,1286.5 760,1320.5 770.5,1244.5 C772.486097,1230.12444 762.146499,1217.73459 743.78877,1206.68076 M653.832059,1172.47145 C556.447956,1144.92396 429.803782,1123.02454 405,1087 C363,1026 459.5,1038 424.5,964.5 C389.5,891 146.502063,982.026823 136.5,852 C131.5,787 281,824 281,771.5 C281,719 195.5,771.5 170,733 M94.5,672.5 C56,650.5 62,593 84,575 C188.879393,489.189588 314.337839,568.727061 368.5,553.5 C422.662161,538.272939 465.5,421.5 546,416.5 C655.508937,409.698203 558.111615,301.592465 653.832059,287 C749.552502,272.407535 741.613321,310.247656 802,318 C876,327.5 926.586569,284.417158 880.5,234.5 C834.413431,184.582842 799.115043,310.008373 716.5,234.5 C670,192 657.484283,195.23068 613,197 C568.515717,198.76932 566.5,130.5 566.5,130.5" id="Path-6-Copy" stroke="#C6BBFF" stroke-width="3" stroke-linecap="round" stroke-linejoin="round" stroke-dasharray="5,15"></path>
                <g id="Group-23" transform="translate(517.000000, 0.000000)">
                    <ellipse id="Oval-4-Copy-4" fill="#C6BBFF" opacity="0.15" cx="48" cy="106.66845" rx="48" ry="11.6684502"></ellipse>
                    <ellipse id="Oval-4-Copy-4" fill="#C6BBFF" opacity="0.5" cx="47.2328163" cy="104.91845" rx="20.2328163" ry="4.91845017"></ellipse>
                    <path d="M45.7027926,95.9865469 C46.4192205,96.822404 47.5827951,96.8150395 48.2866909,95.9763107 C48.2866909,95.9763107 82.2727273,56.6157025 82.2727273,35.238292 C82.2727273,13.8608815 64.6363636,0.5 47,0.5 C29.3636364,0.5 11.7272727,13.2128768 11.7272727,35.238292 C11.7272727,57.2637072 45.7027926,95.9865469 45.7027926,95.9865469 Z M47,45.9269972 C54.4925344,45.9269972 60.5664336,39.9451268 60.5664336,32.5661157 C60.5664336,25.1871046 54.4925344,19.2052342 47,19.2052342 C39.5074656,19.2052342 33.4335664,25.1871046 33.4335664,32.5661157 C33.4335664,39.9451268 39.5074656,45.9269972 47,45.9269972 Z" id="Combined-Shape-Copy-4" fill="#765DFF"></path>
                </g>
                <g id="Group-4-Copy-5" transform="translate(90.000000, 656.000000)">
                    <ellipse id="Oval-4-Copy-4" fill="#C6BBFF" opacity="0.15" cx="48" cy="109.66845" rx="48" ry="11.6684502"></ellipse>
                    <ellipse id="Oval-4-Copy-4" fill="#C6BBFF" opacity="0.5" cx="47.2328163" cy="107.91845" rx="20.2328163" ry="4.91845017"></ellipse>
                    <path d="M46.7081268,97.4932321 C47.4216087,98.325397 48.5800553,98.3183866 49.2918732,97.4704726 C49.2918732,97.4704726 84,57.2727273 84,35.4545455 C84,13.6363636 66,0 48,0 C30,0 12,12.974998 12,35.4545455 C12,57.934093 46.7081268,97.4932321 46.7081268,97.4932321 Z M48,46.3636364 C55.6470196,46.3636364 61.8461538,40.2584284 61.8461538,32.7272727 C61.8461538,25.196117 55.6470196,19.0909091 48,19.0909091 C40.3529804,19.0909091 34.1538462,25.196117 34.1538462,32.7272727 C34.1538462,40.2584284 40.3529804,46.3636364 48,46.3636364 Z" id="Combined-Shape-Copy-4" fill="#0FE1C3"></path>
                </g>
                <g id="Group-4-Copy-6" transform="translate(659.000000, 1125.000000)">
                    <ellipse id="Oval-4-Copy-4" fill="#C6BBFF" opacity="0.15" cx="48" cy="109.66845" rx="48" ry="11.6684502"></ellipse>
                    <ellipse id="Oval-4-Copy-4" fill="#C6BBFF" opacity="0.5" cx="47.2328163" cy="107.91845" rx="20.2328163" ry="4.91845017"></ellipse>
                    <path d="M46.7081268,97.4932321 C47.4216087,98.325397 48.5800553,98.3183866 49.2918732,97.4704726 C49.2918732,97.4704726 84,57.2727273 84,35.4545455 C84,13.6363636 66,0 48,0 C30,0 12,12.974998 12,35.4545455 C12,57.934093 46.7081268,97.4932321 46.7081268,97.4932321 Z M48,46.3636364 C55.6470196,46.3636364 61.8461538,40.2584284 61.8461538,32.7272727 C61.8461538,25.196117 55.6470196,19.0909091 48,19.0909091 C40.3529804,19.0909091 34.1538462,25.196117 34.1538462,32.7272727 C34.1538462,40.2584284 40.3529804,46.3636364 48,46.3636364 Z" id="Combined-Shape-Copy-4" fill="#FAD214"></path>
                </g>
                <g id="Group-4-Copy-7" transform="translate(211.000000, 1761.000000)">
                    <ellipse id="Oval-4-Copy-4" fill="#C6BBFF" opacity="0.15" cx="48" cy="109.66845" rx="48" ry="11.6684502"></ellipse>
                    <ellipse id="Oval-4-Copy-4" fill="#C6BBFF" opacity="0.5" cx="47.2328163" cy="107.91845" rx="20.2328163" ry="4.91845017"></ellipse>
                    <path d="M46.7081268,97.4932321 C47.4216087,98.325397 48.5800553,98.3183866 49.2918732,97.4704726 C49.2918732,97.4704726 84,57.2727273 84,35.4545455 C84,13.6363636 66,0 48,0 C30,0 12,12.974998 12,35.4545455 C12,57.934093 46.7081268,97.4932321 46.7081268,97.4932321 Z M48,46.3636364 C55.6470196,46.3636364 61.8461538,40.2584284 61.8461538,32.7272727 C61.8461538,25.196117 55.6470196,19.0909091 48,19.0909091 C40.3529804,19.0909091 34.1538462,25.196117 34.1538462,32.7272727 C34.1538462,40.2584284 40.3529804,46.3636364 48,46.3636364 Z" id="Combined-Shape-Copy-4" fill="#F478A2"></path>
                </g>
            </g>
        </g>
    </g>
</svg>