<?xml version="1.0" encoding="UTF-8"?>
<svg width="153px" height="150px" viewBox="0 0 153 150" version="1.1" xmlns="http://www.w3.org/2000/svg" xmlns:xlink="http://www.w3.org/1999/xlink">
    <!-- Generator: Sketch 46.2 (44496) - http://www.bohemiancoding.com/sketch -->
    <title>icon_appinprogress1</title>
    <desc>Created with Sketch.</desc>
    <defs>
        <linearGradient x1="11.3663205%" y1="-30.9576156%" x2="50%" y2="100%" id="linearGradient-1">
            <stop stop-color="#B0FDFD" offset="0%"></stop>
            <stop stop-color="#06C3C3" offset="100%"></stop>
        </linearGradient>
        <polygon id="path-2" points="0 70 0 0 69 0 69 70"></polygon>
        <filter x="-5.6%" y="-2.8%" width="111.3%" height="111.3%" filterUnits="objectBoundingBox" id="filter-4">
            <feOffset dx="0" dy="2" in="SourceAlpha" result="shadowOffsetOuter1"></feOffset>
            <feGaussianBlur stdDeviation="1" in="shadowOffsetOuter1" result="shadowBlurOuter1"></feGaussianBlur>
            <feColorMatrix values="0 0 0 0 0   0 0 0 0 0   0 0 0 0 0  0 0 0 0.19287817 0" type="matrix" in="shadowBlurOuter1" result="shadowMatrixOuter1"></feColorMatrix>
            <feMerge>
                <feMergeNode in="shadowMatrixOuter1"></feMergeNode>
                <feMergeNode in="SourceGraphic"></feMergeNode>
            </feMerge>
        </filter>
        <polygon id="path-5" points="0 0 71 0 71 70.0640205 0 70.0640205"></polygon>
        <path d="M-2.36560215,11.9365557 C-2.36560215,10.1373791 -0.902889659,8.67885827 0.892189545,8.67885827 L15.9035857,8.67885827 C17.7028144,8.67885827 19.1613774,10.1410401 19.1613774,11.9365557 L19.1613774,11.9365557 C19.1613774,13.7357323 17.6986649,15.1942532 15.9035857,15.1942532 L0.892189545,15.1942532 C-0.907039128,15.1942532 -2.36560215,13.7320714 -2.36560215,11.9365557 L-2.36560215,11.9365557 Z" id="path-7"></path>
        <filter x="-4.2%" y="-13.8%" width="108.4%" height="127.6%" filterUnits="objectBoundingBox" id="filter-8">
            <feOffset dx="-1" dy="-1" in="SourceAlpha" result="shadowOffsetInner1"></feOffset>
            <feComposite in="shadowOffsetInner1" in2="SourceAlpha" operator="arithmetic" k2="-1" k3="1" result="shadowInnerInner1"></feComposite>
            <feColorMatrix values="0 0 0 0 0.936277636   0 0 0 0 0.936277636   0 0 0 0 0.936277636  0 0 0 1 0" type="matrix" in="shadowInnerInner1"></feColorMatrix>
        </filter>
    </defs>
    <g id="Symbols" stroke="none" stroke-width="1" fill="none" fill-rule="evenodd">
        <g id="icon_appinprogress1">
            <g id="Group-5">
                <g id="Group-54" fill="url(#linearGradient-1)">
                    <ellipse id="Oval" cx="76.5" cy="75" rx="76.5" ry="75"></ellipse>
                </g>
                <g id="Page-1" transform="translate(69.000000, 29.000000)">
                    <g id="Group-3">
                        <mask id="mask-3" fill="white">
                            <use xlink:href="#path-2"></use>
                        </mask>
                        <g id="Clip-2"></g>
                        <path d="M64.1667587,55.1941985 C64.1014014,56.5491551 63.4880583,57.6377506 62.4053313,58.4373264 C60.776599,59.6400766 58.9021581,60.0262571 56.9149511,59.9100089 C55.8650265,59.8485599 55.0155061,59.3267976 54.4369459,58.4702059 C53.7718616,57.4855442 53.1978814,56.4405418 52.5626288,55.4351919 C52.0480642,54.621085 51.5570184,53.7830882 50.9584054,53.0322775 C49.3988676,51.0765 47.2865163,50.1212698 44.8269547,49.8570021 C44.7057715,49.8439488 44.5845883,49.8317575 44.4179768,49.8143942 L44.4179768,13.5767257 C45.0639986,14.2064856 45.686254,14.7858795 46.2676612,15.4032018 C46.3801797,15.5226517 46.3562896,15.7902442 46.3567847,15.9896148 C46.3632214,18.3895738 46.3741143,20.7896559 46.3539377,23.1894917 C46.3497291,23.7052199 46.5169595,24.08081 46.8831086,24.4344804 C47.9184269,25.4346583 48.9416144,26.448382 49.935713,27.4888281 C50.1358696,27.6982965 50.2815618,28.0459328 50.2904741,28.3348293 C50.3274851,29.5438599 50.2991389,30.7547376 50.3021097,31.9649997 C50.3056994,33.4843538 50.8627214,34.1259356 52.2115811,34.3325717 C52.6835644,36.4559486 53.0068848,38.5056852 53.6084685,40.4711911 C54.4180072,43.1158377 56.1544304,45.0240815 58.8157578,46.0174865 C59.257043,46.1822535 59.6724576,46.4165971 60.0981462,46.6222481 C62.7659102,47.9108299 64.1181121,50.0435657 64.1947336,52.9803106 C64.2137961,53.7176986 64.2022843,54.4574263 64.1667587,55.1941985 M48.3330988,17.5992338 C48.3839735,17.5787918 48.4347244,17.5582267 48.4854753,17.5376616 C49.0296239,18.0916878 49.5784762,18.6412807 50.1134649,19.2040501 C50.2046927,19.2999795 50.2872558,19.4514469 50.2879985,19.577793 C50.2992627,21.3311213 50.295673,23.0844496 50.1595121,24.9176986 C49.5778573,24.3303003 48.993108,23.7458576 48.4192515,23.1511938 C48.3581029,23.0876514 48.3368123,22.9637682 48.3365647,22.8677157 C48.331861,21.111555 48.3330988,19.3553944 48.3330988,17.5992338 M35.8923218,20.5445988 C29.0366188,20.5432442 22.1810395,20.5444756 15.3253365,20.543983 C13.70923,20.5438599 12.8738208,19.6541424 12.8741921,17.9376343 C12.874811,15.3715537 12.8744397,12.8054731 12.876544,10.2392693 C12.8777818,8.81830745 13.7750824,7.84189642 15.0915111,7.84054183 C18.6076815,7.83697065 22.1238519,7.83931039 25.6400224,7.83931039 C29.0149568,7.83783266 32.3897675,7.83770952 35.7645781,7.8379558 C37.5294714,7.83807895 38.3274982,8.68777451 38.3270031,10.5572279 C38.3261366,13.0101389 38.327622,15.4630499 38.3305928,17.9159609 C38.3326971,19.6332079 37.4854047,20.5449682 35.8923218,20.5445988 M61.608171,45.213108 C61.0746677,44.9051242 60.5365844,44.5749743 59.958148,44.3792981 C57.0938171,43.4097831 55.6949492,41.2588219 55.0244184,38.481672 C54.3199713,35.5643839 54.2624123,32.5947595 54.262041,29.619101 C54.2615459,26.0700828 54.2491676,22.5209414 54.2712009,18.9719231 C54.2763998,18.1342957 54.0032114,17.4821236 53.4059601,16.8928782 C50.5223191,14.0466443 47.6640535,11.1747965 44.78524,8.32363686 C44.4848195,8.02612027 44.3334333,7.72761853 44.3619033,7.30067729 C44.3932203,6.83149757 44.4096834,6.35074229 44.3430883,5.88771978 C44.1314199,4.41626873 43.3137116,3.42003147 41.8829078,2.94247794 C41.7690277,2.90442635 41.6614606,2.84790313 41.5509227,2.8 L9.6149945,2.8 C9.52265263,2.84223849 9.4336529,2.89555996 9.33734998,2.92499145 C7.71356895,3.42298693 6.7755439,4.66317302 6.77517255,6.35185058 C6.77306824,16.3232127 6.77566768,26.294698 6.77628659,36.2660601 C6.77678172,42.5648902 6.77665794,48.8637203 6.77678172,55.1625505 L6.77678172,56.0078128 C6.28734506,56.0078128 5.82390275,56.0046111 5.36046044,56.0084285 C3.86306152,56.0206198 2.82563898,57.0359444 2.82056389,58.5140453 C2.81276559,60.7504686 2.81771689,62.986892 2.8198212,65.2233153 C2.81994498,65.4034754 2.83987399,65.5835123 2.85274739,65.8 L48.2715788,65.8 C48.2906413,65.6091264 48.3271572,65.4117261 48.3276524,65.2143258 C48.3328512,62.9984675 48.3411447,60.7824861 48.3308707,58.566751 C48.3238151,57.0307724 47.2556945,56.0037491 45.7007366,56.0048574 C45.2906446,56.0052268 44.8804289,56.0048574 44.4204525,56.0048574 L44.4204525,51.8025587 C46.3529475,51.9606759 48.0461706,52.5889581 49.2686482,54.0913183 C49.9634403,54.9454471 50.5106835,55.920873 51.0986512,56.8578778 C51.5672923,57.604871 51.9658725,58.3963194 52.4498627,59.1327222 C53.7128173,61.0542656 55.4886034,62.0155299 57.8253726,61.895341 C59.686445,61.7997811 61.4570323,61.3893412 63.0532098,60.401724 C64.7325693,59.3627557 65.8181433,57.9117466 66.0752399,55.9150852 C66.0931883,55.7763016 66.1467862,55.6420743 66.1836735,55.5057536 L66.1836735,52.3040022 C66.0819241,51.7844565 65.9898298,51.2628173 65.8768162,50.7457344 C65.3283352,48.2351919 63.7912021,46.4729972 61.608171,45.213108 Z" id="Fill-1" stroke="#06C3C3" fill="#FFFFFF" mask="url(#mask-3)"></path>
                    </g>
                    <path d="M28.9394822,35.8543152 C28.7360859,36.9716423 28.1133156,37.6246307 27.1851887,37.8896172 C26.3147258,38.1382273 25.4961603,37.9760118 24.7922674,37.3099997 C24.0976794,36.652756 23.9341236,35.7514154 24.0215368,34.7586512 C24.0888987,33.9925761 24.3863921,33.3499035 24.7701192,32.7379203 C25.1935558,32.0623661 25.6239383,31.3847488 25.9745087,30.6577447 C26.2201045,30.1484034 26.3371361,29.5546017 26.5111762,29 C26.5172047,29.0141842 26.539484,29.0475815 26.5461677,29.0848472 C26.7599174,30.2700006 27.2275193,31.3069936 27.8805631,32.2409579 C28.2413557,32.7567465 28.6083079,33.2715036 28.8029236,33.9131447 C28.9947872,34.5460173 29.0592659,35.1964268 28.9394822,35.8543152" id="Fill-4" fill="#FAD214"></path>
                </g>
                <g id="Group-60" transform="translate(21.000000, 52.000000)">
                    <g id="Group-58">
                        <g id="Group-12" filter="url(#filter-4)" transform="translate(0.000000, 4.865557)">
                            <g id="Page-1">
                                <g id="Group-3">
                                    <mask id="mask-6" fill="white">
                                        <use xlink:href="#path-5"></use>
                                    </mask>
                                    <g id="Clip-2"></g>
                                    <path d="M57.9912702,30.5810936 C56.8667142,30.1492423 55.7917234,29.590285 54.6933772,29.0906267 C50.2475732,27.0686606 45.6242691,25.6382661 40.7574215,25.0750548 C38.9355812,24.8642856 37.0977815,24.7904197 35.2672479,24.6540321 C27.6427925,24.7005689 20.5474635,26.7247265 13.782352,30.0764077 C13.247776,30.3413195 12.6737555,30.580449 12.0913012,30.6871872 C10.2426024,31.0255781 8.85815429,29.4970825 9.36859655,27.6983899 C10.2445487,24.6118782 11.6186166,21.7558591 13.5569737,19.1886002 C18.0335289,13.2592182 23.9578509,9.67846248 31.3317563,8.51375325 C43.2057018,6.6384876 55.2916612,13.3079465 59.9987848,24.3280166 C60.4446108,25.3715497 60.7946802,26.4564631 61.1673264,27.5295167 C61.5071455,28.5079498 61.3396364,29.4090364 60.5900622,30.1398319 C59.8424343,30.8685647 58.9023849,30.9312154 57.9912702,30.5810936 Z M55.337723,52.9811527 C51.8269079,56.8315899 47.5544518,59.4741327 42.5049142,60.8534785 C40.5291887,61.3932281 39.3563652,60.4516635 39.4161806,58.3975985 C39.3554569,58.3816136 39.9013213,55.6119647 40.3529862,54.2828942 C40.7016283,53.2571508 41.4744281,52.5410512 42.472087,52.0407483 C47.2305922,49.6546091 51.0053217,46.2590982 53.4929167,41.5046095 C54.6304478,39.3301418 57.1057164,38.6690871 59.2843732,39.8209053 C60.7381086,40.5894716 61.3166704,42.4250327 60.6594792,44.2156039 C59.460965,47.4815595 57.6844079,50.4070615 55.337723,52.9811527 Z M28.3381305,60.9218012 C19.3885234,58.3787775 13.2719098,52.7476952 9.91173617,44.1508907 C9.22197739,42.3861016 9.90070729,40.5198597 11.3724781,39.7953809 C13.4433115,38.7759542 15.6977431,39.3057777 16.8758864,41.1169746 C17.3208041,41.8009754 17.6886495,42.5338334 18.1159211,43.229694 C20.3854039,46.9249226 23.5339529,49.7195802 27.400287,51.6137957 C29.6811879,52.7313236 30.6379752,54.5055231 31.0133462,56.8000068 C31.0997607,57.3287989 31.1406324,57.8646812 31.2026536,58.3973407 C31.219651,59.937696 30.5318385,60.9160002 29.2964748,61.0233829 C28.9816978,61.050712 28.6434357,61.0085582 28.3381305,60.9218012 Z M57.0610819,10.1502761 C52.1058736,5.83485757 46.3210344,3.27688024 39.802321,2.35155839 C38.9951371,2.23695668 38.1847095,2.1465902 37.3758389,2.04500847 L33.2237921,2.04500847 C32.0075019,2.21285036 30.7797935,2.32242455 29.576738,2.55742897 C17.7563798,4.86570605 9.30229355,11.4930111 4.62462359,22.4883303 C-1.57503101,37.0613114 3.66420327,54.1074465 17.4744299,62.8717062 C23.6830373,66.8117364 30.5003089,68.4962141 37.8483937,67.9244946 C52.3808169,66.7936889 64.3972296,56.5214305 67.6629441,42.4344432 C68.0153491,40.9144557 68.1478253,39.3441931 68.3851408,37.79765 C68.4206927,37.5667707 68.4720743,37.3383408 68.5161897,37.1087506 L68.5161897,32.9836045 C68.3902011,32.0536418 68.2793933,31.1214877 68.1358882,30.1941033 C66.895594,22.1768818 63.1913195,15.4891175 57.0610819,10.1502761 Z" id="Fill-1" stroke="#1A2020" stroke-width="0.7" fill="#FFFFFF" mask="url(#mask-6)"></path>
                                </g>
                                <path d="M29.225631,37.3530535 C29.225631,40.838353 32.0749603,43.6640468 35.5900882,43.6640468 C39.1050212,43.6640468 41.9545455,40.838353 41.9545455,37.3530535 C41.9545455,33.8677541 39.1050212,31.0422535 35.5900882,31.0422535 C32.0749603,31.0422535 29.225631,33.8677541 29.225631,37.3530535 Z" id="Fill-4" stroke="#1A2020" stroke-width="2" fill="#FAD214"></path>
                            </g>
                        </g>
                        <g id="Group-23" transform="translate(21.515152, 0.000000)">
                            <path d="M9.71531723,31.0562441 C6.65899851,30.2545936 4.55666019,28.8446743 3.40830225,26.8264862 C2.25994432,24.8082982 1.12384357,21.4764861 0,16.8310501 L5.97703926,14.1216096 L6.60165512,7.66981702 L2.8167893,8.59034662 C1.69324032,7.97666022 1.13146584,7.27374178 1.13146584,6.4815913 C1.13146584,5.29336558 1.87019049,4.38344204 3.11369884,3.71310159 C3.9427044,3.26620796 5.81418607,2.1876369 8.72814385,0.477388403 C9.7614863,2.85882429e-14 10.5629073,-0.119347101 11.1324069,0.119347101 C11.7019064,0.358041303 12.2814117,0.838923899 12.8709227,1.56199489 C13.3953596,1.47874412 13.9281752,1.47874412 14.4693694,1.56199489 C15.4027606,1.70557652 15.6258906,1.86462828 16.2212765,2.66361855 C16.8166624,3.46260882 16.7141249,2.97639223 17.5555679,2.9232932 C18.3970109,2.87019417 19.5018198,2.92146274 20.1014742,3.95910183 C20.7011286,4.99674092 20.3867012,4.08159987 21.4787465,4.13522241 C22.5707918,4.18884495 23.7733921,4.8275977 24.0297771,6.2065332 C24.2007004,7.12582353 23.4442424,13.1133471 21.7604033,24.1691039 L27.3325764,33.550739 C25.2661674,35.084591 23.8072053,36.167548 22.9556899,36.7996099 C18.466081,40.1321524 16.2212765,41.7984236 16.2212765,41.7984236 C16.2212765,41.7984236 14.0526234,38.2176971 9.71531723,31.0562441 Z" id="Path-2" stroke="#1A2020" stroke-width="0.8" fill="#FFFAE4"></path>
                            <g id="Group-21" transform="translate(21.368944, 36.871222) rotate(30.000000) translate(-21.368944, -36.871222) translate(12.868944, 25.371222)">
                                <g id="Rectangle-51" stroke-linecap="round" stroke-linejoin="round" transform="translate(8.397888, 11.936556) scale(-1, 1) rotate(60.000000) translate(-8.397888, -11.936556) ">
                                    <use fill="#FFFFFF" fill-rule="evenodd" xlink:href="#path-7"></use>
                                    <use fill="black" fill-opacity="1" filter="url(#filter-8)" xlink:href="#path-7"></use>
                                    <use stroke="#1A2020" stroke-width="0.8" xlink:href="#path-7"></use>
                                </g>
                                <rect id="Rectangle-52" fill="#FAD214" transform="translate(12.537691, 5.653853) scale(-1, 1) rotate(60.000000) translate(-12.537691, -5.653853) " x="11.5914505" y="4.7230828" width="1.89248172" height="1.8615414" rx="0.930770699"></rect>
                            </g>
                        </g>
                    </g>
                </g>
            </g>
        </g>
    </g>
</svg>