<?xml version="1.0" encoding="UTF-8"?>
<svg width="153px" height="150px" viewBox="0 0 153 150" version="1.1" xmlns="http://www.w3.org/2000/svg" xmlns:xlink="http://www.w3.org/1999/xlink">
    <!-- Generator: Sketch 46.2 (44496) - http://www.bohemiancoding.com/sketch -->
    <title>icon_appinprogress4</title>
    <desc>Created with Sketch.</desc>
    <defs>
        <linearGradient x1="11.3663205%" y1="-30.9576156%" x2="50%" y2="100%" id="linearGradient-1">
            <stop stop-color="#B0FDFD" offset="0%"></stop>
            <stop stop-color="#06C3C3" offset="100%"></stop>
        </linearGradient>
        <polygon id="path-2" points="28 5.33540631e-15 0 5.33540631e-15 0 28 28 28 28 0"></polygon>
        <path d="M8.94256905,23.7559539 C11.7231955,22.178777 18.1527946,24.2960869 19.4000211,25.3973832 C20.6472475,26.4986795 20.9056412,28.4237361 18.9021231,29.3714676 C16.8986051,30.3191992 11.2378529,30.7491273 8.90289227,29.6466636 C6.56793158,28.5441999 6.16194261,25.3331308 8.94256905,23.7559539 Z" id="path-4"></path>
        <path d="M59.1266197,23.7559539 C61.9072461,22.178777 68.3368452,24.2960869 69.5840717,25.3973832 C70.8312981,26.4986795 71.0896918,28.4237361 69.0861737,29.3714676 C67.0826557,30.3191992 61.4219035,30.7491273 59.0869429,29.6466636 C56.7519822,28.5441999 56.3459932,25.3331308 59.1266197,23.7559539 Z" id="path-6"></path>
        <rect id="path-8" x="44" y="53" width="22" height="14"></rect>
        <rect id="path-9" x="44" y="53" width="22" height="14"></rect>
        <rect id="path-10" x="44" y="53" width="22" height="14"></rect>
        <polygon id="path-11" points="9.87418678e-16 8.20617715e-15 6.41666667 8.20617715e-15 6.41666667 13.5746606 0 13.5746606 0 0"></polygon>
        <polygon id="path-13" points="12.8333333 6.33484163 0 6.33484163 0 0 12.8333333 0"></polygon>
        <polygon id="path-15" points="0 9.04977376 0 1.19169951e-14 10.0833333 0 10.0833333 9.04977376"></polygon>
        <polygon id="path-17" points="9.87418678e-16 8.20617715e-15 6.41666667 8.20617715e-15 6.41666667 13.5746606 0 13.5746606 0 0"></polygon>
        <polygon id="path-19" points="12.8333333 6.33484163 0 6.33484163 0 0 12.8333333 0"></polygon>
        <polygon id="path-21" points="0 9.04977376 0 1.19169951e-14 10.0833333 0 10.0833333 9.04977376"></polygon>
    </defs>
    <g id="Symbols" stroke="none" stroke-width="1" fill="none" fill-rule="evenodd">
        <g id="icon_appinprogress4">
            <g id="Group-5">
                <g id="Group-56">
                    <ellipse id="Oval" fill="url(#linearGradient-1)" cx="76.5" cy="75" rx="76.5" ry="75"></ellipse>
                    <g id="Group-3" transform="translate(68.000000, 30.000000)">
                        <g id="Group-2">
                            <circle id="Oval-7" stroke="#06C3C3" stroke-width="1.5" fill="#FFFFFF" cx="29.5" cy="29.5" r="29.5"></circle>
                            <g id="Group-10" transform="translate(17.000000, 14.000000)">
                                <g id="Page-1">
                                    <mask id="mask-3" fill="white">
                                        <use xlink:href="#path-2"></use>
                                    </mask>
                                    <g id="Clip-2"></g>
                                    <path d="M26.7075767,24.8019001 C26.4465627,25.0741917 26.1799194,24.970475 25.9364502,24.7265295 C23.5283101,22.3142942 21.1138838,19.9082538 18.7173777,17.4845675 C18.5861201,17.3518476 18.5363942,17.0698883 18.5636965,16.8733427 C18.5815228,16.7452221 18.8074472,16.6460107 18.9626295,16.5148865 C19.1568419,16.6413176 19.3158709,16.7103057 19.4301466,16.8242533 C21.8321883,19.2204382 24.2285068,21.6222549 26.6278276,24.021068 C26.8715783,24.2647319 26.9603343,24.5381499 26.7075767,24.8019001 M24.4235636,26.6108888 C24.3166999,26.5543843 24.2291636,26.4563931 24.1414396,26.3688205 C21.7879979,24.0185337 19.435776,21.6671206 17.0832725,19.3158952 C17.0501532,19.2827621 17.0175968,19.2490659 16.9840084,19.2164022 C16.7344408,18.9733015 16.6650122,18.7026994 16.9331567,18.4426097 C17.1820675,18.2010107 17.4423309,18.2663382 17.6733217,18.4986449 C17.904594,18.7311393 18.1358663,18.9635399 18.3676077,19.1954711 C20.5200817,21.3492124 22.6735878,23.502015 24.8231533,25.658666 C24.9597588,25.7957035 25.0663411,25.9627766 25.1304218,26.0441543 C25.1511565,26.5365507 24.763107,26.79007 24.4235636,26.6108888 M20.1018214,16.2686883 C19.3698188,15.5362886 18.5087166,15.2648417 17.4910248,15.5168593 C17.3715888,15.5464256 17.1921065,15.5585337 17.1143277,15.4921738 C16.7523608,15.1829947 16.4162889,14.8434045 16.0548849,14.4994968 C17.1073849,13.4474055 18.099557,12.4728437 19.0682735,11.4753797 C19.3202806,11.2157594 19.5051107,11.1607567 19.8634186,11.3124365 C23.1317227,12.6957643 26.9001941,10.8295202 27.796855,7.39917145 C28.0690339,6.35815584 28.085359,5.31554459 27.7377469,4.2327607 C27.586599,4.37514829 27.4718542,4.47783254 27.3630202,4.58652392 C26.3009503,5.64753199 25.2446037,6.71417173 24.1769045,7.7693604 C23.5100147,8.42826668 22.7268789,8.42826668 22.063742,7.77846494 C21.4607453,7.18751423 20.8640347,6.58989938 20.2724843,5.98740373 C19.5577451,5.25941554 19.5613104,4.4924749 20.2802716,3.76955522 C21.3277051,2.71614992 22.3803927,1.66790699 23.4293274,0.616003466 C23.5341271,0.510784955 23.6284186,0.394866258 23.7451337,0.264399059 C23.6590985,0.226854541 23.6211943,0.203952386 23.5801,0.19334606 C19.3030172,-0.914029486 15.4309658,2.91307091 16.3769773,7.13917567 C16.4921913,7.653911 16.8536891,8.22881143 16.7183033,8.65381537 C16.5664048,9.13063074 15.9795455,9.46881298 15.5818323,9.86725417 C15.5377357,9.91155671 15.4930763,9.95538993 15.4492612,10.0000679 C14.8197127,10.641516 14.1903519,11.2830579 13.547856,11.9379282 C12.0226787,10.4129637 10.5556713,8.9403739 9.07993836,7.47651316 C8.85270045,7.25115219 8.68851121,7.04109062 8.66824556,6.68704582 C8.65257722,6.41081203 8.5294822,6.07882463 8.3391165,5.88481334 C7.33334012,4.85984801 6.29116065,3.87073769 5.27609585,2.88341074 C4.56032458,3.60370231 3.81340427,4.35553128 3.03289553,5.14115031 C4.00039236,6.10951727 4.95250231,7.10407154 5.95827869,8.04099498 C6.22098147,8.28569137 6.65143875,8.34923547 7.00327284,8.49941354 C7.17965899,8.57478416 7.39179149,8.61805421 7.52098497,8.74410993 C8.47243816,9.67211654 9.40362572,10.6207726 10.3481361,11.5558189 C10.9339633,12.1358816 11.5320812,12.7035548 12.1536548,13.3048302 C10.9756204,14.4809122 9.86607644,15.600959 8.73279539,16.6966019 C8.6395359,16.7868026 8.36219682,16.766904 8.20954773,16.7035477 C5.12419735,15.4232796 1.64075841,16.8676172 0.418627528,19.9631627 C-0.0641826621,21.1861753 -0.147027862,22.4392236 0.262694661,23.7674548 C0.411215557,23.6294787 0.525022156,23.5301734 0.631604429,23.4236408 C1.69376808,22.3628205 2.75142826,21.2974948 3.81725099,20.2404289 C4.47288208,19.5901579 5.27299971,19.5774866 5.93360339,20.2143355 C6.54138505,20.8002177 7.1349057,21.4012116 7.72608079,22.0039888 C8.45498719,22.7470886 8.44476055,23.5070835 7.70009198,24.2553458 C6.66326038,25.2973 5.62183148,26.334655 4.58349872,27.3751075 C4.47625969,27.4824848 4.37699557,27.5979342 4.26637893,27.7178889 C4.85943047,27.9745995 5.95180494,28.0704319 6.73353337,27.9455964 C10.6106512,27.3261119 12.8164164,23.3640389 11.2761336,19.7664294 C11.1663614,19.5101881 11.1822174,19.3625442 11.3825283,19.1661864 C12.40979,18.1592425 13.4208204,17.1354973 14.4393566,16.1195427 C14.5118814,16.0470818 14.5993239,15.9896387 14.7379934,15.8786946 C15.0512665,16.2160321 15.3612558,16.5254928 15.6376566,16.8625487 C15.7180624,16.9606337 15.7539026,17.1505151 15.7225659,17.276477 C15.4601446,18.3311025 15.7450833,19.2032616 16.5103928,19.9635381 C18.8066966,22.2446491 21.0891147,24.5396516 23.3771621,26.8290225 C24.4574335,27.9099291 26.0264259,27.9536685 27.070951,26.9322699 C28.1276729,25.8990448 28.1171648,24.2922333 27.0322961,23.2035361 C24.725578,20.888635 22.4121985,18.5801165 20.1018214,16.2686883" id="Fill-1" fill="#06C3C3" mask="url(#mask-3)"></path>
                                </g>
                                <path d="M16.0549528,14.4935109 C17.1073602,13.441854 18.0995336,12.4676945 19.0682514,11.4705485 C19.3202588,11.2111291 19.5050892,11.1561491 19.8633975,11.3076725 C23.1317058,12.690523 26.900276,10.8249555 27.7968442,7.39611682 C28.0690234,6.35543716 28.0853486,5.31335015 27.7378298,4.23101328 C27.5865879,4.37324825 27.4718429,4.47598394 27.3630088,4.58463045 C26.3010314,5.64510667 25.2446834,6.71139989 24.176889,7.76605912 C23.5099983,8.4247872 22.7268616,8.42469338 22.0637238,7.77525373 C21.4607263,7.18454698 20.8640149,6.58708502 20.2725576,5.98493193 C19.5577236,5.25724427 19.5612889,4.49062026 20.2802511,3.76790519 C21.3277798,2.7150286 22.3803749,1.66721842 23.4293109,0.615655336 C23.5342046,0.510480263 23.6284024,0.394703243 23.7451176,0.264196084 C23.6590824,0.226667066 23.621178,0.203868187 23.5800838,0.19326624 C19.3030893,-0.913652143 15.430939,2.9118683 16.3769517,7.13622837 C16.4921658,7.65075121 16.8536641,8.22532047 16.7182781,8.65014895 C16.5663794,9.12676748 15.9795194,9.46481011 15.5818995,9.86308681 C15.5377091,9.90746488 15.4930495,9.95118618 15.4492344,9.99584571 C14.8196851,10.637029 9.86604241,15.5945184 8.73285372,16.689709 C8.63950028,16.7798725 8.36216084,16.7598883 8.20951156,16.696558 C5.12415718,15.4168185 1.64071374,16.8606537 0.418675091,19.9548274 C-0.0642295465,21.1773351 -0.146981031,22.4298661 0.262648199,23.7576428 C0.41126311,23.6197236 0.524976034,23.5203655 0.631558445,23.4139708 C1.69372347,22.3535884 2.75138502,21.2887025 3.81720913,20.2319792 C4.47284107,19.5820704 5.27295973,19.5694044 5.93356427,20.2058965 C6.54134672,20.7915368 7.13486813,21.3923764 7.72613781,21.9949048 C8.45495134,22.737604 8.44472468,23.497379 7.70005514,24.2453323 C6.6632222,25.2868564 5.62179195,26.3236894 4.58345785,27.3637123 C4.47621868,27.4711391 4.37695443,27.5865408 4.26643147,27.706446 C4.85948378,27.9629569 5.95176584,28.0588435 6.73349529,27.9339657 C10.6106181,27.3148307 12.8163862,23.3543935 11.2761014,19.7581753 C11.1664229,19.5020398 11.1822789,19.3545507 11.38259,19.158274 C12.4098531,18.1516519 13.420791,17.1283294 14.4393285,16.1127942 C14.5119472,16.040457 14.599296,15.9829438 14.7379657,15.8721393 L16.0549528,14.4935109 Z" id="Fill-1" fill="#FAD214"></path>
                            </g>
                            <g id="Group" transform="translate(10.000000, 4.000000)" stroke="#06C3C3" stroke-linecap="round" stroke-linejoin="round">
                                <path d="M20.5373994,0 C14.4310802,0 8.61147489,1.80205783 4,5.46525768" id="Path"></path>
                                <path d="M1.18870502,8 C0.778623796,8.43137597 0.382089325,8.88115899 0,9.34940667" id="Path"></path>
                            </g>
                        </g>
                    </g>
                    <g id="Group-40" transform="translate(12.000000, 62.000000)">
                        <g id="Group-47" transform="translate(9.000000, 0.000000)">
                            <g id="Group-9">
                                <g id="Group-23">
                                    <g id="Group-19">
                                        <g id="Group-4" transform="translate(0.420118, 0.000000)">
                                            <g id="Group-14">
                                                <g id="Group-21-Copy-2">
                                                    <path d="M73.6089089,30.918437 C73.4870505,33.5967831 73.2892848,36.1742078 73.0156116,38.6507112 C72.9536268,39.211597 72.5097859,39.6498655 71.9556713,39.6973413 C67.0200859,40.1202155 61.7772856,40.251193 56.2272701,40.0902739 C51.2006668,39.9445307 44.9993001,36.1915401 38.8333691,36.1915401 C32.5211849,36.1915401 26.7766529,39.950013 21.6740627,40.1006969 C16.2398168,40.2611748 10.9309233,40.1267065 5.74738247,39.6972918 C5.17908707,39.6502137 4.72783273,39.1926431 4.68090998,38.6158923 C4.48867787,36.2530722 4.29539977,33.6872537 4.10107568,30.918437 C4.01525445,29.6956175 3.98408496,28.2830932 4.00756724,26.680864 C4.08204499,21.5991329 8.11974712,17.4961963 13.1264976,17.414605 C14.5943918,17.3906838 15.868335,17.3787232 16.9483272,17.3787232 C21.1755633,17.3787232 29.6318888,19.8219462 38.8333691,19.8219461 C48.8013631,19.8219461 56.3002986,17.3787232 60.7184109,17.3787232 C63.0651409,17.2269727 65.0273152,17.4146176 66.6049338,17.941658 C74.609084,20.6156317 73.6482794,30.0531065 73.6089089,30.918437 Z" id="Rectangle-78" fill="#FFFFFF"></path>
                                                    <path d="M11.282167,17.6884688 C11.282167,17.6884688 14.8967983,10.6683132 19.0168202,6.79892439 C23.1368422,2.92953554 27.1268823,0.812600824 38.7390163,0.721911443 C50.3511503,0.631222062 55.394798,3.74564047 58.6366497,6.79892439 C61.8785014,9.8522083 66.1958655,18.0138044 66.1958655,18.0138044 C66.1958655,18.0138044 65.5249978,17.0190116 60.4783145,17.6884688 C55.4316313,18.357926 44.7046343,19.97984 40.2831601,20.0779961 C35.8616859,20.1761523 24.0534022,18.6210606 19.0168202,17.6884688 C13.9802383,16.755877 11.282167,17.6884688 11.282167,17.6884688 Z" id="Rectangle-82" fill="#FFFFFF"></path>
                                                    <g id="Group-36" transform="translate(68.615687, 35.697112)"></g>
                                                    <path d="M56.3722684,17.5031162 C55.4637078,15.4592367 53.4738924,14.3837802 51.0585851,14.3837802 C48.5272486,14.3837802 45.8395548,15.5950116 45.4014034,19.1258658" id="Oval-2-Copy" stroke="#1A2020" stroke-width="2.2" stroke-linecap="round" stroke-linejoin="round"></path>
                                                    <path d="M65.5191913,17.512627 C65.5191913,15.7332855 66.9857756,14.2908442 68.7955043,14.2908442 L73.591625,14.2908442" id="Rectangle-33" stroke="#1A2020" stroke-width="1.5" stroke-linecap="round" stroke-linejoin="round"></path>
                                                    <path d="M3.4619764,17.512627 C3.4619764,15.7332855 4.92856069,14.2908442 6.73828936,14.2908442 L11.5344101,14.2908442" id="Rectangle-33-Copy" stroke="#1A2020" stroke-width="1.5" stroke-linecap="round" stroke-linejoin="round" transform="translate(7.498193, 15.901736) scale(-1, 1) translate(-7.498193, -15.901736) "></path>
                                                    <path d="M1.44684771,14.3264505 C2.04098892,13.7336324 3.20306324,13.2530584 4.03638322,13.2530584 L6.05415893,13.2530584 C6.89017868,13.2530584 7.56790661,13.9233878 7.56790661,14.7632691 L7.56790661,14.7632691 C7.56790661,15.5973354 6.89354,16.2734797 6.04954357,16.2734797 L1.01383593,16.2734797 C0.175267179,16.2734797 -0.0315329442,15.8015389 0.571260716,15.2000876 L1.44684771,14.3264505 Z" id="Rectangle-34-Copy-2" fill="#06C3C3" transform="translate(3.896383, 14.763269) scale(1, -1) translate(-3.896383, -14.763269) "></path>
                                                    <path d="M70.8467299,14.3264505 C71.4408711,13.7336324 72.6029454,13.2530584 73.4362654,13.2530584 L75.4540411,13.2530584 C76.2900608,13.2530584 76.9677888,13.9233878 76.9677888,14.7632691 L76.9677888,14.7632691 C76.9677888,15.5973354 76.2934221,16.2734797 75.4494257,16.2734797 L70.4137181,16.2734797 C69.5751493,16.2734797 69.3683492,15.8015389 69.9711429,15.2000876 L70.8467299,14.3264505 Z" id="Rectangle-34-Copy-3" fill="#06C3C3" transform="translate(73.296265, 14.763269) scale(-1, -1) translate(-73.296265, -14.763269) "></path>
                                                    <path d="M61.4090909,39.5442603 C61.4090909,39.5442603 67.8490413,40.7324343 69.9860517,40.1638339 C72.1230622,39.5952336 73.5177415,36.3224776 73.5177415,36.3224776 L73.5177415,40.1638339 C73.5177415,42.2853565 71.7957264,44.0051903 69.6698514,44.0051903 L65.256981,44.0051903 C63.13185,44.0051903 61.4090909,42.2932363 61.4090909,40.1645335 L61.4090909,39.5442603 Z" id="Rectangle-83-Copy-5" fill="#1A2020"></path>
                                                    <path d="M4.09834003,36.4406008 C4.09834003,36.4406008 3.31459574,40.611604 7.37776623,40.2819572 C11.4409367,39.9523104 16.2069906,39.6623836 16.2069906,39.6623836 L16.2069906,40.2826568 C16.2069906,42.403793 14.4849755,44.1233136 12.3591005,44.1233136 L7.94623009,44.1233136 C5.8210991,44.1233136 4.09834003,42.3991629 4.09834003,40.2819572 L4.09834003,36.4406008 Z" id="Rectangle-83-Copy-6" fill="#1A2020"></path>
                                                    <path d="M35.0521013,4.85811936 C35.4377467,4.29214201 36.3004138,3.72517866 36.9748678,3.61921144 C36.9748678,3.61921144 37.2999921,3.47928464 38.8489366,3.47928464 C40.3978811,3.47928464 40.7227196,3.61921144 40.7227196,3.61921144 C41.3987473,3.73746404 42.253737,4.283826 42.6450488,4.85811936 L42.6959254,4.93278644 C43.0815708,5.49876379 42.8382945,5.95757909 42.1520842,5.95757909 C42.1520842,5.95757909 41.7437811,5.95757909 38.8489366,5.95757909 C35.9540921,5.95757909 35.5454401,5.95757909 35.5454401,5.95757909 C34.8592328,5.95757909 34.6099129,5.5070798 35.0012247,4.93278644 L35.0521013,4.85811936 Z" id="Rectangle-13" fill="#1A2020" transform="translate(38.847363, 4.718432) scale(1, -1) translate(-38.847363, -4.718432) "></path>
                                                    <path d="M10.7813632,17.5236053 L18.0247129,7.61782858 L23.8570606,3.20730583 C23.8570606,3.20730583 29.4085129,1.20990191 29.9745618,1.20990191 C30.5406107,1.20990191 42.5898466,0.489328005 42.5898466,0.489328005 L51.3683191,2.41797632 L57.6822762,6.03576985 L62.7117858,12.110653 L66.064282,18.0629414 L59.52734,17.7081261 L44.5964821,20.0824283 L35.2139355,20.0824283 L24.505448,18.5562034 L19.2784138,17.5236053 L10.7813632,17.5236053 Z" id="Path-30" fill="#FFFFFF" opacity="0.745743937"></path>
                                                    <path d="M11.282167,17.6884688 C11.282167,17.6884688 14.8967983,10.6683132 19.0168202,6.79892439 C23.1368422,2.92953554 27.1268823,0.812600824 38.7390163,0.721911443 C50.3511503,0.631222062 55.394798,3.74564047 58.6366497,6.79892439 C61.8785014,9.8522083 66.1958655,18.0138044 66.1958655,18.0138044" id="Rectangle-82" stroke="#1A2020"></path>
                                                    <path d="M17.6584487,14.3837802 C17.8086624,14.1307975 17.9022118,14.0260342 18.2595894,13.3924624 M19.0999353,11.924983 C19.839847,10.6571175 22.3119903,7.92185207 23.2082469,7.19672632 C24.4335173,6.20540854 26.4876731,5.4619202 29.7670993,4.71843187" id="Rectangle-82" stroke="#1A2020" stroke-width="2.2" opacity="0.1" stroke-linecap="round"></path>
                                                    <path d="M3.53168975,30.7405236 L4.18853896,31.7084789 C5.49762692,33.6375956 8.43678597,35.2517077 10.7618162,35.3139262 L20.8780443,35.5846398 C23.1992772,35.6467567 26.7108672,34.7601756 28.7373828,33.5952176 L27.4886728,34.3130481 C28.5399358,33.7087215 30.375939,33.218818 31.5844005,33.218818 L45.9900912,33.218818 C47.2008361,33.218818 49.0186455,33.7323222 50.0586528,34.3709015 L48.6297061,33.4935079 C50.6117729,34.7105251 54.0986878,35.6491362 56.433338,35.5895619 L67.4280668,35.3090042 C69.7558268,35.2496056 72.7016038,33.6412367 74.0131626,31.7084789 L73.4387489,32.5549546 C74.1187567,31.552872 74.4265808,31.6971323 74.1291958,32.8657633 L72.6519034,38.6710658 L54.4889276,39.1667247 C54.4889276,39.1667247 52.1766562,36.1808229 46.4164939,36.1927714 C40.8647835,36.2046025 42.0365398,35.760187 39.8576415,35.6971125 C34.168801,35.5506171 32.4751232,35.6380702 32.4751232,35.6380702 C30.143595,35.6706784 26.5883955,36.5893965 24.5363121,37.6890402 L22.7037198,38.6710658 L7.0633795,38.6710658 L4.54074396,35.6971125 L3.53168975,30.7405236 Z" id="Path-13-Copy-5" fill="#BFF9F9" opacity="0.25707654"></path>
                                                    <path d="M3.53168975,34.0765426 L4.45597069,35.2878006 C5.61660752,36.8088 8.11096082,38.0418137 10.0368867,38.0418137 L20.5833097,38.0418137 C22.5049276,38.0418137 25.3635879,37.193051 26.9705562,36.1445812 L26.4726612,36.4694339 C28.0786221,35.4216213 30.9334771,34.5722014 32.8472564,34.5722014 L44.6954913,34.5722014 C46.6101221,34.5722014 49.4347989,35.4477311 51.0226342,36.5401707 L50.3448398,36.0738444 C51.9245934,37.1607238 54.7587391,38.0418137 56.6674431,38.0418137 L68.1499794,38.0418137 C70.0621032,38.0418137 72.4128216,36.6993538 73.3924782,35.0567222 L72.8500274,35.9662723 C73.4724659,34.9226034 73.8363671,35.0587184 73.6646489,36.2575495 L73.1250856,40.0244492 L70.616349,40.4304134 L54.4659867,41.015767 C54.4659867,41.015767 52.1547563,37.5342064 46.3971872,37.5461548 C40.8479763,37.5579859 42.019205,37.6092293 39.8412876,37.5461548 C34.1550082,37.3996594 31.6562662,38.0181321 31.6562662,38.0181321 C29.7708335,38.3049559 26.8524083,39.2333952 25.1481845,40.0866507 L23.5245838,40.8995404 L22.6950886,41.015767 L5.48730411,40.3774453 L4.26031191,39.7047052 L3.53168975,34.0765426 Z" id="Path-13-Copy-4" fill="#BFF9F9"></path>
                                                    <path d="M25.9594756,35.8559482 C27.5515868,34.0205951 30.7894161,32.2026529 33.1906711,31.8853623 C33.1906711,31.8853623 33.8252766,31.5414296 38.8031474,31.5414296 C43.7319704,31.5414296 44.3426287,31.8825849 44.3426287,31.8825849 C46.7410294,32.2416597 49.9880381,34.0207628 51.5844484,35.8442413 L54.333437,38.9842369 C55.1367075,39.901762 54.810022,40.4942475 53.6160528,40.2767639 C53.6160528,40.2767639 53.9527134,40.3813874 53.2668021,40.1941614 C50.4303262,39.4199185 42.7582996,36.9362597 38.7640933,36.9362597 C34.967283,36.9362597 27.8468551,39.2282778 24.7158372,40.0708639 C23.7565553,40.3290156 23.9746328,40.2447342 23.9746328,40.2447342 C22.7761762,40.4661059 22.4541024,39.8968706 23.2457835,38.9842369 L25.9594756,35.8559482 Z" id="Rectangle-3" fill="#06C3C3"></path>
                                                    <path d="M74.0530384,31.3396339 C73.9294308,34.0564265 73.7288262,36.6708492 73.4512246,39.1829018 C73.38835,39.7518388 72.9381379,40.1963985 72.3760692,40.2445557 C67.3696356,40.6735002 62.0515769,40.8063578 56.4218933,40.6431287 C51.3231352,40.4952935 45.0327503,36.6884302 38.7783099,36.6884302 C32.3755169,36.6884302 26.5485245,40.5008545 21.3726887,40.6537014 C15.8604364,40.8164829 10.475336,40.6800843 5.21738747,40.2445056 C4.64093442,40.1967517 4.18320251,39.7326128 4.13560621,39.147583 C3.94061468,36.7508456 3.74456215,34.1481959 3.54744863,31.3396339 C3.46039546,30.0992613 3.42877855,28.6664608 3.45259791,27.0412322 C3.52814475,21.886555 7.62380645,17.7247224 12.7024268,17.6419598 C14.191392,17.6176953 15.4836221,17.605563 16.5791172,17.605563 C20.8670336,17.605563 29.4447462,20.0838575 38.7783099,20.0838574 C48.8893904,20.0838574 56.4959701,17.605563 60.9775026,17.605563 C63.357919,17.4516342 65.3482595,17.6419727 66.9485241,18.1765786 C75.0675706,20.888936 74.092974,30.4618819 74.0530384,31.3396339 Z" id="Rectangle-78" stroke="#1A2020"></path>
                                                    <mask id="mask-5" fill="white">
                                                        <use xlink:href="#path-4"></use>
                                                    </mask>
                                                    <use id="Rectangle-4" fill="#1A2020" transform="translate(13.686849, 26.746013) scale(1, -1) rotate(-15.000000) translate(-13.686849, -26.746013) " xlink:href="#path-4"></use>
                                                    <ellipse id="Oval-6" fill="#FAD214" mask="url(#mask-5)" cx="16.1448674" cy="25.7839347" rx="3.02716264" ry="2.97395334"></ellipse>
                                                    <ellipse id="Oval-6-Copy-5" fill="#FFFFFF" opacity="0.355701959" mask="url(#mask-5)" cx="61.2303302" cy="26.0317641" rx="1.26131777" ry="1.23914722"></ellipse>
                                                    <ellipse id="Oval-6-Copy" fill="#FFFFFF" mask="url(#mask-5)" cx="10.2730923" cy="26.0317641" rx="1.26131777" ry="1.23914722"></ellipse>
                                                    <mask id="mask-7" fill="white">
                                                        <use xlink:href="#path-6"></use>
                                                    </mask>
                                                    <use id="Rectangle-4" fill="#1A2020" transform="translate(63.870899, 26.746013) scale(-1, -1) rotate(-15.000000) translate(-63.870899, -26.746013) " xlink:href="#path-6"></use>
                                                    <ellipse id="Oval-6" fill="#FAD214" mask="url(#mask-7)" transform="translate(62.056834, 25.783935) scale(-1, 1) translate(-62.056834, -25.783935) " cx="62.0568342" cy="25.7839347" rx="3.02716264" ry="2.97395334"></ellipse>
                                                    <ellipse id="Oval-6-Copy" fill="#FFFFFF" mask="url(#mask-7)" transform="translate(67.284655, 26.031764) scale(-1, 1) translate(-67.284655, -26.031764) " cx="67.2846554" cy="26.0317641" rx="1.26131777" ry="1.23914722"></ellipse>
                                                </g>
                                                <path d="M10.5950692,37.8924545 L18.667503,37.8924545" id="Line-Copy-8" stroke="#1A2020" stroke-linecap="round" stroke-linejoin="round"></path>
                                                <path d="M59.5341986,37.6207334 L67.6066324,37.6207334" id="Line-Copy-9" stroke="#1A2020" stroke-linecap="round" stroke-linejoin="round"></path>
                                            </g>
                                        </g>
                                    </g>
                                </g>
                            </g>
                        </g>
                        <g id="Group-3" transform="translate(0.000000, 37.000000)" fill="#006B6B">
                            <ellipse id="Oval-16-Copy-2" opacity="0.1" cx="48.5" cy="8.5" rx="48.5" ry="8.5"></ellipse>
                            <path d="M48.5,10 C69.2106781,10 86,7.76142375 86,5 C86,2.23857625 69.2106781,2 48.5,2 C27.7893219,2 11,2.23857625 11,5 C11,7.76142375 27.7893219,10 48.5,10 Z" id="Oval-15-Copy-2" opacity="0.18"></path>
                        </g>
                    </g>
                    <ellipse id="Oval" fill="url(#linearGradient-1)" cx="76.5" cy="75" rx="76.5" ry="75"></ellipse>
                </g>
                <g id="Group-18" transform="translate(21.000000, 42.000000)">
                    <g id="Page-1" transform="translate(29.000000, 0.000000)" stroke="#1A2020" stroke-width="0.5" fill="#FFFFFF">
                        <path d="M13.304372,7.274182 L10.0556493,7.27682188 L10.2427312,10.3403995 C10.4417544,13.6125275 12.2827194,16.5652303 15.1387029,18.1993144 C13.9525244,14.978664 13.3063623,11.4326488 13.304372,7.77575869 L13.304372,7.274182 Z M41.5325019,7.75991943 C41.5351556,11.4161495 40.8909837,14.9628247 39.709449,18.1880949 C42.5627789,16.550051 44.3997634,13.5940483 44.5941428,10.3219204 L44.7812246,7.2590027 L41.5325019,7.26098261 L41.5325019,7.75991943 L41.5325019,7.75991943 M14.4859067,22.7643222 C9.44796502,19.8762964 6.20388617,14.6638586 5.84697115,8.89242681 L5.48275862,3.00418041 L13.3023818,2.99956062 L13.3023818,0.0131993867 L29.0802811,0.00593972401 L41.527858,0 L41.527858,2.98438133 L49.3448276,2.98174145 L48.9905662,8.86998785 C48.6402853,14.6394398 45.4001869,19.8578173 40.3648989,22.747823 L35.6991307,25.4345582 C34.6396636,26.7663763 33.458129,27.9668605 32.1591706,28.9957527 L29.7735453,30.8799651 L29.7894672,34.6464101 C34.3670018,35.4172543 38.1643652,38.4062554 40.08892,42.4564872 L43.0211958,42.4564872 L43.0211958,45.6091607 L11.8694145,45.625 L11.8674242,42.4716665 L14.7817879,42.4716665 C16.7043524,38.4174749 20.4997257,35.423854 25.0746066,34.6503699 L25.0858846,30.881945 L22.7002593,28.9983926 C21.3966571,27.9754401 20.2151224,26.7736359 19.1576456,25.4404979 L14.4859067,22.7643222 Z" id="Fill-1"></path>
                        <path d="M16.6596395,66.5716115 L36.1475822,66.5716115 L36.1475822,53.8389545 L16.6596395,53.8389545 L16.6596395,66.5716115 Z M46.1193521,64.0756332 L46.1193521,47.45 L6.88064792,47.45 L6.88064792,64.0756332 C3.07978201,64.0756332 0,67.0603345 0,70.7432115 L0,73 L53,73 L53,70.7432115 C53,67.0603345 49.920218,64.0756332 46.1193521,64.0756332 L46.1193521,64.0756332 Z" id="Fill-3"></path>
                    </g>
                    <g id="Rectangle-2">
                        <use fill="#FFFFFF" fill-rule="evenodd" xlink:href="#path-8"></use>
                        <rect stroke="#041F60" stroke-width="0.5" x="44.25" y="53.25" width="21.5" height="13.5"></rect>
                    </g>
                    <g id="Rectangle-2">
                        <use fill="#FFFFFF" fill-rule="evenodd" xlink:href="#path-9"></use>
                        <rect stroke="#041F60" stroke-width="0.5" x="44.25" y="53.25" width="21.5" height="13.5"></rect>
                    </g>
                    <g id="Rectangle-2">
                        <use fill="#FFFFFF" fill-rule="evenodd" xlink:href="#path-10"></use>
                        <rect stroke="#041F60" stroke-width="0.5" x="44.25" y="53.25" width="21.5" height="13.5"></rect>
                    </g>
                    <g id="Page-1" transform="translate(0.000000, 12.000000)">
                        <g id="Group-3" transform="translate(6.416667, 0.000000)">
                            <mask id="mask-12" fill="white">
                                <use xlink:href="#path-11"></use>
                            </mask>
                            <g id="Clip-2"></g>
                            <path d="M3.55881539,1.80995475 C0.111644041,4.50432971 0.0473222534,8.53761538 3.3086751,10.8597285 C6.12096659,8.41750608 6.25000721,4.87697651 3.55881539,1.80995475 Z" id="Fill-1" stroke="#06C3C3" stroke-width="0.5" fill="#FFFFFF" stroke-linecap="round" stroke-linejoin="round" mask="url(#mask-12)"></path>
                        </g>
                        <path d="M12.8987734,20.8144796 C17.45902,18.5329713 18.7123225,13.9931222 15.9918797,9.95475113 C12.0744775,12.4495928 10.8460192,16.5835294 12.8987734,20.8144796" id="Fill-4" stroke="#06C3C3" stroke-width="0.5" fill="#FFFFFF" stroke-linecap="round" stroke-linejoin="round"></path>
                        <path d="M17.4023394,28.959276 C21.5747021,25.9978728 22.2514762,22.0721501 19.1695229,18.0995475 C15.1656611,21.1711185 14.4237949,26.0874134 17.4023394,28.959276" id="Fill-6" stroke="#06C3C3" stroke-width="0.5" fill="#FFFFFF" stroke-linecap="round" stroke-linejoin="round"></path>
                        <path d="M22.3477122,36.199095 C26.4769851,32.5817271 26.7584401,27.9346157 23.1626503,24.4343891 C19.7567121,26.6095156 18.9469949,33.9273519 22.3477122,36.199095" id="Fill-8" stroke="#06C3C3" stroke-width="0.5" fill="#FFFFFF" stroke-linecap="round" stroke-linejoin="round"></path>
                        <path d="M27.8981177,31.6742081 C25.518809,36.0412224 26.3873037,40.1145017 30.3531316,42.5339367 C33.3930981,38.1081755 32.3360455,33.57197 27.8981177,31.6742081 Z" id="Fill-10" stroke="#06C3C3" stroke-width="0.5" fill="#FFFFFF" stroke-linecap="round" stroke-linejoin="round"></path>
                        <path d="M32.3003173,44.2726658 C31.5959355,43.6885487 30.6904361,43.3436195 29.8873751,42.8693995 C22.518386,38.5169189 16.7541092,32.7491664 12.7463227,25.1805785 C10.9221666,21.7354419 10.5749097,17.6521631 10.1971092,13.5947425 C9.55475438,13.3767952 9.20608776,14.990159 9.1816529,15.6601621 C9.02235643,20.053277 10.1397812,24.1873485 12.2096956,28.0586829 C16.6939618,36.4468817 23.9825978,41.8387675 32.2617854,46.1538462 C32.5080135,46.0444108 32.7537718,45.9349754 33,45.8250783 C32.7772669,45.295448 32.695974,44.600972 32.3003173,44.2726658" id="Fill-12" stroke="#06C3C3" stroke-width="0.5" fill="#FFFFFF"></path>
                        <g id="Group-16" transform="translate(13.750000, 40.723982)">
                            <mask id="mask-14" fill="white">
                                <use xlink:href="#path-13"></use>
                            </mask>
                            <g id="Clip-15"></g>
                            <path d="M12.8333333,3.30367633 C9.89872577,0.363624315 5.41453354,0.100312612 1.83333333,2.65718715 C4.59079222,6.09478038 9.19432672,6.36555913 12.8333333,3.30367633 Z" id="Fill-14" stroke="#06C3C3" stroke-width="0.5" fill="#FFFFFF" mask="url(#mask-14)"></path>
                        </g>
                        <path d="M19.25,39.7315086 C17.2209337,35.9889148 12.5470977,35.0760983 8.25,37.6886262 C11.169366,42.1000345 15.4560119,42.845878 19.25,39.7315086 Z" id="Fill-17" stroke="#06C3C3" stroke-width="0.5" fill="#FFFFFF"></path>
                        <g id="Group-21" transform="translate(0.000000, 19.004525)">
                            <mask id="mask-16" fill="white">
                                <use xlink:href="#path-15"></use>
                            </mask>
                            <g id="Clip-20"></g>
                            <path d="M1.02532948,0.904977376 C0.885950485,1.41573092 0.801505883,1.90188601 1.28365732,3.61170283 C2.49902398,7.19905328 5.6153022,8.80287309 9.1646995,7.89586066 C9.25459214,3.77673616 6.25953279,1.20418414 1.02532948,0.904977376 Z" id="Fill-19" stroke="#06C3C3" stroke-width="0.5" fill="#FFFFFF" stroke-linecap="round" stroke-linejoin="round" mask="url(#mask-16)"></path>
                        </g>
                        <path d="M2.30794982,10.8597285 C0.73217005,15.3786264 3.19612491,19.3087639 7.98103113,19.9095023 C9.11363712,15.4638539 6.56424567,11.3964311 2.30794982,10.8597285 Z" id="Fill-22" stroke="#06C3C3" stroke-width="0.5" fill="#FFFFFF" stroke-linecap="round" stroke-linejoin="round"></path>
                        <path d="M13.75,34.6531525 C12.6137748,30.1203568 8.04613995,27.8541933 3.66666667,29.4894869 C5.1598668,34.5069182 8.81813457,36.4117141 13.75,34.6531525" id="Fill-24" stroke="#06C3C3" stroke-width="0.5" fill="#FFFFFF"></path>
                    </g>
                    <g id="Page-1" transform="translate(93.500000, 35.000000) scale(-1, 1) translate(-93.500000, -35.000000) translate(77.000000, 11.000000)">
                        <g id="Group-3" transform="translate(6.416667, 0.000000)">
                            <mask id="mask-18" fill="white">
                                <use xlink:href="#path-17"></use>
                            </mask>
                            <g id="Clip-2"></g>
                            <path d="M3.55881539,1.80995475 C0.111644041,4.50432971 0.0473222534,8.53761538 3.3086751,10.8597285 C6.12096659,8.41750608 6.25000721,4.87697651 3.55881539,1.80995475 Z" id="Fill-1" stroke="#06C3C3" stroke-width="0.5" fill="#FFFFFF" stroke-linecap="round" stroke-linejoin="round" mask="url(#mask-18)"></path>
                        </g>
                        <path d="M12.8987734,20.8144796 C17.45902,18.5329713 18.7123225,13.9931222 15.9918797,9.95475113 C12.0744775,12.4495928 10.8460192,16.5835294 12.8987734,20.8144796" id="Fill-4" stroke="#06C3C3" stroke-width="0.5" fill="#FFFFFF" stroke-linecap="round" stroke-linejoin="round"></path>
                        <path d="M17.4023394,28.959276 C21.5747021,25.9978728 22.2514762,22.0721501 19.1695229,18.0995475 C15.1656611,21.1711185 14.4237949,26.0874134 17.4023394,28.959276" id="Fill-6" stroke="#06C3C3" stroke-width="0.5" fill="#FFFFFF" stroke-linecap="round" stroke-linejoin="round"></path>
                        <path d="M22.3477122,36.199095 C26.4769851,32.5817271 26.7584401,27.9346157 23.1626503,24.4343891 C19.7567121,26.6095156 18.9469949,33.9273519 22.3477122,36.199095" id="Fill-8" stroke="#06C3C3" stroke-width="0.5" fill="#FFFFFF" stroke-linecap="round" stroke-linejoin="round"></path>
                        <path d="M27.8981177,31.6742081 C25.518809,36.0412224 26.3873037,40.1145017 30.3531316,42.5339367 C33.3930981,38.1081755 32.3360455,33.57197 27.8981177,31.6742081 Z" id="Fill-10" stroke="#06C3C3" stroke-width="0.5" fill="#FFFFFF" stroke-linecap="round" stroke-linejoin="round"></path>
                        <path d="M32.3003173,44.2726658 C31.5959355,43.6885487 30.6904361,43.3436195 29.8873751,42.8693995 C22.518386,38.5169189 16.7541092,32.7491664 12.7463227,25.1805785 C10.9221666,21.7354419 10.5749097,17.6521631 10.1971092,13.5947425 C9.55475438,13.3767952 9.20608776,14.990159 9.1816529,15.6601621 C9.02235643,20.053277 10.1397812,24.1873485 12.2096956,28.0586829 C16.6939618,36.4468817 23.9825978,41.8387675 32.2617854,46.1538462 C32.5080135,46.0444108 32.7537718,45.9349754 33,45.8250783 C32.7772669,45.295448 32.695974,44.600972 32.3003173,44.2726658" id="Fill-12" stroke="#06C3C3" stroke-width="0.5" fill="#FFFFFF"></path>
                        <g id="Group-16" transform="translate(13.750000, 40.723982)">
                            <mask id="mask-20" fill="white">
                                <use xlink:href="#path-19"></use>
                            </mask>
                            <g id="Clip-15"></g>
                            <path d="M12.8333333,3.30367633 C9.89872577,0.363624315 5.41453354,0.100312612 1.83333333,2.65718715 C4.59079222,6.09478038 9.19432672,6.36555913 12.8333333,3.30367633 Z" id="Fill-14" stroke="#06C3C3" stroke-width="0.5" fill="#FFFFFF" mask="url(#mask-20)"></path>
                        </g>
                        <path d="M19.25,39.7315086 C17.2209337,35.9889148 12.5470977,35.0760983 8.25,37.6886262 C11.169366,42.1000345 15.4560119,42.845878 19.25,39.7315086 Z" id="Fill-17" stroke="#06C3C3" stroke-width="0.5" fill="#FFFFFF"></path>
                        <g id="Group-21" transform="translate(0.000000, 19.004525)">
                            <mask id="mask-22" fill="white">
                                <use xlink:href="#path-21"></use>
                            </mask>
                            <g id="Clip-20"></g>
                            <path d="M1.02532948,0.904977376 C0.885950485,1.41573092 0.801505883,1.90188601 1.28365732,3.61170283 C2.49902398,7.19905328 5.6153022,8.80287309 9.1646995,7.89586066 C9.25459214,3.77673616 6.25953279,1.20418414 1.02532948,0.904977376 Z" id="Fill-19" stroke="#06C3C3" stroke-width="0.5" fill="#FFFFFF" stroke-linecap="round" stroke-linejoin="round" mask="url(#mask-22)"></path>
                        </g>
                        <path d="M2.30794982,10.8597285 C0.73217005,15.3786264 3.19612491,19.3087639 7.98103113,19.9095023 C9.11363712,15.4638539 6.56424567,11.3964311 2.30794982,10.8597285 Z" id="Fill-22" stroke="#06C3C3" stroke-width="0.5" fill="#FFFFFF" stroke-linecap="round" stroke-linejoin="round"></path>
                        <path d="M13.75,34.6531525 C12.6137748,30.1203568 8.04613995,27.8541933 3.66666667,29.4894869 C5.1598668,34.5069182 8.81813457,36.4117141 13.75,34.6531525" id="Fill-24" stroke="#06C3C3" stroke-width="0.5" fill="#FFFFFF"></path>
                    </g>
                    <g id="Group-17" transform="translate(50.000000, 7.000000)" fill="#FAD214">
                        <path d="M2.70033671,12 L2.45941279,12 C2.23694364,11.8993375 2.09927971,11.7387231 2.12322755,11.4672686 C2.12987705,11.3919743 2.14276648,11.3171864 2.1550536,11.2426009 C2.34405841,10.094198 2.53460514,8.94604827 2.71922514,7.79686051 C2.7279225,7.74275696 2.70031261,7.66386755 2.66316215,7.62310634 C2.50232134,7.44654192 2.33153037,7.27995261 2.16459419,7.10951503 C1.49966826,6.43060029 0.835633755,5.75072348 0.169358656,5.07327716 C0.0271653583,4.92873941 -0.0360289858,4.76169438 0.0207085972,4.55988839 C0.077614827,4.3575001 0.215688325,4.24944491 0.4130532,4.21962086 C0.658867875,4.18253069 0.90417661,4.14182011 1.14996719,4.10465398 C2.06184014,3.96680006 2.97402628,3.8311994 3.88524873,3.68866173 C3.93678235,3.68058544 3.99930211,3.62898833 4.02486414,3.57946725 C4.13559277,3.36502782 4.2346366,3.1438286 4.33772794,2.92500924 C4.74816593,2.05373194 5.1593026,1.1828091 5.56834323,0.310848228 C5.65950884,0.116561544 5.7938962,-0.00281058472 6.00853532,5.02955653e-05 C6.21247742,0.00278458823 6.34308228,0.11792869 6.42983898,0.302290905 C6.90380861,1.30962458 7.38755975,2.31207197 7.84615843,3.32705153 C7.96368111,3.58713846 8.10216418,3.70106732 8.38052768,3.73694225 C9.37419429,3.86509956 10.3632834,4.0318661 11.3547576,4.17949258 C11.6261102,4.21987404 11.8964991,4.2498753 12,4.58196527 L12,4.809823 C11.9222057,4.91975169 11.8566985,5.04282018 11.7647378,5.13753304 C10.9627502,5.96321347 10.1565947,6.78438738 9.34964415,7.6047005 C9.2889795,7.66634867 9.26544124,7.72424985 9.28035443,7.81415238 C9.47473185,8.98610059 9.66609771,10.1586311 9.85758405,11.331111 C9.91750182,11.6981138 9.85483751,11.8293852 9.54257602,12 L9.3016521,12 C9.25019075,11.9702519 9.19923534,11.9395418 9.14721987,11.9108823 C8.1293404,11.3500991 7.11097909,10.790278 6.09418378,10.2272669 C6.02626732,10.1896704 5.97548056,10.1889615 5.90773276,10.227191 C5.55846535,10.4242626 5.20609002,10.6152327 4.85513615,10.8090383 C4.13674921,11.2057893 3.4185791,11.6029706 2.70033671,12" id="Fill-1"></path>
                    </g>
                    <path d="M47.4444444,62.5 L62.5555556,62.5" id="Line-3" stroke="#FAD214" stroke-linecap="round" stroke-linejoin="round"></path>
                    <path d="M50.4583333,59.5 L60.5416667,59.5" id="Line-3" stroke="#FAD214" stroke-linecap="round" stroke-linejoin="round"></path>
                </g>
            </g>
        </g>
    </g>
</svg>