<?xml version="1.0" encoding="UTF-8"?>
<svg width="153px" height="150px" viewBox="0 0 153 150" version="1.1" xmlns="http://www.w3.org/2000/svg" xmlns:xlink="http://www.w3.org/1999/xlink">
    <!-- Generator: Sketch 46.2 (44496) - http://www.bohemiancoding.com/sketch -->
    <title>icon_appinprogress2</title>
    <desc>Created with Sketch.</desc>
    <defs>
        <linearGradient x1="11.3663205%" y1="-30.9576156%" x2="50%" y2="100%" id="linearGradient-1">
            <stop stop-color="#B0FDFD" offset="0%"></stop>
            <stop stop-color="#06C3C3" offset="100%"></stop>
        </linearGradient>
        <path d="M8.94256905,23.7559539 C11.7231955,22.178777 18.1527946,24.2960869 19.4000211,25.3973832 C20.6472475,26.4986795 20.9056412,28.4237361 18.9021231,29.3714676 C16.8986051,30.3191992 11.2378529,30.7491273 8.90289227,29.6466636 C6.56793158,28.5441999 6.16194261,25.3331308 8.94256905,23.7559539 Z" id="path-2"></path>
        <path d="M59.1266197,23.7559539 C61.9072461,22.178777 68.3368452,24.2960869 69.5840717,25.3973832 C70.8312981,26.4986795 71.0896918,28.4237361 69.0861737,29.3714676 C67.0826557,30.3191992 61.4219035,30.7491273 59.0869429,29.6466636 C56.7519822,28.5441999 56.3459932,25.3331308 59.1266197,23.7559539 Z" id="path-4"></path>
    </defs>
    <g id="Symbols" stroke="none" stroke-width="1" fill="none" fill-rule="evenodd">
        <g id="icon_appinprogress2">
            <g id="Group-24">
                <g id="Group-54">
                    <ellipse id="Oval" fill="url(#linearGradient-1)" cx="76.5" cy="75" rx="76.5" ry="75"></ellipse>
                    <path d="M100.783725,47.5867228 C108.146439,38.7986955 116.205263,36.7562066 124.960196,41.4592559 C138.092595,48.5138298 132.513477,64.9542039 129.231695,70.7401283 C125.949912,76.5260527 105.711668,96.2547664 100.783725,96.2194649 C95.8557818,96.1841633 84.0621777,84.0073342 74.4820424,73.666627 C66.5441081,65.098496 64.289372,47.5827514 77.0204401,41.4592559 C85.5078189,37.3769255 93.4289137,39.4194145 100.783725,47.5867228 Z" id="Path-3" fill="#FFFFFF"></path>
                    <path d="M116.509367,39.0066795 C119.250303,39.0876708 122.067246,39.9051963 124.960196,41.4592559 C131.523919,44.9852121 133.413291,50.8558484 133.251448,56.5689674 M132.326665,62.8593401 C131.493589,66.1143596 130.251682,68.9418458 129.231695,70.7401283 C125.949912,76.5260527 105.711668,96.2547664 100.783725,96.2194649 C95.8557818,96.1841633 84.0621777,84.0073342 74.4820424,73.666627 C66.5441081,65.098496 64.289372,47.5827514 77.0204401,41.4592559 C85.5078189,37.3769255 93.4289137,39.4194145 100.783725,47.5867228 C103.969024,44.4292481 106.556737,42.241132 108.546864,41.0223745" id="Path-3" stroke="#06C3C3" stroke-width="1.5" stroke-linecap="round" stroke-linejoin="round"></path>
                    <path d="M85.3856467,43 C81.9342489,43 78.6449067,44.0258097 76.0384209,46.1110624 M74.6718767,47.3703232 C74.4400917,47.6158812 74.2159635,47.8719172 74,48.1384642" id="Combined-Shape-Copy-12" stroke="#06C3C3" stroke-linecap="round" stroke-linejoin="round"></path>
                    <path d="M85,56.567782 L92.8833609,56.567782 C93.8154731,56.567782 95.0444006,57.0915555 95.6266571,57.7359031 L98.017707,60.3819317 C98.6006755,61.0270672 99.5023159,61.0000907 100.032714,60.3202204 L102.195062,57.548501 C102.724951,56.8692832 103.272288,56.9817473 103.417115,57.7971171 L106.996882,77.9510663 C107.672881,81.7569175 108.451215,81.7272089 108.735518,77.882274 L111.958529,34.2941391 C112.303745,29.6254124 113.002409,29.6154344 113.518841,34.2700842 L116.726223,63.178528 C116.847774,64.2740794 117.402212,64.3690183 117.967367,63.3857571 L121.810565,56.6993286 C122.233092,55.9642135 123.132095,55.8182445 123.821059,56.3753298 L126.818748,58.7992133 C127.506587,59.3553888 128.818055,59.8017775 129.755373,59.7962065 L142.278188,59.7962065" id="Path-8-Copy-6" stroke="#FAD214" stroke-width="1.5" stroke-linecap="round" stroke-linejoin="round"></path>
                    <g id="Group-40" transform="translate(12.000000, 62.000000)">
                        <g id="Group-47" transform="translate(9.000000, 0.000000)">
                            <g id="Group-9">
                                <g id="Group-23">
                                    <g id="Group-19">
                                        <g id="Group-4" transform="translate(0.420118, 0.000000)">
                                            <g id="Group-14">
                                                <g id="Group-21-Copy-2">
                                                    <path d="M73.6089089,30.918437 C73.4870505,33.5967831 73.2892848,36.1742078 73.0156116,38.6507112 C72.9536268,39.211597 72.5097859,39.6498655 71.9556713,39.6973413 C67.0200859,40.1202155 61.7772856,40.251193 56.2272701,40.0902739 C51.2006668,39.9445307 44.9993001,36.1915401 38.8333691,36.1915401 C32.5211849,36.1915401 26.7766529,39.950013 21.6740627,40.1006969 C16.2398168,40.2611748 10.9309233,40.1267065 5.74738247,39.6972918 C5.17908707,39.6502137 4.72783273,39.1926431 4.68090998,38.6158923 C4.48867787,36.2530722 4.29539977,33.6872537 4.10107568,30.918437 C4.01525445,29.6956175 3.98408496,28.2830932 4.00756724,26.680864 C4.08204499,21.5991329 8.11974712,17.4961963 13.1264976,17.414605 C14.5943918,17.3906838 15.868335,17.3787232 16.9483272,17.3787232 C21.1755633,17.3787232 29.6318888,19.8219462 38.8333691,19.8219461 C48.8013631,19.8219461 56.3002986,17.3787232 60.7184109,17.3787232 C63.0651409,17.2269727 65.0273152,17.4146176 66.6049338,17.941658 C74.609084,20.6156317 73.6482794,30.0531065 73.6089089,30.918437 Z" id="Rectangle-78" fill="#FFFFFF"></path>
                                                    <path d="M11.282167,17.6884688 C11.282167,17.6884688 14.8967983,10.6683132 19.0168202,6.79892439 C23.1368422,2.92953554 27.1268823,0.812600824 38.7390163,0.721911443 C50.3511503,0.631222062 55.394798,3.74564047 58.6366497,6.79892439 C61.8785014,9.8522083 66.1958655,18.0138044 66.1958655,18.0138044 C66.1958655,18.0138044 65.5249978,17.0190116 60.4783145,17.6884688 C55.4316313,18.357926 44.7046343,19.97984 40.2831601,20.0779961 C35.8616859,20.1761523 24.0534022,18.6210606 19.0168202,17.6884688 C13.9802383,16.755877 11.282167,17.6884688 11.282167,17.6884688 Z" id="Rectangle-82" fill="#FFFFFF"></path>
                                                    <g id="Group-36" transform="translate(68.615687, 35.697112)"></g>
                                                    <path d="M56.3722684,17.5031162 C55.4637078,15.4592367 53.4738924,14.3837802 51.0585851,14.3837802 C48.5272486,14.3837802 45.8395548,15.5950116 45.4014034,19.1258658" id="Oval-2-Copy" stroke="#1A2020" stroke-width="2.2" stroke-linecap="round" stroke-linejoin="round"></path>
                                                    <path d="M65.5191913,17.512627 C65.5191913,15.7332855 66.9857756,14.2908442 68.7955043,14.2908442 L73.591625,14.2908442" id="Rectangle-33" stroke="#1A2020" stroke-width="1.5" stroke-linecap="round" stroke-linejoin="round"></path>
                                                    <path d="M3.4619764,17.512627 C3.4619764,15.7332855 4.92856069,14.2908442 6.73828936,14.2908442 L11.5344101,14.2908442" id="Rectangle-33-Copy" stroke="#1A2020" stroke-width="1.5" stroke-linecap="round" stroke-linejoin="round" transform="translate(7.498193, 15.901736) scale(-1, 1) translate(-7.498193, -15.901736) "></path>
                                                    <path d="M1.44684771,14.3264505 C2.04098892,13.7336324 3.20306324,13.2530584 4.03638322,13.2530584 L6.05415893,13.2530584 C6.89017868,13.2530584 7.56790661,13.9233878 7.56790661,14.7632691 L7.56790661,14.7632691 C7.56790661,15.5973354 6.89354,16.2734797 6.04954357,16.2734797 L1.01383593,16.2734797 C0.175267179,16.2734797 -0.0315329442,15.8015389 0.571260716,15.2000876 L1.44684771,14.3264505 Z" id="Rectangle-34-Copy-2" fill="#06C3C3" transform="translate(3.896383, 14.763269) scale(1, -1) translate(-3.896383, -14.763269) "></path>
                                                    <path d="M70.8467299,14.3264505 C71.4408711,13.7336324 72.6029454,13.2530584 73.4362654,13.2530584 L75.4540411,13.2530584 C76.2900608,13.2530584 76.9677888,13.9233878 76.9677888,14.7632691 L76.9677888,14.7632691 C76.9677888,15.5973354 76.2934221,16.2734797 75.4494257,16.2734797 L70.4137181,16.2734797 C69.5751493,16.2734797 69.3683492,15.8015389 69.9711429,15.2000876 L70.8467299,14.3264505 Z" id="Rectangle-34-Copy-3" fill="#06C3C3" transform="translate(73.296265, 14.763269) scale(-1, -1) translate(-73.296265, -14.763269) "></path>
                                                    <path d="M61.4090909,39.5442603 C61.4090909,39.5442603 67.8490413,40.7324343 69.9860517,40.1638339 C72.1230622,39.5952336 73.5177415,36.3224776 73.5177415,36.3224776 L73.5177415,40.1638339 C73.5177415,42.2853565 71.7957264,44.0051903 69.6698514,44.0051903 L65.256981,44.0051903 C63.13185,44.0051903 61.4090909,42.2932363 61.4090909,40.1645335 L61.4090909,39.5442603 Z" id="Rectangle-83-Copy-5" fill="#1A2020"></path>
                                                    <path d="M4.09834003,36.4406008 C4.09834003,36.4406008 3.31459574,40.611604 7.37776623,40.2819572 C11.4409367,39.9523104 16.2069906,39.6623836 16.2069906,39.6623836 L16.2069906,40.2826568 C16.2069906,42.403793 14.4849755,44.1233136 12.3591005,44.1233136 L7.94623009,44.1233136 C5.8210991,44.1233136 4.09834003,42.3991629 4.09834003,40.2819572 L4.09834003,36.4406008 Z" id="Rectangle-83-Copy-6" fill="#1A2020"></path>
                                                    <path d="M35.0521013,4.85811936 C35.4377467,4.29214201 36.3004138,3.72517866 36.9748678,3.61921144 C36.9748678,3.61921144 37.2999921,3.47928464 38.8489366,3.47928464 C40.3978811,3.47928464 40.7227196,3.61921144 40.7227196,3.61921144 C41.3987473,3.73746404 42.253737,4.283826 42.6450488,4.85811936 L42.6959254,4.93278644 C43.0815708,5.49876379 42.8382945,5.95757909 42.1520842,5.95757909 C42.1520842,5.95757909 41.7437811,5.95757909 38.8489366,5.95757909 C35.9540921,5.95757909 35.5454401,5.95757909 35.5454401,5.95757909 C34.8592328,5.95757909 34.6099129,5.5070798 35.0012247,4.93278644 L35.0521013,4.85811936 Z" id="Rectangle-13" fill="#1A2020" transform="translate(38.847363, 4.718432) scale(1, -1) translate(-38.847363, -4.718432) "></path>
                                                    <path d="M10.7813632,17.5236053 L18.0247129,7.61782858 L23.8570606,3.20730583 C23.8570606,3.20730583 29.4085129,1.20990191 29.9745618,1.20990191 C30.5406107,1.20990191 42.5898466,0.489328005 42.5898466,0.489328005 L51.3683191,2.41797632 L57.6822762,6.03576985 L62.7117858,12.110653 L66.064282,18.0629414 L59.52734,17.7081261 L44.5964821,20.0824283 L35.2139355,20.0824283 L24.505448,18.5562034 L19.2784138,17.5236053 L10.7813632,17.5236053 Z" id="Path-30" fill="#FFFFFF" opacity="0.745743937"></path>
                                                    <path d="M11.282167,17.6884688 C11.282167,17.6884688 14.8967983,10.6683132 19.0168202,6.79892439 C23.1368422,2.92953554 27.1268823,0.812600824 38.7390163,0.721911443 C50.3511503,0.631222062 55.394798,3.74564047 58.6366497,6.79892439 C61.8785014,9.8522083 66.1958655,18.0138044 66.1958655,18.0138044" id="Rectangle-82" stroke="#1A2020"></path>
                                                    <path d="M17.6584487,14.3837802 C17.8086624,14.1307975 17.9022118,14.0260342 18.2595894,13.3924624 M19.0999353,11.924983 C19.839847,10.6571175 22.3119903,7.92185207 23.2082469,7.19672632 C24.4335173,6.20540854 26.4876731,5.4619202 29.7670993,4.71843187" id="Rectangle-82" stroke="#1A2020" stroke-width="2.2" opacity="0.1" stroke-linecap="round"></path>
                                                    <path d="M3.53168975,30.7405236 L4.18853896,31.7084789 C5.49762692,33.6375956 8.43678597,35.2517077 10.7618162,35.3139262 L20.8780443,35.5846398 C23.1992772,35.6467567 26.7108672,34.7601756 28.7373828,33.5952176 L27.4886728,34.3130481 C28.5399358,33.7087215 30.375939,33.218818 31.5844005,33.218818 L45.9900912,33.218818 C47.2008361,33.218818 49.0186455,33.7323222 50.0586528,34.3709015 L48.6297061,33.4935079 C50.6117729,34.7105251 54.0986878,35.6491362 56.433338,35.5895619 L67.4280668,35.3090042 C69.7558268,35.2496056 72.7016038,33.6412367 74.0131626,31.7084789 L73.4387489,32.5549546 C74.1187567,31.552872 74.4265808,31.6971323 74.1291958,32.8657633 L72.6519034,38.6710658 L54.4889276,39.1667247 C54.4889276,39.1667247 52.1766562,36.1808229 46.4164939,36.1927714 C40.8647835,36.2046025 42.0365398,35.760187 39.8576415,35.6971125 C34.168801,35.5506171 32.4751232,35.6380702 32.4751232,35.6380702 C30.143595,35.6706784 26.5883955,36.5893965 24.5363121,37.6890402 L22.7037198,38.6710658 L7.0633795,38.6710658 L4.54074396,35.6971125 L3.53168975,30.7405236 Z" id="Path-13-Copy-5" fill="#BFF9F9" opacity="0.25707654"></path>
                                                    <path d="M3.53168975,34.0765426 L4.45597069,35.2878006 C5.61660752,36.8088 8.11096082,38.0418137 10.0368867,38.0418137 L20.5833097,38.0418137 C22.5049276,38.0418137 25.3635879,37.193051 26.9705562,36.1445812 L26.4726612,36.4694339 C28.0786221,35.4216213 30.9334771,34.5722014 32.8472564,34.5722014 L44.6954913,34.5722014 C46.6101221,34.5722014 49.4347989,35.4477311 51.0226342,36.5401707 L50.3448398,36.0738444 C51.9245934,37.1607238 54.7587391,38.0418137 56.6674431,38.0418137 L68.1499794,38.0418137 C70.0621032,38.0418137 72.4128216,36.6993538 73.3924782,35.0567222 L72.8500274,35.9662723 C73.4724659,34.9226034 73.8363671,35.0587184 73.6646489,36.2575495 L73.1250856,40.0244492 L70.616349,40.4304134 L54.4659867,41.015767 C54.4659867,41.015767 52.1547563,37.5342064 46.3971872,37.5461548 C40.8479763,37.5579859 42.019205,37.6092293 39.8412876,37.5461548 C34.1550082,37.3996594 31.6562662,38.0181321 31.6562662,38.0181321 C29.7708335,38.3049559 26.8524083,39.2333952 25.1481845,40.0866507 L23.5245838,40.8995404 L22.6950886,41.015767 L5.48730411,40.3774453 L4.26031191,39.7047052 L3.53168975,34.0765426 Z" id="Path-13-Copy-4" fill="#BFF9F9"></path>
                                                    <path d="M25.9594756,35.8559482 C27.5515868,34.0205951 30.7894161,32.2026529 33.1906711,31.8853623 C33.1906711,31.8853623 33.8252766,31.5414296 38.8031474,31.5414296 C43.7319704,31.5414296 44.3426287,31.8825849 44.3426287,31.8825849 C46.7410294,32.2416597 49.9880381,34.0207628 51.5844484,35.8442413 L54.333437,38.9842369 C55.1367075,39.901762 54.810022,40.4942475 53.6160528,40.2767639 C53.6160528,40.2767639 53.9527134,40.3813874 53.2668021,40.1941614 C50.4303262,39.4199185 42.7582996,36.9362597 38.7640933,36.9362597 C34.967283,36.9362597 27.8468551,39.2282778 24.7158372,40.0708639 C23.7565553,40.3290156 23.9746328,40.2447342 23.9746328,40.2447342 C22.7761762,40.4661059 22.4541024,39.8968706 23.2457835,38.9842369 L25.9594756,35.8559482 Z" id="Rectangle-3" fill="#06C3C3"></path>
                                                    <path d="M74.0530384,31.3396339 C73.9294308,34.0564265 73.7288262,36.6708492 73.4512246,39.1829018 C73.38835,39.7518388 72.9381379,40.1963985 72.3760692,40.2445557 C67.3696356,40.6735002 62.0515769,40.8063578 56.4218933,40.6431287 C51.3231352,40.4952935 45.0327503,36.6884302 38.7783099,36.6884302 C32.3755169,36.6884302 26.5485245,40.5008545 21.3726887,40.6537014 C15.8604364,40.8164829 10.475336,40.6800843 5.21738747,40.2445056 C4.64093442,40.1967517 4.18320251,39.7326128 4.13560621,39.147583 C3.94061468,36.7508456 3.74456215,34.1481959 3.54744863,31.3396339 C3.46039546,30.0992613 3.42877855,28.6664608 3.45259791,27.0412322 C3.52814475,21.886555 7.62380645,17.7247224 12.7024268,17.6419598 C14.191392,17.6176953 15.4836221,17.605563 16.5791172,17.605563 C20.8670336,17.605563 29.4447462,20.0838575 38.7783099,20.0838574 C48.8893904,20.0838574 56.4959701,17.605563 60.9775026,17.605563 C63.357919,17.4516342 65.3482595,17.6419727 66.9485241,18.1765786 C75.0675706,20.888936 74.092974,30.4618819 74.0530384,31.3396339 Z" id="Rectangle-78" stroke="#1A2020"></path>
                                                    <mask id="mask-3" fill="white">
                                                        <use xlink:href="#path-2"></use>
                                                    </mask>
                                                    <use id="Rectangle-4" fill="#1A2020" transform="translate(13.686849, 26.746013) scale(1, -1) rotate(-15.000000) translate(-13.686849, -26.746013) " xlink:href="#path-2"></use>
                                                    <ellipse id="Oval-6" fill="#FAD214" mask="url(#mask-3)" cx="16.1448674" cy="25.7839347" rx="3.02716264" ry="2.97395334"></ellipse>
                                                    <ellipse id="Oval-6-Copy-5" fill="#FFFFFF" opacity="0.355701959" mask="url(#mask-3)" cx="61.2303302" cy="26.0317641" rx="1.26131777" ry="1.23914722"></ellipse>
                                                    <ellipse id="Oval-6-Copy" fill="#FFFFFF" mask="url(#mask-3)" cx="10.2730923" cy="26.0317641" rx="1.26131777" ry="1.23914722"></ellipse>
                                                    <mask id="mask-5" fill="white">
                                                        <use xlink:href="#path-4"></use>
                                                    </mask>
                                                    <use id="Rectangle-4" fill="#1A2020" transform="translate(63.870899, 26.746013) scale(-1, -1) rotate(-15.000000) translate(-63.870899, -26.746013) " xlink:href="#path-4"></use>
                                                    <ellipse id="Oval-6" fill="#FAD214" mask="url(#mask-5)" transform="translate(62.056834, 25.783935) scale(-1, 1) translate(-62.056834, -25.783935) " cx="62.0568342" cy="25.7839347" rx="3.02716264" ry="2.97395334"></ellipse>
                                                    <ellipse id="Oval-6-Copy" fill="#FFFFFF" mask="url(#mask-5)" transform="translate(67.284655, 26.031764) scale(-1, 1) translate(-67.284655, -26.031764) " cx="67.2846554" cy="26.0317641" rx="1.26131777" ry="1.23914722"></ellipse>
                                                </g>
                                                <path d="M10.5950692,37.8924545 L18.667503,37.8924545" id="Line-Copy-8" stroke="#1A2020" stroke-linecap="round" stroke-linejoin="round"></path>
                                                <path d="M59.5341986,37.6207334 L67.6066324,37.6207334" id="Line-Copy-9" stroke="#1A2020" stroke-linecap="round" stroke-linejoin="round"></path>
                                            </g>
                                        </g>
                                    </g>
                                </g>
                            </g>
                        </g>
                        <g id="Group-3" transform="translate(0.000000, 37.000000)" fill="#006B6B">
                            <ellipse id="Oval-16-Copy-2" opacity="0.1" cx="48.5" cy="8.5" rx="48.5" ry="8.5"></ellipse>
                            <path d="M48.5,10 C69.2106781,10 86,7.76142375 86,5 C86,2.23857625 69.2106781,2 48.5,2 C27.7893219,2 11,2.23857625 11,5 C11,7.76142375 27.7893219,10 48.5,10 Z" id="Oval-15-Copy-2" opacity="0.18"></path>
                        </g>
                    </g>
                </g>
            </g>
        </g>
    </g>
</svg>