<?xml version="1.0" encoding="UTF-8"?>
<svg width="21px" height="26px" viewBox="0 0 21 26" version="1.1" xmlns="http://www.w3.org/2000/svg" xmlns:xlink="http://www.w3.org/1999/xlink">
    <!-- Generator: Sketch 40.3 (33839) - http://www.bohemiancoding.com/sketch -->
    <title>logo</title>
    <desc>Created with Sketch.</desc>
    <defs></defs>
    <g id="APP" stroke="none" stroke-width="1" fill="none" fill-rule="evenodd">
        <g transform="translate(-520.000000, -7041.000000)" id="Group-7" fill="#FFFFFF">
            <g transform="translate(490.000000, 7026.000000)">
                <path d="M43.6885534,19.1525527 C44.5525844,18.0532707 45.13246,16.525765 44.9738615,15 C43.7339852,15.051352 42.2264741,15.8738551 41.3393141,16.9687852 C40.5430178,17.944474 39.8450194,19.498091 40.030051,20.9899114 C41.4144831,21.10306 42.8286525,20.2500938 43.6885534,19.1525527 M51,33.9787434 C50.9680424,34.068747 50.4567212,35.8697002 49.2121032,37.7235968 C48.1402288,39.3304247 47.0225773,40.9319584 45.2640469,40.9637243 C43.5400652,40.9981374 42.9846944,39.9189773 41.0102344,39.9189773 C39.0366381,39.9189773 38.4199433,40.9319584 36.7857883,40.9981374 C35.0877182,41.0660813 33.7999142,39.2624809 32.7142203,37.6635944 C30.4970555,34.3925833 28.8076226,28.4179363 31.0766105,24.3889541 C32.2080814,22.3859341 34.2231362,21.1205902 36.4135257,21.0861771 C38.0822294,21.0579407 39.6524693,22.2306339 40.6707931,22.2306339 C41.6899807,22.2306339 43.5979344,20.8126369 45.6078068,21.0208804 C46.4456135,21.0597054 48.8070193,21.3676587 50.325436,23.6345127 C50.2001969,23.7156923 47.5071233,25.3145788 47.5364897,28.6491219 C47.5701747,32.6357494 50.960269,33.9628605 51,33.9787434" id="logo"></path>
            </g>
        </g>
    </g>
</svg>