<?xml version="1.0" encoding="UTF-8"?>
<svg width="22px" height="27px" viewBox="0 0 22 27" version="1.1" xmlns="http://www.w3.org/2000/svg" xmlns:xlink="http://www.w3.org/1999/xlink">
    <!-- Generator: Sketch 46.2 (44496) - http://www.bohemiancoding.com/sketch -->
    <title>apple_logo</title>
    <desc>Created with Sketch.</desc>
    <defs></defs>
    <g id="Insurance" stroke="none" stroke-width="1" fill="none" fill-rule="evenodd">
        <g id="Insurance_Teilkasko" transform="translate(-1027.000000, -6999.000000)" fill="#FFFFFF">
            <path d="M1041.55915,7003.19848 C1042.47963,7002.08704 1043.09739,7000.54264 1042.92843,6999 C1041.60755,6999.05192 1040.00155,6999.88352 1039.05643,7000.99056 C1038.20811,7001.97704 1037.46451,7003.54784 1037.66163,7005.05616 C1039.13651,7005.17056 1040.64307,7004.30816 1041.55915,7003.19848 M1048.39587,7018.27464 C1048.36331,7018.3644 1047.84235,7020.16048 1046.57427,7022.00936 C1045.48219,7023.61184 1044.34347,7025.20904 1042.55179,7025.24072 C1040.79531,7025.27504 1040.22947,7024.1988 1038.21779,7024.1988 C1036.20699,7024.1988 1035.57867,7025.20904 1033.91371,7025.27504 C1032.18363,7025.3428 1030.87155,7023.54408 1029.76539,7021.94952 C1027.50643,7018.68736 1025.78515,7012.72888 1028.09691,7008.7108 C1029.24971,7006.7132 1031.30275,7005.45128 1033.53443,7005.41696 C1035.23459,7005.3888 1036.83443,7006.55832 1037.87195,7006.55832 C1038.91035,7006.55832 1040.85427,7005.14416 1042.90203,7005.35184 C1043.75563,7005.39056 1046.16155,7005.69768 1047.70859,7007.9584 C1047.58099,7008.03936 1044.83715,7009.63392 1044.86707,7012.95944 C1044.90139,7016.93528 1048.35539,7018.2588 1048.39587,7018.27464" id="apple_logo"></path>
        </g>
    </g>
</svg>