
<svg width="371px" height="347px" viewBox="0 0 371 347" version="1.1" xmlns="http://www.w3.org/2000/svg" xmlns:xlink="http://www.w3.org/1999/xlink">
    <!-- Generator: Sketch 45.1 (43504) - http://www.bohemiancoding.com/sketch -->
    <desc>Created with Sketch.</desc>
    <defs></defs>
    <g id="Get-a-Quote" stroke="none" stroke-width="1" fill="none" fill-rule="evenodd">
        <g id="GET-A-QUOTE-6" transform="translate(-80.000000, -147.000000)">
            <g id="Group-6" transform="translate(423.000000, 270.000000)" fill="#0FE1C3">
                <g id="Group-5">
                    <circle id="Oval-1" transform="translate(25.742613, 18.049038) rotate(60.000000) translate(-25.742613, -18.049038) " cx="25.7426131" cy="18.0490381" r="1.5"></circle>
                    <polygon id="Rectangle-91" opacity="0.25" transform="translate(14.328838, 13.299038) rotate(60.000000) translate(-14.328838, -13.299038) " points="23.6493464 6.28941916 24.6493464 6.28941916 5.00833025 20.308657 4.00833025 20.308657"></polygon>
                    <path d="M2.04903811,9.54903811 C2.87746523,9.54903811 3.54903811,8.87746523 3.54903811,8.04903811 C3.54903811,7.22061098 2.87746523,6.54903811 2.04903811,6.54903811 C1.22061098,6.54903811 0.549038106,7.22061098 0.549038106,8.04903811 C0.549038106,8.87746523 1.22061098,9.54903811 2.04903811,9.54903811 Z" id="Oval-1-Copy" transform="translate(2.049038, 8.049038) rotate(60.000000) translate(-2.049038, -8.049038) "></path>
                </g>
            </g>
            <path d="M201.134124,267.58574 C195.078124,260.69374 195.754124,250.19374 202.646124,244.13374 C209.538124,238.07774 220.038124,238.75374 226.098124,245.64974 C232.154124,252.54174 231.478124,263.04174 224.586124,269.09774 C217.690124,275.15774 207.190124,274.47774 201.134124,267.58574 Z" id="Stroke-3" stroke="#FB7CA1" stroke-width="2" stroke-linecap="round" stroke-linejoin="round"></path>
            <path d="M319.174368,176.897931 C319.706368,177.501931 320.446368,177.865931 321.254368,177.917931 C322.922368,178.025931 324.370368,176.745931 324.478368,175.065931 L324.794368,170.185931 L329.674368,170.501931 C331.354368,170.609931 332.810368,169.337931 332.918368,167.669931 C332.970368,166.865931 332.702368,166.085931 332.166368,165.477931 C331.626368,164.861931 330.882368,164.497931 330.066368,164.445931 L325.186368,164.129931 L325.498368,159.249931 C325.554368,158.425931 325.286368,157.637931 324.750368,157.029931 C324.218368,156.421931 323.478368,156.061931 322.670368,156.005931 C320.998368,155.901931 319.550368,157.177931 319.442368,158.861931 L319.126368,163.737931 L314.246368,163.421931 C312.570368,163.313931 311.114368,164.585931 311.006368,166.257931 C310.954368,167.061931 311.222368,167.837931 311.754368,168.445931 C312.294368,169.061931 313.042368,169.429931 313.854368,169.481931 L318.738368,169.797931 L318.422368,174.677931 C318.370368,175.497931 318.638368,176.285931 319.174368,176.897931" id="Fill-5" fill="#FFCA05"></path>
            <polygon id="Stroke-25" stroke="#0FE1C3" stroke-width="2" points="202.6 473 211.06 492.396 193 490.4"></polygon>
            <polygon id="Stroke-25-Copy-3" fill="#6E6BFF" points="230.454545 337 235 346.090909 225 344.022727"></polygon>
            <polygon id="Stroke-31" fill="#FAD214" points="118.209999 304.899597 106.88674 322.52 92 301"></polygon>
            <g id="Group" transform="translate(259.841959, 433.323292) rotate(50.000000) translate(-259.841959, -433.323292) translate(258.341959, 370.823292)" fill="#FAD214">
                <path d="M1.5,3 C2.32842712,3 3,2.32842712 3,1.5 C3,0.671572875 2.32842712,0 1.5,0 C0.671572875,0 0,0.671572875 0,1.5 C0,2.32842712 0.671572875,3 1.5,3 Z" id="Oval-1"></path>
                <rect id="Rectangle-91" opacity="0.25" x="1" y="2" width="1" height="120"></rect>
                <circle id="Oval-1-Copy" cx="1.5" cy="123.5" r="1.5"></circle>
            </g>
            <path d="M82.467189,157.314829 C83.7474276,160.371596 87.2593907,161.809888 90.3161578,160.532811 C93.372925,159.252572 94.8112177,155.737448 93.5341402,152.683842 C92.2539016,149.627075 88.7387775,148.188782 85.6851714,149.46586 C82.6284043,150.746098 81.1869505,154.258061 82.467189,157.314829 Z" id="Stroke-23" stroke="#765DFF" stroke-width="4"></path>
        </g>
    </g>
</svg>
