<?xml version="1.0" encoding="utf-8"?>
<!-- Generator: Adobe Illustrator 16.0.0, SVG Export Plug-In . SVG Version: 6.00 Build 0)  -->
<!DOCTYPE svg PUBLIC "-//W3C//DTD SVG 1.1//EN" "http://www.w3.org/Graphics/SVG/1.1/DTD/svg11.dtd">
<svg version="1.1" id="Layer_1" xmlns="http://www.w3.org/2000/svg" xmlns:xlink="http://www.w3.org/1999/xlink" x="0px" y="0px"
	 width="1920px" height="800px" viewBox="0 0 1920 800" enable-background="new 0 0 1920 800" xml:space="preserve">
<g id="Home">
	<g id="BKG-TItle" transform="translate(-1345.000000, -154.000000)">
		<g id="Group-10-Copy-2" transform="translate(84.000000, 48.000000)">
			<path id="Fill-42" fill="#6964AD" d="M2756.914,235.313c-2.318-0.023-4.192-1.947-4.166-4.285l0.074-6.791l-6.789-0.063
				c-2.33-0.02-4.217-1.934-4.188-4.262c0.012-1.117,0.461-2.167,1.267-2.957c0.806-0.791,1.882-1.221,3.016-1.209l6.786,0.068
				l0.076-6.791c0.009-1.146,0.465-2.209,1.271-3c0.802-0.783,1.861-1.213,2.985-1.198c2.318,0.023,4.195,1.94,4.17,4.278
				l-0.075,6.791l6.786,0.068c2.33,0.021,4.21,1.932,4.185,4.252c-0.009,1.128-0.458,2.178-1.261,2.961
				c-0.816,0.795-1.885,1.228-3.019,1.217l-6.787-0.069l-0.075,6.791c-0.009,1.146-0.465,2.208-1.271,2.999
				C2759.097,234.897,2758.041,235.321,2756.914,235.313z"/>
		</g>
	</g>
</g>
<g id="Home_1_">
	<g id="BKG-TItle_1_" transform="translate(-1395.000000, -191.000000)">
		<g id="Group-10-Copy-2_1_" transform="translate(84.000000, 48.000000)">
			<path id="Stroke-23-Copy" fill="none" stroke="#FAD215" stroke-width="2" d="M2925.592,351.116
				c7.781,18.598,29.127,27.348,47.706,19.578c18.579-7.789,27.321-29.176,19.56-47.753c-7.782-18.598-29.146-27.349-47.707-19.579
				C2926.571,311.152,2917.81,332.519,2925.592,351.116z"/>
		</g>
	</g>
</g>
<g id="Home_2_">
	<g id="BKG-TItle_2_" transform="translate(-1733.000000, -463.000000)">
		<g id="Group-10-Copy-2_2_" transform="translate(84.000000, 48.000000)">
			<path id="Fill-42-Copy-4" fill="#FAD215" d="M3321.8,845.697c-0.912,0.959-2.445,0.991-3.41,0.07l-2.805-2.674l-2.668,2.81
				c-0.915,0.964-2.447,1.007-3.408,0.089c-0.461-0.439-0.725-1.035-0.74-1.68c-0.018-0.645,0.223-1.26,0.668-1.729l2.67-2.806
				l-2.805-2.674c-0.475-0.45-0.74-1.054-0.757-1.698c-0.015-0.639,0.218-1.248,0.661-1.711c0.912-0.959,2.442-0.996,3.408-0.076
				l2.805,2.674l2.67-2.805c0.914-0.965,2.443-1.006,3.402-0.092c0.467,0.443,0.73,1.039,0.744,1.678
				c0.016,0.65-0.221,1.266-0.666,1.734l-2.67,2.805l2.805,2.674c0.475,0.449,0.74,1.054,0.756,1.697
				C3322.476,844.625,3322.241,845.229,3321.8,845.697z"/>
		</g>
	</g>
</g>
<g id="Home_3_">
	<g id="BKG-TItle_3_" transform="translate(-1846.000000, -49.000000)">
		<g id="Group-10-Copy-2_3_" transform="translate(84.000000, 48.000000)">
			<path id="Fill-42-Copy-2" fill="#59C3B4" d="M3608.501,113.229c-0.823-0.008-1.488-0.691-1.479-1.521l0.025-2.409l-2.41-0.022
				c-0.827-0.008-1.497-0.688-1.487-1.513c0.005-0.397,0.163-0.769,0.45-1.049c0.285-0.281,0.667-0.433,1.07-0.429l2.408,0.025
				l0.026-2.41c0.003-0.406,0.165-0.783,0.45-1.063c0.285-0.278,0.661-0.431,1.061-0.425c0.823,0.009,1.489,0.689,1.48,1.519
				l-0.025,2.41l2.409,0.025c0.826,0.007,1.494,0.686,1.486,1.509c-0.004,0.4-0.163,0.773-0.447,1.05
				c-0.29,0.282-0.67,0.436-1.072,0.432l-2.409-0.025l-0.026,2.41c-0.002,0.406-0.164,0.783-0.45,1.063
				C3609.276,113.082,3608.901,113.232,3608.501,113.229z"/>
		</g>
	</g>
</g>
<g id="Home_4_">
	<g id="BKG-TItle_4_" transform="translate(-1902.000000, -306.000000)">
		<g id="Group-10-Copy-2_4_" transform="translate(84.000000, 48.000000)">
			<path id="Stroke-23-Copy-4" fill="none" stroke="#59C3B4" stroke-width="2" d="M3571.733,648.004
				c5.863,14.011,21.945,20.605,35.943,14.751c13.998-5.869,20.584-21.982,14.736-35.979c-5.863-14.012-21.959-20.604-35.943-14.751
				C3572.472,617.895,3565.871,633.993,3571.733,648.004z"/>
		</g>
	</g>
</g>
<g id="Home_5_">
	<g id="BKG-TItle_5_" transform="translate(-91.000000, -282.000000)">
		<g id="Group-10-Copy-2_5_" transform="translate(84.000000, 48.000000)">
			<path id="Fill-42-Copy-7" fill="#59C3B4" d="M121.681,726.628c0.03,1.273-0.437,2.479-1.316,3.41
				c-1.817,1.908-4.867,1.975-6.79,0.141l-5.585-5.324l-5.313,5.594c-1.821,1.92-4.875,2.006-6.786,0.178
				c-0.919-0.877-1.443-2.063-1.476-3.346c-0.033-1.281,0.443-2.509,1.332-3.442l5.316-5.586l-5.586-5.325
				c-0.944-0.896-1.475-2.098-1.507-3.38c-0.03-1.273,0.434-2.487,1.316-3.41c1.816-1.908,4.864-1.982,6.787-0.149l5.585,5.325
				l5.316-5.586c1.821-1.92,4.866-2.002,6.774-0.184c0.931,0.883,1.454,2.068,1.484,3.343c0.028,1.294-0.44,2.518-1.329,3.45
				l-5.316,5.587l5.586,5.325C121.118,724.144,121.649,725.346,121.681,726.628"/>
		</g>
	</g>
</g>
<g id="Home_6_">
	<g id="BKG-TItle_6_" transform="translate(-392.000000, -112.000000)">
		<g id="Group-10-Copy-2_6_" transform="translate(84.000000, 48.000000)">
			<path id="Stroke-23" fill="none" stroke="#FAD215" stroke-width="2" d="M402.522,257.97
				c20.697,49.467,77.474,72.742,126.891,52.076c49.418-20.718,72.67-77.602,52.024-127.017
				c-20.697-49.466-77.524-72.741-126.892-52.075C405.128,151.672,381.825,208.504,402.522,257.97z"/>
		</g>
	</g>
</g>
<g id="Home_7_">
	<g id="BKG-TItle_7_" transform="translate(-620.000000, -134.000000)">
		<g id="Group-10-Copy-2_7_" transform="translate(84.000000, 48.000000)">
			<path id="Fill-42-Copy-5" fill="#F278A2" d="M1078.102,195.869c0.06,0.637-0.132,1.257-0.54,1.754
				c-0.843,1.02-2.369,1.16-3.396,0.309l-2.984-2.472l-2.466,2.989c-0.845,1.025-2.372,1.174-3.393,0.326
				c-0.491-0.407-0.795-0.982-0.857-1.625c-0.061-0.641,0.135-1.271,0.547-1.771l2.467-2.985l-2.984-2.472
				c-0.504-0.416-0.812-1-0.874-1.641c-0.06-0.637,0.13-1.261,0.54-1.754c0.843-1.02,2.368-1.164,3.395-0.313l2.984,2.472
				l2.467-2.985c0.846-1.026,2.367-1.173,3.388-0.329c0.497,0.409,0.801,0.985,0.86,1.622c0.059,0.647-0.133,1.277-0.545,1.775
				l-2.467,2.984l2.984,2.472C1077.732,194.643,1078.04,195.227,1078.102,195.869"/>
		</g>
	</g>
</g>
<g id="Home_8_">
	<g id="BKG-TItle_8_" transform="translate(-753.000000, -375.000000)">
		<g id="Group-10-Copy-2_8_" transform="translate(84.000000, 48.000000)">
			<path id="Stroke-23-Copy-2" fill="none" stroke="#F278A2" stroke-width="2" d="M1128.32,647.445
				c2.132,5.096,7.98,7.492,13.07,5.364c5.091-2.134,7.486-7.993,5.359-13.083c-2.132-5.095-7.985-7.492-13.07-5.364
				C1128.589,636.496,1126.188,642.35,1128.32,647.445z"/>
		</g>
	</g>
</g>
<g id="Home_9_">
	<g id="BKG-TItle_9_" transform="translate(-964.000000, -290.000000)">
		<g id="Group-10-Copy-2_9_" transform="translate(84.000000, 48.000000)">
			<path id="Fill-42-Copy-6" fill="#FAD215" d="M1248.736,609.887c-0.478,0.002-0.926-0.18-1.268-0.516
				c-0.703-0.692-0.708-1.834-0.009-2.543l2.03-2.056l-2.06-2.025c-0.707-0.694-0.719-1.837-0.022-2.542
				c0.335-0.338,0.783-0.526,1.263-0.53c0.48-0.004,0.937,0.183,1.28,0.521l2.057,2.027l2.031-2.057
				c0.34-0.348,0.795-0.538,1.275-0.542c0.477-0.003,0.928,0.179,1.268,0.515c0.703,0.693,0.711,1.834,0.012,2.541l-2.031,2.057
				l2.057,2.026c0.707,0.694,0.719,1.835,0.023,2.538c-0.336,0.342-0.783,0.53-1.26,0.533c-0.484,0.002-0.939-0.182-1.283-0.52
				l-2.057-2.027l-2.031,2.057C1249.67,609.691,1249.217,609.883,1248.736,609.887"/>
		</g>
	</g>
</g>
</svg>
