<?xml version="1.0" encoding="UTF-8"?>
<svg width="334px" height="576px" viewBox="0 0 334 576" version="1.1" xmlns="http://www.w3.org/2000/svg" xmlns:xlink="http://www.w3.org/1999/xlink">
    <!-- Generator: Sketch 40.3 (33839) - http://www.bohemiancoding.com/sketch -->
    <title>Group 16</title>
    <desc>Created with Sketch.</desc>
    <defs>
        <path d="M296.287944,113.67889 C293.051458,62.4014902 252.120421,3.91907716 202.099417,3.14618321 L187.800392,2.92524344 C180.294422,2.80926577 160.202338,2.80509246 152.700694,2.91595446 L134.13749,3.20702527 C84.1031409,3.94645094 42.7599846,63.5360813 38.395124,112.544299 L43.0373129,187.181177 C43.0373129,187.181177 49.3718751,278.702964 49.3718751,319.690846 C49.3718751,360.678729 32.1614413,387.019545 36.5423102,433.11827 C40.923179,479.216994 56.7220146,492.018362 56.7220146,492.018362 C62.4152167,499.46824 74.6447651,505.50756 84.043039,505.50756 L86.2263631,505.50756 C86.2263631,505.50756 109.142147,511.365474 121.335122,512.834144 C133.528097,514.302814 170.600638,515.670621 170.600638,515.670621 C170.600638,515.670621 196.950019,514.742463 222.131235,511.699553 C247.312452,508.656643 246.053119,506.277019 254.408643,505.50756 C280.276561,503.125386 257.520468,505.234148 257.520468,505.234148 C261.724185,506.190205 269.914352,501.046723 275.175154,493.270167 C275.175154,493.270167 290.705308,479.84871 295.574286,433.11827 C300.443263,386.387829 283.512083,361.81332 283.512083,319.690846 C283.512083,277.568373 290.754353,187.229806 290.754353,187.229806 L296.287944,113.67889 Z" id="path-1"></path>
        <filter x="-50%" y="-50%" width="200%" height="200%" filterUnits="objectBoundingBox" id="filter-2">
            <feOffset dx="0" dy="0" in="SourceAlpha" result="shadowOffsetInner1"></feOffset>
            <feComposite in="shadowOffsetInner1" in2="SourceAlpha" operator="arithmetic" k2="-1" k3="1" result="shadowInnerInner1"></feComposite>
            <feColorMatrix values="0 0 0 0 0.894372993   0 0 0 0 0.875414299   0 0 0 0 1  0 0 0 1 0" type="matrix" in="shadowInnerInner1"></feColorMatrix>
        </filter>
        <path d="M11.209816,1.58241531 C17.9371532,-1.56174777 26.0728697,1.28631283 29.3775352,7.93586454 L35.515257,20.2860094 C38.8216741,26.9390856 36.2203349,29.4286721 29.7140556,25.8516331 L3.30594865,11.3329165 C0.0174666608,9.52496648 0.113614451,6.76845942 3.5225314,5.1752301 L11.209816,1.58241531 Z" id="path-3"></path>
        <path d="M11.209816,1.58241531 C17.9371532,-1.56174777 26.0728697,1.28631283 29.3775352,7.93586454 L35.515257,20.2860094 C38.8216741,26.9390856 36.2203349,29.4286721 29.7140556,25.8516331 L3.30594865,11.3329165 C0.0174666608,9.52496648 0.113614451,6.76845942 3.5225314,5.1752301 L11.209816,1.58241531 Z" id="path-5"></path>
        <linearGradient x1="50%" y1="71.7991071%" x2="74.3313953%" y2="8.03124979%" id="linearGradient-7">
            <stop stop-color="#533FC7" offset="0%"></stop>
            <stop stop-color="#765DFF" offset="100%"></stop>
        </linearGradient>
        <linearGradient x1="50%" y1="0%" x2="50%" y2="108.896758%" id="linearGradient-8">
            <stop stop-color="#413296" offset="0%"></stop>
            <stop stop-color="#664FE4" offset="100%"></stop>
        </linearGradient>
        <linearGradient x1="0%" y1="-22.6801315%" x2="0%" y2="133.868388%" id="linearGradient-9">
            <stop stop-color="#E4DFFF" offset="0%"></stop>
            <stop stop-color="#FFFFFF" stop-opacity="0" offset="100%"></stop>
        </linearGradient>
        <linearGradient x1="50%" y1="3.64516901%" x2="50%" y2="98.2582543%" id="linearGradient-10">
            <stop stop-color="#8872FF" stop-opacity="0" offset="0%"></stop>
            <stop stop-color="#7F68FF" stop-opacity="0.491366621" offset="100%"></stop>
        </linearGradient>
        <linearGradient x1="50%" y1="-44.453125%" x2="100%" y2="189.335938%" id="linearGradient-11">
            <stop stop-color="#E4DFFF" offset="0%"></stop>
            <stop stop-color="#FFFFFF" stop-opacity="0" offset="100%"></stop>
        </linearGradient>
        <linearGradient x1="50%" y1="3.64516901%" x2="50%" y2="100%" id="linearGradient-12">
            <stop stop-color="#5944CE" offset="0%"></stop>
            <stop stop-color="#765DFF" offset="100%"></stop>
        </linearGradient>
        <path d="M222.276095,376.437358 C220.05584,373.449938 216.974629,371.978658 212.70946,374.037195 C199.780021,380.277445 185.513054,388.219583 168.119977,387.652287 C150.7269,387.084992 136.916197,381.412037 122.203388,372.902604 C118.294991,370.642108 115.487768,371.26397 113.472481,373.396335 C112.414842,379.235559 110.988831,385.704842 109.211497,392.910651 C108.943941,393.995397 108.669229,395.093828 108.385376,396.214333 C108.382712,396.55705 108.382263,396.729016 108.382263,396.729016 C108.382263,396.729016 108.377676,396.562646 108.374588,396.256913 C107.633215,399.182548 106.829416,402.259246 105.92791,405.636113 C105.406144,407.590549 100.923371,424.06792 99.8585918,428.177773 C98.0406998,435.194507 97.0518968,439.787276 96.8148807,442.383652 C96.4708389,446.152433 96.2543071,449.301263 96.1396319,451.860802 C96.0690516,453.436149 96.0488675,454.484341 96.0483624,455.4909 C95.8403157,461.295124 99.9260885,469.962224 104.560579,473.545509 C104.805249,473.734682 105.040096,473.936273 105.409145,474.281709 C105.607179,474.460919 105.853266,474.677768 106.146564,474.92915 C107.026462,475.6833 108.085775,476.539011 109.317622,477.471529 C112.903713,480.186226 117.10385,482.919016 121.861012,485.47544 C135.441706,492.773492 150.640421,494.871143 167.089735,494.871143 C183.548184,494.871143 198.89007,492.750024 212.694912,485.410014 C217.535078,482.836506 221.822468,480.084687 225.494638,477.350091 C226.757306,476.409806 227.845197,475.54647 228.750775,474.784948 C229.25529,474.360689 229.563618,474.087274 229.668407,473.989696 C229.936703,473.739864 230.219874,473.506561 230.516363,473.291072 C235.018164,470.019155 239.061455,461.400897 238.85977,454.979269 C238.865114,454.534094 238.848237,453.658094 238.784723,452.306851 C238.681533,450.111522 238.483135,447.347784 238.165536,443.970605 C237.936291,441.532946 236.982279,437.099884 235.190253,430.075527 C234.363388,426.834394 230.332942,411.617857 229.258348,407.439152 C227.668256,401.255861 226.342853,395.834288 225.173339,390.650268 C224.035008,385.604471 223.066388,380.875159 222.276095,376.437358 Z" id="path-13"></path>
        <filter x="-50%" y="-50%" width="200%" height="200%" filterUnits="objectBoundingBox" id="filter-14">
            <feOffset dx="0" dy="-6" in="SourceAlpha" result="shadowOffsetInner1"></feOffset>
            <feComposite in="shadowOffsetInner1" in2="SourceAlpha" operator="arithmetic" k2="-1" k3="1" result="shadowInnerInner1"></feComposite>
            <feColorMatrix values="0 0 0 0 0.349019608   0 0 0 0 0.266666667   0 0 0 0 0.807843137  0 0 0 1 0" type="matrix" in="shadowInnerInner1"></feColorMatrix>
        </filter>
        <linearGradient x1="50%" y1="27.3174895%" x2="50%" y2="109.795168%" id="linearGradient-15">
            <stop stop-color="#100106104" stop-opacity="-0.0467932838" offset="0%"></stop>
            <stop stop-color="#F478A2" offset="100%"></stop>
        </linearGradient>
        <filter x="-50%" y="-50%" width="200%" height="200%" filterUnits="objectBoundingBox" id="filter-16">
            <feGaussianBlur stdDeviation="0" in="SourceGraphic"></feGaussianBlur>
        </filter>
        <linearGradient x1="-115.87683%" y1="13.9646704%" x2="-127.961795%" y2="199.218998%" id="linearGradient-17">
            <stop stop-color="#4737A3" offset="0%"></stop>
            <stop stop-color="#634EDB" offset="100%"></stop>
        </linearGradient>
        <linearGradient x1="50%" y1="100%" x2="50%" y2="3.061617e-15%" id="linearGradient-18">
            <stop stop-color="#FFFFFF" stop-opacity="0" offset="0%"></stop>
            <stop stop-color="#DAFFFA" offset="100%"></stop>
        </linearGradient>
        <linearGradient x1="50%" y1="0%" x2="50%" y2="100%" id="linearGradient-19">
            <stop stop-color="#B4F8EE" offset="0%"></stop>
            <stop stop-color="#FFFFFF" stop-opacity="0" offset="100%"></stop>
        </linearGradient>
        <path d="M13.6286952,15.9749567 C29.319805,11.5736932 56.1846168,15.6694723 62.0150678,19.4751087 C67.8455188,23.280745 56.0577901,34.4946593 46.6918778,37.7696378 C37.3259656,41.0446162 20.7582441,35.5619178 11.0452097,31.4348244 C1.3321752,27.3077309 -2.06241473,20.3762203 13.6286952,15.9749567 Z" id="path-20"></path>
        <ellipse id="path-22" cx="45.4278699" cy="24.9365909" rx="17.1222963" ry="7.82143629"></ellipse>
        <filter x="-50%" y="-50%" width="200%" height="200%" filterUnits="objectBoundingBox" id="filter-23">
            <feOffset dx="0" dy="-6" in="SourceAlpha" result="shadowOffsetInner1"></feOffset>
            <feComposite in="shadowOffsetInner1" in2="SourceAlpha" operator="arithmetic" k2="-1" k3="1" result="shadowInnerInner1"></feComposite>
            <feColorMatrix values="0 0 0 0 1   0 0 0 0 1   0 0 0 0 1  0 0 0 0.5 0" type="matrix" in="shadowInnerInner1"></feColorMatrix>
        </filter>
        <path d="M13.6286952,15.9749567 C29.319805,11.5736932 56.1846168,15.6694723 62.0150678,19.4751087 C67.8455188,23.280745 56.0577901,34.4946593 46.6918778,37.7696378 C37.3259656,41.0446162 20.7582441,35.5619178 11.0452097,31.4348244 C1.3321752,27.3077309 -2.06241473,20.3762203 13.6286952,15.9749567 Z" id="path-24"></path>
        <ellipse id="path-26" cx="45.4278699" cy="24.9365909" rx="17.1222963" ry="7.82143629"></ellipse>
        <filter x="-50%" y="-50%" width="200%" height="200%" filterUnits="objectBoundingBox" id="filter-27">
            <feOffset dx="0" dy="-6" in="SourceAlpha" result="shadowOffsetInner1"></feOffset>
            <feComposite in="shadowOffsetInner1" in2="SourceAlpha" operator="arithmetic" k2="-1" k3="1" result="shadowInnerInner1"></feComposite>
            <feColorMatrix values="0 0 0 0 1   0 0 0 0 1   0 0 0 0 1  0 0 0 0.5 0" type="matrix" in="shadowInnerInner1"></feColorMatrix>
        </filter>
        <linearGradient x1="50%" y1="0%" x2="50%" y2="104.663568%" id="linearGradient-28">
            <stop stop-color="#FFFFFF" stop-opacity="0" offset="0%"></stop>
            <stop stop-color="#BAFFF6" offset="100%"></stop>
        </linearGradient>
        <linearGradient x1="50%" y1="0%" x2="50%" y2="104.663568%" id="linearGradient-29">
            <stop stop-color="#FFFFFF" stop-opacity="0" offset="0%"></stop>
            <stop stop-color="#DAFFFA" offset="100%"></stop>
        </linearGradient>
        <linearGradient x1="52.894491%" y1="11.9934833%" x2="52.894491%" y2="107.593546%" id="linearGradient-30">
            <stop stop-color="#7660C7" stop-opacity="0" offset="0%"></stop>
            <stop stop-color="#413296" stop-opacity="0.836616848" offset="59.3532045%"></stop>
            <stop stop-color="#413296" stop-opacity="0" offset="100%"></stop>
        </linearGradient>
        <linearGradient x1="48.7916023%" y1="104.555907%" x2="48.7916082%" y2="21.1708072%" id="linearGradient-31">
            <stop stop-color="#FFFFFF" stop-opacity="0" offset="0%"></stop>
            <stop stop-color="#5241A5" stop-opacity="0.75" offset="15.1367188%"></stop>
            <stop stop-color="#413296" stop-opacity="0.15" offset="100%"></stop>
        </linearGradient>
    </defs>
    <g id="Home" stroke="none" stroke-width="1" fill="none" fill-rule="evenodd">
        <g id="LANDING-Copy" transform="translate(-477.000000, -1966.000000)">
            <g id="Group-22" transform="translate(431.000000, 1866.000000)">
                <g id="Group-17" transform="translate(0.000000, 106.000000)">
                    <g id="Group-4-Copy-2">
                        <g id="Group-27">
                            <g id="Group-17-Copy">
                                <g id="Group-16" transform="translate(46.090549, 0.000000)">
                                    <g id="Group-8">
                                        <path d="M272.886601,522.858062 C264.958817,522.858062 242.821843,520.58888 232.062707,509.24297 C221.303571,497.897059 216.893034,486.333436 213.323354,471.234169 C208.226922,449.676939 207.199246,430.38889 207.199246,430.38889 L243.440545,504.13731 C243.440545,504.13731 293.838602,514.348629 297.236224,518.886994 C300.633846,523.425358 280.814385,522.858062 272.886601,522.858062 Z" id="Path-30-Copy" fill="#E4E0FF" transform="translate(252.411710, 476.634822) scale(-1, 1) translate(-252.411710, -476.634822) "></path>
                                        <path d="M101.87297,522.858062 C93.9451856,522.858062 71.8082114,520.58888 61.0490757,509.24297 C50.28994,497.897059 45.8794027,486.333436 42.3097233,471.234169 C37.2132906,449.676939 36.1856148,430.38889 36.1856148,430.38889 L72.4269142,504.13731 C72.4269142,504.13731 122.824971,514.348629 126.222593,518.886994 C129.620215,523.425358 109.800754,522.858062 101.87297,522.858062 Z" id="Path-30-Copy-2" fill="#E4E0FF"></path>
                                        <path d="M96.2102668,519.805332 C96.8335981,519.847087 104.138051,519.805332 113.016523,519.759 C127.630465,519.682737 146.042479,517.073081 170.677316,517.073081 C195.315904,517.073081 212.115335,519.805332 224.955797,519.805332 C229.283788,519.805332 237.837968,519.8525 238.344113,519.805332 C248.249348,519.721498 252.90336,516.74581 252.90336,516.74581 C256.504769,515.212626 256.766067,512.226667 254.199681,510.543819 L254.199681,510.543819 C254.041167,510.500057 248.129222,505.693416 247.970708,505.649654 C247.812193,505.605893 242.038437,507.769458 236.25852,508.065464 C235.105303,508.156949 234.540489,508.194089 233.808038,508.235025 C231.637655,508.356324 228.582963,508.479129 224.505466,508.594487 C212.742266,508.927283 195.176813,509.127556 170.677316,509.127556 C146.174067,509.127556 127.32983,508.909697 113.43173,508.5472 C108.589855,508.420912 104.716209,508.285981 101.722025,508.151637 C100.686182,508.10516 97.9961256,507.36006 97.9961256,507.36006 C94.195141,506.415429 88.0996781,506.525469 84.675202,508.422297 C84.675202,508.422297 80.9728848,510.054402 80.3897103,512.501485 C79.0746287,518.019752 87.1987427,519.407777 96.2102668,519.805332 Z" id="Rectangle-11-Copy" stroke="#765DFF" stroke-width="4.536" fill="#765DFF"></path>
                                        <path d="M285.910818,98.8732181 C284.876159,90.4055885 285.191395,83.193949 285.191395,83.193949 C285.223652,78.1909545 283.415589,70.5026682 281.100828,66.0673815 C281.100828,66.0673815 270.438827,43.9629841 259.430242,32.3170962 C249.185774,21.4795608 237.009741,12.6283494 221.595106,6.46293296 C207.25402,0.726905869 188.977186,6.39232588 167.977155,5.86900493 C146.117614,5.32426499 130.700657,-0.591173141 117.048526,5.02461924 C103.488197,10.6026486 91.6538602,18.6022807 81.4462643,27.7970653 C67.8239824,40.067726 54.7589214,66.1360147 54.7589214,66.1360147 C52.3913395,70.5538572 50.6591221,78.1960127 50.8054536,83.1953399 C50.8054536,83.1953399 51.407536,90.2088198 50.3423724,98.8732181" id="Rectangle-11-Copy-2" stroke="#765DFF" stroke-width="15.876" stroke-linecap="round" stroke-linejoin="round"></path>
                                        <g id="Rectangle-11">
                                            <use fill="#FFFFFF" fill-rule="evenodd" xlink:href="#path-1"></use>
                                            <use fill="black" fill-opacity="1" filter="url(#filter-2)" xlink:href="#path-1"></use>
                                            <use stroke="#E4E0FF" stroke-width="4" stroke-linecap="round" stroke-linejoin="round" xlink:href="#path-1"></use>
                                        </g>
                                        <g id="Group-12" transform="translate(155.102378, 519.076432)" fill="#413296">
                                            <rect id="Rectangle-23" x="16.8431868" y="0" width="11.325406" height="4.53836427" rx="2.26918213"></rect>
                                            <rect id="Rectangle-23" x="0.504544155" y="0" width="11.325406" height="4.53836427" rx="2.26918213"></rect>
                                        </g>
                                        <g id="Group-11" transform="translate(0.000000, 170.243507)">
                                            <path d="M14.2647816,44.3836427 L19.8742505,28.2144494 C22.6457055,20.22578 31.7497153,13.7496839 40.2114226,13.7496839 L70.9454866,13.7496839" id="Rectangle-36" stroke="#765DFF" stroke-width="4.2" stroke-linecap="round" stroke-linejoin="round" transform="translate(42.605134, 29.066663) scale(-1, 1) translate(-42.605134, -29.066663) "></path>
                                            <g id="Combined-Shape-Copy" transform="translate(21.221253, 17.640534) scale(-1, 1) rotate(-12.000000) translate(-21.221253, -17.640534) translate(2.721253, 3.640534)">
                                                <mask id="mask-4" fill="white">
                                                    <use xlink:href="#path-3"></use>
                                                </mask>
                                                <use id="Mask" fill="#F478A2" xlink:href="#path-3"></use>
                                            </g>
                                        </g>
                                        <g id="Group-11-Copy-2" transform="translate(298.258411, 191.737245) scale(-1, 1) translate(-298.258411, -191.737245) translate(262.758411, 169.237245)">
                                            <path d="M14.2647816,44.3836427 L19.8742505,28.2144494 C22.6457055,20.22578 31.7497153,13.7496839 40.2114226,13.7496839 L70.9454866,13.7496839" id="Rectangle-36" stroke="#765DFF" stroke-width="4.2" stroke-linecap="round" stroke-linejoin="round" transform="translate(42.605134, 29.066663) scale(-1, 1) translate(-42.605134, -29.066663) "></path>
                                            <g id="Combined-Shape-Copy" transform="translate(21.221253, 17.640534) scale(-1, 1) rotate(-12.000000) translate(-21.221253, -17.640534) translate(2.721253, 3.640534)">
                                                <mask id="mask-6" fill="white">
                                                    <use xlink:href="#path-5"></use>
                                                </mask>
                                                <use id="Mask" fill="#F478A2" xlink:href="#path-5"></use>
                                            </g>
                                        </g>
                                        <path d="M65.3897924,197.490129 C64.4749564,190.035976 66.1869249,178.426254 69.6155284,171.740212 C69.6155284,171.740212 92.8179304,107.408294 168.111695,107.975589 C243.40546,108.542885 266.059276,171.735484 266.059276,171.735484 C269.310654,178.505229 271.104112,190.026381 270.065963,197.462334 L266.380592,223.859572 L253.572307,323.109058 C252.611072,330.557519 251.250051,342.666745 250.533146,350.147779 L247.694157,379.773153 C246.976909,387.257765 240.303909,393.325243 232.790724,393.325243 L231.882898,393.325243 C231.882898,393.325243 198.939044,262.84727 174.635343,262.84727 C150.331641,262.84727 103.418858,393.325243 103.418858,393.325243 L101.804265,393.325243 C94.2891872,393.325243 87.3251809,387.297995 86.2476767,379.848874 L81.4481535,346.668284 C80.3715645,339.225492 78.8968149,327.138407 78.151968,319.648499 L68.6260709,223.859572 L65.3897924,197.490129 Z" id="Path-3" stroke="url(#linearGradient-8)" stroke-width="4" stroke-linecap="round" stroke-linejoin="round" fill="url(#linearGradient-7)"></path>
                                        <path d="M52.7804533,266.023598 C57.3106157,283.609759 66.3033566,311.563683 63.539589,329.560697 C59.0094266,359.060065 38.6236958,395.934275 38.6236958,423.731756 C38.6236958,425.668079 38.4070206,428.86987 38.6001149,428.86987 C38.6090841,428.86987 38.3688709,429.275534 38.0677348,429.778268 C36.2680365,409.438349 38.0506816,395.386597 44.2100431,367.337248 C44.4141232,366.407977 44.5111371,365.966108 44.618115,365.478303 C49.3094129,344.086601 51.0347239,332.836752 51.0347239,317.951971 C51.0347239,304.621562 50.3746394,285.213761 49.197453,261.308202 C48.9602259,256.490742 48.7043174,251.540602 48.4317758,246.480716 C49.5976768,252.481974 51.0676402,259.37443 52.7804533,266.023598 Z" id="Combined-Shape" fill="url(#linearGradient-9)"></path>
                                        <path d="M284.67948,267.073173 C289.209643,284.659334 298.202384,312.613258 295.438616,330.610272 C290.908454,360.10964 270.522723,396.98385 270.522723,424.781331 C270.522723,426.717654 270.306048,429.919445 270.499142,429.919445 C270.508111,429.919445 270.267898,430.325109 269.966762,430.827843 C268.167064,410.487924 269.949709,396.436172 276.10907,368.386823 C276.31315,367.457552 276.410164,367.015683 276.517142,366.527878 C281.20844,345.136176 282.933751,333.886327 282.933751,319.001546 C282.933751,305.671137 282.273666,286.263336 281.09648,262.357777 C280.859253,257.540318 280.603344,252.590177 280.330803,247.530291 C281.496704,253.531549 282.966667,260.424005 284.67948,267.073173 Z" id="Combined-Shape-Copy-4" fill="url(#linearGradient-9)" transform="translate(282.628423, 339.179067) scale(-1, 1) translate(-282.628423, -339.179067) "></path>
                                        <polygon id="Path-6-Copy" fill="url(#linearGradient-10)" points="233.81395 120.456091 181.150812 260.578088 223.054814 245.828404 269.488979 180.589418"></polygon>
                                        <path d="M152.266602,209.909034 C154.221688,207.608796 158.0886,204.859497 160.96831,203.959535 C160.96831,203.959535 162.573159,202.713943 169.288809,202.713943 C176.00446,202.713943 177.551895,203.950788 177.551895,203.950788 C180.399814,204.941198 184.293836,207.609287 186.248506,209.909034 L185.893988,209.49193 C187.849075,211.792168 186.985563,213.65688 183.970837,213.65688 L154.544271,213.65688 C151.527057,213.65688 150.66645,211.791678 152.621119,209.49193 L152.266602,209.909034 Z" id="Rectangle-13" fill="#413296"></path>
                                        <ellipse id="Oval-4" fill="url(#linearGradient-11)" cx="262.127465" cy="414.882473" rx="6.22897332" ry="8.509433"></ellipse>
                                        <polygon id="Path-6-Copy" fill="url(#linearGradient-10)" points="213.428219 114.783136 169.825406 260.578088 181.150812 250.366768 227.018706 122.157978"></polygon>
                                        <g id="Combined-Shape">
                                            <use fill="url(#linearGradient-12)" fill-rule="evenodd" xlink:href="#path-13"></use>
                                            <use fill="black" fill-opacity="1" filter="url(#filter-14)" xlink:href="#path-13"></use>
                                        </g>
                                        <path d="M140.37935,395.138202 C149.386407,397.835905 159.13875,399.700103 168.891093,399.700103 C178.554111,399.700103 188.217128,397.869898 197.155152,395.21212" id="Path-8-Copy-2" stroke="#F478A2" stroke-width="9.072" stroke-linecap="round" stroke-linejoin="round"></path>
                                        <path d="M136.33441,485.794415 L121.625687,453.764477 C119.533825,449.209207 119.759135,441.939738 122.267876,437.599153 C122.267876,437.599153 142.02777,397.407384 168.37621,397.407384 C194.72465,397.407384 214.85689,437.626072 214.85689,437.626072 C217.33314,441.983798 217.545714,449.161873 215.333456,453.655161 L199.50978,485.794415 L136.33441,485.794415 Z" id="Rectangle-16-Copy-4" fill="url(#linearGradient-15)" opacity="0.256588153" filter="url(#filter-16)" transform="translate(168.534538, 441.600899) rotate(-180.000000) translate(-168.534538, -441.600899) "></path>
                                        <ellipse id="Oval-10-Copy-3" fill="#F478A2" transform="translate(241.175464, 516.995669) rotate(-9.000000) translate(-241.175464, -516.995669) " cx="241.175464" cy="516.995669" rx="7.92778422" ry="3.97106873"></ellipse>
                                        <ellipse id="Oval-10-Copy-4" fill="#F478A2" transform="translate(93.945186, 515.861078) scale(-1, 1) rotate(-9.000000) translate(-93.945186, -515.861078) " cx="93.9451856" cy="515.861078" rx="7.92778422" ry="3.97106873"></ellipse>
                                        <ellipse id="Oval-10-Copy-7" fill="#F478A2" transform="translate(110.933295, 516.995669) scale(-1, 1) rotate(-9.000000) translate(-110.933295, -516.995669) " cx="110.933295" cy="516.995669" rx="3.39762181" ry="1.7018866"></ellipse>
                                        <ellipse id="Oval-10-Copy-6" fill="#F478A2" transform="translate(224.187355, 518.130260) rotate(-9.000000) translate(-224.187355, -518.130260) " cx="224.187355" cy="518.13026" rx="3.39762181" ry="1.7018866"></ellipse>
                                        <path d="M140.37935,397.407384 C149.386407,400.105087 159.13875,401.969285 168.891093,401.969285 C178.554111,401.969285 188.217128,400.139081 197.155152,397.481302" id="Path-8-Copy-3" stroke="#FFA5C3" stroke-width="4.536" stroke-linecap="round" stroke-linejoin="round"></path>
                                        <path d="M74.7005211,139.215192 C74.3335396,139.567798 85.8277337,124.578905 106.489348,111.412592 M117.113112,105.296245 C118.342111,104.662041 119.594944,104.040311 120.871227,103.4335" id="Path-15" stroke="#E4E0FF" stroke-width="3.402" stroke-linecap="round" stroke-linejoin="round"></path>
                                        <path d="M64.4991299,246.962995 L98.7828119,194.20451 C98.7828119,194.20451 105.576539,181.724009 105.576539,174.349167 C105.576539,166.974325 101.612647,157.897596 101.612647,157.897596 L113.504323,187.396964 L110.674488,218.030923 C110.674488,218.030923 111.807029,203.848535 104.445515,206.685012 C102.318909,207.504419 100.028538,210.879531 98.311566,212.836836 C77.8308108,236.18438 67.4769206,257.174315 67.4769206,257.174315 L64.4991299,246.962995 Z" id="Path-7" fill="url(#linearGradient-17)" transform="translate(89.001726, 207.535956) scale(-1, 1) translate(-89.001726, -207.535956) "></path>
                                        <path d="M221.922274,246.962995 L256.205956,194.20451 C256.205956,194.20451 262.999682,181.724009 262.999682,174.349167 C262.999682,166.974325 259.03579,157.897596 259.03579,157.897596 C259.03579,157.897596 266.365159,170.269721 269.546404,178.161352 C272.727649,186.052983 270.927467,187.396964 270.927467,187.396964 L268.097632,218.030923 C268.097632,218.030923 269.230173,203.848535 261.868659,206.685012 C259.742053,207.504419 257.451682,210.879531 255.73471,212.836836 C235.253955,236.18438 224.900064,257.174315 224.900064,257.174315 L221.922274,246.962995 Z" id="Path-7-Copy" fill="url(#linearGradient-17)"></path>
                                        <path d="M128.445186,252.63595 C152.352959,242.812136 156.472508,239.269302 173.029458,239.020858 C189.586407,238.772413 215.830359,258.876201 215.830359,258.876201 L222.072157,270.789407 C222.072157,270.789407 224.680749,310.700778 226.084741,338.297576 C227.488733,365.894374 227.868112,396.729016 227.868112,396.729016 C227.868112,396.729016 226.29343,367.481041 212.70946,374.037195 C199.780021,380.277445 185.513054,388.219583 168.119977,387.652287 C150.7269,387.084992 136.916197,381.412037 122.203388,372.902604 C107.490578,364.393171 108.382263,396.729016 108.382263,396.729016 C108.382263,396.729016 108.425145,380.27622 110.165634,348.508896 C111.906123,316.741571 114.178219,270.789407 114.178219,270.789407 C114.178219,270.789407 104.537412,262.459765 128.445186,252.63595 Z" id="Path-4" fill="#FFFFFF"></path>
                                        <path d="M42.9808585,97.1969742 C54.7487493,53.2107705 91.0397673,6.78749506 134.544997,6.14455908 L153.1082,5.85348827 C160.609844,5.74262627 180.701928,5.74679959 188.207899,5.86277725 L202.506923,6.08371702 C245.288307,6.74474878 279.893916,49.3281973 291.573521,93.793201 C292.401715,96.946189 293.550678,100.1297 293.838602,102.86993 C294.971143,113.648545 293.953825,119.14377 293.838602,124.42716 C293.832135,124.723723 291.524402,146.27346 291.573521,146.551686 C291.573521,146.551686 291.493494,129.291597 291.007251,116.485022 C290.521008,103.678447 290.49381,106.707652 290.49381,106.707652 C290.112789,102.972219 288.762851,97.0889082 287.446432,93.566071 C287.446432,93.566071 287.040954,92.251693 285.422281,88.4604108 C269.412064,50.9610051 238.284655,17.9824433 202.506923,17.4296277 C202.506923,17.4296277 184.888755,15.5851405 168.107531,15.6001636 C151.326307,15.6151868 134.544997,17.4904698 134.544997,17.4904698 C98.9845394,18.015995 67.8142137,51.1337292 51.1891552,87.8443527 C49.5689591,91.4219888 48.7912336,92.8500449 48.7912336,92.8500449 C46.8332219,96.7679566 45.0409339,103.494896 44.7889297,107.859784 L42.9808585,139.176844 C43.0696256,138.651321 41.8999891,116.456123 41.8483179,109.11018 C41.7966467,101.764238 42.8690264,97.6149817 42.9808585,97.1969742 Z" id="Combined-Shape-Copy-3" fill="url(#linearGradient-18)"></path>
                                        <path d="M40.199705,91.5240189 C51.9675958,47.5378152 89.4150232,1.32402907 134.544997,0.561004093 L153.1082,0.269933281 C160.609844,0.159071281 180.701928,0.163244596 188.207899,0.279222264 L202.506923,0.500162035 C246.806611,1.1846537 285.671883,47.1059527 295.843377,93.2259055 C295.938103,93.6554176 295.767238,93.9292257 295.843377,94.3604965 L295.843377,94.3604965 C293.172458,94.3604966 290.198338,91.4178045 289.204215,87.8013507 L289.199028,87.7824806 C289.199028,87.7824806 287.040954,83.2643648 285.422281,79.4730826 C269.412064,41.973677 238.284655,10.1297062 202.506923,9.57689057 L188.207899,7.08676867 C180.701928,6.970791 160.609844,6.96661768 153.1082,7.07747968 L134.544997,9.63773263 C98.9845394,10.1632579 67.8142137,42.146401 51.1891552,78.8570245 C49.5689591,82.4346606 47.3193001,85.7428289 46.2826199,87.7824806 C45.2459397,89.8221323 46.2826199,87.7824806 46.2826199,87.7824806 C44.4591074,91.4154185 39.5832367,94.3604966 39.5832367,94.3604966 L39.5832367,94.3604966 C39.7392832,93.4366634 39.940324,92.4935374 40.199705,91.5240189 Z" id="Combined-Shape" fill="url(#linearGradient-19)"></path>
                                        <path d="M230.516363,473.291072 C230.219874,473.506561 229.936703,473.739864 229.668407,473.989696 C229.563618,474.087274 229.25529,474.360689 228.750775,474.784948 C227.845197,475.54647 226.757306,476.409806 225.494638,477.350091 C221.822468,480.084687 217.535078,482.836506 212.694912,485.410014 C198.89007,492.750024 183.548184,497.140325 167.089735,497.140325 C150.640421,497.140325 135.441706,492.773492 121.861012,485.47544 C117.10385,482.919016 112.903713,480.186226 109.317622,477.471529 C108.085775,476.539011 107.026462,475.6833 106.146564,474.92915 C105.853266,474.677768 105.607179,474.460919 105.409145,474.281709 C105.040096,473.936273 104.805249,473.734682 104.560579,473.545509 C99.9260885,469.962224 95.8403157,461.295124 96.0483624,455.4909 C96.0488675,454.484341 96.0690516,453.436149 96.1396319,451.860802 C96.2543071,449.301263 96.4708389,446.152433 96.8148807,442.383652 C97.0518968,439.787276 98.0406998,435.194507 99.8585918,428.177773 C100.923371,424.06792 105.406144,407.590549 105.92791,405.636113 C107.179236,400.948888 108.242315,396.839984 109.211497,392.910651 C113.194547,376.762259 115.413181,364.312839 115.67553,354.364126 C115.922832,344.986009 116.204026,335.180921 116.512806,325.077467 C116.937949,311.1666 117.393495,297.388406 117.849035,284.362089 C118.008464,279.803156 118.156495,275.664096 118.289328,272.02226 C118.335805,270.748023 118.377057,269.627082 118.412609,268.669105 C118.433918,268.094942 118.448577,267.703069 118.456112,267.503153 C118.480904,266.82787 118.842797,265.623924 119.479793,264.422719 C120.103767,263.246072 120.851077,262.337211 121.308596,262.01702 C121.502131,261.881576 121.690307,261.738606 121.872695,261.588436 C121.967554,261.510334 122.237076,261.29703 122.671418,260.967878 C123.447912,260.379436 124.370402,259.712997 125.428819,258.987862 C128.498762,256.884603 131.998975,254.770521 135.845009,252.797936 C146.678415,247.241611 157.978588,243.937596 169.054132,243.937596 C180.078058,243.937596 190.837502,247.165673 200.849684,252.590138 C204.391332,254.508956 207.572334,256.563498 210.327412,258.604347 C211.273146,259.304907 212.09104,259.947052 212.77337,260.511747 C212.999392,260.698802 213.188876,260.859517 213.340879,260.991503 C213.604368,261.227086 213.772986,261.369227 213.946608,261.505069 C215.275415,262.544731 216.928545,265.791497 216.991444,267.492113 C217.018447,268.199125 217.018447,268.199125 217.040292,268.776348 C217.079799,269.822359 217.125643,271.049837 217.177296,272.449368 C217.324937,276.449682 217.489477,281.025316 217.666691,286.100961 C218.173076,300.604528 218.67948,316.205035 219.152101,332.299681 C219.369889,339.716234 219.575754,347.082505 219.767772,354.364126 C220.028104,364.23639 221.898368,376.133541 225.173339,390.650268 C226.342853,395.834288 227.668256,401.255861 229.258348,407.439152 C230.332942,411.617857 234.363388,426.834394 235.190253,430.075527 C236.982279,437.099884 237.936291,441.532946 238.165536,443.970605 C238.483135,447.347784 238.681533,450.111522 238.784723,452.306851 C238.848237,453.658094 238.865114,454.534094 238.85977,454.979269 C239.061455,461.400897 235.018164,470.019155 230.516363,473.291072 Z M93.1400118,487.642294 C93.4504506,487.925896 93.8598807,488.288959 94.3665366,488.723208 C95.5193417,489.711263 96.8632467,490.796867 98.393125,491.954996 C102.697678,495.213574 107.678113,498.45406 113.295383,501.472693 C129.355923,510.103375 147.421079,515.293782 167.089735,515.293782 C186.749255,515.293782 204.927093,510.091932 221.189909,501.445022 C226.873424,498.423107 231.926514,495.179831 236.304897,491.919332 C237.859923,490.761333 239.22722,489.676264 240.400985,488.689217 C240.884564,488.282564 241.280758,487.938974 241.587917,487.665329 C250.762882,480.715725 257.278971,466.720461 256.980202,455.087715 C256.986682,454.273939 256.96162,453.076307 256.885316,451.45296 C256.768417,448.965994 256.549766,445.920119 256.206296,442.267853 C255.857796,438.562091 254.776038,433.535422 252.746581,425.580392 C251.893621,422.236972 247.857183,406.997811 246.806026,402.910244 C245.257575,396.888881 243.973319,391.635617 242.848197,386.648372 C239.81206,373.190306 238.104807,362.330103 237.882101,353.884718 C237.689592,346.584456 237.483222,339.200101 237.264915,331.765868 C236.791244,315.635484 236.283765,300.001846 235.776266,285.466383 C235.59862,280.378368 235.433648,275.790706 235.285572,271.778618 C235.233725,270.373809 235.187686,269.141118 235.147983,268.089949 C235.125999,267.509018 235.125999,267.509018 235.111672,267.133155 C234.843139,259.88413 230.774835,251.793433 225.35958,247.404492 C225.098765,247.175081 224.74949,246.876474 224.314207,246.516235 C223.386619,245.748564 222.313543,244.906072 221.100897,244.007793 C217.689177,241.480531 213.797472,238.966961 209.469653,236.622207 C196.997646,229.865041 183.395665,225.784139 169.054132,225.784139 C154.764216,225.784139 140.778608,229.873338 127.587232,236.639038 C123.024593,238.979161 118.874375,241.485838 115.199799,244.003339 C113.897633,244.895469 112.741393,245.730777 111.739466,246.490057 C111.277345,246.840261 110.907196,247.129017 110.632375,247.348861 C104.87733,251.549821 100.609263,259.710492 100.348033,266.827126 C100.3407,267.021577 100.325911,267.416938 100.304471,267.994636 C100.268777,268.956425 100.227383,270.081224 100.180763,271.359373 C100.047608,275.010066 99.8992523,279.158193 99.7394957,283.72649 C99.283076,296.777973 98.8266634,310.582357 98.400644,324.521919 C98.0911225,334.64961 97.8092083,344.479814 97.5611998,353.884718 C97.3420206,362.196368 95.3120802,373.586973 91.6199446,388.555915 C90.6814822,392.360703 89.6462324,396.362046 88.4225176,400.945845 C87.9258314,402.806336 83.4168184,419.380156 82.3190925,423.617179 C80.2567621,431.577401 79.1253613,436.832504 78.7695357,440.730371 C78.4004,444.77404 78.1646462,448.202399 78.0372075,451.046819 C77.9565079,452.848029 77.9287914,454.17512 77.9324691,455.055269 C77.6080014,466.538933 84.128543,480.451235 93.1400118,487.642294 Z" id="Rectangle-12" fill="#FFFFFF"></path>
                                        <g id="Group-15" transform="translate(97.060986, 39.915375) rotate(-10.000000) translate(-97.060986, -39.915375) translate(64.060986, 13.415375)">
                                            <mask id="mask-21" fill="white">
                                                <use xlink:href="#path-20"></use>
                                            </mask>
                                            <use id="Rectangle-4-Copy-3" fill="#765DFF" transform="translate(33.188442, 26.418867) scale(-1, -1) rotate(150.000000) translate(-33.188442, -26.418867) " xlink:href="#path-20"></use>
                                            <g id="Oval-10-Copy" mask="url(#mask-21)" transform="translate(45.427870, 24.936591) scale(-1, 1) rotate(41.000000) translate(-45.427870, -24.936591) ">
                                                <use fill="#FAD214" fill-rule="evenodd" xlink:href="#path-22"></use>
                                                <use fill="black" fill-opacity="1" filter="url(#filter-23)" xlink:href="#path-22"></use>
                                            </g>
                                            <ellipse id="Oval-10-Copy-2" fill="#F478A2" mask="url(#mask-21)" transform="translate(20.592346, 30.403893) scale(-1, 1) rotate(41.000000) translate(-20.592346, -30.403893) " cx="20.5923463" cy="30.403893" rx="6.92692204" ry="3.16420639"></ellipse>
                                        </g>
                                        <g id="Group-15-Copy" transform="translate(240.642212, 39.915375) scale(-1, 1) rotate(-10.000000) translate(-240.642212, -39.915375) translate(207.642212, 13.415375)">
                                            <mask id="mask-25" fill="white">
                                                <use xlink:href="#path-24"></use>
                                            </mask>
                                            <use id="Rectangle-4-Copy-3" fill="#765DFF" transform="translate(33.188442, 26.418867) scale(-1, -1) rotate(150.000000) translate(-33.188442, -26.418867) " xlink:href="#path-24"></use>
                                            <g id="Oval-10-Copy" mask="url(#mask-25)" transform="translate(45.427870, 24.936591) scale(-1, 1) rotate(41.000000) translate(-45.427870, -24.936591) ">
                                                <use fill="#FAD214" fill-rule="evenodd" xlink:href="#path-26"></use>
                                                <use fill="black" fill-opacity="1" filter="url(#filter-27)" xlink:href="#path-26"></use>
                                            </g>
                                            <ellipse id="Oval-10-Copy-2" fill="#F478A2" mask="url(#mask-25)" transform="translate(20.592346, 30.403893) scale(-1, 1) rotate(41.000000) translate(-20.592346, -30.403893) " cx="20.5923463" cy="30.403893" rx="6.92692204" ry="3.16420639"></ellipse>
                                        </g>
                                        <path d="M161.940425,238.677712 C161.940425,238.677712 177.667781,248.889031 202.241775,248.889031 M208.860591,248.813676 C210.320797,248.769074 211.485539,248.757158 214.037293,248.378465" id="Path-29" stroke="#E4E0FF" stroke-width="3.402" stroke-linecap="round" stroke-linejoin="round" transform="translate(187.988859, 243.783372) rotate(-174.000000) translate(-187.988859, -243.783372) "></path>
                                        <path d="M39.9744013,422.104633 C44.4100059,468.203358 56.9976981,475.698205 56.9976981,475.698205 C62.7269532,483.115403 74.4773578,494.100064 83.3920188,497.042002 C83.3920188,497.042002 110.248281,510.948989 168.062258,510.948989 C225.876236,510.948989 251.831448,498.151365 251.831448,498.151365 C260.73241,495.226316 272.418122,484.417032 277.083895,476.284168 C277.083895,476.284168 287.403818,468.835074 292.33363,422.104633 C293.217142,413.729694 293.598457,405.894042 293.629204,398.430903 C295.07398,410.239549 295.070384,420.197824 293.768181,432.695829 C292.009214,449.577662 288.751616,463.20996 284.441266,473.933058 C282.118591,479.711305 279.644902,484.258789 277.190103,487.708759 C276.347454,488.893016 275.573218,489.852203 274.888382,490.602888 C274.501145,491.02736 274.245499,491.275963 274.142351,491.365106 C268.976807,498.861365 257.499663,506.662434 248.614577,509.124176 C248.236348,509.261856 247.936565,509.374351 247.456233,509.539168 C246.627201,509.823635 245.603452,510.143339 244.377894,510.489736 C240.838038,511.490257 236.405994,512.494989 231.025161,513.435545 C215.569433,516.137168 191.444735,517.906366 166.590066,517.906366 C141.742123,517.906366 124.422942,515.834303 106.318749,512.625531 C99.9982717,511.505295 94.5593326,510.306703 90.0115746,509.110414 C88.4277348,508.693785 87.0703252,508.307982 85.9405558,507.963086 C85.2732149,507.759361 84.8359407,507.61671 84.629946,507.545216 C75.9656889,505.362466 64.4387762,497.61186 58.9672738,490.452089 C58.4974271,489.989593 58.2530082,489.766073 57.8802429,489.38078 C57.2178375,488.696114 56.4681147,487.818156 55.6514628,486.730878 C53.2685969,483.558366 50.8658574,479.357717 48.6084835,473.999592 C44.1586445,463.437412 40.8678731,449.804647 39.2439322,432.716346 C38.2532905,422.292086 38.172391,413.589516 39.1036612,403.992958 C39.1067577,409.802675 39.3696867,415.819905 39.9744013,422.104633 Z" id="Combined-Shape" fill="url(#linearGradient-28)"></path>
                                        <path d="M39.9744013,414.953686 C44.4100059,461.052411 56.9976981,468.547257 56.9976981,468.547257 C62.7269532,475.964456 74.4773578,486.949117 83.3920188,489.891054 C83.3920188,489.891054 110.248281,503.798042 168.062258,503.798042 C225.876236,503.798042 251.831448,491.000417 251.831448,491.000417 C260.73241,488.075369 272.418122,477.266085 277.083895,469.13322 C277.083895,469.13322 287.403818,461.684127 292.33363,414.953686 C293.217142,406.578746 293.598457,398.743095 293.629204,391.279955 C295.07398,403.088602 295.070384,413.046877 293.768181,425.544882 C292.009214,442.426715 288.751616,456.059013 284.441266,466.782111 C282.118591,472.560358 279.644902,477.107842 277.190103,480.557812 C276.347454,481.742069 275.573218,482.701256 274.888382,483.451941 C274.501145,483.876412 274.245499,484.125016 274.142351,484.214159 C268.976807,491.710417 257.499663,499.511486 248.614577,501.973229 C248.236348,502.110908 247.936565,502.223403 247.456233,502.388221 C246.627201,502.672688 245.603452,502.992392 244.377894,503.338789 C240.838038,504.33931 236.405994,505.344042 231.025161,506.284598 C215.569433,508.986221 191.444735,510.755418 166.590066,510.755418 C141.742123,510.755418 124.422942,508.683356 106.318749,505.474584 C99.9982717,504.354348 94.5593326,503.155755 90.0115746,501.959467 C88.4277348,501.542838 87.0703252,501.157034 85.9405558,500.812139 C85.2732149,500.608414 84.8359407,500.465763 84.629946,500.394269 C75.9656889,498.211518 64.4387762,490.460913 58.9672738,483.301142 C58.4974271,482.838646 58.2530082,482.615126 57.8802429,482.229833 C57.2178375,481.545166 56.4681147,480.667209 55.6514628,479.579931 C53.2685969,476.407418 50.8658574,472.206769 48.6084835,466.848645 C44.1586445,456.286465 40.8678731,442.653699 39.2439322,425.565399 C38.2532905,415.141139 38.172391,406.438569 39.1036612,396.842011 C39.1067577,402.651728 39.3696867,408.668957 39.9744013,414.953686 Z" id="Combined-Shape-Copy-5" fill="url(#linearGradient-29)" opacity="0.5"></path>
                                    </g>
                                    <path d="M119.164671,2.45957756e-13 C119.164671,2.45957756e-13 153.833354,9.5517575e-16 167.629683,0 C181.426011,0 215.243123,4.29805851e-13 215.243123,4.29805851e-13 L205.675497,7.54452001 C203.708469,9.09561346 200.085476,10.4420471 197.587954,10.5516601 L173.285432,11.6182667 C170.161848,11.7553568 165.100797,11.7691312 161.969902,11.6485955 L137.76968,10.7169163 C135.267031,10.6205674 131.610068,9.32280785 129.613941,7.82751545 L119.164671,2.45957756e-13 Z" id="Rectangle-13-Copy-2" fill="#765DFF"></path>
                                    <path d="M307.930043,196.989727 C306.204964,198.10579 304.557361,199.342588 302.887202,200.54503 C298.910399,199.866755 299.001606,196.520529 299.110465,195.007906 C300.453065,176.26551 301.785858,157.521151 303.368733,138.798387 C303.937549,132.075508 304.010122,125.449805 302.936238,118.776986 C298.807424,93.1379695 292.729928,68.3450802 275.915556,47.4255277 C261.092036,28.9805525 243.206722,15.1804404 220.30995,8.50860296 C214.320719,6.76432533 208.032369,6.57684248 201.835226,7.19033349 C182.118915,9.14270727 162.376125,10.3402417 142.772597,6.66616677 C123.55547,3.06472916 107.301086,9.66687398 91.4762561,19.5592938 C68.4637596,33.9444309 53.6637772,54.9837369 41.9932591,78.7597035 C41.5391877,79.6853388 41.2028022,80.6659428 40.9821411,81.672068 C38.0498008,95.0108349 34.6182762,108.270093 32.4106849,121.729595 C30.2550716,134.87499 33.1530868,148.103819 33.6395218,161.300256 C34.0729982,173.05278 35.0164468,184.790581 35.9471461,196.517584 C36.1756529,199.39363 34.0484803,200.594109 31.4093741,200.440982 C29.7882508,199.270932 28.1867419,198.073398 26.5116793,196.989727 C21.2216982,193.56792 15.2981747,194.268772 11.2762592,199.101118 C7.91926896,203.135435 4.44263141,207.114783 1.83294664,211.724309 C3.48643349,214.126249 5.37823429,214.234223 7.5122719,213.574598 C13.6299771,211.686027 19.7751424,209.887762 25.9046162,208.03551 C28.8320529,207.15012 31.9213077,206.652456 34.3780008,204.59996 C37.3515312,204.882657 36.796446,211.37192 36.9749363,214.223426 C39.2423512,250.432156 40.9556618,286.671315 42.8033304,322.903603 C44.2037925,350.348737 39.909238,376.913388 33.8258578,403.431905 C26.4812771,435.449264 27.1854311,467.275215 37.2250188,498.708531 C38.1655253,501.653287 39.3590564,504.532278 40.6241798,507.357281 C44.0664923,515.03917 49.647746,521.998612 55.9625751,527.510215 C58.7693838,529.960253 61.9851509,532.687098 65.4107912,534.229169 C68.6147898,535.6721 72.8779614,537.178834 75.9613319,539.550345 C79.833198,542.527494 77.9860528,541.278123 77.9860528,541.278123 C80.7513489,544.395179 86.3523749,547.308848 90.5106741,547.751535 C90.5106741,547.751535 116.405071,551.016246 129.517242,549.186571 C134.608137,548.475903 153.187841,545.671512 167.220371,545.671512 C181.2529,545.671512 202.347159,549.333808 211.421723,550.023863 C224.986984,551.054528 246.962359,547.878627 246.962359,547.878627 C251.102891,547.350326 256.839416,544.518549 259.961387,541.760113 C259.961387,541.760113 258.323476,542.691419 262.24732,540.061751 C265.980905,537.561652 270.172484,536.172709 273.634411,533.483164 C278.514453,529.694243 282.106815,525.357484 285.708003,520.413238 C294.633498,508.163049 298.038543,492.608958 300.930674,477.947995 C306.747299,448.466071 304.242551,419.344389 296.959756,390.501478 C290.55372,365.129453 290.247737,339.394241 291.456959,313.507865 C293.104562,278.219863 295.487701,242.979958 298.101309,207.753795 C298.196438,206.472826 298.002257,205.110385 298.918245,204.000212 C300.050972,204.025733 300.268691,203.992359 300.466795,203.939353 C302.520414,206.652456 305.609669,207.15012 308.537106,208.03551 C314.665599,209.887762 320.810764,211.686027 326.928469,213.574598 C329.063488,214.234223 330.955289,214.126249 332.607795,212.495835 C329.99811,207.114783 326.521472,203.135435 323.164482,199.101118 C319.143547,194.268772 313.219043,193.56792 307.930043,196.989727 Z" id="Fill-1" fill-opacity="0.0800000057" fill="url(#linearGradient-30)"></path>
                                    <path d="M303.697065,199.80634 C305.093798,180.308268 306.480327,160.808154 308.127023,141.330505 C308.718772,134.336565 308.794271,127.44372 307.677089,120.501859 C303.381806,93.8291013 297.059271,68.0365855 279.566958,46.2735759 C264.145768,27.0849163 245.539334,12.7283963 221.719386,5.78755661 C215.488674,3.97295131 208.946784,3.77790932 202.499777,4.41613572 C181.988523,6.44722741 161.449722,7.69304535 141.055797,3.87083509 C121.063854,0.124190832 104.154109,6.99252805 87.6912357,17.2838011 C63.7508966,32.2489337 48.3541926,54.1365251 36.2131299,78.8711169 C35.7407507,79.8340729 35.3908024,80.8542139 35.1612445,81.9009052 C32.110675,95.7774789 28.5407945,109.571338 26.2441951,123.573515 C24.0016694,137.24892 27.01653,151.011123 27.5225776,164.739628 C27.9735314,176.966004 28.955019,189.177062 29.9232432,201.376887 C30.1609632,204.368893 27.9480249,205.617774 25.2025124,205.458473 C23.5160269,204.241247 30.8067861,216.830135 30.9924729,219.796612 C33.351308,257.465244 35.1336976,295.165533 37.0558625,332.858674 C38.51279,361.41037 34.045083,389.046083 27.7164265,416.633802 C20.0757191,449.942072 20.8082639,483.051216 31.2526386,515.751894 C32.2310654,518.815381 33.4727186,521.81045 34.7888506,524.749354 C38.369954,532.74097 44.1762387,539.98101 50.7456759,545.714836 C53.6656525,548.263657 57.0110764,551.100446 60.5748354,552.704692 C63.9080162,554.2058 68.343075,555.773284 71.5507641,558.240412 C75.5787402,561.337597 73.8710485,560.239413 73.8710485,560.239413 C76.6296893,563.370828 82.2288227,566.297099 86.3883406,566.741656 C86.3883406,566.741656 113.625158,570.168609 127.265999,568.265162 C132.562155,567.525841 151.890975,564.60838 166.489283,564.60838 C181.087592,564.60838 203.032352,568.418336 212.472793,569.136213 C226.584993,570.208434 249.746423,566.868622 249.746423,566.868622 C253.888197,566.338826 259.62539,563.500962 262.741806,560.724732 C262.741806,560.724732 261.265582,561.508132 265.347631,558.772438 C269.231751,556.171538 273.592331,554.726593 277.19384,551.928609 C282.27064,547.986922 286.007843,543.475309 289.754228,538.331715 C299.03959,525.58761 302.581924,509.406392 305.590663,494.154313 C311.641809,463.483705 309.036072,433.187863 301.459641,403.182032 C294.79532,376.787031 294.476999,350.014199 295.734977,323.084109 C297.449009,286.373326 299.928235,249.712581 302.64722,213.066131 C302.746185,211.733515 302.544174,210.316141 303.497095,209.161207 C304.675492,209.187757 304.901989,209.153038 305.108081,209.097895 C307.2445,211.920387 303.583817,201.379951 303.697065,199.80634 Z" id="Fill-1" fill-opacity="0.03" fill="url(#linearGradient-31)"></path>
                                </g>
                            </g>
                        </g>
                    </g>
                </g>
            </g>
        </g>
    </g>
</svg>