<?xml version="1.0" encoding="UTF-8"?>
<svg width="303px" height="566px" viewBox="0 0 303 566" version="1.1" xmlns="http://www.w3.org/2000/svg" xmlns:xlink="http://www.w3.org/1999/xlink">
    <!-- Generator: Sketch 47 (45396) - http://www.bohemiancoding.com/sketch -->
    <title>car_top</title>
    <desc>Created with Sketch.</desc>
    <defs>
        <linearGradient x1="52.894491%" y1="11.9934833%" x2="52.894491%" y2="107.593546%" id="linearGradient-1">
            <stop stop-color="#7661C7" stop-opacity="0" offset="0%"></stop>
            <stop stop-color="#413296" stop-opacity="0.836616848" offset="59.3532045%"></stop>
            <stop stop-color="#413296" stop-opacity="0" offset="100%"></stop>
        </linearGradient>
        <linearGradient x1="48.7916023%" y1="104.555907%" x2="48.7916082%" y2="21.1708072%" id="linearGradient-2">
            <stop stop-color="#FFFFFF" stop-opacity="0" offset="0%"></stop>
            <stop stop-color="#5241A5" stop-opacity="0.75" offset="15.1367188%"></stop>
            <stop stop-color="#413296" stop-opacity="0.15" offset="100%"></stop>
        </linearGradient>
        <path d="M378.370652,84.794504 C375.956647,46.546051 345.427318,2.9232886 308.118034,2.34677736 L297.452787,2.18197562 C291.854291,2.09546643 276.868161,2.0923535 271.272892,2.17504685 L257.427112,2.39216021 C220.107874,2.94370705 189.271157,47.3923566 186.015528,83.9481983 L189.478008,139.620778 C189.478008,139.620778 194.202783,207.888022 194.202783,238.461396 C194.202783,269.034769 181.365996,288.682713 184.633565,323.068327 C187.901134,357.453942 197.429799,363.309313 197.429799,363.309313 C202.921741,370.906039 214.993809,377.064403 221.691527,377.064403 L221.691527,377.064403 C221.691527,377.064403 238.783776,381.433894 247.878179,382.529394 C256.972582,383.624893 284.623966,384.645158 284.623966,384.645158 C284.623966,384.645158 304.27724,383.952833 323.059214,381.683088 C341.841187,379.413343 340.901885,377.638352 347.134039,377.064403 C366.428204,375.28751 347.134039,377.064403 347.134039,377.064403 C351.551342,377.664904 359.83093,372.164184 364.825615,364.214376 C364.825615,364.214376 374.206718,357.925147 377.838354,323.068327 C381.46999,288.211508 368.841491,269.881075 368.841491,238.461396 C368.841491,207.041716 374.2433,139.657051 374.2433,139.657051 L378.370652,84.794504 Z" id="path-3"></path>
        <filter x="-1.1%" y="-0.5%" width="102.1%" height="101.0%" filterUnits="objectBoundingBox" id="filter-4">
            <feOffset dx="0" dy="0" in="SourceAlpha" result="shadowOffsetInner1"></feOffset>
            <feComposite in="shadowOffsetInner1" in2="SourceAlpha" operator="arithmetic" k2="-1" k3="1" result="shadowInnerInner1"></feComposite>
            <feColorMatrix values="0 0 0 0 0.894372993   0 0 0 0 0.875414299   0 0 0 0 1  0 0 0 1 0" type="matrix" in="shadowInnerInner1"></feColorMatrix>
        </filter>
        <path d="M7.508367,1.18034334 C12.5261018,-1.16492717 18.5943079,0.959476808 21.0544817,5.91003329 L25.6418083,15.141015 C28.105386,20.0984212 26.1630216,21.9512141 21.3101677,19.2830561 L3.13540613,9.29035143 C-0.158133186,7.47952351 -0.0660221434,4.72058455 3.34380734,3.12684298 L7.508367,1.18034334 Z" id="path-5"></path>
        <path d="M7.508367,1.18034334 C12.5261018,-1.16492717 18.5943079,0.959476808 21.0544817,5.91003329 L25.6418083,15.141015 C28.105386,20.0984212 26.1630216,21.9512141 21.3101677,19.2830561 L3.13540613,9.29035143 C-0.158133186,7.47952351 -0.0660221434,4.72058455 3.34380734,3.12684298 L7.508367,1.18034334 Z" id="path-7"></path>
        <linearGradient x1="50%" y1="71.7991071%" x2="74.3313953%" y2="8.03124979%" id="linearGradient-9">
            <stop stop-color="#000000" offset="0%"></stop>
            <stop stop-color="#5D5D5D" offset="100%"></stop>
        </linearGradient>
        <linearGradient x1="0%" y1="-22.6801315%" x2="0%" y2="133.868388%" id="linearGradient-10">
            <stop stop-color="#BFF9F9" stop-opacity="0.861299819" offset="0%"></stop>
            <stop stop-color="#FFFFFF" stop-opacity="0" offset="100%"></stop>
        </linearGradient>
        <linearGradient x1="0%" y1="-22.6801315%" x2="0%" y2="133.868388%" id="linearGradient-11">
            <stop stop-color="#BFF9F9" offset="0%"></stop>
            <stop stop-color="#FFFFFF" stop-opacity="0" offset="100%"></stop>
        </linearGradient>
        <linearGradient x1="50%" y1="3.64516901%" x2="50%" y2="98.2582543%" id="linearGradient-12">
            <stop stop-color="#FFFFFF" stop-opacity="0" offset="0%"></stop>
            <stop stop-color="#FFFFFF" stop-opacity="0.491366621" offset="100%"></stop>
        </linearGradient>
        <linearGradient x1="50%" y1="-44.453125%" x2="100%" y2="189.335938%" id="linearGradient-13">
            <stop stop-color="#E4DFFF" offset="0%"></stop>
            <stop stop-color="#FFFFFF" stop-opacity="0" offset="100%"></stop>
        </linearGradient>
        <linearGradient x1="50%" y1="3.64516901%" x2="50%" y2="100%" id="linearGradient-14">
            <stop stop-color="#797979" offset="0%"></stop>
            <stop stop-color="#2E2E2E" offset="35.6883769%"></stop>
            <stop stop-color="#181818" offset="100%"></stop>
        </linearGradient>
        <path d="M238.219322,295.54122 C238.217334,295.796857 238.217,295.925129 238.217,295.925129 C238.217,295.925129 238.213578,295.801031 238.211275,295.572981 C237.658306,297.755249 237.058774,300.050196 236.386366,302.569043 C235.997195,304.026881 232.653618,316.317558 231.859429,319.383149 C230.503514,324.617019 229.765993,328.042822 229.589209,329.979492 C229.332598,332.790672 229.171093,335.139424 229.08556,337.048616 C229.032916,338.223687 229.017861,339.005547 229.017484,339.756352 C228.862308,344.085795 231.909773,350.550693 235.366512,353.22351 C235.549004,353.364617 235.72417,353.514986 235.999434,353.772651 C236.147141,353.906326 236.330691,354.068077 236.549454,354.255586 C237.205745,354.818116 237.995858,355.456401 238.914659,356.151977 C241.589424,358.176904 244.722191,360.215326 248.270426,362.122195 C258.399891,367.565903 269.736191,369.130567 282.00528,369.130567 C294.281182,369.130567 305.724271,367.548398 316.020921,362.073392 C319.631067,360.153781 322.828913,358.101165 325.567882,356.061396 C326.509672,355.360025 327.3211,354.716052 327.996545,354.148023 C328.372849,353.831563 328.602822,353.62762 328.680982,353.554835 C328.881096,353.368482 329.092306,353.194458 329.313449,353.033723 C332.671217,350.593159 335.686996,344.164692 335.536565,339.37472 C335.540551,339.042658 335.527963,338.389239 335.48059,337.38133 C335.403623,335.743807 335.255643,333.6823 335.018755,331.16322 C334.847768,329.34494 334.136196,326.038263 332.799574,320.798707 C332.182838,318.381106 329.17664,307.030901 328.37513,303.913952 C327.189124,299.301759 326.200543,295.257739 325.328235,291.390915 C324.479185,287.627191 323.756718,284.099538 323.16726,280.789328 C321.511234,278.560974 319.213044,277.463527 316.031771,278.999016 C306.38806,283.653697 295.746724,289.577836 282.773709,289.154683 C269.800694,288.73153 259.499673,284.500002 248.525795,278.15271 C245.61063,276.466578 243.5168,276.930433 242.013653,278.520991 C241.224789,282.876541 240.161167,287.70206 238.835502,293.076963 C238.63594,293.886088 238.43104,294.705421 238.219322,295.54122 Z" id="path-15"></path>
        <filter x="-2.8%" y="-3.3%" width="105.6%" height="106.5%" filterUnits="objectBoundingBox" id="filter-16">
            <feOffset dx="0" dy="-6" in="SourceAlpha" result="shadowOffsetInner1"></feOffset>
            <feComposite in="shadowOffsetInner1" in2="SourceAlpha" operator="arithmetic" k2="-1" k3="1" result="shadowInnerInner1"></feComposite>
            <feColorMatrix values="0 0 0 0 0.0234453087   0 0 0 0 0.763259991   0 0 0 0 0.763259991  0 0 0 1 0" type="matrix" in="shadowInnerInner1"></feColorMatrix>
        </filter>
        <linearGradient x1="50%" y1="100%" x2="50%" y2="3.061617e-15%" id="linearGradient-17">
            <stop stop-color="#FFFFFF" stop-opacity="0" offset="0%"></stop>
            <stop stop-color="#DAFFFA" offset="100%"></stop>
        </linearGradient>
        <linearGradient x1="50%" y1="0%" x2="50%" y2="100%" id="linearGradient-18">
            <stop stop-color="#B4F8EE" offset="0%"></stop>
            <stop stop-color="#FFFFFF" stop-opacity="0" offset="100%"></stop>
        </linearGradient>
        <path d="M215.311612,21.8991226 C227.015177,18.6161651 247.052897,21.671258 251.40167,24.5099297 C255.750442,27.3486014 246.958301,35.7132001 239.972526,38.1560474 C232.986751,40.5988948 220.629346,36.5092815 213.384662,33.430831 C206.139978,30.3523804 203.608047,25.1820801 215.311612,21.8991226 Z" id="path-19"></path>
        <ellipse id="path-21" cx="238.699053" cy="27.0152717" rx="12.7710475" ry="5.83410703"></ellipse>
        <filter x="-11.7%" y="-25.7%" width="123.5%" height="151.4%" filterUnits="objectBoundingBox" id="filter-22">
            <feOffset dx="0" dy="-6" in="SourceAlpha" result="shadowOffsetInner1"></feOffset>
            <feComposite in="shadowOffsetInner1" in2="SourceAlpha" operator="arithmetic" k2="-1" k3="1" result="shadowInnerInner1"></feComposite>
            <feColorMatrix values="0 0 0 0 1   0 0 0 0 1   0 0 0 0 1  0 0 0 0.5 0" type="matrix" in="shadowInnerInner1"></feColorMatrix>
        </filter>
        <path d="M322.14905,21.8991226 C333.852615,18.6161651 353.890336,21.671258 358.239108,24.5099297 C362.58788,27.3486014 353.795739,35.7132001 346.809964,38.1560474 C339.824189,40.5988948 327.466784,36.5092815 320.2221,33.430831 C312.977416,30.3523804 310.445485,25.1820801 322.14905,21.8991226 Z" id="path-23"></path>
        <ellipse id="path-25" cx="327.939759" cy="27.0152717" rx="12.7710475" ry="5.83410703"></ellipse>
        <filter x="-11.7%" y="-25.7%" width="123.5%" height="151.4%" filterUnits="objectBoundingBox" id="filter-26">
            <feOffset dx="0" dy="-6" in="SourceAlpha" result="shadowOffsetInner1"></feOffset>
            <feComposite in="shadowOffsetInner1" in2="SourceAlpha" operator="arithmetic" k2="-1" k3="1" result="shadowInnerInner1"></feComposite>
            <feColorMatrix values="0 0 0 0 1   0 0 0 0 1   0 0 0 0 1  0 0 0 0.5 0" type="matrix" in="shadowInnerInner1"></feColorMatrix>
        </filter>
        <linearGradient x1="50%" y1="0%" x2="50%" y2="104.663568%" id="linearGradient-27">
            <stop stop-color="#FFFFFF" stop-opacity="0" offset="0%"></stop>
            <stop stop-color="#B9FFF6" offset="100%"></stop>
        </linearGradient>
        <linearGradient x1="50%" y1="0%" x2="50%" y2="104.663568%" id="linearGradient-28">
            <stop stop-color="#FFFFFF" stop-opacity="0" offset="0%"></stop>
            <stop stop-color="#DAFFFA" offset="100%"></stop>
        </linearGradient>
    </defs>
    <g id="Symbols" stroke="none" stroke-width="1" fill="none" fill-rule="evenodd">
        <g id="car_top">
            <g id="Group-4-Copy-2" transform="translate(-133.000000, 42.000000)">
                <path d="M387.054172,146.937098 C385.767483,147.769583 384.538582,148.692126 383.292856,149.589043 C380.326669,149.083109 380.394698,146.587117 380.475893,145.458833 C381.477301,131.478646 382.471395,117.496994 383.652017,103.531451 C384.076281,98.5167708 384.130411,93.5745763 383.329431,88.5972373 C380.249863,69.4727749 375.716827,50.979449 363.175451,35.3752935 C352.118998,21.6169561 338.778836,11.3232801 321.700767,6.34667323 C317.233565,5.04559476 312.543259,4.90574896 307.920981,5.36335956 C293.21513,6.81965955 278.489529,7.71291545 263.867799,4.97237706 C249.534276,2.28601977 237.41058,7.21064205 225.607277,14.5895215 C208.442892,25.319575 197.403994,41.0130561 188.699277,58.7478466 C188.360598,59.4382895 188.109697,60.1697343 187.945112,60.9202157 C185.757961,70.8697685 183.198481,80.760015 181.5519,90.7996256 C179.944088,100.60494 182.105637,110.472489 182.468456,120.315876 C182.791774,129.082231 183.495466,137.837603 184.189649,146.584921 C184.360086,148.730199 182.773486,149.625652 180.80505,149.511432 C179.595899,148.638677 178.401378,147.745421 177.151995,146.937098 C173.206344,144.384729 168.788152,144.907504 165.788316,148.512011 C163.28443,151.521258 160.691302,154.489503 158.74481,157.927807 C159.978101,159.719444 161.389142,159.799983 162.980862,159.30796 C167.543889,157.899252 172.127398,156.557903 176.699203,155.176285 C178.882697,154.515862 181.186887,154.144648 183.019267,152.613666 C185.237141,152.824533 184.823118,157.664955 184.956249,159.791929 C186.647451,186.800473 187.925362,213.831715 189.303487,240.857831 C190.348053,261.329499 187.144863,281.144404 182.607438,300.924897 C177.129319,324.807045 177.654528,348.546419 185.142779,371.992922 C185.844276,374.189453 186.734498,376.336928 187.678119,378.444134 C190.245645,384.17415 194.408547,389.365285 199.118604,393.476459 C201.212125,395.303973 203.610677,397.33796 206.165767,398.48821 C208.555541,399.56451 211.735323,400.688402 214.035124,402.457342 C216.923041,404.678034 214.102711,402.509581 214.102711,402.509581 C216.961993,405.51755 222.651633,408.339364 226.798004,408.765441 C226.798004,408.765441 244.200991,411.009901 253.980996,409.645123 C257.778154,409.115027 271.636242,407.023197 282.102718,407.023197 C292.569194,407.023197 308.302818,409.754949 315.071284,410.26967 C325.189237,411.038456 339.682911,408.89076 339.682911,408.89076 C343.818987,408.374501 349.569579,405.580781 352.817845,402.949196 C352.817845,402.949196 350.054005,404.800308 352.980692,402.838806 C355.76547,400.973951 358.891853,399.937921 361.474008,397.931756 C365.113897,395.105553 367.79334,391.87071 370.479367,388.182734 C377.136647,379.045166 379.676376,367.443175 381.833536,356.507379 C386.171996,334.516444 384.303774,312.794218 378.871738,291.27993 C374.093653,272.35462 373.865429,253.158404 374.767354,233.849433 C375.996256,207.527671 377.773773,181.241786 379.723191,154.966151 C379.794145,154.01066 379.649311,152.994398 380.332521,152.166306 C381.177391,152.185343 381.339781,152.160449 381.487542,152.120911 C383.01928,154.144648 385.323469,154.515862 387.506963,155.176285 C392.078037,156.557903 396.661546,157.899252 401.224573,159.30796 C402.817024,159.799983 404.228066,159.719444 405.460625,158.503298 C403.514133,154.489503 400.921005,151.521258 398.417119,148.512011 C395.418015,144.907504 390.999091,144.384729 387.054172,146.937098 Z" id="Fill-1" fill-opacity="0.0800000057" fill="url(#linearGradient-1)"></path>
                <path d="M383.896911,149.038045 C384.938695,134.494189 385.972869,119.948811 387.201094,105.420189 C387.642463,100.203322 387.698776,95.0618626 386.865501,89.8838418 C383.661768,69.9882987 378.945964,50.749339 365.898931,34.5160383 C354.396692,20.2029774 340.518667,9.49426982 322.752026,4.31701077 C318.104711,2.96347401 313.225295,2.81798975 308.416652,3.2940508 C293.117874,4.80906746 277.79855,5.73833862 262.587286,2.88730424 C247.675848,0.0926354926 235.063336,5.21581402 222.784135,12.8922031 C204.927697,24.0548825 193.443722,40.3811103 184.388039,58.8309512 C184.035704,59.5492321 183.774687,60.3101681 183.603466,61.0909082 C181.328131,71.4416179 178.665456,81.73063 176.952486,92.1750284 C175.279848,102.375684 177.528549,112.641083 177.905996,122.881347 C178.24235,132.001153 178.974414,141.109533 179.696586,150.209536 C179.873895,152.44131 178.223325,153.372866 176.175523,153.254041 C174.917621,152.346097 180.355596,161.736306 180.494095,163.949038 C182.253485,192.046542 183.58292,220.167658 185.01661,248.283442 C186.103292,269.580509 182.770952,290.194333 178.050582,310.772357 C172.35159,335.617412 172.897975,360.313935 180.688145,384.70578 C181.417927,386.990873 182.344042,389.224932 183.325708,391.417098 C185.996754,397.378144 190.327501,402.778581 195.227463,407.055513 C197.405393,408.95671 199.900652,411.072706 202.558761,412.269333 C205.044889,413.389029 208.352876,414.558235 210.745403,416.398497 C213.749759,418.708726 211.042768,416.63209 211.042768,416.63209 C213.891936,419.662342 219.569759,422.502537 223.718179,422.93117 C223.718179,422.93117 242.12753,425.295887 252.301856,423.876083 C256.252113,423.324613 270.668945,421.148443 281.55742,421.148443 C292.445894,421.148443 308.813884,423.990337 315.855248,424.525811 C326.381148,425.325593 341.760986,423.056781 341.760986,423.056781 C345.897149,422.538774 351.657114,419.728235 354.865579,417.090022 C354.865579,417.090022 352.24844,418.835929 355.293128,416.795341 C358.190186,414.855297 361.442622,413.777495 364.128888,411.690443 C367.915533,408.75029 370.703009,405.385022 373.497334,401.54835 C380.423029,392.042364 383.065158,379.972591 385.309293,368.595874 C389.822676,345.718285 387.879129,323.120238 382.228078,300.738514 C377.257345,281.050153 377.019919,261.079963 377.958209,240.992472 C379.236659,213.609441 381.085844,186.263733 383.113861,158.928689 C383.187676,157.934673 383.037002,156.877437 383.747759,156.015957 C384.626693,156.035761 384.795631,156.009863 384.949349,155.968732 C386.542845,158.074064 383.812442,150.211821 383.896911,149.038045 Z" id="Fill-1" fill-opacity="0.03" fill="url(#linearGradient-2)"></path>
                <path d="M360.916238,390.00636 C355.003122,390.00636 338.491765,388.313748 330.466824,379.850692 C322.441882,371.387635 319.152184,362.762185 316.489659,351.499453 C312.68837,335.419645 311.921855,321.032449 311.921855,321.032449 L338.953239,376.042317 C338.953239,376.042317 376.543756,383.659067 379.077948,387.04429 C381.61214,390.429513 366.829353,390.00636 360.916238,390.00636 Z" id="Path-30-Copy" fill="#BFF9F9" transform="translate(345.644583, 355.527868) scale(-1, 1) translate(-345.644583, -355.527868) "></path>
                <path d="M233.361898,390.00636 C227.448783,390.00636 210.937426,388.313748 202.912484,379.850692 C194.887542,371.387635 191.597844,362.762185 188.935319,351.499453 C185.134031,335.419645 184.367516,321.032449 184.367516,321.032449 L211.398899,376.042317 C211.398899,376.042317 248.989416,383.659067 251.523609,387.04429 C254.057801,390.429513 239.275013,390.00636 233.361898,390.00636 Z" id="Path-30-Copy-2" fill="#BFF9F9"></path>
                <path d="M229.138244,387.72929 C229.60317,387.760436 235.051359,387.72929 241.673566,387.69473 C252.573701,387.637845 266.306714,385.69127 284.681158,385.69127 C303.0584,385.69127 315.58863,387.72929 325.165976,387.72929 C328.394105,387.72929 334.774431,387.764473 335.15195,387.72929 C342.539992,387.666757 346.01129,385.447154 346.01129,385.447154 C348.697482,384.303533 348.903793,382.083755 346.978181,380.821012 L346.978181,380.821012 C346.859949,380.788369 342.450393,377.203035 342.332162,377.170393 C342.21393,377.137751 337.907445,378.751581 333.596364,378.972376 C332.736212,379.040615 332.314933,379.068319 331.768617,379.098853 C330.14979,379.189332 327.871379,379.280934 324.830087,379.366981 C316.056241,379.615218 302.954655,379.764603 284.681158,379.764603 C266.404862,379.764603 252.349466,379.6021 241.983257,379.331709 C238.371837,379.237509 235.482591,379.136862 233.249312,379.036653 C232.476706,379.001986 230.470267,378.446206 230.470267,378.446206 C227.635218,377.741594 223.08878,377.823674 220.534558,379.238542 C220.534558,379.238542 217.773102,380.45595 217.338129,382.281259 C216.357246,386.397404 222.416798,387.432748 229.138244,387.72929 Z" id="Rectangle-11-Copy" stroke="#1A2020" stroke-width="4.536" fill="#1A2020" fill-rule="nonzero"></path>
                <path d="M370.630641,73.7507684 C369.858917,67.4346577 370.120666,64.3516037 370.120666,64.3516037 C370.130023,59.3516525 368.29682,51.6723981 365.955746,47.2491959 C365.955746,47.2491959 359.090511,32.792539 350.879512,24.1057257 C343.238446,16.0218727 334.15668,9.41964359 322.659329,4.82078243 C311.96271,0.542208168 298.330525,4.76811572 282.667182,4.37776409 C266.362755,3.97143576 254.863673,-0.44096343 244.680926,3.74792625 C234.566652,7.90864805 225.739747,13.8756736 218.126183,20.7341782 C207.9657,29.8870173 199.340074,47.330087 199.340074,47.330087 C196.95602,51.7308598 195.199713,59.3564966 195.303242,64.3594727 C195.303242,64.3594727 195.721126,67.2878855 194.92665,73.7507684" id="Rectangle-11-Copy-2" stroke="#1A2020" stroke-width="15.876" stroke-linecap="round" stroke-linejoin="round"></path>
                <g id="Rectangle-11" stroke-linecap="round" stroke-linejoin="round">
                    <use fill="#FFFFFF" fill-rule="evenodd" xlink:href="#path-3"></use>
                    <use fill="black" fill-opacity="1" filter="url(#filter-4)" xlink:href="#path-3"></use>
                    <use stroke="#DDDDDD" stroke-width="4" xlink:href="#path-3"></use>
                </g>
                <path d="M285.627109,387.185594 L294.074417,387.185594 L294.074417,388.878205 C294.074417,389.813009 293.324775,390.570817 292.38528,390.570817 L287.316246,390.570817 C286.383362,390.570817 285.627109,389.819526 285.627109,388.878205 L285.627109,387.185594 Z" id="Rectangle-23" fill="#06C3C3"></path>
                <path d="M273.440568,387.185594 L281.887875,387.185594 L281.887875,388.878205 C281.887875,389.813009 281.138233,390.570817 280.198739,390.570817 L275.129704,390.570817 C274.19682,390.570817 273.440568,389.819526 273.440568,388.878205 L273.440568,387.185594 Z" id="Rectangle-23" fill="#06C3C3"></path>
                <path d="M168.017372,160.093072 L172.20132,148.032269 C174.268472,142.07342 181.049638,137.242819 187.370255,137.242819 L210.293943,137.242819" id="Rectangle-36" stroke="#1A2020" stroke-width="4.2" stroke-linecap="round" stroke-linejoin="round" transform="translate(189.155658, 148.667946) scale(-1, 1) translate(-189.155658, -148.667946) "></path>
                <g id="Combined-Shape-Copy" transform="translate(172.652143, 140.085789) scale(-1, 1) rotate(-12.000000) translate(-172.652143, -140.085789) translate(159.152143, 129.585789)">
                    <mask id="mask-6" fill="white">
                        <use xlink:href="#path-5"></use>
                    </mask>
                    <use id="Mask" fill="#06C3C3" xlink:href="#path-5"></use>
                </g>
                <path d="M353.40256,159.342488 L357.586508,147.281685 C359.65366,141.322837 366.434826,136.492236 372.755443,136.492236 L395.679131,136.492236" id="Rectangle-36" stroke="#1A2020" stroke-width="4.2" stroke-linecap="round" stroke-linejoin="round"></path>
                <g id="Combined-Shape-Copy" transform="translate(391.044361, 139.335205) rotate(-12.000000) translate(-391.044361, -139.335205) translate(377.544361, 128.835205)">
                    <mask id="mask-8" fill="white">
                        <use xlink:href="#path-7"></use>
                    </mask>
                    <use id="Mask" fill="#06C3C3" xlink:href="#path-7"></use>
                </g>
                <path d="M206.571099,150.740832 C205.656239,143.286086 207.427174,131.690476 211.015441,125.086657 C211.015441,125.086657 226.607994,80.117188 282.767532,80.5403408 C338.927069,80.9634937 354.11892,125.106259 354.11892,125.106259 C357.485682,131.809096 359.372383,143.278423 358.333626,150.719136 L356.063585,166.979651 L346.952545,237.583538 C345.991308,245.032419 344.631112,257.133677 343.91376,264.619782 L342.455543,279.837359 C341.738506,287.320183 335.064755,293.386212 330.332709,293.386212 L330.332709,293.386212 C330.332709,293.386212 305.760799,196.061062 287.63334,196.061062 C269.505881,196.061062 234.514933,293.386212 234.514933,293.386212 L234.514933,293.386212 C228.244539,293.386212 222.289783,287.360263 221.212644,279.913273 L218.622372,262.004951 C217.546115,254.564052 216.070717,242.468957 215.327661,234.99666 L208.563955,166.979651 L206.571099,150.740832 Z" id="Path-3" stroke="#FFFFFF" stroke-width="4" fill="url(#linearGradient-9)" stroke-linecap="round" stroke-linejoin="round"></path>
                <path d="M196.745147,198.430324 C200.12407,211.548062 206.831507,232.399243 204.770089,245.823441 C201.391166,267.827388 186.186013,295.332321 186.186013,316.06681 C186.186013,317.511137 186.024401,319.899393 186.168425,319.899393 C186.175115,319.899393 185.995946,320.201983 185.771337,320.576978 C184.428992,305.405179 185.758618,294.923801 190.352715,274.001442 C190.504933,273.308287 190.577293,272.978691 190.657085,272.614831 C194.156194,256.658494 195.443056,248.267091 195.443056,237.164346 C195.443056,227.221028 194.950717,212.744507 194.072686,194.913052 C193.895745,191.319649 193.70487,187.627277 193.501589,183.853045 C194.371202,188.329458 195.467607,193.470627 196.745147,198.430324 Z" id="Combined-Shape" fill="url(#linearGradient-10)"></path>
                <path d="M369.71222,199.213215 C373.091143,212.330953 379.79858,233.182134 377.737162,246.606332 C374.358239,268.610279 359.153086,296.115212 359.153086,316.849701 C359.153086,318.294028 358.991474,320.682284 359.135498,320.682284 C359.142188,320.682284 358.963019,320.984874 358.73841,321.359869 C357.396065,306.18807 358.725691,295.706693 363.319788,274.784333 C363.472006,274.091178 363.544366,273.761582 363.624158,273.397722 C367.123267,257.441385 368.410129,249.049982 368.410129,237.947238 C368.410129,228.003919 367.91779,213.527398 367.039759,195.695943 C366.862818,192.10254 366.671943,188.410168 366.468662,184.635936 C367.338275,189.112349 368.43468,194.253519 369.71222,199.213215 Z" id="Combined-Shape-Copy-4" fill="url(#linearGradient-11)" transform="translate(368.182393, 252.997903) scale(-1, 1) translate(-368.182393, -252.997903) "></path>
                <polygon id="Path-6-Copy" fill="url(#linearGradient-12)" points="331.773027 89.849703 292.493049 194.368451 323.748086 183.366477 358.382045 134.703902"></polygon>
                <path d="M270.949115,156.573771 C272.40736,154.857994 275.291583,152.807257 277.451368,152.132702 C277.451368,152.132702 278.636491,151.206863 283.645509,151.206863 C288.654527,151.206863 289.808716,152.12944 289.808716,152.12944 C291.9329,152.8682 294.843696,154.865834 296.295278,156.573771 L296.030853,156.262647 C297.489098,157.978424 296.845028,159.369336 294.580754,159.369336 L272.663639,159.369336 C270.404526,159.369336 269.761958,157.970584 271.21354,156.262647 L270.949115,156.573771 Z" id="Rectangle-13" fill="#06C3C3"></path>
                <ellipse id="Oval-4" fill="url(#linearGradient-13)" cx="352.891296" cy="309.466019" rx="4.64601899" ry="6.34729237"></ellipse>
                <polygon id="Path-6-Copy" fill="url(#linearGradient-12)" points="316.567874 85.6181747 284.045742 194.368451 292.493049 186.7517 326.704643 91.1191614"></polygon>
                <g id="Combined-Shape">
                    <use fill="url(#linearGradient-14)" fill-rule="evenodd" xlink:href="#path-15"></use>
                    <use fill="black" fill-opacity="1" filter="url(#filter-16)" xlink:href="#path-15"></use>
                </g>
                <path d="M262.082743,294.738521 C268.800857,296.750771 276.07486,298.141299 283.348864,298.141299 C290.556241,298.141299 297.763619,296.776127 304.430243,294.793657" id="Path-8-Copy-2" stroke="#06C3C3" stroke-width="9.072" stroke-linecap="round" stroke-linejoin="round"></path>
                <ellipse id="Oval-10-Copy-3" fill="#FAD214" transform="translate(337.263777, 385.633527) rotate(-9.000000) translate(-337.263777, -385.633527) " cx="337.263777" cy="385.633527" rx="5.91311508" ry="2.96206977"></ellipse>
                <ellipse id="Oval-10-Copy-4" fill="#FAD214" transform="translate(227.448783, 384.787222) scale(-1, 1) rotate(-9.000000) translate(-227.448783, -384.787222) " cx="227.448783" cy="384.787222" rx="5.91311508" ry="2.96206977"></ellipse>
                <ellipse id="Oval-10-Copy-7" fill="#FAD214" transform="translate(240.119744, 385.633527) scale(-1, 1) rotate(-9.000000) translate(-240.119744, -385.633527) " cx="240.119744" cy="385.633527" rx="2.53419218" ry="1.26945847"></ellipse>
                <ellipse id="Oval-10-Copy-6" fill="#FAD214" transform="translate(324.592816, 386.479833) rotate(-9.000000) translate(-324.592816, -386.479833) " cx="324.592816" cy="386.479833" rx="2.53419218" ry="1.26945847"></ellipse>
                <path d="M262.082743,296.431132 C268.800857,298.443382 276.07486,299.83391 283.348864,299.83391 C290.556241,299.83391 297.763619,298.468738 304.430243,296.486268" id="Path-8-Copy-3" stroke="#BFF9F9" stroke-width="4.536" opacity="0.567198822" stroke-linecap="round" stroke-linejoin="round"></path>
                <path d="M213.09472,103.842351 C212.820998,104.105364 221.3942,92.9249614 236.805127,83.1040438 M244.729098,78.5417846 C245.645775,78.068724 246.580229,77.6049675 247.532173,77.1523396" id="Path-15" stroke="#BFF9F9" stroke-width="3.402" stroke-linecap="round" stroke-linejoin="round"></path>
                <path d="M205.485784,184.212783 L231.057035,144.85957 C231.057035,144.85957 236.124288,135.550208 236.124288,130.049221 C236.124288,124.548235 233.16773,117.777789 233.16773,117.777789 L242.037403,139.781736 L239.926707,162.631989 C239.926707,162.631989 240.771438,152.053168 235.280688,154.168932 C233.694511,154.780138 231.986188,157.297676 230.705545,158.757655 C215.429516,176.172879 207.706836,191.829534 207.706836,191.829534 L205.485784,184.212783 Z" id="Path-7" fill="#FFFFFF" transform="translate(223.761593, 154.803662) scale(-1, 1) translate(-223.761593, -154.803662) "></path>
                <path d="M322.903355,184.212783 L348.474605,144.85957 C348.474605,144.85957 353.541858,135.550208 353.541858,130.049221 C353.541858,124.548235 350.585301,117.777789 350.585301,117.777789 C350.585301,117.777789 356.052074,127.006312 358.424877,132.892778 C360.79768,138.779244 359.454973,139.781736 359.454973,139.781736 L357.344278,162.631989 C357.344278,162.631989 358.189009,152.053168 352.698259,154.168932 C351.112082,154.780138 349.403758,157.297676 348.123116,158.757655 C332.847087,176.172879 325.124407,191.829534 325.124407,191.829534 L322.903355,184.212783 Z" id="Path-7-Copy" fill="#FFFFFF"></path>
                <path d="M253.181379,188.444311 C271.013526,181.116605 274.086184,178.473961 286.435555,178.288643 C298.784926,178.103325 318.359564,193.098992 318.359564,193.098992 L323.015148,201.985201 C323.015148,201.985201 324.960825,231.755592 326.008024,252.340388 C327.055223,272.925184 327.338191,295.925129 327.338191,295.925129 C327.338191,295.925129 326.163679,274.108699 316.031771,278.999016 C306.38806,283.653697 295.746724,289.577836 282.773709,289.154683 C269.800694,288.73153 259.499673,284.500002 248.525795,278.15271 C237.551917,271.805418 238.217,295.925129 238.217,295.925129 C238.217,295.925129 238.248984,283.652782 239.547167,259.957138 C240.84535,236.261494 242.540043,201.985201 242.540043,201.985201 C242.540043,201.985201 235.349232,195.772017 253.181379,188.444311 Z" id="Path-4" fill="#FFFFFF"></path>
                <path d="M189.4359,72.5004372 C198.213245,39.6905784 225.281712,5.06287735 257.73106,4.58330337 L271.57684,4.36619002 C277.172109,4.28349667 292.158239,4.28660959 297.756735,4.37311879 L308.421982,4.53792052 C340.331433,5.03099237 366.1428,36.7945185 374.854294,69.9615202 C375.472022,72.3133733 376.329001,74.687994 376.543756,76.7319654 C377.388487,84.7718691 376.629697,88.8708261 376.543756,92.8117727 C376.538932,93.0329829 374.817658,109.107201 374.854294,109.314733 C374.854294,109.314733 374.794604,96.4402175 374.431929,86.8876332 C374.069254,77.3350488 374.162391,81.3124898 374.162391,81.3124898 C373.815556,77.5774027 372.487444,71.6884766 371.150578,68.1667816 C371.150578,68.1667816 371.473578,68.8116901 370.266255,65.9837253 C358.324676,38.0124503 335.107603,13.4133291 308.421982,13.000977 C308.421982,13.000977 295.281077,11.6251509 282.764426,11.6363569 C270.247775,11.6475629 257.73106,13.0463599 257.73106,13.0463599 C231.207498,13.4383557 207.958413,38.1412873 195.558242,65.5241999 C194.349782,68.1928034 194.658496,67.4350657 194.658496,67.4350657 C192.7072,71.3642683 190.920732,78.0940356 190.668169,82.4688384 L189.4359,103.813746 C189.502109,103.421752 188.62971,86.8660769 188.59117,81.3866465 C188.552629,75.9072161 189.352488,72.8122342 189.4359,72.5004372 Z" id="Combined-Shape-Copy-3" fill="url(#linearGradient-17)"></path>
                <path d="M187.361515,68.2689089 C196.138859,35.4590501 224.06986,0.987609824 257.73106,0.41845996 L271.57684,0.201346606 C277.172109,0.118653255 292.158239,0.121766183 297.756735,0.208275375 L308.421982,0.37307711 C341.463894,0.883647996 370.452426,35.1369185 378.039062,69.5383674 C378.109716,69.8587459 377.982272,70.0629827 378.039062,70.384673 L378.039062,70.384673 C376.046897,70.384673 373.624024,67.4454888 373.083226,65.4780488 L373.083226,65.4780488 C373.083226,65.4780488 371.473578,62.1079297 370.266255,59.279965 C358.324676,31.3086899 335.107603,7.55587437 308.421982,7.1435223 L297.756735,5.28610927 C292.158239,5.19960008 277.172109,5.19648715 271.57684,5.2791805 L257.73106,7.18890515 C231.207498,7.58090102 207.958413,31.437527 195.558242,58.8204396 C194.349782,61.4890431 192.671824,63.9566471 191.898593,65.4780488 C191.125362,66.9994504 191.898593,65.4780488 191.898593,65.4780488 C190.538485,68.1879025 186.901708,70.384673 186.901708,70.384673 L186.901708,70.384673 C187.018099,69.6955744 187.16805,68.9920849 187.361515,68.2689089 Z" id="Combined-Shape" fill="url(#linearGradient-18)"></path>
                <path d="M329.313449,353.033723 C329.092306,353.194458 328.881096,353.368482 328.680982,353.554835 C328.602822,353.62762 328.372849,353.831563 327.996545,354.148023 C327.3211,354.716052 326.509672,355.360025 325.567882,356.061396 C322.828913,358.101165 319.631067,360.153781 316.020921,362.073392 C305.724271,367.548398 294.281182,370.823178 282.00528,370.823178 C269.736191,370.823178 258.399891,367.565903 248.270426,362.122195 C244.722191,360.215326 241.589424,358.176904 238.914659,356.151977 C237.995858,355.456401 237.205745,354.818116 236.549454,354.255586 C236.330691,354.068077 236.147141,353.906326 235.999434,353.772651 C235.72417,353.514986 235.549004,353.364617 235.366512,353.22351 C231.909773,350.550693 228.862308,344.085795 229.017484,339.756352 C229.017861,339.005547 229.032916,338.223687 229.08556,337.048616 C229.171093,335.139424 229.332598,332.790672 229.589209,329.979492 C229.765993,328.042822 230.503514,324.617019 231.859429,319.383149 C232.653618,316.317558 235.997195,304.026881 236.386366,302.569043 C237.319695,299.072784 238.112616,296.007901 238.835502,293.076963 C241.806349,281.031675 243.461167,271.745497 243.656846,264.324628 C243.841302,257.329373 244.051036,250.015636 244.281347,242.479343 C244.598449,232.103054 244.938229,221.825727 245.278003,212.109234 C245.396917,208.708669 245.50733,205.621293 245.606406,202.904801 C245.641071,201.954332 245.67184,201.118208 245.698358,200.403641 C245.714251,199.975366 245.725185,199.683063 245.730805,199.533943 C245.749297,199.030241 246.019223,198.132203 246.494341,197.236209 C246.959745,196.358533 247.517143,195.680603 247.858394,195.441768 C248.002746,195.340739 248.143102,195.234095 248.27914,195.122082 C248.349892,195.063825 248.550922,194.904719 248.874885,194.6592 C249.454051,194.220274 250.142111,193.723169 250.931554,193.182281 C253.22134,191.613434 255.832052,190.036514 258.700703,188.565138 C266.781041,184.420606 275.209527,181.9561 283.470469,181.9561 C291.692911,181.9561 299.718083,184.363962 307.185893,188.410139 C309.82751,189.841409 312.200132,191.373918 314.255068,192.896213 C314.960465,193.418769 315.57051,193.897753 316.079441,194.318966 C316.248024,194.458493 316.389355,194.578372 316.50273,194.676822 C316.699259,194.852546 316.825027,194.958571 316.954526,195.059897 C317.945647,195.835394 319.178671,198.257198 319.225585,199.525708 C319.245726,200.053078 319.245726,200.053078 319.262019,200.483635 C319.291487,201.263868 319.325681,202.179459 319.364207,203.223387 C319.474329,206.207271 319.597054,209.620293 319.729233,213.406281 C320.106932,224.224672 320.484645,235.861285 320.83716,247.866483 C320.999602,253.398582 321.153151,258.893176 321.296371,264.324628 C321.490546,271.688473 322.885524,280.562707 325.328235,291.390915 C326.200543,295.257739 327.189124,299.301759 328.37513,303.913952 C329.17664,307.030901 332.182838,318.381106 332.799574,320.798707 C334.136196,326.038263 334.847768,329.34494 335.018755,331.16322 C335.255643,333.6823 335.403623,335.743807 335.48059,337.38133 C335.527963,338.389239 335.540551,339.042658 335.536565,339.37472 C335.686996,344.164692 332.671217,350.593159 329.313449,353.033723 Z M226.848226,363.738478 C227.079774,363.95002 227.385156,364.220834 227.763057,364.544745 C228.622902,365.281748 229.625284,366.091514 230.766378,366.955376 C233.977025,369.385991 237.691794,371.803109 241.88156,374.054745 C253.860673,380.492479 267.334973,384.364069 282.00528,384.364069 C296.668772,384.364069 310.22712,380.483944 322.357104,374.034105 C326.596281,371.780021 330.365241,369.360821 333.630956,366.928774 C334.790807,366.065009 335.810636,365.255642 336.686115,364.519391 C337.046803,364.216063 337.342313,363.959776 337.571414,363.75566 C344.414767,358.571864 349.274938,348.132622 349.052094,339.455611 C349.056927,338.848605 349.038235,337.955277 348.981321,336.744402 C348.89413,334.889343 348.731044,332.617387 348.47486,329.893116 C348.214923,327.128942 347.408069,323.379487 345.894354,317.445731 C345.258154,314.951832 342.247487,303.584751 341.463458,300.535784 C340.308511,296.044374 339.35062,292.125899 338.511423,288.40585 C336.246852,278.367311 334.973459,270.26655 334.807349,263.967031 C334.663762,258.521675 334.509836,253.013593 334.347007,247.468305 C333.993709,235.43645 333.615194,223.775124 333.236665,212.932941 C333.104164,209.137727 332.981115,205.715733 332.87067,202.723066 C332.831998,201.675202 332.797659,200.755722 332.768046,199.971641 C332.751648,199.538318 332.751648,199.538318 332.740963,199.257957 C332.540671,193.850819 329.506235,187.815867 325.467146,184.542101 C325.272612,184.370981 325.012098,184.148246 324.687432,183.879539 C323.995569,183.306924 323.195192,182.678498 322.290712,182.008461 C319.746005,180.123344 316.84329,178.248441 313.61529,176.49946 C304.312764,171.459205 294.167422,168.415209 283.470469,168.415209 C272.812017,168.415209 262.380538,171.465394 252.541455,176.512014 C249.138309,178.257542 246.042776,180.127303 243.302011,182.005138 C242.330762,182.67059 241.468354,183.293656 240.721045,183.860012 C240.376361,184.121234 240.100277,184.33662 239.895296,184.500605 C235.602767,187.634154 232.419334,193.7213 232.22449,199.029686 C232.21902,199.17473 232.207989,199.469635 232.191998,199.900546 C232.165375,200.617957 232.1345,201.456959 232.099728,202.410346 C232.000411,205.133443 231.889757,208.227583 231.770599,211.635133 C231.430168,221.370397 231.089742,231.66726 230.771986,242.064953 C230.541123,249.619324 230.330851,256.951796 230.145868,263.967031 C229.982388,270.166795 228.468312,278.663189 225.71445,289.828711 C225.014477,292.666749 224.242313,295.651401 223.329578,299.070514 C222.959113,300.458277 219.595965,312.820897 218.777202,315.981345 C217.238966,321.918975 216.395086,325.838821 216.129685,328.746289 C215.854357,331.762512 215.678515,334.319768 215.583462,336.441456 C215.52327,337.785001 215.502597,338.774895 215.50534,339.431409 C215.263329,347.997218 220.126821,358.374577 226.848226,363.738478 Z" id="Rectangle-12" fill="#FFFFFF" fill-rule="nonzero"></path>
                <mask id="mask-20" fill="white">
                    <use xlink:href="#path-19"></use>
                </mask>
                <use id="Rectangle-4-Copy-3" fill="#1A2020" transform="translate(229.900687, 29.689366) scale(-1, -1) rotate(160.000000) translate(-229.900687, -29.689366) " xlink:href="#path-19"></use>
                <g id="Oval-10-Copy" mask="url(#mask-20)" transform="translate(238.699053, 27.015272) scale(-1, 1) rotate(31.000000) translate(-238.699053, -27.015272) ">
                    <use fill="#06C3C3" fill-rule="evenodd" xlink:href="#path-21"></use>
                    <use fill="black" fill-opacity="1" filter="url(#filter-22)" xlink:href="#path-21"></use>
                </g>
                <ellipse id="Oval-10-Copy-2" fill="#FAD214" mask="url(#mask-20)" transform="translate(221.164505, 34.248126) scale(-1, 1) rotate(31.000000) translate(-221.164505, -34.248126) " cx="221.164505" cy="34.2481262" rx="5.16659964" ry="2.36022107"></ellipse>
                <mask id="mask-24" fill="white">
                    <use xlink:href="#path-23"></use>
                </mask>
                <use id="Rectangle-4-Copy-3" fill="#1A2020" transform="translate(336.738125, 29.689366) scale(1, -1) rotate(160.000000) translate(-336.738125, -29.689366) " xlink:href="#path-23"></use>
                <g id="Oval-10-Copy" mask="url(#mask-24)" transform="translate(327.939759, 27.015272) rotate(31.000000) translate(-327.939759, -27.015272) ">
                    <use fill="#06C3C3" fill-rule="evenodd" xlink:href="#path-25"></use>
                    <use fill="black" fill-opacity="1" filter="url(#filter-26)" xlink:href="#path-25"></use>
                </g>
                <ellipse id="Oval-10-Copy-2" fill="#FAD214" mask="url(#mask-24)" transform="translate(345.474306, 34.248126) rotate(31.000000) translate(-345.474306, -34.248126) " cx="345.474306" cy="34.2481262" rx="5.16659964" ry="2.36022107"></ellipse>
                <path d="M278.164552,178.032687 C278.164552,178.032687 289.895152,185.649437 308.224215,185.649437 M313.161007,185.593228 C314.250134,185.559959 315.118883,185.551071 317.022165,185.2686" id="Path-29" stroke="#1A2020" stroke-width="3.402" stroke-linecap="round" stroke-linejoin="round" mask="url(#mask-24)" transform="translate(297.593359, 181.841062) rotate(-174.000000) translate(-297.593359, -181.841062) "></path>
                <path d="M187.193467,314.853119 C190.501862,349.238733 199.890673,354.829233 199.890673,354.829233 C204.163966,360.361814 212.928268,368.55541 219.577468,370.749838 C219.577468,370.749838 239.608811,381.123233 282.730658,381.123233 C325.852506,381.123233 345.211781,371.577325 345.211781,371.577325 C351.850763,369.395495 360.566812,361.332715 364.046883,355.26631 C364.046883,355.26631 371.744229,349.709938 375.421239,314.853119 C376.080226,308.606146 376.364638,302.761436 376.387571,297.194587 C377.46519,306.002804 377.462508,313.430806 376.491231,322.753224 C375.179266,335.345594 372.749514,345.514095 369.534543,353.512588 C367.802124,357.822655 365.957068,361.21468 364.126101,363.788055 C363.497592,364.671407 362.920111,365.386877 362.409311,365.946822 C362.120481,366.263441 361.929802,366.448878 361.852867,366.51537 C358.00003,372.106923 349.439546,377.925838 342.812406,379.762083 C342.530295,379.864779 342.306695,379.948691 341.948429,380.07163 C341.330077,380.283818 340.566491,380.522289 339.652381,380.780671 C337.012101,381.526972 333.706362,382.276414 329.692947,382.977987 C318.164947,384.993161 300.171001,386.312827 281.63259,386.312827 C263.099197,386.312827 250.181299,384.76725 236.677882,382.373787 C231.963613,381.538189 227.906858,380.644144 224.514811,379.751817 C223.333469,379.441048 222.321015,379.153273 221.478351,378.896011 C220.9806,378.74405 220.654449,378.637645 220.500803,378.584316 C214.038373,376.956176 205.440768,371.174902 201.359726,365.834339 C201.00928,365.489358 200.826975,365.322632 200.548939,365.035237 C200.054869,364.524536 199.495672,363.869656 198.886554,363.058642 C197.10924,360.692225 195.317103,357.558908 193.63339,353.562217 C190.314378,345.683754 187.859883,335.514904 186.64863,322.768528 C185.909738,314.992942 185.849397,308.501586 186.544006,301.343394 C186.546316,305.676934 186.742427,310.165261 187.193467,314.853119 Z" id="Combined-Shape" fill="url(#linearGradient-27)" mask="url(#mask-24)"></path>
                <path d="M187.193467,309.519138 C190.501862,343.904752 199.890673,349.495252 199.890673,349.495252 C204.163966,355.027833 212.928268,363.221429 219.577468,365.415857 C219.577468,365.415857 239.608811,375.789252 282.730658,375.789252 C325.852506,375.789252 345.211781,366.243344 345.211781,366.243344 C351.850763,364.061514 360.566812,355.998734 364.046883,349.932329 C364.046883,349.932329 371.744229,344.375957 375.421239,309.519138 C376.080226,303.272166 376.364638,297.427455 376.387571,291.860606 C377.46519,300.668823 377.462508,308.096825 376.491231,317.419243 C375.179266,330.011613 372.749514,340.180114 369.534543,348.178607 C367.802124,352.488674 365.957068,355.880699 364.126101,358.454074 C363.497592,359.337426 362.920111,360.052896 362.409311,360.612841 C362.120481,360.92946 361.929802,361.114897 361.852867,361.181389 C358.00003,366.772942 349.439546,372.591857 342.812406,374.428102 C342.530295,374.530798 342.306695,374.61471 341.948429,374.737649 C341.330077,374.949837 340.566491,375.188308 339.652381,375.44669 C337.012101,376.192991 333.706362,376.942433 329.692947,377.644006 C318.164947,379.65918 300.171001,380.978846 281.63259,380.978846 C263.099197,380.978846 250.181299,379.433269 236.677882,377.039806 C231.963613,376.204208 227.906858,375.310163 224.514811,374.417836 C223.333469,374.107067 222.321015,373.819292 221.478351,373.56203 C220.9806,373.410069 220.654449,373.303664 220.500803,373.250335 C214.038373,371.622195 205.440768,365.840921 201.359726,360.500358 C201.00928,360.155377 200.826975,359.988651 200.548939,359.701256 C200.054869,359.190555 199.495672,358.535675 198.886554,357.724661 C197.10924,355.358244 195.317103,352.224927 193.63339,348.228236 C190.314378,340.349773 187.859883,330.180923 186.64863,317.434547 C185.909738,309.658961 185.849397,303.167605 186.544006,296.009413 C186.546316,300.342953 186.742427,304.83128 187.193467,309.519138 Z" id="Combined-Shape-Copy-5" fill="url(#linearGradient-28)" opacity="0.5" mask="url(#mask-24)"></path>
                <rect id="Rectangle-240-Copy-8" stroke="#1A2020" stroke-width="1.89" mask="url(#mask-24)" transform="translate(394.590336, 458.847866) rotate(6.000000) translate(-394.590336, -458.847866) " x="393.07015" y="457.325361" width="3.04037201" height="3.04501032"></rect>
                <polygon id="Rectangle-240-Copy-6" fill="#F478A2" mask="url(#mask-24)" transform="translate(326.739993, 455.974113) rotate(114.000000) translate(-326.739993, -455.974113) " points="320.028461 458.843358 325.274476 452.394112 333.451525 459.554113"></polygon>
                <polygon id="Rectangle-240-Copy-11" fill="#F478A2" mask="url(#mask-24)" transform="translate(417.592663, 305.606517) rotate(-300.000000) translate(-417.592663, -305.606517) " points="413.560282 307.330399 416.712161 303.455603 421.625045 307.757431"></polygon>
                <polygon id="Rectangle-240-Copy-7" fill="#FAD214" mask="url(#mask-24)" transform="translate(173.144612, 440.410750) rotate(114.000000) translate(-173.144612, -440.410750) " points="169.360568 435.580369 176.928655 437.038051 173.657775 445.241132"></polygon>
                <polygon id="Rectangle-240-Copy-10" fill="#FAD214" mask="url(#mask-24)" transform="translate(397.952296, 198.160754) rotate(-300.000000) translate(-397.952296, -198.160754) " points="394.168252 193.330372 401.736339 194.788055 398.465459 202.991136"></polygon>
                <polygon id="Rectangle-240-Copy-9" fill="#FAD214" mask="url(#mask-24)" transform="translate(341.658070, 519.370916) rotate(114.000000) translate(-341.658070, -519.370916) " points="337.874027 514.540534 345.442113 515.998216 342.171233 524.201297"></polygon>
                <rect id="Rectangle-240-Copy-4" fill="#F478A2" mask="url(#mask-24)" transform="translate(154.223479, 239.404925) rotate(-50.000000) translate(-154.223479, -239.404925) " x="151.933358" y="237.11265" width="4.58024237" height="4.58455129"></rect>
                <rect id="Rectangle-240-Copy-5" stroke="#F478A2" stroke-width="1.89" mask="url(#mask-24)" transform="translate(289.703177, 424.362180) rotate(-50.000000) translate(-289.703177, -424.362180) " x="288.182991" y="422.839675" width="3.04037201" height="3.04501032"></rect>
                <ellipse id="Oval-28" stroke="#FAD214" stroke-width="1.89" stroke-linecap="round" stroke-linejoin="round" mask="url(#mask-24)" cx="260.698247" cy="485.393515" rx="8.09989687" ry="8.10751695"></ellipse>
            </g>
            <path d="M115.190196,43.2780937 C115.190196,43.2780937 114.552247,42.0899574 149.148712,42 C183.745177,41.9100426 183.348303,43.2780937 183.348303,43.2780937 L178.35487,47.0733853 C176.429964,48.5364229 172.915168,49.8082279 170.506335,49.9139542 L153.511896,50.6598584 C151.102176,50.7656236 147.199616,50.7763214 144.768186,50.6827093 L127.877607,50.0324075 C125.458309,49.9392624 121.963789,48.6481672 120.070393,47.1470917 L115.190196,43.2780937 Z" id="Rectangle-13-Copy-2" fill="#06C3C3"></path>
        </g>
    </g>
</svg>