<svg viewBox="24 23 11 14" xmlns="http://www.w3.org/2000/svg" xmlns:xlink="http://www.w3.org/1999/xlink">
  <defs>
    <path d="M5.58 10.6V1c0-.54-.45-1-1-1s-1 .45-1 1v9.6l-1.9-1.9c-.4-.38-1.03-.38-1.42 0L.3 8.7c-.4.4-.4 1.02 0 1.4l3.57 3.48c.4.38 1.03.38 1.43 0l3.57-3.48c.4-.38.4-1 0-1.4l.04.03c-.4-.38-1.02-.38-1.42 0l-1.9 1.9z" id="a"/>
    <mask id="b" x="0" y="0" width="9.16" height="13.84" fill="#fff">
      <use xlink:href="#a"/>
    </mask>
  </defs>
  <use mask="url(#b)" xlink:href="#a" stroke="#FFF" stroke-width="4" transform="translate(25 23)" fill="none" fill-rule="evenodd" stroke-linecap="round" stroke-linejoin="round"/>
</svg>
