
<svg width="19px" height="19px" viewBox="0 0 19 19" version="1.1" xmlns="http://www.w3.org/2000/svg" xmlns:xlink="http://www.w3.org/1999/xlink">
    <!-- Generator: Sketch 45.1 (43504) - http://www.bohemiancoding.com/sketch -->
    <desc>Created with Sketch.</desc>
    <defs>
        <polygon id="path-1" points="1.15708659e-16 3.38885235 1.15708659e-16 0.136941836 3.96117394 0.136941836 3.96117394 3.38885235"></polygon>
        <polygon id="path-3" points="4.27009616 0 8.5138577 0 8.5138577 3.86841346 4.27009616 3.86841346 0.0263346205 3.86841346 0.0263346205 0 4.27009616 0"></polygon>
    </defs>
    <g id="Get-a-Quote" stroke="none" stroke-width="1" fill="none" fill-rule="evenodd">
        <g id="GET-A-QUOTE-12" transform="translate(-294.000000, -230.000000)">
            <g id="Group-11" transform="translate(157.000000, 179.000000)">
                <g id="Group-8" transform="translate(138.000000, 52.000000)">
                    <circle id="Oval-3" stroke="#0FE1C3" stroke-width="0.7" cx="8.5" cy="8.5" r="8.5"></circle>
                    <g id="Page-1" transform="translate(9.717514, 8.717514) rotate(-45.000000) translate(-9.717514, -8.717514) translate(2.717514, 6.217514)">
                        <g id="Group-3" transform="translate(0.000000, 0.203601)">
                            <mask id="mask-2" fill="white">
                                <use xlink:href="#path-1"></use>
                            </mask>
                            <g id="Clip-2"></g>
                            <path d="M3.29153121,1.76778351 L3.29153121,1.58515367 C3.29153121,1.03767137 3.48535908,0.533759617 3.8070482,0.136941836 L-8.14402833e-05,1.73052458 L3.96117394,3.38885235 C3.5480681,2.9712673 3.29153121,2.3981313 3.29153121,1.76778351" id="Fill-1" fill="#0FE1C3" mask="url(#mask-2)"></path>
                        </g>
                        <g id="Group-6" transform="translate(4.275615, 0.000000)">
                            <mask id="mask-4" fill="white">
                                <use xlink:href="#path-3"></use>
                            </mask>
                            <g id="Clip-5"></g>
                            <path d="M7.0095222,3.86841346 L1.53071763,3.86841346 C0.703306975,3.86841346 0.0263346205,2.99802043 0.0263346205,1.93420673 C0.0263346205,0.870393028 0.703306975,0 1.53071763,0 L7.0095222,0 C7.83693286,0 8.51390521,0.870393028 8.51390521,1.93420673 C8.51390521,2.99802043 7.83693286,3.86841346 7.0095222,3.86841346" id="Fill-4" fill="#0FE1C3" mask="url(#mask-4)"></path>
                        </g>
                    </g>
                </g>
            </g>
        </g>
    </g>
</svg>
