<?xml version="1.0" encoding="UTF-8"?>
<svg width="199px" height="293px" viewBox="0 0 199 293" version="1.1" xmlns="http://www.w3.org/2000/svg" xmlns:xlink="http://www.w3.org/1999/xlink">
    <!-- Generator: Sketch 40.3 (33839) - http://www.bohemiancoding.com/sketch -->
    <title>Group 20 Copy 2</title>
    <desc>Created with Sketch.</desc>
    <defs>
        <polygon id="path-1" points="87.9406224 101.87545 74.7262386 145.757914 54.8724991 114.849953"></polygon>
        <mask id="mask-2" maskContentUnits="userSpaceOnUse" maskUnits="objectBoundingBox" x="0" y="0" width="33.0681232" height="43.8824638" fill="white">
            <use xlink:href="#path-1"></use>
        </mask>
    </defs>
    <g id="Home" stroke="none" stroke-width="1" fill="none" fill-rule="evenodd">
        <g id="Artboard-2-Copy" transform="translate(-176.000000, -5361.000000)">
            <g id="Group-28" transform="translate(0.000000, 5333.000000)">
                <g id="Group-20-Copy-2" transform="translate(175.000000, 29.000000)">
                    <path d="M153.814936,164.963363 C164.269008,189.948626 192.946722,201.704876 217.907433,191.266359 C242.868144,180.802004 254.612842,152.070244 244.184583,127.11082 C233.73051,102.125557 205.026984,90.3693063 180.092085,100.807823 C155.131375,111.272178 143.360864,139.978101 153.814936,164.963363 Z" id="Stroke-23" stroke="#FAD214"></path>
                    <path d="M46.9168018,105.092703 C46.7373618,105.624013 46.3632103,106.052118 45.8592511,106.304395 C44.8207898,106.820415 43.5494383,106.388487 43.0302076,105.341157 L41.522148,102.29855 L38.4831215,103.812209 C37.4408423,104.332052 36.1656729,103.907768 35.6502601,102.864261 C35.4020984,102.363531 35.3639197,101.793997 35.5433597,101.258866 C35.7227997,100.723734 36.1045869,100.287983 36.612364,100.035707 L39.6513905,98.5258705 L38.1433308,95.4832634 C37.8875334,94.9710657 37.8493546,94.3938877 38.0287947,93.8587558 C38.2082347,93.3274463 38.5823862,92.8955184 39.0863453,92.6470643 C40.1248066,92.1310443 41.3961582,92.5591498 41.9153888,93.6064794 L43.4234485,96.6490865 L46.462475,95.13925 C47.5047541,94.6194076 48.7761057,95.0436907 49.2915185,96.0833756 C49.543498,96.5879285 49.5816768,97.1574618 49.4022368,97.6887713 C49.2189789,98.2277256 48.8410095,98.6634758 48.3332325,98.9157523 L45.294206,100.425589 L46.8022656,103.468196 C47.0580631,103.980394 47.0962418,104.557571 46.9168018,105.092703" id="Fill-42" fill="#FAD214" transform="translate(42.472662, 99.475348) rotate(27.000000) translate(-42.472662, -99.475348) "></path>
                    <path d="M79.9203447,192.421789 C79.844015,192.647872 79.6848596,192.83004 79.4704869,192.937388 C79.0287494,193.156965 78.4879457,192.973171 78.2670769,192.527512 L77.6255831,191.232822 L76.3328511,191.876914 C75.8894895,192.098117 75.3470618,191.917576 75.127817,191.473543 C75.0222548,191.260472 75.0060144,191.018124 75.0823441,190.790415 C75.1586737,190.562706 75.3210772,190.377285 75.5370739,190.269937 L76.8298058,189.627471 L76.188312,188.332781 C76.0795016,188.114831 76.0632613,187.86923 76.1395909,187.641521 C76.2159206,187.415438 76.375076,187.231644 76.5894486,187.125922 C77.0311862,186.906345 77.5719899,187.088512 77.7928587,187.534172 L78.4343525,188.828862 L79.7270845,188.186396 C80.1704461,187.965193 80.7112498,188.145734 80.9304945,188.588141 C81.0376808,188.802838 81.0539212,189.045186 80.9775915,189.271269 C80.8996379,189.500604 80.7388584,189.686025 80.5228617,189.793374 L79.2301298,190.435839 L79.8716236,191.730529 C79.980434,191.948479 79.9966743,192.19408 79.9203447,192.421789" id="Fill-42-Copy-4" fill="#F478A2" transform="translate(78.029910, 190.031492) rotate(27.000000) translate(-78.029910, -190.031492) "></path>
                    <path d="M6.62837695,21.1957528 C6.54182821,21.4520177 6.36136486,21.6585045 6.11829179,21.7801843 C5.61741393,22.0290746 5.00420685,21.8207442 4.75376793,21.3155889 L4.02639016,19.8480576 L2.56058585,20.578136 C2.05786654,20.82887 1.442818,20.6242268 1.19422053,20.1209152 C1.07452546,19.8793993 1.05611083,19.6046981 1.14265958,19.3465896 C1.22920832,19.0884811 1.41335459,18.878307 1.65826913,18.7566272 L3.12407344,18.0283925 L2.39669567,16.5608611 C2.27331767,16.3138144 2.25490305,16.0354259 2.34145179,15.7773174 C2.42800054,15.5210525 2.60846388,15.3127221 2.85153696,15.192886 C3.35241481,14.9439956 3.96562189,15.1504824 4.21606082,15.6556377 L4.94343858,17.123169 L6.40924289,16.3949342 C6.91196221,16.1442002 7.52516929,16.3488434 7.77376675,16.8503114 C7.89530329,17.0936709 7.91371792,17.3683721 7.82716917,17.624637 C7.73877896,17.8845892 7.55647415,18.0947632 7.31155961,18.216443 L5.84575531,18.9446777 L6.57313307,20.4122091 C6.69651107,20.6592558 6.7149257,20.9376443 6.62837695,21.1957528" id="Fill-42-Copy-3" fill="#765DFF" transform="translate(4.484849, 18.486351) rotate(-24.000000) translate(-4.484849, -18.486351) "></path>
                    <path d="M168.16911,216.905288 C168.057101,217.236941 167.823549,217.504172 167.508969,217.661648 C166.860743,217.983757 166.067143,217.71414 165.74303,217.060378 L164.801672,215.161129 L162.904658,216.105981 C162.254049,216.430476 161.458066,216.165631 161.136336,215.514255 C160.981429,215.201691 160.957597,214.846178 161.069607,214.512139 C161.181616,214.1781 161.419935,213.906097 161.736898,213.748622 L163.633912,212.806155 L162.692555,210.906906 C162.532881,210.587183 162.50905,210.226899 162.621059,209.89286 C162.733069,209.561207 162.966621,209.29159 163.281201,209.1365 C163.929427,208.814392 164.723027,209.081623 165.04714,209.735384 L165.988498,211.634633 L167.885512,210.692167 C168.536121,210.367672 169.329721,210.632517 169.651451,211.281507 C169.808741,211.596458 169.832573,211.95197 169.720563,212.283623 C169.60617,212.620048 169.370235,212.892051 169.053272,213.049526 L167.156257,213.991993 L168.097615,215.891242 C168.257288,216.210965 168.28112,216.57125 168.16911,216.905288" id="Fill-42-Copy-6" fill="#765DFF"></path>
                    <polygon id="Stroke-1-Copy" stroke="#FAD214" transform="translate(162.294786, 284.294786) rotate(24.000000) translate(-162.294786, -284.294786) " points="169.334786 284.01068 162.01068 277.254786 155.254786 284.578892 162.578892 291.334786"></polygon>
                    <path d="M107.139416,38.1138529 C113.002059,52.1255877 129.084521,58.7184929 143.082487,52.8645727 C157.080454,46.9961626 163.66688,30.883392 157.818712,16.8861471 C151.956069,2.87441229 135.859131,-3.71849292 121.875641,2.13542731 C107.877675,8.00383744 101.276772,24.1021181 107.139416,38.1138529 Z" id="Stroke-23-Copy" stroke="#0FE1C3"></path>
                    <use id="Stroke-19" stroke="#F478A2" mask="url(#mask-2)" stroke-width="2" stroke-linecap="round" stroke-linejoin="round" transform="translate(71.406561, 123.816682) rotate(57.000000) translate(-71.406561, -123.816682) " xlink:href="#path-1"></use>
                </g>
            </g>
        </g>
    </g>
</svg>