<?xml version="1.0" encoding="UTF-8"?>
<svg width="794px" height="702px" viewBox="0 0 794 702" version="1.1" xmlns="http://www.w3.org/2000/svg" xmlns:xlink="http://www.w3.org/1999/xlink">
    <!-- Generator: Sketch 40.3 (33839) - http://www.bohemiancoding.com/sketch -->
    <title>Group 26</title>
    <desc>Created with Sketch.</desc>
    <defs>
        <polygon id="path-1" points="212.940622 184.87545 199.726239 228.757914 179.872499 197.849953"></polygon>
        <mask id="mask-2" maskContentUnits="userSpaceOnUse" maskUnits="objectBoundingBox" x="0" y="0" width="33.0681232" height="43.8824638" fill="white">
            <use xlink:href="#path-1"></use>
        </mask>
    </defs>
    <g id="Home" stroke="none" stroke-width="1" fill="none" fill-rule="evenodd">
        <g id="LANDING" transform="translate(-646.000000, -5801.000000)">
            <g id="Group-57" transform="translate(0.000000, 5803.000000)">
                <g id="Group-26" transform="translate(646.000000, 0.000000)">
                    <path d="M572.261434,699.920199 C573.073123,699.972668 573.777754,699.35081 573.83031,698.534622 L573.984083,696.163789 L576.358807,696.31731 C577.176335,696.36978 577.884859,695.751809 577.937415,694.94145 C577.962719,694.550846 577.832304,694.171901 577.571474,693.876519 C577.308697,693.57725 576.946649,693.400409 576.549563,693.375146 L574.174839,693.221625 L574.326666,690.850792 C574.353917,690.450471 574.223502,690.06764 573.962671,689.772258 C573.703787,689.476875 573.343686,689.301978 572.950494,689.274772 C572.136859,689.224246 571.432227,689.84416 571.379672,690.662292 L571.225899,693.031181 L568.851175,692.87766 C568.035593,692.825191 567.327069,693.443162 567.274514,694.255463 C567.249209,694.646068 567.379624,695.023069 567.638508,695.318451 C567.901285,695.61772 568.26528,695.796505 568.660418,695.821768 L571.037089,695.975289 L570.883316,698.346121 C570.858011,698.744499 570.988427,699.12733 571.249257,699.424656 C571.508141,699.718095 571.868242,699.894936 572.261434,699.920199 Z" id="Fill-5-Copy-2" fill="#0FE1C3" transform="translate(572.605964, 694.597590) rotate(-3.000000) translate(-572.605964, -694.597590) "></path>
                    <path d="M450.523692,415.144175 C452.764281,415.289011 454.709349,413.572432 454.854423,411.319421 L455.278899,404.774962 L461.834101,405.198743 C464.090809,405.343579 466.046623,403.637728 466.191698,401.400811 C466.261548,400.322584 465.901549,399.276544 465.181552,398.461169 C464.456181,397.635065 463.456782,397.146912 462.360666,397.077176 L455.805465,396.653396 L456.224568,390.108937 C456.299791,389.003889 455.939792,387.94712 455.219795,387.131745 C454.50517,386.316369 453.511144,385.833581 452.425775,385.758481 C450.179812,385.619009 448.234744,387.330224 448.08967,389.588599 L447.665194,396.127693 L441.109992,395.703913 C438.858657,395.559077 436.902843,397.264927 436.757769,399.507209 C436.687918,400.585436 437.047917,401.626112 437.762541,402.441487 C438.487912,403.267591 439.492685,403.761107 440.583427,403.830843 L447.144002,404.254624 L446.719526,410.799083 C446.649675,411.898767 447.009674,412.955536 447.729671,413.776275 C448.444296,414.586286 449.438322,415.074439 450.523692,415.144175 Z" id="Fill-5-Copy-3" fill="#F478A2" transform="translate(451.474732, 400.451617) rotate(-3.000000) translate(-451.474732, -400.451617) "></path>
                    <polygon id="Fill-13-Copy" stroke="#FAD214" stroke-width="2" points="114 130.477591 119.944484 125 125.431176 130.934623 119.486692 136.412214"></polygon>
                    <polygon id="Fill-13-Copy-20" stroke="#FAD214" stroke-width="2" transform="translate(631.054337, 449.237607) rotate(38.000000) translate(-631.054337, -449.237607) " points="628.614605 437.915676 641.312902 451.650657 620.795771 460.559538"></polygon>
                    <use id="Stroke-19" stroke="#F478A2" mask="url(#mask-2)" stroke-width="4" stroke-linecap="round" stroke-linejoin="round" transform="translate(196.406561, 206.816682) rotate(57.000000) translate(-196.406561, -206.816682) " xlink:href="#path-1"></use>
                    <path d="M320.997796,244.270881 C329.21266,263.854769 351.747757,273.069526 371.362013,264.887632 C390.976269,256.685487 400.205313,234.165027 392.010733,214.601391 C383.795869,195.017502 361.240489,185.802746 341.646517,193.984639 C322.032261,202.186785 312.782932,224.686992 320.997796,244.270881 Z" id="Stroke-23" stroke="#765DFF" stroke-width="2"></path>
                    <path d="M410.51877,188.850392 C409.507168,189.351794 408.268699,188.932102 407.762898,187.914442 L406.293844,184.958027 L403.33342,186.428806 C402.318099,186.933922 401.075911,186.521658 400.57383,185.507712 C400.332086,185.021167 400.294895,184.467767 400.469694,183.947795 C400.644493,183.427822 401.016405,183.004416 401.511049,182.759286 L404.471473,181.292221 L403.002418,178.335807 C402.753237,177.838119 402.716046,177.277291 402.890844,176.757319 C403.065643,176.241061 403.430118,175.821369 403.921042,175.579953 C404.932644,175.078551 406.171113,175.494529 406.676914,176.512189 L408.145968,179.468604 L411.106391,178.001539 C412.121712,177.496423 413.360181,177.908687 413.862263,178.918919 C414.107725,179.409178 414.144916,179.962578 413.970118,180.478836 C413.7916,181.002522 413.423406,181.425929 412.928763,181.671058 L409.968339,183.138124 L411.437394,186.094538 C411.686575,186.592226 411.723766,187.153054 411.548967,187.673026 C411.374168,188.189284 411.009694,188.605262 410.51877,188.850392 Z" id="Fill-42" fill="#0FE1C3" transform="translate(407.219773, 182.214801) rotate(27.000000) translate(-407.219773, -182.214801) "></path>
                    <path d="M6.77180123,244.988613 C6.09739991,245.322881 5.27175417,245.043086 4.93455351,244.364646 L3.95518395,242.393703 L1.98156832,243.374222 C1.30468759,243.710966 0.476562438,243.436124 0.141841195,242.760159 C-0.0193208847,242.435796 -0.0441150509,242.066863 0.0724175301,241.720215 C0.188950111,241.373566 0.436891773,241.091296 0.766654182,240.927876 L2.74026981,239.949832 L1.76090025,237.978889 C1.59477933,237.647097 1.56998517,237.273212 1.68651775,236.926564 C1.80305033,236.582392 2.04603316,236.302597 2.37331615,236.141653 C3.04771747,235.807385 3.8733632,236.084704 4.21056386,236.763144 L5.18993342,238.734087 L7.16354905,237.756044 C7.84042979,237.4193 8.66607552,237.694142 9.00079676,238.36763 C9.16443826,238.69447 9.18923243,239.063403 9.07269985,239.407575 C8.95368785,239.7567 8.7082256,240.03897 8.37846319,240.20239 L6.40484757,241.180434 L7.38421713,243.151377 C7.55033804,243.483169 7.57513221,243.857054 7.45859963,244.203702 C7.34206705,244.547874 7.09908422,244.825193 6.77180123,244.988613 Z" id="Fill-42-Copy" fill="#FAD214"></path>
                    <path d="M396.771801,510.988613 C396.0974,511.322881 395.271754,511.043086 394.934554,510.364646 L393.955184,508.393703 L391.981568,509.374222 C391.304688,509.710966 390.476562,509.436124 390.141841,508.760159 C389.980679,508.435796 389.955885,508.066863 390.072418,507.720215 C390.18895,507.373566 390.436892,507.091296 390.766654,506.927876 L392.74027,505.949832 L391.7609,503.978889 C391.594779,503.647097 391.569985,503.273212 391.686518,502.926564 C391.80305,502.582392 392.046033,502.302597 392.373316,502.141653 C393.047717,501.807385 393.873363,502.084704 394.210564,502.763144 L395.189933,504.734087 L397.163549,503.756044 C397.84043,503.4193 398.666076,503.694142 399.000797,504.36763 C399.164438,504.69447 399.189232,505.063403 399.0727,505.407575 C398.953688,505.7567 398.708226,506.03897 398.378463,506.20239 L396.404848,507.180434 L397.384217,509.151377 C397.550338,509.483169 397.575132,509.857054 397.4586,510.203702 C397.342067,510.547874 397.099084,510.825193 396.771801,510.988613 Z" id="Fill-42-Copy-3" fill="#765DFF"></path>
                    <polygon id="Stroke-11" stroke="#0FE1C3" stroke-width="2" points="318.844088 0 340.719463 72.7332574 267.875375 94.562341 246 21.8420925"></polygon>
                    <path d="M510.821382,263.376157 C551.43643,360.200713 662.852029,405.75932 759.826722,365.307282 C856.801415,324.755115 902.430666,213.411883 861.915903,116.687456 C821.300856,19.8629004 709.784972,-25.6957065 612.910563,14.7563312 C515.93587,55.3084978 470.206335,166.551602 510.821382,263.376157 Z" id="Stroke-23-Copy-3" stroke="#FAD214" stroke-width="2"></path>
                </g>
            </g>
        </g>
    </g>
</svg>