<?xml version="1.0" encoding="UTF-8"?>
<svg width="333px" height="347px" viewBox="0 0 333 347" version="1.1" xmlns="http://www.w3.org/2000/svg" xmlns:xlink="http://www.w3.org/1999/xlink">
    <!-- Generator: Sketch 40.3 (33839) - http://www.bohemiancoding.com/sketch -->
    <title>Group 8</title>
    <desc>Created with Sketch.</desc>
    <defs></defs>
    <g id="Get-a-Quote" stroke="none" stroke-width="1" fill="none" fill-rule="evenodd">
        <g id="GET-A-QUOTE" transform="translate(-118.000000, -167.000000)">
            <g id="Group-4" transform="translate(120.000000, 44.000000)">
                <g id="Group-7">
                    <g id="Group-8" transform="translate(0.000000, 125.000000)">
                        <polygon id="Stroke-31" fill="#FAD214" points="36.2099991 155.899597 24.88674 173.52 10 152"></polygon>
                        <path d="M0.467189041,8.31482859 C1.74742761,11.3715957 5.25939068,12.8098884 8.31615783,11.532811 C11.372925,10.2525724 12.8112177,6.73744823 11.5341402,3.68384217 C10.2539016,0.62707503 6.73877747,-0.811217679 3.68517141,0.465859804 C0.628404268,1.74609837 -0.813049524,5.25806145 0.467189041,8.31482859 Z" id="Stroke-23" stroke="#765DFF" stroke-width="4"></path>
                        <path d="M119.134124,118.58574 C113.078124,111.69374 113.754124,101.19374 120.646124,95.1337402 C127.538124,89.0777402 138.038124,89.7537402 144.098124,96.6497402 C150.154124,103.54174 149.478124,114.04174 142.586124,120.09774 C135.690124,126.15774 125.190124,125.47774 119.134124,118.58574 Z" id="Stroke-3" stroke="#FB7CA1" stroke-width="2" stroke-linecap="round" stroke-linejoin="round"></path>
                        <path d="M237.174368,27.8979313 C237.706368,28.5019313 238.446368,28.8659313 239.254368,28.9179313 C240.922368,29.0259313 242.370368,27.7459313 242.478368,26.0659313 L242.794368,21.1859313 L247.674368,21.5019313 C249.354368,21.6099313 250.810368,20.3379313 250.918368,18.6699313 C250.970368,17.8659313 250.702368,17.0859313 250.166368,16.4779313 C249.626368,15.8619313 248.882368,15.4979313 248.066368,15.4459313 L243.186368,15.1299313 L243.498368,10.2499313 C243.554368,9.42593133 243.286368,8.63793133 242.750368,8.02993133 C242.218368,7.42193133 241.478368,7.06193133 240.670368,7.00593133 C238.998368,6.90193133 237.550368,8.17793133 237.442368,9.86193133 L237.126368,14.7379313 L232.246368,14.4219313 C230.570368,14.3139313 229.114368,15.5859313 229.006368,17.2579313 C228.954368,18.0619313 229.222368,18.8379313 229.754368,19.4459313 C230.294368,20.0619313 231.042368,20.4299313 231.854368,20.4819313 L236.738368,20.7979313 L236.422368,25.6779313 C236.370368,26.4979313 236.638368,27.2859313 237.174368,27.8979313" id="Fill-5" fill="#FFCB04"></path>
                        <polygon id="Stroke-25" stroke="#0FE1C3" stroke-width="2" points="120.6 324 129.06 343.396 111 341.4"></polygon>
                        <polygon id="Stroke-25-Copy-3" fill="#6E6BFF" points="148.454545 188 153 197.090909 143 195.022727"></polygon>
                        <g id="Group-6" transform="translate(303.000000, 101.000000)" fill="#0FE1C3">
                            <g id="Group-5">
                                <circle id="Oval-1" transform="translate(25.742613, 18.049038) rotate(60.000000) translate(-25.742613, -18.049038) " cx="25.7426131" cy="18.0490381" r="1.5"></circle>
                                <polygon id="Rectangle-91" opacity="0.25" transform="translate(14.328838, 13.299038) rotate(60.000000) translate(-14.328838, -13.299038) " points="23.6493464 6.28941916 24.6493464 6.28941916 5.00833025 20.308657 4.00833025 20.308657"></polygon>
                                <path d="M2.04903811,9.54903811 C2.87746523,9.54903811 3.54903811,8.87746523 3.54903811,8.04903811 C3.54903811,7.22061098 2.87746523,6.54903811 2.04903811,6.54903811 C1.22061098,6.54903811 0.549038106,7.22061098 0.549038106,8.04903811 C0.549038106,8.87746523 1.22061098,9.54903811 2.04903811,9.54903811 Z" id="Oval-1-Copy" transform="translate(2.049038, 8.049038) rotate(60.000000) translate(-2.049038, -8.049038) "></path>
                            </g>
                        </g>
                        <g id="Group" transform="translate(177.841959, 284.323292) rotate(50.000000) translate(-177.841959, -284.323292) translate(176.341959, 221.823292)" fill="#FAD214">
                            <path d="M1.5,3 C2.32842712,3 3,2.32842712 3,1.5 C3,0.671572875 2.32842712,0 1.5,0 C0.671572875,0 0,0.671572875 0,1.5 C0,2.32842712 0.671572875,3 1.5,3 Z" id="Oval-1"></path>
                            <rect id="Rectangle-91" opacity="0.25" x="1" y="2" width="1" height="120"></rect>
                            <circle id="Oval-1-Copy" cx="1.5" cy="123.5" r="1.5"></circle>
                        </g>
                    </g>
                </g>
            </g>
        </g>
    </g>
</svg>