<?xml version="1.0" encoding="UTF-8"?>
<svg width="287px" height="241px" viewBox="0 0 287 241" version="1.1" xmlns="http://www.w3.org/2000/svg" xmlns:xlink="http://www.w3.org/1999/xlink">
    <!-- Generator: Sketch 40.3 (33839) - http://www.bohemiancoding.com/sketch -->
    <title>Group 9</title>
    <desc>Created with Sketch.</desc>
    <defs></defs>
    <g id="Get-a-Quote" stroke="none" stroke-width="1" fill="none" fill-rule="evenodd">
        <g id="GET-A-QUOTE" transform="translate(-1034.000000, -686.000000)">
            <g id="Group-4" transform="translate(120.000000, 44.000000)">
                <g id="Group-7">
                    <g id="Group-9" transform="translate(914.000000, 642.000000)">
                        <polygon id="Fill-13" fill="#FB7CA1" points="267.152 67 280.488 71.152 276.336 84.488 263 80.336"></polygon>
                        <polygon id="Fill-17" fill="#765DFF" points="16.396 233.688 0 240.588 2.624 222"></polygon>
                        <path d="M182.467189,37.3148286 C183.747428,40.3715957 187.259391,41.8098884 190.316158,40.532811 C193.372925,39.2525724 194.811218,35.7374482 193.53414,32.6838422 C192.253902,29.627075 188.738777,28.1887823 185.685171,29.4658598 C182.628404,30.7460984 181.18695,34.2580614 182.467189,37.3148286 Z" id="Stroke-23-Copy" stroke="#0FE1C3" stroke-width="2"></path>
                        <polygon id="Stroke-25-Copy" fill="#F478A2" points="54.4545455 0 59 9.09090909 49 7.02272727"></polygon>
                        <polygon id="Stroke-29" stroke="#FAD214" stroke-width="2" transform="translate(129.267882, 128.195827) rotate(-24.000000) translate(-129.267882, -128.195827) " points="118.052772 104.452282 145.261078 134.278599 113.274686 151.939373"></polygon>
                        <g id="Group" transform="translate(76.588457, 51.643594) rotate(-30.000000) translate(-76.588457, -51.643594) translate(74.588457, 18.643594)" fill="#FAD214">
                            <circle id="Oval-1" cx="1.83974596" cy="2.19872981" r="1.5"></circle>
                            <rect id="Rectangle-91" opacity="0.25" x="1.33974596" y="2.69872981" width="1" height="60"></rect>
                            <circle id="Oval-1-Copy" cx="1.83974596" cy="64.1987298" r="1.5"></circle>
                        </g>
                        <path d="M285.155985,165.982919 C285.028556,166.359781 284.762854,166.663441 284.40497,166.842383 C283.667512,167.208401 282.764667,166.90203 282.395938,166.159149 L281.324997,164.000999 L279.166847,165.074652 C278.426677,165.443381 277.521121,165.142433 277.155103,164.402263 C276.978873,164.04709 276.95176,163.643115 277.079189,163.263541 C277.206617,162.883967 277.477742,162.574885 277.838337,162.395943 L279.996487,161.325001 L278.925546,159.166851 C278.743892,158.803544 278.71678,158.394146 278.844209,158.014572 C278.971637,157.637709 279.237339,157.331339 279.595223,157.155108 C280.332681,156.78909 281.235526,157.092749 281.604255,157.83563 L282.675196,159.99378 L284.833347,158.922839 C285.573516,158.55411 286.47636,158.855058 286.842378,159.592516 C287.021321,159.950401 287.048433,160.354376 286.921005,160.731239 C286.790865,161.113524 286.522452,161.422606 286.161856,161.601548 L284.003706,162.67249 L285.074647,164.83064 C285.256301,165.193947 285.283413,165.603344 285.155985,165.982919" id="Fill-42-Copy" fill="#FAD214"></path>
                    </g>
                </g>
            </g>
        </g>
    </g>
</svg>