<?xml version="1.0" encoding="UTF-8"?>
<svg width="83px" height="44px" viewBox="0 0 83 44" version="1.1" xmlns="http://www.w3.org/2000/svg" xmlns:xlink="http://www.w3.org/1999/xlink">
    <!-- Generator: Sketch 40.3 (33839) - http://www.bohemiancoding.com/sketch -->
    <title>Group</title>
    <desc>Created with Sketch.</desc>
    <defs></defs>
    <g id="Get-a-Quote" stroke="none" stroke-width="1" fill="none" fill-rule="evenodd">
        <g id="get-a-quote-mobile" transform="translate(0.000000, -623.000000)">
            <g id="Group" transform="translate(-27.000000, 621.000000)">
                <polygon id="Stroke-1-Copy" stroke="#FAD214" transform="translate(65.294786, 9.294786) rotate(24.000000) translate(-65.294786, -9.294786) " points="72.3347859 9.01067954 65.0106795 2.25478598 58.254786 9.57889234 65.5788923 16.3347859"></polygon>
                <path d="M2.13941596,57.1138529 C8.0020595,71.1255877 24.0845212,77.7184929 38.0824873,71.8645727 C52.0804535,65.9961626 58.6668802,49.883392 52.8187123,35.8861471 C46.9560688,21.8744123 30.8591315,15.2815071 16.875641,21.1354273 C2.87767477,27.0038374 -3.72322758,43.1021181 2.13941596,57.1138529 Z" id="Stroke-23-Copy" stroke="#0FE1C3"></path>
                <path d="M108.628377,32.1957528 C108.541828,32.4520177 108.361365,32.6585045 108.118292,32.7801843 C107.617414,33.0290746 107.004207,32.8207442 106.753768,32.3155889 L106.02639,30.8480576 L104.560586,31.578136 C104.057867,31.82887 103.442818,31.6242268 103.194221,31.1209152 C103.074525,30.8793993 103.056111,30.6046981 103.14266,30.3465896 C103.229208,30.0884811 103.413355,29.878307 103.658269,29.7566272 L105.124073,29.0283925 L104.396696,27.5608611 C104.273318,27.3138144 104.254903,27.0354259 104.341452,26.7773174 C104.428001,26.5210525 104.608464,26.3127221 104.851537,26.192886 C105.352415,25.9439956 105.965622,26.1504824 106.216061,26.6556377 L106.943439,28.123169 L108.409243,27.3949342 C108.911962,27.1442002 109.525169,27.3488434 109.773767,27.8503114 C109.895303,28.0936709 109.913718,28.3683721 109.827169,28.624637 C109.738779,28.8845892 109.556474,29.0947632 109.31156,29.216443 L107.845755,29.9446777 L108.573133,31.4122091 C108.696511,31.6592558 108.714926,31.9376443 108.628377,32.1957528" id="Fill-42-Copy-3" fill="#765DFF" transform="translate(106.484849, 29.486351) rotate(-24.000000) translate(-106.484849, -29.486351) "></path>
            </g>
        </g>
    </g>
</svg>