<?xml version="1.0" encoding="UTF-8"?>
<svg width="174px" height="108px" viewBox="0 0 174 108" version="1.1" xmlns="http://www.w3.org/2000/svg" xmlns:xlink="http://www.w3.org/1999/xlink">
    <!-- Generator: Sketch 40.3 (33839) - http://www.bohemiancoding.com/sketch -->
    <title>Group 2</title>
    <desc>Created with Sketch.</desc>
    <defs>
        <polygon id="path-1" points="87.5278839 80.4278888 79.2493479 107.919338 66.811394 88.5561443"></polygon>
        <mask id="mask-2" maskContentUnits="userSpaceOnUse" maskUnits="objectBoundingBox" x="0" y="0" width="20.7164898" height="27.4914487" fill="white">
            <use xlink:href="#path-1"></use>
        </mask>
    </defs>
    <g id="Get-a-Quote" stroke="none" stroke-width="1" fill="none" fill-rule="evenodd">
        <g id="get-a-quote-mobile" transform="translate(-201.000000, 0.000000)">
            <g id="Group-2" transform="translate(201.000000, -1.000000)">
                <path d="M138.814936,67.9633632 C149.269008,92.9486257 177.946722,104.704876 202.907433,94.2663593 C227.868144,83.8020043 239.612842,55.0702442 229.184583,30.1108196 C218.73051,5.12555702 190.026984,-6.63069372 165.092085,3.80782342 C140.131375,14.2721785 128.360864,42.9781006 138.814936,67.9633632 Z" id="Stroke-23" stroke="#FAD214"></path>
                <path d="M147.916802,106.092703 C147.737362,106.624013 147.36321,107.052118 146.859251,107.304395 C145.82079,107.820415 144.549438,107.388487 144.030208,106.341157 L142.522148,103.29855 L139.483121,104.812209 C138.440842,105.332052 137.165673,104.907768 136.65026,103.864261 C136.402098,103.363531 136.36392,102.793997 136.54336,102.258866 C136.7228,101.723734 137.104587,101.287983 137.612364,101.035707 L140.65139,99.5258705 L139.143331,96.4832634 C138.887533,95.9710657 138.849355,95.3938877 139.028795,94.8587558 C139.208235,94.3274463 139.582386,93.8955184 140.086345,93.6470643 C141.124807,93.1310443 142.396158,93.5591498 142.915389,94.6064794 L144.423448,97.6490865 L147.462475,96.13925 C148.504754,95.6194076 149.776106,96.0436907 150.291518,97.0833756 C150.543498,97.5879285 150.581677,98.1574618 150.402237,98.6887713 C150.218979,99.2277256 149.84101,99.6634758 149.333232,99.9157523 L146.294206,101.425589 L147.802266,104.468196 C148.058063,104.980394 148.096242,105.557571 147.916802,106.092703" id="Fill-42" fill="#FAD214" transform="translate(143.472662, 100.475348) rotate(27.000000) translate(-143.472662, -100.475348) "></path>
                <path d="M112.488495,35.4217895 C112.412166,35.6478723 112.25301,35.8300397 112.038638,35.9373884 C111.5969,36.1569652 111.056096,35.9731713 110.835228,35.5275116 L110.193734,34.2328216 L108.901002,34.8769136 C108.45764,35.098117 107.915213,34.917576 107.695968,34.4735429 C107.590406,34.260472 107.574165,34.0181243 107.650495,33.790415 C107.726824,33.5627057 107.889228,33.3772852 108.105225,33.2699366 L109.397957,32.627471 L108.756463,31.332781 C108.647652,31.1148307 108.631412,30.8692299 108.707742,30.6415206 C108.784071,30.4154378 108.943227,30.2316439 109.157599,30.1259217 C109.599337,29.9063449 110.140141,30.0885123 110.361009,30.534172 L111.002503,31.828862 L112.295235,31.1863965 C112.738597,30.9651931 113.279401,31.1457341 113.498645,31.5881407 C113.605832,31.8028381 113.622072,32.0451858 113.545742,32.2712686 C113.467789,32.5006044 113.307009,32.6860249 113.091012,32.7933735 L111.798281,33.4358391 L112.439774,34.7305291 C112.548585,34.9484794 112.564825,35.1940802 112.488495,35.4217895" id="Fill-42-Copy-4" fill="#F478A2" transform="translate(110.598061, 33.031492) rotate(27.000000) translate(-110.598061, -33.031492) "></path>
                <path d="M7.16911047,52.9052885 C7.05710084,53.2369413 6.82354886,53.5041723 6.50896864,53.6616477 C5.86074272,53.9837566 5.06714262,53.7141396 4.74302966,53.0603779 L3.80167217,51.1611288 L1.9046581,52.1059814 C1.25404901,52.4304762 0.458065714,52.1656311 0.136335941,51.5142555 C-0.018570987,51.2016906 -0.0424028221,50.8461779 0.0696068027,50.5121391 C0.181616428,50.1781003 0.419934778,49.9060973 0.736898185,49.7486219 L2.63391226,48.8061553 L1.69255477,46.9069061 C1.53288148,46.5871833 1.50904964,46.2268986 1.62105927,45.8928598 C1.73306889,45.561207 1.96662087,45.2915899 2.2812011,45.1365005 C2.92942701,44.8143917 3.72302712,45.0816227 4.04714008,45.7353843 L4.98849756,47.6346335 L6.88551163,46.6921669 C7.53612073,46.3676721 8.32972084,46.6325171 8.65145061,47.2815068 C8.80874072,47.5964576 8.83257256,47.9519703 8.72056293,48.2836231 C8.60617012,48.6200479 8.37023496,48.8920509 8.05327155,49.0495264 L6.15625748,49.991993 L7.09761496,51.8912421 C7.25728826,52.210965 7.28112009,52.5712497 7.16911047,52.9052885" id="Fill-42-Copy-6" fill="#765DFF"></path>
                <use id="Stroke-19" stroke="#0FE1C3" mask="url(#mask-2)" stroke-width="2" stroke-linecap="round" stroke-linejoin="round" transform="translate(77.169639, 94.173613) rotate(57.000000) translate(-77.169639, -94.173613) " xlink:href="#path-1"></use>
            </g>
        </g>
    </g>
</svg>