<?xml version="1.0" encoding="UTF-8"?>
<svg width="20px" height="22px" viewBox="0 0 20 22" version="1.1" xmlns="http://www.w3.org/2000/svg" xmlns:xlink="http://www.w3.org/1999/xlink">
    <!-- Generator: Sketch 40.3 (33839) - http://www.bohemiancoding.com/sketch -->
    <title>Google Play Vector 2</title>
    <desc>Created with Sketch.</desc>
    <defs></defs>
    <g id="APP" stroke="none" stroke-width="1" fill="none" fill-rule="evenodd">
        <g transform="translate(-761.000000, -7045.000000)" id="Group-7" fill="#FFFFFF">
            <g transform="translate(490.000000, 7026.000000)">
                <path d="M271.626623,41 C271.247058,40.8946366 271,40.5062813 271,39.9053189 L271,20.0684361 C271,19.5118534 271.209187,19.1364789 271.54079,19 L271.54079,19 L281,30.054813 L271.626623,41 L271.626623,41 Z M273,41 L285,34.2765975 L282.077229,31 L273,41 L273,41 Z M285,26.6457105 L273,20 L281.969668,30 L285,26.6457105 L285,26.6457105 Z M286.023037,27 L290.378656,29.582421 C291.20334,30.0713714 291.210881,30.8595543 290.378656,31.3528616 L285.912845,34 L283,30.5233735 L286.023037,27 L286.023037,27 Z" id="Google-Play-Vector-2"></path>
            </g>
        </g>
    </g>
</svg>