
<svg width="132px" height="125px" viewBox="0 0 132 125" version="1.1" xmlns="http://www.w3.org/2000/svg" xmlns:xlink="http://www.w3.org/1999/xlink">
    <!-- Generator: Sketch 45.1 (43504) - http://www.bohemiancoding.com/sketch -->
    <desc>Created with Sketch.</desc>
    <defs>
        <polygon id="path-1" points="34.7923864 18.8949458 34.7923864 0.000228994801 7.95454545e-05 0.000228994801 7.95454545e-05 18.8949458"></polygon>
    </defs>
    <g id="Get-a-Quote" stroke="none" stroke-width="1" fill="none" fill-rule="evenodd">
        <g id="GET-A-QUOTE-3b-hover-a" transform="translate(-534.000000, -316.000000)">
            <ellipse id="Oval-16-Copy-2" fill="#E4DFFF" opacity="0.5" cx="599.658228" cy="433.764706" rx="65.6582278" ry="6.76470588"></ellipse>
            <path d="M599.506329,435.764706 C627.400204,435.764706 650.012658,433.871792 650.012658,431.536765 C650.012658,429.201737 627.400204,429 599.506329,429 C571.612454,429 549,429.201737 549,431.536765 C549,433.871792 571.612454,435.764706 599.506329,435.764706 Z" id="Oval-15-Copy-2" fill="#C5BBFF"></path>
            <g id="Page-1" transform="translate(583.000000, 316.000000)">
                <mask id="mask-2" fill="white">
                    <use xlink:href="#path-1"></use>
                </mask>
                <g id="Clip-2"></g>
                <path d="M7.95454545e-05,18.8949458 L34.7924659,18.8949458 L34.7924659,9.4313625 L23.7710455,9.4313625 C23.7710455,8.23990417 23.800875,7.25744583 23.7654773,6.27775833 C23.6374091,2.71288333 20.8903068,0.00538333333 17.4209318,0.0002375 C13.9499659,-0.00530416667 11.18775,2.69784167 11.0565,6.257175 C11.0187159,7.287925 11.0509318,8.32105 11.0509318,9.5548625 L7.95454545e-05,9.5548625 L7.95454545e-05,18.8949458 Z" id="Fill-1" fill="#FAD214" mask="url(#mask-2)"></path>
            </g>
            <path d="M619.994373,331.221591 L635.607345,331.221591 C638.573091,331.221591 641,333.519829 641,336.328335 L641,425.727641 C641,428.536147 638.573091,430.834384 635.607345,430.834384 L563.39218,430.834384 C560.426433,430.834384 558,428.536147 558,425.727641 L558,336.328335 C558,333.519829 560.426433,331.221591 563.39218,331.221591 L580.83947,331.221591" id="Page-1" stroke="#765DFF" stroke-width="2"></path>
            <path d="M571.5,348.5 L627.722771,348.5" id="Line" stroke="#765DFF" stroke-linecap="square"></path>
            <path d="M571.5,357.5 L627.722771,357.5" id="Line" stroke="#765DFF" stroke-linecap="square"></path>
            <path d="M571.5,367.5 L627.722771,367.5" id="Line" stroke="#765DFF" stroke-linecap="square"></path>
            <path d="M571.5,376.5 L627.722771,376.5" id="Line" stroke="#765DFF" stroke-linecap="square"></path>
            <path d="M571.5,385.5 L627.722771,385.5" id="Line" stroke="#765DFF" stroke-linecap="square"></path>
            <path d="M571.5,394.5 L627.722771,394.5" id="Line" stroke="#765DFF" stroke-linecap="square"></path>
            <path d="M571.5,404.5 L627.722771,404.5" id="Line" stroke="#765DFF" stroke-linecap="square"></path>
            <path d="M571.5,413.5 L627.722771,413.5" id="Line" stroke="#765DFF" stroke-linecap="square"></path>
            <g id="Group-8" transform="translate(618.000000, 381.000000)">
                <circle id="Oval" stroke="#FAD214" stroke-width="2" fill="#FFFFFF" cx="20" cy="20" r="20"></circle>
                <path d="M22.3468094,17.8156449 C24.7616498,21.7869115 27.1651618,25.7394431 29.5882353,29.7244528 C27.9023041,30.7416281 26.2242346,31.7541196 24.507228,32.7900298 C22.0959161,28.819133 19.6902374,24.8573571 17.2695782,20.8710532 C16.4067108,21.3901485 15.574052,21.8910018 14.6851233,22.4257506 C13.8881827,17.2664751 13.100218,12.1651918 12.3023488,7 C16.5256266,10.0975621 20.70192,13.1607355 24.9208027,16.2550929 C24.0438213,16.786822 23.2117197,17.2912497 22.3468094,17.8156449 Z" id="Fill-3" fill="#F478A2"></path>
            </g>
        </g>
    </g>
</svg>
