<?xml version="1.0" encoding="UTF-8"?>
<svg width="150px" height="150px" viewBox="0 0 150 150" version="1.1" xmlns="http://www.w3.org/2000/svg" xmlns:xlink="http://www.w3.org/1999/xlink">
    <!-- Generator: Sketch 47.1 (45422) - http://www.bohemiancoding.com/sketch -->
    <title>icon_drivingstyle_scrolling</title>
    <desc>Created with Sketch.</desc>
    <defs>
        <polygon id="path-1" points="0 0 120.599613 0 120.599613 119.564501 0 119.564501"></polygon>
        <path d="M102.923795,51.4337306 C101.653885,52.6773158 100.05713,52.7842294 98.5095229,52.1867453 C96.5993679,51.4497896 94.7734033,50.495927 92.9077679,49.6432583 C85.3561868,46.1927658 77.5031068,43.7517926 69.2363471,42.7906704 C66.1417945,42.4309921 63.0201335,42.3049397 59.9108145,42.0721937 C46.9600205,42.1516089 34.9079934,45.6058411 23.4168691,51.3254971 C22.5088457,51.7775699 21.5338225,52.1856454 20.5444737,52.3677944 C17.4042995,52.9452597 15.0526952,50.3368766 15.9197254,47.2674012 C17.4076054,42.000258 19.7415782,37.1264511 23.0340446,32.7454146 C30.6378591,22.6269032 40.7008301,16.5163308 53.2260432,14.5287503 C73.394962,11.3286028 93.9240047,22.7100582 101.919459,41.5158471 C102.676733,43.29664 103.271356,45.1480487 103.904328,46.9792185 C104.48154,48.6489181 104.197011,50.1866256 102.923795,51.4337306 M103.041706,75.4540859 C101.005926,81.0274506 97.988291,86.0198304 94.0022446,90.4125262 C88.038823,96.9833109 80.7816883,101.49282 72.2046139,103.846678 C68.848674,104.767763 66.8565324,103.160979 66.958134,99.6557102 C66.8549896,99.6284319 67.7821873,94.9020161 68.5493789,92.6339525 C69.1415777,90.8835178 70.4542445,89.6614913 72.1488542,88.8077227 C80.2315848,84.7357676 86.643288,78.9413161 90.8686823,70.8277641 C92.8008768,67.1170273 97.0053337,65.9889352 100.70597,67.9545169 C103.175265,69.266078 104.158002,72.3984696 103.041706,75.4540859 M60.0139589,73.9009793 C54.2879016,73.9515762 49.3960357,69.1736836 49.3757595,63.5110042 C49.3546017,57.5445231 54.0271755,52.8024883 59.9747288,52.7545312 C65.6849177,52.7085539 70.5150733,57.4701675 70.5631192,63.1926833 C70.6124874,69.050931 65.8854763,73.8490624 60.0139589,73.9009793 M49.7689424,104.136621 C49.2342665,104.183258 48.6596993,104.111322 48.1411121,103.963271 C32.9394339,99.6235921 22.549839,90.0141301 16.8422948,75.3436525 C15.6706801,72.3320336 16.8235613,69.1472852 19.3234907,67.9109595 C22.8409795,66.1713042 26.6703257,67.0754498 28.6715035,70.1662639 C29.4272347,71.3335137 30.0520517,72.5841385 30.7778093,73.771627 C34.6327212,80.0775478 39.9808028,84.8466409 46.5481041,88.0791265 C50.4224107,89.9861918 52.0475963,93.0138697 52.6851962,96.9294142 C52.8319787,97.8317999 52.9014028,98.7462849 53.0067511,99.6552702 C53.0356227,102.283892 51.867314,103.953372 49.7689424,104.136621 M96.9295181,17.3214823 C88.5126701,9.95720526 78.6866227,5.59200781 67.6140266,4.01294279 C66.2429554,3.81737455 64.8663743,3.66316383 63.4924379,3.48981425 L56.4398289,3.48981425 C54.3738553,3.77623703 52.288487,3.96322578 50.2449935,4.36426166 C30.1670974,8.30334474 15.807104,19.6128645 7.86167883,38.3764159 C-2.66896831,63.2452602 6.23032222,92.3345506 29.6881812,107.290791 C40.2340355,114.014467 51.8137582,116.889034 64.2951129,115.913392 C88.9796851,113.983668 109.390597,96.4540228 114.937694,72.4145287 C115.536284,69.8206647 115.761306,67.1410059 116.164407,64.5018246 C116.224795,64.1078283 116.312071,63.7180117 116.387005,63.3262153 L116.387005,56.2866387 C116.173002,54.6996542 115.984786,53.1089298 115.74103,51.526345 C113.634284,37.8449279 107.342254,26.4322343 96.9295181,17.3214823 Z" id="path-3"></path>
        <filter x="-1.8%" y="-1.8%" width="103.5%" height="106.2%" filterUnits="objectBoundingBox" id="filter-4">
            <feMorphology radius="0.5" operator="dilate" in="SourceAlpha" result="shadowSpreadOuter1"></feMorphology>
            <feOffset dx="0" dy="3" in="shadowSpreadOuter1" result="shadowOffsetOuter1"></feOffset>
            <feComposite in="shadowOffsetOuter1" in2="SourceAlpha" operator="out" result="shadowOffsetOuter1"></feComposite>
            <feColorMatrix values="0 0 0 0 0.882413903   0 0 0 0 0.872734647   0 0 0 0 0.872734647  0 0 0 1 0" type="matrix" in="shadowOffsetOuter1"></feColorMatrix>
        </filter>
        <path d="M-4.01817894,19.3419326 C-4.01817894,16.3005964 -1.56224007,13.8351063 1.49562554,13.8351063 L27.0334449,13.8351063 C30.078635,13.8351063 32.5472494,16.3067849 32.5472494,19.3419326 L32.5472494,19.3419326 C32.5472494,22.3832689 30.0913105,24.848759 27.0334449,24.848759 L1.49562554,24.848759 C-1.54956459,24.848759 -4.01817894,22.3770803 -4.01817894,19.3419326 L-4.01817894,19.3419326 Z" id="path-5"></path>
        <filter x="-8.2%" y="-27.2%" width="116.4%" height="154.5%" filterUnits="objectBoundingBox" id="filter-6">
            <feOffset dx="-4" dy="-5" in="SourceAlpha" result="shadowOffsetInner1"></feOffset>
            <feComposite in="shadowOffsetInner1" in2="SourceAlpha" operator="arithmetic" k2="-1" k3="1" result="shadowInnerInner1"></feComposite>
            <feColorMatrix values="0 0 0 0 0.936277636   0 0 0 0 0.936277636   0 0 0 0 0.936277636  0 0 0 1 0" type="matrix" in="shadowInnerInner1"></feColorMatrix>
        </filter>
    </defs>
    <g id="Symbols" stroke="none" stroke-width="1" fill="none" fill-rule="evenodd">
        <g id="icon_drivingstyle_scrolling">
            <g id="Group" transform="translate(13.000000, 11.000000)">
                <g id="Group-32">
                    <g id="Group-12" transform="translate(0.000000, 7.472781)">
                        <g id="Page-1">
                            <g id="Group-3">
                                <mask id="mask-2" fill="white">
                                    <use xlink:href="#path-1"></use>
                                </mask>
                                <g id="Clip-2"></g>
                                <g id="Fill-1" mask="url(#mask-2)">
                                    <use fill="black" fill-opacity="1" filter="url(#filter-4)" xlink:href="#path-3"></use>
                                    <use stroke="#1A2020" stroke-width="1" fill="#FFFFFF" fill-rule="evenodd" xlink:href="#path-3"></use>
                                </g>
                            </g>
                            <path d="M52.9435201,63.301931 C52.9435201,67.1896562 56.1070976,70.3416154 60.0099037,70.3416154 C63.9124933,70.3416154 67.0762872,67.1896562 67.0762872,63.301931 C67.0762872,59.4142057 63.9124933,56.2624622 60.0099037,56.2624622 C56.1070976,56.2624622 52.9435201,59.4142057 52.9435201,63.301931 Z" id="Fill-4" fill="#FAD214"></path>
                        </g>
                    </g>
                    <g id="Group-23" transform="translate(36.595745, 0.000000)">
                        <path d="M10.4901066,22.522251 C12.5842343,21.0337973 12.8780379,17.848078 11.3715174,12.965093 L4.9425969,14.5211604 C3.03415223,13.4837821 2.0799299,12.2955657 2.0799299,10.9565109 C2.0799299,8.94792887 3.33471732,7.40979004 5.44692332,6.27664355 C6.85506065,5.52121256 10.0339334,3.69799121 14.9835416,0.806979495 C16.7387627,2.42928845e-14 18.1000453,-0.201744874 19.0673893,0.201744874 C20.0347334,0.605234621 21.019073,1.41812071 22.0204081,2.64040315 C22.9112094,2.49967568 23.8162425,2.49967568 24.7355074,2.64040315 C26.3209529,2.88311419 26.6999583,3.15197599 27.7112725,4.50259272 C28.7225868,5.85320944 28.5484181,5.03130675 29.9776814,4.94154792 C31.4069447,4.85178908 33.2835578,4.9384537 34.3021224,6.69248346 C35.320687,8.44651323 34.7866051,6.89955469 36.6415381,6.99019847 C38.496471,7.08084225 40.5391912,8.16059277 40.9746831,10.4915515 C41.265011,12.045524 39.9801021,22.1668607 37.1199563,40.8555615 L46.5847722,56.7143194 C34.0024391,66.0089348 27.7112725,70.6562425 27.7112725,70.6562425 C27.7112725,70.6562425 24.0267161,64.6033663 16.6576032,52.4976141 C11.4680076,51.1425005 7.89791741,48.7591666 5.94733259,45.3476124 C3.99674777,41.9360583 -1.20913705,29.0701902 0.731160943,27.6698454 C2.67145894,26.2695005 7.34891499,24.7549315 10.4901066,22.522251 Z" id="Path-2" stroke="#1A2020" fill="#FFFAE4"></path>
                        <g id="Group-21" transform="translate(36.340092, 63.154226) rotate(30.000000) translate(-36.340092, -63.154226) translate(21.840092, 44.154226)">
                            <g id="Rectangle-51" stroke-linecap="round" stroke-linejoin="round" transform="translate(14.264535, 19.341933) scale(-1, 1) rotate(60.000000) translate(-14.264535, -19.341933) ">
                                <use fill="#FFFFFF" fill-rule="evenodd" xlink:href="#path-5"></use>
                                <use fill="black" fill-opacity="1" filter="url(#filter-6)" xlink:href="#path-5"></use>
                                <use stroke="#1A2020" stroke-width="1" xlink:href="#path-5"></use>
                            </g>
                            <rect id="Rectangle-52" fill="#FAD214" transform="translate(21.296348, 8.721625) scale(-1, 1) rotate(60.000000) translate(-21.296348, -8.721625) " x="19.6890768" y="7.14824572" width="3.21454315" height="3.14675792" rx="1.57337896"></rect>
                        </g>
                    </g>
                    <g id="Group-31" transform="translate(79.845261, 70.576268)">
                        <ellipse id="Oval-4" stroke="#1A2020" fill="#FFFFFF" stroke-linecap="round" stroke-dasharray="1,3,1,3" cx="24.1199226" cy="24.078962" rx="24.1199226" ry="24.078962"></ellipse>
                        <g id="Group-22" transform="translate(9.148936, 8.303090)">
                            <path d="M11.8616876,14.8814902 C11.160494,15.5481925 10.497232,16.1817411 9.82819003,16.8092399 C9.77604906,16.8580023 9.67790845,16.8956329 9.61047441,16.884017 C8.72841307,16.7321637 8.20507675,17.2882733 7.66524317,17.8434149 C6.68431871,18.8521802 5.68509073,19.8431587 4.69730245,20.8453901 C3.92638686,21.627525 3.91747593,22.3783213 4.67972143,23.1596093 C5.42378382,23.9220215 6.17230167,24.6804407 6.93490842,25.4239771 C7.6600652,26.1309719 8.44037338,26.1295199 9.15686007,25.4186531 C10.3412908,24.2436357 11.5346325,23.0757573 12.6711369,21.8550024 C12.9413548,21.5647268 13.0012025,21.0771024 13.1587091,20.68059 C13.2486613,20.4539596 13.2879176,20.1807448 13.4406075,20.0103788 C14.0009121,19.385179 14.599028,18.7943429 15.1877513,18.1854779 C16.4435898,19.6841666 16.4261292,22.0553761 15.080218,23.533616 C13.7284064,25.0182688 12.3131344,26.4541591 10.8324756,27.8083754 C9.20996437,29.2921813 6.74380517,29.2172831 5.12791697,27.7178685 C4.17131693,26.8301018 3.24795224,25.9018005 2.36035168,24.9440966 C0.831766479,23.2948857 0.835379017,20.7067257 2.38443527,19.0687677 C3.67736258,17.7017255 5.00822154,16.368442 6.36737872,15.067828 C7.8750112,13.6250407 10.3003487,13.516263 11.8616876,14.8814902" id="Fill-1" fill="#06C3C3" transform="translate(8.664229, 21.400719) rotate(9.000000) translate(-8.664229, -21.400719) "></path>
                            <path d="M15.7466828,14.6913503 C14.4557755,12.9998738 14.5410969,10.691984 15.9434763,9.19771133 C17.2507729,7.80458121 18.6013328,6.4489561 19.9880459,5.1355544 C21.6763964,3.53638861 24.3279864,3.62422296 25.9737968,5.26924166 C26.741689,6.0367638 27.5062069,6.80779449 28.272653,7.57664746 C30.2010602,9.51154369 30.2093754,12.1360484 28.290127,14.0688879 C27.0998459,15.2678388 25.9243875,16.4820337 24.7098839,17.6555779 C23.1890428,19.124928 21.109395,19.3528617 19.4249008,18.2823958 C19.3277695,18.220573 19.2447378,18.1366101 19.1948465,18.0954756 C19.8353592,17.4082868 20.4561082,16.7345272 21.0902339,16.0737129 C21.1585633,16.0025743 21.3079961,15.9736591 21.4153709,15.98237 C22.1254181,16.0395954 22.6132441,15.6847495 23.081186,15.1936756 C24.1079345,14.1161926 25.1745719,13.0770615 26.2221687,12.0195409 C27.0105477,11.2235875 27.0188629,10.4619936 26.2349428,9.65829721 C25.5047704,8.90976955 24.7661622,8.16898485 24.020685,7.43545919 C23.2738821,6.70072369 22.5053874,6.7082247 21.7565358,7.45493761 C20.6026488,8.60525296 19.4618975,9.76875555 18.3039132,10.9149574 C17.9376821,11.2774253 17.7461911,11.6804229 17.773788,12.2056142 C17.7829468,12.3817668 17.7185943,12.6095796 17.6033863,12.7366127 C17.0099932,13.3910149 16.3892442,14.0204943 15.7466828,14.6913503" id="Fill-3" fill="#06C3C3" transform="translate(22.278302, 11.466382) rotate(9.000000) translate(-22.278302, -11.466382) "></path>
                            <g id="Group-30" transform="translate(2.614653, 0.393650)" stroke-linecap="round" stroke="#06C3C3" stroke-width="2">
                                <g id="Group-27" transform="translate(0.000000, -0.000000)">
                                    <g id="Page-1" transform="translate(5.241131, 5.905935) rotate(8.000000) translate(-5.241131, -5.905935) translate(0.741131, 1.405935)">
                                        <g id="Group-25" transform="translate(0.000000, 0.000000)">
                                            <g id="Group-26" transform="translate(4.749700, 4.525801) rotate(180.000000) translate(-4.749700, -4.525801) translate(0.749700, 0.525801)">
                                                <path d="M2.66453526e-13,3.97891556 L0.707071345,7.58650397" id="Stroke-1"></path>
                                                <path d="M2.37447037,2.38734934 L5.54043087,5.57048178" id="Stroke-3"></path>
                                                <path d="M4.00818688,0.20363997 L7.91490124,0.795783112" id="Stroke-4"></path>
                                            </g>
                                        </g>
                                    </g>
                                </g>
                            </g>
                            <g id="Group-30" transform="translate(22.975927, 26.047290) rotate(180.000000) translate(-22.975927, -26.047290) translate(17.475927, 20.547290)" stroke-linecap="round" stroke="#06C3C3" stroke-width="2">
                                <g id="Group-27" transform="translate(0.000000, 0.000000)">
                                    <g id="Page-1" transform="translate(5.241131, 5.905935) rotate(8.000000) translate(-5.241131, -5.905935) translate(0.741131, 1.405935)">
                                        <g id="Group-25" transform="translate(0.000000, 0.000000)">
                                            <g id="Group-26" transform="translate(4.749700, 4.525801) rotate(180.000000) translate(-4.749700, -4.525801) translate(0.749700, 0.525801)">
                                                <path d="M2.66453526e-13,3.97891556 L0.707071345,7.58650397" id="Stroke-1"></path>
                                                <path d="M2.37447037,2.38734934 L5.54043087,5.57048178" id="Stroke-3"></path>
                                                <path d="M4.00818688,0.20363997 L7.91490124,0.795783112" id="Stroke-4"></path>
                                            </g>
                                        </g>
                                    </g>
                                </g>
                            </g>
                        </g>
                    </g>
                </g>
            </g>
        </g>
    </g>
</svg>