<?xml version="1.0" encoding="UTF-8"?>
<svg width="150px" height="150px" viewBox="0 0 150 150" version="1.1" xmlns="http://www.w3.org/2000/svg" xmlns:xlink="http://www.w3.org/1999/xlink">
    <!-- Generator: Sketch 47.1 (45422) - http://www.bohemiancoding.com/sketch -->
    <title>icon_dataprotection_scrolling</title>
    <desc>Created with Sketch.</desc>
    <defs>
        <polygon id="path-1" points="93.814219 2.40832664e-14 93.814219 32.9102103 0 32.9102103 0 0 93.814219 0"></polygon>
        <polygon id="path-3" points="10.5559835 47.8571901 10.5559835 10.9672727 43.1835687 10.9672727 43.1835687 47.8571901"></polygon>
    </defs>
    <g id="Symbols" stroke="none" stroke-width="1" fill="none" fill-rule="evenodd">
        <g id="icon_dataprotection_scrolling">
            <g id="Group-4" transform="translate(22.000000, 24.000000)">
                <g id="Group-2">
                    <g id="Page-1">
                        <path d="M49.0365361,2.79576506e-05 C58.4991948,0.227328854 69.8630976,1.4781382 80.2698859,7.05464501 C83.4771621,8.77270822 86.5009739,11.2437874 88.9622453,13.9975749 C92.4593786,17.910117 92.2185292,23.1502534 88.9810944,27.3241261 C85.2925383,32.0791212 80.2309311,34.6802113 74.8480518,36.6190312 C64.8534302,40.2191982 54.5228759,41.408056 43.9807931,41.0878279 C34.5022175,40.7998844 25.188676,39.4779617 16.4548486,35.5457871 C12.809017,33.9040725 9.25617429,31.6123036 6.27508706,28.8877468 C0.911056844,23.9852897 1.09033257,17.3132885 6.25372477,12.1412115 C10.8017991,7.58603175 16.4573618,5.15465384 22.4040381,3.3816196 C30.4329099,0.988197879 38.6502724,-0.00607993591 49.0365361,2.79576506e-05" id="Fill-1" stroke="#1A2020"></path>
                        <g id="Group-5" transform="translate(0.000000, 49.365315)">
                            <mask id="mask-2" fill="white">
                                <use xlink:href="#path-1"></use>
                            </mask>
                            <g id="Clip-4"></g>
                            <path d="M15.2527854,11.6084183 C23.1113905,14.7504394 31.4596661,16.0990194 39.9884789,16.6271029 C50.4990124,17.2785067 60.869221,16.54842 71.0496772,14.002195 C75.9811498,12.7682349 80.6679965,11.0474241 84.8588895,8.34005049 C87.5652723,6.59162504 89.7874299,4.48004762 91.1977984,1.17536465 C91.3222058,2.04163343 91.4386544,2.48687288 91.4420054,2.9328689 C91.4595984,5.57858235 91.3289078,8.22997004 91.4776102,10.8684961 C91.7364779,15.4623686 89.4937952,18.8449779 85.5835517,21.5228454 C80.0715116,25.2973563 73.7045377,27.2466502 67.0598465,28.5759377 C55.7739664,30.8323976 44.4017971,31.139942 32.9768489,29.6196213 C25.2166806,28.5869079 17.649616,26.935323 10.8633434,23.1869137 C9.2108623,22.2741161 7.64676491,21.1767162 6.22592442,19.9855021 C3.96941862,18.0929507 2.40322682,15.7839094 2.35128572,12.9010123 C2.28384606,9.14844191 2.3349494,5.39398009 2.3349494,1.63989655 C5.10709632,6.79854601 9.96065725,9.49230144 15.2527854,11.6084183 Z" id="Fill-3" stroke="#1A2020" stroke-linecap="round" stroke-linejoin="round" mask="url(#mask-2)"></path>
                        </g>
                        <g id="Group-8" transform="translate(2.316400, 69.346515)" stroke="#1A2020" stroke-linecap="round" stroke-linejoin="round">
                            <path d="M0.017920022,0.387123903 C4.47406008,8.2581899 12.0494563,11.3607862 20.0284717,13.5566727 C36.3599759,18.0514808 52.7944784,18.0020239 69.1397994,13.5541999 C72.5994522,12.6132823 75.9682489,11.1753229 79.1850603,9.58528345 C83.3250879,7.53941625 86.8860642,4.72078497 88.787345,0.0850246578 C88.787345,5.14858717 89.2964746,9.97145942 88.6366159,14.634421 C88.0383049,18.8638105 84.3885658,21.4091924 80.8292642,23.5708711 C73.9354988,27.7586343 66.2453809,29.6326388 58.3434048,30.7351156 C45.7139762,32.4970177 33.1816842,31.9958544 20.8294297,28.7069704 C14.7261549,27.0818991 8.95280951,24.7590732 4.20149152,20.4662141 C1.37908805,17.9158865 -0.0737735486,14.8017502 0.0028471063,10.9816167 C0.0736060718,7.45163025 0.017920022,3.91875887 0.017920022,0.387123903" id="Fill-6"></path>
                        </g>
                        <path d="M91.3793592,28.2570469 C91.3793592,33.5580854 91.7068959,38.3566839 91.2726999,43.0836868 C90.9418039,46.6905789 88.2144314,49.165922 85.4152528,51.2663415 C79.8572079,55.4366781 73.4332904,57.5523487 66.7691794,59.002477 C55.8000611,61.3897024 44.7440197,61.7341237 33.6363282,60.1539372 C25.5654893,59.0054425 17.6848736,57.1617503 10.6789487,52.7274844 C8.69273287,51.4696899 6.90177928,49.8331589 5.22126434,48.1652784 C3.43283026,46.39064 2.38891218,44.1186454 2.34985974,41.5399335 C2.286452,37.3174888 2.33264307,33.0929259 2.33264307,28.2087517 C5.58785343,35.3378075 11.4142265,38.4829293 17.6957915,40.888795 C21.0081108,42.1580279 24.4695013,43.1285929 27.9409698,43.8585289 C39.344704,46.2550744 50.8320021,46.4313097 62.3230794,44.5384751 C70.43675,43.2010357 78.3081275,41.0946853 85.1423056,36.1668758 C87.8045907,34.2473517 89.9650728,31.9020669 91.3793592,28.2570469" id="Fill-9" stroke="#1A2020" stroke-linecap="round" stroke-linejoin="round"></path>
                    </g>
                    <path d="M89.5934959,24.5818182 C88.4942065,26.1639521 87.1972489,27.6180801 85.7328049,28.8728912 C84.2709115,30.1321316 82.6653367,31.2133155 80.9925973,32.1496623 C77.6267141,34.0055249 74.0516853,35.3400628 70.423945,36.4544661 C69.5189229,36.7454689 68.5994476,36.9797771 67.6850734,37.2380033 C66.7638977,37.4656676 65.8431472,37.6973182 64.9138947,37.8877767 C63.060491,38.2965979 61.1913588,38.6199344 59.3150001,38.8927772 C55.5601571,39.4220745 51.7747075,39.6519534 47.994359,39.7090909 C44.2110348,39.7077621 40.4408886,39.5438793 36.6737179,39.1598619 C32.914624,38.7284514 29.1568054,38.1238565 25.4912319,37.0980385 C21.8205573,36.1027824 18.2404274,34.746984 14.846063,32.9890083 C11.4687023,31.1924979 8.32726794,28.9220561 5.65853659,26.1692672 C8.63375971,28.5468973 11.8678642,30.5205783 15.2843335,32.0026107 C16.1332434,32.3799842 17.0072338,32.7086357 17.8722972,33.051018 C18.7505385,33.3610666 19.6224035,33.6835172 20.5116972,33.9532595 C22.282633,34.51179 24.0671717,35.0229273 25.8780662,35.4175749 C27.6876854,35.815323 29.5075068,36.1581482 31.3388058,36.4354203 C33.1709549,36.7064914 35.012456,36.9155527 36.8586332,37.0714629 C40.5514126,37.3854979 44.2726733,37.5303349 47.9786306,37.4957866 C51.6862882,37.4820559 55.389695,37.264136 59.066746,36.817666 C62.7476228,36.3995432 66.3953425,35.7023767 69.9950266,34.7921625 C71.7991196,34.3496789 73.5721809,33.7831757 75.3452421,33.2166726 C77.112352,32.6333382 78.851831,31.9724917 80.5339224,31.1792101 C82.2279164,30.4085178 83.846669,29.4712851 85.3791279,28.3865578 C86.1404687,27.8377717 86.8831055,27.2539945 87.5802574,26.6113079 C88.2965384,25.9898819 88.9503308,25.2931583 89.5934959,24.5818182" id="Fill-1" fill="#FAD214"></path>
                    <g id="Group" transform="translate(60.357724, 49.163636)">
                        <g id="Group-3" stroke-linecap="round" stroke="#1A2020" fill="#FFFFFF" stroke-dasharray="1,3,1,3">
                            <g id="Group-31" transform="translate(0.063017, 0.000000)">
                                <ellipse id="Oval-4" cx="27.1496519" cy="27.4105288" rx="27.1496519" ry="27.4105288"></ellipse>
                            </g>
                        </g>
                        <mask id="mask-4" fill="white">
                            <use xlink:href="#path-3"></use>
                        </mask>
                        <g id="Clip-2"></g>
                        <path d="M32.8435789,28.3069944 C32.8401674,27.4333793 32.21674,26.8195773 31.3432243,26.8131125 C31.2162995,26.8122389 31.0894622,26.8130252 30.9473169,26.8130252 L30.9473169,26.587021 C30.9472294,25.8704818 30.9514281,25.1539427 30.9460048,24.437491 C30.9392693,23.5607309 30.6660879,22.7639065 30.1580387,22.0568898 C29.1003902,20.5851978 27.1470077,19.9948087 25.4545601,20.6394493 C24.4089831,21.0377304 23.6403488,21.7375835 23.1703508,22.7734289 C22.9006684,23.3678366 22.7865148,23.97762 22.784153,24.6186788 C22.7818786,25.2310829 22.7836281,25.8434871 22.7835407,26.4558913 L22.7835407,26.8133746 C22.6402582,26.8133746 22.5247925,26.8127631 22.4092393,26.8135494 C21.5066822,26.8201888 20.8949764,27.4277008 20.8934893,28.3257771 C20.8911275,29.7343067 20.891215,31.142749 20.8934893,32.5512787 C20.8948889,33.4263789 21.5097438,34.044549 22.3879831,34.0453352 C25.374084,34.0479561 28.3602724,34.0475193 31.3463734,34.044549 C32.2226882,34.0436754 32.8394676,33.4302228 32.8433165,32.5508419 C32.8495271,31.1362843 32.8490023,29.721552 32.8435789,28.3069944 M43.0671061,20.6375273 C43.0046496,21.3743343 42.9397439,22.1114034 42.8502579,22.8452401 C42.7189594,23.9226696 42.5314151,24.9914503 42.3029329,26.0530674 C41.8512171,28.1525392 41.2235034,30.1974101 40.3993231,32.1810406 C38.6560532,36.3768392 36.1734528,40.0772107 32.9360389,43.2700119 C31.4983158,44.6879766 29.948101,45.9693078 28.2479558,47.0630739 C27.8079614,47.3462126 27.3448739,47.593533 26.8923708,47.8571901 L26.8691901,47.8571901 C26.6737732,47.758821 26.4761693,47.6644706 26.2833766,47.5612093 C25.1514626,46.9552698 24.0944265,46.2351489 23.0815647,45.4496816 C21.2099703,43.9982574 19.5402661,42.3412717 18.055132,40.4984679 C16.0759446,38.0423864 14.5035115,35.3473712 13.3104532,32.4299335 C11.8742171,28.9179134 11.0575595,25.2590386 10.7272576,21.4876422 C10.6513301,20.6204919 10.6260502,19.7487987 10.5767148,18.8792896 C10.5727785,18.8109729 10.5630689,18.7429183 10.5559835,18.6747763 L10.5559835,16.8928635 C10.5789017,16.8921647 10.6028695,16.8954844 10.6246506,16.8901553 C11.6303395,16.6451937 12.640577,16.4167433 13.6403177,16.1495045 C15.087838,15.7624056 16.5013308,15.2702108 17.8887564,14.7035841 C19.3953216,14.088297 20.8471281,13.3594399 22.285551,12.6020156 C23.0795528,12.183816 23.8706679,11.7591517 24.7072695,11.4287505 C25.4259561,11.1448256 26.1636246,10.9547269 26.9449427,10.9679185 C27.620942,10.9792755 28.264226,11.1387976 28.8918521,11.3752852 C29.7303782,11.6911845 30.5194814,12.1113933 31.3104216,12.5271468 C32.6060869,13.2081297 33.9073505,13.877581 35.2536633,14.4548659 C37.566914,15.4467685 39.9597661,16.1896907 42.4160369,16.7336909 C42.6702364,16.790039 42.9241735,16.8480471 43.1764486,16.9048321 C43.1789853,16.9319141 43.1815221,16.9470277 43.1816096,16.9622286 C43.1907069,18.1887842 43.1706753,19.4147283 43.0671061,20.6375273 M29.7517218,24.5060698 C29.7567953,25.2225215 29.754521,25.939148 29.7544335,26.6556871 C29.7544335,26.697708 29.7504972,26.7397289 29.7476106,26.7974748 L23.9926942,26.7974748 C23.9891952,26.7362344 23.9841217,26.6880109 23.9840342,26.6397873 C23.9836843,25.9109302 23.9796605,25.1821605 23.9849964,24.4533908 C23.9961056,22.9337373 25.1401785,21.7110256 26.6648508,21.583041 C28.1156076,21.461259 29.4507237,22.5084615 29.7085971,23.9762222 C29.7391256,24.150159 29.7505847,24.3292501 29.7517218,24.5060698" id="Fill-1" fill="#06C3C3" mask="url(#mask-4)"></path>
                    </g>
                </g>
            </g>
        </g>
    </g>
</svg>