
<svg width="132px" height="116px" viewBox="0 0 132 116" version="1.1" xmlns="http://www.w3.org/2000/svg" xmlns:xlink="http://www.w3.org/1999/xlink">
    <!-- Generator: Sketch 45.1 (43504) - http://www.bohemiancoding.com/sketch -->
    <desc>Created with Sketch.</desc>
    <defs>
        <polygon id="path-1" points="3.28773932e-15 3.90798505e-14 51.3481013 3.90798505e-14 51.3481013 47.3529412 0 47.3529412"></polygon>
        <path d="M4.51527034,11.4175589 C5.91295221,10.6261927 9.14479015,11.6885768 9.77170855,12.2411646 C10.3986269,12.7937524 10.5285085,13.7596711 9.52144016,14.2352061 C8.51437182,14.7107411 5.66899478,14.9264623 4.4953268,14.3732888 C3.32165883,13.8201152 3.11758847,12.2089252 4.51527034,11.4175589 Z" id="path-3"></path>
        <path d="M29.7402832,11.4175589 C31.137965,10.6261927 34.369803,11.6885768 34.9967214,12.2411646 C35.6236398,12.7937524 35.7535213,13.7596711 34.746453,14.2352061 C33.7393846,14.7107411 30.8940076,14.9264623 29.7203396,14.3732888 C28.5466717,13.8201152 28.3426013,12.2089252 29.7402832,11.4175589 Z" id="path-5"></path>
    </defs>
    <g id="Get-a-Quote" stroke="none" stroke-width="1" fill="none" fill-rule="evenodd">
        <g id="GET-A-QUOTE-1-hover-c" transform="translate(-640.000000, -324.000000)">
            <g id="Group-7" transform="translate(639.000000, 325.000000)">
                <g id="Group-4">
                    <ellipse id="Oval-16-Copy-2" fill="#E4DFFF" opacity="0.5" cx="67.3417722" cy="108.235294" rx="65.6582278" ry="6.76470588"></ellipse>
                    <path d="M66.5,109.926471 C94.3938753,109.926471 117.006329,108.033557 117.006329,105.698529 C117.006329,103.363502 94.3938753,103.161765 66.5,103.161765 C38.6061247,103.161765 15.9936709,103.363502 15.9936709,105.698529 C15.9936709,108.033557 38.6061247,109.926471 66.5,109.926471 Z" id="Oval-15-Copy-2" fill="#C5BBFF"></path>
                    <path d="M111.113924,87.9411765 L100.170886,98.9338235" id="Line" stroke="#E4DFFF" stroke-width="2" stroke-linecap="square" stroke-linejoin="round"></path>
                    <path d="M25.2531646,25.3676471 L25.2531646,3.99160082 C25.2531646,1.78710056 27.0487183,0 29.2473453,0 L112.170376,0 C114.376301,0 116.164557,1.79912313 116.164557,3.99733417 L116.164557,83.0982541 C116.164557,85.3059208 114.899162,88.3667193 113.346682,89.9262374 L102.146989,101.176704 C100.590719,102.740028 97.5347169,104.007353 95.3202044,104.007353 L29.2620741,104.007353 C27.0480145,104.007353 25.2531646,102.208204 25.2531646,100.000475 L25.2531646,82.0220588" id="Rectangle-22" stroke="#765DFF" stroke-width="2" stroke-linecap="round"></path>
                    <path d="M98.6455696,101.585397 L113.758044,86.4044118 L98.6455696,86.4044118 L98.6455696,101.585397 Z" id="Rectangle-27" stroke="#765DFF" stroke-width="2"></path>
                    <path d="M50.5063291,39.3333333 L104.379747,39.3333333" id="Line-Copy-12" stroke="#765DFF" stroke-linecap="round"></path>
                    <path d="M55.556962,53.5 L104.379747,53.5" id="Line-Copy-16" stroke="#765DFF" stroke-linecap="round"></path>
                    <path d="M53.8734177,46.3333333 L104.379747,46.3333333" id="Line-Copy-15" stroke="#765DFF" stroke-linecap="round"></path>
                    <path d="M53.8734177,60.5 L104.379747,60.5" id="Line-Copy-17" stroke="#765DFF" stroke-linecap="round"></path>
                    <path d="M50.5063291,66.5 L104.379747,66.5" id="Line-Copy-19" stroke="#765DFF" stroke-linecap="round"></path>
                    <path d="M44.613924,72.6663415 L104.379747,72.6663415" id="Line-Copy-18" stroke="#765DFF" stroke-linecap="round"></path>
                    <path d="M37.0327035,79.6663415 L104.379747,79.6663415" id="Line-Copy-18" stroke="#765DFF" stroke-linecap="round"></path>
                    <path d="M37.0327035,90.6663415 L55.2093849,90.6663415" id="Line-Copy-18" stroke="#765DFF" stroke-linecap="round"></path>
                    <g id="Page-1" transform="translate(0.000000, 29.595588)">
                        <g id="Group-3" transform="translate(0.000000, 0.215186)">
                            <mask id="mask-2" fill="white">
                                <use xlink:href="#path-1"></use>
                            </mask>
                            <g id="Clip-2"></g>
                            <path d="M25.4455726,38.6932138 C34.2573036,38.9656727 40.3784903,31.4798396 40.445291,23.7616054 C40.5147372,15.7841544 33.8283907,9.01240864 25.7474983,8.89852546 C17.5442483,8.78298699 10.6789951,15.3316012 10.5096786,23.3947956 C10.3390394,31.5112899 16.9430426,38.8719839 25.4455726,38.6932138 M28.1301644,45.0749759 C26.245196,44.3701582 24.4571217,44.3248036 22.5440441,45.1540983 C19.609446,46.4253524 17.5611138,46.0635085 15.8643116,43.5176896 C14.2882134,41.1529582 12.2904777,39.774773 9.66045079,39.0520783 C7.01752674,38.326404 5.95433845,36.4092601 6.09719921,33.8280182 C6.23543022,31.3341751 5.54791282,29.2571312 3.98768813,27.2721208 C2.03922611,24.7928441 2.03029731,22.827697 4.00554573,20.3527241 C5.59123402,18.3663895 6.1676375,16.2790828 6.11869446,13.7978198 C6.05784636,10.6911925 7.12070396,9.2537483 10.1654239,8.3847269 C12.4647546,7.72824331 14.1334476,6.51161335 15.48831,4.54050728 C17.4205679,1.72851956 19.0667736,1.23028063 22.3247926,2.39030005 C24.46109,3.15106621 26.4333622,3.16795006 28.5805726,2.40917023 C31.9778147,1.20809989 33.5998796,1.75798353 35.6432514,4.75867304 C36.8578986,6.54173942 38.3579366,7.63952036 40.4284255,8.25925676 C44.0141644,9.33253957 44.9695457,10.6892061 44.8729824,14.4039829 C44.8184176,16.4932759 45.3352957,18.232974 46.6455141,19.8975224 C48.9593954,22.8363045 48.9736153,24.7335851 46.7123147,27.6419101 C45.345878,29.3991541 44.7995679,31.2378379 44.8660378,33.4482972 C44.9685536,36.8575096 43.5591264,38.5505288 40.2151264,39.4139222 C38.067916,39.9684407 36.6164903,41.3221277 35.4593843,43.1631288 C34.4534065,44.7641146 33.0195078,45.817534 30.5468922,45.7844284 C30.0154634,45.6314807 29.0488384,45.4182808 28.1301644,45.0749759 Z" id="Fill-1" stroke="#FAD214" stroke-width="2" mask="url(#mask-2)"></path>
                        </g>
                    </g>
                    <text id="1" font-family=".SFNSDisplay, .SF NS Display" font-size="22" font-weight="normal" fill="#FAD214">
                        <tspan x="17.229758" y="60.8970588">1</tspan>
                    </text>
                    <text id="st" font-family=".AppleSystemUIFont" font-size="8" font-weight="normal" fill="#FAD214">
                        <tspan x="26.5411392" y="52">st</tspan>
                    </text>
                </g>
                <g id="Group-3" transform="translate(50.506329, 10.992647)">
                    <g id="Group-27">
                        <g id="Group-12-Copy">
                            <g id="Group-26" transform="translate(0.000000, 0.248702)">
                                <g id="Group-19-Copy">
                                    <g id="Group-42-Copy-2" transform="translate(0.260701, 0.000000)">
                                        <g id="Group-21-Copy-2">
                                            <g id="Group-36" transform="translate(34.509963, 17.409170)"></g>
                                            <path d="M28.5548062,8.39368751 C28.0047433,7.15846492 26.7480632,6.29518399 25.285782,6.29518399 C23.7532542,6.29518399 22.1254382,7.02283793 21.8601716,9.15671649" id="Oval-2-Copy" stroke="#765DFF" stroke-linecap="round" stroke-linejoin="round"></path>
                                            <path d="M32.954553,7.8341263 C32.954553,6.94132169 33.6917316,6.21756055 34.6013917,6.21756055 L37.0121618,6.21756055" id="Rectangle-33" stroke="#765DFF" stroke-width="1.5" stroke-linecap="round" stroke-linejoin="round"></path>
                                            <path d="M1.75918561,7.8341263 C1.75918561,6.94132169 2.4963642,6.21756055 3.40602431,6.21756055 L5.81679438,6.21756055" id="Rectangle-33-Copy" stroke="#765DFF" stroke-width="1.5" stroke-linecap="round" stroke-linejoin="round" transform="translate(3.787990, 7.025843) scale(-1, 1) translate(-3.787990, -7.025843) "></path>
                                            <path d="M0.721701882,6.1197065 C1.03462029,5.76168614 1.68454164,5.47145329 2.16104001,5.47145329 L2.95154704,5.47145329 C3.43355313,5.47145329 3.82429627,5.85781918 3.82429627,6.34191176 L3.82429627,6.34191176 C3.82429627,6.82265271 3.43523568,7.21237024 2.96378181,7.21237024 L0.627201954,7.21237024 C0.151952941,7.21237024 0.0179493318,6.92489321 0.333276399,6.56411702 L0.721701882,6.1197065 Z" id="Rectangle-34-Copy-2" fill="#F478A2" transform="translate(1.993307, 6.341912) scale(1, -1) translate(-1.993307, -6.341912) "></path>
                                            <path d="M35.5765474,6.1197065 C35.8894658,5.76168614 36.5393871,5.47145329 37.0158855,5.47145329 L37.8063925,5.47145329 C38.2883986,5.47145329 38.6791417,5.85781918 38.6791417,6.34191176 L38.6791417,6.34191176 C38.6791417,6.82265271 38.2900812,7.21237024 37.8186273,7.21237024 L35.4820474,7.21237024 C35.0067984,7.21237024 34.8727948,6.92489321 35.1881219,6.56411702 L35.5765474,6.1197065 Z" id="Rectangle-34-Copy-3" fill="#F478A2" transform="translate(36.848153, 6.341912) scale(-1, -1) translate(-36.848153, -6.341912) "></path>
                                            <path d="M31.4317146,19.3987889 C31.4317146,19.3987889 34.6687556,19.9949686 35.7429239,19.709667 C36.8170922,19.4243653 37.5181278,17.7822232 37.5181278,17.7822232 L37.5181278,19.709667 C37.5181278,20.7741648 36.6460932,21.6371107 35.5923486,21.6371107 L33.3574938,21.6371107 C32.2939153,21.6371107 31.4317146,20.7781185 31.4317146,19.710018 L31.4317146,19.3987889 Z" id="Rectangle-83-Copy-5" fill="#5944CE"></path>
                                            <path d="M1.50684992,17.7822232 C1.50684992,17.7822232 2.11422733,19.4331679 3.15525348,19.709667 C4.19627963,19.986166 7.59326308,19.3987889 7.59326308,19.3987889 L7.59326308,19.710018 C7.59326308,20.7743219 6.72122847,21.6371107 5.66748391,21.6371107 L3.43262908,21.6371107 C2.36905062,21.6371107 1.50684992,20.7815862 1.50684992,19.709667 L1.50684992,17.7822232 Z" id="Rectangle-83-Copy-6" fill="#5944CE"></path>
                                            <path d="M5.59576625,8.33153114 L8.50148074,4.23524185 C9.13765439,3.33840519 10.3912711,2.09545168 11.359291,1.57929072 C11.359291,1.57929072 12.5697813,2.89058053e-16 19.5437964,0 C26.5178115,0 27.7283018,1.57929072 27.7283018,1.57929072 C28.6704532,2.14929537 29.9315254,3.3591859 30.5447205,4.2812583 L33.238226,8.33153114" id="Rectangle-82" stroke="#765DFF"></path>
                                            <path d="M8.89630723,6.7149654 C8.9718121,6.58802847 9.01883475,6.53546233 9.19847058,6.21756055 M9.62087043,5.48123626 C9.99278708,4.84507045 11.2354099,3.47262028 11.6859133,3.10878028 C12.3017954,2.61137543 13.3343168,2.2383218 14.9827204,1.86526817" id="Rectangle-82" stroke="#765DFF" opacity="0.1" stroke-linecap="round"></path>
                                            <path d="M1.79549188,14.6734429 L2.19527523,15.2615356 C2.81483928,16.172932 4.2097926,16.9356113 5.3143584,16.9651176 L10.6299935,17.1071142 C11.7330515,17.1365802 13.4095923,16.7115307 14.3557294,16.1685982 L13.9253392,16.4155739 C14.4052274,16.1401943 15.2498001,15.916955 15.7871706,15.916955 L23.2462234,15.916955 C23.7945963,15.916955 24.620743,16.1508501 25.0877809,16.437111 L24.5561411,16.1112538 C25.5015442,16.6907183 27.1689821,17.1375156 28.2673196,17.1095383 L34.0321911,16.9626935 C35.1364153,16.9345663 36.5297957,16.1788544 37.1533858,15.2615356 L36.9865803,15.5069113 C37.2994987,15.0465994 37.4446104,15.0992912 37.3076107,15.6367056 L36.538767,18.6526817 L27.4091473,18.9013841 C27.4091473,18.9013841 26.2468841,17.4031743 23.3515385,17.4091696 C20.5609713,17.415106 21.1499546,17.1921155 20.0547314,17.1604671 C17.1952357,17.0869614 16.2231258,17.1316738 16.2231258,17.1316738 C15.1178897,17.1475759 13.4299914,17.5840845 12.4552188,18.1055093 L11.4323127,18.6526817 L3.57069572,18.6526817 L2.30269298,17.1604671 L1.79549188,14.6734429 Z" id="Path-13-Copy-5" fill="#DAFFFA"></path>
                                            <path d="M1.79549188,16.1656574 L2.26029094,16.7734198 C2.8439478,17.5365984 4.09829919,18.1552768 5.05627688,18.1552768 L10.3808739,18.1552768 C11.3413974,18.1552768 12.7674043,17.7338494 13.5823444,17.2033191 L13.3319648,17.3663176 C14.1395646,16.8405658 15.5671683,16.4143599 16.5265914,16.4143599 L22.5068026,16.4143599 C23.4635463,16.4143599 24.8790817,16.8536667 25.6701942,17.3967497 L25.3440921,17.172887 C26.1344413,17.7154459 27.5643431,18.1552768 28.5162077,18.1552768 L34.2905041,18.1552768 C35.252066,18.1552768 36.5046699,17.5366551 37.0883701,16.7734198 L36.9430423,16.9634477 C37.2800061,16.5228403 37.3874,16.5883329 37.1864103,17.100813 L36.2851665,19.3987889 L27.4091473,19.6474913 C27.4091473,19.6474913 26.2468841,17.9005791 23.3515385,17.9065744 C20.5609713,17.9125108 21.1499546,17.9382227 20.0547314,17.9065744 C17.1952357,17.8330687 15.9386774,18.1433943 15.9386774,18.1433943 C14.9905378,18.2873114 13.5229306,18.7531663 12.6659167,19.1812968 L11.8494463,19.5891734 L11.4323127,19.6474913 L3.57069572,19.3987889 L2.30269298,18.9013841 L1.79549188,16.1656574 Z" id="Path-13-Copy-4" fill="#B4F8EE"></path>
                                            <path d="M13.2186134,17.3339296 C13.9361586,16.4985902 15.406824,15.6694732 16.4967707,15.5205965 C16.4967707,15.5205965 17.0225632,15.3240089 19.5246899,15.3240089 C22.0021628,15.3240089 22.5266319,15.5205965 22.5266319,15.5205965 C23.6120541,15.6867333 25.0730018,16.497838 25.791193,17.3339296 L27.1766084,18.9467788 C27.5361902,19.3653905 27.3974395,19.5843655 26.8641195,19.4395211 C26.8641195,19.4395211 21.9982425,18.0309256 19.5050594,18.0309256 C17.0118763,18.0309256 12.1319735,19.4432084 12.1319735,19.4432084 C11.6073826,19.5876496 11.4781412,19.3601228 11.833198,18.9467788 L13.2186134,17.3339296 Z" id="Rectangle-3" fill="#765DFF"></path>
                                            <path d="M1.80582479,14.2541583 C1.92582707,11.0518589 4.62766026,8.40350668 7.82365677,8.34067499 C7.82365677,8.34067499 8.16725196,8.33153114 8.35378123,8.33153114 C8.54031049,8.33153114 14.8206896,9.57504326 19.5122054,9.57504325 C24.5945399,9.57504325 28.4179872,8.33153114 30.6706295,8.33153114 C30.6975706,8.33153114 31.2217445,8.34213326 31.2217445,8.34213326 C34.4240237,8.40495516 37.1057147,11.0500021 37.211258,14.2494959 C37.211258,14.2494959 37.2434576,15.2137582 37.2430475,15.2227557 C37.2426374,15.2317532 37.0466408,17.6454138 37.0466408,17.6454138 C36.9568866,18.7511307 35.9919616,19.718381 34.8847406,19.788726 C34.8847406,19.788726 32.8986186,20.0216499 28.3807525,19.8908888 C25.8178617,19.8167108 22.6559998,17.9065744 19.5122054,17.9065744 C16.2938415,17.9065744 13.3649038,19.8195011 10.7632699,19.8961938 C6.34364846,20.0264782 4.13571118,19.7859936 4.13571118,19.7859936 C3.03398049,19.7095009 2.071577,18.7509923 1.9870962,17.6534491 C1.9870962,17.6534491 1.85549956,15.963595 1.80341308,15.2227557 C1.7513266,14.4819164 1.80582479,14.2541583 1.80582479,14.2541583 Z" id="Rectangle-78" stroke="#765DFF"></path>
                                            <path d="M17.6434864,1.92911732 C17.8349785,1.64857842 18.2558373,1.36881828 18.6057052,1.31372196 C18.6057052,1.31372196 18.7691289,1.24351211 19.5477059,1.24351211 C20.3262828,1.24351211 20.5043797,1.31576696 20.5043797,1.31576696 C20.8360019,1.37397211 21.2591288,1.64719979 21.4515619,1.92911732 L21.4856545,1.9790636 C21.6771466,2.2596025 21.5465903,2.48702422 21.2173231,2.48702422 C21.2173231,2.48702422 21.0027994,2.48702422 19.5477059,2.48702422 C18.0926123,2.48702422 17.8779112,2.48702422 17.8779112,2.48702422 C17.538121,2.48702422 17.4169606,2.26098113 17.6093937,1.9790636 L17.6434864,1.92911732 Z" id="Rectangle-13" fill="#765DFF" transform="translate(19.546241, 1.865268) scale(1, -1) translate(-19.546241, -1.865268) "></path>
                                            <mask id="mask-4" fill="white">
                                                <use xlink:href="#path-3"></use>
                                            </mask>
                                            <use id="Rectangle-4" fill="#765DFF" transform="translate(6.899982, 12.917855) scale(1, -1) rotate(-15.000000) translate(-6.899982, -12.917855) " xlink:href="#path-3"></use>
                                            <ellipse id="Oval-6" fill="#FAD214" mask="url(#mask-4)" cx="8.13550559" cy="12.4351211" rx="1.52160329" ry="1.49221453"></ellipse>
                                            <ellipse id="Oval-6-Copy-5" fill="#FFFFFF" opacity="0.355701959" mask="url(#mask-4)" cx="30.7977132" cy="12.5594723" rx="1" ry="1"></ellipse>
                                            <ellipse id="Oval-6-Copy" fill="#F478A2" mask="url(#mask-4)" cx="5.18405787" cy="12.5594723" rx="1" ry="1"></ellipse>
                                            <mask id="mask-6" fill="white">
                                                <use xlink:href="#path-5"></use>
                                            </mask>
                                            <use id="Rectangle-4" fill="#765DFF" transform="translate(32.124995, 12.917855) scale(-1, -1) rotate(-15.000000) translate(-32.124995, -12.917855) " xlink:href="#path-5"></use>
                                            <ellipse id="Oval-6" fill="#FAD214" mask="url(#mask-6)" transform="translate(31.213155, 12.435121) scale(-1, 1) translate(-31.213155, -12.435121) " cx="31.2131555" cy="12.4351211" rx="1.52160329" ry="1.49221453"></ellipse>
                                            <ellipse id="Oval-6-Copy" fill="#F478A2" mask="url(#mask-6)" transform="translate(33.840920, 12.559472) scale(-1, 1) translate(-33.840920, -12.559472) " cx="33.8409198" cy="12.5594723" rx="1" ry="1"></ellipse>
                                        </g>
                                    </g>
                                </g>
                                <path d="M5.60660092,16.8513655 L9.66420969,16.8513655" id="Line-Copy-8" stroke="#765DFF" stroke-linecap="round" stroke-linejoin="round"></path>
                                <path d="M30.2058541,16.8513655 L34.2634629,16.8513655" id="Line-Copy-9" stroke="#765DFF" stroke-linecap="round" stroke-linejoin="round"></path>
                            </g>
                        </g>
                    </g>
                </g>
            </g>
        </g>
    </g>
</svg>
