
<svg width="145px" height="65px" viewBox="0 0 145 65" version="1.1" xmlns="http://www.w3.org/2000/svg" xmlns:xlink="http://www.w3.org/1999/xlink">
    <!-- Generator: Sketch 45.1 (43504) - http://www.bohemiancoding.com/sketch -->
    <desc>Created with Sketch.</desc>
    <defs>
        <polygon id="path-1" points="40.1411744 0 0 0 0 20.1303111 0 40.2606222 40.1411744 40.2606222"></polygon>
    </defs>
    <g id="Get-a-Quote" stroke="none" stroke-width="1" fill="none" fill-rule="evenodd">
        <g id="GET-A-QUOTE-3b-hover-a" transform="translate(-759.000000, -354.000000)">
            <g id="Group-9" transform="translate(759.000000, 354.000000)">
                <g id="Group-4" transform="translate(72.500000, 32.500000) scale(-1, 1) translate(-72.500000, -32.500000) ">
                    <ellipse id="Oval-16-Copy-2" fill="#E4DFFF" opacity="0.5" cx="72.8754315" cy="57.5473579" rx="72.1245685" ry="7.45264207"></ellipse>
                    <path d="M71.9507576,59.4105184 C102.591757,59.4105184 127.431195,57.325105 127.431195,54.7526171 C127.431195,52.1801293 102.591757,51.9578764 71.9507576,51.9578764 C41.3097582,51.9578764 16.4703203,52.1801293 16.4703203,54.7526171 C16.4703203,57.325105 41.3097582,59.4105184 71.9507576,59.4105184 Z" id="Oval-15-Copy-2" fill="#C5BBFF"></path>
                    <g id="Group-7" transform="translate(76.863636, 26.983051) scale(1, -1) translate(-76.863636, -26.983051) translate(26.363636, 0.983051)" stroke-width="2">
                        <path d="M94.5948408,34.1894317 L82.5740794,46.2999751" id="Line" stroke="#E4DFFF" stroke-linecap="square" stroke-linejoin="round"></path>
                        <path d="M0.27809743,12.5574081 L0.27809743,4.03073238 C0.27809743,1.82324843 2.07519414,0.0337291231 4.28551758,0.0337291231 L96.1354644,0.0337291231 C98.3487014,0.0337291231 100.142885,1.82000224 100.142885,4.04133456 L100.142885,29.250246 C100.142885,31.4635854 98.886292,34.5238294 97.3240643,36.0977252 L84.4682257,49.0495829 C82.9114343,50.6180018 79.8550161,51.8894566 77.6419446,51.8894566 L4.2855583,51.8894566 C2.07229877,51.8894566 0.27809743,50.1084223 0.27809743,47.8898368 L0.27809743,27.6683699 L0.27809743,12.5574081 Z" id="Rectangle-22" stroke="#765DFF" stroke-linecap="round"></path>
                        <path d="M80.8000575,49.462483 L97.7413169,32.3946909 L80.8000575,32.3946909 L80.8000575,49.462483 Z" id="Rectangle-27" stroke="#765DFF"></path>
                    </g>
                    <path d="M69.5286917,28.8273253 L113.34556,28.8273253" id="Line-Copy-18" stroke="#765DFF" stroke-linecap="round"></path>
                    <path d="M58.660041,28.8273253 L39.5815985,28.8273253" id="Line-Copy-18" stroke="#765DFF" stroke-linecap="round"></path>
                    <path d="M68.6375446,20.4917072 L96.1557831,20.4917072" id="Line-Copy-18" stroke="#765DFF" stroke-linecap="round"></path>
                    <path d="M55.4734848,20.4917072 L40.094697,20.4917072" id="Line-Copy-18" stroke="#765DFF" stroke-linecap="round"></path>
                    <path d="M39.3658534,12.7798428 L97.2285309,12.7798428" id="Line-Copy-18" stroke="#765DFF" stroke-linecap="round"></path>
                    <path d="M68.6102838,37.0900372 L113.693407,37.0900372" id="Line-Copy-18" stroke="#765DFF" stroke-linecap="round"></path>
                    <path d="M54.6994266,37.0900372 L39.6045669,37.0900372" id="Line-Copy-18" stroke="#765DFF" stroke-linecap="round"></path>
                </g>
                <g id="Page-1" transform="translate(77.992424, 8.813559)">
                    <g id="Group-3">
                        <mask id="mask-2" fill="white">
                            <use xlink:href="#path-1"></use>
                        </mask>
                        <g id="Clip-2"></g>
                        <path d="M20.0989171,5.23099424 C11.8674206,5.27308558 5.234052,11.8250206 5.2270315,20.1274602 C5.22008815,28.3877311 11.7767713,35.0338301 20.0682892,35.0326695 C28.3409057,35.0314315 34.9152558,28.4755504 34.9341572,20.1541542 C34.9529814,11.8883897 28.3854975,5.29699408 20.0989171,5.23099424 L20.0989171,5.23099424 Z M21.1386453,-1.54747577e-05 C22.0271627,0.120919757 22.9216977,0.208893754 23.8030403,0.369289617 C25.8633639,0.74432037 27.8172999,1.43031638 29.6621482,2.43594351 C32.0653961,3.74611387 34.1172334,5.47301945 35.8127996,7.61828511 C37.5494088,9.81554595 38.7830879,12.2678308 39.4771915,14.9946379 C40.0678392,17.3153873 40.2812315,19.6620569 40.0494007,22.0436221 C39.7687351,24.9264921 38.9443279,27.6392945 37.4998024,30.1607515 C36.4215772,32.0428689 35.0791189,33.7070243 33.4725819,35.1510514 C31.4702738,36.9509204 29.1917748,38.2938973 26.6431793,39.16737 C24.5464417,39.8859403 22.383588,40.2438715 20.1747539,40.26012 C18.6454423,40.2714166 17.1274716,40.0917546 15.6273993,39.7590473 C13.2545478,39.2326734 11.0584431,38.2918082 9.03090757,36.962217 C7.38780222,35.884787 5.93810776,34.5784853 4.67688669,33.0669884 C2.95771307,31.0067565 1.69209455,28.6927386 0.907727372,26.1264822 C0.459186922,24.6587788 0.178366963,23.1511505 0.0679676878,21.6156677 C0.0580155519,21.4763175 0.0232216504,21.3388243 0,21.2004026 L0,19.1113103 C0.0207529036,19.0123492 0.0448231857,18.9140071 0.0617186723,18.8143497 C0.286991826,17.4833658 0.438511166,16.1347406 0.750884797,14.8246476 C1.40001093,12.1027151 2.69818606,9.68811132 4.44158425,7.51104504 C5.82894285,5.77856854 7.46340759,4.32425081 9.33147751,3.12843891 C11.503049,1.73826406 13.8587736,0.82254527 16.3895477,0.367200525 C17.271739,0.208429511 18.1665826,0.12037814 19.0556401,-1.54747577e-05 L21.1386453,-1.54747577e-05 Z" id="Fill-1" fill="#FAD214" mask="url(#mask-2)"></path>
                    </g>
                    <g id="Group-6" transform="translate(32.093710, 32.187496)" fill="#FAD214">
                        <path d="M12.6011557,18 C12.0254503,17.800763 11.3759608,17.7096318 10.8906647,17.3780273 C10.0748393,16.8206953 9.32345729,16.1512281 8.61552311,15.4568991 C6.61015238,13.4906768 4.64068825,11.4878477 2.6567415,9.49976423 C1.85094256,8.6922714 1.04360109,7.88632173 0.239344681,7.07737149 C0.181842704,7.01958933 0.143365226,6.94294653 0.0748084725,6.84452825 C2.77568747,5.04265075 5.02074975,2.80672122 6.85695669,0.058039315 C7.11147364,0.294740417 7.36042035,0.512838064 7.59445597,0.745938498 C9.44266034,2.58725189 11.2924929,4.42702213 13.1328133,6.27630843 C14.3692343,7.5187106 15.5983712,8.76874275 16.816282,10.0294054 C17.4297792,10.6644948 17.7243162,11.4684727 17.9186746,12.313944 C17.9408698,12.4100476 17.972663,12.5040079 18,12.5989969 L18,13.7134896 C17.9763479,13.7799306 17.9432693,13.8446569 17.9305006,13.9130696 C17.6553309,15.3968023 16.9045488,16.5746496 15.5835458,17.3099576 C15.0103257,17.6289597 14.3409547,17.7752154 13.7152029,18 L12.6011557,18 Z" id="Fill-4"></path>
                    </g>
                </g>
            </g>
        </g>
    </g>
</svg>
