<svg width="122px" height="116px" viewBox="0 0 122 116" version="1.1" xmlns="http://www.w3.org/2000/svg" xmlns:xlink="http://www.w3.org/1999/xlink">
    <!-- Generator: Sketch 45.1 (43504) - http://www.bohemiancoding.com/sketch -->
    <desc>Created with Sketch.</desc>
    <defs>
        <path d="M4.48792309,11.078978 C5.87713973,10.3110793 9.08940368,11.341959 9.71252506,11.8781601 C10.3356465,12.4143613 10.4647414,13.3516363 9.46377246,13.8130696 C8.46280354,14.2745028 5.63465986,14.483827 4.46810034,13.9470575 C3.30154082,13.4102879 3.09870644,11.8468768 4.48792309,11.078978 Z" id="path-1"></path>
        <path d="M29.5601577,11.078978 C30.9493744,10.3110793 34.1616383,11.341959 34.7847597,11.8781601 C35.4078811,12.4143613 35.536976,13.3516363 34.5360071,13.8130696 C33.5350382,14.2745028 30.7068945,14.483827 29.540335,13.9470575 C28.3737754,13.4102879 28.1709411,11.8468768 29.5601577,11.078978 Z" id="path-3"></path>
        <path d="M4.3174873,10.9793092 C5.6539463,10.2183186 8.74421958,11.2399243 9.34367697,11.7713017 C9.94313437,12.3026791 10.0673267,13.2315221 9.10437113,13.6888043 C8.14141555,14.1460864 5.42067498,14.3535274 4.29841735,13.8215868 C3.17615972,13.2896462 2.98102829,11.7402998 4.3174873,10.9793092 Z" id="path-5"></path>
        <path d="M28.4375652,10.9793092 C29.7740242,10.2183186 32.8642975,11.2399243 33.4637549,11.7713017 C34.0632123,12.3026791 34.1874046,13.2315221 33.224449,13.6888043 C32.2614935,14.1460864 29.5407529,14.3535274 28.4184953,13.8215868 C27.2962376,13.2896462 27.1011062,11.7402998 28.4375652,10.9793092 Z" id="path-7"></path>
    </defs>
    <g id="Get-a-Quote" stroke="none" stroke-width="1" fill="none" fill-rule="evenodd">
        <g id="GET-A-QUOTE-1-hover-c" transform="translate(-877.000000, -324.000000)">
            <g id="Group-4" transform="translate(887.000000, 325.000000)">
                <path d="M82.3868313,80.6722689 L71.9753086,90.7563025" id="Line" stroke="#E4DFFF" stroke-width="2" stroke-linecap="square" stroke-linejoin="round"></path>
                <path d="M0.696422919,23.2708468 L0.696422919,4.00040118 C0.696422919,1.79104062 2.48315478,0 4.69481823,0 L83.1937541,0 C85.4020069,0 87.1921494,1.79977418 87.1921494,4.00311793 L87.1921494,75.8934561 C87.1921494,78.1043171 85.908428,81.1399167 84.3192564,82.6791017 L74.0473153,92.6279442 C72.4606603,94.1646918 69.3792638,95.4104719 67.1832857,95.4104719 L4.6875595,95.4104719 C2.48331563,95.4104719 0.696422919,93.6206905 0.696422919,91.4017975 L0.696422919,75.2424047 L0.696422919,23.2708468 Z" id="Rectangle-22" stroke="#765DFF" stroke-width="2" stroke-linecap="round"></path>
                <path d="M70.5726496,93.0497768 L84.7223124,79.3451842 L70.5726496,79.3451842 L70.5726496,93.0497768 Z" id="Rectangle-27" stroke="#765DFF" stroke-width="2"></path>
                <path d="M11.103002,36.2197802 L75.9797404,36.2197802" id="Line-Copy-12" stroke="#765DFF" stroke-linecap="round"></path>
                <path d="M11.0288938,48.8791209 L75.9797404,48.8791209" id="Line-Copy-16" stroke="#765DFF" stroke-linecap="round"></path>
                <path d="M10.9844695,42.5494505 L75.9797404,42.5494505" id="Line-Copy-15" stroke="#765DFF" stroke-linecap="round"></path>
                <path d="M11.0881736,55.2087912 L75.9797404,55.2087912" id="Line-Copy-17" stroke="#765DFF" stroke-linecap="round"></path>
                <path d="M11.504658,61.5384615 L75.9797404,61.5384615" id="Line-Copy-19" stroke="#765DFF" stroke-linecap="round"></path>
                <path d="M11.8287542,67.1644921 L75.9797404,67.1644921" id="Line-Copy-18" stroke="#765DFF" stroke-linecap="round"></path>
                <path d="M11.9038168,73.4941624 L75.9797404,73.4941624" id="Line-Copy-18" stroke="#765DFF" stroke-linecap="round"></path>
                <path d="M11.9038168,82.9886679 L29.1976368,82.9886679" id="Line-Copy-18" stroke="#765DFF" stroke-linecap="round"></path>
                <g id="Group-3" transform="translate(23.121241, 10.084034)">
                    <g id="Group-27">
                        <g id="Group-12-Copy">
                            <g id="Group-26" transform="translate(0.000000, 0.241327)">
                                <g id="Group-19-Copy">
                                    <g id="Group-42-Copy-2" transform="translate(0.259122, 0.000000)">
                                        <g id="Group-21-Copy-2">
                                            <g id="Group-36" transform="translate(34.300949, 16.892911)"></g>
                                            <path d="M28.3818607,8.14477771 C27.8351293,6.94618491 26.5860605,6.10850407 25.1326358,6.10850407 C23.6093898,6.10850407 21.9914329,6.81457986 21.7277729,8.88517952" id="Oval-2-Copy" stroke="#765DFF" stroke-linecap="round" stroke-linejoin="round"></path>
                                            <path d="M32.7549599,7.60180995 C32.7549599,6.73548094 33.4876737,6.0331825 34.3918244,6.0331825 L36.7879933,6.0331825" id="Rectangle-33" stroke="#765DFF" stroke-width="1.5" stroke-linecap="round" stroke-linejoin="round"></path>
                                            <path d="M1.7485309,7.60180995 C1.7485309,6.73548094 2.48124468,6.0331825 3.38539533,6.0331825 L5.7815643,6.0331825" id="Rectangle-33-Copy" stroke="#765DFF" stroke-width="1.5" stroke-linecap="round" stroke-linejoin="round" transform="translate(3.765048, 6.817496) scale(-1, 1) translate(-3.765048, -6.817496) "></path>
                                            <path d="M0.717330811,5.93823026 C1.028354,5.59082677 1.65241808,5.3092006 2.13386381,5.3092006 L2.94775827,5.3092006 C3.41906466,5.3092006 3.80113398,5.68410905 3.80113398,6.15384615 L3.80113398,6.15384615 C3.80113398,6.62033101 3.42894486,6.9984917 2.96548685,6.9984917 L0.603747706,6.9984917 C0.142232542,6.9984917 0.0178406196,6.71953964 0.331257872,6.36946205 L0.717330811,5.93823026 Z" id="Rectangle-34-Copy-2" fill="#F478A2" transform="translate(1.979594, 6.153846) scale(1, -1) translate(-1.979594, -6.153846) "></path>
                                            <path d="M35.3643556,5.93823026 C35.6753788,5.59082677 36.2994428,5.3092006 36.7808886,5.3092006 L37.594783,5.3092006 C38.0660894,5.3092006 38.4481587,5.68410905 38.4481587,6.15384615 L38.4481587,6.15384615 C38.4481587,6.62033101 38.0759696,6.9984917 37.6125116,6.9984917 L35.2507725,6.9984917 C34.7892573,6.9984917 34.6648654,6.71953964 34.9782826,6.36946205 L35.3643556,5.93823026 Z" id="Rectangle-34-Copy-3" fill="#F478A2" transform="translate(36.626618, 6.153846) scale(-1, -1) translate(-36.626618, -6.153846) "></path>
                                            <path d="M31.2413448,18.8235294 C31.2413448,18.8235294 34.4587803,19.4020297 35.5264428,19.1251885 C36.5941053,18.8483473 37.2908949,17.254902 37.2908949,17.254902 L37.2908949,19.1251885 C37.2908949,20.1581193 36.4497309,20.9954751 35.426468,20.9954751 L33.1057717,20.9954751 C32.0760772,20.9954751 31.2413448,20.1619558 31.2413448,19.1255292 L31.2413448,18.8235294 Z" id="Rectangle-83-Copy-5" fill="#5944CE"></path>
                                            <path d="M1.49772351,17.254902 C1.49772351,17.254902 2.10142227,18.8568889 3.13614332,19.1251885 C4.17086438,19.3934881 7.5472736,18.8235294 7.5472736,18.8235294 L7.5472736,19.1255292 C7.5472736,20.1582718 6.70610958,20.9954751 5.68284669,20.9954751 L3.36215042,20.9954751 C2.33245587,20.9954751 1.49772351,20.1653207 1.49772351,19.1251885 L1.49772351,17.254902 Z" id="Rectangle-83-Copy-6" fill="#5944CE"></path>
                                            <path d="M5.56187484,8.08446456 L8.41754634,4.15430014 C9.06778536,3.2593981 10.3283351,2.03331231 11.3222941,1.51788811 C11.3222941,1.51788811 12.493651,2.80486209e-16 19.4254271,0 C26.3572033,0 27.5444999,1.52517691 27.5444999,1.52517691 C28.4897055,2.08229953 29.7580295,3.2710039 30.3801244,4.18425001 L33.0369149,8.08446456" id="Rectangle-82" stroke="#765DFF"></path>
                                            <path d="M8.84242572,6.5158371 C8.91747329,6.39266441 8.96421114,6.34165709 9.14275898,6.0331825 M9.56260051,5.31869346 C9.93226461,4.70139278 11.1673613,3.3696418 11.6151362,3.01659125 C12.2272882,2.53393665 13.253556,2.1719457 14.8919758,1.80995475" id="Rectangle-82" stroke="#765DFF" opacity="0.1" stroke-linecap="round"></path>
                                            <path d="M1.78461728,14.2383107 L2.15072411,14.7640782 C2.78379746,15.6732373 4.1842955,16.4333959 5.30493582,16.4626208 L10.5428472,16.5992193 C11.6517969,16.6281394 13.3283756,16.2159602 14.2893622,15.6775989 L13.8285882,15.9357325 C14.312424,15.6646793 15.1574379,15.4449472 15.709297,15.4449472 L23.0876868,15.4449472 C23.6425377,15.4449472 24.481138,15.6775989 24.9475179,15.9566697 L24.3898772,15.6229906 C25.3392397,16.1910669 27.00443,16.6293128 28.107859,16.6018732 L33.8143275,16.459967 C34.9183497,16.4325126 36.325362,15.6749347 36.9596173,14.7640782 L36.7539552,15.0594303 C37.0697344,14.6059384 37.2139705,14.6662836 37.0712979,15.2126638 L36.3174657,18.0995475 L27.2431406,18.3408748 C27.2431406,18.3408748 26.0879168,16.8870935 23.2101072,16.892911 C20.4364414,16.8986714 21.0218575,16.6822935 19.9332676,16.6515837 C17.0910908,16.5802578 16.1380859,16.6235507 16.1380859,16.6235507 C15.032244,16.6390329 13.3486511,17.0626389 12.3640837,17.5767993 L11.3630716,18.0995475 L3.54906939,18.0995475 L2.28874645,16.6515837 L1.78461728,14.2383107 Z" id="Path-13-Copy-5" fill="#DAFFFA"></path>
                                            <path d="M1.78461728,15.6862745 L2.25485584,16.2865514 C2.83041882,17.0212787 4.0581722,17.6168929 4.98402423,17.6168929 L10.3596297,17.6168929 C11.2913448,17.6168929 12.6900771,17.2079627 13.4690267,16.7129017 L13.2822729,16.831593 C14.0678303,16.3323325 15.457015,15.9276018 16.3938222,15.9276018 L22.4031615,15.9276018 C23.3360653,15.9276018 24.7283986,16.3538813 25.5000498,16.8710279 L25.2052626,16.6734668 C25.982723,17.1945067 27.365883,17.6168929 28.3004665,17.6168929 L34.1258492,17.6168929 C35.0578227,17.6168929 36.2753205,17.0271534 36.8554855,16.2865514 L36.7105782,16.4715309 C37.0503139,16.0378458 37.1609589,16.0964158 36.9544023,16.6105861 L36.0654011,18.8235294 L27.2431406,19.0648567 C27.2431406,19.0648567 26.0879168,17.3697481 23.2101072,17.3755656 C20.4364414,17.381326 21.0218575,17.4062754 19.9332676,17.3755656 C17.0910908,17.3042397 15.7924581,17.6114607 15.7924581,17.6114607 C14.8775012,17.7477422 13.4537209,18.1908617 12.6156974,18.5995661 L11.7776787,19.0082681 L11.3630716,19.0648567 L3.54906939,18.8235294 L2.28874645,18.3408748 L1.78461728,15.6862745 Z" id="Path-13-Copy-4" fill="#B4F8EE"></path>
                                            <path d="M13.1100058,16.8523473 C13.8389714,16.0238605 15.3135108,15.2048043 16.4087573,15.0589572 C16.4087573,15.0589572 16.9194641,14.8695846 19.4064364,14.8695846 C21.8689042,14.8695846 22.3665491,15.0575735 22.3665491,15.0575735 C23.4584575,15.2203129 24.9363733,16.0259126 25.6635333,16.8523473 L27.0041065,18.3759406 C27.3658754,18.7870997 27.2315037,19.0036028 26.6876548,18.8594572 C26.6876548,18.8594572 21.8650076,17.4962293 19.3869248,17.4962293 C16.9088419,17.4962293 12.0584948,18.8666317 12.0584948,18.8666317 C11.5370812,19.0067895 11.4086225,18.7860099 11.7694326,18.3759406 L13.1100058,16.8523473 Z" id="Rectangle-3" fill="#765DFF"></path>
                                            <path d="M1.7948876,13.8314597 C1.91416307,10.7241226 4.52813236,8.15570156 7.63024446,8.0960343 C7.63024446,8.0960343 8.11778606,8.08446456 8.30318558,8.08446456 C8.48858511,8.08446456 14.7309264,9.29110106 19.3940274,9.29110106 C24.4455803,9.29110105 28.2458704,8.08446456 30.4848693,8.08446456 C30.5116472,8.08446456 31.1706079,8.09737768 31.1706079,8.09737768 C34.2772981,8.15688666 36.8809796,10.7223209 36.9858837,13.8269356 C36.9858837,13.8269356 37.0178883,14.7626033 37.0174807,14.7713339 C37.0170731,14.7800646 36.826429,17.0720426 36.826429,17.0720426 C36.7349179,18.1726434 35.7739721,19.1336442 34.6734572,19.2019031 C34.6734572,19.2019031 32.6993643,19.4279198 28.2088612,19.3010364 C25.6614929,19.2290581 22.5187811,17.3755656 19.3940274,17.3755656 C16.195156,17.3755656 13.2839577,19.2317656 10.6980809,19.306184 C6.30522742,19.432605 4.12738301,19.2001711 4.12738301,19.2001711 C3.02309074,19.125439 2.05752624,18.175908 1.97050844,17.0720517 C1.97050844,17.0720517 1.84426152,15.4902041 1.7924905,14.7713339 C1.74071949,14.0524638 1.7948876,13.8314597 1.7948876,13.8314597 Z" id="Rectangle-78" stroke="#765DFF"></path>
                                            <path d="M17.5366266,1.8719105 C17.7269588,1.59969081 18.1452687,1.32822679 18.4782863,1.27674868 C18.4782863,1.27674868 18.6554515,1.2066365 19.4293129,1.2066365 C20.2031743,1.2066365 20.3801926,1.27674868 20.3801926,1.27674868 C20.7098063,1.33322778 21.1303704,1.59835306 21.321638,1.8719105 L21.3555242,1.92037565 C21.5458565,2.19259534 21.4286772,2.413273 21.0888179,2.413273 C21.0888179,2.413273 20.8755935,2.413273 19.4293129,2.413273 C17.9830323,2.413273 17.7696315,2.413273 17.7696315,2.413273 C17.4318993,2.413273 17.3114728,2.19393309 17.5027404,1.92037565 L17.5366266,1.8719105 Z" id="Rectangle-13" fill="#765DFF" transform="translate(19.429173, 1.809955) scale(1, -1) translate(-19.429173, -1.809955) "></path>
                                            <mask id="mask-2" fill="white">
                                                <use xlink:href="#path-1"></use>
                                            </mask>
                                            <use id="Rectangle-4" fill="#765DFF" transform="translate(6.858192, 12.534784) scale(1, -1) rotate(-15.000000) translate(-6.858192, -12.534784) " xlink:href="#path-1"></use>
                                            <ellipse id="Oval-6" fill="#FAD214" mask="url(#mask-2)" cx="8.08623196" cy="12.066365" rx="1.51238752" ry="1.4479638"></ellipse>
                                            <ellipse id="Oval-6-Copy-5" fill="#FFFFFF" opacity="0.355701959" mask="url(#mask-2)" cx="30.6111833" cy="12.1870287" rx="1" ry="1"></ellipse>
                                            <ellipse id="Oval-6-Copy" fill="#F478A2" mask="url(#mask-2)" cx="5.15266002" cy="12.1870287" rx="1" ry="1"></ellipse>
                                            <mask id="mask-4" fill="white">
                                                <use xlink:href="#path-3"></use>
                                            </mask>
                                            <use id="Rectangle-4" fill="#765DFF" transform="translate(31.930427, 12.534784) scale(-1, -1) rotate(-15.000000) translate(-31.930427, -12.534784) " xlink:href="#path-3"></use>
                                            <ellipse id="Oval-6" fill="#FAD214" mask="url(#mask-4)" transform="translate(31.024109, 12.066365) scale(-1, 1) translate(-31.024109, -12.066365) " cx="31.0241094" cy="12.066365" rx="1.51238752" ry="1.4479638"></ellipse>
                                            <ellipse id="Oval-6-Copy" fill="#F478A2" mask="url(#mask-4)" transform="translate(33.635958, 12.187029) scale(-1, 1) translate(-33.635958, -12.187029) " cx="33.6359584" cy="12.1870287" rx="1" ry="1"></ellipse>
                                        </g>
                                    </g>
                                </g>
                                <path d="M5.5726439,16.3516484 L9.60567729,16.3516484" id="Line-Copy-8" stroke="#765DFF" stroke-linecap="round" stroke-linejoin="round"></path>
                                <path d="M30.0229089,16.3516484 L34.0559423,16.3516484" id="Line-Copy-9" stroke="#765DFF" stroke-linecap="round" stroke-linejoin="round"></path>
                            </g>
                        </g>
                    </g>
                </g>
            </g>
            <g id="Group-4" transform="translate(877.000000, 335.000000)">
                <ellipse id="Oval-16-Copy-2" fill="#E4DFFF" opacity="0.5" cx="61" cy="98.8235294" rx="61" ry="6.17647059"></ellipse>
                <path d="M60.2179487,100.367647 C86.1328485,100.367647 107.141026,98.6393345 107.141026,96.5073529 C107.141026,94.3753714 86.1328485,94.1911765 60.2179487,94.1911765 C34.3030489,94.1911765 13.2948718,94.3753714 13.2948718,96.5073529 C13.2948718,98.6393345 34.3030489,100.367647 60.2179487,100.367647 Z" id="Oval-15-Copy-2" fill="#C5BBFF"></path>
                <path d="M101.666667,80.2941176 L91.5,90.3308824" id="Line" stroke="#E4DFFF" stroke-width="2" stroke-linecap="square" stroke-linejoin="round"></path>
                <path d="M21.8974359,23.1617647 L21.8974359,4.00802921 C21.8974359,1.7944558 23.6810226,0 25.9002211,0 L102.356189,0 C104.566866,0 106.358974,1.79133774 106.358974,3.99800882 L106.358974,75.52405 C106.358974,77.7320893 105.079004,80.7856751 103.508356,82.3362539 L93.5685668,92.1490402 C91.9942139,93.7032772 88.93011,94.9632353 86.7203999,94.9632353 L25.8949847,94.9632353 C23.6871995,94.9632353 21.8974359,93.1818435 21.8974359,90.9613331 L21.8974359,74.8897059 L21.8974359,23.1617647 Z" id="Rectangle-22" stroke="#765DFF" stroke-width="2" fill="#FFFFFF" stroke-linecap="round"></path>
                <path d="M90.1538462,92.5708048 L103.922637,78.9779412 L90.1538462,78.9779412 L90.1538462,92.5708048 Z" id="Rectangle-27" stroke="#765DFF" stroke-width="2"></path>
                <path d="M32.0592753,36.05 L95.4102564,36.05" id="Line-Copy-12" stroke="#765DFF" stroke-linecap="round"></path>
                <path d="M31.98691,48.65 L95.4102564,48.65" id="Line-Copy-16" stroke="#765DFF" stroke-linecap="round"></path>
                <path d="M31.9435304,42.35 L95.4102564,42.35" id="Line-Copy-15" stroke="#765DFF" stroke-linecap="round"></path>
                <path d="M32.0447956,54.95 L95.4102564,54.95" id="Line-Copy-17" stroke="#765DFF" stroke-linecap="round"></path>
                <path d="M32.4514852,61.25 L95.4102564,61.25" id="Line-Copy-19" stroke="#765DFF" stroke-linecap="round"></path>
                <path d="M32.7679594,66.8496585 L95.4102564,66.8496585" id="Line-Copy-18" stroke="#765DFF" stroke-linecap="round"></path>
                <path d="M32.8412567,73.1496585 L95.4102564,73.1496585" id="Line-Copy-18" stroke="#765DFF" stroke-linecap="round"></path>
                <path d="M32.8412567,82.5996585 L49.7283643,82.5996585" id="Line-Copy-18" stroke="#765DFF" stroke-linecap="round"></path>
            </g>
            <g id="Group-3" transform="translate(922.703226, 343.818182)">
                <g id="Group-27">
                    <g id="Group-12-Copy">
                        <g id="Group-26" transform="translate(0.000000, 0.239156)">
                            <g id="Group-19-Copy">
                                <g id="Group-42-Copy-2" transform="translate(0.249282, 0.000000)">
                                    <g id="Group-21-Copy-2">
                                        <g id="Group-36" transform="translate(32.998318, 16.740939)"></g>
                                        <path d="M27.3040159,8.07150556 C26.7780474,6.88369556 25.5764139,6.05355067 24.1781852,6.05355067 C22.7127869,6.05355067 21.1562744,6.75327446 20.9026273,8.80524656" id="Oval-2-Copy" stroke="#765DFF" stroke-linecap="round" stroke-linejoin="round"></path>
                                        <path d="M31.5110399,7.53342246 C31.5110399,6.67488712 32.2159278,5.97890671 33.0857419,5.97890671 L35.3909126,5.97890671" id="Rectangle-33" stroke="#765DFF" stroke-width="1.5" stroke-linecap="round" stroke-linejoin="round"></path>
                                        <path d="M1.68212775,7.53342246 C1.68212775,6.67488712 2.38701559,5.97890671 3.25682973,5.97890671 L5.56200049,5.97890671" id="Rectangle-33-Copy" stroke="#765DFF" stroke-width="1.5" stroke-linecap="round" stroke-linejoin="round" transform="translate(3.622064, 6.756165) scale(-1, 1) translate(-3.622064, -6.756165) "></path>
                                        <path d="M0.681804525,5.89434102 C0.985591552,5.54479828 1.61075342,5.26143791 2.06637966,5.26143791 L2.82226,5.26143791 C3.2831527,5.26143791 3.65678006,5.6329736 3.65678006,6.09848485 L3.65678006,6.09848485 C3.65678006,6.56077311 3.28476155,6.93553179 2.81490546,6.93553179 L0.618781918,6.93553179 C0.153827415,6.93553179 0.0171630946,6.65908923 0.326962389,6.30262867 L0.681804525,5.89434102 Z" id="Rectangle-34-Copy-2" fill="#F478A2" transform="translate(1.908603, 6.098485) scale(1, -1) translate(-1.908603, -6.098485) "></path>
                                        <path d="M34.0046805,5.89434102 C34.3084675,5.54479828 34.9336294,5.26143791 35.3892556,5.26143791 L36.145136,5.26143791 C36.6060287,5.26143791 36.979656,5.6329736 36.979656,6.09848485 L36.979656,6.09848485 C36.979656,6.56077311 36.6076375,6.93553179 36.1377814,6.93553179 L33.9416579,6.93553179 C33.4767034,6.93553179 33.3400391,6.65908923 33.6498384,6.30262867 L34.0046805,5.89434102 Z" id="Rectangle-34-Copy-3" fill="#F478A2" transform="translate(35.231479, 6.098485) scale(-1, -1) translate(-35.231479, -6.098485) "></path>
                                        <path d="M30.0549066,18.6541889 C30.0549066,18.6541889 33.1501551,19.227485 34.1772714,18.9531343 C35.2043878,18.6787836 35.8747158,17.0996732 35.8747158,17.0996732 L35.8747158,18.9531343 C35.8747158,19.9767726 35.040879,20.8065954 34.0172906,20.8065954 L31.9123318,20.8065954 C30.8865042,20.8065954 30.0549066,19.9805746 30.0549066,18.9534718 L30.0549066,18.6541889 Z" id="Rectangle-83-Copy-5" fill="#5944CE"></path>
                                        <path d="M1.44084515,17.0996732 C1.44084515,17.0996732 2.02161753,18.6872484 3.01704345,18.9531343 C4.01246938,19.2190202 7.26065427,18.6541889 7.26065427,18.6541889 L7.26065427,18.9534718 C7.26065427,19.9769237 6.42681752,20.8065954 5.40322914,20.8065954 L3.29827028,20.8065954 C2.27244271,20.8065954 1.44084515,19.9839092 1.44084515,18.9531343 L1.44084515,17.0996732 Z" id="Rectangle-83-Copy-6" fill="#5944CE"></path>
                                        <path d="M5.35065408,8.011735 L8.07694181,4.14660761 C8.71404922,3.24336424 9.95592008,2.002974 10.9387639,1.48251826 C10.9387639,1.48251826 12.0191854,2.77962896e-16 18.6877166,0 C25.3562479,0 26.4522279,1.48976372 26.4522279,1.48976372 C27.3870685,2.05385472 28.6354598,3.25297543 29.2461116,4.17642771 L31.7822872,8.011735" id="Rectangle-82" stroke="#765DFF"></path>
                                        <path d="M8.50662099,6.45721925 C8.57881851,6.33515465 8.62378142,6.2846062 8.79554863,5.97890671 M9.19944604,5.27084537 C9.55507157,4.65909805 10.7432636,3.33932778 11.1740335,2.98945336 C11.7629381,2.51114082 12.7502318,2.15240642 14.3264301,1.79367201" id="Rectangle-82" stroke="#765DFF" opacity="0.1" stroke-linecap="round"></path>
                                        <path d="M1.71684369,14.1102198 L2.054296,14.6094352 C2.67147419,15.5224674 4.05793344,16.2864318 5.16965644,16.3162976 L10.0762827,16.4481112 C11.1796705,16.4777531 12.8457076,16.0565177 13.8040576,15.5034602 L13.2794781,15.8061916 C13.7581657,15.5299441 14.5940759,15.3060012 15.1472183,15.3060012 L22.1763902,15.3060012 C22.729227,15.3060012 23.5514291,15.5365599 24.0339211,15.8339691 L23.4152641,15.4526275 C24.355287,16.0320598 26.0124957,16.4788512 27.1201203,16.4504775 L32.4504758,16.3139313 C33.5565885,16.2855963 34.953982,15.5218901 35.5707699,14.6094352 L35.3498608,14.9362406 C35.6582353,14.4800419 35.7969546,14.5491681 35.6634583,15.0758074 L34.9382541,17.9367201 L26.2085404,18.1758764 C26.2085404,18.1758764 25.097188,16.7351737 22.3286676,16.7409388 C19.6603361,16.7466473 20.2235201,16.5322161 19.176271,16.5017825 C16.4420303,16.4310983 15.5892352,16.4735524 15.5892352,16.4735524 C14.4900332,16.4891435 12.8130693,16.9245501 11.8346057,17.4509157 L10.9315415,17.9367201 L3.41428801,17.9367201 L2.20182778,16.5017825 L1.71684369,14.1102198 Z" id="Path-13-Copy-5" fill="#DAFFFA"></path>
                                        <path d="M1.71684369,15.5451575 L2.16128309,16.1295916 C2.71937394,16.8634764 3.91878079,17.4584076 4.8549445,17.4584076 L9.90601051,17.4584076 C10.8355878,17.4584076 12.2081519,17.0531562 12.987395,16.5429897 L12.7479828,16.6997316 C13.5202072,16.1941603 14.9006777,15.7843137 15.8237474,15.7843137 L21.4998611,15.7843137 C22.4263346,15.7843137 23.7892996,16.2067583 24.5598527,16.7387255 L24.2198473,16.5039958 C24.9833605,17.0311029 26.3569381,17.4584076 27.2671081,17.4584076 L32.7884722,17.4584076 C33.7079146,17.4584076 34.9056505,16.863531 35.4637828,16.1295916 L35.2996217,16.3454621 C35.6357425,15.903466 35.7447045,15.9644553 35.5444442,16.4779694 L34.695762,18.6541889 L26.2085404,18.8933452 C26.2085404,18.8933452 25.097188,17.2134862 22.3286676,17.2192513 C19.6603361,17.2249599 20.2235201,17.2496849 19.176271,17.2192513 C16.4420303,17.1485671 15.2405132,17.4469812 15.2405132,17.4469812 C14.3339051,17.5853742 12.9305837,18.0333478 12.098431,18.4514146 L11.3304033,18.8372657 L10.9315415,18.8933452 L3.41428801,18.6541889 L2.20182778,18.1758764 L1.71684369,15.5451575 Z" id="Path-13-Copy-4" fill="#B4F8EE"></path>
                                        <path d="M12.5845798,16.7329983 C13.3010791,15.894149 14.7658794,15.0627861 15.8664041,14.9139206 C15.8664041,14.9139206 16.2769214,14.7358146 18.6694471,14.7358146 C21.0383989,14.7358146 21.4483463,14.9139206 21.4483463,14.9139206 C22.5367843,15.0797201 24.0041614,15.8990501 24.7164744,16.7329983 L25.9632831,18.1927131 C26.3197637,18.6100667 26.1784875,18.8274194 25.6474475,18.682611 C25.6474475,18.682611 21.0346503,17.3388295 18.6506764,17.3388295 C16.2667026,17.3388295 11.640266,18.6862113 11.640266,18.6862113 C11.116722,18.8310134 10.9866595,18.6037808 11.3377711,18.1927131 L12.5845798,16.7329983 Z" id="Rectangle-3" fill="#765DFF"></path>
                                        <path d="M1.72672398,13.707029 C1.84146978,10.6276462 4.42495418,8.08094784 7.51134227,8.01995409 C7.51134227,8.01995409 7.80950064,8.011735 7.98785933,8.011735 C8.16621802,8.011735 14.1714968,9.20751634 18.6575094,9.20751634 C23.5172217,9.20751633 27.1731899,8.011735 29.3271594,8.011735 C29.3529204,8.011735 29.8126682,8.02111809 29.8126682,8.02111809 C32.8975783,8.08197714 35.4803677,10.6258606 35.5812878,13.7025455 C35.5812878,13.7025455 35.612077,14.6297958 35.6116849,14.6384479 C35.6112927,14.6471 35.4298946,16.8936014 35.4298946,16.8936014 C35.3407509,17.9980294 34.3702298,18.9647335 33.2768287,19.0336381 C33.2768287,19.0336381 31.4575556,19.2531421 27.1375862,19.1274002 C24.6869582,19.0560694 21.6635958,17.2192513 18.6575094,17.2192513 C15.58012,17.2192513 12.779479,19.0587526 10.2918048,19.1325015 C6.0657767,19.2577851 4.03552357,19.0310856 4.03552357,19.0310856 C2.9373339,18.9550137 1.97793118,17.9933927 1.89392084,16.8954792 C1.89392084,16.8954792 1.77422285,15.350851 1.72441792,14.6384479 C1.67461299,13.9260448 1.72672398,13.707029 1.72672398,13.707029 Z" id="Rectangle-78" stroke="#765DFF"></path>
                                        <path d="M16.8706462,1.85507039 C17.0537503,1.58529965 17.4561742,1.31627778 17.7907168,1.26329626 C17.7907168,1.26329626 17.946982,1.19578134 18.6914548,1.19578134 C19.4359277,1.19578134 19.5920556,1.26329626 19.5920556,1.26329626 C19.9169763,1.32035335 20.3279121,1.58397394 20.511916,1.85507039 L20.5445153,1.90309954 C20.7276194,2.17287029 20.6027819,2.39156269 20.2701078,2.39156269 C20.2701078,2.39156269 20.0828107,2.39156269 18.6914548,2.39156269 C17.3000989,2.39156269 17.1126363,2.39156269 17.1126363,2.39156269 C16.7778806,2.39156269 16.654043,2.174196 16.8380469,1.90309954 L16.8706462,1.85507039 Z" id="Rectangle-13" fill="#765DFF" transform="translate(18.690892, 1.793672) scale(1, -1) translate(-18.690892, -1.793672) "></path>
                                        <mask id="mask-6" fill="white">
                                            <use xlink:href="#path-5"></use>
                                        </mask>
                                        <use id="Rectangle-4" fill="#765DFF" transform="translate(6.597741, 12.422018) scale(1, -1) rotate(-15.000000) translate(-6.597741, -12.422018) " xlink:href="#path-5"></use>
                                        <ellipse id="Oval-6" fill="#FAD214" mask="url(#mask-6)" cx="7.77914485" cy="11.9578134" rx="1.45495228" ry="1.43493761"></ellipse>
                                        <ellipse id="Oval-6-Copy-5" fill="#FFFFFF" opacity="0.355701959" mask="url(#mask-6)" cx="29.4486765" cy="12.0773916" rx="1" ry="1"></ellipse>
                                        <ellipse id="Oval-6-Copy" fill="#F478A2" mask="url(#mask-6)" cx="4.95697983" cy="12.0773916" rx="1" ry="1"></ellipse>
                                        <mask id="mask-8" fill="white">
                                            <use xlink:href="#path-7"></use>
                                        </mask>
                                        <use id="Rectangle-4" fill="#765DFF" transform="translate(30.717819, 12.422018) scale(-1, -1) rotate(-15.000000) translate(-30.717819, -12.422018) " xlink:href="#path-7"></use>
                                        <ellipse id="Oval-6" fill="#FAD214" mask="url(#mask-8)" transform="translate(29.845921, 11.957813) scale(-1, 1) translate(-29.845921, -11.957813) " cx="29.8459211" cy="11.9578134" rx="1.45495228" ry="1.43493761"></ellipse>
                                        <ellipse id="Oval-6-Copy" fill="#F478A2" mask="url(#mask-8)" transform="translate(32.358581, 12.077392) scale(-1, 1) translate(-32.358581, -12.077392) " cx="32.3585811" cy="12.0773916" rx="1" ry="1"></ellipse>
                                    </g>
                                </g>
                            </g>
                            <path d="M5.36101416,16.2045455 L9.24088691,16.2045455" id="Line-Copy-8" stroke="#765DFF" stroke-linecap="round" stroke-linejoin="round"></path>
                            <path d="M28.8827427,16.2045455 L32.7626154,16.2045455" id="Line-Copy-9" stroke="#765DFF" stroke-linecap="round" stroke-linejoin="round"></path>
                        </g>
                    </g>
                </g>
            </g>
        </g>
    </g>
</svg>
