<?xml version="1.0" encoding="UTF-8"?>
<svg width="113px" height="118px" viewBox="0 0 113 118" version="1.1" xmlns="http://www.w3.org/2000/svg" xmlns:xlink="http://www.w3.org/1999/xlink">
    <!-- Generator: Sketch 46.2 (44496) - http://www.bohemiancoding.com/sketch -->
    <title>Icon1</title>
    <desc>Created with Sketch.</desc>
    <defs>
        <path d="M3.16194581,8.42463955 C4.14071208,7.84071653 6.40389805,8.62461465 6.84291539,9.03235094 C7.28193273,9.44008722 7.37288597,10.1528068 6.66765787,10.5036883 C5.96242977,10.8545699 3.96987399,11.0137434 3.14797978,10.605575 C2.32608558,10.1974065 2.18317954,9.00856257 3.16194581,8.42463955 Z" id="path-1"></path>
        <path d="M20.8264747,8.42463955 C21.805241,7.84071653 24.068427,8.62461465 24.5074443,9.03235094 C24.9464617,9.44008722 25.0374149,10.1528068 24.3321868,10.5036883 C23.6269587,10.8545699 21.6344029,11.0137434 20.8125087,10.605575 C19.9906145,10.1974065 19.8477085,9.00856257 20.8264747,8.42463955 Z" id="path-3"></path>
        <polygon id="path-5" points="33.670996 14.4178751 33.670996 28.8357305 0 28.8357305 0 14.4178751 0 1.96033855e-05 33.670996 1.96033855e-05"></polygon>
        <path d="M3.16194581,8.42463955 C4.14071208,7.84071653 6.40389805,8.62461465 6.84291539,9.03235094 C7.28193273,9.44008722 7.37288597,10.1528068 6.66765787,10.5036883 C5.96242977,10.8545699 3.96987399,11.0137434 3.14797978,10.605575 C2.32608558,10.1974065 2.18317954,9.00856257 3.16194581,8.42463955 Z" id="path-7"></path>
        <path d="M20.8264747,8.42463955 C21.805241,7.84071653 24.068427,8.62461465 24.5074443,9.03235094 C24.9464617,9.44008722 25.0374149,10.1528068 24.3321868,10.5036883 C23.6269587,10.8545699 21.6344029,11.0137434 20.8125087,10.605575 C19.9906145,10.1974065 19.8477085,9.00856257 20.8264747,8.42463955 Z" id="path-9"></path>
        <path d="M3.16194581,8.42463955 C4.14071208,7.84071653 6.40389805,8.62461465 6.84291539,9.03235094 C7.28193273,9.44008722 7.37288597,10.1528068 6.66765787,10.5036883 C5.96242977,10.8545699 3.96987399,11.0137434 3.14797978,10.605575 C2.32608558,10.1974065 2.18317954,9.00856257 3.16194581,8.42463955 Z" id="path-11"></path>
        <path d="M20.8264747,8.42463955 C21.805241,7.84071653 24.068427,8.62461465 24.5074443,9.03235094 C24.9464617,9.44008722 25.0374149,10.1528068 24.3321868,10.5036883 C23.6269587,10.8545699 21.6344029,11.0137434 20.8125087,10.605575 C19.9906145,10.1974065 19.8477085,9.00856257 20.8264747,8.42463955 Z" id="path-13"></path>
        <polygon id="path-15" points="33.670996 14.4178751 33.670996 28.8357305 0 28.8357305 0 14.4178751 0 1.96033855e-05 33.670996 1.96033855e-05"></polygon>
    </defs>
    <g id="Illustration" stroke="none" stroke-width="1" fill="none" fill-rule="evenodd">
        <g id="icon1" transform="translate(-26.000000, -25.000000)">
            <g id="Icon1" transform="translate(27.000000, 26.000000)">
                <g id="Group-8" stroke-width="1" fill-rule="evenodd">
                    <path d="M42.4208796,72.551713 L4.48252946,72.551713 C2.27788172,72.551713 0.490661602,70.762449 0.490661602,68.5423561 L0.490661602,57.2155785 L0.490661602,17.6955398 L0.490661602,3.99328872 C0.490661602,1.78785626 2.28148197,0 4.48911642,0 L57.4323777,0 C59.6406633,0 61.4308325,1.79075374 61.4308325,4.00496 L61.4308325,32.1554577" id="Rectangle-22" stroke="#765DFF" stroke-width="2" stroke-linecap="round"></path>
                    <path d="M7.82256959,27.5421245 L53.5311808,27.5421245" id="Line-Copy-12" stroke="#765DFF" stroke-linecap="round"></path>
                    <path d="M7.77035702,37.1684982 L42.5015821,37.1684982" id="Line-Copy-16" stroke="#765DFF" stroke-linecap="round"></path>
                    <path d="M7.73905805,32.3553114 L53.5311808,32.3553114" id="Line-Copy-15" stroke="#765DFF" stroke-linecap="round"></path>
                    <path d="M7.8121223,41.981685 L42.5038722,41.981685" id="Line-Copy-17" stroke="#765DFF" stroke-linecap="round"></path>
                    <path d="M8.1055545,46.7948718 L42.501264,46.7948718" id="Line-Copy-19" stroke="#765DFF" stroke-linecap="round"></path>
                    <path d="M8.33389503,51.0729992 L42.5026682,51.0729992" id="Line-Copy-18" stroke="#765DFF" stroke-linecap="round"></path>
                    <path d="M8.38678001,55.886186 L42.5055219,55.886186" id="Line-Copy-18" stroke="#765DFF" stroke-linecap="round"></path>
                    <path d="M8.38678001,63.1059662 L20.5710623,63.1059662" id="Line-Copy-18" stroke="#765DFF" stroke-linecap="round"></path>
                    <g id="Group-3" transform="translate(16.289965, 7.668067)">
                        <g id="Group-27">
                            <g id="Group-12-Copy">
                                <g id="Group-26" transform="translate(0.000000, 0.183509)">
                                    <g id="Group-19-Copy">
                                        <g id="Group-42-Copy-2" transform="translate(0.182564, 0.000000)">
                                            <g id="Group-21-Copy-2">
                                                <g id="Group-36" transform="translate(24.166578, 12.845651)"></g>
                                                <path d="M19.996311,6.19342472 C19.6111138,5.28199478 18.7310881,4.6450083 17.7070843,4.6450083 C16.6338883,4.6450083 15.4939641,5.1819201 15.3082036,6.7564386" id="Oval-2-Copy" stroke="#765DFF" stroke-linecap="round" stroke-linejoin="round"></path>
                                                <path d="M23.0773581,5.78054299 C23.0773581,5.12177196 23.5935883,4.58773253 24.2306035,4.58773253 L25.9188135,4.58773253" id="Rectangle-33" stroke="#765DFF" stroke-width="1.5" stroke-linecap="round" stroke-linejoin="round"></path>
                                                <path d="M1.2319195,5.78054299 C1.2319195,5.12177196 1.74814966,4.58773253 2.38516489,4.58773253 L4.07337484,4.58773253" id="Rectangle-33-Copy" stroke="#765DFF" stroke-width="1.5" stroke-linecap="round" stroke-linejoin="round" transform="translate(2.652647, 5.184138) scale(-1, 1) translate(-2.652647, -5.184138) "></path>
                                                <path d="M0.493241655,4.53017726 C0.719082166,4.25791599 1.19541742,4.03720463 1.54330619,4.03720463 L2.03692755,4.03720463 C2.39102167,4.03720463 2.67807167,4.32229126 2.67807167,4.67948718 L2.67807167,4.67948718 C2.67807167,5.03421004 2.39523389,5.32176973 2.03330146,5.32176973 L0.481386518,5.32176973 C0.125289769,5.32176973 0.0222202233,5.09801557 0.245536736,4.8287971 L0.493241655,4.53017726 Z" id="Rectangle-34-Copy-2" fill="#F478A2" transform="translate(1.402946, 4.679487) scale(1, -1) translate(-1.402946, -4.679487) "></path>
                                                <path d="M24.8871819,4.53017726 C25.1130225,4.25791599 25.5893577,4.03720463 25.9372465,4.03720463 L26.4308678,4.03720463 C26.784962,4.03720463 27.072012,4.32229126 27.072012,4.67948718 L27.072012,4.67948718 C27.072012,5.03421004 26.7891742,5.32176973 26.4272418,5.32176973 L24.8753268,5.32176973 C24.5192301,5.32176973 24.4161605,5.09801557 24.639477,4.8287971 L24.8871819,4.53017726 Z" id="Rectangle-34-Copy-3" fill="#F478A2" transform="translate(25.796886, 4.679487) scale(-1, -1) translate(-25.796886, -4.679487) "></path>
                                                <path d="M22.0109475,14.3137255 C22.0109475,14.3137255 24.277777,14.7536268 25.0299938,14.5431121 C25.7822105,14.3325975 26.2731305,13.120915 26.2731305,13.120915 L26.2731305,14.5431121 C26.2731305,15.3285699 25.6442307,15.9653092 24.8538853,15.9653092 L23.4301927,15.9653092 C22.6463652,15.9653092 22.0109475,15.3314872 22.0109475,14.5433711 L22.0109475,14.3137255 Z" id="Rectangle-83-Copy-5" fill="#5944CE"></path>
                                                <path d="M1.05521429,13.120915 C1.05521429,13.120915 1.48054751,14.3390926 2.20955552,14.5431121 C2.93856354,14.7471316 5.31739731,14.3137255 5.31739731,14.3137255 L5.31739731,14.5433711 C5.31739731,15.3286858 4.68849753,15.9653092 3.89815208,15.9653092 L2.47445952,15.9653092 C1.69063202,15.9653092 1.05521429,15.3340459 1.05521429,14.5431121 L1.05521429,13.120915 Z" id="Rectangle-83-Copy-6" fill="#5944CE"></path>
                                                <path d="M3.91859364,6.14756159 L5.64518593,3.58287158 C6.2609078,2.66827482 7.49903329,1.41048785 8.48499783,0.923918249 C8.48499783,0.923918249 8.80234502,2.13286388e-16 13.6860964,0 C18.5698478,0 18.9006962,0.929559664 18.9006962,0.929559664 C19.8459026,1.48034662 21.0883894,2.68142673 21.6802903,3.61925392 L23.2760082,6.14756159" id="Rectangle-82" stroke="#765DFF"></path>
                                                <path d="M6.22989085,4.95475113 C6.28276527,4.86108856 6.31569421,4.82230174 6.44148928,4.58773253 M6.73728672,4.04442316 C6.99773189,3.57501742 7.86791367,2.56233178 8.1833914,2.29386626 C8.6146803,1.92684766 9.33773264,1.65158371 10.4920739,1.37631976" id="Rectangle-82" stroke="#765DFF" opacity="0.1" stroke-linecap="round"></path>
                                                <path d="M1.25734399,10.8270488 L1.47297307,11.1612714 C1.94236909,11.8888298 3.02061228,12.4982712 3.88452131,12.5225875 L7.28096222,12.6181867 C8.14342752,12.6424624 9.44235031,12.2995031 10.1740193,11.8571045 L9.51260905,12.2570216 C9.98066242,11.9740164 10.814705,11.7445953 11.3646264,11.7445953 L15.9696122,11.7445953 C16.5243997,11.7445953 17.3474234,11.9856698 17.8170072,12.2889405 L17.085626,11.8165936 C17.8087024,12.283577 19.1008253,12.6431942 19.9463499,12.6205007 L23.6806452,12.5202736 C24.537503,12.4972758 25.6107953,11.8916955 26.0820402,11.1612714 L25.7524105,11.6721935 C26.0535486,11.205433 26.1928526,11.2602876 26.0611284,11.8047438 L25.5873054,13.7631976 L19.1940309,13.9467069 C19.1940309,13.9467069 18.3801232,12.8412274 16.3525755,12.8456511 C14.3984019,12.8500314 14.8108541,12.685494 14.0438931,12.6621418 C12.0414503,12.6079043 11.5122433,12.6398481 11.5122433,12.6398481 C10.6545769,12.6521606 9.35190952,13.0044872 8.60252971,13.4268618 L8.00580044,13.7631976 L2.50048071,13.7631976 L1.61252591,12.6621418 L1.25734399,10.8270488 Z" id="Path-13-Copy-5" fill="#DAFFFA"></path>
                                                <path d="M1.25734399,11.9281046 L1.57127969,12.360635 C1.98638246,12.9325502 2.89178363,13.396179 3.60018271,13.396179 L7.21011889,13.396179 C7.91554832,13.396179 8.9599688,13.072029 9.54415638,12.671306 L9.30335013,12.8364868 C9.88697402,12.4361506 10.9354779,12.1116139 11.6353499,12.1116139 L15.6988887,12.1116139 C16.4031927,12.1116139 17.4407432,12.4491182 18.0071978,12.8588507 L17.7169995,12.6489421 C18.2875395,13.0616297 19.3252939,13.396179 20.0307019,13.396179 L23.951475,13.396179 C24.6587576,13.396179 25.5692688,12.9316711 25.9837335,12.360635 L25.7150139,12.7308682 C26.0368056,12.2875141 26.1429993,12.343648 25.946726,12.8709651 L25.4097144,14.3137255 L19.1940309,14.4972348 C19.1940309,14.4972348 18.3801232,13.208246 16.3525755,13.2126697 C14.3984019,13.21705 14.8108541,13.2360219 14.0438931,13.2126697 C12.0414503,13.1584322 11.2147321,13.3804633 11.2147321,13.3804633 C10.5213767,13.4904922 9.45180146,13.8468236 8.82358451,14.1775017 L8.29791002,14.4542039 L8.00580044,14.4972348 L2.50048071,14.3137255 L1.61252591,13.9467069 L1.25734399,11.9281046 Z" id="Path-13-Copy-4" fill="#B4F8EE"></path>
                                                <path d="M9.1758835,12.8892776 C9.72300296,12.2181527 10.8647939,11.5498428 11.7231984,11.4313357 C11.7231984,11.4313357 11.9205315,11.3070799 13.6727165,11.3070799 C15.407637,11.3070799 15.6053397,11.4313357 15.6053397,11.4313357 C16.4590891,11.5654099 17.6015819,12.2265726 18.1418372,12.8892776 L18.8611382,13.7716092 C19.2068619,14.1956916 19.0518268,14.4119577 18.5317619,14.2653799 C18.5317619,14.2653799 15.4048917,13.3044243 13.6589697,13.3044243 C11.9130477,13.3044243 8.78600733,14.2653799 8.78600733,14.2653799 C8.2583473,14.4167603 8.117026,14.1881266 8.45658246,13.7716092 L9.1758835,12.8892776 Z" id="Rectangle-3" fill="#765DFF"></path>
                                                <path d="M1.26479701,10.5073317 C1.3487121,8.15017186 3.32924297,6.19880425 5.6899493,6.15020867 C5.6899493,6.15020867 5.71934927,6.14756159 5.84997166,6.14756159 C5.98059405,6.14756159 10.3786072,7.0651081 13.6639739,7.06510809 C17.2230225,7.06510809 19.9004996,6.14756159 21.4779761,6.14756159 C21.4968423,6.14756159 21.6520167,6.15104644 21.6520167,6.15104644 C24.0115287,6.19979651 25.9843266,8.1534315 26.0582363,10.5142323 C26.0582363,10.5142323 26.0807849,11.2257296 26.0804977,11.2323685 C26.0802106,11.2390075 25.9824807,12.5067959 25.9824807,12.5067959 C25.8978002,13.606085 24.9380012,14.5687556 23.8286626,14.6337326 C23.8286626,14.6337326 23.0381885,14.773314 19.8744249,14.6768298 C18.0796882,14.6220963 15.8655049,13.2126697 13.6639739,13.2126697 C11.4102235,13.2126697 9.35915202,14.6241551 7.5372843,14.6807441 C4.44231932,14.7768767 3.49093713,14.6317637 3.49093713,14.6317637 C2.3909265,14.5574654 1.43404212,13.6083445 1.35368711,12.5056157 C1.35368711,12.5056157 1.29936607,11.7790094 1.26289104,11.2323685 C1.226416,10.6857277 1.26479701,10.5073317 1.26479701,10.5073317 Z" id="Rectangle-78" stroke="#765DFF"></path>
                                                <path d="M12.3434134,1.3594053 C12.4841038,1.14222804 12.799494,0.924697163 13.0396361,0.885396342 C13.0396361,0.885396342 13.1436136,0.835093012 13.6888341,0.835093012 C14.2340546,0.835093012 14.3379344,0.885396342 14.3379344,0.885396342 C14.5816705,0.930007 14.8873064,1.13296081 15.0340003,1.3594053 L15.0340003,1.3594053 C15.1746908,1.57658256 15.0886095,1.75263952 14.8317295,1.75263952 C14.8317295,1.75263952 14.7078045,1.75263952 13.6888341,1.75263952 C12.6698637,1.75263952 12.5458204,1.75263952 12.5458204,1.75263952 C12.2933436,1.75263952 12.1967195,1.58584979 12.3434134,1.3594053 L12.3434134,1.3594053 Z" id="Rectangle-13" fill="#765DFF" transform="translate(13.687854, 1.335093) scale(1, -1) translate(-13.687854, -1.335093) "></path>
                                                <mask id="mask-2" fill="white">
                                                    <use xlink:href="#path-1"></use>
                                                </mask>
                                                <use id="Rectangle-4" fill="#765DFF" transform="translate(4.831908, 9.531658) scale(1, -1) rotate(-15.000000) translate(-4.831908, -9.531658) " xlink:href="#path-1"></use>
                                                <ellipse id="Oval-6" fill="#FAD214" mask="url(#mask-2)" cx="5.69711797" cy="9.17546506" rx="1.06554576" ry="1.10105581"></ellipse>
                                                <ellipse id="Oval-6-Copy-5" fill="#FFFFFF" opacity="0.355701959" mask="url(#mask-2)" cx="21.5669701" cy="9.26721971" rx="1" ry="1"></ellipse>
                                                <ellipse id="Oval-6-Copy" fill="#F478A2" mask="url(#mask-2)" cx="3.6302832" cy="9.26721971" rx="1" ry="1"></ellipse>
                                                <mask id="mask-4" fill="white">
                                                    <use xlink:href="#path-3"></use>
                                                </mask>
                                                <use id="Rectangle-4" fill="#765DFF" transform="translate(22.496437, 9.531658) scale(-1, -1) rotate(-15.000000) translate(-22.496437, -9.531658) " xlink:href="#path-3"></use>
                                                <ellipse id="Oval-6" fill="#FAD214" mask="url(#mask-4)" transform="translate(21.857895, 9.175465) scale(-1, 1) translate(-21.857895, -9.175465) " cx="21.8578953" cy="9.17546506" rx="1.06554576" ry="1.10105581"></ellipse>
                                                <ellipse id="Oval-6-Copy" fill="#F478A2" mask="url(#mask-4)" transform="translate(23.642039, 9.308446) scale(-1, 1) translate(-23.642039, -9.308446) " cx="23.5860164" cy="9.26721971" rx="1" ry="1"></ellipse>
                                            </g>
                                        </g>
                                    </g>
                                    <path d="M3.92618093,12.4340659 L6.76763627,12.4340659" id="Line-Copy-8" stroke="#765DFF" stroke-linecap="round" stroke-linejoin="round"></path>
                                    <path d="M21.152504,12.4340659 L23.9939593,12.4340659" id="Line-Copy-9" stroke="#765DFF" stroke-linecap="round" stroke-linejoin="round"></path>
                                </g>
                            </g>
                        </g>
                    </g>
                </g>
                <g id="Page-1" stroke-width="1" fill-rule="evenodd" transform="translate(3.000000, 77.000000)">
                    <mask id="mask-6" fill="white">
                        <use xlink:href="#path-5"></use>
                    </mask>
                    <g id="Clip-2"></g>
                    <path d="M0,1.96033855e-05 C0.677102685,3.36585554 2.77292489,5.75099945 5.45338608,7.70794008 C8.16501924,9.68768597 11.2423641,10.8370978 14.518118,11.4949221 C16.5519251,11.9033259 18.608881,12.1042606 20.6850398,12.0997519 C20.8025595,12.0994905 20.9201449,12.0996865 21.0727824,12.0996865 L21.0727824,3.75746584 C21.2257487,3.90272692 21.316371,3.98545321 21.4033106,4.0718388 C25.3935866,8.03610075 29.3833366,12.0008855 33.3746649,15.9641672 C33.4645638,16.053428 33.5718244,16.1254378 33.670996,16.2054849 L33.670996,16.4015188 C33.5717586,16.4816966 33.4643666,16.5537717 33.3744019,16.6430978 C29.3824159,20.6069677 25.3920083,24.5724712 21.4010746,28.537452 C21.3170286,28.6209624 21.2292999,28.7008135 21.0869873,28.8357501 L21.0869873,20.4639283 C20.7202892,20.4639283 20.3956139,20.4779121 20.0725171,20.4618373 C15.1819364,20.2181019 10.8811243,18.4947029 7.2063823,15.2909216 C3.54091296,12.0953084 1.26049215,8.08994471 0.370578247,3.32174792 C0.209391506,2.45815345 0.159674176,1.57397542 0.0564252237,0.699599086 C0.0442589459,0.596289244 0.0191372262,0.494547674 0,0.392087313 L0,1.96033855e-05 Z" id="Fill-1" fill="#FAD214" mask="url(#mask-6)"></path>
                </g>
                <path d="M54.5607275,99.5978861 L66.7450098,99.5978861" id="Line-Copy-18" stroke="#765DFF" stroke-width="1" stroke-linecap="round"></path>
                <path d="M103.335391,98.0633484 L96,105.731416" id="Line" stroke="#E4DFFF" stroke-width="2" stroke-linecap="square" stroke-linejoin="round"></path>
                <ellipse id="Oval-16-Copy-2" fill="#E4DFFF" fill-rule="evenodd" opacity="0.5" cx="75.1335837" cy="111.823529" rx="36.8047425" ry="4.82352941"></ellipse>
                <ellipse id="Oval-16-Copy-2" fill="#E4DFFF" fill-rule="evenodd" opacity="0.5" cx="75.1335837" cy="111.823529" rx="36.8047425" ry="4.82352941"></ellipse>
                <path d="M74.3078363,112.823529 C89.9437578,112.823529 102.619177,111.4738 102.619177,109.808824 C102.619177,108.143847 89.9437578,108 74.3078363,108 C58.6719147,108 45.9964959,108.143847 45.9964959,109.808824 C45.9964959,111.4738 58.6719147,112.823529 74.3078363,112.823529 Z" id="Oval-15-Copy-2" fill="#C5BBFF" fill-rule="evenodd"></path>
                <path d="M103.335391,98.0633484 L96,105.731416" id="Line" stroke="#E4DFFF" stroke-width="2" stroke-linecap="square" stroke-linejoin="round"></path>
                <path d="M96,106.548087 L105.073247,97.0633484 L96,97.0633484 L96,106.548087 Z" id="Rectangle-27" stroke="#765DFF" stroke-width="2"></path>
                <path d="M53.5607779,64.3307477 L99.269389,64.3307477" id="Line-Copy-12" stroke="#765DFF" stroke-width="1" stroke-linecap="round"></path>
                <path d="M53.5085653,73.3307477 L99.269389,73.3307477" id="Line-Copy-16" stroke="#765DFF" stroke-width="1" stroke-linecap="round"></path>
                <path d="M53.4772663,68.3307477 L99.269389,68.3307477" id="Line-Copy-15" stroke="#765DFF" stroke-width="1" stroke-linecap="round"></path>
                <path d="M53.5503306,78.3307477 L99.269389,78.3307477" id="Line-Copy-17" stroke="#765DFF" stroke-width="1" stroke-linecap="round"></path>
                <path d="M54.279502,83.3307477 L99.7051282,83.3307477" id="Line-Copy-19" stroke="#765DFF" stroke-width="1" stroke-linecap="round"></path>
                <path d="M54.5078425,87.5978861 L99.7051282,87.5978861" id="Line-Copy-18" stroke="#765DFF" stroke-width="1" stroke-linecap="round"></path>
                <path d="M54.5607275,92.5978861 L99.7051282,92.5978861" id="Line-Copy-18" stroke="#765DFF" stroke-width="1" stroke-linecap="round"></path>
                <g id="Group-3" stroke-width="1" fill-rule="evenodd" transform="translate(62.000000, 44.063348)">
                    <g id="Group-27">
                        <g id="Group-12-Copy">
                            <g id="Group-26" transform="translate(0.000000, 0.183509)">
                                <g id="Group-19-Copy">
                                    <g id="Group-42-Copy-2" transform="translate(0.182564, 0.000000)">
                                        <g id="Group-21-Copy-2">
                                            <g id="Group-36" transform="translate(24.166578, 12.845651)"></g>
                                            <path d="M19.996311,6.19342472 C19.6111138,5.28199478 18.7310881,4.6450083 17.7070843,4.6450083 C16.6338883,4.6450083 15.4939641,5.1819201 15.3082036,6.7564386" id="Oval-2-Copy" stroke="#765DFF" stroke-linecap="round" stroke-linejoin="round"></path>
                                            <path d="M23.0773581,5.78054299 C23.0773581,5.12177196 23.5935883,4.58773253 24.2306035,4.58773253 L25.9188135,4.58773253" id="Rectangle-33" stroke="#765DFF" stroke-width="1.5" stroke-linecap="round" stroke-linejoin="round"></path>
                                            <path d="M1.2319195,5.78054299 C1.2319195,5.12177196 1.74814966,4.58773253 2.38516489,4.58773253 L4.07337484,4.58773253" id="Rectangle-33-Copy" stroke="#765DFF" stroke-width="1.5" stroke-linecap="round" stroke-linejoin="round" transform="translate(2.652647, 5.184138) scale(-1, 1) translate(-2.652647, -5.184138) "></path>
                                            <path d="M0.493241655,4.53017726 C0.719082166,4.25791599 1.19541742,4.03720463 1.54330619,4.03720463 L2.03692755,4.03720463 C2.39102167,4.03720463 2.67807167,4.32229126 2.67807167,4.67948718 L2.67807167,4.67948718 C2.67807167,5.03421004 2.39523389,5.32176973 2.03330146,5.32176973 L0.481386518,5.32176973 C0.125289769,5.32176973 0.0222202233,5.09801557 0.245536736,4.8287971 L0.493241655,4.53017726 Z" id="Rectangle-34-Copy-2" fill="#F478A2" transform="translate(1.402946, 4.679487) scale(1, -1) translate(-1.402946, -4.679487) "></path>
                                            <path d="M24.8871819,4.53017726 C25.1130225,4.25791599 25.5893577,4.03720463 25.9372465,4.03720463 L26.4308678,4.03720463 C26.784962,4.03720463 27.072012,4.32229126 27.072012,4.67948718 L27.072012,4.67948718 C27.072012,5.03421004 26.7891742,5.32176973 26.4272418,5.32176973 L24.8753268,5.32176973 C24.5192301,5.32176973 24.4161605,5.09801557 24.639477,4.8287971 L24.8871819,4.53017726 Z" id="Rectangle-34-Copy-3" fill="#F478A2" transform="translate(25.796886, 4.679487) scale(-1, -1) translate(-25.796886, -4.679487) "></path>
                                            <path d="M22.0109475,14.3137255 C22.0109475,14.3137255 24.277777,14.7536268 25.0299938,14.5431121 C25.7822105,14.3325975 26.2731305,13.120915 26.2731305,13.120915 L26.2731305,14.5431121 C26.2731305,15.3285699 25.6442307,15.9653092 24.8538853,15.9653092 L23.4301927,15.9653092 C22.6463652,15.9653092 22.0109475,15.3314872 22.0109475,14.5433711 L22.0109475,14.3137255 Z" id="Rectangle-83-Copy-5" fill="#5944CE"></path>
                                            <path d="M1.05521429,13.120915 C1.05521429,13.120915 1.48054751,14.3390926 2.20955552,14.5431121 C2.93856354,14.7471316 5.31739731,14.3137255 5.31739731,14.3137255 L5.31739731,14.5433711 C5.31739731,15.3286858 4.68849753,15.9653092 3.89815208,15.9653092 L2.47445952,15.9653092 C1.69063202,15.9653092 1.05521429,15.3340459 1.05521429,14.5431121 L1.05521429,13.120915 Z" id="Rectangle-83-Copy-6" fill="#5944CE"></path>
                                            <path d="M3.91859364,6.14756159 L5.64518593,3.58287158 C6.2609078,2.66827482 7.49903329,1.41048785 8.48499783,0.923918249 C8.48499783,0.923918249 8.80234502,2.13286388e-16 13.6860964,0 C18.5698478,0 18.9006962,0.929559664 18.9006962,0.929559664 C19.8459026,1.48034662 21.0883894,2.68142673 21.6802903,3.61925392 L23.2760082,6.14756159" id="Rectangle-82" stroke="#765DFF"></path>
                                            <path d="M6.22989085,4.95475113 C6.28276527,4.86108856 6.31569421,4.82230174 6.44148928,4.58773253 M6.73728672,4.04442316 C6.99773189,3.57501742 7.86791367,2.56233178 8.1833914,2.29386626 C8.6146803,1.92684766 9.33773264,1.65158371 10.4920739,1.37631976" id="Rectangle-82" stroke="#765DFF" opacity="0.1" stroke-linecap="round"></path>
                                            <path d="M1.25734399,10.8270488 L1.47297307,11.1612714 C1.94236909,11.8888298 3.02061228,12.4982712 3.88452131,12.5225875 L7.28096222,12.6181867 C8.14342752,12.6424624 9.44235031,12.2995031 10.1740193,11.8571045 L9.51260905,12.2570216 C9.98066242,11.9740164 10.814705,11.7445953 11.3646264,11.7445953 L15.9696122,11.7445953 C16.5243997,11.7445953 17.3474234,11.9856698 17.8170072,12.2889405 L17.085626,11.8165936 C17.8087024,12.283577 19.1008253,12.6431942 19.9463499,12.6205007 L23.6806452,12.5202736 C24.537503,12.4972758 25.6107953,11.8916955 26.0820402,11.1612714 L25.7524105,11.6721935 C26.0535486,11.205433 26.1928526,11.2602876 26.0611284,11.8047438 L25.5873054,13.7631976 L19.1940309,13.9467069 C19.1940309,13.9467069 18.3801232,12.8412274 16.3525755,12.8456511 C14.3984019,12.8500314 14.8108541,12.685494 14.0438931,12.6621418 C12.0414503,12.6079043 11.5122433,12.6398481 11.5122433,12.6398481 C10.6545769,12.6521606 9.35190952,13.0044872 8.60252971,13.4268618 L8.00580044,13.7631976 L2.50048071,13.7631976 L1.61252591,12.6621418 L1.25734399,10.8270488 Z" id="Path-13-Copy-5" fill="#DAFFFA"></path>
                                            <path d="M1.25734399,11.9281046 L1.57127969,12.360635 C1.98638246,12.9325502 2.89178363,13.396179 3.60018271,13.396179 L7.21011889,13.396179 C7.91554832,13.396179 8.9599688,13.072029 9.54415638,12.671306 L9.30335013,12.8364868 C9.88697402,12.4361506 10.9354779,12.1116139 11.6353499,12.1116139 L15.6988887,12.1116139 C16.4031927,12.1116139 17.4407432,12.4491182 18.0071978,12.8588507 L17.7169995,12.6489421 C18.2875395,13.0616297 19.3252939,13.396179 20.0307019,13.396179 L23.951475,13.396179 C24.6587576,13.396179 25.5692688,12.9316711 25.9837335,12.360635 L25.7150139,12.7308682 C26.0368056,12.2875141 26.1429993,12.343648 25.946726,12.8709651 L25.4097144,14.3137255 L19.1940309,14.4972348 C19.1940309,14.4972348 18.3801232,13.208246 16.3525755,13.2126697 C14.3984019,13.21705 14.8108541,13.2360219 14.0438931,13.2126697 C12.0414503,13.1584322 11.2147321,13.3804633 11.2147321,13.3804633 C10.5213767,13.4904922 9.45180146,13.8468236 8.82358451,14.1775017 L8.29791002,14.4542039 L8.00580044,14.4972348 L2.50048071,14.3137255 L1.61252591,13.9467069 L1.25734399,11.9281046 Z" id="Path-13-Copy-4" fill="#B4F8EE"></path>
                                            <path d="M9.1758835,12.8892776 C9.72300296,12.2181527 10.8647939,11.5498428 11.7231984,11.4313357 C11.7231984,11.4313357 11.9205315,11.3070799 13.6727165,11.3070799 C15.407637,11.3070799 15.6053397,11.4313357 15.6053397,11.4313357 C16.4590891,11.5654099 17.6015819,12.2265726 18.1418372,12.8892776 L18.8611382,13.7716092 C19.2068619,14.1956916 19.0518268,14.4119577 18.5317619,14.2653799 C18.5317619,14.2653799 15.4048917,13.3044243 13.6589697,13.3044243 C11.9130477,13.3044243 8.78600733,14.2653799 8.78600733,14.2653799 C8.2583473,14.4167603 8.117026,14.1881266 8.45658246,13.7716092 L9.1758835,12.8892776 Z" id="Rectangle-3" fill="#765DFF"></path>
                                            <path d="M1.26479701,10.5073317 C1.3487121,8.15017186 3.32924297,6.19880425 5.6899493,6.15020867 C5.6899493,6.15020867 5.71934927,6.14756159 5.84997166,6.14756159 C5.98059405,6.14756159 10.3786072,7.0651081 13.6639739,7.06510809 C17.2230225,7.06510809 19.9004996,6.14756159 21.4779761,6.14756159 C21.4968423,6.14756159 21.6520167,6.15104644 21.6520167,6.15104644 C24.0115287,6.19979651 25.9843266,8.1534315 26.0582363,10.5142323 C26.0582363,10.5142323 26.0807849,11.2257296 26.0804977,11.2323685 C26.0802106,11.2390075 25.9824807,12.5067959 25.9824807,12.5067959 C25.8978002,13.606085 24.9380012,14.5687556 23.8286626,14.6337326 C23.8286626,14.6337326 23.0381885,14.773314 19.8744249,14.6768298 C18.0796882,14.6220963 15.8655049,13.2126697 13.6639739,13.2126697 C11.4102235,13.2126697 9.35915202,14.6241551 7.5372843,14.6807441 C4.44231932,14.7768767 3.49093713,14.6317637 3.49093713,14.6317637 C2.3909265,14.5574654 1.43404212,13.6083445 1.35368711,12.5056157 C1.35368711,12.5056157 1.29936607,11.7790094 1.26289104,11.2323685 C1.226416,10.6857277 1.26479701,10.5073317 1.26479701,10.5073317 Z" id="Rectangle-78" stroke="#765DFF"></path>
                                            <path d="M12.3434134,1.3594053 C12.4841038,1.14222804 12.799494,0.924697163 13.0396361,0.885396342 C13.0396361,0.885396342 13.1436136,0.835093012 13.6888341,0.835093012 C14.2340546,0.835093012 14.3379344,0.885396342 14.3379344,0.885396342 C14.5816705,0.930007 14.8873064,1.13296081 15.0340003,1.3594053 L15.0340003,1.3594053 C15.1746908,1.57658256 15.0886095,1.75263952 14.8317295,1.75263952 C14.8317295,1.75263952 14.7078045,1.75263952 13.6888341,1.75263952 C12.6698637,1.75263952 12.5458204,1.75263952 12.5458204,1.75263952 C12.2933436,1.75263952 12.1967195,1.58584979 12.3434134,1.3594053 L12.3434134,1.3594053 Z" id="Rectangle-13" fill="#765DFF" transform="translate(13.687854, 1.335093) scale(1, -1) translate(-13.687854, -1.335093) "></path>
                                            <mask id="mask-8" fill="white">
                                                <use xlink:href="#path-7"></use>
                                            </mask>
                                            <use id="Rectangle-4" fill="#765DFF" transform="translate(4.831908, 9.531658) scale(1, -1) rotate(-15.000000) translate(-4.831908, -9.531658) " xlink:href="#path-7"></use>
                                            <ellipse id="Oval-6" fill="#FAD214" mask="url(#mask-8)" cx="5.69711797" cy="9.17546506" rx="1.06554576" ry="1.10105581"></ellipse>
                                            <ellipse id="Oval-6-Copy-5" fill="#FFFFFF" opacity="0.355701959" mask="url(#mask-8)" cx="21.5669701" cy="9.26721971" rx="1" ry="1"></ellipse>
                                            <ellipse id="Oval-6-Copy" fill="#F478A2" mask="url(#mask-8)" cx="3.6302832" cy="9.26721971" rx="1" ry="1"></ellipse>
                                            <mask id="mask-10" fill="white">
                                                <use xlink:href="#path-9"></use>
                                            </mask>
                                            <use id="Rectangle-4" fill="#765DFF" transform="translate(22.496437, 9.531658) scale(-1, -1) rotate(-15.000000) translate(-22.496437, -9.531658) " xlink:href="#path-9"></use>
                                            <ellipse id="Oval-6" fill="#FAD214" mask="url(#mask-10)" transform="translate(21.857895, 9.175465) scale(-1, 1) translate(-21.857895, -9.175465) " cx="21.8578953" cy="9.17546506" rx="1.06554576" ry="1.10105581"></ellipse>
                                            <ellipse id="Oval-6-Copy" fill="#F478A2" mask="url(#mask-10)" transform="translate(23.642039, 9.308446) scale(-1, 1) translate(-23.642039, -9.308446) " cx="23.5860164" cy="9.26721971" rx="1" ry="1"></ellipse>
                                        </g>
                                    </g>
                                </g>
                                <path d="M3.92618093,12.4340659 L6.76763627,12.4340659" id="Line-Copy-8" stroke="#765DFF" stroke-linecap="round" stroke-linejoin="round"></path>
                                <path d="M21.152504,12.4340659 L23.9939593,12.4340659" id="Line-Copy-9" stroke="#765DFF" stroke-linecap="round" stroke-linejoin="round"></path>
                            </g>
                        </g>
                    </g>
                </g>
                <path d="M74.3078363,112.823529 C89.9437578,112.823529 102.619177,111.4738 102.619177,109.808824 C102.619177,108.143847 89.9437578,108 74.3078363,108 C58.6719147,108 45.9964959,108.143847 45.9964959,109.808824 C45.9964959,111.4738 58.6719147,112.823529 74.3078363,112.823529 Z" id="Oval-15-Copy-2" fill="#C5BBFF" fill-rule="evenodd"></path>
                <path d="M53.5607779,64.3307477 L99.269389,64.3307477" id="Line-Copy-12" stroke="#765DFF" stroke-width="1" stroke-linecap="round"></path>
                <path d="M53.5085653,73.3307477 L99.269389,73.3307477" id="Line-Copy-16" stroke="#765DFF" stroke-width="1" stroke-linecap="round"></path>
                <path d="M53.4772663,68.3307477 L99.269389,68.3307477" id="Line-Copy-15" stroke="#765DFF" stroke-width="1" stroke-linecap="round"></path>
                <path d="M53.5503306,78.3307477 L99.269389,78.3307477" id="Line-Copy-17" stroke="#765DFF" stroke-width="1" stroke-linecap="round"></path>
                <path d="M54.279502,83.3307477 L99.7051282,83.3307477" id="Line-Copy-19" stroke="#765DFF" stroke-width="1" stroke-linecap="round"></path>
                <path d="M54.5078425,87.5978861 L99.7051282,87.5978861" id="Line-Copy-18" stroke="#765DFF" stroke-width="1" stroke-linecap="round"></path>
                <path d="M54.5607275,92.5978861 L99.7051282,92.5978861" id="Line-Copy-18" stroke="#765DFF" stroke-width="1" stroke-linecap="round"></path>
                <path d="M54.5607275,99.5978861 L66.7450098,99.5978861" id="Line-Copy-18" stroke="#765DFF" stroke-width="1" stroke-linecap="round"></path>
                <g id="Group-3" stroke-width="1" fill-rule="evenodd" transform="translate(62.000000, 44.063348)">
                    <g id="Group-27">
                        <g id="Group-12-Copy">
                            <g id="Group-26" transform="translate(0.000000, 0.183509)">
                                <g id="Group-19-Copy">
                                    <g id="Group-42-Copy-2" transform="translate(0.182564, 0.000000)">
                                        <g id="Group-21-Copy-2">
                                            <g id="Group-36" transform="translate(24.166578, 12.845651)"></g>
                                            <path d="M19.996311,6.19342472 C19.6111138,5.28199478 18.7310881,4.6450083 17.7070843,4.6450083 C16.6338883,4.6450083 15.4939641,5.1819201 15.3082036,6.7564386" id="Oval-2-Copy" stroke="#765DFF" stroke-linecap="round" stroke-linejoin="round"></path>
                                            <path d="M23.0773581,5.78054299 C23.0773581,5.12177196 23.5935883,4.58773253 24.2306035,4.58773253 L25.9188135,4.58773253" id="Rectangle-33" stroke="#765DFF" stroke-width="1.5" stroke-linecap="round" stroke-linejoin="round"></path>
                                            <path d="M1.2319195,5.78054299 C1.2319195,5.12177196 1.74814966,4.58773253 2.38516489,4.58773253 L4.07337484,4.58773253" id="Rectangle-33-Copy" stroke="#765DFF" stroke-width="1.5" stroke-linecap="round" stroke-linejoin="round" transform="translate(2.652647, 5.184138) scale(-1, 1) translate(-2.652647, -5.184138) "></path>
                                            <path d="M0.493241655,4.53017726 C0.719082166,4.25791599 1.19541742,4.03720463 1.54330619,4.03720463 L2.03692755,4.03720463 C2.39102167,4.03720463 2.67807167,4.32229126 2.67807167,4.67948718 L2.67807167,4.67948718 C2.67807167,5.03421004 2.39523389,5.32176973 2.03330146,5.32176973 L0.481386518,5.32176973 C0.125289769,5.32176973 0.0222202233,5.09801557 0.245536736,4.8287971 L0.493241655,4.53017726 Z" id="Rectangle-34-Copy-2" fill="#F478A2" transform="translate(1.402946, 4.679487) scale(1, -1) translate(-1.402946, -4.679487) "></path>
                                            <path d="M24.8871819,4.53017726 C25.1130225,4.25791599 25.5893577,4.03720463 25.9372465,4.03720463 L26.4308678,4.03720463 C26.784962,4.03720463 27.072012,4.32229126 27.072012,4.67948718 L27.072012,4.67948718 C27.072012,5.03421004 26.7891742,5.32176973 26.4272418,5.32176973 L24.8753268,5.32176973 C24.5192301,5.32176973 24.4161605,5.09801557 24.639477,4.8287971 L24.8871819,4.53017726 Z" id="Rectangle-34-Copy-3" fill="#F478A2" transform="translate(25.796886, 4.679487) scale(-1, -1) translate(-25.796886, -4.679487) "></path>
                                            <path d="M22.0109475,14.3137255 C22.0109475,14.3137255 24.277777,14.7536268 25.0299938,14.5431121 C25.7822105,14.3325975 26.2731305,13.120915 26.2731305,13.120915 L26.2731305,14.5431121 C26.2731305,15.3285699 25.6442307,15.9653092 24.8538853,15.9653092 L23.4301927,15.9653092 C22.6463652,15.9653092 22.0109475,15.3314872 22.0109475,14.5433711 L22.0109475,14.3137255 Z" id="Rectangle-83-Copy-5" fill="#5944CE"></path>
                                            <path d="M1.05521429,13.120915 C1.05521429,13.120915 1.48054751,14.3390926 2.20955552,14.5431121 C2.93856354,14.7471316 5.31739731,14.3137255 5.31739731,14.3137255 L5.31739731,14.5433711 C5.31739731,15.3286858 4.68849753,15.9653092 3.89815208,15.9653092 L2.47445952,15.9653092 C1.69063202,15.9653092 1.05521429,15.3340459 1.05521429,14.5431121 L1.05521429,13.120915 Z" id="Rectangle-83-Copy-6" fill="#5944CE"></path>
                                            <path d="M3.91859364,6.14756159 L5.64518593,3.58287158 C6.2609078,2.66827482 7.49903329,1.41048785 8.48499783,0.923918249 C8.48499783,0.923918249 8.80234502,2.13286388e-16 13.6860964,0 C18.5698478,0 18.9006962,0.929559664 18.9006962,0.929559664 C19.8459026,1.48034662 21.0883894,2.68142673 21.6802903,3.61925392 L23.2760082,6.14756159" id="Rectangle-82" stroke="#765DFF"></path>
                                            <path d="M6.22989085,4.95475113 C6.28276527,4.86108856 6.31569421,4.82230174 6.44148928,4.58773253 M6.73728672,4.04442316 C6.99773189,3.57501742 7.86791367,2.56233178 8.1833914,2.29386626 C8.6146803,1.92684766 9.33773264,1.65158371 10.4920739,1.37631976" id="Rectangle-82" stroke="#765DFF" opacity="0.1" stroke-linecap="round"></path>
                                            <path d="M1.25734399,10.8270488 L1.47297307,11.1612714 C1.94236909,11.8888298 3.02061228,12.4982712 3.88452131,12.5225875 L7.28096222,12.6181867 C8.14342752,12.6424624 9.44235031,12.2995031 10.1740193,11.8571045 L9.51260905,12.2570216 C9.98066242,11.9740164 10.814705,11.7445953 11.3646264,11.7445953 L15.9696122,11.7445953 C16.5243997,11.7445953 17.3474234,11.9856698 17.8170072,12.2889405 L17.085626,11.8165936 C17.8087024,12.283577 19.1008253,12.6431942 19.9463499,12.6205007 L23.6806452,12.5202736 C24.537503,12.4972758 25.6107953,11.8916955 26.0820402,11.1612714 L25.7524105,11.6721935 C26.0535486,11.205433 26.1928526,11.2602876 26.0611284,11.8047438 L25.5873054,13.7631976 L19.1940309,13.9467069 C19.1940309,13.9467069 18.3801232,12.8412274 16.3525755,12.8456511 C14.3984019,12.8500314 14.8108541,12.685494 14.0438931,12.6621418 C12.0414503,12.6079043 11.5122433,12.6398481 11.5122433,12.6398481 C10.6545769,12.6521606 9.35190952,13.0044872 8.60252971,13.4268618 L8.00580044,13.7631976 L2.50048071,13.7631976 L1.61252591,12.6621418 L1.25734399,10.8270488 Z" id="Path-13-Copy-5" fill="#DAFFFA"></path>
                                            <path d="M1.25734399,11.9281046 L1.57127969,12.360635 C1.98638246,12.9325502 2.89178363,13.396179 3.60018271,13.396179 L7.21011889,13.396179 C7.91554832,13.396179 8.9599688,13.072029 9.54415638,12.671306 L9.30335013,12.8364868 C9.88697402,12.4361506 10.9354779,12.1116139 11.6353499,12.1116139 L15.6988887,12.1116139 C16.4031927,12.1116139 17.4407432,12.4491182 18.0071978,12.8588507 L17.7169995,12.6489421 C18.2875395,13.0616297 19.3252939,13.396179 20.0307019,13.396179 L23.951475,13.396179 C24.6587576,13.396179 25.5692688,12.9316711 25.9837335,12.360635 L25.7150139,12.7308682 C26.0368056,12.2875141 26.1429993,12.343648 25.946726,12.8709651 L25.4097144,14.3137255 L19.1940309,14.4972348 C19.1940309,14.4972348 18.3801232,13.208246 16.3525755,13.2126697 C14.3984019,13.21705 14.8108541,13.2360219 14.0438931,13.2126697 C12.0414503,13.1584322 11.2147321,13.3804633 11.2147321,13.3804633 C10.5213767,13.4904922 9.45180146,13.8468236 8.82358451,14.1775017 L8.29791002,14.4542039 L8.00580044,14.4972348 L2.50048071,14.3137255 L1.61252591,13.9467069 L1.25734399,11.9281046 Z" id="Path-13-Copy-4" fill="#B4F8EE"></path>
                                            <path d="M9.1758835,12.8892776 C9.72300296,12.2181527 10.8647939,11.5498428 11.7231984,11.4313357 C11.7231984,11.4313357 11.9205315,11.3070799 13.6727165,11.3070799 C15.407637,11.3070799 15.6053397,11.4313357 15.6053397,11.4313357 C16.4590891,11.5654099 17.6015819,12.2265726 18.1418372,12.8892776 L18.8611382,13.7716092 C19.2068619,14.1956916 19.0518268,14.4119577 18.5317619,14.2653799 C18.5317619,14.2653799 15.4048917,13.3044243 13.6589697,13.3044243 C11.9130477,13.3044243 8.78600733,14.2653799 8.78600733,14.2653799 C8.2583473,14.4167603 8.117026,14.1881266 8.45658246,13.7716092 L9.1758835,12.8892776 Z" id="Rectangle-3" fill="#765DFF"></path>
                                            <path d="M1.26479701,10.5073317 C1.3487121,8.15017186 3.32924297,6.19880425 5.6899493,6.15020867 C5.6899493,6.15020867 5.71934927,6.14756159 5.84997166,6.14756159 C5.98059405,6.14756159 10.3786072,7.0651081 13.6639739,7.06510809 C17.2230225,7.06510809 19.9004996,6.14756159 21.4779761,6.14756159 C21.4968423,6.14756159 21.6520167,6.15104644 21.6520167,6.15104644 C24.0115287,6.19979651 25.9843266,8.1534315 26.0582363,10.5142323 C26.0582363,10.5142323 26.0807849,11.2257296 26.0804977,11.2323685 C26.0802106,11.2390075 25.9824807,12.5067959 25.9824807,12.5067959 C25.8978002,13.606085 24.9380012,14.5687556 23.8286626,14.6337326 C23.8286626,14.6337326 23.0381885,14.773314 19.8744249,14.6768298 C18.0796882,14.6220963 15.8655049,13.2126697 13.6639739,13.2126697 C11.4102235,13.2126697 9.35915202,14.6241551 7.5372843,14.6807441 C4.44231932,14.7768767 3.49093713,14.6317637 3.49093713,14.6317637 C2.3909265,14.5574654 1.43404212,13.6083445 1.35368711,12.5056157 C1.35368711,12.5056157 1.29936607,11.7790094 1.26289104,11.2323685 C1.226416,10.6857277 1.26479701,10.5073317 1.26479701,10.5073317 Z" id="Rectangle-78" stroke="#765DFF"></path>
                                            <path d="M12.3434134,1.3594053 C12.4841038,1.14222804 12.799494,0.924697163 13.0396361,0.885396342 C13.0396361,0.885396342 13.1436136,0.835093012 13.6888341,0.835093012 C14.2340546,0.835093012 14.3379344,0.885396342 14.3379344,0.885396342 C14.5816705,0.930007 14.8873064,1.13296081 15.0340003,1.3594053 L15.0340003,1.3594053 C15.1746908,1.57658256 15.0886095,1.75263952 14.8317295,1.75263952 C14.8317295,1.75263952 14.7078045,1.75263952 13.6888341,1.75263952 C12.6698637,1.75263952 12.5458204,1.75263952 12.5458204,1.75263952 C12.2933436,1.75263952 12.1967195,1.58584979 12.3434134,1.3594053 L12.3434134,1.3594053 Z" id="Rectangle-13" fill="#765DFF" transform="translate(13.687854, 1.335093) scale(1, -1) translate(-13.687854, -1.335093) "></path>
                                            <mask id="mask-12" fill="white">
                                                <use xlink:href="#path-11"></use>
                                            </mask>
                                            <use id="Rectangle-4" fill="#765DFF" transform="translate(4.831908, 9.531658) scale(1, -1) rotate(-15.000000) translate(-4.831908, -9.531658) " xlink:href="#path-11"></use>
                                            <ellipse id="Oval-6" fill="#FAD214" mask="url(#mask-12)" cx="5.69711797" cy="9.17546506" rx="1.06554576" ry="1.10105581"></ellipse>
                                            <ellipse id="Oval-6-Copy-5" fill="#FFFFFF" opacity="0.355701959" mask="url(#mask-12)" cx="21.5669701" cy="9.26721971" rx="1" ry="1"></ellipse>
                                            <ellipse id="Oval-6-Copy" fill="#F478A2" mask="url(#mask-12)" cx="3.6302832" cy="9.26721971" rx="1" ry="1"></ellipse>
                                            <mask id="mask-14" fill="white">
                                                <use xlink:href="#path-13"></use>
                                            </mask>
                                            <use id="Rectangle-4" fill="#765DFF" transform="translate(22.496437, 9.531658) scale(-1, -1) rotate(-15.000000) translate(-22.496437, -9.531658) " xlink:href="#path-13"></use>
                                            <ellipse id="Oval-6" fill="#FAD214" mask="url(#mask-14)" transform="translate(21.857895, 9.175465) scale(-1, 1) translate(-21.857895, -9.175465) " cx="21.8578953" cy="9.17546506" rx="1.06554576" ry="1.10105581"></ellipse>
                                            <ellipse id="Oval-6-Copy" fill="#F478A2" mask="url(#mask-14)" transform="translate(23.642039, 9.308446) scale(-1, 1) translate(-23.642039, -9.308446) " cx="23.5860164" cy="9.26721971" rx="1" ry="1"></ellipse>
                                        </g>
                                    </g>
                                </g>
                                <path d="M3.92618093,12.4340659 L6.76763627,12.4340659" id="Line-Copy-8" stroke="#765DFF" stroke-linecap="round" stroke-linejoin="round"></path>
                                <path d="M21.152504,12.4340659 L23.9939593,12.4340659" id="Line-Copy-9" stroke="#765DFF" stroke-linecap="round" stroke-linejoin="round"></path>
                            </g>
                        </g>
                    </g>
                </g>
                <path d="M46,53.7588882 L46,40.0566371 C46,37.8512047 47.7908204,36.0633484 49.9984548,36.0633484 L102.941716,36.0633484 C105.150002,36.0633484 106.940171,37.848718 106.940171,40.0731287 L106.940171,92.8082546 C106.940171,95.0227951 105.700173,98.1142691 104.179496,99.7039122 L98.4156287,105.729184 C96.8909502,107.32301 93.858373,108.615061 91.6545028,108.615061 L50.0004513,108.615061 C47.7910631,108.615061 46,106.825797 46,104.605705 L46,93.278927 L46,53.7588882 Z" id="Rectangle-22" stroke="#765DFF" stroke-width="2" stroke-linecap="round"></path>
                <g id="Page-1" stroke-width="1" fill-rule="evenodd" transform="translate(3.000000, 77.000000)">
                    <mask id="mask-16" fill="white">
                        <use xlink:href="#path-15"></use>
                    </mask>
                    <g id="Clip-2"></g>
                    <path d="M0,1.96033855e-05 C0.677102685,3.36585554 2.77292489,5.75099945 5.45338608,7.70794008 C8.16501924,9.68768597 11.2423641,10.8370978 14.518118,11.4949221 C16.5519251,11.9033259 18.608881,12.1042606 20.6850398,12.0997519 C20.8025595,12.0994905 20.9201449,12.0996865 21.0727824,12.0996865 L21.0727824,3.75746584 C21.2257487,3.90272692 21.316371,3.98545321 21.4033106,4.0718388 C25.3935866,8.03610075 29.3833366,12.0008855 33.3746649,15.9641672 C33.4645638,16.053428 33.5718244,16.1254378 33.670996,16.2054849 L33.670996,16.4015188 C33.5717586,16.4816966 33.4643666,16.5537717 33.3744019,16.6430978 C29.3824159,20.6069677 25.3920083,24.5724712 21.4010746,28.537452 C21.3170286,28.6209624 21.2292999,28.7008135 21.0869873,28.8357501 L21.0869873,20.4639283 C20.7202892,20.4639283 20.3956139,20.4779121 20.0725171,20.4618373 C15.1819364,20.2181019 10.8811243,18.4947029 7.2063823,15.2909216 C3.54091296,12.0953084 1.26049215,8.08994471 0.370578247,3.32174792 C0.209391506,2.45815345 0.159674176,1.57397542 0.0564252237,0.699599086 C0.0442589459,0.596289244 0.0191372262,0.494547674 0,0.392087313 L0,1.96033855e-05 Z" id="Fill-1" fill="#FAD214" mask="url(#mask-16)"></path>
                </g>
            </g>
        </g>
    </g>
</svg>