<?xml version="1.0" encoding="UTF-8"?>
<svg width="15px" height="15px" viewBox="0 0 15 15" version="1.1" xmlns="http://www.w3.org/2000/svg" xmlns:xlink="http://www.w3.org/1999/xlink">
    <!-- Generator: Sketch 43.1 (39012) - http://www.bohemiancoding.com/sketch -->
    <title>Fill 42 Copy 5</title>
    <desc>Created with Sketch.</desc>
    <defs></defs>
    <g id="Home" stroke="none" stroke-width="1" fill="none" fill-rule="evenodd">
        <g id="BKG-TItle" transform="translate(-620.000000, -134.000000)" fill="#F478A2">
            <g id="Group-10-Copy-2" transform="translate(84.000000, 48.000000)">
                <path d="M548.682534,100.024928 C548.477762,100.631242 548.050792,101.119784 547.475688,101.407674 C546.290627,101.996541 544.839798,101.503638 544.247267,100.308456 L542.526314,96.8363225 L539.058267,98.5636653 C537.868848,99.1568942 536.413663,98.6727147 535.825489,97.4818951 C535.542294,96.9104761 535.498725,96.2605416 535.703497,95.6498648 C535.908269,95.0391881 536.343953,94.5419227 536.923413,94.2540322 L540.391461,92.5310514 L538.670507,89.0589179 C538.378599,88.474413 538.335031,87.8157545 538.539802,87.2050778 C538.744574,86.598763 539.171544,86.1058596 539.746648,85.8223311 C540.931709,85.2334642 542.382538,85.7220056 542.975069,86.9171873 L544.696022,90.3893208 L548.16407,88.66634 C549.353488,88.0731111 550.804317,88.5572906 551.392491,89.7437482 C551.680042,90.3195292 551.723611,90.9694637 551.518839,91.5757785 C551.309711,92.1908172 550.878383,92.6880826 550.298923,92.975973 L546.830875,94.6989539 L548.551829,98.1710874 C548.843737,98.7555923 548.887306,99.4142508 548.682534,100.024928" id="Fill-42-Copy-5" transform="translate(543.611013, 93.614567) rotate(-24.000000) translate(-543.611013, -93.614567) "></path>
            </g>
        </g>
    </g>
</svg>