<?xml version="1.0" encoding="UTF-8"?>
<svg width="12px" height="12px" viewBox="0 0 12 12" version="1.1" xmlns="http://www.w3.org/2000/svg" xmlns:xlink="http://www.w3.org/1999/xlink">
    <!-- Generator: Sketch 43.1 (39012) - http://www.bohemiancoding.com/sketch -->
    <title>Fill 42 Copy 2</title>
    <desc>Created with Sketch.</desc>
    <defs></defs>
    <g id="Home" stroke="none" stroke-width="1" fill="none" fill-rule="evenodd">
        <g id="BKG-TItle" transform="translate(-1846.000000, -49.000000)" fill="#0FE1C3">
            <g id="Group-10-Copy-2" transform="translate(84.000000, 48.000000)">
                <path d="M1770.26867,11.7021664 C1769.53121,12.0682961 1768.62837,11.761832 1768.25964,11.0187244 L1767.1887,8.85991546 L1765.03054,9.93389579 C1764.29038,10.3027375 1763.38482,10.0016976 1763.0188,9.26130205 C1762.84257,8.90602068 1762.81546,8.50192202 1762.94289,8.122232 C1763.07032,7.74254199 1763.34144,7.43336583 1763.70204,7.25436911 L1765.86019,6.18310086 L1764.78924,4.02429192 C1764.60759,3.66087434 1764.58048,3.25135154 1764.70791,2.87166152 C1764.83534,2.49468358 1765.10104,2.1882195 1765.45892,2.01193485 C1766.19638,1.64580519 1767.09922,1.9495572 1767.46795,2.6926648 L1768.53889,4.85147374 L1770.69705,3.78020548 C1771.43721,3.41136376 1772.34006,3.7124037 1772.70608,4.45008715 C1772.88502,4.80808059 1772.91213,5.21217925 1772.7847,5.58915719 C1772.65456,5.97155928 1772.38615,6.28073543 1772.02555,6.45973216 L1769.8674,7.53100041 L1770.93835,9.68980935 C1771.12,10.0532269 1771.14711,10.4627497 1771.01968,10.8424397 C1770.89225,11.2194177 1770.62655,11.5231697 1770.26867,11.7021664 Z" id="Fill-42-Copy-2" transform="translate(1767.863698, 6.856780) rotate(27.000000) translate(-1767.863698, -6.856780) "></path>
            </g>
        </g>
    </g>
</svg>