<?xml version="1.0" encoding="UTF-8"?>
<svg width="29px" height="29px" viewBox="0 0 29 29" version="1.1" xmlns="http://www.w3.org/2000/svg" xmlns:xlink="http://www.w3.org/1999/xlink">
    <!-- Generator: Sketch 43.1 (39012) - http://www.bohemiancoding.com/sketch -->
    <title>Fill 42 Copy 7</title>
    <desc>Created with Sketch.</desc>
    <defs></defs>
    <g id="Home" stroke="none" stroke-width="1" fill="none" fill-rule="evenodd">
        <g id="BKG-TItle" transform="translate(-91.000000, -282.000000)" fill="#0FE1C3">
            <g id="Group-10-Copy-2" transform="translate(84.000000, 48.000000)">
                <path d="M31.365046,261.042281 C30.9572749,262.249663 30.1070287,263.222518 28.9617992,263.795808 C26.6019324,264.968445 23.7128308,263.986904 22.5328973,261.606884 L19.1058849,254.692667 L12.199804,258.132403 C9.83126124,259.313727 6.9334836,258.349558 5.76222618,255.978225 C5.19828741,254.840332 5.1115276,253.546088 5.51929871,252.33002 C5.92706981,251.113951 6.79466791,250.123724 7.94857337,249.550435 L14.8546542,246.119384 L11.4276417,239.205167 C10.846351,238.041215 10.7595912,236.729599 11.1673623,235.51353 C11.5751334,234.306148 12.4253795,233.324607 13.570609,232.760004 C15.9304758,231.587367 18.8195775,232.560221 19.9995109,234.940241 L23.4265234,241.854459 L30.3326042,238.423408 C32.701147,237.242085 35.5902487,238.206253 36.7615061,240.568901 C37.3341208,241.715479 37.4208807,243.009724 37.0131096,244.217106 C36.5966625,245.44186 35.7377404,246.432088 34.5838349,247.005377 L27.6777541,250.436427 L31.1047665,257.350645 C31.6860573,258.514596 31.7728171,259.826213 31.365046,261.042281" id="Fill-42-Copy-7" transform="translate(21.265895, 248.277038) rotate(-20.000000) translate(-21.265895, -248.277038) "></path>
            </g>
        </g>
    </g>
</svg>