
<svg width="77px" height="52px" viewBox="0 0 77 52" version="1.1" xmlns="http://www.w3.org/2000/svg" xmlns:xlink="http://www.w3.org/1999/xlink">
    <!-- Generator: Sketch 45.1 (43504) - http://www.bohemiancoding.com/sketch -->
    <desc>Created with Sketch.</desc>
    <defs></defs>
    <g id="Get-a-Quote" stroke="none" stroke-width="1" fill="none" fill-rule="evenodd">
        <g id="GET-A-QUOTE-11-hover" transform="translate(-683.000000, -277.000000)">
            <g id="Group-12" transform="translate(683.000000, 278.000000)">
                <g id="Group-10">
                    <g id="Group-9">
                        <polygon id="Stroke-74" fill="#FAD214" points="38.9269589 14.4358826 40.6714169 19.8291564 46.3163651 19.8291564 41.7498732 23.1619865 43.493891 28.5557024 38.9269589 25.2202197 34.3587063 28.5557024 36.1029442 23.1619865 31.535792 19.8291564 37.1811803 19.8291564"></polygon>
                        <g id="Group-8" transform="translate(6.569390, 12.845648) scale(-1, 1) translate(-6.569390, -12.845648) translate(0.069390, 0.845648)" stroke-linecap="round" stroke="#FAD214">
                            <g id="Group-7">
                                <path d="M12.1267347,9.23758988 L1.84992714,7.20807489" id="Line-Copy-12" transform="translate(6.988331, 8.222832) scale(-1, 1) translate(-6.988331, -8.222832) "></path>
                                <path d="M5.93771106,23.9290109 L6.13731288e-13,20.7268873" id="Line-Copy-14" transform="translate(2.968856, 22.327949) scale(-1, -1) translate(-2.968856, -22.327949) "></path>
                                <path d="M11.8067568,17.9824676 L1.5299492,15.9529526" id="Line-Copy-15" transform="translate(6.668353, 16.967710) scale(-1, -1) translate(-6.668353, -16.967710) "></path>
                                <path d="M7.17099582,3.54637829 L1.23328476,0.344254651" id="Line-Copy-11" transform="translate(4.202140, 1.945316) scale(-1, 1) translate(-4.202140, -1.945316) "></path>
                            </g>
                        </g>
                        <g id="Group-8" transform="translate(64.024649, 0.177676)" stroke-linecap="round" stroke="#FAD214">
                            <g id="Group-7">
                                <path d="M12.1267347,9.23758988 L1.84992714,7.20807489" id="Line-Copy-12" transform="translate(6.988331, 8.222832) scale(-1, 1) translate(-6.988331, -8.222832) "></path>
                                <path d="M5.93771106,23.9290109 L6.13731288e-13,20.7268873" id="Line-Copy-14" transform="translate(2.968856, 22.327949) scale(-1, -1) translate(-2.968856, -22.327949) "></path>
                                <path d="M11.8067568,17.9824676 L1.5299492,15.9529526" id="Line-Copy-15" transform="translate(6.668353, 16.967710) scale(-1, -1) translate(-6.668353, -16.967710) "></path>
                                <path d="M7.17099582,3.54637829 L1.23328476,0.344254651" id="Line-Copy-11" transform="translate(4.202140, 1.945316) scale(-1, 1) translate(-4.202140, -1.945316) "></path>
                            </g>
                        </g>
                    </g>
                </g>
                <path d="M59.5211278,7.0342155 C59.4711343,7.0358554 59.4203212,7.03831526 59.3695081,7.03831526 C56.3089772,7.03831526 53.8286986,4.55030605 53.8286986,1.48095051 C53.8286986,1.09611947 53.8672182,0.71948795 53.9420719,0.356248991 L53.9013668,0.308691745 L39.1125797,0.308691745 L39.1125797,0.299125633 L24.3243389,0.299125633 L24.2830874,0.34750283 C24.3571215,0.710195155 24.3956411,1.08628004 24.3956411,1.47193103 C24.3956411,4.54101325 21.9156357,7.02874915 18.8559244,7.02874915 C18.8034722,7.02874915 18.7534787,7.02683592 18.7034852,7.02519602 C17.2282672,41.7578374 39.1082086,49.9896139 39.1125797,49.9909805 L39.1125797,50 C39.1125797,50 60.9968921,41.77041 59.5211278,7.0342155 Z" id="Page-1" stroke="#5944CE"></path>
                <path d="M54.5897976,10.7175013 C54.5519006,10.7187635 54.5133823,10.7206568 54.474864,10.7206568 C52.1548625,10.7206568 50.274715,8.80568677 50.274715,6.44326632 C50.274715,6.1470697 50.3039143,5.85718409 50.3606563,5.57760646 L50.3298002,5.54100262 L39.1193245,5.54100262 L39.1193245,5.53363978 L27.9092629,5.53363978 L27.8779927,5.57087472 C27.9341134,5.85003162 27.9633128,6.13949649 27.9633128,6.43632421 C27.9633128,8.7985343 26.0833723,10.713294 23.7639921,10.713294 C23.7242313,10.713294 23.6863342,10.7118214 23.6484372,10.7105592 C22.5301646,37.443566 39.1160111,43.7793968 39.1193245,43.7804486 L39.1193245,43.7873907 C39.1193245,43.7873907 55.7084844,37.4532429 54.5897976,10.7175013 Z" id="Page-1" stroke="#5944CE" stroke-width="0.5"></path>
            </g>
        </g>
    </g>
</svg>
