
<svg width="64px" height="73px" viewBox="0 0 64 73" version="1.1" xmlns="http://www.w3.org/2000/svg" xmlns:xlink="http://www.w3.org/1999/xlink">
    <!-- Generator: Sketch 45.1 (43504) - http://www.bohemiancoding.com/sketch -->
    <desc>Created with Sketch.</desc>
    <defs>
        <polygon id="path-1" points="2.09677767e-15 47.7051137 2.09677767e-15 1.77635684e-14 45.6797235 1.77635684e-14 45.6797235 47.7051137"></polygon>
    </defs>
    <g id="Get-a-Quote" stroke="none" stroke-width="1" fill="none" fill-rule="evenodd">
        <g id="GET-A-QUOTE-11-b" transform="translate(-686.000000, -275.000000)">
            <g id="Group-15" transform="translate(685.000000, 276.000000)">
                <g id="Group-8" transform="translate(6.020173, 19.656448) scale(-1, 1) translate(-6.020173, -19.656448) translate(0.520173, 10.156448)" stroke-linecap="round" stroke="#FAD214">
                    <g id="Group-7" transform="translate(0.000000, 0.000000)">
                        <path d="M10.0986762,9.67453709 L0.801967438,7.54902402" id="Line-Copy-12" transform="translate(5.450322, 8.611781) scale(-1, 1) translate(-5.450322, -8.611781) "></path>
                        <path d="M9.80921452,18.8330562 L0.51250578,16.7075432" id="Line-Copy-15" transform="translate(5.160860, 17.770300) scale(-1, -1) translate(-5.160860, -17.770300) "></path>
                        <path d="M5.61556594,3.71412552 L0.244134225,0.360538239" id="Line-Copy-11" transform="translate(2.929850, 2.037332) scale(-1, 1) translate(-2.929850, -2.037332) "></path>
                    </g>
                </g>
                <g id="Group-8" transform="translate(54.234467, 9.255814)" stroke-linecap="round" stroke="#FAD214">
                    <g id="Group-7">
                        <path d="M10.0986762,9.67453709 L0.801967438,7.54902402" id="Line-Copy-12" transform="translate(5.450322, 8.611781) scale(-1, 1) translate(-5.450322, -8.611781) "></path>
                        <path d="M9.80921452,18.8330562 L0.51250578,16.7075432" id="Line-Copy-15" transform="translate(5.160860, 17.770300) scale(-1, -1) translate(-5.160860, -17.770300) "></path>
                        <path d="M5.61556594,3.71412552 L0.244134225,0.360538239" id="Line-Copy-11" transform="translate(2.929850, 2.037332) scale(-1, 1) translate(-2.929850, -2.037332) "></path>
                    </g>
                </g>
                <g id="Page-1" transform="translate(10.184332, 0.000000)">
                    <g id="Group-3" transform="translate(0.000000, 13.383721)">
                        <mask id="mask-2" fill="white">
                            <use xlink:href="#path-1"></use>
                        </mask>
                        <g id="Clip-2"></g>
                        <path d="M42.1121315,28.8693351 C39.1679108,37.0305983 32.8449711,43.2271076 23.3143676,47.2941073 C13.7426011,43.209518 7.40716004,36.9787091 4.48062414,28.7681951 C2.83318993,24.1468311 2.7825747,20.1862482 2.86673014,18.447227 C5.89876526,18.1232859 10.4690764,16.5176521 10.4690764,12.5388934 C10.4690764,9.93446566 8.80273775,8.404467 7.2373246,7.63638949 L11.0371256,2.45421161 L35.5919144,2.45421161 L39.3917155,7.63638949 C37.8263023,8.404467 36.1599637,9.93446566 36.1599637,12.5388934 C36.1599637,16.5167726 40.7281405,18.1226995 43.7601756,18.4469338 C43.8421966,20.204131 43.7873127,24.2259841 42.1121315,28.8693351" id="Fill-1" stroke="#765DFF" mask="url(#mask-2)"></path>
                    </g>
                    <path d="M23.3136868,57.8501338 C15.5358456,54.09357 10.37906,48.4524501 7.98597968,41.080985 C6.86485894,37.6269877 6.61680701,35.3578966 6.62288283,33.329447 C9.88110698,32.6953125 13.2307326,29.9114057 13.2307326,26.0011885 C13.2307326,23.4788725 12.022437,21.9261632 10.8762205,21.0212527 L12.8056205,17.8501338 L33.972913,17.8501338 L35.7514173,21.0212527 C34.6049366,21.926442 33.3963769,23.4791513 33.3963769,26.0011885 C33.3963769,29.9094537 36.743625,32.6933604 40,33.3283315 C39.9981508,35.118911 39.7918371,37.5804176 38.6110149,41.1732887 C36.2036696,48.5004145 31.0577148,54.1105807 23.3136868,57.8501338 Z" id="Fill-4" stroke="#765DFF" stroke-width="0.5"></path>
                    <g id="Group-13" transform="translate(17.000000, 0.000000)">
                        <g id="Group-14">
                            <path d="M9.23025371,4.37791307 C11.8987278,5.04975156 12.1545691,8.54268029 10.9119529,8.47523816 C9.66875583,8.40808301 10.2536189,7.43404635 9.8151168,5.9227685 C9.37632428,4.41149065 7.36589373,4.0757149 7.36589373,4.0757149 C7.36589373,4.0757149 9.04410811,4.81815239 9.23025371,6.12423395 C9.3725491,7.12409951 8.82805144,8.20661756 7.73528094,8.10588483 C6.64251044,8.00515211 6.85392073,4.04213733 6.85392073,4.04213733 C6.85392073,4.04213733 7.45736934,3.84038489 7.45736934,3.21934325 C7.45736934,2.49125516 6.98750416,2.28146706 6.71511013,2.22033865 C6.75053878,2.03666645 6.81994408,1.86849159 6.95352751,1.84639353 C7.26222138,1.79559668 7.35631057,2.12591966 7.35631057,2.12591966 L8.06778751,1.66013843 L7.34788901,1.15188301 C7.1419963,1.57547703 6.67939109,1.44001878 6.64512403,1.15188301 C6.61056658,0.864034225 6.97066103,0.745508256 6.97066103,0.745508256 L6.52518935,0.000200891473 L6.07942727,0.745508256 C6.07942727,0.745508256 6.43952172,0.864034225 6.40496427,1.15188301 C6.37069721,1.44001878 5.908092,1.57547703 5.70219929,1.15188301 L4.98230079,1.66013843 L5.69377772,2.12591966 C5.69377772,2.12591966 5.78786692,1.79559668 6.09656079,1.84639353 C6.23014422,1.86849159 6.29925912,2.03666645 6.33497817,2.22033865 C6.06258414,2.28146706 5.59300936,2.49125516 5.59300936,3.21934325 C5.59300936,3.84038489 6.19587717,4.04213733 6.19587717,4.04213733 C6.19587717,4.04213733 6.40757785,8.00515211 5.31480736,8.10588483 C4.22203686,8.20661756 3.6775392,7.12409951 3.81983459,6.12423395 C4.00598019,4.81815239 5.68419457,4.0757149 5.68419457,4.0757149 C5.68419457,4.0757149 3.67376401,4.41149065 3.2349715,5.9227685 C2.79617899,7.43404635 3.38104207,8.40808301 2.13842582,8.47523816 C0.895228766,8.54268029 1.15136046,5.04975156 3.81983459,4.37791307 C3.81983459,4.37791307 -0.0686046874,4.97169087 0.486056927,7.95005045 C0.558075817,8.33633605 0.718375927,8.70310648 0.907425514,9.05437957 C1.02010023,9.26359369 1.15136046,9.5979345 1.15136046,10.0203806 L6.52518935,10.0203806 L11.8987278,10.0203806 C11.8987278,9.5979345 12.0299881,9.26359369 12.1426628,9.05437957 C12.3317124,8.70310648 12.4917221,8.33633605 12.563741,7.95005045 C13.118693,4.97169087 9.23025371,4.37791307 9.23025371,4.37791307" id="Fill-6" stroke="#765DFF" stroke-width="0.5"></path>
                            <polygon id="Fill-8" fill="#FAD214" points="1.14533267 11.2783343 11.9118664 11.2783343 11.9118664 10.319508 1.14533267 10.319508"></polygon>
                            <polygon id="Fill-10" fill="#765DFF" points="1.14533267 11.912538 11.9118664 11.912538 11.9118664 11.5567125 1.14533267 11.5567125"></polygon>
                        </g>
                    </g>
                </g>
                <polygon id="Stroke-74" fill="#FAD214" points="33.4723025 26.5930233 35.4402887 32.6626621 41.8085591 32.6626621 36.6569342 36.4134591 38.6244239 42.4835955 33.4723025 38.7298132 28.3186913 42.4835955 30.2864292 36.4134591 25.1340595 32.6626621 31.5028265 32.6626621"></polygon>
                <ellipse id="Oval-10-Copy" stroke="#F478A2" stroke-width="0.5" fill="#F478A2" stroke-linecap="round" stroke-linejoin="round" cx="26.7374682" cy="27.1841883" rx="1" ry="1"></ellipse>
                <ellipse id="Oval-10-Copy-3" stroke="#F478A2" stroke-width="0.5" fill="#F478A2" stroke-linecap="round" stroke-linejoin="round" cx="24.8639467" cy="37.7032055" rx="1" ry="1"></ellipse>
                <ellipse id="Oval-10-Copy-5" stroke="#F478A2" stroke-width="0.5" fill="#F478A2" stroke-linecap="round" stroke-linejoin="round" cx="33.2947934" cy="45.3533999" rx="1" ry="1"></ellipse>
                <ellipse id="Oval-10-Copy-2" stroke="#F478A2" stroke-width="0.5" fill="#F478A2" stroke-linecap="round" stroke-linejoin="round" cx="39.8521185" cy="27.1841883" rx="1" ry="1"></ellipse>
                <ellipse id="Oval-10-Copy-4" stroke="#F478A2" stroke-width="0.5" fill="#F478A2" stroke-linecap="round" stroke-linejoin="round" cx="42.6624007" cy="37.7032055" rx="1" ry="1"></ellipse>
                <g id="Group-6" transform="translate(34.000000, 41.000000)">
                    <path d="M0,26.8060302 C0,26.8060302 20.3160525,29.2493651 25.9707913,4.49378113" id="Stroke-33" stroke="#765DFF" stroke-width="0.5"></path>
                    <g id="Group-25" transform="translate(3.087823, 0.000000)"></g>
                    <g id="Group-11" transform="translate(2.977543, 0.000000)" stroke="#765DFF" stroke-width="0.5">
                        <path d="M18.9577388,15.0975544 C18.9577388,15.0975544 20.0392823,10.7394673 16.4407605,8.31765784 C16.4407605,8.31765784 14.9419581,12.4891091 18.9577388,15.0975544 Z" id="Stroke-21"></path>
                        <path d="M13.047854,22.0255758 C13.047854,22.0255758 17.0018782,24.966623 20.5496523,21.9269652 C20.5496523,21.9269652 16.9108546,18.591197 13.047854,22.0255758 Z" id="Stroke-11"></path>
                        <path d="M9.33043763,24.1874321 C9.33043763,24.1874321 12.3186445,28.1076213 16.5513783,26.1465518 C16.5513783,26.1465518 13.9737176,21.9322021 9.33043763,24.1874321 Z" id="Stroke-13"></path>
                        <path d="M2.91933889,26.3021838 C2.91933889,26.3021838 5.59473594,31.051092 10.517531,29.5412913 C10.517531,29.5412913 8.33511152,24.5313714 2.91933889,26.3021838 Z" id="Stroke-15"></path>
                        <path d="M20.9181773,11.0498818 C20.9181773,11.0498818 21.733094,7.76620452 19.0217171,5.94079419 C19.0217171,5.94079419 17.8918424,9.08435525 20.9181773,11.0498818 Z" id="Stroke-19"></path>
                        <path d="M15.2624942,20.0087383 C15.2624942,20.0087383 17.5386224,16.1283834 14.7918026,12.7708875 C14.7918026,12.7708875 12.1695698,16.3529036 15.2624942,20.0087383 Z" id="Stroke-23"></path>
                        <path d="M11.7032012,22.8386954 C11.7032012,22.8386954 14.5764874,19.3747892 12.4176965,15.6086442 C12.4176965,15.6086442 9.25173842,18.721285 11.7032012,22.8386954 Z" id="Stroke-25"></path>
                        <path d="M6.73441105,25.4594532 C6.73441105,25.4594532 10.8927685,21.845124 9.04329696,16.8552605 C9.04329696,16.8552605 4.60381333,19.9862863 6.73441105,25.4594532 Z" id="Stroke-27"></path>
                        <path d="M0.728273549,26.5720537 C0.728273549,26.5720537 5.61723677,24.0471767 5.01658811,18.7467176 C5.01658811,18.7467176 -0.0302568273,20.7331363 0.728273549,26.5720537 Z" id="Stroke-29"></path>
                        <path d="M23.0736924,4.72827379 C23.0736924,4.72827379 24.9325617,2.51984206 23.5637164,0.0921828042 C23.5637164,0.0921828042 21.5203833,2.07553724 23.0736924,4.72827379 Z" id="Stroke-31"></path>
                        <path d="M21.7732357,8.81214543 C21.7732357,8.81214543 24.6577991,8.95922564 25.4195516,6.34576619 C25.4195516,6.34576619 22.5621073,5.90647547 21.7732357,8.81214543 Z" id="Stroke-5"></path>
                        <path d="M19.6803899,13.7149864 C19.6803899,13.7149864 23.6760326,14.1996826 24.987686,10.635773 C24.987686,10.635773 21.0589014,9.74660621 19.6803899,13.7149864 Z" id="Stroke-7"></path>
                        <path d="M16.990601,18.0038511 C16.990601,18.0038511 21.0920351,19.578278 23.4224015,16.1324782 C23.4224015,16.1324782 19.4987186,14.1455025 16.990601,18.0038511 Z" id="Stroke-9"></path>
                        <path d="M22.1496547,7.27053305 C22.1496547,7.27053305 22.8432065,4.47573038 20.5348576,2.92163847 C20.5348576,2.92163847 19.5733365,5.59777415 22.1496547,7.27053305 Z" id="Stroke-17"></path>
                    </g>
                </g>
                <g id="Group-6" transform="translate(18.993735, 56.500000) scale(-1, 1) translate(-18.993735, -56.500000) translate(4.493735, 41.000000)">
                    <path d="M0,26.8060302 C0,26.8060302 20.3160525,29.2493651 25.9707913,4.49378113" id="Stroke-33" stroke="#765DFF" stroke-width="0.5"></path>
                    <g id="Group-25" transform="translate(3.087823, 0.000000)"></g>
                    <g id="Group-11" transform="translate(2.977543, 0.000000)" stroke="#765DFF" stroke-width="0.5">
                        <path d="M18.9577388,15.0975544 C18.9577388,15.0975544 20.0392823,10.7394673 16.4407605,8.31765784 C16.4407605,8.31765784 14.9419581,12.4891091 18.9577388,15.0975544 Z" id="Stroke-21"></path>
                        <path d="M13.047854,22.0255758 C13.047854,22.0255758 17.0018782,24.966623 20.5496523,21.9269652 C20.5496523,21.9269652 16.9108546,18.591197 13.047854,22.0255758 Z" id="Stroke-11"></path>
                        <path d="M9.33043763,24.1874321 C9.33043763,24.1874321 12.3186445,28.1076213 16.5513783,26.1465518 C16.5513783,26.1465518 13.9737176,21.9322021 9.33043763,24.1874321 Z" id="Stroke-13"></path>
                        <path d="M2.91933889,26.3021838 C2.91933889,26.3021838 5.59473594,31.051092 10.517531,29.5412913 C10.517531,29.5412913 8.33511152,24.5313714 2.91933889,26.3021838 Z" id="Stroke-15"></path>
                        <path d="M20.9181773,11.0498818 C20.9181773,11.0498818 21.733094,7.76620452 19.0217171,5.94079419 C19.0217171,5.94079419 17.8918424,9.08435525 20.9181773,11.0498818 Z" id="Stroke-19"></path>
                        <path d="M15.2624942,20.0087383 C15.2624942,20.0087383 17.5386224,16.1283834 14.7918026,12.7708875 C14.7918026,12.7708875 12.1695698,16.3529036 15.2624942,20.0087383 Z" id="Stroke-23"></path>
                        <path d="M11.7032012,22.8386954 C11.7032012,22.8386954 14.5764874,19.3747892 12.4176965,15.6086442 C12.4176965,15.6086442 9.25173842,18.721285 11.7032012,22.8386954 Z" id="Stroke-25"></path>
                        <path d="M6.73441105,25.4594532 C6.73441105,25.4594532 10.8927685,21.845124 9.04329696,16.8552605 C9.04329696,16.8552605 4.60381333,19.9862863 6.73441105,25.4594532 Z" id="Stroke-27"></path>
                        <path d="M0.728273549,26.5720537 C0.728273549,26.5720537 5.61723677,24.0471767 5.01658811,18.7467176 C5.01658811,18.7467176 -0.0302568273,20.7331363 0.728273549,26.5720537 Z" id="Stroke-29"></path>
                        <path d="M23.0736924,4.72827379 C23.0736924,4.72827379 24.9325617,2.51984206 23.5637164,0.0921828042 C23.5637164,0.0921828042 21.5203833,2.07553724 23.0736924,4.72827379 Z" id="Stroke-31"></path>
                        <path d="M21.7732357,8.81214543 C21.7732357,8.81214543 24.6577991,8.95922564 25.4195516,6.34576619 C25.4195516,6.34576619 22.5621073,5.90647547 21.7732357,8.81214543 Z" id="Stroke-5"></path>
                        <path d="M19.6803899,13.7149864 C19.6803899,13.7149864 23.6760326,14.1996826 24.987686,10.635773 C24.987686,10.635773 21.0589014,9.74660621 19.6803899,13.7149864 Z" id="Stroke-7"></path>
                        <path d="M16.990601,18.0038511 C16.990601,18.0038511 21.0920351,19.578278 23.4224015,16.1324782 C23.4224015,16.1324782 19.4987186,14.1455025 16.990601,18.0038511 Z" id="Stroke-9"></path>
                        <path d="M22.1496547,7.27053305 C22.1496547,7.27053305 22.8432065,4.47573038 20.5348576,2.92163847 C20.5348576,2.92163847 19.5733365,5.59777415 22.1496547,7.27053305 Z" id="Stroke-17"></path>
                    </g>
                </g>
            </g>
        </g>
    </g>
</svg>
