<?xml version="1.0" encoding="UTF-8"?>
<svg width="83px" height="35px" viewBox="0 0 83 35" version="1.1" xmlns="http://www.w3.org/2000/svg" xmlns:xlink="http://www.w3.org/1999/xlink">
    <!-- Generator: Sketch 47 (45396) - http://www.bohemiancoding.com/sketch -->
    <title>Emil_logo_desktop</title>
    <desc>Created with Sketch.</desc>
    <defs></defs>
    <g id="Insurance" stroke="none" stroke-width="1" fill="none" fill-rule="evenodd">
        <g id="Insurance_Teilkasko" transform="translate(-217.000000, -35.000000)" fill="#06C3C3">
            <g id="Group-13" transform="translate(216.000000, 25.000000)">
                <g id="Emil_logo_desktop" transform="translate(0.000000, 8.000000)">
                    <path d="M67.8099285,11.4965759 C66.3086037,13.2226786 63.952938,13.5339883 62.5481845,12.1921466 C61.1434311,10.8501512 61.2216846,8.36289852 62.7228628,6.6369494 C64.2241876,4.91084669 66.5799999,4.59938337 67.9847533,5.94137869 C69.3895068,7.28322043 69.3112532,9.77047315 67.8099285,11.4965759 Z M71.7306648,30.8529156 C71.7620249,31.244702 71.7639299,31.6515395 71.7303718,32.0579162 C71.7303718,32.0659024 71.7315441,32.0734279 71.7315441,32.0812606 C71.7315441,34.3627141 69.9281959,36.239941 67.7634746,36.239941 C65.5547907,36.239941 64.5429168,35.4760265 63.8442037,34.2607359 C63.1727473,33.0927485 63.114277,31.6516931 63.114277,30.3358066 C63.114277,30.3331957 63.3065404,24.2965205 63.3065404,24.2965205 C63.3065404,23.5468891 63.3163587,22.8695946 63.3075662,22.2670943 C63.3075662,22.2614118 63.3072731,22.2563436 63.3072731,22.2506611 C63.3061007,22.1729488 63.3036095,22.0996904 63.3017045,22.0244355 C63.2186151,20.377888 62.2124564,20.0601278 61.7257897,20.0031491 C61.5960999,19.9879445 61.5100796,19.8517177 61.556387,19.7239379 C62.3455167,17.5487628 64.4903082,15.1849896 66.8461205,15.5489778 C68.3386527,15.7796573 68.881445,16.7166581 69.1147402,18.531531 C69.2672906,19.7171803 69.2878065,23.7437806 69.2878065,24.9301978 C69.2878065,26.1663755 69.1919679,27.2838346 69.4580885,28.5220088 C69.699297,29.6440754 70.451205,30.4895417 71.5058691,30.6081066 C71.6261803,30.6217754 71.7207,30.7266716 71.7306648,30.8529156 Z M83.9830576,30.8658164 C84.0132452,31.2536098 84.0147107,31.6558398 83.9815921,32.0579162 C83.9817387,32.0659024 83.9827645,32.0734279 83.9827645,32.0812606 C83.9827645,34.3627141 82.1794162,36.239941 80.014695,36.239941 C77.8061576,36.239941 76.7941372,35.4760265 76.095424,34.2607359 C75.4239677,33.0927485 75.3654974,31.6516931 75.3654974,30.3358066 C75.3654974,30.3331957 75.5577607,24.2965205 75.5577607,24.2965205 C75.5577607,23.5468891 75.5675791,9.35795319 75.5587865,8.7552993 C75.5587865,8.74977037 75.5584935,8.7445486 75.5584935,8.73886608 C75.5573211,8.66115383 75.5548299,8.58789545 75.5529248,8.5126405 C75.4707147,6.88513713 74.4868304,6.55585836 73.994009,6.49335068 C73.8512769,6.47538164 73.7684806,6.317807 73.820503,6.17727991 C74.6195976,4.01178047 76.7541312,1.67534481 79.0974874,2.03733645 C80.5898731,2.26786231 81.1328119,3.20501675 81.3659605,5.01973599 C81.518511,6.20553891 81.5390269,23.7437806 81.5390269,24.9301978 C81.5390269,26.1663755 81.4431883,27.2838346 81.7093089,28.5220088 C81.9494915,29.6397752 82.6965636,30.4829377 83.7449265,30.6067244 C83.8721251,30.6217754 83.9725065,30.7318933 83.9830576,30.8658164 Z M59.4480844,30.7383438 C59.4800306,31.1328947 59.4820822,31.5426502 59.4485241,31.9522521 C59.4485241,31.9600848 59.4495499,31.9677638 59.4495499,31.9755965 C59.4495499,34.2568964 57.9751889,36.2033886 55.8106141,36.2232006 C54.1609887,36.2382516 53.06456,35.5075107 52.3658468,34.2922201 C51.6943905,33.1243863 51.6359202,31.6833309 51.6359202,30.3674444 C51.6359202,30.3648335 51.6488159,24.2945239 51.6488159,24.2945239 C51.6488159,22.6046665 50.2537342,21.2397875 48.6108497,21.4024303 C47.3174683,21.5289815 46.3133612,22.6585736 46.1337005,23.981064 C45.8929316,25.7544699 46.0806522,27.7290675 46.2263151,29.5067736 C46.3891235,31.4938113 47.0859316,34.2054466 45.4915526,35.5253262 C44.0459139,36.7220334 41.7834489,36.1640717 40.1977159,35.6607851 C40.0930848,35.6276115 40.0305112,35.5191829 40.0445793,35.4055326 C40.4352608,32.3597039 40.5854665,29.291913 40.4613453,26.2205898 C40.4103486,24.9593783 40.2514969,23.6290552 39.5294835,22.5739502 C38.9567966,21.7373916 38.0404683,21.3029095 37.0625922,21.4035054 C35.6289699,21.5507901 34.5663925,22.8755843 34.5663925,24.3852906 L34.543825,33.4194164 C34.543825,36.7794729 31.056707,36.3585059 29.3578434,35.9542794 C29.0203567,35.8658164 28.6869732,35.748173 28.3541759,35.6385157 C28.257458,35.6067244 28.1967896,35.5048998 28.2111507,35.3996965 C28.4856242,33.4003723 28.830438,31.7754798 28.9425428,29.8511033 C29.1320218,26.5993218 29.3112429,21.913396 25.5329456,20.8542979 C25.4054539,20.8185134 25.3282262,20.6805972 25.3636894,20.547442 C25.7274071,19.1840988 26.4478085,17.8688267 27.4867927,17.0445547 C29.1104801,15.7564665 30.9390336,15.3972393 32.044841,17.5631995 C32.1337921,17.7372073 32.3371927,17.7954147 32.4967771,17.6905186 L33.0130453,17.3515641 C34.9658665,16.0307631 38.7573527,14.2059075 42.4015639,16.6670513 C42.8356219,16.9602384 43.1405762,17.2889029 43.3866205,17.5578241 C43.5558768,17.7428899 43.8262471,17.7768314 44.0336043,17.640451 L44.607317,17.2631012 C46.559259,15.9423001 50.6611215,14.1954639 54.2368975,16.7654971 C56.8642525,18.6484065 57.0427409,22.4318873 57.0107947,25.4451567 C57.0000971,26.4463546 56.9643408,27.430505 57.1760943,28.4163448 C57.4178889,29.5413294 58.1733139,30.3883315 59.2323743,30.503364 C59.3478496,30.5159577 59.4382661,30.6171679 59.4480844,30.7383438 Z M17.3051877,8.5567184 C17.3435817,8.5584078 17.3790449,8.55932928 17.4090861,8.5591757 C17.3745021,8.55748631 17.3397716,8.55794705 17.3051877,8.5567184 Z M26.5739813,4.96214292 C27.8585702,6.57797409 28.1066661,9.1450892 26.8943226,10.8848607 C25.8463993,12.3888845 23.9530742,12.8573081 22.309457,13.1294546 C22.1217364,13.160478 21.9521871,12.9969137 21.9744615,12.7991007 C22.1888528,10.8906968 20.892394,9.5149135 19.2726631,8.92024586 C18.6652458,8.69601684 18.0100556,8.57514818 17.3664423,8.55610407 C17.3368408,8.55518258 17.3072393,8.55610407 17.2776377,8.55548975 C17.287163,8.55595049 17.296102,8.55641124 17.3051877,8.5567184 C17.2845252,8.55595049 17.2637162,8.55579691 17.2430538,8.55533617 C16.2219478,8.53951727 15.2058242,8.69939563 14.213587,8.94374383 C12.791102,9.29421686 11.3879605,9.7667872 10.0242388,10.3150732 C9.89953143,10.3651408 9.96840626,10.4168978 10.0333245,10.4886203 C10.351321,10.8398613 10.4774938,11.3110494 10.5289301,11.7814696 C10.6323889,12.7281461 10.6594992,14.6586658 10.672395,15.7896401 C10.6808944,16.5243741 10.6650678,16.8071177 10.6521721,17.5522952 C10.6521721,17.5547525 10.6546633,17.5569026 10.6568615,17.5558276 C11.8312506,17.0619094 13.0583949,16.4317644 14.3498713,16.4629415 C16.009022,16.5028727 17.1621625,17.75533 16.9863119,19.5442475 C16.8717159,20.7096241 16.4265207,21.9448803 15.8177844,22.9411636 C15.7197477,23.1004276 15.5774552,23.0714007 15.5059426,23.0428345 C15.4956847,23.0379199 15.4844009,23.0331589 15.4738499,23.0282443 C15.4659366,23.0240976 15.4612473,23.0211795 15.4612473,23.0211795 C14.6510155,22.6492051 13.1190634,22.3431171 10.5208703,23.1523382 C10.5194049,23.1527989 10.5183791,23.1543347 10.5183791,23.1558705 C10.5163275,23.2578487 10.5144225,23.35353 10.512664,23.4433751 C10.4625465,25.9235631 10.0031368,28.9105701 12.5651339,30.0952979 C15.4719448,31.4394434 20.1755096,29.4021845 20.3595666,25.9157305 C20.3679195,25.7572343 20.4993678,25.6371336 20.6503063,25.6498808 C22.5128576,25.8054589 23.9045688,26.8602568 24.3578238,28.8581988 C24.7429366,30.5552746 24.1718617,32.4801118 23.0130061,33.6940201 C21.6695072,35.1015948 19.687231,35.6815186 17.8774349,35.9820776 C13.2380557,36.7529033 7.01689996,36.0095687 5.05807048,30.7894864 C4.06583329,28.1451198 4.40639735,25.1773105 4.57653283,22.3828947 C4.77245974,19.1678192 5.17999358,15.8424721 4.81715511,12.6295467 C4.66138076,11.6615224 4.17881732,11.7911452 4.17881732,11.7911452 L4.1801362,11.7830054 C3.2604374,11.8335337 2.77508966,11.6274273 2.77508966,11.6274273 C2.15125955,11.4365255 1.59308034,11.0468892 1.30043558,10.4471533 C0.552777313,8.9148705 1.37429284,7.06267737 1.88455276,5.61501796 C1.91708512,5.52256189 2.0170269,5.47648743 2.10334025,5.51611146 C2.81744035,5.84400801 3.24695552,6.58841764 7.23187736,5.26930596 C9.23247137,4.60706245 11.1766466,3.76589646 13.1882313,3.13713372 C17.4493852,1.80512119 23.3277787,0.879024627 26.5739813,4.96214292 Z" id="Fill-1-Copy-11"></path>
                </g>
            </g>
        </g>
    </g>
</svg>