<svg xmlns="http://www.w3.org/2000/svg" width="50" height="21" viewBox="-1 0 50 21">
  <path d="M38.6 5.5C39.5 4.5 39.5 3.1 38.7 2.3 37.9 1.5 36.6 1.7 35.7 2.7 34.8 3.7 34.8 5.2 35.6 6 36.4 6.7 37.8 6.6 38.6 5.5ZM40.9 16.9C40.9 16.8 40.8 16.7 40.8 16.7 40.2 16.6 39.7 16.1 39.6 15.5 39.4 14.8 39.5 14.1 39.5 13.4 39.5 12.7 39.5 10.3 39.4 9.7 39.3 8.6 38.9 8 38.1 7.9 36.7 7.7 35.5 9.1 35 10.4 35 10.4 35 10.5 35.1 10.5 35.4 10.5 36 10.7 36 11.7 36 11.7 36 11.8 36 11.8 36 11.8 36 11.8 36 11.8 36 12.2 36 12.6 36 13 36 13 35.9 16.5 35.9 16.6 35.9 17.3 36 18.2 36.3 18.8 36.7 19.6 37.3 20 38.6 20 39.9 20 40.9 18.9 40.9 17.6 40.9 17.6 40.9 17.6 40.9 17.6 40.9 17.3 40.9 17.1 40.9 16.9ZM48 16.9C48 16.8 47.9 16.7 47.8 16.7 47.2 16.6 46.8 16.1 46.7 15.5 46.5 14.8 46.6 14.1 46.6 13.4 46.6 12.7 46.6 2.5 46.5 1.8 46.3 0.7 46 0.2 45.2 0 43.8-0.2 42.6 1.2 42.1 2.4 42.1 2.5 42.1 2.6 42.2 2.6 42.5 2.7 43.1 2.9 43.1 3.8 43.1 3.8 43.1 3.9 43.1 3.9 43.1 3.9 43.1 3.9 43.1 3.9 43.1 4.3 43.1 12.6 43.1 13 43.1 13 43 16.5 43 16.6 43 17.3 43 18.2 43.4 18.8 43.8 19.6 44.4 20 45.7 20 46.9 20 48 18.9 48 17.6 48 17.6 48 17.6 48 17.6 48 17.3 48 17.1 48 16.9ZM33.8 16.8C33.8 16.7 33.7 16.7 33.7 16.6 33.1 16.6 32.6 16.1 32.5 15.4 32.4 14.9 32.4 14.3 32.4 13.7 32.4 11.9 32.3 9.7 30.8 8.6 28.7 7.1 26.3 8.1 25.2 8.9L24.9 9.1C24.8 9.2 24.6 9.2 24.5 9.1 24.4 8.9 24.2 8.7 23.9 8.6 21.8 7.1 19.6 8.2 18.5 9L18.2 9.2C18.1 9.2 18 9.2 18 9.1 17.3 7.8 16.3 8 15.3 8.8 14.7 9.3 14.3 10 14.1 10.8 14.1 10.9 14.1 11 14.2 11 16.4 11.6 16.3 14.4 16.2 16.3 16.1 17.4 15.9 18.3 15.7 19.5 15.7 19.6 15.8 19.6 15.8 19.6 16 19.7 16.2 19.8 16.4 19.8 17.4 20.1 19.4 20.3 19.4 18.4L19.4 13.1C19.4 12.2 20 11.4 20.9 11.3 21.4 11.3 21.9 11.5 22.3 12 22.7 12.6 22.8 13.4 22.8 14.1 22.9 15.9 22.8 17.7 22.6 19.5 22.6 19.6 22.6 19.6 22.7 19.7 23.6 20 24.9 20.3 25.7 19.6 26.7 18.8 26.2 17.2 26.2 16.1 26.1 15 26 13.9 26.1 12.8 26.2 12.1 26.8 11.4 27.5 11.3 28.5 11.2 29.3 12 29.3 13 29.3 13 29.3 16.6 29.3 16.6 29.3 17.3 29.3 18.2 29.7 18.9 30.1 19.6 30.7 20 31.7 20 32.9 20 33.8 18.8 33.8 17.5 33.8 17.5 33.8 17.5 33.8 17.5 33.8 17.3 33.8 17 33.8 16.8ZM9.4 3.8C9.5 3.8 9.5 3.8 9.5 3.8 9.5 3.8 9.5 3.8 9.4 3.8ZM14.8 1.7C12.9-0.7 9.5-0.1 7 0.7 5.9 1 4.8 1.5 3.6 1.9 1.3 2.7 1.1 2.2 0.6 2.1 0.6 2 0.5 2.1 0.5 2.1 0.2 3-0.3 4 0.2 4.9 0.3 5.3 0.7 5.5 1 5.6 1 5.6 1.3 5.7 1.8 5.7L1.8 5.7C1.8 5.7 2.1 5.6 2.2 6.2 2.4 8.1 2.2 10 2.1 11.9 2 13.5 1.8 15.3 2.3 16.8 3.5 19.9 7.1 20.3 9.8 19.8 10.8 19.7 12 19.3 12.7 18.5 13.4 17.8 13.7 16.7 13.5 15.7 13.2 14.5 12.4 13.9 11.4 13.8 11.3 13.8 11.2 13.9 11.2 14 11.1 16 8.4 17.2 6.7 16.4 5.2 15.7 5.5 14 5.5 12.5 5.5 12.5 5.5 12.4 5.5 12.4 5.5 12.4 5.5 12.4 5.5 12.4 7 11.9 7.9 12.1 8.4 12.3 8.4 12.3 8.4 12.3 8.4 12.3 8.4 12.3 8.4 12.3 8.4 12.3 8.4 12.3 8.5 12.3 8.6 12.2 8.9 11.7 9.2 10.9 9.2 10.2 9.3 9.2 8.7 8.5 7.7 8.4 7 8.4 6.3 8.8 5.6 9.1 5.6 9.1 5.6 9.1 5.6 9.1 5.6 8.6 5.6 8.5 5.6 8.1 5.6 7.4 5.6 6.3 5.5 5.7 5.5 5.4 5.4 5.2 5.2 5 5.2 4.9 5.1 4.9 5.2 4.9 6 4.5 6.8 4.3 7.6 4.1 8.2 3.9 8.8 3.8 9.4 3.8 9.4 3.8 9.4 3.8 9.4 3.8 9.4 3.8 9.4 3.8 9.4 3.8 9.4 3.8 9.4 3.8 9.5 3.8 9.8 3.8 10.2 3.9 10.6 4 11.5 4.4 12.3 5.2 12.1 6.3 12.1 6.4 12.2 6.5 12.3 6.5 13.3 6.3 14.4 6.1 15 5.2 15.7 4.2 15.5 2.7 14.8 1.7Z" fill="#0FE1C3"/>
</svg>