<?xml version="1.0" encoding="UTF-8"?>
<svg width="124px" height="115px" viewBox="0 0 124 115" version="1.1" xmlns="http://www.w3.org/2000/svg" xmlns:xlink="http://www.w3.org/1999/xlink">
    <!-- Generator: Sketch 47 (45396) - http://www.bohemiancoding.com/sketch -->
    <title>Group</title>
    <desc>Created with Sketch.</desc>
    <defs>
        <polygon id="path-1" points="3.09571376e-16 6.59298409 3.09571376e-16 0.0692647519 6.98564223 0.0692647519 6.98564223 6.59298409"></polygon>
    </defs>
    <g id="Booking-funnel" stroke="none" stroke-width="1" fill="none" fill-rule="evenodd">
        <g id="21" transform="translate(-536.000000, -267.000000)">
            <g id="Group" transform="translate(536.000000, 268.000000)">
                <g id="Group-6">
                    <g id="Group-5">
                        <g id="Group-8">
                            <g id="Group-4">
                                <ellipse id="Oval-16-Copy-2" fill="#1A2020" opacity="0.05" cx="61.9889213" cy="106.696367" rx="61.9889213" ry="6.66852291"></ellipse>
                                <path d="M61.1941916,108.363497 C87.5292192,108.363497 108.877977,106.497498 108.877977,104.19567 C108.877977,101.893843 87.5292192,101.694974 61.1941916,101.694974 C34.8591639,101.694974 13.5104059,101.893843 13.5104059,104.19567 C13.5104059,106.497498 34.8591639,108.363497 61.1941916,108.363497 Z" id="Oval-15-Copy-2" fill="#1A2020" opacity="0.1"></path>
                                <path d="M103.314869,86.6907978 L92.983382,97.5271476" id="Line" stroke="#E4DFFF" stroke-width="2" stroke-linecap="square" stroke-linejoin="round"></path>
                                <path d="M22.2524333,25.0069609 L22.2524333,3.99007874 C22.2524333,1.7864191 24.0451318,0 26.2485555,0 L104.087125,0 C106.294123,0 108.083247,1.79325032 108.083247,3.99735218 L108.083247,81.8598803 C108.083247,84.0675569 106.850684,87.1500271 105.327322,88.7478302 L97.9486904,96.4870291 L94.950575,99.6316517 C93.4252072,101.231559 90.3896019,102.52854 88.1901167,102.52854 L26.2509688,102.52854 C24.0426386,102.52854 22.2524333,100.736533 22.2524333,98.5281759 L22.2524333,80.8558403 L22.2524333,25.0069609 Z" id="Rectangle-22" stroke="#1A2020" fill="#FFFFFF" stroke-linecap="round"></path>
                                <path d="M32.5054761,45.4306931 L96.9570308,45.4306931" id="Line-Copy-16" stroke="#06C3C3" stroke-width="0.75" stroke-linecap="round"></path>
                                <path d="M32.5643002,53.3316832 L96.9570308,53.3316832" id="Line-Copy-17" stroke="#06C3C3" stroke-width="0.75" stroke-linecap="round"></path>
                                <path d="M32.977583,61.2326733 L96.9570308,61.2326733" id="Line-Copy-19" stroke="#06C3C3" stroke-width="0.75" stroke-linecap="round"></path>
                                <path d="M33.2991878,69.4155663 L96.9570308,69.4155663" id="Line-Copy-18" stroke="#06C3C3" stroke-width="0.75" stroke-linecap="round"></path>
                                <path d="M33.3736734,77.3165564 L96.9570308,77.3165564" id="Line-Copy-18" stroke="#06C3C3" stroke-width="0.75" stroke-linecap="round"></path>
                                <path d="M33.3736734,88.6036851 L50.5345519,88.6036851" id="Line-Copy-18" stroke="#06C3C3" stroke-width="0.75" stroke-linecap="round"></path>
                            </g>
                        </g>
                    </g>
                    <path d="M105.62963,85.2121212 C105.128432,86.2655228 104.522209,87.2190127 103.869633,87.9220916 L96.7765211,95.5641293 L94.0951542,98.4530035 C93.508427,99.0851367 92.7264866,99.6765568 91.8518519,100.181818" id="Rectangle-22" stroke="#1A2020" opacity="0.101279438" stroke-linecap="round"></path>
                    <path d="M91.2037037,101.217752 L106.774117,84.5606061 L91.2037037,84.5606061 L91.2037037,101.217752 Z" id="Rectangle-27" stroke="#1A2020"></path>
                </g>
                <g id="exclamation_point" transform="translate(62.000000, 13.000000)">
                    <g id="Group-4">
                        <path d="M6.13754574,15.0695081 C6.02157702,16.6659093 5.22905121,17.7220725 3.4602001,17.7047651 C1.68609758,17.6878698 0.953525402,16.6020367 0.842370483,15.0114047 C0.598617374,11.5235524 0.281344477,8.04064509 0.0472189595,4.55279281 C-0.148396192,1.63814499 1.06205461,0.0475129215 3.41118691,0.000947785945 C5.84302896,-0.0468535922 7.11168294,1.60806308 6.98214807,3.93879235 C6.66531279,8.09668808 6.39048882,11.58248 6.13754574,15.0695081 Z" id="Fill-1" fill="#06C3C3"></path>
                        <g id="Group-5" transform="translate(0.000000, 20.000261)">
                            <mask id="mask-2" fill="white">
                                <use xlink:href="#path-1"></use>
                            </mask>
                            <g id="Clip-4"></g>
                            <path d="M6.98534268,3.35582158 C6.96039847,5.14260412 5.35127785,6.61579315 3.44895332,6.59271662 C1.54225261,6.57046425 -0.0226686015,5.06513292 8.75235579e-05,3.27587789 C0.0228436486,1.47343627 1.59257866,0.0492848692 3.53385117,0.0694768306 C5.47424845,0.0900808729 7.0102869,1.55255579 6.98534268,3.35582158" id="Fill-3" fill="#06C3C3" mask="url(#mask-2)"></path>
                        </g>
                    </g>
                </g>
            </g>
        </g>
    </g>
</svg>