<?xml version="1.0" encoding="UTF-8"?>
<svg width="88px" height="86px" viewBox="0 0 88 86" version="1.1" xmlns="http://www.w3.org/2000/svg" xmlns:xlink="http://www.w3.org/1999/xlink">
    <!-- Generator: Sketch 46.2 (44496) - http://www.bohemiancoding.com/sketch -->
    <title>Group 5</title>
    <desc>Created with Sketch.</desc>
    <defs>
        <polygon id="path-1" points="0.0714453315 0.0126743952 72.4111641 0.0126743952 72.4111641 88.2982863 0.0714453315 88.2982863 0.0714453315 0.0126743952"></polygon>
        <rect id="path-3" x="12.6006601" y="72.1898437" width="5.73226771" height="5.76651996" rx="2.86613385"></rect>
    </defs>
    <g id="Web" stroke="none" stroke-width="1" fill="none" fill-rule="evenodd">
        <g id="GET-A-QUOTE-19" transform="translate(-664.000000, -226.000000)">
            <g id="Group-5" transform="translate(665.000000, 224.000000)">
                <g id="Group-4">
                    <g id="Page-1" transform="translate(0.000000, 42.300000)" stroke="#765DFF" stroke-width="2">
                        <path d="M21.4679572,0.840361235 C22.808935,0.83744326 23.6777849,1.90711628 23.3900895,3.26209192 C23.2241963,4.04279132 22.9891409,4.80918324 22.8093193,5.58734118 C21.8952258,9.54204395 21.5031147,13.5481407 21.9180878,17.5842644 C22.1592909,19.9306925 22.5929953,22.2660135 23.0796281,24.5781789 C23.5403251,26.766754 24.1195583,28.93688 24.7635351,31.081309 C25.4524672,33.3754018 26.2444702,35.6416327 27.054148,37.8985448 C27.7666145,39.884556 27.1185073,40.8292268 24.9523862,40.8316741 C20.6798926,40.8361923 16.4072069,40.8591596 12.1348094,40.8443814 C10.3470631,40.838169 8.63395435,40.3952016 7.07482751,39.5661203 C5.83740086,38.9082582 5.057117,37.7568819 4.38144093,36.5693603 C2.63749738,33.5044516 1.7394457,30.1769251 1.23043127,26.730044 C0.598365804,22.4492811 0.432376575,18.1467746 0.657153656,13.8319373 C0.81065527,10.886289 1.19863588,7.96765545 2.08727382,5.13712593 C2.42040498,4.07601858 2.79926003,3.01274628 3.70374764,2.25454352 C4.79420466,1.34037031 6.02990226,0.812969925 7.50219214,0.831607311 C9.75668706,0.860034032 12.0116623,0.83904344 14.2665414,0.83904344 C16.6669493,0.841867286 19.0674533,0.845632415 21.4679572,0.840361235 Z" id="Fill-1"></path>
                    </g>
                    <g id="Page-1" transform="translate(17.100896, 0.000000)">
                        <g id="Group-3" transform="translate(0.132181, 0.092946)">
                            <mask id="mask-2" fill="white">
                                <use xlink:href="#path-1"></use>
                            </mask>
                            <g id="Clip-2"></g>
                            <path d="M5.85623862,45.3875893 C7.82906798,44.2615613 12.4182627,41.3447634 14.4061438,40.2433719 C15.6246934,39.5683512 16.5628791,38.6561046 17.3652818,37.597231 C18.7844851,35.7247562 20.1591694,33.8218832 21.6089001,31.9706673 C22.9639748,30.2404486 24.7345605,28.8774928 26.3830369,27.4076463 C28.3807757,25.6264657 29.9914109,23.5788531 31.2320081,21.2608349 C32.4068867,19.0654032 33.1682682,16.7596038 33.4625179,14.331516 C33.5831433,13.3359224 33.4861554,12.3164871 33.4771456,11.3079793 C33.4646378,9.88522037 33.3731618,8.45908382 33.4532961,7.04119256 C33.4918792,6.35603906 33.779769,5.66025608 34.0740187,5.01722308 C34.3713422,4.3679316 35.0270441,4.01229153 35.7545063,3.94444176 C38.9530932,3.64632002 41.9168951,4.19388652 44.3794339,6.27835455 C45.9459741,7.60455425 46.7594005,9.3048714 47.1220186,11.242017 C47.8201195,14.9709727 47.2844071,18.5855871 46.0790012,22.1465575 C45.5625803,23.6719355 44.8922508,25.1609547 44.5065252,26.7133534 C44.0562469,28.5258264 43.8711749,30.3948242 43.5103587,32.2288541 C43.3197748,33.1980229 43.0296591,34.1532841 42.7256577,35.0981144 C42.5881786,35.5250812 42.6977803,35.7945928 43.128343,35.8186333 C44.145603,35.8753569 45.1707068,35.9174774 46.1863769,35.863436 C47.981978,35.7676714 49.7721734,35.4977625 51.5661846,35.4841528 C53.2892833,35.4711391 55.014714,35.6873047 56.7384488,35.8088979 C58.62489,35.9420145 60.4219752,36.3920284 62.097375,37.2186432 C64.0567426,38.1853285 65.147353,39.7096138 65.3596664,41.7862339 C65.5489783,43.6384431 65.1155537,45.4009476 64.5327783,47.1466635 C64.1998395,48.1434491 64.2350307,48.2829236 65.2342712,48.7413814 C67.6834542,49.8650252 68.5153242,51.7725673 68.3757253,54.2038341 C68.2644277,56.145152 67.2366739,57.6772852 65.9862189,59.1231905 C64.5301284,60.6264155 64.4310205,60.9135105 65.38076,62.6043902 C67.3059964,66.0321446 66.1776508,70.5464886 63.6841607,73.043519 C62.7859361,73.9429506 61.7581823,74.7384718 60.7266126,75.5072702 C60.0888244,75.9827153 59.7262062,76.4674984 59.8408957,77.264907 C60.2631906,80.2045007 58.7517693,82.3274136 56.4225756,84.0344859 C54.5409043,85.4135349 52.2996887,86.0421635 49.9800349,86.3829025 C48.3971711,86.61536 46.7914118,86.7099324 44.7889031,86.9061305 C42.4706272,86.7323834 39.7561318,86.5925116 37.0587021,86.3089929 C34.3430408,86.0236861 31.6363893,85.6405287 28.9400196,85.2198204 C24.4722162,84.5228453 20.0144825,83.7632855 15.643349,82.630105 C14.4744063,82.3270162 10.8228162,81.2364203 9.73231177,80.7537233" id="Fill-1" stroke="#765DFF" stroke-width="2" mask="url(#mask-2)"></path>
                        </g>
                    </g>
                </g>
                <g id="Rectangle-52-Copy" stroke-linecap="round" stroke-linejoin="round">
                    <use fill="#FAD214" fill-rule="evenodd" xlink:href="#path-3"></use>
                    <rect stroke="#765DFF" stroke-width="2" x="11.6006601" y="71.1898437" width="7.73226771" height="7.76651996" rx="3.86613385"></rect>
                </g>
            </g>
        </g>
    </g>
</svg>