<?xml version="1.0" encoding="UTF-8"?>
<svg width="267px" height="92px" viewBox="0 0 267 92" version="1.1" xmlns="http://www.w3.org/2000/svg" xmlns:xlink="http://www.w3.org/1999/xlink">
    <!-- Generator: Sketch 46.2 (44496) - http://www.bohemiancoding.com/sketch -->
    <title>Group 10</title>
    <desc>Created with Sketch.</desc>
    <defs>
        <polygon id="path-1" points="0.00136165994 0.0477869508 27.8973354 0.0477869508 27.8973354 31.2846743 0.00136165994 31.2846743"></polygon>
        <polygon id="path-3" points="21.0828654 23.3218611 2.33937531e-05 23.3218611 2.33937531e-05 0.00524501463 21.0828654 0.00524501463 21.0828654 23.3218611"></polygon>
        <polygon id="path-5" points="1.96553254e-16 4.47381063 1.96553254e-16 0.0470010817 4.4353284 0.0470010817 4.4353284 4.47381063"></polygon>
        <polygon id="path-7" points="7.71007942 4.58085094 7.71007942 8.73447678 0.563336425 8.73447678 0.563336425 0.427225095 7.71007942 0.427225095 7.71007942 4.58085094"></polygon>
    </defs>
    <g id="Web" stroke="none" stroke-width="1" fill="none" fill-rule="evenodd">
        <g id="GET-A-QUOTE-20" transform="translate(-600.000000, -225.000000)">
            <g id="Group-10" transform="translate(600.000000, 225.000000)">
                <g id="Group-7" transform="translate(192.000000, 0.000000)">
                    <path d="M0,15.1579349 C0.277200705,14.2765749 0.521963031,13.3840241 0.844688054,12.5190892 C1.01756988,12.055396 1.25293244,11.5774437 1.58284552,11.2121206 C3.69078732,8.87704897 5.81808156,6.55533405 8.48208355,4.7931555 C11.1038788,3.05877327 14.0646182,3.10606311 16.6934172,4.85939738 C19.235591,6.55515356 21.0783122,8.87939541 22.7256658,11.3491167 C23.5954199,12.6533779 24.3153308,14.0747808 24.936452,15.5122478 C26.1388838,18.2951289 25.4263453,20.7944515 23.4549764,22.9963174 C22.5485449,24.0087172 21.6008281,24.9924182 20.6022421,25.9170972 C19.3502312,27.0762399 18.9495434,28.4582948 19.5949935,29.967599 C20.2977636,31.6111919 21.0464267,33.2838447 22.0789256,34.7366538 C26.1488365,40.4630572 31.1990868,45.3234427 36.5042365,49.9378128 C38.9282682,52.0465429 41.4641755,54.013223 44.3773632,55.4532169 C44.9363723,55.7295556 45.5292943,55.9495798 46.1238751,56.144876 C48.0071443,56.7641564 49.5346971,56.3195958 50.9118538,54.8583034 C52.0671025,53.6327382 53.3790138,52.514207 54.7596723,51.5350184 C56.7854123,50.0984539 59.0549931,50.1506171 61.3230994,50.9832433 C64.2368401,52.0526797 66.7084235,53.828937 69.013023,55.818901 C70.0361221,56.7020659 71.0192262,57.6848645 71.7959043,58.7757799 C73.9309395,61.7757973 73.9359158,64.4252922 71.820786,67.4372223 C70.1056066,69.8795083 67.9045888,71.9209135 65.5716057,73.7733399 C63.4327,75.4714425 60.7898935,75.4986974 58.1802627,75.2591797 C51.4585142,74.6424262 45.4933541,71.942573 39.7648467,68.6768661 C33.4192728,65.0590123 27.7445836,60.5794724 22.4786918,55.5752319 C18.5210251,51.8138841 14.8576998,47.8070622 11.5845566,43.4666845 C7.6886334,38.3009004 4.29476785,32.8349521 2.13356075,26.7426841 C1.25551277,24.2671869 0.797873573,21.6485567 0.148553038,19.094905 C0.100632703,18.906648 0.0497634245,18.7187521 0,18.5306757 L0,15.1579349 Z" id="Page-1" stroke="#765DFF" stroke-width="2"></path>
                    <g id="Group-5" transform="translate(43.379740, 0.273898)">
                        <g id="Group-4">
                            <g id="Page-1">
                                <g id="Group-3" transform="translate(1.537756, 0.066536)">
                                    <mask id="mask-2" fill="white">
                                        <use xlink:href="#path-1"></use>
                                    </mask>
                                    <g id="Clip-2"></g>
                                    <path d="M24.7441549,27.766985 C24.5256753,18.7536573 20.5967099,11.6902201 12.7354668,6.75604593 C9.66989197,4.83199239 6.26955955,3.74466777 2.66174842,3.2449626 C2.23354264,3.18562904 1.79942242,3.16653713 1.37121664,3.10743222 C0.364105031,2.96795834 -0.108695661,2.33655325 0.0229598735,1.32776843 C0.123978585,0.554603004 0.906814456,-0.0240992565 1.77682924,0.0550121548 C7.33806309,0.560662115 12.3804819,2.38228239 16.7917111,5.71330723 C22.6925524,10.1690403 26.2756412,15.9896738 27.5406225,23.1234195 C27.9345245,25.3453984 27.9766354,27.5919567 27.791395,29.8398869 C27.7181742,30.7280611 27.085092,31.3001327 26.2103457,31.2843561 C25.4208856,31.2699514 24.7575215,30.562636 24.7459292,29.708187 C24.7370576,29.061234 24.7441549,28.4140523 24.7441549,27.766985" id="Fill-1" fill="#FAD214" mask="url(#mask-2)"></path>
                                </g>
                                <g id="Group-6" transform="translate(0.000000, 8.412104)">
                                    <mask id="mask-4" fill="white">
                                        <use xlink:href="#path-3"></use>
                                    </mask>
                                    <g id="Clip-5"></g>
                                    <path d="M21.0828654,20.2941348 C21.051992,20.8033288 21.0409911,21.2798264 20.9907183,21.7524371 C20.8905276,22.694343 20.0237066,23.4204074 19.1553479,23.3110005 C18.2233497,23.1934766 17.7583561,22.5127983 17.8143068,21.495325 C18.1154703,16.0209754 16.1978891,11.3710078 12.1054484,7.59801085 C9.17768007,4.89884839 5.65267117,3.37869747 1.61700912,2.97479485 C0.286022535,2.84160873 -0.329789424,1.89787361 0.176132157,0.824496385 C0.453046447,0.236991265 0.935665116,-0.0402416428 1.65143119,0.011317962 C6.10843826,0.332107876 10.0654382,1.8743231 13.4741691,4.65877041 C17.7695936,8.1676816 20.2071727,12.6685722 20.9177341,18.0481481 C21.0173333,18.8017643 21.0314097,19.5660126 21.0828654,20.2941348" id="Fill-4" fill="#FAD214" mask="url(#mask-4)"></path>
                                </g>
                                <path d="M9.15254368,27.9237331 C9.25604646,23.5296201 6.04261049,20.0473461 1.52468464,19.5280917 C0.229184724,19.379129 -0.35208688,18.3970958 0.224571457,17.3274912 C0.532240859,16.7570202 1.02609697,16.522887 1.68366491,16.5682731 C7.03150561,16.9373073 11.5620884,21.1226668 12.2017947,26.3124668 C12.2899199,27.0272133 12.3062438,27.7546496 12.2950063,28.4753408 C12.2841237,29.1807128 11.7573833,29.7520984 11.0315627,29.9533066 C10.5019833,30.1000971 9.74150407,29.8896288 9.49345226,29.3842075 C9.27769333,28.9442931 9.25853053,28.4140638 9.15254368,27.9237331" id="Fill-7" fill="#FAD214"></path>
                            </g>
                        </g>
                    </g>
                </g>
                <g id="Group-9" transform="translate(0.000000, 5.000000)">
                    <g id="Group-8">
                        <g id="Group-4">
                            <ellipse id="Oval-16-Copy-2" fill="#E4DFFF" opacity="0.5" cx="49.5" cy="81.5595378" rx="49.5" ry="5.09747111"></ellipse>
                            <path d="M48.8653846,82.8339056 C69.8946886,82.8339056 86.9423077,81.4075208 86.9423077,79.6479861 C86.9423077,77.8884514 69.8946886,77.7364344 48.8653846,77.7364344 C27.8360807,77.7364344 10.7884615,77.8884514 10.7884615,79.6479861 C10.7884615,81.4075208 27.8360807,82.8339056 48.8653846,82.8339056 Z" id="Oval-15-Copy-2" fill="#C5BBFF"></path>
                            <path d="M82.5,66.2671244 L74.25,74.550515" id="Line" stroke="#E4DFFF" stroke-width="2" stroke-linecap="square" stroke-linejoin="round"></path>
                            <path d="M17.7692308,19.1155167 L17.7692308,4.00723869 C17.7692308,1.79410187 19.5672388,0 21.7755358,0 L82.3013873,0 C84.5140085,0 86.3076923,1.78947974 86.3076923,4.00665198 L86.3076923,61.6232886 C86.3076923,63.8361014 85.0443031,66.8984431 83.4908579,68.4581757 L76.4322191,75.5453832 C74.8765244,77.1073743 71.8205341,78.3736183 69.6214788,78.3736183 L21.7631366,78.3736183 C19.5573633,78.3736183 17.7692308,76.584942 17.7692308,74.3738253 L17.7692308,61.8068372 L17.7692308,19.1155167 Z" id="Rectangle-22" stroke="#765DFF" stroke-width="2" fill="#FFFFFF" stroke-linecap="round"></path>
                            <path d="M73.3461538,75.9524926 L83.9003573,65.3555728 L73.3461538,65.3555728 L73.3461538,75.9524926 Z" id="Rectangle-27" stroke="#765DFF" stroke-width="2"></path>
                            <path d="M25.9565909,40.1510808 L77.4230769,40.1510808" id="Line-Copy-16" stroke="#765DFF" stroke-linecap="round"></path>
                            <path d="M25.9213894,34.9516603 L77.4230769,34.9516603" id="Line-Copy-15" stroke="#765DFF" stroke-linecap="round"></path>
                            <path d="M26.0035636,45.3505013 L77.4230769,45.3505013" id="Line-Copy-17" stroke="#765DFF" stroke-linecap="round"></path>
                            <path d="M26.3335823,50.5499219 L77.4230769,50.5499219" id="Line-Copy-19" stroke="#765DFF" stroke-linecap="round"></path>
                            <path d="M26.5903933,55.1713472 L77.4230769,55.1713472" id="Line-Copy-18" stroke="#765DFF" stroke-linecap="round"></path>
                            <path d="M26.6498722,60.3707677 L77.4230769,60.3707677" id="Line-Copy-18" stroke="#765DFF" stroke-linecap="round"></path>
                            <path d="M26.6498722,68.1698985 L40.3533448,68.1698985" id="Line-Copy-18" stroke="#765DFF" stroke-linecap="round"></path>
                        </g>
                        <g id="exclamation_point" transform="translate(49.500000, 9.666667)">
                            <g id="Group-4" transform="translate(0.356199, 0.131104)">
                                <path d="M3.89685444,10.2257376 C3.82322351,11.3090099 3.32003251,12.025692 2.19695244,12.0139477 C1.07053815,12.0024831 0.605412953,11.2656678 0.534838402,10.1863103 C0.380074523,7.81955341 0.178631414,5.45615202 0.0299802917,3.08939512 C-0.0942198047,1.11159838 0.67432039,0.032240911 2.16583296,0.000643140463 C3.70985966,-0.031793509 4.51535425,1.09118566 4.43310989,2.67275195 C4.23194463,5.4941812 4.05745322,7.85953997 3.89685444,10.2257376 Z" id="Fill-1" fill="#EA0646"></path>
                                <g id="Group-5" transform="translate(0.000000, 13.571606)">
                                    <mask id="mask-6" fill="white">
                                        <use xlink:href="#path-5"></use>
                                    </mask>
                                    <g id="Clip-4"></g>
                                    <path d="M4.43513821,2.27716464 C4.41930061,3.48962423 3.39763673,4.48928821 2.18981163,4.47362913 C0.979208009,4.45852931 -0.0143927629,3.43705448 5.5570513e-05,2.22291714 C0.0145039039,0.999831756 1.01116105,0.0334433041 2.24371503,0.0471449922 C3.4757133,0.0611263066 4.45097581,1.05352 4.43513821,2.27716464" id="Fill-3" fill="#EA0646" mask="url(#mask-6)"></path>
                                </g>
                            </g>
                        </g>
                    </g>
                </g>
                <g id="Page-1" transform="translate(97.000000, 40.000000)">
                    <path d="M24.0479923,4.00646667 L70.0089154,4.00646667" id="Stroke-5" stroke="#765DFF" stroke-width="2" stroke-linecap="round" stroke-dasharray="0.01,5.162,0.01,5.162,0.01,5.162"></path>
                    <g id="Group-11" transform="translate(70.000000, 0.000000)">
                        <mask id="mask-8" fill="white">
                            <use xlink:href="#path-7"></use>
                        </mask>
                        <g id="Clip-10"></g>
                        <path d="M7.71007942,4.5804688 C5.3354962,5.50086429 2.38921534,7.07088649 0.563336425,8.73480432 L2.00146429,4.5804688 L0.563336425,0.427225095 C2.38921534,2.09114292 5.3354962,3.66116512 7.71007942,4.5804688" id="Fill-9" fill="#765DFF" mask="url(#mask-8)"></path>
                    </g>
                </g>
            </g>
        </g>
    </g>
</svg>