<?xml version="1.0" encoding="UTF-8"?>
<svg width="239px" height="237px" viewBox="0 0 239 237" version="1.1" xmlns="http://www.w3.org/2000/svg" xmlns:xlink="http://www.w3.org/1999/xlink">
    <!-- Generator: Sketch 47 (45396) - http://www.bohemiancoding.com/sketch -->
    <title>icon_drivingstyle</title>
    <desc>Created with Sketch.</desc>
    <defs>
        <polygon id="path-1" points="0 0 228 0 228 227 0 227"></polygon>
        <path d="M-7.5918218,35.4126652 C-7.5918218,29.5869152 -2.87048056,24.8642117 2.95717414,24.8642117 L50.9447606,24.8642117 C56.7708102,24.8642117 61.4937566,29.5856343 61.4937566,35.4126652 L61.4937566,39.9579287 C61.4937566,43.2733989 58.8067234,45.9611186 55.4987543,45.9611186 L-1.59681949,45.9611186 C-4.90776784,45.9611186 -7.5918218,43.2677521 -7.5918218,39.9579287 L-7.5918218,35.4126652 Z" id="path-3"></path>
        <filter x="-4.3%" y="-14.2%" width="108.7%" height="128.4%" filterUnits="objectBoundingBox" id="filter-4">
            <feOffset dx="-4" dy="-5" in="SourceAlpha" result="shadowOffsetInner1"></feOffset>
            <feComposite in="shadowOffsetInner1" in2="SourceAlpha" operator="arithmetic" k2="-1" k3="1" result="shadowInnerInner1"></feComposite>
            <feColorMatrix values="0 0 0 0 0.936277636   0 0 0 0 0.936277636   0 0 0 0 0.936277636  0 0 0 1 0" type="matrix" in="shadowInnerInner1"></feColorMatrix>
        </filter>
    </defs>
    <g id="Insurance" stroke="none" stroke-width="1" fill="none" fill-rule="evenodd">
        <g id="Insurance_Teilkasko" transform="translate(-1112.000000, -3071.000000)">
            <g id="icon_drivingstyle" transform="translate(1096.000000, 3069.000000)">
                <g id="Group-12" transform="translate(10.000000, 18.000000)">
                    <g id="Page-1">
                        <g id="Group-3">
                            <mask id="mask-2" fill="white">
                                <use xlink:href="#path-1"></use>
                            </mask>
                            <g id="Clip-2"></g>
                            <path d="M194.582923,97.6498606 C192.18209,100.010878 189.16334,100.213859 186.237506,99.0795018 C182.626256,97.6803496 179.174173,95.8693872 175.64709,94.2505471 C161.370423,87.6995911 146.523756,83.0652648 130.895006,81.2405197 C125.04459,80.5576499 119.142923,80.3183322 113.26459,79.8764507 C88.7804231,80.027225 65.9954231,86.5852812 44.2708397,97.4443731 C42.5541731,98.3026591 40.7108397,99.0774135 38.8404231,99.4232338 C32.9037564,100.519584 28.4579231,95.5674209 30.0970897,89.7398474 C32.9100064,79.7398767 37.3225064,70.4866774 43.5470897,62.1690306 C57.9225064,42.9584617 76.9470897,31.3571926 100.626673,27.5836581 C138.75709,21.5079962 177.56834,43.1163362 192.684173,78.8201952 C194.11584,82.2011317 195.240006,85.7161362 196.436673,89.1927162 C197.527923,92.3627358 196.990006,95.2821609 194.582923,97.6498606 M194.80584,143.25387 C190.95709,153.83522 185.25209,163.313537 177.716256,171.653319 C166.44209,184.128328 152.72209,192.689886 136.506673,197.15882 C130.16209,198.907552 126.39584,195.856982 126.587923,189.202029 C126.392923,189.15024 128.14584,180.176871 129.596256,175.870823 C130.71584,172.547524 133.197506,170.227437 136.401256,168.606509 C151.68209,160.87567 163.803756,149.874575 171.79209,134.470535 C175.445006,127.425491 183.393756,125.283744 190.390006,129.015512 C195.05834,131.505586 196.916256,137.452609 194.80584,143.25387 M113.45959,140.305209 C102.634173,140.40127 93.3858397,131.33017 93.3475064,120.579251 C93.3075064,109.251547 102.141256,100.248525 113.385423,100.157476 C124.18084,100.070185 133.312506,109.110379 133.40334,119.974901 C133.496673,131.097117 124.560006,140.206642 113.45959,140.305209 M94.0908397,197.709293 C93.0800064,197.797836 91.9937564,197.661262 91.0133397,197.380179 C62.2737564,189.141051 42.6316731,170.896942 31.8412564,143.044206 C29.6262564,137.326477 31.8058397,131.280051 36.5320897,128.932816 C43.1820897,125.629982 50.4216731,127.346553 54.2050064,133.21464 C55.6337564,135.43073 56.8150064,137.805112 58.1870897,140.059626 C65.4750064,152.031775 75.5858397,161.08617 88.0016731,167.223227 C95.3262564,170.843899 98.3987564,176.592118 99.6041731,184.026001 C99.8816731,185.739232 100.012923,187.475434 100.21209,189.201194 C100.266673,194.191782 98.0579231,197.361384 94.0908397,197.709293 M183.250423,32.8858186 C167.337923,18.9043201 148.761256,10.6167446 127.827923,7.61879995 C125.23584,7.24750253 122.63334,6.95472471 120.03584,6.62561069 L106.702506,6.62561069 C102.796673,7.1694006 98.8541731,7.52440938 94.9908397,8.28579879 C57.0325064,15.7643719 29.8841731,37.2361379 14.8629231,72.8598067 C-5.04582692,120.074721 11.7787564,175.302392 56.1270897,203.697664 C76.0645897,216.462944 97.9566731,221.920473 121.55334,220.068163 C168.22084,216.404472 206.808756,183.123444 217.29584,137.483098 C218.427506,132.5585 218.852923,127.471015 219.615006,122.46038 C219.729173,121.712355 219.894173,120.972266 220.03584,120.228419 L220.03584,106.863382 C219.631256,103.850402 219.275423,100.830322 218.81459,97.8256943 C214.831673,71.8507464 202.936256,50.1830991 183.250423,32.8858186 Z" id="Fill-1" stroke="#1A2020" fill="#FFFFFF" mask="url(#mask-2)"></path>
                        </g>
                        <path d="M100.092548,120.182313 C100.092548,127.563381 106.07346,133.547554 113.451923,133.547554 C120.829977,133.547554 126.811298,127.563381 126.811298,120.182313 C126.811298,112.801246 120.829977,106.817482 113.451923,106.817482 C106.07346,106.817482 100.092548,112.801246 100.092548,120.182313 Z" id="Fill-4" fill="#FAD214"></path>
                    </g>
                </g>
                <g id="Group-23" transform="translate(78.000000, 3.000000)">
                    <path d="M31.4723552,100.560396 C21.6672954,97.9646444 14.9220785,93.3993131 11.2367045,86.8644022 C7.55133042,80.3294912 3.90529279,69.5410541 0.298591597,54.4990907 L19.4804379,45.725898 L21.4849898,24.834936 L9.33838823,27.8156191 C5.73263248,25.8284971 3.9297546,23.5524409 3.9297546,20.9874505 C3.9297546,17.1399651 6.30051076,14.1936245 10.2912468,12.0230561 C12.9517375,10.5760106 18.9578004,7.08358782 28.3094355,1.54578792 C31.6256955,6.10622664e-14 34.1976603,-0.386446979 36.0253299,0.386446979 C37.8529995,1.15934094 39.7127801,2.71644308 41.6046715,5.05775341 C43.2877236,4.78818668 44.9976649,4.78818668 46.7344953,5.05775341 C49.7299864,5.52267202 50.4460674,6.03768303 52.3568129,8.62482066 C54.2675584,11.2119583 53.9384896,9.63758464 56.638895,9.46564951 C59.3393005,9.29371439 62.8849146,9.45972246 64.8093588,12.8196071 C66.733803,16.1794918 65.7247253,13.2162569 69.2293777,13.3898871 C72.7340302,13.5635174 76.5934818,15.6318045 77.4162866,20.09681 C77.9648232,23.0734803 75.5371563,42.4611351 70.1332862,78.2597745 L88.0158137,108.637593 C64.2431465,126.441644 52.3568129,135.343669 52.3568129,135.343669 C52.3568129,135.343669 45.395327,123.749245 31.4723552,100.560396 Z" id="Path-2" stroke="#1A2020" fill="#FFFAE4"></path>
                    <g id="Group-21" transform="translate(67.804863, 121.571626) rotate(30.000000) translate(-67.804863, -121.571626) translate(40.854863, 85.864389)">
                        <g id="Rectangle-51" stroke-linecap="round" stroke-linejoin="round" transform="translate(26.950967, 35.412665) scale(-1, 1) rotate(60.000000) translate(-26.950967, -35.412665) ">
                            <use fill="#FFFFFF" fill-rule="evenodd" xlink:href="#path-3"></use>
                            <use fill="black" fill-opacity="1" filter="url(#filter-4)" xlink:href="#path-3"></use>
                            <use stroke="#1A2020" stroke-width="1" xlink:href="#path-3"></use>
                        </g>
                        <rect id="Rectangle-52" fill="#FAD214" transform="translate(40.236656, 15.069219) scale(-1, 1) rotate(60.000000) translate(-40.236656, -15.069219) " x="37.1999268" y="12.0553754" width="6.07345744" height="6.02768769" rx="3.01384384"></rect>
                    </g>
                </g>
                <g id="Group-31" transform="translate(164.000000, 140.000000)">
                    <ellipse id="Oval-4" stroke="#1A2020" fill="#FFFFFF" stroke-linecap="round" stroke-dasharray="1,3,1,3" cx="44.952381" cy="44.964242" rx="44.952381" ry="44.964242"></ellipse>
                    <g id="Group-22" transform="translate(16.857143, 16.861591)">
                        <g id="Page-1" transform="translate(29.001468, 29.034960) rotate(9.000000) translate(-29.001468, -29.034960) translate(3.757566, 3.818093)" fill="#06C3C3">
                            <path d="M19.6738611,23.8439978 C18.3777393,25.0730822 17.1517323,26.241047 15.9150411,27.3978586 C15.8186611,27.4877535 15.637253,27.5571265 15.5126045,27.5357123 C13.8821576,27.2557666 12.9147963,28.2809702 11.9169405,29.3043893 C10.10375,31.1640766 8.25672637,32.9909733 6.43084845,34.8386151 C5.005849,36.2805029 4.9893776,37.664617 6.39835081,39.1049433 C7.77371344,40.5104716 9.15731178,41.9086388 10.5669528,43.279369 C11.9073693,44.5827338 13.3497305,44.5800571 14.6741208,43.2695542 C16.8634826,41.1033766 19.0693159,38.9503597 21.1700883,36.6998638 C21.6695726,36.1647325 21.7801982,35.2657833 22.0713414,34.5348015 C22.2376136,34.117002 22.3101769,33.6133228 22.5924167,33.2992482 C23.6281122,32.1466749 24.7336998,31.0574518 25.8219257,29.9349922 C28.1432814,32.6978668 28.1110064,37.0692583 25.6231559,39.7944351 C23.1243987,42.5314343 20.5083383,45.1785386 17.7714134,47.6750745 C14.7722815,50.4105123 10.2137078,50.2724354 7.22681815,47.5082224 C5.45859016,45.8715995 3.75179607,44.16025 2.1111102,42.3946959 C-0.714404164,39.3543292 -0.707726566,34.5829834 2.15562752,31.5633617 C4.5455399,29.043181 7.00556707,26.5852353 9.51790208,24.1875169 C12.3046864,21.5276979 16.7878032,21.3271631 19.6738611,23.8439978" id="Fill-1"></path>
                            <path d="M23.7117674,19.7385431 C21.325589,16.6202585 21.4833013,12.3655988 24.0755304,9.61086507 C26.4920039,7.04259049 28.9884473,4.54345747 31.5517179,2.12216447 C34.6725506,-0.82594265 39.5738841,-0.664017565 42.6160834,2.36862069 C44.0354942,3.78356936 45.4486678,5.20498612 46.8654056,6.6223882 C50.4299712,10.1894238 50.4453415,15.0277721 46.8977054,18.5910161 C44.6975295,20.8013158 42.5247528,23.0397183 40.2798026,25.2031801 C37.4686029,27.9119682 33.6244765,28.3321705 30.5107721,26.3587364 C30.3312295,26.2447643 30.1777496,26.0899765 30.085528,26.0141438 C31.2694842,24.7472919 32.4169081,23.5051971 33.5890581,22.2869673 C33.7153616,22.1558214 33.9915809,22.1025155 34.1900579,22.1185742 C35.5025451,22.2240708 36.4042675,21.5699024 37.2692349,20.664594 C39.1671289,18.6782237 41.1387556,16.7625563 43.0751866,14.8129872 C44.5324662,13.3456248 44.5478365,11.9416049 43.0987989,10.4599681 C41.7491111,9.08003628 40.3838304,7.71437885 39.0058524,6.36210366 C37.6254241,5.0075981 36.2048995,5.02142641 34.8206844,6.39801267 C32.6877812,8.51865138 30.5791587,10.6636012 28.4386818,12.7766566 C27.7617217,13.4448764 27.40776,14.1878136 27.4587715,15.1560186 C27.475701,15.4807609 27.3567485,15.9007401 27.1437924,16.1349293 C26.0469344,17.3413381 24.8995105,18.5018012 23.7117674,19.7385431" id="Fill-3"></path>
                        </g>
                        <g id="Group-30" transform="translate(6.470504, 2.415520)" stroke-linecap="round" stroke="#06C3C3" stroke-width="3">
                            <g id="Group-29" transform="translate(-0.000000, -0.000000)">
                                <g id="Group-27" transform="translate(-0.000000, 0.000000)">
                                    <g id="Page-1" transform="translate(9.322867, 9.385997) rotate(8.000000) translate(-9.322867, -9.385997) translate(1.091160, 1.163105)">
                                        <g id="Group-25" transform="translate(0.000000, -0.000000)">
                                            <g id="Group-26" transform="translate(8.490461, 7.883738) rotate(180.000000) translate(-8.490461, -7.883738) translate(0.807534, 0.209039)">
                                                <path d="M2.66453526e-13,7.33524278 L1.30698651,13.9859335" id="Stroke-1"></path>
                                                <path d="M4.38909139,4.40114567 L10.2412132,10.2693399" id="Stroke-3"></path>
                                                <path d="M7.40893579,0.375416013 L14.6303046,1.46704856" id="Stroke-4"></path>
                                            </g>
                                        </g>
                                    </g>
                                </g>
                                <g id="Group-27" transform="translate(38.201650, 43.063194) rotate(180.000000) translate(-38.201650, -43.063194) translate(28.872381, 33.195724)">
                                    <g id="Page-1" transform="translate(9.322867, 9.385997) rotate(8.000000) translate(-9.322867, -9.385997) translate(1.091160, 1.163105)">
                                        <g id="Group-25" transform="translate(0.000000, -0.000000)">
                                            <g id="Group-26" transform="translate(8.490461, 7.883738) rotate(180.000000) translate(-8.490461, -7.883738) translate(0.807534, 0.209039)">
                                                <path d="M2.66453526e-13,7.33524278 L1.30698651,13.9859335" id="Stroke-1"></path>
                                                <path d="M4.38909139,4.40114567 L10.2412132,10.2693399" id="Stroke-3"></path>
                                                <path d="M7.40893579,0.375416013 L14.6303046,1.46704856" id="Stroke-4"></path>
                                            </g>
                                        </g>
                                    </g>
                                </g>
                            </g>
                        </g>
                    </g>
                </g>
            </g>
        </g>
    </g>
</svg>