<?xml version="1.0" encoding="UTF-8"?>
<svg width="484px" height="425px" viewBox="0 0 484 425" version="1.1" xmlns="http://www.w3.org/2000/svg" xmlns:xlink="http://www.w3.org/1999/xlink">
    <!-- Generator: Sketch 46.2 (44496) - http://www.bohemiancoding.com/sketch -->
    <title>icon_dongle_car</title>
    <desc>Created with Sketch.</desc>
    <defs>
        <path d="M29.7081384,33.4679844 C29.7081384,34.5764085 28.8129434,35.4749637 27.7145252,35.4749637 L11.4048694,35.4749637 C8.33178536,35.4749637 5.83297424,38.002825 5.83297424,41.1211 L5.83297424,124.96623 C5.83297424,128.088639 8.32759667,130.612366 11.4048694,130.612366 L121.228578,130.612366 C124.301662,130.612366 126.800473,128.084505 126.800473,124.96623 L126.800473,41.1211 C126.800473,37.9986914 124.30585,35.4749637 121.228578,35.4749637 L104.918922,35.4749637 C103.81788,35.4749637 102.925309,34.5837467 102.925309,33.4679844 L102.925309,7.25370419 C102.925309,6.36317267 102.210157,5.64374423 101.327972,5.64374423 L31.3054748,5.64374423 C30.4210086,5.64374423 29.7081384,6.36454786 29.7081384,7.25370419 L29.7081384,33.4679844 Z" id="path-1"></path>
        <filter x="-2.1%" y="-2.0%" width="104.1%" height="104.0%" filterUnits="objectBoundingBox" id="filter-2">
            <feOffset dx="0" dy="-5" in="SourceAlpha" result="shadowOffsetInner1"></feOffset>
            <feComposite in="shadowOffsetInner1" in2="SourceAlpha" operator="arithmetic" k2="-1" k3="1" result="shadowInnerInner1"></feComposite>
            <feColorMatrix values="0 0 0 0 0.936277636   0 0 0 0 0.936277636   0 0 0 0 0.936277636  0 0 0 1 0" type="matrix" in="shadowInnerInner1"></feColorMatrix>
        </filter>
        <rect id="path-3" x="0" y="0" width="5.57087164" height="7.25624258" rx="2"></rect>
        <filter x="-35.9%" y="-27.6%" width="171.8%" height="155.1%" filterUnits="objectBoundingBox" id="filter-4">
            <feOffset dx="0" dy="-4" in="SourceAlpha" result="shadowOffsetInner1"></feOffset>
            <feComposite in="shadowOffsetInner1" in2="SourceAlpha" operator="arithmetic" k2="-1" k3="1" result="shadowInnerInner1"></feComposite>
            <feColorMatrix values="0 0 0 0 0.936277636   0 0 0 0 0.936277636   0 0 0 0 0.936277636  0 0 0 1 0" type="matrix" in="shadowInnerInner1"></feColorMatrix>
        </filter>
        <rect id="path-5" x="7.62269361" y="0" width="5.57087164" height="7.25624258" rx="2"></rect>
        <filter x="-35.9%" y="-27.6%" width="171.8%" height="155.1%" filterUnits="objectBoundingBox" id="filter-6">
            <feOffset dx="0" dy="-4" in="SourceAlpha" result="shadowOffsetInner1"></feOffset>
            <feComposite in="shadowOffsetInner1" in2="SourceAlpha" operator="arithmetic" k2="-1" k3="1" result="shadowInnerInner1"></feComposite>
            <feColorMatrix values="0 0 0 0 0.936277636   0 0 0 0 0.936277636   0 0 0 0 0.936277636  0 0 0 1 0" type="matrix" in="shadowInnerInner1"></feColorMatrix>
        </filter>
        <rect id="path-7" x="15.2453872" y="0" width="5.57087164" height="7.25624258" rx="2"></rect>
        <filter x="-35.9%" y="-27.6%" width="171.8%" height="155.1%" filterUnits="objectBoundingBox" id="filter-8">
            <feOffset dx="0" dy="-4" in="SourceAlpha" result="shadowOffsetInner1"></feOffset>
            <feComposite in="shadowOffsetInner1" in2="SourceAlpha" operator="arithmetic" k2="-1" k3="1" result="shadowInnerInner1"></feComposite>
            <feColorMatrix values="0 0 0 0 0.936277636   0 0 0 0 0.936277636   0 0 0 0 0.936277636  0 0 0 1 0" type="matrix" in="shadowInnerInner1"></feColorMatrix>
        </filter>
        <rect id="path-9" x="22.8680808" y="0" width="5.57087164" height="7.25624258" rx="2"></rect>
        <filter x="-35.9%" y="-27.6%" width="171.8%" height="155.1%" filterUnits="objectBoundingBox" id="filter-10">
            <feOffset dx="0" dy="-4" in="SourceAlpha" result="shadowOffsetInner1"></feOffset>
            <feComposite in="shadowOffsetInner1" in2="SourceAlpha" operator="arithmetic" k2="-1" k3="1" result="shadowInnerInner1"></feComposite>
            <feColorMatrix values="0 0 0 0 0.936277636   0 0 0 0 0.936277636   0 0 0 0 0.936277636  0 0 0 1 0" type="matrix" in="shadowInnerInner1"></feColorMatrix>
        </filter>
        <rect id="path-11" x="30.4907744" y="0" width="5.57087164" height="7.25624258" rx="2"></rect>
        <filter x="-35.9%" y="-27.6%" width="171.8%" height="155.1%" filterUnits="objectBoundingBox" id="filter-12">
            <feOffset dx="0" dy="-4" in="SourceAlpha" result="shadowOffsetInner1"></feOffset>
            <feComposite in="shadowOffsetInner1" in2="SourceAlpha" operator="arithmetic" k2="-1" k3="1" result="shadowInnerInner1"></feComposite>
            <feColorMatrix values="0 0 0 0 0.936277636   0 0 0 0 0.936277636   0 0 0 0 0.936277636  0 0 0 1 0" type="matrix" in="shadowInnerInner1"></feColorMatrix>
        </filter>
        <rect id="path-13" x="38.113468" y="0" width="5.57087164" height="7.25624258" rx="2"></rect>
        <filter x="-35.9%" y="-27.6%" width="171.8%" height="155.1%" filterUnits="objectBoundingBox" id="filter-14">
            <feOffset dx="0" dy="-4" in="SourceAlpha" result="shadowOffsetInner1"></feOffset>
            <feComposite in="shadowOffsetInner1" in2="SourceAlpha" operator="arithmetic" k2="-1" k3="1" result="shadowInnerInner1"></feComposite>
            <feColorMatrix values="0 0 0 0 0.936277636   0 0 0 0 0.936277636   0 0 0 0 0.936277636  0 0 0 1 0" type="matrix" in="shadowInnerInner1"></feColorMatrix>
        </filter>
        <rect id="path-15" x="45.7361616" y="0" width="5.57087164" height="7.25624258" rx="2"></rect>
        <filter x="-35.9%" y="-27.6%" width="171.8%" height="155.1%" filterUnits="objectBoundingBox" id="filter-16">
            <feOffset dx="0" dy="-4" in="SourceAlpha" result="shadowOffsetInner1"></feOffset>
            <feComposite in="shadowOffsetInner1" in2="SourceAlpha" operator="arithmetic" k2="-1" k3="1" result="shadowInnerInner1"></feComposite>
            <feColorMatrix values="0 0 0 0 0.936277636   0 0 0 0 0.936277636   0 0 0 0 0.936277636  0 0 0 1 0" type="matrix" in="shadowInnerInner1"></feColorMatrix>
        </filter>
        <rect id="path-17" x="53.3588552" y="0" width="5.57087164" height="7.25624258" rx="2"></rect>
        <filter x="-35.9%" y="-27.6%" width="171.8%" height="155.1%" filterUnits="objectBoundingBox" id="filter-18">
            <feOffset dx="0" dy="-4" in="SourceAlpha" result="shadowOffsetInner1"></feOffset>
            <feComposite in="shadowOffsetInner1" in2="SourceAlpha" operator="arithmetic" k2="-1" k3="1" result="shadowInnerInner1"></feComposite>
            <feColorMatrix values="0 0 0 0 0.936277636   0 0 0 0 0.936277636   0 0 0 0 0.936277636  0 0 0 1 0" type="matrix" in="shadowInnerInner1"></feColorMatrix>
        </filter>
        <path d="M11.4715039,9.47590816 C23.5753962,2.65933562 51.5630371,11.8103678 56.9921357,16.5701802 C62.4212343,21.3299925 63.5460056,29.6501037 54.8248174,33.7462079 C46.1036291,37.842312 21.4627306,39.7004649 11.2987934,34.9356072 C1.13485616,30.1707494 -0.632388338,16.2924807 11.4715039,9.47590816 Z" id="path-19"></path>
        <path d="M11.4715039,9.47590816 C23.5753962,2.65933562 51.5630371,11.8103678 56.9921357,16.5701802 C62.4212343,21.3299925 63.5460056,29.6501037 54.8248174,33.7462079 C46.1036291,37.842312 21.4627306,39.7004649 11.2987934,34.9356072 C1.13485616,30.1707494 -0.632388338,16.2924807 11.4715039,9.47590816 Z" id="path-21"></path>
        <linearGradient x1="50%" y1="96.354831%" x2="50%" y2="1.74174569%" id="linearGradient-23">
            <stop stop-color="#FFFFFF" stop-opacity="0" offset="0%"></stop>
            <stop stop-color="#FFFFFF" stop-opacity="0.491366621" offset="100%"></stop>
        </linearGradient>
        <path d="M0,74.0120041 C0,74.0120041 15.8631822,43.3919699 33.9443237,26.5147344 C52.0254651,9.63749894 69.5361677,0.403997938 120.497216,0.00843519978 C171.458264,-0.387127539 193.592832,13.1971296 207.820033,26.5147344 C222.047234,39.8323393 240.994432,75.4310309 240.994432,75.4310309 C240.994432,75.4310309 224.174603,69.1972883 196.004788,75.4310309 C167.834973,81.6647735 153.77984,84.5891427 120.497216,84.5891427 C87.2145924,84.5891427 44.0018675,74.0120041 28.5293392,74.0120041 L0,74.0120041 Z" id="path-24"></path>
    </defs>
    <g id="Symbols" stroke="none" stroke-width="1" fill="none" fill-rule="evenodd">
        <g id="icon_dongle_car">
            <g id="Group-6" transform="translate(3.000000, 4.000000)">
                <g id="Group-4" transform="translate(255.000000, 0.000000)">
                    <path d="M0,283.778667 L96.2978204,28.9130435 L128.14961,28.9130435 L215.885572,123.053609 C127.616525,214.348372 76.7390906,264.765489 63.2532698,274.30496 C49.7674489,283.844431 28.6830257,287.002334 0,283.778667 Z" id="Path-31" fill="#06C3C3" opacity="0.10377038"></path>
                    <g id="Group-27" transform="translate(83.032912, 0.000000)">
                        <g id="iphone">
                            <path d="M24.1372668,27.8315427 C24.1372668,28.9359337 23.241421,29.8312195 22.1459863,29.8312195 L9.81621774,29.8312195 C4.54517192,29.8312195 0.262102601,34.1642127 0.262102601,39.5092307 L0.262102601,126.578099 C0.262102601,131.91864 4.53962565,136.256111 9.81621774,136.256111 L122.817229,136.256111 C128.088275,136.256111 132.371344,131.923117 132.371344,126.578099 L132.371344,39.5092307 C132.371344,34.1686897 128.093821,29.8312195 122.817229,29.8312195 L110.487461,29.8312195 C109.387707,29.8312195 108.49618,28.9307887 108.49618,27.8315427 L108.49618,3.22651605 C108.49618,1.43932658 107.073146,0 105.317744,0 L27.3157029,0 C25.5660779,0 24.1372668,1.44456044 24.1372668,3.22651605 L24.1372668,27.8315427 Z" id="Combined-Shape" stroke="#1A2020" fill="#FFFFFF"></path>
                            <g id="Combined-Shape">
                                <use fill="black" fill-opacity="1" filter="url(#filter-2)" xlink:href="#path-1"></use>
                                <path stroke="#1A2020" stroke-width="0.5" d="M29.9581384,33.4679844 C29.9581384,34.7132461 28.952245,35.7249637 27.7145252,35.7249637 L11.4048694,35.7249637 C8.46912656,35.7249637 6.08297424,38.1416547 6.08297424,41.1211 L6.08297424,124.96623 C6.08297424,127.949847 8.46497569,130.362366 11.4048694,130.362366 L121.228578,130.362366 C124.16432,130.362366 126.550473,127.945675 126.550473,124.96623 L126.550473,41.1211 C126.550473,38.1374828 124.168471,35.7249637 121.228578,35.7249637 L104.918922,35.7249637 C103.677051,35.7249637 102.675309,34.7190515 102.675309,33.4679844 L102.675309,7.25370419 C102.675309,6.50131294 102.072148,5.89374423 101.327972,5.89374423 L31.3054748,5.89374423 C30.560366,5.89374423 29.9581384,6.50133066 29.9581384,7.25370419 L29.9581384,33.4679844 Z"></path>
                            </g>
                            <g id="Group-5" transform="translate(35.279010, 10.481239)">
                                <g id="Rectangle-2">
                                    <use fill="black" fill-opacity="1" filter="url(#filter-4)" xlink:href="#path-3"></use>
                                    <rect stroke="#B3B3B3" stroke-width="0.5" x="0.25" y="0.25" width="5.07087164" height="6.75624258" rx="2"></rect>
                                </g>
                                <g id="Rectangle-2">
                                    <use fill="black" fill-opacity="1" filter="url(#filter-6)" xlink:href="#path-5"></use>
                                    <rect stroke="#B3B3B3" stroke-width="0.5" x="7.87269361" y="0.25" width="5.07087164" height="6.75624258" rx="2"></rect>
                                </g>
                                <g id="Rectangle-2">
                                    <use fill="black" fill-opacity="1" filter="url(#filter-8)" xlink:href="#path-7"></use>
                                    <rect stroke="#B3B3B3" stroke-width="0.5" x="15.4953872" y="0.25" width="5.07087164" height="6.75624258" rx="2"></rect>
                                </g>
                                <g id="Rectangle-2">
                                    <use fill="black" fill-opacity="1" filter="url(#filter-10)" xlink:href="#path-9"></use>
                                    <rect stroke="#B3B3B3" stroke-width="0.5" x="23.1180808" y="0.25" width="5.07087164" height="6.75624258" rx="2"></rect>
                                </g>
                                <g id="Rectangle-2">
                                    <use fill="black" fill-opacity="1" filter="url(#filter-12)" xlink:href="#path-11"></use>
                                    <rect stroke="#B3B3B3" stroke-width="0.5" x="30.7407744" y="0.25" width="5.07087164" height="6.75624258" rx="2"></rect>
                                </g>
                                <g id="Rectangle-2">
                                    <use fill="black" fill-opacity="1" filter="url(#filter-14)" xlink:href="#path-13"></use>
                                    <rect stroke="#B3B3B3" stroke-width="0.5" x="38.363468" y="0.25" width="5.07087164" height="6.75624258" rx="2"></rect>
                                </g>
                                <g id="Rectangle-2">
                                    <use fill="black" fill-opacity="1" filter="url(#filter-16)" xlink:href="#path-15"></use>
                                    <rect stroke="#B3B3B3" stroke-width="0.5" x="45.9861616" y="0.25" width="5.07087164" height="6.75624258" rx="2"></rect>
                                </g>
                                <g id="Rectangle-2">
                                    <use fill="black" fill-opacity="1" filter="url(#filter-18)" xlink:href="#path-17"></use>
                                    <rect stroke="#B3B3B3" stroke-width="0.5" x="53.6088552" y="0.25" width="5.07087164" height="6.75624258" rx="2"></rect>
                                </g>
                            </g>
                            <path d="M35.6769294,22.1718523 L97.7523563,22.1718523" id="Line-Copy-2" stroke="#B3B3B3" opacity="0.496886322" stroke-linecap="square"></path>
                            <path d="M45.5342739,68.6039082 C45.4859558,68.6039377 45.4298761,68.6024664 45.3694759,68.5999035 C45.4147683,68.6014552 45.4602104,68.6013425 45.5055686,68.6025163 C45.4778025,68.6012458 45.4500549,68.6001965 45.4223322,68.5993682 C45.3967892,68.5985654 45.3712462,68.5993682 45.3457032,68.598833 C45.3539225,68.5992344 45.3616359,68.5996359 45.3694759,68.5999035 C45.3516464,68.5992344 45.3336904,68.5991006 45.3158609,68.5986992 C44.4347539,68.5849172 43.5579463,68.7242094 42.7017501,68.9370951 C41.4742953,69.2424408 40.263532,69.6541624 39.0867838,70.1318505 C38.9791744,70.1754713 39.0386062,70.220564 39.0946237,70.2830515 C39.3690213,70.5890662 39.4778951,70.9995836 39.5222792,71.409432 C39.6115533,72.2342133 39.6349466,73.916157 39.6460743,74.9015058 C39.6534084,75.5416346 39.6397517,75.7879718 39.6286241,76.4371994 C39.6286241,76.4393403 39.6307738,76.4412136 39.6326705,76.4402769 C40.6460447,76.0099562 41.704941,75.4609495 42.8193491,75.4881121 C44.2510214,75.5229017 45.2460602,76.6140912 45.0943196,78.1726656 C44.9954354,79.187987 44.6112788,80.2641901 44.0860035,81.1321909 C44.0014081,81.2709479 43.8786247,81.2456585 43.8169169,81.2207706 C43.8080654,81.2164888 43.7983287,81.2123408 43.7892242,81.208059 C43.7823959,81.2044462 43.7783495,81.2019039 43.7783495,81.2019039 C43.0792048,80.8778253 41.7572915,80.6111496 39.5153245,81.3161744 C39.51406,81.3165758 39.5131748,81.3179138 39.5131748,81.3192519 C39.5114045,81.4080992 39.5097606,81.4914605 39.5082432,81.5697371 C39.4649972,83.7305732 39.0685749,86.3329697 41.2793087,87.3651506 C43.7875804,88.5362224 47.8462614,86.7612833 48.0050832,83.7237491 C48.0122909,83.5856611 48.125717,83.4810247 48.255961,83.4921306 C49.8631466,83.6276762 51.0640468,84.5466571 51.4551581,86.2873418 C51.78747,87.7659002 51.2946925,89.4428931 50.2947221,90.5004972 C49.1354241,91.7268309 47.4249284,92.232083 45.863265,92.4939417 C41.8599693,93.165515 36.491767,92.517893 34.8015035,87.9699546 C33.9453073,85.6660797 34.2391782,83.0804089 34.3859872,80.6458054 C34.5550515,77.8447067 34.9067103,74.9475351 34.5936189,72.1483097 C34.459202,71.3049293 34.0428006,71.4178617 34.0428006,71.4178617 L34.0439387,71.41077 C33.2503354,71.4547923 32.8315315,71.2752244 32.8315315,71.2752244 C32.2932318,71.1089033 31.8115819,70.769437 31.5590603,70.2469238 C30.9139099,68.9119395 31.6227913,67.2982369 32.0630919,66.0369798 C32.0911639,65.9564285 32.1774031,65.9162866 32.2518825,65.9508086 C32.8680756,66.2364848 33.238702,66.8850434 36.6772699,65.7357821 C38.4035718,65.1588098 40.0811904,64.4259533 41.8169761,63.8781508 C45.4939031,62.7176497 50.5663377,61.9107984 53.3674687,65.4681697 C54.4759336,66.8759446 54.6900143,69.112515 53.6438895,70.6282714 C52.7396421,71.9386354 51.1059019,72.3467443 49.6876333,72.5838489 C49.5256502,72.6108777 49.379347,72.4683741 49.3985675,72.2960317 C49.5835646,70.6333561 48.4648572,69.4347203 47.0672,68.9166227 C46.5782406,68.7343772 46.0534061,68.6305012 45.5342739,68.6039082 Z M88.9497486,71.1612215 C87.6542634,72.6650692 85.6215719,72.9362943 84.4094176,71.7672297 C83.1972634,70.5980312 83.2647879,68.4310401 84.5601466,66.9273261 C85.8556318,65.4234784 87.8884497,65.1521195 89.100604,66.3213179 C90.3127583,67.4903826 90.2452337,69.6573738 88.9497486,71.1612215 Z M92.3329312,88.0252165 C92.3599916,88.3665561 92.3616354,88.7210087 92.3326783,89.0750599 C92.3326783,89.0820178 92.3336899,89.0885743 92.3336899,89.0953984 C92.3336899,91.0830893 90.7775903,92.7186023 88.9096638,92.7186023 C87.0038021,92.7186023 86.1306616,92.0530504 85.5277457,90.994242 C84.9483496,89.976646 84.8978959,88.7211425 84.8978959,87.5746911 C84.8978959,87.5724164 85.0637989,82.3130305 85.0637989,82.3130305 C85.0637989,81.6599225 85.0722711,81.0698372 85.064684,80.5449155 C85.064684,80.5399647 85.0644311,80.5355491 85.0644311,80.5305982 C85.0634195,80.4628923 85.0612699,80.3990668 85.059626,80.3335017 C84.9879286,78.8989656 84.1197196,78.6221206 83.6997776,78.5724785 C83.5878689,78.5592317 83.5136425,78.4405456 83.5536008,78.3292189 C84.2345366,76.4341219 86.0852659,74.3747108 88.1180838,74.6918315 C89.4059819,74.8928084 89.8743545,75.7091599 90.0756636,77.2903476 C90.2072986,78.3233314 90.2250017,81.831462 90.2250017,82.8651148 C90.2250017,83.9421208 90.1423031,84.9156946 90.3719371,85.9944401 C90.5800746,86.972028 91.228892,87.7086311 92.1389561,87.8119295 C92.242772,87.8238382 92.3243325,87.9152279 92.3329312,88.0252165 Z M102.905456,88.0364563 C102.931505,88.3743169 102.932769,88.7247553 102.904191,89.0750599 C102.904318,89.0820178 102.905203,89.0885743 102.905203,89.0953984 C102.905203,91.0830893 101.349103,92.7186023 99.4811768,92.7186023 C97.5754416,92.7186023 96.7021746,92.0530504 96.0992587,90.994242 C95.5198626,89.976646 95.4694089,88.7211425 95.4694089,87.5746911 C95.4694089,87.5724164 95.6353119,82.3130305 95.6353119,82.3130305 C95.6353119,81.6599225 95.6437841,69.2979703 95.636197,68.7729149 C95.636197,68.7680978 95.6359441,68.7635484 95.6359441,68.7585976 C95.6349325,68.6908917 95.6327829,68.6270661 95.631139,68.5615011 C95.5602003,67.1435569 94.7112118,66.8566765 94.2859588,66.8022174 C94.1627961,66.786562 94.0913515,66.6492769 94.1362415,66.5268442 C94.8257759,64.640177 96.6676536,62.6045835 98.6897232,62.9199647 C99.9774949,63.1208078 100.445994,63.9372931 100.647177,65.518347 C100.778812,66.5514646 100.796515,81.831462 100.796515,82.8651148 C100.796515,83.9421208 100.713816,84.9156946 100.94345,85.9944401 C101.150702,86.9682815 101.795347,87.7028774 102.699974,87.8107252 C102.809733,87.8238382 102.896351,87.9197773 102.905456,88.0364563 Z M81.7343577,87.9253971 C81.761924,88.2691452 81.7636943,88.6261401 81.7347371,88.9830012 C81.7347371,88.9898253 81.7356223,88.9965156 81.7356223,89.0033398 C81.7356223,90.9908968 80.463404,92.6867565 78.5956039,92.7040174 C77.1721509,92.7171305 76.2260484,92.0804806 75.6231325,91.0216723 C75.0437364,90.00421 74.9932827,88.7487066 74.9932827,87.6022552 C74.9932827,87.5999805 75.0044103,82.311291 75.0044103,82.311291 C75.0044103,80.8390215 73.8006017,79.6498859 72.3829654,79.7915867 C71.2669135,79.901843 70.4004748,80.8859875 70.2454465,82.0381925 C70.0376884,83.5832526 70.1996714,85.3035987 70.3253632,86.8524053 C70.4658497,88.5835898 71.0671217,90.9460718 69.6913405,92.0960021 C68.4439065,93.1386199 66.4916376,92.6525021 65.1233169,92.2140192 C65.0330313,92.1851171 64.9790369,92.0906499 64.9911762,91.9916333 C65.3282932,89.337989 65.4579049,86.6652105 65.3508013,83.9893544 C65.3067966,82.890538 65.1697243,81.7315088 64.5467027,80.8122603 C64.0525343,80.083418 63.2618394,79.7048803 62.4180354,79.7925233 C61.1809703,79.9208435 60.2640779,81.0750556 60.2640779,82.3903704 L60.2446045,90.2612517 C60.2446045,93.1886635 57.2355889,92.8219007 55.7696485,92.4697228 C55.478433,92.3926505 55.1907582,92.2901549 54.9035892,92.1946173 C54.8201318,92.1669194 54.7677813,92.0782059 54.7801735,91.9865487 C55.0170152,90.2446597 55.3145532,88.8289903 55.4112878,87.1523988 C55.5747883,84.3193204 55.7294372,80.2367599 52.4691645,79.3140324 C52.3591526,79.2828556 52.2925132,79.1626976 52.3231142,79.0466876 C52.6369643,77.8588901 53.2585949,76.712974 54.1551288,75.9948362 C55.5562001,74.8726037 57.1340492,74.559631 58.0882445,76.4466996 C58.1649999,76.5983021 58.3405132,76.6490146 58.4782178,76.557625 L58.9237028,76.2623147 C60.6087819,75.1115815 63.8804352,73.5216964 67.0250057,75.6659405 C67.399552,75.9213766 67.6626955,76.2077218 67.8750058,76.4420164 C68.0210561,76.6032529 68.2543573,76.632824 68.4332847,76.5140042 L68.9283383,76.1852424 C70.6126587,75.0345092 74.1521341,73.5125976 77.2376522,75.7517103 C79.5047829,77.3921742 79.6587996,80.6884895 79.6312334,83.3137669 C79.6220025,84.1860494 79.5911486,85.0434795 79.7738695,85.9023814 C79.9825128,86.8825117 80.634365,87.6204528 81.5482226,87.7206737 C81.6478656,87.7316458 81.7258856,87.819824 81.7343577,87.9253971 Z" id="Fill-1-Copy-11" fill="#06C3C3"></path>
                        </g>
                    </g>
                </g>
                <path d="" id="Path-47" stroke="#979797"></path>
                <g id="Group-3" transform="translate(0.000000, 160.000000)">
                    <path d="M218.320912,44.8688445 C219.696178,42.8648301 222.751395,40.8541281 225.145721,40.4572387 C225.145721,40.4572387 227.556441,39.7100825 234.298899,39.7100825 C241.041357,39.7100825 243.480437,40.4617208 243.480437,40.4617208 C245.857008,40.8916936 248.895505,42.8605066 250.273739,44.8688445 L251.053823,46.0055708 C252.727419,48.4443067 251.691663,50.4212928 248.737686,50.4212928 C248.737686,50.4212928 246.899975,50.4212928 234.298899,50.4212928 C221.697822,50.4212928 219.858579,50.4212928 219.858579,50.4212928 C216.904924,50.4212928 215.862136,48.45173 217.540827,46.0055708 L218.320912,44.8688445 Z" id="Rectangle-13" fill="#1A2020" transform="translate(234.296427, 45.065688) scale(1, -1) translate(-234.296427, -45.065688) "></path>
                    <g id="Group-2">
                        <g id="Group-16" transform="translate(0.000000, 190.330544)" opacity="0.5">
                            <path d="M234.5,66.6694561 C364.010774,66.6694561 469,51.3177211 469,32.3803964 C469,14.9698544 380.257417,2.22285952 265.304273,0.0173445005 C255.223686,-0.176063736 241.960607,8.70461711 231.519068,8.70461711 C221.34225,8.70461711 214.297777,-0.181059346 204.462826,0.00281486099 C89.1376163,2.15893454 0,14.9311463 0,32.3803964 C0,51.3177211 104.989226,66.6694561 234.5,66.6694561 Z" id="Oval-4" fill="#EFEFEF"></path>
                            <path d="M234.5,41.9372385 C331.930123,41.9372385 410.912844,34.3145273 410.912844,24.9114365 C410.912844,15.5083458 331.930123,1.07531381 234.5,1.07531381 C137.069877,1.07531381 58.087156,15.5083458 58.087156,24.9114365 C58.087156,34.3145273 137.069877,41.9372385 234.5,41.9372385 Z" id="Oval-4" fill="#E1DFDF"></path>
                        </g>
                        <path d="M82.0868075,191.298814 C82.0868075,188.265365 78.3689666,139.002166 78.3689666,139.002166 L86.5424258,117.257572 C86.5424258,117.257572 95.0194872,108.892116 100.164156,105.955558 C105.308824,103.019 112.278849,102.567314 112.278849,102.567314 L132.233922,101.842425 C132.233922,101.842425 148.149059,101.746026 154.654828,102.567314 C161.160598,103.388603 219.874257,112.906143 219.874257,112.906143 L254.045909,110.898183 C254.045909,110.898183 298.516474,103.84351 320.341787,101.842425 C342.167099,99.8413393 352.814681,101.842425 352.814681,101.842425 C352.814681,101.842425 362.960266,104.298366 366.611396,105.955558 C370.262525,107.61275 377.190291,112.906143 377.190291,112.906143 L386.385701,132.926901 L386.254874,192.616795 L377.93772,200.124056 L302.854921,202.226549 L281.111933,188.397164 L219.874257,181.087599 L193.805405,191.360529 L158.550794,202.028852 L95.0847737,200.646018 C95.0847737,200.646018 82.0868075,194.332262 82.0868075,191.298814 Z" id="Path-28" fill="#FFFFFF"></path>
                        <path d="M114.302482,101.122301 C114.302482,101.122301 130.036745,70.7811272 147.970942,54.0575946 C165.905139,37.334062 183.273533,28.1846516 233.820423,27.7926913 C284.367313,27.400731 306.321994,40.8612747 320.433571,54.0575946 C334.545148,67.2539145 353.338363,102.528405 353.338363,102.528405" id="Rectangle-82" fill="#FFFFFF"></path>
                        <g id="Group-36" transform="translate(363.871692, 178.955817)"></g>
                        <path d="M312.300177,102.267578 C308.234384,93.186238 298.945626,86.8394081 288.137167,86.8394081 C276.809479,86.8394081 264.782095,92.2211363 262.821376,107.909383" id="Oval-2-Copy" stroke="#1A2020" stroke-width="2.2" stroke-linecap="round" stroke-linejoin="round"></path>
                        <path d="M350.392843,100.362311 C350.392843,92.6719816 356.776792,86.4377377 364.654427,86.4377377 L385.53164,86.4377377" id="Rectangle-33" stroke="#1A2020" stroke-width="2" stroke-linecap="round" stroke-linejoin="round"></path>
                        <path d="M80.2616836,100.362311 C80.2616836,92.6719816 86.6456329,86.4377377 94.5232681,86.4377377 L115.400481,86.4377377" id="Rectangle-33-Copy" stroke="#1A2020" stroke-width="2" stroke-linecap="round" stroke-linejoin="round" transform="translate(97.831082, 93.400024) scale(-1, 1) translate(-97.831082, -93.400024) "></path>
                        <path d="M74.6094659,83.5011799 C75.4728669,82.6458225 77.1591075,81.9524184 78.3791215,81.9524184 L95.9282102,81.9524184 C97.1467324,81.9524184 98.1345399,82.9336117 98.1345399,84.1521386 L98.1345399,92.8069858 C98.1345399,94.0218577 97.1580528,95.006706 95.9364508,95.006706 L67.3927679,95.006706 C64.9643581,95.006706 64.3934429,93.6220274 66.1185196,91.9130221 L74.6094659,83.5011799 Z" id="Rectangle-34-Copy-2" fill="#06C3C3" transform="translate(81.628185, 88.479562) scale(1, -1) translate(-81.628185, -88.479562) "></path>
                        <path d="M377.751678,83.5011799 C378.615079,82.6458225 380.30132,81.9524184 381.521334,81.9524184 L399.070422,81.9524184 C400.288945,81.9524184 401.276752,82.9336117 401.276752,84.1521386 L401.276752,92.8069858 C401.276752,94.0218577 400.300265,95.006706 399.078663,95.006706 L370.53498,95.006706 C368.10657,95.006706 367.535655,93.6220274 369.260732,91.9130221 L377.751678,83.5011799 Z" id="Rectangle-34-Copy-3" fill="#06C3C3" transform="translate(384.770397, 88.479562) scale(-1, -1) translate(-384.770397, -88.479562) "></path>
                        <path d="M332.501834,195.583224 C332.501834,195.583224 360.534533,200.718523 369.836805,198.261027 C379.139078,195.803531 385.210029,181.658651 385.210029,181.658651 L385.210029,210.454068 C385.210029,212.889277 383.240003,214.863403 380.806816,214.863403 L336.905047,214.863403 C334.473219,214.863403 332.501834,212.890692 332.501834,210.464307 L332.501834,195.583224 Z" id="Rectangle-83-Copy-5" fill="#1A2020"></path>
                        <path d="M83.0317345,182.16918 C83.0317345,182.16918 79.6201448,200.196293 97.3068708,198.771557 C114.993597,197.34682 135.73993,196.093754 135.73993,196.093754 L135.73993,210.974837 C135.73993,213.40439 133.769904,215.373933 131.336717,215.373933 L87.4349477,215.373933 C85.0031202,215.373933 83.0317345,213.396263 83.0317345,210.964598 L83.0317345,182.16918 Z" id="Rectangle-83-Copy-6" fill="#1A2020"></path>
                        <path d="M114.832768,101.470258 L142.499998,59.9148554 L164.831056,40.7156617 C164.831056,40.7156617 188.996179,32.0828644 191.460154,32.0828644 C193.92413,32.0828644 246.373697,28.9685376 246.373697,28.9685376 L286.162553,34.282297 L314.633529,47.8417458 L337.701924,77.4744192 L353.868649,103.139964 L320.101542,103.388334 L255.108455,113.650089 L214.266819,113.650089 L167.653446,107.053732 L144.900494,102.590834 L114.832768,101.470258 Z" id="Path-30" fill="#FFFFFF" opacity="0.745743937"></path>
                        <path d="M142.058036,86.8394081 C142.711907,85.7460145 143.119122,85.2932268 144.674764,82.554924 M148.332736,76.2124651 C151.553526,70.732739 162.31461,58.9108979 166.215959,55.776898 C171.549484,51.4924139 180.491095,48.2790508 194.766232,45.0656877" id="Rectangle-82" stroke="#1A2020" stroke-width="2.2" opacity="0.1" stroke-linecap="round"></path>
                        <path d="M80.5651414,157.533397 L91.2636882,173.187121 C92.6325271,175.189956 95.7151766,176.865998 98.1342395,176.930273 L169.975922,178.83912 C172.401584,178.90357 176.08309,177.976874 178.1882,176.775333 L191.231442,169.330601 C192.282259,168.730823 194.109662,168.244607 195.343028,168.244607 L272.717698,168.244607 C273.937647,168.244607 275.774021,168.761231 276.806846,169.390894 L288.737714,176.664566 C290.813364,177.929989 294.461587,178.906017 296.893342,178.844406 L372.65141,176.924987 C375.079989,176.863456 378.160852,175.186374 379.527243,173.187121 L388.986125,159.347229 C389.670773,158.345477 389.981668,158.485904 389.679587,159.664556 L381.44109,191.80927 L302.378797,193.951512 C302.378797,193.951512 292.313625,181.046418 267.24,181.098059 C243.073754,181.149194 248.174336,179.228426 238.689728,178.955817 C213.926562,178.322663 192.571492,178.86707 192.571492,178.86707 C190.144872,178.916084 186.440329,179.880206 184.296319,181.020947 L164.019784,191.80927 L95.9383651,191.80927 L84.957491,178.955817 L80.5651414,157.533397 Z" id="Path-13-Copy-5" fill="#BFF9F9" opacity="0.25707654"></path>
                        <path d="M80.5651414,171.9517 L91.0550104,185.600862 C92.5358226,187.527659 95.696416,189.089637 98.1345321,189.089637 L165.537095,189.089637 C167.966195,189.089637 171.581564,188.023205 173.628845,186.696943 L188.468587,177.083516 C191.017297,175.43242 195.552494,174.093942 198.574604,174.093942 L269.347942,174.093942 C272.380631,174.093942 276.864942,175.477822 279.387551,177.20106 L293.153755,186.604991 C295.162535,187.977223 298.751686,189.089637 301.184277,189.089637 L372.52196,189.089637 C374.948315,189.089637 377.930476,187.399483 379.180721,185.31804 L386.078282,173.834783 C386.70297,172.794785 387.068528,172.92805 386.896386,174.121301 L383.500823,197.658605 L372.58045,199.413185 L302.278937,201.943089 C302.278937,201.943089 292.218296,186.895753 267.15596,186.947394 C243.000593,186.998529 248.098878,187.220003 238.61854,186.947394 C213.866523,186.31424 192.455779,190.486566 192.455779,190.486566 C190.066309,190.898191 186.360572,192.111118 184.193953,193.188174 L167.592954,201.440757 L163.982213,201.943089 L89.0778079,199.184257 L83.7367879,196.276668 L80.5651414,171.9517 Z" id="Path-13-Copy-4" fill="#BFF9F9"></path>
                        <path d="M187.844617,168.593898 C189.44392,166.763353 192.674108,164.92148 195.072255,164.508475 C195.072255,164.508475 212.431222,160.994919 234.099581,160.994919 C255.554439,160.994919 272.782103,164.503516 272.782103,164.503516 C275.175674,164.932027 278.424766,166.763649 280.024647,168.578108 L306.583361,198.698901 C307.384022,199.606947 307.055734,200.19958 305.866584,200.01941 C305.866584,200.01941 300.044691,199.201295 297.058962,198.392102 C284.71196,195.045818 251.316111,184.311423 233.929581,184.311423 C217.402305,184.311423 186.407529,194.217545 172.778405,197.859209 C168.602711,198.974943 162.276005,199.979364 162.276005,199.979364 C161.077613,200.18023 160.760138,199.594488 161.552816,198.687199 L187.844617,168.593898 Z" id="Rectangle-3" fill="#06C3C3"></path>
                        <path d="M387.540143,160.122757 C387.002087,171.864758 386.128868,183.164316 384.920485,194.021429 C384.646796,196.48038 382.687051,198.401771 380.240402,198.609907 C358.44771,200.463809 335.298535,201.038021 310.792876,200.332543 C288.598302,199.693598 261.216652,183.240301 233.991465,183.240301 C206.12051,183.240301 180.755978,199.717632 158.225889,200.378238 C134.231401,201.081781 110.790397,200.492266 87.9028777,198.60969 C85.3936138,198.403298 83.4011355,196.397285 83.1939518,193.868782 C82.345166,183.510061 81.4917616,172.261386 80.6337388,160.122757 C80.2548019,154.761856 80.1171754,148.569279 80.2208596,141.545027 C80.5497103,119.266466 98.3778684,101.27899 120.484784,100.921289 C126.966156,100.816417 132.591152,100.763982 137.359774,100.763982 C156.024804,100.763982 193.363049,111.475192 233.991465,111.475192 C278.004364,111.475192 311.115327,100.763982 330.623157,100.763982 C340.98496,100.0987 349.648787,100.921345 356.614639,103.231916 C391.956338,114.954749 387.71398,156.329105 387.540143,160.122757 Z" id="Rectangle-78" stroke="#1A2020" stroke-width="2"></path>
                        <ellipse id="Oval-6-Copy-5" fill="#FFFFFF" opacity="0.355701959" cx="331.723699" cy="137.182097" rx="5.49043703" ry="5.35560519"></ellipse>
                        <g id="Group" transform="translate(92.646855, 117.870117)">
                            <mask id="mask-20" fill="white">
                                <use xlink:href="#path-19"></use>
                            </mask>
                            <use id="Rectangle-4" fill="#1A2020" transform="translate(32.123055, 22.398971) scale(1, -1) rotate(-15.000000) translate(-32.123055, -22.398971) " xlink:href="#path-19"></use>
                            <ellipse id="Oval-6" fill="#06C3C3" mask="url(#mask-20)" cx="42.8226564" cy="18.2408589" rx="13.1770489" ry="12.8534524"></ellipse>
                            <path d="M35.1858875,7.81370213 C37.7309386,5.81023199 41.0554335,4.62347042 44.5019486,4.62347042 C51.7794317,4.62347042 55.1139157,8.88289067 55.8446057,15.9431592 C56.0562095,17.987774 56.0843487,20.1968583 55.4247711,21.9670758 C53.276918,23.4492625 50.6543044,24.3201976 47.8231518,24.3201976 C40.5456687,24.3201976 34.646103,18.565511 34.646103,11.4667452 C34.646103,10.197709 34.8346425,8.9716272 35.1858887,7.81369806 Z" id="Combined-Shape" fill="#FFFFFF" opacity="0.442538496" mask="url(#mask-20)"></path>
                            <ellipse id="Oval-6-Copy" fill="#FAD214" mask="url(#mask-20)" cx="17.2631882" cy="19.31198" rx="5.49043703" ry="5.35560519"></ellipse>
                        </g>
                        <g id="Group" transform="translate(341.573064, 140.370117) scale(-1, 1) translate(-341.573064, -140.370117) translate(309.073064, 117.870117)">
                            <mask id="mask-22" fill="white">
                                <use xlink:href="#path-21"></use>
                            </mask>
                            <use id="Rectangle-4" fill="#1A2020" transform="translate(32.123055, 22.398971) scale(1, -1) rotate(-15.000000) translate(-32.123055, -22.398971) " xlink:href="#path-21"></use>
                            <ellipse id="Oval-6" fill="#06C3C3" mask="url(#mask-22)" cx="42.8226564" cy="18.2408589" rx="13.1770489" ry="12.8534524"></ellipse>
                            <path d="M35.1858875,7.81370213 C37.7309386,5.81023199 41.0554335,4.62347042 44.5019486,4.62347042 C51.7794317,4.62347042 55.1139157,8.88289067 55.8446057,15.9431592 C56.0562095,17.987774 56.0843487,20.1968583 55.4247711,21.9670758 C53.276918,23.4492625 50.6543044,24.3201976 47.8231518,24.3201976 C40.5456687,24.3201976 34.646103,18.565511 34.646103,11.4667452 C34.646103,10.197709 34.8346425,8.9716272 35.1858887,7.81369806 Z" id="Combined-Shape" fill="#FFFFFF" opacity="0.442538496" mask="url(#mask-22)"></path>
                            <ellipse id="Oval-6-Copy" fill="#FAD214" mask="url(#mask-22)" cx="17.2631882" cy="19.31198" rx="5.49043703" ry="5.35560519"></ellipse>
                        </g>
                        <path d="M111.311589,184.432065 L146.450386,184.432065" id="Line-Copy-8" stroke="#1A2020" stroke-width="2" stroke-linecap="round" stroke-linejoin="round"></path>
                        <path d="M324.340545,184.432065 L359.479342,184.432065" id="Line-Copy-9" stroke="#1A2020" stroke-width="2" stroke-linecap="round" stroke-linejoin="round"></path>
                        <path d="M359.977237,159.471335 L247.790174,142.048109 C274.172899,64.7392481 291.300247,20.2881913 299.172219,8.69493915 C307.044191,-2.89831305 320.099699,-2.89831305 338.338744,8.69493915 L359.977237,159.471335 Z" id="Path-6-Copy" fill="url(#linearGradient-23)" opacity="0.537703804"></path>
                        <polygon id="Path-6-Copy" fill="url(#linearGradient-23)" opacity="0.537703804" points="226.95985 165.018164 282.415811 13.8670726 260.543761 20.655278 196.544232 157.414666"></polygon>
                    </g>
                    <g id="Group-45" transform="translate(113.442704, 27.734145)">
                        <path d="M0,74.0120041 C0,74.0120041 15.8631822,43.3919699 33.9443237,26.5147344 C52.0254651,9.63749894 69.5361677,0.403997938 120.497216,0.00843519978 C171.458264,-0.387127539 193.592832,13.1971296 207.820033,26.5147344 C222.047234,39.8323393 240.994432,75.4310309 240.994432,75.4310309 C240.994432,75.4310309 224.174603,69.1972883 196.004788,75.4310309 C167.834973,81.6647735 153.77984,84.5891427 120.497216,84.5891427 C87.2145924,84.5891427 44.0018675,74.0120041 28.5293392,74.0120041 L0,74.0120041 Z" id="Rectangle-82" fill="#1A2020"></path>
                        <g id="Group-42">
                            <mask id="mask-25" fill="white">
                                <use xlink:href="#path-24"></use>
                            </mask>
                            <use id="Mask" fill="#1A2020" xlink:href="#path-24"></use>
                            <g mask="url(#mask-25)" id="Path-6-Copy" fill="url(#linearGradient-23)" opacity="0.537703804">
                                <g transform="translate(84.673719, -29.280857)">
                                    <path d="M166.090757,162.671428 L52.1069042,144.898573 C78.9121749,66.0383634 96.313835,20.6953122 104.311884,8.86941953 C112.309934,-2.95647318 125.574539,-2.95647318 144.105701,8.86941953 L166.090757,162.671428 Z"></path>
                                    <polygon points="31.1448501 169.178285 87.9304009 16.2671428 65.5339555 23.1343923 -3.55271368e-14 161.486251"></polygon>
                                </g>
                            </g>
                        </g>
                    </g>
                </g>
            </g>
        </g>
    </g>
</svg>