<?xml version="1.0" encoding="UTF-8"?>
<svg width="237px" height="158px" viewBox="0 0 237 158" version="1.1" xmlns="http://www.w3.org/2000/svg" xmlns:xlink="http://www.w3.org/1999/xlink">
    <!-- Generator: Sketch 47 (45396) - http://www.bohemiancoding.com/sketch -->
    <title>icon_savemoremoney</title>
    <desc>Created with Sketch.</desc>
    <defs>
        <path d="M17.9291112,12.2165124 C13.7642755,4.99132791 16.564586,1.87383186 24.196829,5.25917817 L24.0057399,5.17441896 C27.036471,6.5187255 31.4168993,5.73146028 33.7921908,3.41358262 L35.6156398,1.63420875 C37.9898163,-0.682580846 41.6614082,-0.515051069 43.8120487,2.00333712 L44.7011368,3.04445426 C46.8537119,5.56510782 51.0572974,6.51797786 54.0863429,5.17441896 L53.8952538,5.25917817 C61.5216545,1.87642329 64.3276841,4.99154176 60.1658794,12.2114679 L56.9865221,17.727038 L54.9541822,22.6651956 C53.6921057,25.7317754 50.0550987,28.8565129 46.8289267,29.5587677 C46.8289267,29.5587677 43.9939472,30.4892264 39.9144666,30.4892264 C35.8349861,30.4892264 31.5940141,28.4264962 31.5940141,28.4264962 C28.515385,27.2255855 24.6733878,23.9165279 23.0242184,21.0555381 L17.9291112,12.2165124 Z" id="path-1"></path>
        <filter x="-6.5%" y="-9.8%" width="113.0%" height="119.7%" filterUnits="objectBoundingBox" id="filter-2">
            <feOffset dx="0" dy="-5" in="SourceAlpha" result="shadowOffsetInner1"></feOffset>
            <feComposite in="shadowOffsetInner1" in2="SourceAlpha" operator="arithmetic" k2="-1" k3="1" result="shadowInnerInner1"></feComposite>
            <feColorMatrix values="0 0 0 0 0.936277636   0 0 0 0 0.936277636   0 0 0 0 0.936277636  0 0 0 1 0" type="matrix" in="shadowInnerInner1"></feColorMatrix>
        </filter>
        <path d="M0,21.2412321 C0,9.51002356 9.51272743,-3.69482223e-13 21.2437241,-3.69482223e-13 L74.5448334,-3.69482223e-13 C86.2774182,-3.69482223e-13 95.7885574,9.50744419 95.7885574,21.2412321 L95.7885574,36.0764132 C95.7885574,39.6143775 92.9217962,42.4824643 89.3921878,42.4824643 L6.39636968,42.4824643 C2.86375225,42.4824643 0,39.6125084 0,36.0764132 L0,21.2412321 Z" id="path-3"></path>
        <filter x="-3.7%" y="-8.2%" width="107.3%" height="116.5%" filterUnits="objectBoundingBox" id="filter-4">
            <feOffset dx="0" dy="-6" in="SourceAlpha" result="shadowOffsetInner1"></feOffset>
            <feComposite in="shadowOffsetInner1" in2="SourceAlpha" operator="arithmetic" k2="-1" k3="1" result="shadowInnerInner1"></feComposite>
            <feColorMatrix values="0 0 0 0 0.936277636   0 0 0 0 0.936277636   0 0 0 0 0.936277636  0 0 0 1 0" type="matrix" in="shadowInnerInner1"></feColorMatrix>
        </filter>
    </defs>
    <g id="Insurance" stroke="none" stroke-width="1" fill="none" fill-rule="evenodd">
        <g id="Insurance_Teilkasko" transform="translate(-415.000000, -4907.000000)">
            <g id="icon_savemoremoney" transform="translate(399.000000, 4893.000000)">
                <g id="Group" stroke-width="1" transform="translate(140.000000, 15.000000)">
                    <path d="M27.9793144,27 C25.7669643,28.6397022 8.85888943,48.5067648 5.24059167,56.9508162 C1.62229392,65.3948676 0.572420637,71.2447922 0.0458562045,78.7772878 C-0.480708228,86.3097834 3.42086473,108.097717 17.2986184,110.137569 C26.5504542,111.49747 39.2452048,110.842166 58.3735741,110.842166 C71.1913158,110.676774 78.7717322,92.2876125 78.9717236,82.3180319 C79.1196244,74.9451648 78.8628082,68.5823966 73.7945313,56.9508162 C70.5710446,49.5529875 60.6133018,35.817132 52.0914476,27 L27.9793144,27 Z" id="Path-49" stroke="#1A2020" fill="#FFFFFF"></path>
                    <g id="Rectangle-26" stroke-linecap="round" stroke-linejoin="round">
                        <use fill="#FFFFFF" fill-rule="evenodd" xlink:href="#path-1"></use>
                        <use fill="black" fill-opacity="1" filter="url(#filter-2)" xlink:href="#path-1"></use>
                        <use stroke="#1A2020" stroke-width="1" xlink:href="#path-1"></use>
                    </g>
                    <g id="Group-34" transform="translate(25.000000, 57.000000)" stroke="#06C3C3" stroke-width="4" stroke-linecap="round" stroke-linejoin="round">
                        <path d="M26,0 L21.3793695,0 C12.8855783,0 6,6.71572875 6,15 C6,23.2842712 12.8855783,30 21.3793695,30 L26,30" id="Oval-5-Copy"></path>
                        <path d="M0,12 L21.228831,12" id="Line"></path>
                        <path d="M0,19 L21.228831,19" id="Line-Copy-2"></path>
                    </g>
                </g>
                <path d="M235.993444,97.6058721 C238.128281,94.3158905 239.368817,88.3221015 245.833821,88.985642 C252.298825,89.6491825 252.176811,96.8378972 250.406135,100.142081 C248.635459,103.446265 227.43895,149.544622 204.173917,158.884233 C180.908885,168.223844 162.658116,172.860917 154.383226,170.326852 C135.494314,164.542122 74.4555858,145.251757 59,142.489953 L58.3388373,88.985642 C75.6198899,84.5459779 89.8244757,83.4479734 100.952595,85.6916286 C117.644773,89.0571115 129.157772,94.5555504 150.413295,108.32005 C171.668819,122.08455 193.547544,122.039506 195.880413,121.235951 C197.435659,120.700247 203.790569,114.155817 214.945143,101.60266 C221.401796,87.8528665 227.617541,81.8774161 233.59238,83.6763095 C239.567219,85.4752028 240.367573,90.1183903 235.993444,97.6058721 Z" id="Stroke-3" fill="#FFFAE4"></path>
                <g id="Group-4" stroke-width="1" transform="translate(16.000000, 69.000000)">
                    <g id="Page-1" transform="translate(42.454053, 13.981332)" stroke="#1A2020">
                        <path d="M179.748721,10.1522318 C181.883558,6.86225021 184.82072,4.20313311 189.658289,6.57540258 C194.495858,8.94767204 193.402462,15.1864467 191.631786,18.4906305 C189.86111,21.7948143 168.971361,66.726433 145.706329,76.0660439 C122.441296,85.4056548 103.372378,89.7488867 95.0974879,87.2148219 C76.2085763,81.4300921 16.1314503,62.2134529 0.675864419,59.4516488" id="Stroke-3"></path>
                        <path d="M136.981135,37.4167489 C145.55883,31.3957942 164.975824,4.31679224 166.808812,2.58096099 C170.530227,-0.943200834 175.269494,-0.0485017747 177.500817,1.61509962 C181.567076,4.64676866 180.771579,8.14183392 180.212911,9.80638683 C179.129295,13.0383454 158.929323,41.6561838 152.533407,50.3755122" id="Stroke-5"></path>
                        <path d="M0.459347273,5.78478868 C17.8263032,0.0571792088 34.783186,-0.608575533 52.35113,4.33641148 C65.6150203,8.07000279 77.4276973,15.5290254 88.7954238,23.8841692 C96.0680185,29.2297402 104.924114,35.2648224 113.544784,36.5956515 C118.415439,37.3478593 131.667059,36.4921265 143.743903,38.3394015 C155.820746,40.1866766 156.75434,55.4591431 142.147891,56.7269597 C133.145516,57.5083516 101.951009,56.9319112 88.7954238,54.115109" id="Stroke-1"></path>
                    </g>
                    <g id="Group-2" transform="translate(21.786765, 48.701006) rotate(90.000000) translate(-21.786765, -48.701006) translate(-26.213235, 27.201006)">
                        <g id="Rectangle-51-Copy" stroke-linecap="round" stroke-linejoin="round">
                            <use fill="#FFFFFF" fill-rule="evenodd" xlink:href="#path-3"></use>
                            <use fill="black" fill-opacity="1" filter="url(#filter-4)" xlink:href="#path-3"></use>
                            <use stroke="#1A2020" stroke-width="1" xlink:href="#path-3"></use>
                        </g>
                        <rect id="Rectangle-52-Copy" fill="#FAD214" x="11.9907407" y="11.5105033" width="15.587963" height="15.5995272" rx="7.79398148"></rect>
                    </g>
                </g>
            </g>
        </g>
    </g>
</svg>