<svg width="1875px" height="496px" viewBox="-412 939 1875 496" version="1.1" xmlns="http://www.w3.org/2000/svg" xmlns:xlink="http://www.w3.org/1999/xlink">
    <!-- Generator: Sketch 40.3 (33839) - http://www.bohemiancoding.com/sketch -->
    <desc>Created with Sketch.</desc>
    <defs></defs>
    <g id="Group-10-Copy-2" stroke="none" stroke-width="1" fill="none" fill-rule="evenodd" transform="translate(-412.000000, 940.000000)">
        <g id="Group-3" transform="translate(1171.000000, 489.000000)"></g>
        <path d="M315.55289,181.555283 C336.25008,231.021627 393.026816,254.296897 442.444552,233.630503 C491.862287,212.912955 515.114686,156.029217 494.4686,106.614028 C473.77141,57.1476846 416.943569,33.8724144 367.576938,54.5388082 C318.159202,75.2563564 294.855699,132.088939 315.55289,181.555283 Z" id="Stroke-23" stroke="#FAD214" stroke-width="2"></path>
        <path d="M1314.83959,164.587477 C1322.62092,183.184871 1343.96673,191.935454 1362.54585,184.165706 C1381.12497,176.376725 1389.86695,154.990684 1382.10484,136.412523 C1374.32351,117.815129 1352.95848,109.064546 1334.39858,116.834294 C1315.81946,124.623275 1307.05826,145.990084 1314.83959,164.587477 Z" id="Stroke-23-Copy" stroke="#FAD214" stroke-width="2"></path>
        <path d="M1821.13942,267.113853 C1827.00206,281.125588 1843.08452,287.718493 1857.08249,281.864573 C1871.08045,275.996163 1877.66688,259.883392 1871.81871,245.886147 C1865.95607,231.874412 1849.85913,225.281507 1835.87564,231.135427 C1821.87767,237.003837 1815.27677,253.102118 1821.13942,267.113853 Z" id="Stroke-23-Copy-4" stroke="#0FE1C3" stroke-width="2"></path>
        <path d="M670.777969,311.859583 C672.90984,316.954759 678.758008,319.352179 683.848177,317.223481 C688.938347,315.089514 691.333411,309.230324 689.206804,304.140417 C687.074934,299.045241 681.221502,296.647821 676.136597,298.776519 C671.046427,300.910486 668.646099,306.764407 670.777969,311.859583 Z" id="Stroke-23-Copy-2" stroke="#F478A2" stroke-width="2"></path>
        <path d="M1285.8336,103.185407 C1285.47472,104.248026 1284.72642,105.104237 1283.7185,105.60879 C1281.64158,106.64083 1279.09888,105.776974 1278.06042,103.682315 L1275.0443,97.5971008 L1268.96624,100.624418 C1266.88168,101.664103 1264.33135,100.815537 1263.30052,98.7285225 C1262.8042,97.7270614 1262.72784,96.5879949 1263.08672,95.5177311 C1263.4456,94.4474673 1264.20917,93.5759668 1265.22473,93.0714138 L1271.30278,90.051741 L1268.28666,83.9665268 C1267.77507,82.9421314 1267.69871,81.7877754 1268.05759,80.7175116 C1268.41647,79.6548926 1269.16477,78.7910368 1270.17269,78.2941286 C1272.24961,77.2620885 1274.79232,78.1182996 1275.83078,80.2129587 L1278.8469,86.2981729 L1284.92495,83.2785 C1287.00951,82.2388152 1289.55221,83.0873815 1290.58304,85.1667512 C1291.087,86.175857 1291.16335,87.3149235 1290.80447,88.3775426 C1290.43796,89.4554511 1289.68202,90.3269517 1288.66646,90.8315046 L1282.58841,93.8511775 L1285.60453,99.9363917 C1286.11613,100.960787 1286.19248,102.115143 1285.8336,103.185407" id="Fill-42" fill="#765DFF" transform="translate(1276.945324, 91.950695) rotate(27.000000) translate(-1276.945324, -91.950695) "></path>
        <path d="M1777.88097,10.7106453 C1777.75354,11.0876232 1777.48784,11.3913752 1777.12996,11.570372 C1776.3925,11.9365016 1775.48965,11.6300375 1775.12092,10.8869299 L1774.04998,8.72812099 L1771.89183,9.80210131 C1771.15166,10.170943 1770.24611,9.8699031 1769.88009,9.12950757 C1769.70386,8.7742262 1769.67675,8.37012755 1769.80417,7.99043753 C1769.9316,7.61074752 1770.20273,7.30157136 1770.56332,7.12257464 L1772.72147,6.05130639 L1771.65053,3.89249745 C1771.46888,3.52907986 1771.44177,3.11955706 1771.56919,2.73986705 C1771.69662,2.36288911 1771.96232,2.05642502 1772.32021,1.88014037 C1773.05767,1.51401072 1773.96051,1.81776273 1774.32924,2.56087033 L1775.40018,4.71967927 L1777.55833,3.64841101 C1778.2985,3.27956928 1779.20135,3.58060922 1779.56736,4.31829268 C1779.74631,4.67628612 1779.77342,5.08038478 1779.64599,5.45736272 C1779.51585,5.83976481 1779.24744,6.14894096 1778.88684,6.32793768 L1776.72869,7.39920594 L1777.79963,9.55801488 C1777.98129,9.92143246 1778.0084,10.3309553 1777.88097,10.7106453" id="Fill-42-Copy-2" fill="#0FE1C3" transform="translate(1774.724985, 6.724985) rotate(27.000000) translate(-1774.724985, -6.724985) "></path>
        <path d="M889.401527,222.396761 C889.248867,222.848927 888.930556,223.213262 888.501811,223.427959 C887.618336,223.867113 886.536729,223.499525 886.094991,222.608205 L884.812003,220.018825 L882.226539,221.307009 C881.339816,221.749416 880.254961,221.388334 879.816471,220.500268 C879.605347,220.074126 879.572866,219.589431 879.725525,219.134012 C879.878185,218.678593 880.202992,218.307753 880.634985,218.093055 L883.220449,216.808124 L881.937461,214.218744 C881.71984,213.782844 881.68736,213.291642 881.840019,212.836223 C881.992678,212.384058 882.310989,212.01647 882.739735,211.805026 C883.62321,211.365872 884.704817,211.730207 885.146555,212.621526 L886.429542,215.210906 L889.015006,213.925975 C889.901729,213.483568 890.983337,213.84465 891.421826,214.729464 C891.636199,215.158858 891.66868,215.643554 891.51602,216.095719 C891.360113,216.554391 891.038554,216.925232 890.606561,217.139929 L888.021097,218.42486 L889.304085,221.01424 C889.521705,221.450141 889.554186,221.941342 889.401527,222.396761" id="Fill-42-Copy-6" fill="#FAD214" transform="translate(885.620657, 217.616167) rotate(71.000000) translate(-885.620657, -217.616167) "></path>
        <path d="M1661.37218,398.715215 C1661.16741,399.32153 1660.74044,399.810071 1660.16534,400.097962 C1658.98028,400.686829 1657.52945,400.193925 1656.93692,398.998744 L1655.21596,395.52661 L1651.74792,397.253953 C1650.5585,397.847182 1649.10331,397.363002 1648.51514,396.172183 C1648.23194,395.600764 1648.18838,394.950829 1648.39315,394.340152 C1648.59792,393.729476 1649.0336,393.23221 1649.61306,392.94432 L1653.08111,391.221339 L1651.36016,387.749206 C1651.06825,387.164701 1651.02468,386.506042 1651.22945,385.895365 C1651.43422,385.289051 1651.86119,384.796147 1652.4363,384.512619 C1653.62136,383.923752 1655.07219,384.412293 1655.66472,385.607475 L1657.38567,389.079608 L1660.85372,387.356628 C1662.04314,386.763399 1663.49397,387.247578 1664.08214,388.434036 C1664.36969,389.009817 1664.41326,389.659751 1664.20849,390.266066 C1663.99936,390.881105 1663.56803,391.37837 1662.98857,391.666261 L1659.52053,393.389242 L1661.24148,396.861375 C1661.53339,397.44588 1661.57696,398.104538 1661.37218,398.715215" id="Fill-42-Copy-4" fill="#FAD214" transform="translate(1656.300663, 392.304854) rotate(-20.000000) translate(-1656.300663, -392.304854) "></path>
        <path d="M31.365046,231.042281 C30.9572749,232.249663 30.1070287,233.222518 28.9617992,233.795808 C26.6019324,234.968445 23.7128308,233.986904 22.5328973,231.606884 L19.1058849,224.692667 L12.199804,228.132403 C9.83126124,229.313727 6.9334836,228.349558 5.76222618,225.978225 C5.19828741,224.840332 5.1115276,223.546088 5.51929871,222.33002 C5.92706981,221.113951 6.79466791,220.123724 7.94857337,219.550435 L14.8546542,216.119384 L11.4276417,209.205167 C10.846351,208.041215 10.7595912,206.729599 11.1673623,205.51353 C11.5751334,204.306148 12.4253795,203.324607 13.570609,202.760004 C15.9304758,201.587367 18.8195775,202.560221 19.9995109,204.940241 L23.4265234,211.854459 L30.3326042,208.423408 C32.701147,207.242085 35.5902487,208.206253 36.7615061,210.568901 C37.3341208,211.715479 37.4208807,213.009724 37.0131096,214.217106 C36.5966625,215.44186 35.7377404,216.432088 34.5838349,217.005377 L27.6777541,220.436427 L31.1047665,227.350645 C31.6860573,228.514596 31.7728171,229.826213 31.365046,231.042281" id="Fill-42-Copy-7" fill="#0FE1C3" transform="translate(21.265895, 218.277038) rotate(-20.000000) translate(-21.265895, -218.277038) "></path>
        <path d="M537.682534,38.0249275 C537.477762,38.6312423 537.050792,39.1197837 536.475688,39.4076742 C535.290627,39.996541 533.839798,39.5036377 533.247267,38.308456 L531.526314,34.8363225 L528.058267,36.5636653 C526.868848,37.1568942 525.413663,36.6727147 524.825489,35.4818951 C524.542294,34.9104761 524.498725,34.2605416 524.703497,33.6498648 C524.908269,33.0391881 525.343953,32.5419227 525.923413,32.2540322 L529.391461,30.5310514 L527.670507,27.0589179 C527.378599,26.474413 527.335031,25.8157545 527.539802,25.2050778 C527.744574,24.598763 528.171544,24.1058596 528.746648,23.8223311 C529.931709,23.2334642 531.382538,23.7220056 531.975069,24.9171873 L533.696022,28.3893208 L537.16407,26.66634 C538.353488,26.0731111 539.804317,26.5572906 540.392491,27.7437482 C540.680042,28.3195292 540.723611,28.9694637 540.518839,29.5757785 C540.309711,30.1908172 539.878383,30.6880826 539.298923,30.975973 L535.830875,32.6989539 L537.551829,36.1710874 C537.843737,36.7555923 537.887306,37.4142508 537.682534,38.0249275" id="Fill-42-Copy-5" fill="#F478A2" transform="translate(532.611013, 31.614567) rotate(-24.000000) translate(-532.611013, -31.614567) "></path>
    </g>
</svg>