<svg width="439px" height="301px" viewBox="-42 707 439 301" version="1.1" xmlns="http://www.w3.org/2000/svg" xmlns:xlink="http://www.w3.org/1999/xlink">
    <!-- Generator: Sketch 40.3 (33839) - http://www.bohemiancoding.com/sketch -->
    <desc>Created with Sketch.</desc>
    <defs></defs>
    <g id="Group-11" stroke="none" stroke-width="1" fill="none" fill-rule="evenodd" transform="translate(-41.000000, 707.000000)">
        <g id="Group-3" transform="translate(228.000000, 188.000000)"></g>
        <path d="M3.23145877,73.568676 C12.0866282,94.7325563 36.3782166,104.690742 57.5213002,95.8487486 C78.6643839,86.984869 88.6127841,62.6475009 79.7794793,41.5055067 C70.9243098,20.3416264 46.6108568,10.3834407 25.4896378,19.2254342 C4.34655418,28.0893137 -5.6237107,52.4047957 3.23145877,73.568676 Z" id="Stroke-23" stroke="#FAD214"></path>
        <path d="M349.70052,42.4798088 C351.620154,47.067741 356.886115,49.2264888 361.469539,47.3097105 C366.052962,45.3881877 368.209589,40.112303 366.294694,35.5291153 C364.37506,30.9411831 359.104359,28.7824353 354.525675,30.6992136 C349.942251,32.6207364 347.780885,37.8918766 349.70052,42.4798088 Z" id="Stroke-23-Copy" stroke="#765DFF"></path>
        <path d="M398.555939,287.719166 C402.81968,297.909518 414.516015,302.704358 424.696354,298.446962 C434.876693,294.179027 439.666822,282.460649 435.413609,272.280834 C431.149868,262.090482 419.443005,257.295642 409.273193,261.553038 C399.092854,265.820973 394.292198,277.528813 398.555939,287.719166 Z" id="Stroke-23-Copy-2" stroke="#FAD214"></path>
        <path d="M201.845261,95.9238389 C201.679604,96.4139102 201.334191,96.8087878 200.868942,97.0414835 C199.910246,97.5174521 198.736548,97.1190488 198.2572,96.1530089 L196.864977,93.3465573 L194.059381,94.7427317 C193.097161,95.222226 191.919938,94.830874 191.444115,93.8683598 C191.215015,93.4064941 191.179769,92.8811658 191.345426,92.3875688 C191.511083,91.8939718 191.863545,91.4920428 192.332319,91.259347 L195.137914,89.8666983 L193.74569,87.0602467 C193.509541,86.5878038 193.474295,86.0554242 193.639952,85.5618272 C193.805609,85.0717558 194.151021,84.6733525 194.616271,84.4441825 C195.574967,83.9682139 196.748664,84.3630915 197.228012,85.3291314 L198.620236,88.135583 L201.425831,86.7429343 C202.388052,86.2634401 203.561749,86.654792 204.037573,87.6137805 C204.270197,88.079172 204.305444,88.6045002 204.139787,89.0945715 C203.970605,89.5916943 203.621668,89.9936233 203.152894,90.226319 L200.347298,91.6189677 L201.739522,94.4254193 C201.975672,94.8978622 202.010918,95.4302418 201.845261,95.9238389" id="Fill-42" fill="#765DFF" transform="translate(197.742481, 90.742481) rotate(27.000000) translate(-197.742481, -90.742481) "></path>
        <path d="M98.9203447,28.4217895 C98.844015,28.6478723 98.6848596,28.8300397 98.4704869,28.9373884 C98.0287494,29.1569652 97.4879457,28.9731713 97.2670769,28.5275116 L96.6255831,27.2328216 L95.3328511,27.8769136 C94.8894895,28.098117 94.3470618,27.917576 94.127817,27.4735429 C94.0222548,27.260472 94.0060144,27.0181243 94.0823441,26.790415 C94.1586737,26.5627057 94.3210772,26.3772852 94.5370739,26.2699366 L95.8298058,25.627471 L95.188312,24.332781 C95.0795016,24.1148307 95.0632613,23.8692299 95.1395909,23.6415206 C95.2159206,23.4154378 95.375076,23.2316439 95.5894486,23.1259217 C96.0311862,22.9063449 96.5719899,23.0885123 96.7928587,23.534172 L97.4343525,24.828862 L98.7270845,24.1863965 C99.1704461,23.9651931 99.7112498,24.1457341 99.9304945,24.5881407 C100.037681,24.8028381 100.053921,25.0451858 99.9775915,25.2712686 C99.8996379,25.5006044 99.7388584,25.6860249 99.5228617,25.7933735 L98.2301298,26.4358391 L98.8716236,27.7305291 C98.980434,27.9484794 98.9966743,28.1940802 98.9203447,28.4217895" id="Fill-42-Copy-4" fill="#F478A2" transform="translate(97.029910, 26.031492) rotate(27.000000) translate(-97.029910, -26.031492) "></path>
        <path d="M67.923418,245.676599 C67.8087324,246.016175 67.5696007,246.289791 67.2475049,246.451028 C66.5837923,246.780833 65.7712325,246.504774 65.4393762,245.835394 L64.475529,243.89077 L62.5331937,244.858196 C61.8670411,245.190443 61.0520411,244.919271 60.722625,244.252333 C60.5640172,243.932301 60.539616,243.568295 60.6543016,243.226276 C60.7689872,242.884256 61.0129992,242.605755 61.3375351,242.444517 L63.2798703,241.479534 L62.3160231,239.534911 C62.1525351,239.207549 62.1281339,238.838657 62.2428195,238.496638 C62.3575051,238.157062 62.5966368,237.881003 62.9187326,237.722209 C63.5824452,237.392404 64.395005,237.66602 64.7268613,238.3354 L65.6907085,240.280024 L67.6330438,239.315041 C68.2991964,238.982794 69.1117563,239.253966 69.4411724,239.918461 C69.6022203,240.240936 69.6266215,240.604942 69.5119359,240.944519 C69.3948102,241.288981 69.1532383,241.567482 68.8287024,241.72872 L66.8863672,242.693703 L67.8502144,244.638326 C68.0137024,244.965688 68.0381036,245.33458 67.923418,245.676599" id="Fill-42-Copy-5" fill="#FAD214" transform="translate(65.083032, 242.086374) rotate(-8.000000) translate(-65.083032, -242.086374) "></path>
        <path d="M386.613663,9.22629433 C386.51172,9.52813988 386.299158,9.77135357 386.012851,9.91467592 C385.422884,10.2078353 384.700609,9.96245004 384.405626,9.36744513 L383.548873,7.63889072 L381.822352,8.49882482 C381.230217,8.79415572 380.505772,8.55311359 380.212958,7.96028023 C380.071973,7.67580708 380.050283,7.35224602 380.152226,7.04822891 C380.254169,6.7442118 380.471068,6.49665501 380.759545,6.35333266 L382.486065,5.49557011 L381.629312,3.7670157 C381.483989,3.4760279 381.462299,3.14812373 381.564242,2.84410662 C381.666185,2.54226107 381.878746,2.29687583 382.165054,2.15572503 C382.75502,1.86256568 383.477296,2.10577936 383.772279,2.70078427 L384.629032,4.42933868 L386.355552,3.57157613 C386.947688,3.27624523 387.669963,3.51728736 387.962778,4.10794917 C388.105932,4.39459387 388.127621,4.71815494 388.025679,5.02000049 C387.921567,5.32618915 387.706836,5.57374594 387.41836,5.71706829 L385.69184,6.57483084 L386.548593,8.30338525 C386.693916,8.59437305 386.715606,8.92227722 386.613663,9.22629433" id="Fill-42-Copy-3" fill="#0FE1C3" transform="translate(384.088875, 6.034983) rotate(-21.000000) translate(-384.088875, -6.034983) "></path>
    </g>
</svg>