<?xml version="1.0" encoding="UTF-8"?>
<svg width="15px" height="15px" viewBox="0 0 15 15" version="1.1" xmlns="http://www.w3.org/2000/svg" xmlns:xlink="http://www.w3.org/1999/xlink">
    <!-- Generator: Sketch 43.1 (39012) - http://www.bohemiancoding.com/sketch -->
    <title>Fill 42 Copy 4</title>
    <desc>Created with Sketch.</desc>
    <defs></defs>
    <g id="Home" stroke="none" stroke-width="1" fill="none" fill-rule="evenodd">
        <g id="BKG-TItle" transform="translate(-1733.000000, -463.000000)" fill="#FAD214">
            <g id="Group-10-Copy-2" transform="translate(84.000000, 48.000000)">
                <path d="M1660.16534,430.097962 C1658.98028,430.686829 1657.52945,430.193925 1656.93692,428.998744 L1655.21596,425.52661 L1651.74792,427.253953 C1650.5585,427.847182 1649.10331,427.363002 1648.51514,426.172183 C1648.23194,425.600764 1648.18838,424.950829 1648.39315,424.340152 C1648.59792,423.729476 1649.0336,423.23221 1649.61306,422.94432 L1653.08111,421.221339 L1651.36016,417.749206 C1651.06825,417.164701 1651.02468,416.506042 1651.22945,415.895365 C1651.43422,415.289051 1651.86119,414.796147 1652.4363,414.512619 C1653.62136,413.923752 1655.07219,414.412293 1655.66472,415.607475 L1657.38567,419.079608 L1660.85372,417.356628 C1662.04314,416.763399 1663.49397,417.247578 1664.08214,418.434036 C1664.36969,419.009817 1664.41326,419.659751 1664.20849,420.266066 C1663.99936,420.881105 1663.56803,421.37837 1662.98857,421.666261 L1659.52053,423.389242 L1661.24148,426.861375 C1661.53339,427.44588 1661.57696,428.104538 1661.37218,428.715215 C1661.16741,429.32153 1660.74044,429.810071 1660.16534,430.097962 Z" id="Fill-42-Copy-4" transform="translate(1656.300663, 422.304854) rotate(-20.000000) translate(-1656.300663, -422.304854) "></path>
            </g>
        </g>
    </g>
</svg>