<?xml version="1.0" encoding="UTF-8"?>
<svg width="32px" height="32px" viewBox="0 0 32 32" version="1.1" xmlns="http://www.w3.org/2000/svg" xmlns:xlink="http://www.w3.org/1999/xlink">
    <!-- Generator: Sketch 43.1 (39012) - http://www.bohemiancoding.com/sketch -->
    <title>Fill 42</title>
    <desc>Created with Sketch.</desc>
    <defs></defs>
    <g id="Home" stroke="none" stroke-width="1" fill="none" fill-rule="evenodd">
        <g id="BKG-TItle" transform="translate(-1345.000000, -154.000000)" fill="#765DFF">
            <g id="Group-10-Copy-2" transform="translate(84.000000, 48.000000)">
                <path d="M1283.7185,135.60879 C1281.64158,136.64083 1279.09888,135.776974 1278.06042,133.682315 L1275.0443,127.597101 L1268.96624,130.624418 C1266.88168,131.664103 1264.33135,130.815537 1263.30052,128.728523 C1262.8042,127.727061 1262.72784,126.587995 1263.08672,125.517731 C1263.4456,124.447467 1264.20917,123.575967 1265.22473,123.071414 L1271.30278,120.051741 L1268.28666,113.966527 C1267.77507,112.942131 1267.69871,111.787775 1268.05759,110.717512 C1268.41647,109.654893 1269.16477,108.791037 1270.17269,108.294129 C1272.24961,107.262089 1274.79232,108.1183 1275.83078,110.212959 L1278.8469,116.298173 L1284.92495,113.2785 C1287.00951,112.238815 1289.55221,113.087381 1290.58304,115.166751 C1291.087,116.175857 1291.16335,117.314924 1290.80447,118.377543 C1290.43796,119.455451 1289.68202,120.326952 1288.66646,120.831505 L1282.58841,123.851177 L1285.60453,129.936392 C1286.11613,130.960787 1286.19248,132.115143 1285.8336,133.185407 C1285.47472,134.248026 1284.72642,135.104237 1283.7185,135.60879 Z" id="Fill-42" transform="translate(1276.945324, 121.950695) rotate(27.000000) translate(-1276.945324, -121.950695) "></path>
            </g>
        </g>
    </g>
</svg>