<?xml version="1.0" encoding="UTF-8"?>
<svg width="11px" height="11px" viewBox="0 0 11 11" version="1.1" xmlns="http://www.w3.org/2000/svg" xmlns:xlink="http://www.w3.org/1999/xlink">
    <!-- Generator: Sketch 43.1 (39012) - http://www.bohemiancoding.com/sketch -->
    <title>Fill 42 Copy 6</title>
    <desc>Created with Sketch.</desc>
    <defs></defs>
    <g id="Home" stroke="none" stroke-width="1" fill="none" fill-rule="evenodd">
        <g id="BKG-TItle" transform="translate(-964.000000, -290.000000)" fill="#FAD214">
            <g id="Group-10-Copy-2" transform="translate(84.000000, 48.000000)">
                <path d="M889.401527,252.396761 C889.248867,252.848927 888.930556,253.213262 888.501811,253.427959 C887.618336,253.867113 886.536729,253.499525 886.094991,252.608205 L884.812003,250.018825 L882.226539,251.307009 C881.339816,251.749416 880.254961,251.388334 879.816471,250.500268 C879.605347,250.074126 879.572866,249.589431 879.725525,249.134012 C879.878185,248.678593 880.202992,248.307753 880.634985,248.093055 L883.220449,246.808124 L881.937461,244.218744 C881.71984,243.782844 881.68736,243.291642 881.840019,242.836223 C881.992678,242.384058 882.310989,242.01647 882.739735,241.805026 C883.62321,241.365872 884.704817,241.730207 885.146555,242.621526 L886.429542,245.210906 L889.015006,243.925975 C889.901729,243.483568 890.983337,243.84465 891.421826,244.729464 C891.636199,245.158858 891.66868,245.643554 891.51602,246.095719 C891.360113,246.554391 891.038554,246.925232 890.606561,247.139929 L888.021097,248.42486 L889.304085,251.01424 C889.521705,251.450141 889.554186,251.941342 889.401527,252.396761" id="Fill-42-Copy-6" transform="translate(885.620657, 247.616167) rotate(71.000000) translate(-885.620657, -247.616167) "></path>
            </g>
        </g>
    </g>
</svg>