<?xml version="1.0" encoding="UTF-8"?>
<svg width="165px" height="77px" viewBox="0 0 165 77" version="1.1" xmlns="http://www.w3.org/2000/svg" xmlns:xlink="http://www.w3.org/1999/xlink">
    <!-- Generator: Sketch 46.2 (44496) - http://www.bohemiancoding.com/sketch -->
    <title>car_front</title>
    <desc>Created with Sketch.</desc>
    <defs>
        <path d="M12.3945091,32.7297299 C16.2484911,30.5567767 25.1599934,33.4738973 26.8886644,34.9912067 C28.6173355,36.508516 28.9754722,39.1607598 26.1985719,40.4664955 C23.4216716,41.7722312 15.5758005,42.364564 12.3395166,40.8456463 C9.10323282,39.3267286 8.54052718,34.902683 12.3945091,32.7297299 Z" id="path-1"></path>
        <path d="M81.9502118,32.7297299 C85.8041938,30.5567767 94.7156961,33.4738973 96.4443671,34.9912067 C98.1730382,36.508516 98.5311749,39.1607598 95.7542746,40.4664955 C92.9773742,41.7722312 85.1315031,42.364564 81.8952193,40.8456463 C78.6589355,39.3267286 78.0962299,34.902683 81.9502118,32.7297299 Z" id="path-3"></path>
    </defs>
    <g id="F&amp;Q" stroke="none" stroke-width="1" fill="none" fill-rule="evenodd">
        <g transform="translate(-85.000000, -634.000000)" id="car_front">
            <g transform="translate(85.000000, 634.000000)">
                <g id="Group-9">
                    <g id="Group-23">
                        <g id="Group-19">
                            <g id="Group-16" transform="translate(0.000000, 55.291446)" opacity="0.5">
                                <path d="M82.4677215,21.410945 C128.013386,21.410945 164.935443,16.480724 164.935443,10.3989882 C164.935443,4.80757978 133.72692,0.713872977 93.3008054,0.00557019914 C89.755718,-0.0565429987 85.0914283,2.79549421 81.419403,2.79549421 C77.8404736,2.79549421 75.3631104,-0.0581473427 71.9044067,0.000903994684 C31.3474461,0.693343422 0,4.79514866 0,10.3989882 C0,16.480724 36.9220566,21.410945 82.4677215,21.410945 Z" id="Oval-4" fill="#EFEFEF"></path>
                                <path d="M82.4677215,13.1470715 C112.797228,13.1470715 137.38415,10.6945113 137.38415,7.66912504 C137.38415,4.64373875 112.797228,0 82.4677215,0 C52.1382155,0 27.551293,4.64373875 27.551293,7.66912504 C27.551293,10.6945113 52.1382155,13.1470715 82.4677215,13.1470715 Z" id="Oval-4" fill="#E1DFDF"></path>
                            </g>
                            <g id="Group-4" transform="translate(28.302532, 0.000000)">
                                <g id="Group-14">
                                    <path d="M5.3794762,54.0922317 C5.3794762,53.1252441 4.19568413,37.4213659 4.19568413,37.4213659 L6.79818287,30.4897322 C6.79818287,30.4897322 9.49735112,27.8230339 11.1354572,26.8869324 C12.7735633,25.950831 14.9928784,25.8068448 14.9928784,25.8068448 L21.346743,25.5757682 C21.346743,25.5757682 26.4142574,25.5450386 28.4857495,25.8068448 C30.5572417,26.0686511 49.252169,29.1026052 49.252169,29.1026052 L60.1327127,28.4625178 C60.1327127,28.4625178 74.292518,26.2136642 81.2418826,25.5757682 C88.1912472,24.9378721 91.5815276,25.5757682 91.5815276,25.5757682 C91.5815276,25.5757682 94.8119678,26.358661 95.9745185,26.8869324 C97.1370692,27.4152039 99.3429286,29.1026052 99.3429286,29.1026052 L102.270825,35.4847232 L102.229169,54.5123711 L99.5809162,56.9054986 L75.6739162,57.575721 L68.7507643,53.167258 L49.252169,50.8371514 L40.9516253,54.1119049 L29.7262582,57.5127001 L9.5181389,57.0718872 C9.5181389,57.0718872 5.3794762,55.0592192 5.3794762,54.0922317 Z" id="Path-28" fill="#FFFFFF"></path>
                                    <g id="Group-21-Copy-2">
                                        <path d="M15.6372203,24.3702614 C15.6372203,24.3702614 20.6471431,14.6982526 26.3575435,9.36720789 C32.0679439,4.0361632 37.5981878,1.11955957 53.6927463,0.994612409 C69.7873049,0.869665249 76.7778617,5.16055055 81.2711075,9.36720789 C85.7643533,13.5738652 91.7482724,24.8184921 91.7482724,24.8184921 C91.7482724,24.8184921 90.8184416,23.4479177 83.8236773,24.3702614 C76.8289131,25.292605 61.9611652,27.5271946 55.8329484,27.6624291 C49.7047316,27.7976636 33.3383071,25.6551383 26.3575435,24.3702614 C19.3767798,23.0853844 15.6372203,24.3702614 15.6372203,24.3702614 Z" id="Rectangle-82" fill="#FFFFFF"></path>
                                        <g id="Group-36" transform="translate(95.102174, 49.181643)"></g>
                                        <path d="M78.1326476,24.1148922 C76.8733716,21.2989401 74.1154633,19.8172316 70.7678181,19.8172316 C67.259355,19.8172316 63.5341788,21.4860039 62.9268957,26.3506329" id="Oval-2-Copy" stroke="#1A2020" stroke-width="2.2" stroke-linecap="round" stroke-linejoin="round"></path>
                                        <path d="M90.8103936,24.1279955 C90.8103936,21.6765105 92.8430973,19.6891891 95.3514031,19.6891891 L101.998885,19.6891891" id="Rectangle-33" stroke="#1A2020" stroke-width="1.5" stroke-linecap="round" stroke-linejoin="round"></path>
                                        <path d="M4.79834127,24.1279955 C4.79834127,21.6765105 6.83104489,19.6891891 9.33935076,19.6891891 L15.9868323,19.6891891" id="Rectangle-33-Copy" stroke="#1A2020" stroke-width="1.5" stroke-linecap="round" stroke-linejoin="round" transform="translate(10.392587, 21.908592) scale(-1, 1) translate(-10.392587, -21.908592) "></path>
                                        <path d="M2.01716217,19.7265286 C2.83412457,18.9162455 4.42499421,18.2593813 5.57554309,18.2593813 L8.41007069,18.2593813 C9.5583478,18.2593813 10.4892103,19.1829266 10.4892103,20.3400718 L10.4892103,20.3400718 C10.4892103,21.4892054 9.55453004,22.4207623 8.41096221,22.4207623 L1.37896743,22.4207623 C0.231182689,22.4207623 -0.043705043,21.7705465 0.779960582,20.953615 L2.01716217,19.7265286 Z" id="Rectangle-34-Copy-2" fill="#06C3C3" transform="translate(5.396683, 20.340072) scale(1, -1) translate(-5.396683, -20.340072) "></path>
                                        <path d="M98.2137421,19.7265286 C99.0307045,18.9162455 100.621574,18.2593813 101.772123,18.2593813 L104.606651,18.2593813 C105.754928,18.2593813 106.68579,19.1829266 106.68579,20.3400718 L106.68579,20.3400718 C106.68579,21.4892054 105.75111,22.4207623 104.607542,22.4207623 L97.5755474,22.4207623 C96.4277626,22.4207623 96.1528749,21.7705465 96.9765405,20.953615 L98.2137421,19.7265286 Z" id="Rectangle-34-Copy-3" fill="#06C3C3" transform="translate(101.593263, 20.340072) scale(-1, -1) translate(-101.593263, -20.340072) "></path>
                                        <path d="M85.1137447,54.4820454 C85.1137447,54.4820454 94.039594,56.1190504 97.0015164,55.335662 C99.9634388,54.5522737 101.896481,50.043239 101.896481,50.043239 L101.896481,56.2311137 C101.896481,58.6594939 99.9219368,60.628085 97.4870147,60.628085 L89.5232111,60.628085 C87.08793,60.628085 85.1137447,58.6496089 85.1137447,56.2268139 L85.1137447,54.4820454 Z" id="Rectangle-83-Copy-5" fill="#1A2020"></path>
                                        <path d="M5.68034899,50.2059831 C5.68034899,50.2059831 4.59406989,55.9525765 10.2256735,55.4984062 C15.857277,55.0442358 22.4630855,54.6447895 22.4630855,54.6447895 L22.4630855,56.389558 C22.4630855,58.820313 20.4885411,60.7908292 18.0536191,60.7908292 L10.0898154,60.7908292 C7.65453436,60.7908292 5.68034899,58.8247073 5.68034899,56.3938578 L5.68034899,50.2059831 Z" id="Rectangle-83-Copy-6" fill="#1A2020"></path>
                                        <path d="M48.5826375,6.69326667 C49.1171467,5.91349222 50.2977873,5.13500977 51.2271387,4.98916779 C51.2271387,4.98916779 51.6982413,4.79357921 53.8450972,4.79357921 C55.9919531,4.79357921 56.4626539,4.98916779 56.4626539,4.98916779 C57.3883308,5.15054116 58.5740437,5.9164073 59.1065547,6.69326667 L59.1770703,6.79613912 C59.7115796,7.57591357 59.3743957,8.20804567 58.436131,8.20804567 C58.436131,8.20804567 57.8573868,8.20804567 53.8450972,8.20804567 C49.8328076,8.20804567 49.2535769,8.20804567 49.2535769,8.20804567 C48.3095734,8.20804567 47.9796108,7.57299849 48.5121219,6.79613912 L48.5826375,6.69326667 Z" id="Rectangle-13" fill="#1A2020" transform="translate(53.844494, 6.500812) scale(1, -1) translate(-53.844494, -6.500812) "></path>
                                        <path d="M14.9431001,24.143121 L24.9824706,10.4954519 L33.0661753,4.41886081 C33.0661753,4.41886081 40.7605555,1.66694054 41.5451061,1.66694054 C42.3296567,1.66694054 59.0300439,0.674170926 59.0300439,0.674170926 L71.1971132,3.33136324 L79.9483343,8.31577287 L86.9192956,16.685434 L91.565896,24.8861905 L82.5056151,24.3973442 L61.811265,27.6685356 L48.8069417,27.6685356 L33.9648481,25.5657815 L26.7201153,24.143121 L14.9431001,24.143121 Z" id="Path-30" fill="#FFFFFF" opacity="0.745743937"></path>
                                        <path d="M15.6372203,24.3702614 C15.6372203,24.3702614 20.6471431,14.6982526 26.3575435,9.36720789 C32.0679439,4.0361632 37.5981878,1.11955957 53.6927463,0.994612409 C69.7873049,0.869665249 76.7778617,5.16055055 81.2711075,9.36720789 C85.7643533,13.5738652 91.7482724,24.8184921 91.7482724,24.8184921" id="Rectangle-82" stroke="#1A2020"></path>
                                        <path d="M24.4748241,19.8172316 C24.683022,19.4686851 24.8126827,19.3243476 25.3080123,18.4514451 M26.4727419,16.4296275 C27.4982686,14.6828276 30.9246892,10.9143198 32.1669117,9.9152789 C33.8651513,8.54949231 36.7122361,7.52515237 41.2575606,6.50081244" id="Rectangle-82" stroke="#1A2020" stroke-width="2.2" opacity="0.1" stroke-linecap="round"></path>
                                        <path d="M4.89496482,42.3527103 L6.61361609,44.8702732 C7.98164356,46.8742256 11.0624554,48.5512015 13.4892181,48.6157553 L30.3640124,49.0646379 C32.793275,49.1292581 36.4748623,48.2031942 38.5806603,46.9998775 L38.8308298,46.8569231 C39.8840647,46.2550728 41.7270117,45.7671767 42.935883,45.7671767 L64.5833031,45.7671767 C65.7972265,45.7671767 67.6188208,46.2783569 68.659671,46.9136433 L68.613071,46.8852008 C70.6910315,48.1534909 74.3443052,49.1317051 76.7760303,49.0700236 L94.8973787,48.6103695 C97.3276962,48.5487237 100.411209,46.86786 101.774891,44.8702732 L102.257391,44.1634831 C102.940098,43.1634209 103.250209,43.3032332 102.947588,44.4853475 L100.696419,53.279003 L75.5223144,53.9618962 C75.5223144,53.9618962 72.3174782,49.8480746 64.3338233,49.8645365 C56.6390855,49.8808368 58.263154,49.268544 55.2431744,49.1816432 C47.3583725,48.9798094 43.5518101,49.1122945 43.5518101,49.1122945 C41.1261249,49.1505947 37.4142648,50.1113976 35.2686049,51.2543306 L31.467631,53.279003 L9.78992964,53.279003 L6.2935262,49.1816432 L4.89496482,42.3527103 Z" id="Path-13-Copy-5" fill="#EFEFEF" opacity="0.25707654"></path>
                                        <path d="M4.89496482,46.9489054 L6.40902115,48.9212266 C7.88900008,50.8491561 11.0537058,52.4120518 13.4825055,52.4120518 L28.957458,52.4120518 C31.3840566,52.4120518 35.0052966,51.3392697 37.0364737,50.0219253 L36.7129436,50.2317546 C38.9269429,48.7958386 42.8520273,47.6317987 45.4963591,47.6317987 L61.9788295,47.6317987 C64.6157767,47.6317987 68.5172307,48.8380584 70.6976703,50.329269 L70.1049671,49.9239172 C72.1142543,51.298076 75.7131998,52.4120518 78.1433362,52.4120518 L94.855125,52.4120518 C97.2853065,52.4120518 100.265531,50.7283502 101.513963,48.6475323 L101.405081,48.8290105 C102.028064,47.7906571 102.392997,47.9211275 102.219749,49.1234253 L101.352255,55.1436249 L97.8751161,55.7029414 L75.4905181,56.5094115 C75.4905181,56.5094115 72.2871247,51.7126966 64.3070641,51.7291585 C56.6157904,51.7454588 58.2391277,51.8160593 55.2205077,51.7291585 C47.3392556,51.5273247 43.4672559,52.431192 43.4672559,52.431192 C41.0797492,52.7977727 37.3747629,53.9756151 35.208507,55.0537302 L32.6053585,56.3492805 L31.455668,56.5094115 L7.60547004,55.6299648 L5.90484397,54.7030981 L4.89496482,46.9489054 Z" id="Path-13-Copy-4" fill="#EFEFEF"></path>
                                        <path d="M37.0887099,48.1301707 C38.6831535,46.3030875 41.9180792,44.4843337 44.3217781,44.1350493 C44.3217781,44.1350493 46.8822436,43.4561574 53.7816328,43.4561574 C60.6130413,43.4561574 63.1465463,44.1330487 63.1465463,44.1330487 C65.5389853,44.513515 68.7856803,46.306219 70.3920826,48.1301707 L75.8701352,54.3500969 C76.6723579,55.2609618 76.3406593,55.8506682 75.1508112,55.6522483 C75.1508112,55.6522483 74.7791151,55.635396 73.8284336,55.3774457 C69.8970436,54.3107336 59.2635218,50.8888764 53.7275034,50.8888764 C48.4650783,50.8888764 38.5960789,54.0467009 34.2564501,55.2075727 C32.9268737,55.5632408 32.3954766,55.6143998 32.3954766,55.6143998 C31.1948163,55.8270095 30.8690442,55.2573257 31.671261,54.3380604 L37.0887099,48.1301707 Z" id="Rectangle-3" fill="#06C3C3"></path>
                                        <path d="M102.638409,43.1781337 C102.467088,46.9211906 102.189047,50.5232075 101.804288,53.9841842 C101.717143,54.7680364 101.093144,55.3805278 100.31411,55.4468764 C93.3751319,56.0378539 86.0042381,56.2208983 78.2014283,55.9960097 C71.1344877,55.7923299 62.415938,50.5474298 53.7472077,50.5474298 C44.872859,50.5474298 36.7965769,55.7999915 29.6228057,56.0105761 C21.9827571,56.2348482 14.5189427,56.0469252 7.2313623,55.4468072 C6.43239139,55.3810144 5.79796941,54.7415477 5.73200035,53.9355239 C5.46173973,50.6334224 5.19000855,47.0476257 4.91680682,43.1781337 C4.79615007,41.4692122 4.75232865,39.4951734 4.78534257,37.2560172 C4.89005141,30.1541683 10.5666882,24.4202097 17.6057176,24.3061837 C19.6694414,24.2727533 21.460488,24.256038 22.9788575,24.256038 C28.9219616,24.256038 40.8107752,27.6705045 53.7472077,27.6705045 C67.761288,27.6705045 78.3040996,24.256038 84.515558,24.256038 C87.814844,24.0439628 90.5734801,24.3062015 92.7914663,25.0427539 C104.044563,28.7797003 102.69376,41.9688122 102.638409,43.1781337 Z" id="Rectangle-78" stroke="#1A2020"></path>
                                        <mask id="mask-2" fill="white">
                                            <use xlink:href="#path-1"></use>
                                        </mask>
                                        <use id="Rectangle-4" fill="#1A2020" transform="translate(18.970138, 36.849280) scale(1, -1) rotate(-15.000000) translate(-18.970138, -36.849280) " xlink:href="#path-1"></use>
                                        <ellipse id="Oval-6" fill="#FAD214" mask="url(#mask-2)" cx="22.376982" cy="35.5237774" rx="4.19568413" ry="4.09735975"></ellipse>
                                        <ellipse id="Oval-6-Copy-5" fill="#FFFFFF" opacity="0.355701959" mask="url(#mask-2)" cx="84.8659801" cy="35.865224" rx="1.74820172" ry="1.70723323"></ellipse>
                                        <ellipse id="Oval-6-Copy" fill="#FFFFFF" mask="url(#mask-2)" cx="14.2386306" cy="35.865224" rx="1.74820172" ry="1.70723323"></ellipse>
                                        <mask id="mask-4" fill="white">
                                            <use xlink:href="#path-3"></use>
                                        </mask>
                                        <use id="Rectangle-4" fill="#1A2020" transform="translate(88.525841, 36.849280) scale(-1, -1) rotate(-15.000000) translate(-88.525841, -36.849280) " xlink:href="#path-3"></use>
                                        <ellipse id="Oval-6" fill="#FAD214" mask="url(#mask-4)" transform="translate(86.011525, 35.523777) scale(-1, 1) translate(-86.011525, -35.523777) " cx="86.0115247" cy="35.5237774" rx="4.19568413" ry="4.09735975"></ellipse>
                                        <ellipse id="Oval-6-Copy" fill="#FFFFFF" mask="url(#mask-4)" transform="translate(93.257348, 35.865224) scale(-1, 1) translate(-93.257348, -35.865224) " cx="93.2573484" cy="35.865224" rx="1.74820172" ry="1.70723323"></ellipse>
                                    </g>
                                    <path d="M14.6848945,52.2062724 L25.8733855,52.2062724" id="Line-Copy-8" stroke="#1A2020" stroke-linecap="round" stroke-linejoin="round"></path>
                                    <path d="M82.5151212,51.711236 L93.7036123,51.711236" id="Line-Copy-9" stroke="#1A2020" stroke-linecap="round" stroke-linejoin="round"></path>
                                </g>
                            </g>
                        </g>
                    </g>
                </g>
            </g>
        </g>
    </g>
</svg>