<?xml version="1.0" encoding="UTF-8"?>
<svg width="109px" height="84px" viewBox="0 0 109 84" version="1.1" xmlns="http://www.w3.org/2000/svg" xmlns:xlink="http://www.w3.org/1999/xlink">
    <!-- Generator: Sketch 46.2 (44496) - http://www.bohemiancoding.com/sketch -->
    <title>app</title>
    <desc>Created with Sketch.</desc>
    <defs>
        <path d="M17.409019,12.3807212 C17.409019,5.5430377 22.9616003,0 29.799748,0 L79.296771,0 C86.1399816,0 91.6875,5.54809659 91.6875,12.3807212 L91.6875,61.8377662 C91.6875,68.6754497 86.1349187,74.2184874 79.296771,74.2184874 L29.799748,74.2184874 C22.9565373,74.2184874 17.409019,68.6703908 17.409019,61.8377662 L17.409019,12.3807212 Z" id="path-1"></path>
        <filter x="-2.7%" y="-2.7%" width="105.4%" height="105.4%" filterUnits="objectBoundingBox" id="filter-2">
            <feOffset dx="0" dy="-3" in="SourceAlpha" result="shadowOffsetInner1"></feOffset>
            <feComposite in="shadowOffsetInner1" in2="SourceAlpha" operator="arithmetic" k2="-1" k3="1" result="shadowInnerInner1"></feComposite>
            <feColorMatrix values="0 0 0 0 0.936277636   0 0 0 0 0.936277636   0 0 0 0 0.936277636  0 0 0 1 0" type="matrix" in="shadowInnerInner1"></feColorMatrix>
        </filter>
    </defs>
    <g id="F&amp;Q" stroke="none" stroke-width="1" fill="none" fill-rule="evenodd">
        <g transform="translate(-1458.000000, -623.000000)" id="app">
            <g transform="translate(1458.000000, 624.000000)">
                <g id="Group-15">
                    <ellipse id="Oval-16-Copy-3" fill="#E1DFDF" opacity="0.2" cx="54.0986859" cy="74.7023351" rx="54.0986859" ry="7.44183086"></ellipse>
                    <ellipse id="Oval-14" fill="#B3B3B3" opacity="0.2" cx="53.7569404" cy="73.9285714" rx="42.1509278" ry="4.3487395"></ellipse>
                    <g id="Rectangle-27-Copy-2">
                        <use fill="#FFFFFF" fill-rule="evenodd" xlink:href="#path-1"></use>
                        <use fill="black" fill-opacity="1" filter="url(#filter-2)" xlink:href="#path-1"></use>
                        <use stroke="#1A2020" stroke-width="1" xlink:href="#path-1"></use>
                    </g>
                    <path d="M68.8288863,20.4392324 C65.0602667,15.6910607 58.2358533,16.7679987 53.2889447,18.3169679 C50.9536323,19.0481428 48.6965775,20.0263169 46.3740245,20.7964258 C41.7478024,22.3303928 41.2491646,21.4647346 40.4201432,21.0834307 C40.3199393,21.0373527 40.2039137,21.0909318 40.1661458,21.198447 C39.5737689,22.8818994 38.6200455,25.0357756 39.4880257,26.8176348 C39.8277663,27.5150549 40.4757742,27.9681547 41.1999984,28.1901504 C41.1999984,28.1901504 41.763454,28.4298271 42.8311615,28.3710688 L42.8296303,28.3805345 C42.8296303,28.3805345 43.3898535,28.2297988 43.5706969,29.3554938 C43.9919276,33.0917367 43.5188086,36.9587123 43.2913509,40.6974555 C43.0938352,43.9470224 42.6984636,47.3982249 43.8503832,50.4733028 C46.1244505,56.5436259 53.3467874,57.4080339 58.7327899,56.5116571 C60.8338395,56.1621434 63.1351268,55.4877623 64.6948372,53.8509235 C66.0401895,52.4392953 66.7031685,50.2009429 66.2560787,48.2274494 C65.7298806,45.904085 64.114199,44.6774829 61.9519041,44.4965644 C61.7766749,44.4817409 61.6240723,44.6214035 61.6143752,44.8057153 C61.4006976,48.8600389 55.9401801,51.2291241 52.5655712,49.6660458 C49.5912674,48.2883509 50.1246108,44.8148237 50.1827937,41.9306657 C50.1848352,41.8261867 50.1870469,41.7149209 50.1894286,41.5963327 C50.1894286,41.5945467 50.1906195,41.5927608 50.1923207,41.592225 C53.2086455,40.651199 54.9871372,41.0071422 55.927761,41.4397034 C55.927761,41.4397034 55.933205,41.4430967 55.9423918,41.4479189 C55.9546408,41.4536339 55.9677405,41.4591704 55.9796492,41.4648855 C56.0626705,41.4981045 56.2278623,41.5318593 56.3416763,41.3466545 C57.0483775,40.1880978 57.5652187,38.7516445 57.6982568,37.3964528 C57.9024074,35.3161585 56.56369,33.8597025 54.6375294,33.8132673 C53.1382135,33.7770122 51.7135828,34.5097944 50.3501972,35.0841614 C50.3476453,35.0854116 50.3447532,35.0829112 50.3447532,35.0800537 C50.3597242,34.2135025 50.3780978,33.884706 50.3682305,33.0302994 C50.3532595,31.7151134 50.3217862,29.4701529 50.2016777,28.3692829 C50.1419636,27.8222412 49.9954856,27.2743065 49.6263133,26.8658559 C49.5509477,26.7824512 49.4709887,26.7222641 49.6157655,26.6640416 C51.1989532,26.0264514 52.8279046,25.4769094 54.4793127,25.0693517 C55.6312323,24.7852044 56.8108823,24.5992852 57.9963167,24.6176807 C58.0203044,24.6182165 58.0444622,24.6183951 58.0684499,24.6192881 C58.0579021,24.6189309 58.0475244,24.6183951 58.0364663,24.6178593 C58.0708316,24.6185737 58.105197,24.6175021 58.1395623,24.6185737 C58.8867534,24.6407197 59.6473844,24.7812753 60.3525545,25.0420264 C62.2329514,25.7335528 63.7380515,27.333422 63.489158,29.5526646 C63.4632989,29.7826971 63.6601341,29.9729026 63.8780648,29.9368261 C65.7861922,29.6203527 67.9842133,29.0756328 69.2007806,27.3266354 C70.6082287,25.303492 70.3202063,22.3182482 68.8288863,20.4392324" id="Fill-6-Copy-2" fill="#06C3C3"></path>
                </g>
            </g>
        </g>
    </g>
</svg>