<?xml version="1.0" encoding="UTF-8"?>
<svg width="100px" height="83px" viewBox="0 0 100 83" version="1.1" xmlns="http://www.w3.org/2000/svg" xmlns:xlink="http://www.w3.org/1999/xlink">
    <!-- Generator: Sketch 46.2 (44496) - http://www.bohemiancoding.com/sketch -->
    <title>accident_sign</title>
    <desc>Created with Sketch.</desc>
    <defs>
        <path d="M18.5696203,65.1008403 L25.5332278,65.1008403 L25.5332278,72.0624536 C25.5332278,73.9818428 23.9704584,75.5378151 22.0514241,75.5378151 L22.0514241,75.5378151 C20.1284769,75.5378151 18.5696203,73.9752945 18.5696203,72.0624536 L18.5696203,65.1008403 Z" id="path-1"></path>
        <filter x="-28.7%" y="-19.2%" width="157.4%" height="138.3%" filterUnits="objectBoundingBox" id="filter-2">
            <feOffset dx="0" dy="-3" in="SourceAlpha" result="shadowOffsetInner1"></feOffset>
            <feComposite in="shadowOffsetInner1" in2="SourceAlpha" operator="arithmetic" k2="-1" k3="1" result="shadowInnerInner1"></feComposite>
            <feColorMatrix values="0 0 0 0 0.882413903   0 0 0 0 0.872734647   0 0 0 0 0.872734647  0 0 0 1 0" type="matrix" in="shadowInnerInner1"></feColorMatrix>
        </filter>
        <path d="M76.5996835,65.1008403 L83.5632911,65.1008403 L83.5632911,72.0624536 C83.5632911,73.9818428 82.0005217,75.5378151 80.0814873,75.5378151 L80.0814873,75.5378151 C78.1585402,75.5378151 76.5996835,73.9752945 76.5996835,72.0624536 L76.5996835,65.1008403 Z" id="path-3"></path>
        <filter x="-28.7%" y="-19.2%" width="157.4%" height="138.3%" filterUnits="objectBoundingBox" id="filter-4">
            <feOffset dx="0" dy="-3" in="SourceAlpha" result="shadowOffsetInner1"></feOffset>
            <feComposite in="shadowOffsetInner1" in2="SourceAlpha" operator="arithmetic" k2="-1" k3="1" result="shadowInnerInner1"></feComposite>
            <feColorMatrix values="0 0 0 0 0.882413903   0 0 0 0 0.872734647   0 0 0 0 0.872734647  0 0 0 1 0" type="matrix" in="shadowInnerInner1"></feColorMatrix>
        </filter>
        <path d="M44.1028481,3.63865546 C47.3430701,-1.00364956 52.4705691,-1.00194346 55.7088608,3.63865546 L95.1693038,61.6218487 C98.0018058,65.9693629 95.9649508,69.7394958 90.5268987,69.7394958 L9.28481013,69.7394958 C3.84136611,69.7394958 1.81183347,65.9676568 4.64240506,61.6218487 L44.1028481,3.63865546 Z" id="path-5"></path>
        <filter x="-2.1%" y="-2.9%" width="104.3%" height="105.7%" filterUnits="objectBoundingBox" id="filter-6">
            <feOffset dx="0" dy="-3" in="SourceAlpha" result="shadowOffsetInner1"></feOffset>
            <feComposite in="shadowOffsetInner1" in2="SourceAlpha" operator="arithmetic" k2="-1" k3="1" result="shadowInnerInner1"></feComposite>
            <feColorMatrix values="0 0 0 0 0.936277636   0 0 0 0 0.936277636   0 0 0 0 0.936277636  0 0 0 1 0" type="matrix" in="shadowInnerInner1"></feColorMatrix>
        </filter>
    </defs>
    <g id="F&amp;Q" stroke="none" stroke-width="1" fill="none" fill-rule="evenodd">
        <g transform="translate(-791.000000, -623.000000)" id="accident_sign">
            <g transform="translate(791.000000, 624.000000)">
                <g id="Group-12">
                    <ellipse id="Oval-14" fill="#E1DFDF" opacity="0.330412138" cx="49.9058544" cy="76.697479" rx="49.9058544" ry="4.63865546"></ellipse>
                    <ellipse id="Oval-14" fill="#B3B3B3" opacity="0.21180933" cx="22.0514241" cy="75.5378151" rx="9.28481013" ry="2.31932773"></ellipse>
                    <ellipse id="Oval-14-Copy" fill="#B3B3B3" opacity="0.21180933" cx="80.0814873" cy="75.5378151" rx="9.28481013" ry="2.31932773"></ellipse>
                    <g id="Rectangle-15-Copy-17">
                        <use fill="#FAD214" fill-rule="evenodd" xlink:href="#path-1"></use>
                        <use fill="black" fill-opacity="1" filter="url(#filter-2)" xlink:href="#path-1"></use>
                        <use stroke="#1A2020" stroke-width="1" xlink:href="#path-1"></use>
                    </g>
                    <g id="Rectangle-15-Copy-18">
                        <use fill="#FAD214" fill-rule="evenodd" xlink:href="#path-3"></use>
                        <use fill="black" fill-opacity="1" filter="url(#filter-4)" xlink:href="#path-3"></use>
                        <use stroke="#1A2020" stroke-width="1" xlink:href="#path-3"></use>
                    </g>
                    <g id="Rectangle-6-Copy-38">
                        <use fill="#FFFFFF" fill-rule="evenodd" xlink:href="#path-5"></use>
                        <use fill="black" fill-opacity="1" filter="url(#filter-6)" xlink:href="#path-5"></use>
                        <use stroke="#1A2020" stroke-width="1" xlink:href="#path-5"></use>
                    </g>
                    <path d="M45.9999941,26.9777447 C45.8040151,25.2882428 47.0276055,23.9186309 48.7272632,23.9186309 L51.1675284,23.9186309 C52.8697366,23.9186309 54.0902387,25.2928798 53.8947976,26.9777447 L51.9680228,43.5881467 C51.8703766,44.429939 51.0976007,45.1123465 50.2486917,45.1123465 L49.6460999,45.1123465 C48.7941859,45.1123465 48.0245611,44.4311975 47.9267688,43.5881467 L45.9999941,26.9777447 Z" id="Rectangle-14-Copy-2" fill="#06C3C3"></path>
                    <path d="M50.2427199,58.2006081 C52.6187887,58.2006081 54.544973,56.2881708 54.544973,53.9290599 C54.544973,51.569949 52.6187887,49.6575118 50.2427199,49.6575118 C47.8666511,49.6575118 45.9404668,51.569949 45.9404668,53.9290599 C45.9404668,56.2881708 47.8666511,58.2006081 50.2427199,58.2006081 Z" id="Oval-Copy-6" fill="#06C3C3"></path>
                </g>
            </g>
        </g>
    </g>
</svg>